# Blender v2.91.2 OBJ File: 'mat_0.blend'
# www.blender.org
mtllib mat_6.mtl
o Cylinder.004_Cylinder.002
v -0.000001 -0.887493 -0.027748
v -0.000001 -0.698350 -0.164037
v -0.000001 -0.873096 -0.079904
v -0.000001 -0.832095 -0.124119
v -0.000001 -0.770732 -0.153662
v -0.000001 0.887493 -0.027748
v -0.000001 0.698350 -0.164037
v -0.000001 0.873096 -0.079904
v -0.000001 0.832095 -0.124119
v -0.000001 0.770732 -0.153662
v 0.010618 -0.887493 -0.025636
v 0.062773 -0.698350 -0.151550
v 0.030577 -0.873096 -0.073821
v 0.047497 -0.832095 -0.114671
v 0.058803 -0.770732 -0.141965
v 0.010618 0.887493 -0.025636
v 0.062773 0.698350 -0.151550
v 0.030577 0.873096 -0.073821
v 0.047497 0.832095 -0.114671
v 0.058803 0.770732 -0.141965
v 0.019620 -0.887493 -0.019621
v 0.115991 -0.698350 -0.115991
v 0.056500 -0.873096 -0.056500
v 0.087764 -0.832095 -0.087765
v 0.108655 -0.770732 -0.108656
v 0.019620 0.887493 -0.019621
v 0.115991 0.698350 -0.115991
v 0.056500 0.873096 -0.056500
v 0.087764 0.832095 -0.087765
v 0.108655 0.770732 -0.108656
v 0.025635 -0.887493 -0.010619
v 0.151549 -0.698350 -0.062774
v 0.073821 -0.873096 -0.030578
v 0.114670 -0.832095 -0.047498
v 0.141965 -0.770732 -0.058804
v 0.025635 0.887493 -0.010619
v 0.151549 0.698350 -0.062774
v 0.073821 0.873096 -0.030578
v 0.114670 0.832095 -0.047498
v 0.141965 0.770732 -0.058804
v 0.027748 -0.887493 0.000000
v 0.164036 -0.698350 0.000000
v 0.079903 -0.873096 0.000000
v 0.124118 -0.832095 0.000000
v 0.153661 -0.770732 0.000000
v 0.027748 0.887493 0.000000
v 0.164036 0.698350 0.000000
v 0.079903 0.873096 0.000000
v 0.124118 0.832095 0.000000
v 0.153661 0.770732 0.000000
v 0.025635 -0.887493 0.010619
v 0.151549 -0.698350 0.062774
v 0.073821 -0.873096 0.030578
v 0.114670 -0.832095 0.047498
v 0.141965 -0.770732 0.058804
v 0.025635 0.887493 0.010619
v 0.151549 0.698350 0.062774
v 0.073821 0.873096 0.030578
v 0.114670 0.832095 0.047498
v 0.141965 0.770732 0.058804
v 0.019620 -0.887493 0.019621
v 0.115991 -0.698350 0.115991
v 0.056500 -0.873096 0.056500
v 0.087764 -0.832095 0.087765
v 0.108655 -0.770732 0.108656
v 0.019620 0.887493 0.019621
v 0.115991 0.698350 0.115991
v 0.056500 0.873096 0.056500
v 0.087764 0.832095 0.087765
v 0.108655 0.770732 0.108656
v 0.010618 -0.887493 0.025636
v 0.062773 -0.698350 0.151550
v 0.030577 -0.873096 0.073821
v 0.047497 -0.832095 0.114671
v 0.058803 -0.770732 0.141965
v 0.010618 0.887493 0.025636
v 0.062773 0.698350 0.151550
v 0.030577 0.873096 0.073821
v 0.047497 0.832095 0.114671
v 0.058803 0.770732 0.141965
v -0.000001 -0.887493 0.027748
v -0.000001 -0.698350 0.164037
v -0.000001 -0.873096 0.079904
v -0.000001 -0.832095 0.124119
v -0.000001 -0.770732 0.153662
v -0.000001 0.887493 0.027748
v -0.000001 0.698350 0.164037
v -0.000001 0.873096 0.079904
v -0.000001 0.832095 0.124119
v -0.000001 0.770732 0.153662
v -0.010620 -0.887493 0.025636
v -0.062775 -0.698350 0.151550
v -0.030579 -0.873096 0.073821
v -0.047499 -0.832095 0.114671
v -0.058805 -0.770732 0.141965
v -0.010620 0.887493 0.025636
v -0.062775 0.698350 0.151550
v -0.030579 0.873096 0.073821
v -0.047499 0.832095 0.114671
v -0.058805 0.770732 0.141965
v -0.019622 -0.887493 0.019621
v -0.115992 -0.698350 0.115991
v -0.056501 -0.873096 0.056500
v -0.087766 -0.832095 0.087765
v -0.108656 -0.770732 0.108656
v -0.019622 0.887493 0.019621
v -0.115992 0.698350 0.115991
v -0.056501 0.873096 0.056500
v -0.087766 0.832095 0.087765
v -0.108656 0.770732 0.108656
v -0.025637 -0.887493 0.010619
v -0.151551 -0.698350 0.062774
v -0.073822 -0.873096 0.030578
v -0.114672 -0.832095 0.047498
v -0.141966 -0.770732 0.058804
v -0.025637 0.887493 0.010619
v -0.151551 0.698350 0.062774
v -0.073822 0.873096 0.030578
v -0.114672 0.832095 0.047498
v -0.141966 0.770732 0.058804
v -0.027749 -0.887493 0.000000
v -0.164037 -0.698350 -0.000000
v -0.079904 -0.873096 0.000000
v -0.124120 -0.832095 0.000000
v -0.153663 -0.770732 -0.000000
v -0.027749 0.887493 0.000000
v -0.164037 0.698350 -0.000000
v -0.079904 0.873096 0.000000
v -0.124120 0.832095 0.000000
v -0.153663 0.770732 -0.000000
v -0.025637 -0.887493 -0.010619
v -0.151551 -0.698350 -0.062774
v -0.073822 -0.873096 -0.030578
v -0.114672 -0.832095 -0.047498
v -0.141966 -0.770732 -0.058804
v -0.025637 0.887493 -0.010619
v -0.151551 0.698350 -0.062774
v -0.073822 0.873096 -0.030578
v -0.114672 0.832095 -0.047498
v -0.141966 0.770732 -0.058804
v -0.019622 -0.887493 -0.019621
v -0.115992 -0.698350 -0.115991
v -0.056501 -0.873096 -0.056500
v -0.087766 -0.832095 -0.087765
v -0.108656 -0.770732 -0.108656
v -0.019622 0.887493 -0.019621
v -0.115992 0.698350 -0.115991
v -0.056501 0.873096 -0.056500
v -0.087766 0.832095 -0.087765
v -0.108656 0.770732 -0.108656
v -0.010620 -0.887493 -0.025636
v -0.062775 -0.698350 -0.151550
v -0.030579 -0.873096 -0.073821
v -0.047499 -0.832095 -0.114671
v -0.058805 -0.770732 -0.141965
v -0.010620 0.887493 -0.025636
v -0.062775 0.698350 -0.151550
v -0.030579 0.873096 -0.073821
v -0.047499 0.832095 -0.114671
v -0.058805 0.770732 -0.141965
vt 0.875771 0.056543
vt 0.017195 0.056552
vt 0.017194 0.017208
vt 0.875770 0.017198
vt 0.875771 0.568036
vt 0.017195 0.568029
vt 0.017195 0.528684
vt 0.875771 0.528690
vt 0.017196 0.489340
vt 0.875771 0.489345
vt 0.017196 0.449996
vt 0.875771 0.449999
vt 0.017196 0.410651
vt 0.875772 0.410654
vt 0.017196 0.371307
vt 0.875772 0.371308
vt 0.017196 0.331963
vt 0.875772 0.331962
vt 0.017196 0.292618
vt 0.875772 0.292617
vt 0.017196 0.253274
vt 0.875772 0.253271
vt 0.017196 0.213930
vt 0.875772 0.213926
vt 0.017196 0.174585
vt 0.875771 0.174580
vt 0.017196 0.135241
vt 0.875771 0.135235
vt 0.017195 0.095897
vt 0.875771 0.095889
vt 0.875770 0.607381
vt 0.017195 0.607373
vt 0.158296 0.826259
vt 0.161476 0.823329
vt 0.165529 0.821845
vt 0.169829 0.822029
vt 0.173740 0.823839
vt 0.176664 0.827012
vt 0.178150 0.831063
vt 0.177969 0.835375
vt 0.176155 0.839292
vt 0.172977 0.842214
vt 0.168924 0.843702
vt 0.164611 0.843521
vt 0.160695 0.841707
vt 0.157777 0.838531
vt 0.156298 0.834480
vt 0.156482 0.830176
vt 0.875770 0.646727
vt 0.017194 0.646717
vt 0.586664 0.959956
vt 0.531519 0.982803
vt 0.519614 0.926638
vt 0.554171 0.912623
vt 0.511838 0.890477
vt 0.533148 0.882192
vt 0.506863 0.864909
vt 0.518767 0.860473
vt 0.503372 0.843699
vt 0.507426 0.842216
vt 0.040067 0.747793
vt 0.082262 0.705610
vt 0.114737 0.752930
vt 0.088178 0.779090
vt 0.135752 0.783358
vt 0.119237 0.799161
vt 0.150129 0.805078
vt 0.140830 0.813724
vt 0.471828 0.982806
vt 0.482325 0.926360
vt 0.488979 0.889977
vt 0.494169 0.864450
vt 0.499059 0.843521
vt 0.017219 0.802914
vt 0.073648 0.813423
vt 0.110025 0.820082
vt 0.135549 0.825273
vt 0.416680 0.959965
vt 0.447982 0.911833
vt 0.468054 0.880766
vt 0.482616 0.859169
vt 0.495149 0.841705
vt 0.017198 0.862592
vt 0.073361 0.850706
vt 0.109520 0.842936
vt 0.135089 0.837965
vt 0.374471 0.917754
vt 0.421814 0.885268
vt 0.452247 0.864249
vt 0.473966 0.849870
vt 0.492226 0.838528
vt 0.040021 0.917746
vt 0.087366 0.885263
vt 0.117801 0.864245
vt 0.139521 0.849867
vt 0.351647 0.862602
vt 0.407808 0.850713
vt 0.443967 0.842941
vt 0.469536 0.837969
vt 0.490738 0.834469
vt 0.082229 0.959958
vt 0.113533 0.911828
vt 0.133607 0.880763
vt 0.148172 0.859167
vt 0.351665 0.802927
vt 0.408093 0.813431
vt 0.444470 0.820087
vt 0.469996 0.825277
vt 0.490920 0.830158
vt 0.137376 0.982800
vt 0.147875 0.926356
vt 0.154531 0.889974
vt 0.159722 0.864449
vt 0.374508 0.747807
vt 0.422619 0.779098
vt 0.453679 0.799166
vt 0.475275 0.813725
vt 0.492734 0.826260
vt 0.197063 0.982799
vt 0.185162 0.926636
vt 0.177389 0.890476
vt 0.172416 0.864907
vt 0.416696 0.705622
vt 0.449175 0.752937
vt 0.470192 0.783360
vt 0.484571 0.805073
vt 0.495907 0.823340
vt 0.252205 0.959958
vt 0.219718 0.912625
vt 0.198698 0.882193
vt 0.184319 0.860474
vt 0.471812 0.682784
vt 0.483719 0.738926
vt 0.491496 0.775077
vt 0.496469 0.800644
vt 0.499966 0.821849
vt 0.294409 0.917754
vt 0.246281 0.886456
vt 0.215216 0.866385
vt 0.193619 0.851821
vt 0.531476 0.682766
vt 0.520997 0.739198
vt 0.514349 0.775576
vt 0.509162 0.801102
vt 0.504280 0.822029
vt 0.317250 0.862611
vt 0.260808 0.852114
vt 0.224426 0.845459
vt 0.198900 0.840270
vt 0.586616 0.705579
vt 0.555337 0.753712
vt 0.535273 0.784780
vt 0.520715 0.806380
vt 0.508182 0.823844
vt 0.317250 0.802924
vt 0.261086 0.814827
vt 0.224927 0.822602
vt 0.199359 0.827576
vt 0.628839 0.747763
vt 0.581511 0.780265
vt 0.551083 0.801291
vt 0.529368 0.815674
vt 0.511105 0.827014
vt 0.294406 0.747777
vt 0.247073 0.780273
vt 0.216643 0.801295
vt 0.194925 0.815674
vt 0.651692 0.802906
vt 0.595529 0.814817
vt 0.559371 0.822597
vt 0.533803 0.827574
vt 0.512593 0.831065
vt 0.252188 0.705586
vt 0.220902 0.753716
vt 0.200835 0.784781
vt 0.186276 0.806377
vt 0.651702 0.862595
vt 0.595256 0.852105
vt 0.558873 0.845455
vt 0.533347 0.840267
vt 0.512417 0.835376
vt 0.197049 0.682766
vt 0.186563 0.739198
vt 0.179912 0.775575
vt 0.174725 0.801100
vt 0.628867 0.917744
vt 0.580733 0.886451
vt 0.549664 0.866382
vt 0.528066 0.851821
vt 0.510600 0.839291
vt 0.137383 0.682776
vt 0.149284 0.738922
vt 0.157058 0.775076
vt 0.162032 0.800645
vn -0.3817 -0.0705 -0.9216
vn -0.3817 0.0705 -0.9216
vn 0.0000 0.0705 -0.9975
vn 0.0000 -0.0705 -0.9975
vn 0.7053 -0.0705 -0.7053
vn 0.7053 0.0705 -0.7053
vn 0.9216 0.0705 -0.3817
vn 0.9216 -0.0705 -0.3817
vn 0.9975 0.0705 0.0000
vn 0.9975 -0.0705 0.0000
vn 0.9216 0.0705 0.3817
vn 0.9216 -0.0705 0.3817
vn 0.7053 0.0705 0.7053
vn 0.7053 -0.0705 0.7053
vn 0.3817 0.0705 0.9216
vn 0.3817 -0.0705 0.9216
vn 0.0000 0.0705 0.9975
vn 0.0000 -0.0705 0.9975
vn -0.3817 0.0705 0.9216
vn -0.3817 -0.0705 0.9216
vn -0.7053 0.0705 0.7053
vn -0.7053 -0.0705 0.7053
vn -0.9216 0.0705 0.3817
vn -0.9216 -0.0705 0.3817
vn -0.9975 0.0705 0.0000
vn -0.9975 -0.0705 0.0000
vn -0.9216 0.0705 -0.3817
vn -0.9216 -0.0705 -0.3817
vn -0.7053 0.0705 -0.7053
vn -0.7053 -0.0705 -0.7053
vn 0.3817 -0.0705 -0.9216
vn 0.3817 0.0705 -0.9216
vn 0.0576 0.9886 -0.1392
vn 0.0000 0.9886 -0.1506
vn -0.0576 0.9886 -0.1392
vn -0.1065 0.9886 -0.1065
vn -0.1392 0.9886 -0.0576
vn -0.1506 0.9886 0.0000
vn -0.1392 0.9886 0.0576
vn -0.1065 0.9886 0.1065
vn -0.0576 0.9886 0.1392
vn 0.0000 0.9886 0.1506
vn 0.0576 0.9886 0.1392
vn 0.1065 0.9886 0.1065
vn 0.1392 0.9886 0.0576
vn 0.1506 0.9886 0.0000
vn 0.1392 0.9886 -0.0576
vn 0.1065 0.9886 -0.1065
vn 0.3667 -0.2861 -0.8853
vn 0.0000 -0.2861 -0.9582
vn 0.3109 -0.5831 -0.7506
vn 0.0000 -0.5831 -0.8124
vn 0.1947 -0.8609 -0.4700
vn 0.0000 -0.8609 -0.5088
vn 0.0576 -0.9886 -0.1392
vn 0.0000 -0.9886 -0.1506
vn 0.0000 0.2861 -0.9582
vn 0.3667 0.2861 -0.8853
vn 0.0000 0.5831 -0.8124
vn 0.3109 0.5831 -0.7506
vn 0.0000 0.8609 -0.5088
vn 0.1947 0.8609 -0.4700
vn 0.6775 -0.2861 -0.6775
vn 0.5744 -0.5831 -0.5744
vn 0.3598 -0.8609 -0.3598
vn 0.1065 -0.9886 -0.1065
vn 0.6775 0.2861 -0.6775
vn 0.5744 0.5831 -0.5744
vn 0.3598 0.8609 -0.3598
vn 0.8853 -0.2861 -0.3667
vn 0.7506 -0.5831 -0.3109
vn 0.4701 -0.8609 -0.1947
vn 0.1392 -0.9886 -0.0576
vn 0.8853 0.2861 -0.3667
vn 0.7506 0.5831 -0.3109
vn 0.4701 0.8609 -0.1947
vn 0.9582 -0.2861 0.0000
vn 0.8124 -0.5831 0.0000
vn 0.5088 -0.8609 0.0000
vn 0.1506 -0.9886 0.0000
vn 0.9582 0.2861 0.0000
vn 0.8124 0.5831 0.0000
vn 0.5088 0.8609 0.0000
vn 0.8853 -0.2861 0.3667
vn 0.7506 -0.5831 0.3109
vn 0.4701 -0.8609 0.1947
vn 0.1392 -0.9886 0.0576
vn 0.8853 0.2861 0.3667
vn 0.7506 0.5831 0.3109
vn 0.4700 0.8609 0.1947
vn 0.6775 -0.2861 0.6775
vn 0.5744 -0.5831 0.5744
vn 0.3598 -0.8609 0.3598
vn 0.1065 -0.9886 0.1065
vn 0.6775 0.2861 0.6775
vn 0.5744 0.5831 0.5744
vn 0.3598 0.8609 0.3598
vn 0.3667 -0.2861 0.8853
vn 0.3109 -0.5831 0.7506
vn 0.1947 -0.8609 0.4700
vn 0.0576 -0.9886 0.1392
vn 0.3667 0.2861 0.8853
vn 0.3109 0.5831 0.7506
vn 0.1947 0.8609 0.4701
vn 0.0000 -0.2861 0.9582
vn 0.0000 -0.5831 0.8124
vn 0.0000 -0.8609 0.5088
vn 0.0000 -0.9886 0.1506
vn 0.0000 0.2861 0.9582
vn 0.0000 0.5831 0.8124
vn 0.0000 0.8609 0.5088
vn -0.3667 -0.2861 0.8853
vn -0.3109 -0.5831 0.7506
vn -0.1947 -0.8609 0.4701
vn -0.0576 -0.9886 0.1392
vn -0.3667 0.2861 0.8853
vn -0.3109 0.5831 0.7506
vn -0.1947 0.8609 0.4700
vn -0.6775 -0.2861 0.6775
vn -0.5744 -0.5831 0.5744
vn -0.3598 -0.8609 0.3598
vn -0.1065 -0.9886 0.1065
vn -0.6775 0.2861 0.6775
vn -0.5744 0.5831 0.5744
vn -0.3598 0.8609 0.3598
vn -0.8853 -0.2861 0.3667
vn -0.7506 -0.5831 0.3109
vn -0.4700 -0.8609 0.1947
vn -0.1392 -0.9886 0.0576
vn -0.8853 0.2861 0.3667
vn -0.7506 0.5831 0.3109
vn -0.4700 0.8609 0.1947
vn -0.9582 -0.2861 0.0000
vn -0.8124 -0.5831 0.0000
vn -0.5088 -0.8609 0.0000
vn -0.1506 -0.9886 0.0000
vn -0.9582 0.2861 0.0000
vn -0.8124 0.5831 0.0000
vn -0.5088 0.8609 0.0000
vn -0.8853 -0.2861 -0.3667
vn -0.7506 -0.5831 -0.3109
vn -0.4701 -0.8609 -0.1947
vn -0.1392 -0.9886 -0.0576
vn -0.8853 0.2861 -0.3667
vn -0.7506 0.5831 -0.3109
vn -0.4701 0.8609 -0.1947
vn -0.6775 -0.2861 -0.6775
vn -0.5744 -0.5831 -0.5744
vn -0.3598 -0.8609 -0.3598
vn -0.1065 -0.9886 -0.1065
vn -0.6775 0.2861 -0.6775
vn -0.5744 0.5831 -0.5744
vn -0.3598 0.8609 -0.3598
vn -0.3667 -0.2861 -0.8853
vn -0.3109 -0.5831 -0.7506
vn -0.1947 -0.8609 -0.4701
vn -0.0576 -0.9886 -0.1392
vn -0.3667 0.2861 -0.8853
vn -0.3109 0.5831 -0.7506
vn -0.1947 0.8609 -0.4701
usemtl None
s 1
f 152/1/1 157/2/2 7/3/3 2/4/4
f 22/5/5 27/6/6 37/7/7 32/8/8
f 32/8/8 37/7/7 47/9/9 42/10/10
f 42/10/10 47/9/9 57/11/11 52/12/12
f 52/12/12 57/11/11 67/13/13 62/14/14
f 62/14/14 67/13/13 77/15/15 72/16/16
f 72/16/16 77/15/15 87/17/17 82/18/18
f 82/18/18 87/17/17 97/19/19 92/20/20
f 92/20/20 97/19/19 107/21/21 102/22/22
f 102/22/22 107/21/21 117/23/23 112/24/24
f 112/24/24 117/23/23 127/25/25 122/26/26
f 122/26/26 127/25/25 137/27/27 132/28/28
f 132/28/28 137/27/27 147/29/29 142/30/30
f 142/30/30 147/29/29 157/2/2 152/1/1
f 12/31/31 17/32/32 27/6/6 22/5/5
f 16/33/33 6/34/34 156/35/35 146/36/36 136/37/37 126/38/38 116/39/39 106/40/40 96/41/41 86/42/42 76/43/43 66/44/44 56/45/45 46/46/46 36/47/47 26/48/48
f 2/49/4 7/50/3 17/32/32 12/31/31
f 2/51/4 12/52/31 15/53/49 5/54/50
f 5/54/50 15/53/49 14/55/51 4/56/52
f 4/56/52 14/55/51 13/57/53 3/58/54
f 3/58/54 13/57/53 11/59/55 1/60/56
f 17/61/32 7/62/3 10/63/57 20/64/58
f 20/64/58 10/63/57 9/65/59 19/66/60
f 19/66/60 9/65/59 8/67/61 18/68/62
f 18/68/62 8/67/61 6/34/34 16/33/33
f 12/52/31 22/69/5 25/70/63 15/53/49
f 15/53/49 25/70/63 24/71/64 14/55/51
f 14/55/51 24/71/64 23/72/65 13/57/53
f 13/57/53 23/72/65 21/73/66 11/59/55
f 27/74/6 17/61/32 20/64/58 30/75/67
f 30/75/67 20/64/58 19/66/60 29/76/68
f 29/76/68 19/66/60 18/68/62 28/77/69
f 28/77/69 18/68/62 16/33/33 26/48/48
f 22/69/5 32/78/8 35/79/70 25/70/63
f 25/70/63 35/79/70 34/80/71 24/71/64
f 24/71/64 34/80/71 33/81/72 23/72/65
f 23/72/65 33/81/72 31/82/73 21/73/66
f 37/83/7 27/74/6 30/75/67 40/84/74
f 40/84/74 30/75/67 29/76/68 39/85/75
f 39/85/75 29/76/68 28/77/69 38/86/76
f 38/86/76 28/77/69 26/48/48 36/47/47
f 32/78/8 42/87/10 45/88/77 35/79/70
f 35/79/70 45/88/77 44/89/78 34/80/71
f 34/80/71 44/89/78 43/90/79 33/81/72
f 33/81/72 43/90/79 41/91/80 31/82/73
f 47/92/9 37/83/7 40/84/74 50/93/81
f 50/93/81 40/84/74 39/85/75 49/94/82
f 49/94/82 39/85/75 38/86/76 48/95/83
f 48/95/83 38/86/76 36/47/47 46/46/46
f 42/87/10 52/96/12 55/97/84 45/88/77
f 45/88/77 55/97/84 54/98/85 44/89/78
f 44/89/78 54/98/85 53/99/86 43/90/79
f 43/90/79 53/99/86 51/100/87 41/91/80
f 57/101/11 47/92/9 50/93/81 60/102/88
f 60/102/88 50/93/81 49/94/82 59/103/89
f 59/103/89 49/94/82 48/95/83 58/104/90
f 58/104/90 48/95/83 46/46/46 56/45/45
f 52/96/12 62/105/14 65/106/91 55/97/84
f 55/97/84 65/106/91 64/107/92 54/98/85
f 54/98/85 64/107/92 63/108/93 53/99/86
f 53/99/86 63/108/93 61/109/94 51/100/87
f 67/110/13 57/101/11 60/102/88 70/111/95
f 70/111/95 60/102/88 59/103/89 69/112/96
f 69/112/96 59/103/89 58/104/90 68/113/97
f 68/113/97 58/104/90 56/45/45 66/44/44
f 62/105/14 72/114/16 75/115/98 65/106/91
f 65/106/91 75/115/98 74/116/99 64/107/92
f 64/107/92 74/116/99 73/117/100 63/108/93
f 63/108/93 73/117/100 71/118/101 61/109/94
f 77/119/15 67/110/13 70/111/95 80/120/102
f 80/120/102 70/111/95 69/112/96 79/121/103
f 79/121/103 69/112/96 68/113/97 78/122/104
f 78/122/104 68/113/97 66/44/44 76/43/43
f 72/114/16 82/123/18 85/124/105 75/115/98
f 75/115/98 85/124/105 84/125/106 74/116/99
f 74/116/99 84/125/106 83/126/107 73/117/100
f 73/117/100 83/126/107 81/127/108 71/118/101
f 87/128/17 77/119/15 80/120/102 90/129/109
f 90/129/109 80/120/102 79/121/103 89/130/110
f 89/130/110 79/121/103 78/122/104 88/131/111
f 88/131/111 78/122/104 76/43/43 86/42/42
f 82/123/18 92/132/20 95/133/112 85/124/105
f 85/124/105 95/133/112 94/134/113 84/125/106
f 84/125/106 94/134/113 93/135/114 83/126/107
f 83/126/107 93/135/114 91/136/115 81/127/108
f 97/137/19 87/128/17 90/129/109 100/138/116
f 100/138/116 90/129/109 89/130/110 99/139/117
f 99/139/117 89/130/110 88/131/111 98/140/118
f 98/140/118 88/131/111 86/42/42 96/41/41
f 92/132/20 102/141/22 105/142/119 95/133/112
f 95/133/112 105/142/119 104/143/120 94/134/113
f 94/134/113 104/143/120 103/144/121 93/135/114
f 93/135/114 103/144/121 101/145/122 91/136/115
f 107/146/21 97/137/19 100/138/116 110/147/123
f 110/147/123 100/138/116 99/139/117 109/148/124
f 109/148/124 99/139/117 98/140/118 108/149/125
f 108/149/125 98/140/118 96/41/41 106/40/40
f 102/141/22 112/150/24 115/151/126 105/142/119
f 105/142/119 115/151/126 114/152/127 104/143/120
f 104/143/120 114/152/127 113/153/128 103/144/121
f 103/144/121 113/153/128 111/154/129 101/145/122
f 117/155/23 107/146/21 110/147/123 120/156/130
f 120/156/130 110/147/123 109/148/124 119/157/131
f 119/157/131 109/148/124 108/149/125 118/158/132
f 118/158/132 108/149/125 106/40/40 116/39/39
f 112/150/24 122/159/26 125/160/133 115/151/126
f 115/151/126 125/160/133 124/161/134 114/152/127
f 114/152/127 124/161/134 123/162/135 113/153/128
f 113/153/128 123/162/135 121/163/136 111/154/129
f 127/164/25 117/155/23 120/156/130 130/165/137
f 130/165/137 120/156/130 119/157/131 129/166/138
f 129/166/138 119/157/131 118/158/132 128/167/139
f 128/167/139 118/158/132 116/39/39 126/38/38
f 122/159/26 132/168/28 135/169/140 125/160/133
f 125/160/133 135/169/140 134/170/141 124/161/134
f 124/161/134 134/170/141 133/171/142 123/162/135
f 123/162/135 133/171/142 131/172/143 121/163/136
f 137/173/27 127/164/25 130/165/137 140/174/144
f 140/174/144 130/165/137 129/166/138 139/175/145
f 139/175/145 129/166/138 128/167/139 138/176/146
f 138/176/146 128/167/139 126/38/38 136/37/37
f 132/168/28 142/177/30 145/178/147 135/169/140
f 135/169/140 145/178/147 144/179/148 134/170/141
f 134/170/141 144/179/148 143/180/149 133/171/142
f 133/171/142 143/180/149 141/181/150 131/172/143
f 147/182/29 137/173/27 140/174/144 150/183/151
f 150/183/151 140/174/144 139/175/145 149/184/152
f 149/184/152 139/175/145 138/176/146 148/185/153
f 148/185/153 138/176/146 136/37/37 146/36/36
f 142/177/30 152/186/1 155/187/154 145/178/147
f 145/178/147 155/187/154 154/188/155 144/179/148
f 144/179/148 154/188/155 153/189/156 143/180/149
f 143/180/149 153/189/156 151/190/157 141/181/150
f 157/191/2 147/182/29 150/183/151 160/192/158
f 160/192/158 150/183/151 149/184/152 159/193/159
f 159/193/159 149/184/152 148/185/153 158/194/160
f 158/194/160 148/185/153 146/36/36 156/35/35
f 152/186/1 2/51/4 5/54/50 155/187/154
f 155/187/154 5/54/50 4/56/52 154/188/155
f 154/188/155 4/56/52 3/58/54 153/189/156
f 153/189/156 3/58/54 1/60/56 151/190/157
f 7/62/3 157/191/2 160/192/158 10/63/57
f 10/63/57 160/192/158 159/193/159 9/65/59
f 9/65/59 159/193/159 158/194/160 8/67/61
f 8/67/61 158/194/160 156/35/35 6/34/34
f 1/60/56 11/59/55 21/73/66 31/82/73 41/91/80 51/100/87 61/109/94 71/118/101 81/127/108 91/136/115 101/145/122 111/154/129 121/163/136 131/172/143 141/181/150 151/190/157
