# Blender v2.91.2 OBJ File: ''
# www.blender.org
mtllib mat_8.mtl
o Cube.003_Cube.005
v -0.466536 0.069190 0.304729
v -0.466536 -0.069190 0.304729
v -0.409875 -0.039531 0.421772
v -0.409875 0.039531 0.421772
v 0.208429 0.069190 2.077903
v 0.208429 -0.069190 2.077903
v 0.343422 -0.032502 2.108862
v 0.343422 0.032502 2.108862
v -0.331543 0.069190 -2.056693
v -0.331543 -0.069190 -2.056693
v -0.466536 -0.069190 -2.108862
v -0.466536 0.069190 -2.108862
v 0.343422 0.069190 -2.108862
v 0.343422 -0.069190 -2.108862
v 0.208429 -0.069190 -2.093943
v 0.208429 0.069190 -2.093943
v 0.073436 -0.069190 -2.108862
v 0.073436 0.069190 -2.108862
v -0.061557 -0.069190 -2.096344
v -0.061557 0.069190 -2.096344
v -0.196550 -0.030648 -2.108862
v -0.196550 0.030648 -2.108862
v -0.466536 0.069190 2.108862
v -0.466536 -0.069190 2.108862
v -0.331543 -0.069190 2.108862
v -0.331543 0.069190 2.108862
v -0.196550 -0.069190 1.963355
v -0.196550 0.069190 1.963355
v -0.061557 -0.069190 2.083063
v -0.061557 0.069190 2.083063
v 0.073436 -0.069190 2.108862
v 0.073436 0.069190 2.108862
v -0.466536 -0.069190 -1.382181
v -0.466536 0.069190 -1.382181
v -0.466536 -0.069190 -0.538707
v -0.466536 0.069190 -0.538707
v -0.441605 0.069190 -1.148453
v -0.441605 -0.069190 -1.148453
v 0.345845 -0.069190 1.997913
v 0.359288 -0.069190 1.382339
v 0.359288 0.069190 1.382339
v 0.345845 0.069190 1.997913
v 0.343422 0.069190 1.148295
v 0.343422 -0.069190 1.148295
v 0.343422 -0.069190 0.667873
v 0.343422 0.069190 0.667873
v 0.343422 0.069190 0.434048
v 0.343422 -0.069190 0.434048
v 0.311314 -0.069190 -0.140621
v 0.311314 0.069190 -0.140621
v 0.359288 -0.069190 1.265317
v 0.359288 0.069190 1.265317
v 0.323840 -0.069190 0.550961
v 0.323840 0.069190 0.550961
v 0.311314 -0.069190 -0.257454
v 0.311314 0.069190 -0.257454
v -0.439339 -0.081514 -0.421772
v -0.439339 0.081514 -0.421772
v 0.149888 0.069190 1.928840
v 0.343422 0.069190 -0.538605
v 0.329425 0.069190 -1.148533
v 0.329425 0.069190 -1.382101
v -0.210482 0.069190 -1.789674
v -0.303373 0.069190 -0.434686
v -0.466536 0.069190 -0.304838
v -0.053002 0.069190 0.364119
v -0.446138 0.069190 0.538816
v -0.466536 0.069190 1.148127
v -0.466536 0.069190 1.265317
v -0.484668 0.069190 1.382508
v -0.484668 -0.069190 1.382508
v 0.329425 -0.069190 -1.148533
v 0.329425 -0.069190 -1.382101
v -0.466536 -0.069190 -0.304838
v -0.446138 -0.069190 0.538816
v -0.466536 -0.069190 1.265317
v -0.466536 -0.069190 1.148127
v 0.343422 -0.069190 -0.538605
v -0.053002 -0.069190 0.364119
v -0.303373 -0.069190 -0.434686
v -0.210482 -0.069190 -1.789674
v 0.149888 -0.069190 1.928840
vt 0.568954 0.588105
vt 0.597169 0.611695
vt 0.568954 0.618131
vt 0.112906 0.932447
vt 0.090841 0.962498
vt 0.082880 0.932447
vt 0.258094 0.792473
vt 0.288119 0.761071
vt 0.288119 0.792473
vt 0.258094 0.941644
vt 0.288119 0.912175
vt 0.288119 0.941644
vt 0.258094 0.912175
vt 0.288119 0.882707
vt 0.258094 0.882707
vt 0.288119 0.853290
vt 0.258094 0.853290
vt 0.279757 0.823874
vt 0.266457 0.823874
vt 0.112906 0.761071
vt 0.082880 0.790362
vt 0.082880 0.761071
vt 0.112906 0.790362
vt 0.082880 0.833428
vt 0.112906 0.833428
vt 0.082880 0.872576
vt 0.112906 0.872576
vt 0.082880 0.902396
vt 0.112906 0.902396
vt 0.201181 0.618130
vt 0.043508 0.588105
vt 0.201181 0.588105
vt 0.384594 0.618130
vt 0.252182 0.588105
vt 0.384594 0.588105
vt 0.204215 0.684299
vt 0.204215 0.714324
vt 0.070617 0.714324
vt 0.255229 0.684299
vt 0.359470 0.714324
vt 0.255229 0.714324
vt 0.410911 0.684299
vt 0.535796 0.714324
vt 0.410911 0.714324
vt 0.229606 0.714324
vt 0.359470 0.684299
vt 0.385191 0.714324
vt 0.535796 0.684299
vt 0.561146 0.714324
vt 0.410643 0.585431
vt 0.385191 0.684299
vt 0.803031 0.313527
vt 0.928924 0.376982
vt 0.921355 0.452708
vt 0.229606 0.684299
vt 0.619699 0.320270
vt 0.580845 0.405383
vt 0.593352 0.327440
vt 0.567010 0.315559
vt 0.964845 0.618131
vt 0.807194 0.588106
vt 0.964845 0.588106
vt 0.754921 0.684299
vt 0.805599 0.714324
vt 0.754921 0.714324
vt 0.436692 0.588105
vt 0.410643 0.620804
vt 0.623756 0.588105
vt 0.597169 0.594541
vt 0.781464 0.618131
vt 0.781464 0.588106
vt 0.805599 0.684299
vt 0.963318 0.714324
vt 0.756036 0.618131
vt 0.756036 0.588106
vt 0.561146 0.684299
vt 0.622545 0.714324
vt 0.622545 0.684299
vt 0.434953 0.316314
vt 0.406904 0.351731
vt 0.409500 0.322116
vt 0.383975 0.316622
vt 0.055395 0.347521
vt 0.113336 0.374035
vt 0.043508 0.377588
vt 0.047404 0.407758
vt 0.935567 0.495844
vt 0.960938 0.495471
vt 0.954172 0.465098
vt 0.471198 0.057605
vt 0.580845 0.136770
vt 0.406904 0.190423
vt 0.619699 0.221884
vt 0.593351 0.214713
vt 0.567010 0.226595
vt 0.434953 0.225839
vt 0.409500 0.220038
vt 0.383975 0.225532
vt 0.055395 0.194633
vt 0.043508 0.164566
vt 0.113336 0.168119
vt 0.047404 0.134396
vt 0.935567 0.046310
vt 0.960938 0.046683
vt 0.921355 0.089446
vt 0.954172 0.077056
vt 0.104945 0.962498
vt 0.258094 0.761071
vt 0.043508 0.618130
vt 0.252182 0.618130
vt 0.046539 0.706364
vt 0.046539 0.692259
vt 0.070617 0.684299
vt 0.960656 0.435666
vt 0.801368 0.496841
vt 0.775950 0.496615
vt 0.777541 0.317239
vt 0.750562 0.492944
vt 0.646210 0.492018
vt 0.752086 0.317013
vt 0.620926 0.487589
vt 0.595591 0.491668
vt 0.471198 0.484549
vt 0.445945 0.484667
vt 0.385220 0.491934
vt 0.253396 0.489840
vt 0.252114 0.323229
vt 0.202925 0.490234
vt 0.201566 0.318236
vt 0.046136 0.495185
vt 0.048997 0.466016
vt 0.045259 0.436953
vt 0.044189 0.318343
vt 0.954934 0.406322
vt 0.960938 0.318481
vt 0.960750 0.347833
vt 0.807194 0.618131
vt 0.436692 0.618130
vt 0.623756 0.618131
vt 0.963318 0.684299
vt 0.960656 0.106488
vt 0.954934 0.135832
vt 0.928924 0.165172
vt 0.960750 0.194321
vt 0.960938 0.223673
vt 0.803030 0.228627
vt 0.777541 0.224915
vt 0.801368 0.045313
vt 0.752086 0.225140
vt 0.750562 0.049210
vt 0.646210 0.050136
vt 0.775950 0.045539
vt 0.620926 0.054565
vt 0.595591 0.050486
vt 0.253396 0.052314
vt 0.385220 0.050220
vt 0.445945 0.057487
vt 0.252114 0.218925
vt 0.202925 0.051920
vt 0.201566 0.223918
vt 0.048997 0.076138
vt 0.046136 0.046969
vt 0.045259 0.105201
vt 0.044189 0.223811
vn -0.9001 -0.0000 0.4357
vn -0.2235 0.0000 0.9747
vn 0.3605 0.0000 -0.9328
vn -0.1098 0.0000 -0.9939
vn 0.1098 0.0000 -0.9939
vn -0.0923 -0.0000 -0.9957
vn 0.0923 0.0000 -0.9957
vn -0.3605 0.0000 -0.9328
vn -0.0000 0.0000 1.0000
vn 0.7331 0.0000 0.6801
vn -0.6635 0.0000 0.7482
vn -0.1877 -0.0000 0.9822
vn 0.2235 0.0000 0.9747
vn -1.0000 0.0000 -0.0000
vn -0.9992 0.0000 -0.0409
vn 0.9998 0.0000 0.0218
vn 1.0000 0.0000 0.0000
vn 0.9984 -0.0000 -0.0558
vn -0.9944 0.0000 0.1061
vn 0.9863 0.0000 -0.1652
vn -0.9740 0.0000 0.2265
vn 0.9863 0.0000 0.1652
vn -0.0000 1.0000 0.0000
vn 0.9909 0.0000 -0.1344
vn -0.1243 0.9520 -0.2797
vn -0.0377 0.9642 0.2626
vn -0.9997 0.0000 0.0250
vn -0.9740 0.0000 -0.2265
vn -0.9552 0.0000 -0.2959
vn -0.9882 0.0000 -0.1529
vn 0.9998 0.0000 0.0193
vn -0.9994 0.0000 -0.0335
vn 0.9935 0.0000 0.1135
vn 0.9997 0.0000 -0.0229
vn 0.1015 0.9866 0.1276
vn 0.0781 0.9894 -0.1224
vn 0.2347 0.9662 -0.1064
vn -0.2614 0.9568 -0.1269
vn -0.1092 0.9445 0.3099
vn 0.2844 0.9522 -0.1117
vn 0.0000 -1.0000 -0.0000
vn -0.1243 -0.9520 -0.2797
vn -0.0377 -0.9642 0.2626
vn 0.1015 -0.9866 0.1276
vn 0.0781 -0.9894 -0.1224
vn 0.2347 -0.9662 -0.1064
vn -0.2614 -0.9568 -0.1269
vn -0.1092 -0.9445 0.3099
vn 0.2844 -0.9522 -0.1117
usemtl None.001
s 1
f 2/1/1 4/2/1 1/3/1
f 6/4/2 8/5/2 5/6/2
f 10/7/3 12/8/3 9/9/3
f 14/10/4 16/11/4 13/12/4
f 15/13/5 18/14/5 16/11/5
f 17/15/6 20/16/6 18/14/6
f 19/17/7 22/18/7 20/16/7
f 21/19/8 9/9/8 22/18/8
f 24/20/9 26/21/9 23/22/9
f 25/23/10 28/24/10 26/21/10
f 27/25/11 30/26/11 28/24/11
f 29/27/12 32/28/12 30/26/12
f 31/29/13 5/6/13 32/28/13
f 34/30/14 11/31/14 33/32/14
f 36/33/15 38/34/15 35/35/15
f 40/36/16 41/37/16 42/38/16
f 44/39/17 46/40/17 43/41/17
f 48/42/18 50/43/18 47/44/18
f 38/34/19 34/30/19 33/32/19
f 40/36/17 52/45/17 41/37/17
f 45/46/20 54/47/20 46/40/20
f 49/48/17 56/49/17 50/43/17
f 57/50/21 36/33/21 35/35/21
f 53/51/22 47/44/22 54/47/22
f 70/52/23 28/53/23 59/54/23
f 51/55/24 43/41/24 52/45/24
f 67/56/25 66/57/25 4/58/25
f 4/58/26 66/57/26 1/59/26
f 23/60/27 71/61/27 24/62/27
f 72/63/17 62/64/17 61/65/17
f 74/66/28 58/67/28 57/50/28
f 75/68/29 4/2/29 3/69/29
f 71/61/30 69/70/30 76/71/30
f 73/72/31 13/73/31 62/64/31
f 1/3/14 74/66/14 2/1/14
f 68/74/32 75/68/32 77/75/32
f 55/76/33 60/77/33 56/49/33
f 78/78/34 61/65/34 60/77/34
f 65/79/35 64/80/35 58/81/35
f 58/81/36 64/80/36 36/82/36
f 9/83/37 63/84/37 22/85/37
f 22/85/38 63/84/38 20/86/38
f 42/87/39 59/54/39 8/88/39
f 8/88/40 59/54/40 5/89/40
f 49/90/41 79/91/41 80/92/41
f 75/93/42 3/94/42 79/91/42
f 3/94/43 2/95/43 79/91/43
f 74/96/44 57/97/44 80/92/44
f 57/97/45 35/98/45 80/92/45
f 10/99/46 21/100/46 81/101/46
f 21/100/47 19/102/47 81/101/47
f 39/103/48 7/104/48 82/105/48
f 7/104/49 6/106/49 82/105/49
f 76/71/14 68/74/14 77/75/14
f 2/1/1 3/69/1 4/2/1
f 6/4/2 7/107/2 8/5/2
f 10/7/3 11/108/3 12/8/3
f 14/10/4 15/13/4 16/11/4
f 15/13/5 17/15/5 18/14/5
f 17/15/6 19/17/6 20/16/6
f 19/17/7 21/19/7 22/18/7
f 21/19/8 10/7/8 9/9/8
f 24/20/9 25/23/9 26/21/9
f 25/23/10 27/25/10 28/24/10
f 27/25/11 29/27/11 30/26/11
f 29/27/12 31/29/12 32/28/12
f 31/29/13 6/4/13 5/6/13
f 34/30/14 12/109/14 11/31/14
f 36/33/15 37/110/15 38/34/15
f 42/38/16 8/111/16 7/112/16
f 7/112/16 39/113/16 42/38/16
f 39/113/16 40/36/16 42/38/16
f 44/39/17 45/46/17 46/40/17
f 48/42/18 49/48/18 50/43/18
f 38/34/19 37/110/19 34/30/19
f 40/36/17 51/55/17 52/45/17
f 45/46/20 53/51/20 54/47/20
f 49/48/17 55/76/17 56/49/17
f 57/50/21 58/67/21 36/33/21
f 53/51/22 48/42/22 47/44/22
f 32/114/23 5/89/23 59/54/23
f 59/54/23 42/87/23 41/115/23
f 41/115/23 52/116/23 69/117/23
f 52/116/23 43/118/23 69/117/23
f 43/118/23 46/119/23 68/120/23
f 46/119/23 54/121/23 66/57/23
f 54/121/23 47/122/23 66/57/23
f 47/122/23 50/123/23 66/57/23
f 56/124/23 60/125/23 64/80/23
f 60/125/23 61/126/23 64/80/23
f 64/80/23 61/126/23 37/127/23
f 61/126/23 62/128/23 37/127/23
f 37/127/23 62/128/23 34/129/23
f 62/128/23 13/130/23 16/131/23
f 16/131/23 18/132/23 63/84/23
f 18/132/23 20/86/23 63/84/23
f 63/84/23 9/83/23 12/133/23
f 62/128/23 16/131/23 63/84/23
f 50/123/23 56/124/23 64/80/23
f 62/128/23 63/84/23 34/129/23
f 63/84/23 12/133/23 34/129/23
f 66/57/23 50/123/23 64/80/23
f 37/127/23 36/82/23 64/80/23
f 64/80/23 65/79/23 66/57/23
f 65/79/23 1/59/23 66/57/23
f 66/57/23 67/56/23 46/119/23
f 67/56/23 68/120/23 46/119/23
f 59/54/23 41/115/23 70/52/23
f 30/134/23 32/114/23 59/54/23
f 23/135/23 26/136/23 28/53/23
f 28/53/23 30/134/23 59/54/23
f 41/115/23 69/117/23 70/52/23
f 68/120/23 69/117/23 43/118/23
f 70/52/23 23/135/23 28/53/23
f 51/55/24 44/39/24 43/41/24
f 23/60/27 70/137/27 71/61/27
f 72/63/17 73/72/17 62/64/17
f 74/66/28 65/138/28 58/67/28
f 75/68/29 67/139/29 4/2/29
f 71/61/30 70/137/30 69/70/30
f 73/72/31 14/140/31 13/73/31
f 1/3/14 65/138/14 74/66/14
f 68/74/32 67/139/32 75/68/32
f 55/76/33 78/78/33 60/77/33
f 78/78/34 72/63/34 61/65/34
f 82/105/41 6/106/41 31/141/41
f 31/141/41 29/142/41 82/105/41
f 29/142/41 27/143/41 82/105/41
f 27/143/41 25/144/41 24/145/41
f 24/145/41 71/146/41 27/143/41
f 71/146/41 76/147/41 40/148/41
f 27/143/41 71/146/41 82/105/41
f 76/147/41 77/149/41 44/150/41
f 77/149/41 75/93/41 45/151/41
f 45/151/41 75/93/41 79/91/41
f 79/91/41 2/95/41 74/96/41
f 44/150/41 77/149/41 45/151/41
f 40/148/41 39/103/41 82/105/41
f 44/150/41 51/152/41 76/147/41
f 51/152/41 40/148/41 76/147/41
f 53/153/41 45/151/41 79/91/41
f 49/90/41 48/154/41 79/91/41
f 48/154/41 53/153/41 79/91/41
f 72/155/41 78/156/41 80/92/41
f 78/156/41 55/157/41 80/92/41
f 72/155/41 80/92/41 38/158/41
f 73/159/41 72/155/41 38/158/41
f 73/159/41 38/158/41 33/160/41
f 15/161/41 14/162/41 73/159/41
f 19/102/41 17/163/41 81/101/41
f 17/163/41 15/161/41 81/101/41
f 11/164/41 10/99/41 81/101/41
f 15/161/41 73/159/41 81/101/41
f 81/101/41 73/159/41 33/160/41
f 55/157/41 49/90/41 80/92/41
f 33/160/41 11/164/41 81/101/41
f 80/92/41 35/98/41 38/158/41
f 79/91/41 74/96/41 80/92/41
f 71/146/41 40/148/41 82/105/41
f 76/71/14 69/70/14 68/74/14
