# Blender v2.93.4 OBJ File: ''
# www.blender.org
mtllib frost.mtl
o Gem
v 0.000000 -0.800000 0.000000
v 0.000000 0.350000 0.000000
v 0.000000 -0.400000 -0.541196
v 0.382683 0.000000 -0.923880
v 0.000000 0.175000 -0.865914
v 0.229610 0.350000 -0.554328
v 0.382683 -0.400000 -0.382683
v 0.923880 0.000000 -0.382683
v 0.612293 0.175000 -0.612293
v 0.554328 0.350000 -0.229610
v 0.541196 -0.400000 -0.000000
v 0.923880 0.000000 0.382683
v 0.865914 0.175000 -0.000000
v 0.554328 0.350000 0.229610
v 0.382683 -0.400000 0.382683
v 0.382683 0.000000 0.923880
v 0.612293 0.175000 0.612293
v 0.229610 0.350000 0.554328
v 0.000000 -0.400000 0.541196
v -0.382683 0.000000 0.923880
v 0.000000 0.175000 0.865914
v -0.229610 0.350000 0.554328
v -0.382683 -0.400000 0.382683
v -0.923880 0.000000 0.382683
v -0.612293 0.175000 0.612293
v -0.554328 0.350000 0.229610
v -0.541196 -0.400000 0.000000
v -0.923880 0.000000 -0.382683
v -0.865914 0.175000 0.000000
v -0.554328 0.350000 -0.229610
v -0.382683 -0.400000 -0.382683
v -0.382683 0.000000 -0.923880
v -0.612293 0.175000 -0.612293
v -0.229610 0.350000 -0.554328
vt 0.366360 0.368801
vt 0.277527 0.279968
vt 0.403155 0.279968
vt 0.537583 0.387687
vt 0.385246 0.540025
vt 0.971529 0.826230
vt 0.822592 0.975167
vt 0.864419 0.868057
vt 0.717278 0.929004
vt 0.769203 0.846275
vt 0.842637 0.772841
vt 0.277527 0.405597
vt 0.169808 0.540025
vt 0.971529 0.615601
vt 0.925366 0.720916
vt 0.842637 0.668990
vt 0.188694 0.368801
vt 0.017470 0.387687
vt 0.822592 0.466665
vt 0.864419 0.573775
vt 0.769203 0.595556
vt 0.151898 0.279968
vt 0.017470 0.172249
vt 0.611964 0.466665
vt 0.717278 0.512827
vt 0.665352 0.595556
vt 0.188694 0.191135
vt 0.169808 0.019912
vt 0.463027 0.615601
vt 0.570137 0.573775
vt 0.591919 0.668990
vt 0.277527 0.154340
vt 0.385246 0.019912
vt 0.463027 0.826230
vt 0.509189 0.720916
vt 0.591919 0.772841
vt 0.366360 0.191135
vt 0.537583 0.172249
vt 0.611963 0.975167
vt 0.570137 0.868056
vt 0.665352 0.846275
vt 0.717278 0.720916
vn 0.2391 -0.7809 -0.5771
vn 0.5109 -0.6913 -0.5109
vn 0.6712 0.3144 -0.6712
vn 0.2520 0.7526 -0.6084
vn 0.3463 0.8719 -0.3463
vn 0.5771 -0.7809 -0.2391
vn 0.7226 -0.6913 0.0000
vn 0.9493 0.3144 0.0000
vn 0.6084 0.7526 -0.2520
vn 0.4897 0.8719 0.0000
vn 0.5771 -0.7809 0.2391
vn 0.5109 -0.6913 0.5109
vn 0.6712 0.3144 0.6712
vn 0.6084 0.7526 0.2520
vn 0.3463 0.8719 0.3463
vn 0.2391 -0.7809 0.5771
vn 0.0000 -0.6913 0.7226
vn 0.0000 0.3144 0.9493
vn 0.2520 0.7526 0.6084
vn 0.0000 0.8719 0.4897
vn -0.2391 -0.7809 0.5771
vn -0.5109 -0.6913 0.5109
vn -0.6712 0.3144 0.6712
vn -0.2520 0.7526 0.6084
vn -0.3463 0.8719 0.3463
vn -0.5771 -0.7809 0.2391
vn -0.7226 -0.6913 0.0000
vn -0.9493 0.3144 0.0000
vn -0.6084 0.7526 0.2520
vn -0.4897 0.8719 0.0000
vn -0.5771 -0.7809 -0.2391
vn -0.5109 -0.6913 -0.5109
vn -0.6712 0.3144 -0.6712
vn -0.6084 0.7526 -0.2520
vn -0.3463 0.8719 -0.3463
vn -0.2391 -0.7809 -0.5771
vn 0.0000 -0.6913 -0.7226
vn 0.0000 0.3144 -0.9493
vn -0.2520 0.7526 -0.6084
vn 0.0000 0.8719 -0.4897
vn 0.0000 1.0000 0.0000
usemtl None
s off
f 7/1/1 1/2/1 3/3/1 4/4/1
f 7/1/2 4/4/2 8/5/2
f 8/6/3 4/7/3 9/8/3
f 9/8/4 4/7/4 5/9/4 6/10/4
f 9/8/5 6/10/5 10/11/5
f 11/12/6 1/2/6 7/1/6 8/5/6
f 11/12/7 8/5/7 12/13/7
f 12/14/8 8/6/8 13/15/8
f 13/15/9 8/6/9 9/8/9 10/11/9
f 13/15/10 10/11/10 14/16/10
f 15/17/11 1/2/11 11/12/11 12/13/11
f 15/17/12 12/13/12 16/18/12
f 16/19/13 12/14/13 17/20/13
f 17/20/14 12/14/14 13/15/14 14/16/14
f 17/20/15 14/16/15 18/21/15
f 19/22/16 1/2/16 15/17/16 16/18/16
f 19/22/17 16/18/17 20/23/17
f 20/24/18 16/19/18 21/25/18
f 21/25/19 16/19/19 17/20/19 18/21/19
f 21/25/20 18/21/20 22/26/20
f 23/27/21 1/2/21 19/22/21 20/23/21
f 23/27/22 20/23/22 24/28/22
f 24/29/23 20/24/23 25/30/23
f 25/30/24 20/24/24 21/25/24 22/26/24
f 25/30/25 22/26/25 26/31/25
f 27/32/26 1/2/26 23/27/26 24/28/26
f 27/32/27 24/28/27 28/33/27
f 28/34/28 24/29/28 29/35/28
f 29/35/29 24/29/29 25/30/29 26/31/29
f 29/35/30 26/31/30 30/36/30
f 31/37/31 1/2/31 27/32/31 28/33/31
f 31/37/32 28/33/32 32/38/32
f 32/39/33 28/34/33 33/40/33
f 33/40/34 28/34/34 29/35/34 30/36/34
f 33/40/35 30/36/35 34/41/35
f 3/3/36 1/2/36 31/37/36 32/38/36
f 3/3/37 32/38/37 4/4/37
f 4/7/38 32/39/38 5/9/38
f 5/9/39 32/39/39 33/40/39 34/41/39
f 5/9/40 34/41/40 6/10/40
f 6/10/41 34/41/41 2/42/41
f 2/42/41 10/11/41 6/10/41
f 2/42/41 14/16/41 10/11/41
f 2/42/41 18/21/41 14/16/41
f 2/42/41 22/26/41 18/21/41
f 2/42/41 26/31/41 22/26/41
f 2/42/41 30/36/41 26/31/41
f 2/42/41 34/41/41 30/36/41
