# Blender v2.83.0 OBJ File: ''
# www.blender.org
mtllib Antenna4.mtl
o Cube.005
v 0.012487 2.650969 -0.012487
v 0.012487 -0.012487 -0.012487
v 0.012487 -0.012487 0.012487
v 0.012487 2.650969 0.012487
v -0.012487 -0.012487 0.012487
v -0.012487 2.650969 0.012487
v -0.012487 -0.012487 -0.012487
v -0.012487 2.650969 -0.012487
v -1.000000 2.584448 0.008912
v -1.000000 2.584448 -0.008912
v 1.000000 2.584448 -0.008912
v 1.000000 2.584448 0.008912
v -1.000000 2.016165 0.008912
v -1.000000 2.016165 -0.008912
v 1.000000 2.016165 -0.008912
v 1.000000 2.016165 0.008912
v -0.409418 2.584448 0.334042
v -0.409418 2.584448 -0.334042
v -0.385607 2.584448 -0.334042
v -0.385607 2.584448 0.334042
v -0.787953 2.584448 0.334042
v -0.787953 2.584448 -0.334042
v -0.764142 2.584448 -0.334042
v -0.764142 2.584448 0.334042
v 0.352954 2.584448 0.334042
v 0.352954 2.584448 -0.334042
v 0.376765 2.584448 -0.334042
v 0.376765 2.584448 0.334042
v 0.730128 2.584448 0.334042
v 0.730128 2.584448 -0.334042
v 0.753939 2.584448 -0.334042
v 0.753939 2.584448 0.334042
v -0.409418 2.016134 0.334042
v -0.409418 2.016134 -0.334042
v -0.385607 2.016134 -0.334042
v -0.385607 2.016134 0.334042
v -0.787953 2.016134 0.334042
v -0.787953 2.016134 -0.334042
v -0.764142 2.016134 -0.334042
v -0.764142 2.016134 0.334042
v 0.352954 2.016134 0.334042
v 0.352954 2.016134 -0.334042
v 0.376765 2.016134 -0.334042
v 0.376765 2.016134 0.334042
v 0.730128 2.016134 0.334042
v 0.730128 2.016134 -0.334042
v 0.753939 2.016134 -0.334042
v 0.753939 2.016134 0.334042
v -1.000000 2.584448 0.008912
v -1.000000 2.584448 -0.008912
v 1.000000 2.584448 -0.008912
v 1.000000 2.584448 0.008912
v -1.000000 2.016165 0.008912
v -1.000000 2.016165 -0.008912
v 1.000000 2.016165 -0.008912
v 1.000000 2.016165 0.008912
v -0.409418 2.584448 0.334042
v -0.409418 2.584448 -0.334042
v -0.385607 2.584448 -0.334042
v -0.385607 2.584448 0.334042
v -0.787953 2.584448 0.334042
v -0.787953 2.584448 -0.334042
v -0.764142 2.584448 -0.334042
v -0.764142 2.584448 0.334042
v 0.352954 2.584448 0.334042
v 0.352954 2.584448 -0.334042
v 0.376765 2.584448 -0.334042
v 0.376765 2.584448 0.334042
v 0.730128 2.584448 0.334042
v 0.730128 2.584448 -0.334042
v 0.753939 2.584448 -0.334042
v 0.753939 2.584448 0.334042
v -0.409418 2.016134 0.334042
v -0.409418 2.016134 -0.334042
v -0.385607 2.016134 -0.334042
v -0.385607 2.016134 0.334042
v -0.787953 2.016134 0.334042
v -0.787953 2.016134 -0.334042
v -0.764142 2.016134 -0.334042
v -0.764142 2.016134 0.334042
v 0.352954 2.016134 0.334042
v 0.352954 2.016134 -0.334042
v 0.376765 2.016134 -0.334042
v 0.376765 2.016134 0.334042
v 0.730128 2.016134 0.334042
v 0.730128 2.016134 -0.334042
v 0.753939 2.016134 -0.334042
v 0.753939 2.016134 0.334042
vt 0.375000 0.000000
vt 0.375000 0.250000
vt 0.625000 0.250000
vt 0.625000 0.000000
vt 0.375000 0.500000
vt 0.625000 0.500000
vt 0.375000 0.750000
vt 0.625000 0.750000
vt 0.375000 1.000000
vt 0.625000 1.000000
vt 0.000000 0.000000
vt 0.000000 1.000000
vt 1.000000 1.000000
vt 1.000000 0.000000
vt 0.000000 0.000000
vt 0.000000 1.000000
vt 1.000000 1.000000
vt 1.000000 0.000000
vt 0.000000 0.000000
vt 0.000000 1.000000
vt 1.000000 1.000000
vt 1.000000 0.000000
vt 0.000000 0.000000
vt 0.000000 1.000000
vt 1.000000 1.000000
vt 1.000000 0.000000
vt 0.000000 0.000000
vt 0.000000 1.000000
vt 1.000000 1.000000
vt 1.000000 0.000000
vt 0.000000 0.000000
vt 0.000000 1.000000
vt 1.000000 1.000000
vt 1.000000 0.000000
vt 0.000000 0.000000
vt 0.000000 1.000000
vt 1.000000 1.000000
vt 1.000000 0.000000
vt 0.000000 0.000000
vt 0.000000 1.000000
vt 1.000000 1.000000
vt 1.000000 0.000000
vt 0.000000 0.000000
vt 0.000000 1.000000
vt 1.000000 1.000000
vt 1.000000 0.000000
vt 0.000000 0.000000
vt 0.000000 1.000000
vt 1.000000 1.000000
vt 1.000000 0.000000
vt 0.000000 0.000000
vt 1.000000 0.000000
vt 1.000000 1.000000
vt 0.000000 1.000000
vt 0.000000 0.000000
vt 1.000000 0.000000
vt 1.000000 1.000000
vt 0.000000 1.000000
vt 0.000000 0.000000
vt 1.000000 0.000000
vt 1.000000 1.000000
vt 0.000000 1.000000
vt 0.000000 0.000000
vt 1.000000 0.000000
vt 1.000000 1.000000
vt 0.000000 1.000000
vt 0.000000 0.000000
vt 1.000000 0.000000
vt 1.000000 1.000000
vt 0.000000 1.000000
vt 0.000000 0.000000
vt 1.000000 0.000000
vt 1.000000 1.000000
vt 0.000000 1.000000
vt 0.000000 0.000000
vt 1.000000 0.000000
vt 1.000000 1.000000
vt 0.000000 1.000000
vt 0.000000 0.000000
vt 1.000000 0.000000
vt 1.000000 1.000000
vt 0.000000 1.000000
vt 0.000000 0.000000
vt 1.000000 0.000000
vt 1.000000 1.000000
vt 0.000000 1.000000
vt 0.000000 0.000000
vt 1.000000 0.000000
vt 1.000000 1.000000
vt 0.000000 1.000000
vn 1.0000 0.0000 0.0000
vn 0.0000 -0.0000 1.0000
vn -1.0000 0.0000 0.0000
vn 0.0000 0.0000 -1.0000
vn 0.0000 -1.0000 0.0000
vn 0.0000 1.0000 0.0000
usemtl None.004
s 1
f 1/1/1 4/2/1 3/3/1 2/4/1
f 4/2/2 6/5/2 5/6/2 3/3/2
f 6/5/3 8/7/3 7/8/3 5/6/3
f 8/7/4 1/9/4 2/10/4 7/8/4
f 9/11/5 10/12/5 11/13/5 12/14/5
f 13/15/5 14/16/5 15/17/5 16/18/5
f 17/19/5 18/20/5 19/21/5 20/22/5
f 21/23/5 22/24/5 23/25/5 24/26/5
f 25/27/5 26/28/5 27/29/5 28/30/5
f 29/31/5 30/32/5 31/33/5 32/34/5
f 33/35/5 34/36/5 35/37/5 36/38/5
f 37/39/5 38/40/5 39/41/5 40/42/5
f 41/43/5 42/44/5 43/45/5 44/46/5
f 45/47/5 46/48/5 47/49/5 48/50/5
f 49/51/6 52/52/6 51/53/6 50/54/6
f 53/55/6 56/56/6 55/57/6 54/58/6
f 57/59/6 60/60/6 59/61/6 58/62/6
f 61/63/6 64/64/6 63/65/6 62/66/6
f 65/67/6 68/68/6 67/69/6 66/70/6
f 69/71/6 72/72/6 71/73/6 70/74/6
f 73/75/6 76/76/6 75/77/6 74/78/6
f 77/79/6 80/80/6 79/81/6 78/82/6
f 81/83/6 84/84/6 83/85/6 82/86/6
f 85/87/6 88/88/6 87/89/6 86/90/6
