# Blender v2.83.0 OBJ File: ''
# www.blender.org
mtllib Antenna3.mtl
o Cube.004
v 0.017870 3.758025 -0.017869
v 0.017870 -0.053802 -0.017870
v 0.017870 -0.053802 0.017870
v 0.017870 3.758025 0.017871
v -0.017870 -0.053802 0.017870
v -0.017870 3.758025 0.017871
v -0.017870 -0.053802 -0.017870
v -0.017870 3.758025 -0.017869
v -2.248390 3.447737 -0.013760
v 2.248390 3.447737 -0.013760
v 2.248390 3.447737 0.013762
v -2.248390 3.447737 0.013762
v 1.641223 3.447737 -1.403439
v 1.672059 3.447737 -1.403439
v 1.672059 3.447737 1.403441
v 1.641223 3.447737 1.403441
v 0.714790 3.447737 -1.403439
v 0.745626 3.447737 -1.403439
v 0.745626 3.447737 1.403441
v 0.714790 3.447737 1.403441
v -0.695175 3.447737 -1.403439
v -0.664339 3.447737 -1.403439
v -0.664339 3.447737 1.403441
v -0.695175 3.447737 1.403441
v -1.593823 3.447737 -1.403439
v -1.562987 3.447737 -1.403439
v -1.562987 3.447737 1.403441
v -1.593823 3.447737 1.403441
v -2.248390 3.447737 -0.013760
v 2.248390 3.447737 -0.013760
v 2.248390 3.447737 0.013762
v -2.248390 3.447737 0.013762
v 1.641223 3.447737 -1.403439
v 1.672059 3.447737 -1.403439
v 1.672059 3.447737 1.403441
v 1.641223 3.447737 1.403441
v 0.714790 3.447737 -1.403439
v 0.745626 3.447737 -1.403439
v 0.745626 3.447737 1.403441
v 0.714790 3.447737 1.403441
v -0.695175 3.447737 -1.403439
v -0.664339 3.447737 -1.403439
v -0.664339 3.447737 1.403441
v -0.695175 3.447737 1.403441
v -1.593823 3.447737 -1.403439
v -1.562987 3.447737 -1.403439
v -1.562987 3.447737 1.403441
v -1.593823 3.447737 1.403441
vt 0.375000 0.000000
vt 0.375000 0.250000
vt 0.625000 0.250000
vt 0.625000 0.000000
vt 0.375000 0.500000
vt 0.625000 0.500000
vt 0.375000 0.750000
vt 0.625000 0.750000
vt 0.375000 1.000000
vt 0.625000 1.000000
vt 0.000000 0.000000
vt 1.000000 0.000000
vt 1.000000 1.000000
vt 0.000000 1.000000
vt 0.000000 0.000000
vt 1.000000 0.000000
vt 1.000000 1.000000
vt 0.000000 1.000000
vt 0.000000 0.000000
vt 1.000000 0.000000
vt 1.000000 1.000000
vt 0.000000 1.000000
vt 0.000000 0.000000
vt 1.000000 0.000000
vt 1.000000 1.000000
vt 0.000000 1.000000
vt 0.000000 0.000000
vt 1.000000 0.000000
vt 1.000000 1.000000
vt 0.000000 1.000000
vt 0.000000 0.000000
vt 0.000000 1.000000
vt 1.000000 1.000000
vt 1.000000 0.000000
vt 0.000000 0.000000
vt 0.000000 1.000000
vt 1.000000 1.000000
vt 1.000000 0.000000
vt 0.000000 0.000000
vt 0.000000 1.000000
vt 1.000000 1.000000
vt 1.000000 0.000000
vt 0.000000 0.000000
vt 0.000000 1.000000
vt 1.000000 1.000000
vt 1.000000 0.000000
vt 0.000000 0.000000
vt 0.000000 1.000000
vt 1.000000 1.000000
vt 1.000000 0.000000
vn 1.0000 0.0000 0.0000
vn 0.0000 -0.0000 1.0000
vn -1.0000 0.0000 0.0000
vn 0.0000 0.0000 -1.0000
vn 0.0000 -1.0000 0.0000
vn 0.0000 1.0000 0.0000
usemtl None.003
s 1
f 1/1/1 4/2/1 3/3/1 2/4/1
f 4/2/2 6/5/2 5/6/2 3/3/2
f 6/5/3 8/7/3 7/8/3 5/6/3
f 8/7/4 1/9/4 2/10/4 7/8/4
f 9/11/5 10/12/5 11/13/5 12/14/5
f 13/15/5 14/16/5 15/17/5 16/18/5
f 17/19/5 18/20/5 19/21/5 20/22/5
f 21/23/5 22/24/5 23/25/5 24/26/5
f 25/27/5 26/28/5 27/29/5 28/30/5
f 29/31/6 32/32/6 31/33/6 30/34/6
f 33/35/6 36/36/6 35/37/6 34/38/6
f 37/39/6 40/40/6 39/41/6 38/42/6
f 41/43/6 44/44/6 43/45/6 42/46/6
f 45/47/6 48/48/6 47/49/6 46/50/6
