# Wavefront OBJ file
# Creator: LithUnwrap v3.03
# Website: http://www.unwrap3d.com
# Time: Wed Apr 04 17:42:31 2018
# num_vertices: 65
# num_vertex_normals: 65
# num_uvs: 245
# num_faces: 61
# num_groups: 1

mtllib barrel_0.mtl

v -0.820761 1.434830 -0.266681
v 0.000000 -0.953310 -1.000000
v -0.507258 1.434830 0.698181
v 0.951057 -0.953310 -0.309017
v 0.507258 1.434830 0.698181
v 0.587785 -0.953310 0.809017
v 0.000000 1.434830 -0.862999
v -0.587785 -0.953310 0.809017
v 0.820761 1.434830 -0.266681
v -0.951056 -0.953310 -0.309017
v 1.021180 -0.096509 -0.331802
v 0.000000 -0.096509 -1.073732
v 0.631124 -0.096509 0.868668
v -0.631124 -0.096509 0.868668
v -1.021180 -0.096509 -0.331802
v 1.021180 0.297606 -0.331802
v 0.000000 0.297606 -1.073732
v 0.631124 0.297606 0.868668
v -0.631124 0.297606 0.868668
v -1.021180 0.297606 -0.331802
v 0.951057 1.130800 -0.309017
v 0.000000 1.130800 -1.000000
v 0.587785 1.130800 0.809017
v -0.587785 1.130800 0.809017
v -0.951056 1.130800 -0.309017
v 0.951057 1.434830 -0.309017
v 0.000000 1.434830 -1.000000
v 0.587785 1.434830 0.809017
v -0.587785 1.434830 0.809017
v -0.951056 1.434830 -0.309017
v 0.000000 -1.261736 -1.094010
v 1.040465 -1.261736 -0.338068
v 1.040465 -0.953310 -0.338068
v 0.000000 -0.953310 -1.094010
v 0.643043 -1.261736 0.885073
v 0.643043 -0.953310 0.885073
v -0.643043 -1.261736 0.885073
v -0.643043 -0.953310 0.885073
v -1.040465 -1.261736 -0.338068
v -1.040465 -0.953310 -0.338068
v 1.110589 -0.096509 -0.360852
v 0.000000 -0.096509 -1.167742
v 0.686382 -0.096509 0.944724
v -0.686382 -0.096509 0.944723
v -1.110589 -0.096509 -0.360852
v 1.110589 0.297606 -0.360852
v 0.000000 0.297606 -1.167742
v 0.686382 0.297606 0.944724
v -0.686382 0.297606 0.944723
v -1.110589 0.297606 -0.360852
v 1.040465 1.130800 -0.338068
v 0.000000 1.130800 -1.094010
v 0.643043 1.130800 0.885073
v -0.643043 1.130800 0.885073
v -1.040465 1.130800 -0.338068
v 1.040465 1.434830 -0.338068
v 0.000000 1.434830 -1.094010
v 0.643043 1.434830 0.885073
v -0.643043 1.434830 0.885073
v -1.040465 1.434830 -0.338068
v -0.820761 1.266570 -0.266681
v -0.507258 1.266570 0.698181
v 0.507258 1.266570 0.698181
v 0.000000 1.266570 -0.862999
v 0.820761 1.266570 -0.266681
# num_vertices: 65

vn 0.598177 0.777438 0.194359
vn -0.000000 0.755453 -0.655203
vn 0.369693 0.777438 -0.508840
vn 0.623135 0.755453 -0.202469
vn -0.369693 0.777438 -0.508840
vn 0.385119 0.755452 0.530071
vn 0.000000 0.777438 0.628960
vn -0.385119 0.755452 0.530071
vn -0.598177 0.777438 0.194359
vn -0.623136 0.755452 -0.202469
vn 0.572891 -0.798214 -0.186144
vn -0.000000 -0.798214 -0.602374
vn 0.354066 -0.798214 0.487330
vn -0.354066 -0.798214 0.487330
vn -0.572891 -0.798214 -0.186144
vn 0.572173 0.798784 -0.185910
vn 0.000000 0.798784 -0.601618
vn 0.353622 0.798784 0.486719
vn -0.353622 0.798784 0.486719
vn -0.572173 0.798784 -0.185910
vn 0.623835 -0.754814 -0.202697
vn 0.000000 -0.754814 -0.655939
vn 0.385551 -0.754814 0.530666
vn -0.385551 -0.754814 0.530666
vn -0.623835 -0.754814 -0.202697
vn 0.000000 1.000000 0.000000
vn 0.000000 1.000000 0.000000
vn 0.000000 1.000000 0.000000
vn 0.000000 1.000000 0.000000
vn 0.000000 1.000000 0.000000
vn 0.000000 0.000000 -1.000000
vn 0.951056 0.000000 -0.309017
vn 0.598177 0.777438 -0.194360
vn 0.000000 0.777438 -0.628960
vn 0.587785 0.000000 0.809017
vn 0.369694 0.777438 0.508839
vn -0.587785 0.000000 0.809017
vn -0.369694 0.777438 0.508839
vn -0.951056 0.000000 -0.309017
vn -0.598177 0.777438 -0.194360
vn 0.598177 -0.777438 -0.194360
vn 0.000000 -0.777438 -0.628960
vn 0.369693 -0.777438 0.508839
vn -0.369694 -0.777437 0.508839
vn -0.598177 -0.777438 -0.194359
vn 0.598177 0.777438 -0.194360
vn 0.000000 0.777438 -0.628960
vn 0.369693 0.777438 0.508839
vn -0.369694 0.777437 0.508839
vn -0.598177 0.777438 -0.194359
vn 0.598177 -0.777438 -0.194360
vn 0.000000 -0.777438 -0.628960
vn 0.369694 -0.777438 0.508839
vn -0.369694 -0.777438 0.508839
vn -0.598177 -0.777438 -0.194360
vn 0.598177 0.777438 -0.194360
vn 0.000000 0.777438 -0.628960
vn 0.369694 0.777438 0.508839
vn -0.369694 0.777438 0.508839
vn -0.598177 0.777438 -0.194360
vn 0.809017 0.525731 0.262865
vn 0.500000 0.525731 -0.688191
vn -0.500000 0.525731 -0.688191
vn 0.000000 0.525731 0.850651
vn -0.809017 0.525731 0.262865
# num_vertex_normals: 65

vt 0.451566 0.301981
vt 0.257175 0.443213
vt 0.257175 0.443213
vt 0.451566 0.301981
vt 0.335917 0.965000
vt 0.148458 0.965000
vt 0.139647 0.965000
vt 0.344728 0.965000
vt 0.393845 0.965000
vt 0.335917 0.965000
vt 0.344728 0.965000
vt 0.408102 0.965000
vt 0.645648 0.568906
vt 0.854352 0.568906
vt 0.862046 0.721017
vt 0.637954 0.721017
vt 0.242188 0.720810
vt 0.079348 0.720810
vt 0.065091 0.720810
vt 0.242188 0.720810
vt 0.393845 0.584182
vt 0.335917 0.584182
vt 0.344728 0.584182
vt 0.408102 0.584182
vt 0.242188 0.965000
vt 0.393845 0.965000
vt 0.408102 0.965000
vt 0.242188 0.965000
vt 0.581155 0.568906
vt 0.645648 0.568906
vt 0.637954 0.721017
vt 0.568706 0.721017
vt 0.854352 0.568906
vt 0.918845 0.568906
vt 0.931294 0.721017
vt 0.862046 0.721017
vt 0.750000 0.568906
vt 0.581155 0.568906
vt 0.568706 0.721017
vt 0.750000 0.721017
vt 0.918845 0.568906
vt 0.750000 0.568906
vt 0.750000 0.721017
vt 0.931294 0.721017
vt 0.568706 0.790986
vt 0.637954 0.790986
vt 0.645648 0.938906
vt 0.581155 0.938906
vt 0.079348 0.720810
vt 0.141547 0.720810
vt 0.132736 0.720810
vt 0.065091 0.720810
vt 0.377315 0.073461
vt 0.451566 0.301981
vt 0.451566 0.301981
vt 0.377315 0.073461
vt 0.141547 0.720810
vt 0.342828 0.720810
vt 0.351639 0.720810
vt 0.132736 0.720810
vt 0.342828 0.720810
vt 0.405027 0.720810
vt 0.419284 0.720810
vt 0.351639 0.720810
vt 0.079348 0.783656
vt 0.242188 0.783656
vt 0.242188 0.783656
vt 0.065091 0.783656
vt 0.862046 0.790986
vt 0.931294 0.790986
vt 0.918845 0.938906
vt 0.854352 0.938906
vt 0.750000 0.790986
vt 0.568706 0.790986
vt 0.581155 0.938906
vt 0.750000 0.938906
vt 0.637954 0.790986
vt 0.862046 0.790986
vt 0.854352 0.938906
vt 0.645648 0.938906
vt 0.931294 0.790986
vt 0.750000 0.790986
vt 0.750000 0.938906
vt 0.918845 0.938906
vt 0.405027 0.720810
vt 0.242188 0.720810
vt 0.242188 0.720810
vt 0.419284 0.720810
vt 0.141547 0.783656
vt 0.079348 0.783656
vt 0.065091 0.783656
vt 0.132736 0.783656
vt 0.242188 0.584182
vt 0.393845 0.584182
vt 0.408102 0.584182
vt 0.242188 0.584182
vt 0.090530 0.584182
vt 0.242188 0.584182
vt 0.242188 0.584182
vt 0.076273 0.584182
vt 0.482426 0.312008
vt 0.257175 0.475660
vt 0.257175 0.443213
vt 0.451566 0.301981
vt 0.031925 0.312008
vt 0.117963 0.047211
vt 0.137035 0.073461
vt 0.062784 0.301981
vt 0.242188 0.535000
vt 0.242188 0.584182
vt 0.408102 0.584182
vt 0.408102 0.535000
vt 0.408102 0.535000
vt 0.408102 0.584182
vt 0.344728 0.584182
vt 0.344728 0.535000
vt 0.344728 0.535000
vt 0.344728 0.584182
vt 0.139647 0.584182
vt 0.139647 0.535000
vt 0.139647 0.535000
vt 0.139647 0.584182
vt 0.076273 0.584182
vt 0.076273 0.535000
vt 0.076273 0.535000
vt 0.076273 0.584182
vt 0.242188 0.584182
vt 0.242188 0.535000
vt 0.242188 0.720810
vt 0.065091 0.720810
vt 0.065091 0.783656
vt 0.242188 0.783656
vt 0.132736 0.720810
vt 0.351639 0.720810
vt 0.351639 0.783656
vt 0.132736 0.783656
vt 0.419284 0.720810
vt 0.242188 0.720810
vt 0.242188 0.783656
vt 0.419284 0.783656
vt 0.065091 0.720810
vt 0.132736 0.720810
vt 0.132736 0.783656
vt 0.065091 0.783656
vt 0.351639 0.720810
vt 0.419284 0.720810
vt 0.419284 0.783656
vt 0.351639 0.783656
vt 0.242188 0.916519
vt 0.076273 0.916519
vt 0.076273 0.965000
vt 0.242188 0.965000
vt 0.139647 0.916519
vt 0.344728 0.916519
vt 0.344728 0.965000
vt 0.139647 0.965000
vt 0.408102 0.916519
vt 0.242188 0.916519
vt 0.242188 0.965000
vt 0.408102 0.965000
vt 0.076273 0.916519
vt 0.139647 0.916519
vt 0.139647 0.965000
vt 0.076273 0.965000
vt 0.344728 0.916519
vt 0.408102 0.916519
vt 0.408102 0.965000
vt 0.344728 0.965000
vt 0.148458 0.965000
vt 0.090530 0.965000
vt 0.076273 0.965000
vt 0.139647 0.965000
vt 0.335917 0.584182
vt 0.148458 0.584182
vt 0.139647 0.584182
vt 0.344728 0.584182
vt 0.393845 0.916519
vt 0.242188 0.916519
vt 0.242188 0.916519
vt 0.408102 0.916519
vt 0.090530 0.965000
vt 0.242188 0.965000
vt 0.242188 0.965000
vt 0.076273 0.965000
vt 0.335917 0.916519
vt 0.393845 0.916519
vt 0.408102 0.916519
vt 0.344728 0.916519
vt 0.117963 0.047211
vt 0.396388 0.047211
vt 0.377315 0.073461
vt 0.137035 0.073461
vt 0.148458 0.916519
vt 0.335917 0.916519
vt 0.344728 0.916519
vt 0.139647 0.916519
vt 0.148458 0.584182
vt 0.090530 0.584182
vt 0.076273 0.584182
vt 0.139647 0.584182
vt 0.090530 0.916519
vt 0.148458 0.916519
vt 0.139647 0.916519
vt 0.076273 0.916519
vt 0.242188 0.783656
vt 0.405027 0.783656
vt 0.419284 0.783656
vt 0.242188 0.783656
vt 0.242188 0.916519
vt 0.090530 0.916519
vt 0.076273 0.916519
vt 0.242188 0.916519
vt 0.405027 0.783656
vt 0.342828 0.783656
vt 0.351639 0.783656
vt 0.419284 0.783656
vt 0.257175 0.475660
vt 0.031925 0.312008
vt 0.062784 0.301981
vt 0.257175 0.443213
vt 0.396388 0.047211
vt 0.482426 0.312008
vt 0.451566 0.301981
vt 0.377315 0.073461
vt 0.342828 0.783656
vt 0.141547 0.783656
vt 0.132736 0.783656
vt 0.351639 0.783656
vt 0.137035 0.073461
vt 0.377315 0.073461
vt 0.377315 0.073461
vt 0.137035 0.073461
vt 0.062784 0.301981
vt 0.137035 0.073461
vt 0.137035 0.073461
vt 0.062784 0.301981
vt 0.257175 0.443213
vt 0.062784 0.301981
vt 0.062784 0.301981
vt 0.257175 0.443213
vt 0.751344 0.469431
vt 0.532645 0.310537
vt 0.616181 0.053440
vt 0.886508 0.053440
vt 0.970044 0.310537
# num_uvs: 245

g blank

usemtl None
f 9/1/9 7/2/7 64/3/64 65/4/65 
f 28/5/28 29/6/29 59/7/59 58/8/58 
f 26/9/26 28/10/28 58/11/58 56/12/56 
f 8/13/8 6/14/6 13/15/13 14/16/14 
f 12/17/12 15/18/15 45/19/45 42/20/42 
f 4/21/4 6/22/6 36/23/36 33/24/33 
f 27/25/27 26/26/26 56/27/56 57/28/57 
f 10/29/10 8/30/8 14/31/14 15/32/15 
f 6/33/6 4/34/4 11/35/11 13/36/13 
f 2/37/2 10/38/10 15/39/15 12/40/12 
f 4/41/4 2/42/2 12/43/12 11/44/11 
f 20/45/20 19/46/19 24/47/24 25/48/25 
f 15/49/15 14/50/14 44/51/44 45/52/45 
f 5/53/5 9/54/9 65/55/65 63/56/63 
f 14/57/14 13/58/13 43/59/43 44/60/44 
f 13/61/13 11/62/11 41/63/41 43/64/43 
f 20/65/20 17/66/17 47/67/47 50/68/50 
f 18/69/18 16/70/16 21/71/21 23/72/23 
f 17/73/17 20/74/20 25/75/25 22/76/22 
f 19/77/19 18/78/18 23/79/23 24/80/24 
f 16/81/16 17/82/17 22/83/22 21/84/21 
f 11/85/11 12/86/12 42/87/42 41/88/41 
f 19/89/19 20/90/20 50/91/50 49/92/49 
f 2/93/2 4/94/4 33/95/33 34/96/34 
f 10/97/10 2/98/2 34/99/34 40/100/40 
f 26/101/26 27/102/27 7/103/7 9/104/9 
f 30/105/30 29/106/29 3/107/3 1/108/1 
f 31/109/31 34/110/34 33/111/33 32/112/32 
f 32/113/32 33/114/33 36/115/36 35/116/35 
f 35/117/35 36/118/36 38/119/38 37/120/37 
f 37/121/37 38/122/38 40/123/40 39/124/39 
f 39/125/39 40/126/40 34/127/34 31/128/31 
f 42/129/42 45/130/45 50/131/50 47/132/47 
f 44/133/44 43/134/43 48/135/48 49/136/49 
f 41/137/41 42/138/42 47/139/47 46/140/46 
f 45/141/45 44/142/44 49/143/49 50/144/50 
f 43/145/43 41/146/41 46/147/46 48/148/48 
f 52/149/52 55/150/55 60/151/60 57/152/57 
f 54/153/54 53/154/53 58/155/58 59/156/59 
f 51/157/51 52/158/52 57/159/57 56/160/56 
f 55/161/55 54/162/54 59/163/59 60/164/60 
f 53/165/53 51/166/51 56/167/56 58/168/58 
f 29/169/29 30/170/30 60/171/60 59/172/59 
f 6/173/6 8/174/8 38/175/38 36/176/36 
f 21/177/21 22/178/22 52/179/52 51/180/51 
f 30/181/30 27/182/27 57/183/57 60/184/60 
f 23/185/23 21/186/21 51/187/51 53/188/53 
f 29/189/29 28/190/28 5/191/5 3/192/3 
f 24/193/24 23/194/23 53/195/53 54/196/54 
f 8/197/8 10/198/10 40/199/40 38/200/38 
f 25/201/25 24/202/24 54/203/54 55/204/55 
f 17/205/17 16/206/16 46/207/46 47/208/47 
f 22/209/22 25/210/25 55/211/55 52/212/52 
f 16/213/16 18/214/18 48/215/48 46/216/46 
f 27/217/27 30/218/30 1/219/1 7/220/7 
f 28/221/28 26/222/26 9/223/9 5/224/5 
f 18/225/18 19/226/19 49/227/49 48/228/48 
f 3/229/3 5/230/5 63/231/63 62/232/62 
f 1/233/1 3/234/3 62/235/62 61/236/61 
f 7/237/7 1/238/1 61/239/61 64/240/64 
f 64/241/64 61/242/61 62/243/62 63/244/63 65/245/65 
# num_faces: 61

