# Blender v2.79 (sub 0) OBJ File: 'Barrel.blend'
# www.blender.org
mtllib Barrel.mtl
o Cylinder.002
v -0.000000 -0.922488 -0.817622
v -0.000000 0.989478 -0.817622
v 0.578146 -0.922488 -0.578146
v 0.578146 0.989478 -0.578146
v 0.817622 -0.922488 0.000000
v 0.817622 0.989478 0.000000
v 0.578146 -0.922488 0.578146
v 0.578146 0.989478 0.578146
v -0.000000 -0.922488 0.817622
v -0.000000 0.989478 0.817622
v -0.578146 -0.922488 0.578146
v -0.578146 0.989478 0.578146
v -0.817622 -0.922488 -0.000000
v -0.817622 0.989478 -0.000000
v -0.578146 -0.922488 -0.578146
v -0.578146 0.989478 -0.578146
v -0.000000 0.989478 -0.678993
v 0.480121 0.989478 -0.480121
v 0.678993 0.989478 0.000000
v 0.480121 0.989478 0.480121
v -0.000000 0.989478 0.678993
v -0.480121 0.989478 0.480120
v -0.678993 0.989478 -0.000000
v -0.480121 0.989478 -0.480120
v -0.000000 0.879453 -0.678993
v 0.480121 0.879453 -0.480121
v 0.678993 0.879453 0.000000
v 0.480121 0.879453 0.480121
v -0.000000 0.879453 0.678993
v -0.480121 0.879453 0.480120
v -0.678993 0.879453 -0.000000
v -0.480121 0.879453 -0.480120
v -0.000000 0.560139 -0.909507
v 0.643119 0.560139 -0.643119
v 0.909507 0.560139 0.000000
v 0.643119 0.560139 0.643119
v -0.000000 0.560139 0.909507
v -0.643119 0.560139 0.643119
v -0.909507 0.560139 -0.000000
v -0.643119 0.560139 -0.643119
v 0.643119 0.376436 -0.643119
v 0.909507 0.376436 0.000000
v 0.643119 0.376436 0.643119
v -0.000000 0.376436 0.909507
v -0.643119 0.376436 0.643119
v -0.909507 0.376436 -0.000000
v -0.643119 0.376436 -0.643119
v -0.000000 0.376436 -0.909507
v -0.000000 -0.309446 -0.909507
v 0.643119 -0.309446 -0.643119
v 0.909507 -0.309446 0.000000
v 0.643119 -0.309446 0.643119
v -0.000000 -0.309446 0.909507
v -0.643119 -0.309446 0.643119
v -0.909507 -0.309446 -0.000000
v -0.643119 -0.309446 -0.643119
v 0.643119 -0.493149 -0.643119
v 0.909507 -0.493149 0.000000
v 0.643119 -0.493149 0.643119
v -0.000000 -0.493149 0.909507
v -0.643119 -0.493149 0.643119
v -0.909507 -0.493149 -0.000000
v -0.643119 -0.493149 -0.643119
v -0.000000 -0.493149 -0.909507
v -0.000000 0.376436 -0.934133
v 0.660531 0.560139 -0.660531
v 0.934133 0.560139 0.000000
v 0.660531 0.560139 0.660531
v -0.000000 0.560139 0.934133
v -0.660532 0.560139 0.660531
v -0.934132 0.560139 -0.000000
v -0.660532 0.560139 -0.660531
v -0.000000 -0.493149 -0.934133
v 0.660531 -0.309446 -0.660531
v 0.934133 -0.309446 0.000000
v 0.660531 -0.309446 0.660531
v -0.000000 -0.309446 0.934133
v -0.660532 -0.309446 0.660531
v -0.934132 -0.309446 -0.000000
v -0.660532 -0.309446 -0.660531
v -0.000000 0.560139 -0.934133
v 0.660531 0.376436 -0.660531
v 0.934133 0.376436 0.000000
v 0.660531 0.376436 0.660531
v -0.000000 0.376436 0.934133
v -0.660532 0.376436 0.660531
v -0.934132 0.376436 -0.000000
v -0.660532 0.376436 -0.660531
v -0.000000 -0.309446 -0.934133
v 0.660531 -0.493149 -0.660531
v 0.934133 -0.493149 0.000000
v 0.660531 -0.493149 0.660531
v -0.000000 -0.493149 0.934133
v -0.660532 -0.493149 0.660531
v -0.934132 -0.493149 -0.000000
v -0.660532 -0.493149 -0.660531
v -0.000000 0.839586 0.299687
v -0.000000 0.937263 0.299687
v 0.083067 0.839586 0.334095
v 0.083067 0.937263 0.334095
v 0.117474 0.839586 0.417162
v 0.117474 0.937263 0.417162
v 0.083067 0.839586 0.500229
v 0.083067 0.937263 0.500229
v -0.000000 0.839586 0.534636
v -0.000000 0.937263 0.534636
v -0.083067 0.839586 0.500229
v -0.083067 0.937263 0.500229
v -0.117474 0.839586 0.417162
v -0.117474 0.937263 0.417162
v -0.083067 0.839586 0.334095
v -0.083067 0.937263 0.334095
vt 0.865317 0.316250
vt 0.865317 0.353777
vt 0.754088 0.353777
vt 0.754088 0.316250
vt 0.517315 0.444510
vt 0.636634 0.444510
vt 0.636634 0.464602
vt 0.517315 0.464602
vt 0.865317 0.444510
vt 0.974319 0.444510
vt 0.974319 0.464602
vt 0.865317 0.464602
vt 0.754088 0.444510
vt 0.754088 0.464602
vt 0.161597 0.444510
vt 0.278546 0.444510
vt 0.278546 0.464602
vt 0.161597 0.464602
vt 0.397083 0.444510
vt 0.397083 0.464602
vt 0.036630 0.444510
vt 0.036630 0.464602
vt 0.287506 0.583238
vt 0.287506 0.675190
vt 0.222487 0.740209
vt 0.130535 0.740209
vt 0.065516 0.675190
vt 0.065516 0.583238
vt 0.130535 0.518219
vt 0.222487 0.518219
vt 0.636634 0.484719
vt 0.517315 0.484719
vt 0.754088 0.484719
vt 0.865317 0.484719
vt 0.974319 0.484719
vt 0.161597 0.484719
vt 0.036630 0.484719
vt 0.278546 0.484719
vt 0.397083 0.484719
vt 0.855764 0.504649
vt 0.988651 0.637537
vt 0.988651 0.825468
vt 0.855764 0.958356
vt 0.667832 0.958356
vt 0.534944 0.825468
vt 0.534944 0.637537
vt 0.667832 0.504649
vt 0.974319 0.012600
vt 0.974319 0.104305
vt 0.865317 0.104305
vt 0.865317 0.012600
vt 0.865317 0.171340
vt 0.974319 0.171340
vt 0.974319 0.301671
vt 0.865317 0.301671
vt 0.865317 0.366960
vt 0.974319 0.366960
vt 0.161597 0.012600
vt 0.161597 0.104305
vt 0.036630 0.104305
vt 0.036630 0.012600
vt 0.161597 0.301671
vt 0.036630 0.301671
vt 0.036630 0.171340
vt 0.161597 0.171340
vt 0.036630 0.366960
vt 0.161597 0.366960
vt 0.278546 0.012600
vt 0.278546 0.104305
vt 0.278546 0.301671
vt 0.278546 0.171340
vt 0.278546 0.366960
vt 0.397083 0.012600
vt 0.397083 0.104305
vt 0.397083 0.301671
vt 0.397083 0.171340
vt 0.397083 0.366960
vt 0.517315 0.012600
vt 0.517315 0.104305
vt 0.517315 0.301671
vt 0.517315 0.171340
vt 0.517315 0.366960
vt 0.636634 0.012600
vt 0.636634 0.104305
vt 0.636634 0.301671
vt 0.636634 0.171340
vt 0.636634 0.366960
vt 0.754088 0.012600
vt 0.754088 0.104305
vt 0.754088 0.301671
vt 0.754088 0.171340
vt 0.754088 0.366960
vt 0.278546 0.112831
vt 0.397083 0.112831
vt 0.397083 0.117884
vt 0.278546 0.117884
vt 0.278546 0.162814
vt 0.161597 0.162814
vt 0.161597 0.158906
vt 0.278546 0.158906
vt 0.161597 0.112831
vt 0.161597 0.117884
vt 0.754088 0.311436
vt 0.865317 0.311436
vt 0.397083 0.162814
vt 0.397083 0.158906
vt 0.036630 0.112831
vt 0.036630 0.117884
vt 0.636634 0.311436
vt 0.636634 0.316250
vt 0.517315 0.162814
vt 0.517315 0.158906
vt 0.865317 0.112831
vt 0.974319 0.112831
vt 0.974319 0.117884
vt 0.865317 0.117884
vt 0.517315 0.311436
vt 0.517315 0.316250
vt 0.636634 0.162814
vt 0.636634 0.158906
vt 0.974319 0.357194
vt 0.865317 0.357194
vt 0.974319 0.353777
vt 0.397083 0.311436
vt 0.397083 0.316250
vt 0.754088 0.162814
vt 0.754088 0.158906
vt 0.161597 0.357194
vt 0.036630 0.357194
vt 0.036630 0.353777
vt 0.161597 0.353777
vt 0.278546 0.311436
vt 0.278546 0.316250
vt 0.865317 0.162814
vt 0.865317 0.158906
vt 0.278546 0.357194
vt 0.278546 0.353777
vt 0.161597 0.311436
vt 0.161597 0.316250
vt 0.397083 0.357194
vt 0.397083 0.353777
vt 0.036630 0.311436
vt 0.036630 0.316250
vt 0.517315 0.357194
vt 0.517315 0.353777
vt 0.974319 0.311436
vt 0.974319 0.316250
vt 0.636634 0.357194
vt 0.636634 0.353777
vt 0.754088 0.112831
vt 0.754088 0.117884
vt 0.754088 0.357194
vt 0.636634 0.112831
vt 0.636634 0.117884
vt 0.517315 0.112831
vt 0.517315 0.117884
vt 0.974319 0.162814
vt 0.974319 0.158906
vt 0.036630 0.162814
vt 0.036630 0.158906
vt 0.484816 0.768742
vt 0.441369 0.812189
vt 0.401377 0.772196
vt 0.444823 0.728749
vt 0.401377 0.710753
vt 0.344818 0.772196
vt 0.344818 0.710753
vt 0.301372 0.728749
vt 0.304826 0.812189
vt 0.261379 0.768742
vt 0.243383 0.812189
vt 0.304826 0.868747
vt 0.243383 0.868747
vt 0.261379 0.912193
vt 0.344818 0.908739
vt 0.301372 0.952186
vt 0.344818 0.970182
vt 0.401377 0.908739
vt 0.401377 0.970182
vt 0.441369 0.868747
vt 0.444823 0.952186
vt 0.484816 0.912194
vt 0.502812 0.868747
vt 0.502812 0.812189
vn 0.3827 0.0000 -0.9239
vn 0.0000 1.0000 0.0000
vn 0.0000 -1.0000 0.0000
vn -0.9239 0.0000 -0.3827
vn -0.9239 0.0000 0.3827
vn -0.3827 0.0000 0.9239
vn 0.3827 0.0000 0.9239
vn 0.9239 0.0000 0.3827
vn 0.9239 0.0000 -0.3827
vn -0.3827 0.0000 -0.9239
vn -0.3754 -0.1940 -0.9063
vn -0.3754 0.1940 -0.9063
vn -0.9063 -0.1940 -0.3754
vn -0.9063 0.1940 -0.3754
vn -0.9063 -0.1940 0.3754
vn -0.9063 0.1940 0.3754
vn -0.3754 -0.1940 0.9063
vn -0.3754 0.1940 0.9063
vn 0.3754 -0.1940 0.9063
vn 0.3754 0.1940 0.9063
vn 0.9063 -0.1940 0.3754
vn 0.9063 0.1940 0.3754
vn 0.9063 -0.1940 -0.3754
vn 0.9063 0.1940 -0.3754
vn 0.3754 -0.1940 -0.9063
vn 0.3754 0.1940 -0.9063
usemtl Material.001
s off
f 65/1/1 81/2/1 66/3/1 82/4/1
f 8/5/2 6/6/2 19/7/2 20/8/2
f 2/9/2 16/10/2 24/11/2 17/12/2
f 4/13/2 2/9/2 17/12/2 18/14/2
f 14/15/2 12/16/2 22/17/2 23/18/2
f 10/19/2 8/5/2 20/8/2 21/20/2
f 6/6/2 4/13/2 18/14/2 19/7/2
f 16/21/2 14/15/2 23/18/2 24/22/2
f 12/16/2 10/19/2 21/20/2 22/17/2
f 1/23/3 3/24/3 5/25/3 7/26/3 9/27/3 11/28/3 13/29/3 15/30/3
f 20/8/4 19/7/4 27/31/4 28/32/4
f 19/7/5 18/14/5 26/33/5 27/31/5
f 18/14/6 17/12/6 25/34/6 26/33/6
f 17/12/7 24/11/7 32/35/7 25/34/7
f 24/22/8 23/18/8 31/36/8 32/37/8
f 23/18/9 22/17/9 30/38/9 31/36/9
f 22/17/1 21/20/1 29/39/1 30/38/1
f 21/20/10 20/8/10 28/32/10 29/39/10
f 26/40/2 25/41/2 32/42/2 31/43/2 30/44/2 29/45/2 28/46/2 27/47/2
f 15/48/11 63/49/11 64/50/11 1/51/11
f 49/52/10 56/53/10 47/54/10 48/55/10
f 16/10/12 2/9/12 33/56/12 40/57/12
f 13/58/13 62/59/13 63/60/13 15/61/13
f 46/62/4 47/63/4 56/64/4 55/65/4
f 14/15/14 16/21/14 40/66/14 39/67/14
f 11/68/15 61/69/15 62/59/15 13/58/15
f 45/70/5 46/62/5 55/65/5 54/71/5
f 12/16/16 14/15/16 39/67/16 38/72/16
f 9/73/17 60/74/17 61/69/17 11/68/17
f 44/75/6 45/70/6 54/71/6 53/76/6
f 10/19/18 12/16/18 38/72/18 37/77/18
f 7/78/19 59/79/19 60/74/19 9/73/19
f 43/80/7 44/75/7 53/76/7 52/81/7
f 8/5/20 10/19/20 37/77/20 36/82/20
f 5/83/21 58/84/21 59/79/21 7/78/21
f 42/85/8 43/80/8 52/81/8 51/86/8
f 6/6/22 8/5/22 36/82/22 35/87/22
f 3/88/23 57/89/23 58/84/23 5/83/23
f 41/90/9 42/85/9 51/86/9 50/91/9
f 4/13/24 6/6/24 35/87/24 34/92/24
f 1/51/25 64/50/25 57/89/25 3/88/25
f 49/52/1 48/55/1 41/90/1 50/91/1
f 33/56/26 2/9/26 4/13/26 34/92/26
f 61/93/3 60/94/3 93/95/3 94/96/3
f 54/97/2 55/98/2 79/99/2 78/100/2
f 62/101/3 61/93/3 94/96/3 95/102/3
f 41/103/3 48/104/3 65/1/3 82/4/3
f 53/105/2 54/97/2 78/100/2 77/106/2
f 63/107/3 62/101/3 95/102/3 96/108/3
f 42/109/3 41/103/3 82/4/3 83/110/3
f 52/111/2 53/105/2 77/106/2 76/112/2
f 64/113/3 63/114/3 96/115/3 73/116/3
f 43/117/3 42/109/3 83/110/3 84/118/3
f 51/119/2 52/111/2 76/112/2 75/120/2
f 40/121/2 33/122/2 81/2/2 72/123/2
f 44/124/3 43/117/3 84/118/3 85/125/3
f 50/126/2 51/119/2 75/120/2 74/127/2
f 39/128/2 40/129/2 72/130/2 71/131/2
f 45/132/3 44/124/3 85/125/3 86/133/3
f 49/134/2 50/126/2 74/127/2 89/135/2
f 38/136/2 39/128/2 71/131/2 70/137/2
f 46/138/3 45/132/3 86/133/3 87/139/3
f 37/140/2 38/136/2 70/137/2 69/141/2
f 47/142/3 46/138/3 87/139/3 88/143/3
f 36/144/2 37/140/2 69/141/2 68/145/2
f 48/104/3 47/146/3 88/147/3 65/1/3
f 35/148/2 36/144/2 68/145/2 67/149/2
f 57/150/3 64/113/3 73/116/3 90/151/3
f 34/152/2 35/148/2 67/149/2 66/3/2
f 58/153/3 57/150/3 90/151/3 91/154/3
f 33/122/2 34/152/2 66/3/2 81/2/2
f 59/155/3 58/153/3 91/154/3 92/156/3
f 56/157/2 49/134/2 89/135/2 80/158/2
f 60/94/3 59/155/3 92/156/3 93/95/3
f 55/98/2 56/159/2 80/160/2 79/99/2
f 66/3/9 67/149/9 83/110/9 82/4/9
f 72/123/10 81/2/10 65/1/10 88/147/10
f 68/145/7 69/141/7 85/125/7 84/118/7
f 69/141/6 70/137/6 86/133/6 85/125/6
f 75/120/8 76/112/8 92/156/8 91/154/8
f 71/131/4 72/130/4 88/143/4 87/139/4
f 78/100/5 79/99/5 95/102/5 94/96/5
f 73/116/1 89/135/1 74/127/1 90/151/1
f 74/127/9 75/120/9 91/154/9 90/151/9
f 80/158/10 89/135/10 73/116/10 96/115/10
f 76/112/7 77/106/7 93/95/7 92/156/7
f 77/106/6 78/100/6 94/96/6 93/95/6
f 70/137/5 71/131/5 87/139/5 86/133/5
f 79/99/4 80/160/4 96/108/4 95/102/4
f 67/149/8 68/145/8 84/118/8 83/110/8
f 97/161/1 98/162/1 100/163/1 99/164/1
f 99/165/9 100/163/9 102/166/9 101/167/9
f 101/168/8 102/166/8 104/169/8 103/170/8
f 103/171/7 104/169/7 106/172/7 105/173/7
f 105/174/6 106/172/6 108/175/6 107/176/6
f 107/177/5 108/175/5 110/178/5 109/179/5
f 100/163/2 98/162/2 112/180/2 110/178/2 108/175/2 106/172/2 104/169/2 102/166/2
f 109/181/4 110/178/4 112/180/4 111/182/4
f 111/183/10 112/180/10 98/162/10 97/184/10
