# Blender v2.79 (sub 0) OBJ File: 'cone.blend'
# www.blender.org
mtllib beam_0.mtl
o Cube
v 1.000000 -4.140485 -1.000000
v 1.000000 -4.140485 1.000000
v -1.000000 -4.140485 1.000000
v -1.000000 -4.140485 -1.000000
v 0.187956 -0.000001 -0.187956
v 0.187956 -0.000001 0.187957
v -0.187957 -0.000001 0.187956
v -0.187956 -0.000001 -0.187956
vt 0.520560 0.520561
vt 0.479434 0.520561
vt 0.479435 0.479435
vt 0.520560 0.479435
vt 0.982165 0.609402
vt 0.982166 0.390599
vt 0.609401 0.017831
vt 0.390598 0.017830
vt 0.017831 0.390594
vt 0.017830 0.609397
vt 0.609397 0.982170
vt 0.390592 0.982169
vn 0.0000 1.0000 0.0000
vn 0.9813 0.1925 0.0000
vn -0.0000 0.1925 0.9813
vn -0.9813 0.1925 -0.0000
vn 0.0000 0.1925 -0.9813
usemtl Material
s off
f 5/1/1 8/2/1 7/3/1 6/4/1
f 1/5/2 5/1/2 6/4/2 2/6/2
f 2/7/3 6/4/3 7/3/3 3/8/3
f 3/9/4 7/3/4 8/2/4 4/10/4
f 5/1/5 1/11/5 4/12/5 8/2/5
