# Blender v2.79 (sub 0) OBJ File: 'build_2.blend'
# www.blender.org
mtllib build_2.mtl
o Ramp_Cube.093
v 6.235557 7.287719 -14.999999
v 7.649767 8.701934 -14.999999
v 7.346194 6.177078 -14.999999
v 8.760405 7.591293 -14.999999
v 4.968974 6.021131 15.000002
v 6.383185 7.435346 15.000002
v 6.079611 4.910490 15.000002
v 7.493823 6.324705 15.000002
v -2.101688 -1.049548 -15.000000
v -0.687477 0.364668 -15.000000
v -0.991051 -2.160189 -15.000000
v 0.423160 -0.745974 -15.000000
v -1.299554 -0.247414 15.000001
v 0.114658 1.166800 15.000001
v -0.188916 -1.358055 15.000001
v 1.225295 0.056161 15.000001
v -9.080107 -8.027987 -15.000001
v -7.665895 -6.613773 -15.000001
v -7.969469 -9.138627 -15.000001
v -6.555258 -7.724413 -15.000001
v -9.468518 -8.416403 15.000000
v -8.054307 -7.002188 15.000000
v -8.357879 -9.527042 15.000000
v -6.943668 -8.112828 15.000000
v 13.007606 13.795431 3.460114
v -13.679868 -12.892117 3.373791
v 13.007606 13.795430 5.600115
v -13.679870 -12.892118 5.437855
v 13.781050 13.021983 3.460114
v -12.906422 -13.665565 3.373791
v 13.781050 13.021982 5.600115
v -12.906424 -13.665566 5.437855
v 12.422490 13.210314 4.609431
v -12.870026 -12.082273 4.437217
v 13.195936 12.436865 4.609430
v -12.096581 -12.855721 4.437216
v -13.679868 -12.892117 5.046344
v 13.781050 13.021982 4.916206
v 13.007606 13.795430 4.916206
v -12.906422 -13.665565 5.046344
v 13.007606 13.795431 4.505725
v -12.906422 -13.665565 4.255254
v -13.679868 -12.892117 4.255254
v 13.781050 13.021982 4.505725
v 13.007606 13.795432 -3.867319
v -13.679204 -12.891452 -3.880545
v 13.007606 13.795431 -1.727365
v -13.357810 -12.570058 -1.816455
v 13.781050 13.021984 -3.867319
v -12.916676 -13.675817 -3.880545
v 13.781050 13.021983 -1.727365
v -12.580903 -13.340044 -1.816455
v 11.572056 12.359878 -2.730487
v -12.658042 -11.870287 -2.848500
v 12.348962 11.589890 -2.730487
v -11.881134 -12.640273 -2.848500
v -13.357810 -12.570058 -2.724948
v 13.781050 13.021983 -2.411332
v 13.007606 13.795432 -2.411332
v -12.580905 -13.340046 -2.724948
v 13.007606 13.795432 -2.821616
v -12.916676 -13.675817 -2.999008
v -13.679204 -12.891452 -2.999008
v 13.781050 13.021983 -2.821616
v 13.007606 13.795432 -6.514448
v -13.679868 -12.892115 -7.011877
v 13.007606 13.795432 -4.374495
v -13.679868 -12.892115 -4.679802
v 13.781050 13.021984 -6.514448
v -12.906422 -13.665563 -7.011877
v 13.781050 13.021984 -4.374495
v -12.906422 -13.665564 -4.679802
v -13.318223 -12.530470 -5.833966
v -12.544778 -13.303918 -5.833966
v -13.679868 -12.892115 -5.180885
v -12.906422 -13.665563 -5.180885
v -12.906422 -13.665563 -6.130335
v -13.679868 -12.892115 -6.130335
v 13.007606 13.795432 -9.255704
v -13.679868 -12.892115 -9.342031
v 13.007606 13.795432 -7.115703
v -13.679868 -12.892115 -7.277964
v 13.781050 13.021984 -9.255704
v -12.906422 -13.665563 -9.342027
v 13.781050 13.021984 -7.115703
v -12.906422 -13.665563 -7.277964
v 12.424329 13.212153 -8.106382
v -12.646478 -11.858722 -8.332231
v 13.192829 12.433762 -8.106382
v -11.877975 -12.637114 -8.332231
v -13.679868 -12.892115 -7.669474
v 13.781050 13.021984 -7.799617
v 13.007606 13.795432 -7.799617
v -12.906422 -13.665563 -7.669474
v 13.007606 13.795432 -8.210088
v -12.906422 -13.665563 -8.460565
v -13.679868 -12.892115 -8.460565
v 13.781050 13.021984 -8.210088
v -13.679869 -12.892116 -12.062867
v 13.007606 13.795433 -12.083529
v -13.679870 -12.892117 -9.922887
v 13.007606 13.795433 -9.752288
v -12.906423 -13.665564 -12.062867
v 13.781051 13.021985 -12.083529
v -12.906424 -13.665565 -9.922887
v 13.781050 13.021984 -9.752288
v 12.609665 13.397491 -10.915749
v 13.383110 12.624043 -10.915749
v 13.007606 13.795433 -10.253314
v 13.781050 13.021985 -10.253314
v 13.781051 13.021985 -11.202086
v 13.007606 13.795433 -11.202086
v -12.906421 -13.665562 -14.626989
v 13.781051 13.021985 -14.365335
v -12.906423 -13.665564 -12.487431
v 13.781051 13.021985 -12.301780
v -13.679867 -12.892114 -14.626989
v 13.007606 13.795433 -14.365335
v -13.679869 -12.892116 -12.487431
v 13.007606 13.795433 -12.301780
v -12.355314 -13.114453 -13.461881
v 12.711363 11.952293 -13.384370
v -13.139407 -12.351652 -13.461881
v 11.927272 12.715095 -13.384370
v 13.781051 13.021985 -12.693160
v -13.679867 -12.892114 -13.171105
v -12.906421 -13.665562 -13.171105
v 13.007606 13.795433 -12.693160
v -12.906423 -13.665564 -13.581724
v 13.007606 13.795433 -13.484167
v 13.781051 13.021985 -13.484167
v -13.679869 -12.892116 -13.581724
v 13.007606 13.795430 10.363165
v -13.679868 -12.892118 10.288073
v 13.007605 13.795429 12.503168
v -13.098620 -12.310867 12.338736
v 13.781051 13.021982 10.363165
v -12.906422 -13.665565 10.288073
v 13.781050 13.021981 12.503168
v -12.330612 -13.089753 12.338736
v 11.579137 12.366958 11.530436
v -12.653568 -11.865814 11.297257
v 12.347145 11.588072 11.530436
v -11.885558 -12.644698 11.297257
v -13.105983 -12.318230 11.430328
v 13.781050 13.021981 11.819266
v 13.007605 13.795430 11.819266
v -12.337971 -13.097112 11.430328
v 13.007605 13.795430 11.408786
v -12.906423 -13.665565 11.169537
v -13.679869 -12.892118 11.169537
v 13.781050 13.021981 11.408786
v 13.007606 13.795430 6.179747
v -13.679870 -12.892118 5.682319
v 13.007606 13.795430 8.319695
v -13.679868 -12.892117 8.014392
v 13.781050 13.021982 6.179747
v -12.906424 -13.665566 5.682319
v 13.781051 13.021982 8.319695
v -12.906422 -13.665565 8.014392
v -13.319652 -12.531900 6.860220
v -12.542899 -13.302041 6.860220
v -13.679868 -12.892117 7.513306
v -12.906422 -13.665565 7.513306
v -12.906422 -13.665565 6.563860
v -13.679868 -12.892117 6.563860
v 13.007606 13.795431 1.641009
v -13.687844 -12.900092 1.315694
v 13.007606 13.795431 3.218446
v -13.687846 -12.900094 2.837206
v 13.781050 13.021983 1.641009
v -12.906527 -13.665668 1.315694
v 13.781050 13.021983 3.218446
v -12.906528 -13.665671 2.837206
v 13.007605 13.795429 12.614752
v -13.679869 -12.892118 12.593718
v 13.007605 13.795429 14.681108
v -13.679871 -12.892119 14.586733
v 13.781050 13.021981 12.614752
v -12.906423 -13.665565 12.593718
v 13.781050 13.021981 14.681108
v -12.906425 -13.665567 14.586733
v -13.679868 -12.892116 -0.899963
v 13.007606 13.795431 -1.406769
v -13.679868 -12.892116 1.239986
v 13.007606 13.795431 0.925318
v -12.906422 -13.665564 -0.899963
v 13.781050 13.021983 -1.406769
v -12.906422 -13.665564 1.239986
v 13.781050 13.021983 0.925318
v 12.610118 13.397942 -0.228663
v 13.383563 12.624494 -0.228663
v 13.007606 13.795431 0.424235
v 13.781050 13.021983 0.424235
v 13.781050 13.021983 -0.525228
v 13.007606 13.795431 -0.525228
v 13.007606 13.795430 8.648131
v -13.679868 -12.892117 8.322808
v 13.007606 13.795430 10.225569
v -13.679868 -12.892117 9.844318
v 13.781051 13.021982 8.648131
v -12.906422 -13.665565 8.322808
v 13.781051 13.021982 10.225569
v -12.906422 -13.665565 9.844318
v 15.000004 14.999997 -14.949111
v 15.000002 14.999993 14.945959
v 14.500005 13.499995 -14.949111
v 14.500003 13.499991 14.945959
v 13.765783 12.765773 -14.949111
v 13.765781 12.765769 14.945959
v 13.500007 14.499996 -14.949111
v 13.500005 14.499992 14.945959
v 12.765786 13.765775 -14.949111
v 12.765784 13.765771 14.945959
v -15.000001 -15.000000 -14.949117
v -15.000003 -15.000004 14.945953
v -14.500002 -13.499998 -14.949117
v -14.500004 -13.500002 14.945953
v -13.765781 -12.765776 -14.949117
v -13.765783 -12.765779 14.945953
v -13.500004 -14.499999 -14.949117
v -13.500006 -14.500003 14.945953
v -12.765783 -13.765777 -14.949117
v -12.765785 -13.765780 14.945953
v 15.000002 13.999993 14.945959
v 15.000004 13.999997 -14.949111
v -14.000001 -15.000000 -14.949117
v -14.000003 -15.000004 14.945953
vt 0.139694 0.875171
vt 0.138206 0.900080
vt 0.118645 0.898912
vt 0.120132 0.874003
vt 0.139694 0.944586
vt 0.138206 0.919677
vt 0.513176 0.919678
vt 0.514663 0.944586
vt 0.534225 0.876339
vt 0.532738 0.901249
vt 0.513176 0.900081
vt 0.514663 0.875172
vt 0.139694 0.855574
vt 0.514663 0.855574
vt 0.575914 0.875171
vt 0.576857 0.900107
vt 0.557274 0.900847
vt 0.556331 0.875911
vt 0.575914 0.944639
vt 0.576857 0.919704
vt 0.951426 0.919703
vt 0.950483 0.944639
vt 0.970066 0.874431
vt 0.971009 0.899367
vt 0.951426 0.900107
vt 0.950483 0.875171
vt 0.575914 0.855574
vt 0.950483 0.855574
vt 0.594990 0.661795
vt 0.594534 0.686744
vt 0.574940 0.686385
vt 0.575397 0.661436
vt 0.594990 0.731290
vt 0.594534 0.706341
vt 0.968897 0.706341
vt 0.969354 0.731290
vt 0.988947 0.662153
vt 0.988491 0.687102
vt 0.968897 0.686744
vt 0.969354 0.661795
vt 0.594990 0.642198
vt 0.969354 0.642198
vt 0.728340 0.589560
vt 0.729288 0.118669
vt 0.741807 0.136828
vt 0.743004 0.564415
vt 0.589661 0.476956
vt 0.118768 0.477128
vt 0.118763 0.463481
vt 0.589656 0.463308
vt 0.011276 0.013445
vt 0.482212 0.011053
vt 0.475076 0.025692
vt 0.589535 0.517303
vt 0.118645 0.516527
vt 0.118667 0.502880
vt 0.589558 0.503656
vt 0.663611 0.771141
vt 0.663611 0.784789
vt 0.647426 0.784789
vt 0.647426 0.771142
vt 0.046357 0.782049
vt 0.032710 0.782049
vt 0.032709 0.771038
vt 0.046357 0.771038
vt 0.579275 0.450996
vt 0.132996 0.450928
vt 0.118645 0.437726
vt 0.589532 0.436608
vt 0.579289 0.489275
vt 0.133008 0.489669
vt 0.589628 0.485488
vt 0.589609 0.490609
vt 0.632958 0.784789
vt 0.632958 0.771141
vt 0.032710 0.760633
vt 0.046357 0.760633
vt 0.589593 0.449654
vt 0.652241 0.589786
vt 0.652093 0.124580
vt 0.665740 0.124637
vt 0.665887 0.589782
vt 0.589570 0.121038
vt 0.125145 0.133286
vt 0.118645 0.118641
vt 0.611892 0.589711
vt 0.612705 0.118641
vt 0.626351 0.118858
vt 0.625539 0.589735
vt 0.046364 0.727192
vt 0.032716 0.727184
vt 0.032779 0.714741
vt 0.046427 0.714749
vt 0.083705 0.660629
vt 0.083645 0.674276
vt 0.058065 0.674163
vt 0.058065 0.660516
vt 0.678335 0.564480
vt 0.678650 0.136949
vt 0.691477 0.118641
vt 0.692587 0.589710
vt 0.639778 0.564431
vt 0.643707 0.589769
vt 0.046357 0.738527
vt 0.032709 0.738519
vt 0.637349 0.118880
vt 0.639190 0.136902
vt 0.640757 0.124557
vt 0.032709 0.696626
vt 0.046356 0.696381
vt 0.032770 0.674276
vt 0.032709 0.660629
vt 0.679540 0.589745
vt 0.589570 0.188083
vt 0.125144 0.175837
vt 0.589786 0.161384
vt 0.118880 0.161385
vt 0.118880 0.147738
vt 0.589786 0.147737
vt 0.589640 0.201731
vt 0.118714 0.204127
vt 0.118645 0.190480
vt 0.650682 0.806894
vt 0.650682 0.820542
vt 0.640333 0.820542
vt 0.640333 0.806894
vt 0.118734 0.179482
vt 0.589665 0.360509
vt 0.579229 0.348196
vt 0.589626 0.351976
vt 0.118829 0.141486
vt 0.632958 0.820542
vt 0.632958 0.806894
vt 0.118734 0.129640
vt 0.579330 0.386475
vt 0.589616 0.387810
vt 0.589564 0.400855
vt 0.589670 0.374156
vt 0.118769 0.374310
vt 0.118765 0.360663
vt 0.589524 0.226233
vt 0.589583 0.237230
vt 0.582581 0.240840
vt 0.589541 0.414503
vt 0.118645 0.413710
vt 0.118668 0.400062
vt 0.106777 0.732395
vt 0.106857 0.746042
vt 0.086836 0.746159
vt 0.086836 0.732511
vt 0.685798 0.784855
vt 0.685717 0.771208
vt 0.696779 0.771141
vt 0.696779 0.784789
vt 0.136850 0.347425
vt 0.118645 0.334911
vt 0.589542 0.333809
vt 0.136951 0.387536
vt 0.118829 0.167637
vt 0.068532 0.746042
vt 0.068619 0.732395
vt 0.707238 0.771208
vt 0.707151 0.784855
vt 0.589602 0.346854
vt 0.582617 0.283458
vt 0.118800 0.269372
vt 0.589692 0.268967
vt 0.589669 0.275219
vt 0.118789 0.255724
vt 0.589681 0.255319
vt 0.128441 0.553897
vt 0.118776 0.566103
vt 0.118734 0.557573
vt 0.118645 0.309717
vt 0.118702 0.296070
vt 0.589585 0.298054
vt 0.589528 0.311703
vt 0.082179 0.768264
vt 0.082179 0.779109
vt 0.068532 0.779109
vt 0.068532 0.768264
vt 0.589647 0.249068
vt 0.118711 0.389065
vt 0.082179 0.786988
vt 0.068532 0.786988
vt 0.118645 0.229025
vt 0.589626 0.287056
vt 0.118646 0.539409
vt 0.589548 0.540362
vt 0.570734 0.552693
vt 0.589675 0.566108
vt 0.589675 0.579755
vt 0.118776 0.579751
vt 0.108554 0.696644
vt 0.108383 0.710290
vt 0.087633 0.710030
vt 0.087633 0.696381
vt 0.742989 0.791357
vt 0.729343 0.791181
vt 0.729475 0.780979
vt 0.743123 0.780979
vt 0.570546 0.593168
vt 0.589547 0.605501
vt 0.118645 0.606445
vt 0.128253 0.591956
vt 0.118710 0.552450
vt 0.068720 0.710290
vt 0.068532 0.696644
vt 0.729343 0.771327
vt 0.742989 0.771141
vt 0.118709 0.593404
vt 0.768687 0.589662
vt 0.780699 0.564302
vt 0.777220 0.589620
vt 0.755040 0.589668
vt 0.754834 0.129026
vt 0.768481 0.128924
vt 0.081895 0.125176
vt 0.085541 0.118732
vt 0.096539 0.118643
vt 0.714693 0.589533
vt 0.715641 0.118641
vt 0.599491 0.771162
vt 0.599517 0.784810
vt 0.591364 0.784881
vt 0.591338 0.771234
vt 0.032804 0.638410
vt 0.032709 0.624763
vt 0.058265 0.624585
vt 0.058265 0.638233
vt 0.795387 0.589531
vt 0.782341 0.589595
vt 0.746507 0.589634
vt 0.779814 0.128739
vt 0.781514 0.136714
vt 0.610826 0.771141
vt 0.610852 0.784789
vt 0.741386 0.589613
vt 0.573186 0.784789
vt 0.573255 0.771141
vt 0.083611 0.624763
vt 0.083515 0.638410
vt 0.783019 0.118695
vt 0.794015 0.118641
vt 0.027088 0.589567
vt 0.039346 0.125117
vt 0.053786 0.589784
vt 0.053797 0.118878
vt 0.067444 0.118878
vt 0.067434 0.589784
vt 0.589617 0.454775
vt 0.013440 0.589637
vt 0.011053 0.118711
vt 0.024700 0.118641
vt 0.778876 0.788915
vt 0.765229 0.788879
vt 0.765256 0.778545
vt 0.778903 0.778545
vt 0.094132 0.589569
vt 0.073696 0.118828
vt 0.047545 0.118827
vt 0.765229 0.771192
vt 0.778876 0.771141
vt 0.035699 0.118731
vt 0.504317 0.063356
vt 0.504509 0.044374
vt 0.975567 0.044382
vt 0.975368 0.064061
vt 0.504648 0.030727
vt 0.975568 0.030733
vt 0.975348 0.077708
vt 0.504436 0.077004
vt 0.504457 0.011745
vt 0.975369 0.011053
vt 0.831892 0.118663
vt 0.856759 0.118717
vt 0.856922 0.589613
vt 0.831140 0.589558
vt 0.870406 0.118712
vt 0.870567 0.589609
vt 0.817492 0.589536
vt 0.818245 0.118641
vt 0.895272 0.118641
vt 0.896349 0.589535
vt 0.475077 0.068251
vt 0.011053 0.053792
vt 0.481969 0.053797
vt 0.011053 0.040144
vt 0.481969 0.040148
vt 0.674421 0.589759
vt 0.011206 0.094137
vt 0.011275 0.080490
vt 0.482211 0.082889
vt 0.482142 0.096536
vt 0.104285 0.786944
vt 0.104285 0.776194
vt 0.117932 0.776194
vt 0.117932 0.786944
vt 0.482021 0.060048
vt 0.104285 0.768264
vt 0.117932 0.768264
vt 0.482120 0.022051
vt 0.482120 0.071892
vt 0.932652 0.118657
vt 0.951635 0.118843
vt 0.951780 0.589764
vt 0.932101 0.589571
vt 0.965282 0.118839
vt 0.965428 0.589760
vt 0.918454 0.589555
vt 0.919005 0.118641
vt 0.984265 0.118641
vt 0.985108 0.589555
vt 0.118734 0.588281
vt 0.589651 0.584638
vt 0.589602 0.594508
vt 0.589575 0.619149
vt 0.118672 0.620092
vt 0.589636 0.382689
vt 0.118750 0.379195
vt 0.638588 0.589762
vt 0.118749 0.482013
vt 0.118711 0.491883
vt 0.743499 0.128851
vt 0.740286 0.118713
vt 0.118696 0.448724
vt 0.118740 0.458595
vt 0.482022 0.033896
vt 0.680478 0.118671
vt 0.677075 0.124606
vt 0.118696 0.345908
vt 0.118742 0.355778
vt 0.589602 0.551356
vt 0.589651 0.561225
vt 0.552834 0.651020
vt 0.535190 0.642198
vt 0.544012 0.642198
vt 0.136289 0.642200
vt 0.136290 0.659844
vt 0.118645 0.651022
vt 0.535190 0.659842
vt 0.522235 0.659842
vt 0.522235 0.642198
vt 0.149245 0.713825
vt 0.522235 0.713825
vt 0.522235 0.726780
vt 0.149245 0.726780
vt 0.149245 0.672799
vt 0.149245 0.659844
vt 0.522235 0.672798
vt 0.149245 0.692526
vt 0.522235 0.692525
vt 0.149244 0.642199
vt 0.522235 0.783141
vt 0.522235 0.802868
vt 0.149244 0.802869
vt 0.149244 0.783141
vt 0.136289 0.815824
vt 0.136289 0.833469
vt 0.118645 0.824647
vt 0.535190 0.815823
vt 0.535190 0.833468
vt 0.522235 0.833468
vt 0.522235 0.815823
vt 0.149245 0.815824
vt 0.149244 0.761841
vt 0.149244 0.748886
vt 0.522235 0.748887
vt 0.522235 0.761842
vt 0.552834 0.824645
vt 0.544012 0.833468
vt 0.149245 0.833469
vt 0.522235 0.705002
vt 0.149245 0.705003
vt 0.127467 0.642200
vt 0.149244 0.770664
vt 0.522235 0.770664
vt 0.127467 0.833469
vn 0.0000 0.0000 -1.0000
vn 0.7071 -0.7071 -0.0000
vn 0.0000 0.0000 1.0000
vn -0.7071 0.7071 0.0000
vn -0.7059 -0.7058 -0.0596
vn 0.7059 0.7058 0.0596
vn -0.7066 -0.7066 0.0378
vn 0.7066 0.7066 -0.0378
vn -0.7070 -0.7070 -0.0183
vn 0.7070 0.7070 0.0183
vn -0.0030 -0.0030 1.0000
vn 0.0016 0.0016 -1.0000
vn -0.3320 -0.3320 -0.8829
vn 0.2458 0.2458 -0.9376
vn -0.1110 -0.1110 0.9876
vn 0.0879 0.0879 0.9922
vn -0.0017 -0.0017 1.0000
vn 0.0002 0.0002 -1.0000
vn -0.0872 -0.0880 -0.9923
vn 0.1097 0.1102 -0.9878
vn -0.7039 -0.7103 0.0000
vn -0.0731 -0.0724 0.9947
vn 0.0317 0.0318 0.9990
vn -0.0057 -0.0057 1.0000
vn 0.0093 0.0093 -0.9999
vn -0.5567 -0.5567 -0.6166
vn -0.3545 -0.3545 0.8652
vn -0.2936 -0.2917 -0.9104
vn 0.2463 0.2448 -0.9378
vn -0.0622 -0.0618 0.9961
vn 0.0881 0.0876 0.9923
vn -0.0032 -0.0032 1.0000
vn -0.0004 -0.0004 -1.0000
vn 0.5389 0.5389 -0.6475
vn 0.3207 0.3207 0.8913
vn -0.0035 -0.0035 1.0000
vn 0.2906 0.2947 -0.9103
vn -0.2476 -0.2510 -0.9358
vn 0.0460 0.0466 0.9979
vn -0.1077 -0.1092 0.9882
vn -0.0032 -0.0031 1.0000
vn 0.0014 0.0014 -1.0000
vn -0.1450 -0.1430 -0.9790
vn 0.1002 0.0995 -0.9900
vn -0.7120 -0.7021 0.0115
vn -0.0624 -0.0619 0.9961
vn 0.0426 0.0423 0.9982
vn -0.5554 -0.5578 -0.6168
vn -0.3536 -0.3551 0.8654
vn -0.0071 -0.0072 0.9999
vn 0.0061 0.0061 -1.0000
vn -0.0018 -0.0018 1.0000
vn 0.0004 0.0004 -1.0000
vn 0.0059 0.0059 1.0000
vn -0.0095 -0.0095 -0.9999
vn 0.5359 0.5359 -0.6525
vn 0.3299 0.3299 0.8845
vn -0.0071 -0.0071 0.9999
vn 0.0049 0.0049 -1.0000
vn -0.3162 0.9487 0.0000
vn -0.7071 -0.7071 -0.0000
vn -0.9487 0.3162 -0.0000
vn 0.7071 0.7071 0.0000
vn 1.0000 0.0000 0.0000
vn 0.0000 -1.0000 -0.0000
usemtl None
s off
f 1/1/1 2/2/1 4/3/1 3/4/1
f 3/5/2 4/6/2 8/7/2 7/8/2
f 7/9/3 8/10/3 6/11/3 5/12/3
f 5/12/4 6/11/4 2/2/4 1/1/4
f 3/13/5 7/14/5 5/12/5 1/1/5
f 8/7/6 4/6/6 2/2/6 6/11/6
f 9/15/1 10/16/1 12/17/1 11/18/1
f 11/19/2 12/20/2 16/21/2 15/22/2
f 15/23/3 16/24/3 14/25/3 13/26/3
f 13/26/4 14/25/4 10/16/4 9/15/4
f 11/27/7 15/28/7 13/26/7 9/15/7
f 16/21/8 12/20/8 10/16/8 14/25/8
f 17/29/1 18/30/1 20/31/1 19/32/1
f 19/33/2 20/34/2 24/35/2 23/36/2
f 23/37/3 24/38/3 22/39/3 21/40/3
f 21/40/4 22/39/4 18/30/4 17/29/4
f 19/41/9 23/42/9 21/40/9 17/29/9
f 24/35/10 20/34/10 18/30/10 22/39/10
f 133/43/4 134/44/4 142/45/4 141/46/4
f 27/47/11 28/48/11 32/49/11 31/50/11
f 187/51/2 188/52/2 192/53/2
f 29/54/12 30/55/12 26/56/12 25/57/12
f 40/58/13 37/59/13 34/60/13 36/61/13
f 39/62/14 38/63/14 35/64/14 33/65/14
f 35/66/2 36/67/2 30/68/2 29/69/2
f 33/70/4 34/71/4 28/48/4 27/47/4
f 35/66/2 31/50/2 32/49/2 36/67/2
f 27/47/4 39/72/4 33/70/4
f 33/70/4 41/73/4 25/57/4
f 36/61/15 34/60/15 43/74/15 42/75/15
f 33/65/16 35/64/16 44/76/16 41/77/16
f 29/69/2 44/78/2 35/66/2
f 25/57/4 26/56/4 34/71/4 33/70/4
f 47/79/17 48/80/17 52/81/17 51/82/17
f 69/83/2 74/84/2 70/85/2
f 49/86/18 50/87/18 46/88/18 45/89/18
f 60/90/19 57/91/19 54/92/19 56/93/19
f 59/94/20 58/95/20 55/96/20 53/97/20
f 55/98/2 56/99/2 50/100/2 49/101/2
f 53/102/4 47/79/4 59/103/4
f 55/98/2 51/82/2 52/81/2 56/99/2
f 52/104/21 48/105/21 57/91/21 60/90/21
f 46/88/4 63/106/4 54/107/4
f 54/107/4 57/108/4 48/80/4
f 56/93/22 54/92/22 63/109/22 62/110/22
f 53/97/23 55/96/23 64/111/23 61/112/23
f 49/101/2 64/113/2 55/98/2
f 65/114/4 73/115/4 67/116/4
f 67/116/24 68/117/24 72/118/24 71/119/24
f 71/119/2 74/84/2 69/83/2
f 69/120/25 70/121/25 66/122/25 65/114/25
f 76/123/26 75/124/26 73/125/26 74/126/26
f 66/122/4 78/127/4 73/115/4
f 85/128/2 89/129/2 92/130/2
f 72/118/2 76/131/2 74/84/2
f 45/89/4 46/88/4 54/107/4 53/102/4
f 74/126/27 73/125/27 78/132/27 77/133/27
f 74/84/2 77/134/2 70/85/2
f 73/115/4 65/114/4 66/122/4
f 87/135/4 95/136/4 79/137/4
f 81/138/11 82/139/11 86/140/11 85/128/11
f 104/141/2 111/142/2 108/143/2
f 83/144/12 84/145/12 80/146/12 79/137/12
f 94/147/28 91/148/28 88/149/28 90/150/28
f 93/151/29 92/152/29 89/153/29 87/154/29
f 89/129/2 90/155/2 84/156/2 83/157/2
f 79/137/4 80/146/4 88/158/4 87/135/4
f 89/129/2 85/128/2 86/140/2 90/155/2
f 88/158/4 82/139/4 81/138/4 87/135/4
f 73/115/4 75/159/4 68/117/4
f 90/150/30 88/149/30 97/160/30 96/161/30
f 87/154/31 89/153/31 98/162/31 95/163/31
f 83/157/2 98/164/2 89/129/2
f 107/165/4 101/166/4 102/167/4 109/168/4
f 101/166/32 105/169/32 106/170/32 102/167/32
f 121/171/2 115/172/2 127/173/2
f 103/174/33 99/175/33 100/176/33 104/177/33
f 110/178/34 108/179/34 107/180/34 109/181/34
f 101/166/4 107/165/4 99/175/4
f 108/143/2 110/182/2 106/170/2
f 106/170/2 105/169/2 108/143/2
f 80/146/4 97/183/4 88/158/4
f 108/179/35 111/184/35 112/185/35 107/180/35
f 105/169/2 103/186/2 108/143/2
f 99/175/4 107/165/4 112/187/4 100/176/4
f 113/188/2 114/189/2 122/190/2 121/171/2
f 115/172/36 116/191/36 120/192/36 119/193/36
f 128/194/37 125/195/37 122/196/37 124/197/37
f 127/198/38 126/199/38 123/200/38 121/201/38
f 124/202/4 118/203/4 117/204/4 123/205/4
f 123/205/4 119/193/4 120/192/4 124/202/4
f 115/172/2 121/171/2 122/190/2 116/191/2
f 121/171/2 129/206/2 113/188/2
f 124/197/39 122/196/39 131/207/39 130/208/39
f 121/201/40 123/200/40 132/209/40 129/210/40
f 117/204/4 132/211/4 123/205/4
f 139/212/2 143/213/2 146/214/2
f 135/215/41 136/216/41 140/217/41 139/212/41
f 162/218/2 165/219/2 158/220/2
f 137/221/42 138/222/42 134/44/42 133/43/42
f 148/223/43 145/224/43 142/225/43 144/226/43
f 147/227/44 146/228/44 143/229/44 141/230/44
f 143/213/2 137/231/2 152/232/2
f 141/46/4 135/215/4 147/233/4
f 140/217/2 148/234/2 144/235/2
f 140/236/45 136/237/45 145/224/45 148/223/45
f 141/46/4 149/238/4 133/43/4
f 135/215/4 141/46/4 142/45/4 136/216/4
f 144/226/46 142/225/46 151/239/46 150/240/46
f 141/230/47 143/229/47 152/241/47 149/242/47
f 144/235/2 150/243/2 138/244/2
f 153/245/4 161/246/4 155/247/4
f 155/247/24 156/248/24 160/249/24 159/250/24
f 31/50/2 35/66/2 38/251/2
f 157/252/25 158/253/25 154/254/25 153/245/25
f 164/255/48 163/256/48 161/257/48 162/258/48
f 161/246/4 156/248/4 155/247/4
f 157/259/2 159/250/2 162/218/2
f 160/249/2 164/260/2 162/218/2
f 161/246/4 163/261/4 156/248/4
f 162/258/49 161/257/49 166/262/49 165/263/49
f 159/250/2 160/249/2 162/218/2
f 154/254/4 166/264/4 161/246/4
f 168/265/4 170/266/4 169/267/4 167/268/4
f 169/267/50 170/266/50 174/269/50 173/270/50
f 171/271/51 172/272/51 168/265/51 167/268/51
f 174/269/2 172/273/2 171/274/2 173/270/2
f 176/275/4 178/276/4 177/277/4 175/278/4
f 177/277/52 178/276/52 182/279/52 181/280/52
f 179/281/53 180/282/53 176/275/53 175/278/53
f 182/279/2 180/283/2 179/284/2 181/280/2
f 191/285/4 185/286/4 186/287/4
f 185/286/54 189/288/54 190/289/54 186/287/54
f 51/82/2 55/98/2 58/290/2
f 187/291/55 183/292/55 184/293/55 188/294/55
f 194/295/56 192/296/56 191/297/56 193/298/56
f 185/286/4 191/285/4 183/292/4
f 192/53/2 190/289/2 189/288/2
f 189/288/2 187/51/2 192/53/2
f 186/287/4 193/299/4 191/285/4
f 192/296/57 195/300/57 196/301/57 191/297/57
f 188/52/2 195/302/2 192/53/2
f 191/285/4 196/303/4 184/293/4
f 198/304/4 200/305/4 199/306/4 197/307/4
f 199/306/58 200/305/58 204/308/58 203/309/58
f 201/310/51 202/311/51 198/304/51 197/307/51
f 204/308/2 202/312/2 201/313/2 203/309/2
f 119/193/4 123/205/4 126/314/4
f 120/192/4 128/315/4 124/202/4
f 118/203/4 124/202/4 130/316/4
f 117/204/59 118/203/59 114/317/59 113/318/59
f 81/138/4 93/319/4 87/135/4
f 82/139/4 88/158/4 91/320/4
f 73/115/4 68/117/4 67/116/4
f 53/102/4 61/321/4 45/89/4
f 47/79/4 53/102/4 54/107/4 48/80/4
f 183/292/4 191/285/4 184/293/4
f 34/71/4 37/322/4 28/48/4
f 26/56/4 43/323/4 34/71/4
f 161/246/4 153/245/4 154/254/4
f 142/45/4 145/324/4 136/216/4
f 134/44/4 151/325/4 142/45/4
f 137/231/2 143/213/2 144/235/2 138/244/2
f 143/213/2 139/212/2 140/217/2 144/235/2
f 162/218/2 158/220/2 157/259/2
f 36/67/2 42/326/2 30/68/2
f 32/49/2 40/327/2 36/67/2
f 190/289/2 192/53/2 194/328/2
f 56/99/2 62/329/2 50/100/2
f 52/81/2 60/330/2 56/99/2
f 74/84/2 71/119/2 72/118/2
f 90/155/2 96/331/2 84/156/2
f 86/140/2 94/332/2 90/155/2
f 103/186/2 104/141/2 108/143/2
f 114/189/2 131/333/2 122/190/2
f 122/190/2 125/334/2 116/191/2
f 206/335/3 208/336/3 225/337/3
f 207/338/1 211/339/1 205/340/1
f 208/336/3 212/341/3 214/342/3 210/343/3
f 207/344/2 208/345/2 210/346/2 209/347/2
f 211/348/4 213/349/4 214/342/4 212/350/4
f 205/351/60 211/348/60 212/350/60 206/352/60
f 209/353/61 210/343/61 214/342/61 213/349/61
f 206/335/3 212/341/3 208/336/3
f 211/339/1 207/338/1 209/353/1 213/349/1
f 216/354/62 218/355/62 217/356/62 215/357/62
f 217/358/1 221/359/1 215/360/1
f 218/361/3 222/362/3 224/363/3 220/364/3
f 217/356/4 218/355/4 220/364/4 219/365/4
f 221/366/2 223/367/2 224/368/2 222/369/2
f 216/370/3 228/371/3 222/362/3
f 219/365/63 220/364/63 224/363/63 223/372/63
f 216/370/3 222/362/3 218/361/3
f 221/359/1 217/358/1 219/365/1 223/372/1
f 206/352/64 225/373/64 226/374/64 205/351/64
f 208/345/2 207/344/2 226/374/2 225/373/2
f 207/338/1 205/340/1 226/375/1
f 215/357/65 227/376/65 228/377/65 216/354/65
f 222/369/2 228/377/2 227/376/2 221/366/2
f 215/360/1 221/359/1 227/378/1
