# Blender v2.79 (sub 0) OBJ File: 'build_3.blend'
# www.blender.org
mtllib build_3.mtl
o Pole_Cube.135
v -1.300000 -15.000000 1.300000
v -1.300000 15.000000 1.300000
v -1.300000 -15.000000 -1.300000
v -1.300000 15.000000 -1.300000
v 1.300000 -15.000000 1.300000
v 1.300000 15.000000 1.300000
v 1.300000 -15.000000 -1.300000
v 1.300000 15.000000 -1.300000
v -1.300000 13.343306 1.300000
v -1.300000 -13.343306 1.300000
v -1.300000 -13.343306 -1.300000
v -1.300000 13.343306 -1.300000
v 1.300000 -13.343306 -1.300000
v 1.300000 13.343306 -1.300000
v 1.300000 -13.343306 1.300000
v 1.300000 13.343306 1.300000
v -1.000000 -15.000000 -1.000000
v -1.000000 -15.000000 1.000000
v -1.000000 15.000000 1.000000
v -1.000000 15.000000 -1.000000
v 1.000000 -15.000000 -1.000000
v 1.000000 15.000000 -1.000000
v 1.000000 -15.000000 1.000000
v 1.000000 15.000000 1.000000
v 1.000000 13.343306 1.000000
v -1.000000 13.343306 1.000000
v -1.000000 -13.343306 1.000000
v 1.000000 -13.343306 1.000000
v 1.000000 13.343306 -1.000000
v 1.000000 -13.343306 -1.000000
v -1.000000 13.343306 -1.000000
v -1.000000 -13.343306 -1.000000
v -1.200000 -0.569941 1.200000
v -1.200000 0.569941 1.200000
v -1.200000 -0.569941 -1.200000
v -1.200000 0.569941 -1.200000
v 1.200000 -0.569941 1.200000
v 1.200000 0.569941 1.200000
v 1.200000 -0.569941 -1.200000
v 1.200000 0.569941 -1.200000
v -1.200000 -7.569941 1.200000
v -1.200000 -6.430059 1.200000
v -1.200000 -7.569941 -1.200000
v -1.200000 -6.430059 -1.200000
v 1.200000 -7.569941 1.200000
v 1.200000 -6.430059 1.200000
v 1.200000 -7.569941 -1.200000
v 1.200000 -6.430059 -1.200000
v -1.200000 6.430059 1.200000
v -1.200000 7.569941 1.200000
v -1.200000 6.430059 -1.200000
v -1.200000 7.569941 -1.200000
v 1.200000 6.430059 1.200000
v 1.200000 7.569941 1.200000
v 1.200000 6.430059 -1.200000
v 1.200000 7.569941 -1.200000
vt 0.834682 0.699952
vt 0.774782 0.699952
vt 0.774782 0.793958
vt 0.834682 0.793958
vt 0.834681 0.605946
vt 0.774782 0.605946
vt 0.774782 0.887965
vt 0.834682 0.887965
vt 0.521636 0.870027
vt 0.449324 0.870027
vt 0.449324 0.797715
vt 0.521636 0.797715
vt 0.521636 0.968342
vt 0.449324 0.968342
vt 0.449324 0.896030
vt 0.521636 0.896030
vt 0.834681 0.511940
vt 0.774781 0.511940
vt 0.774752 0.135811
vt 0.834651 0.135811
vt 0.834651 0.229817
vt 0.774752 0.229817
vt 0.774751 0.041804
vt 0.834651 0.041804
vt 0.774752 0.323823
vt 0.834651 0.323823
vt 0.834651 0.417829
vt 0.774751 0.417829
vt 0.181805 0.982443
vt 0.109493 0.982443
vt 0.109493 0.017557
vt 0.181805 0.017557
vt 0.254118 0.982443
vt 0.254118 0.017557
vt 0.326430 0.982443
vt 0.326430 0.017557
vt 0.037180 0.982443
vt 0.037180 0.017557
vt 0.928688 0.793958
vt 0.917841 0.783111
vt 0.845528 0.783112
vt 0.928658 0.323823
vt 0.845498 0.312976
vt 0.917811 0.312976
vt 0.928688 0.699952
vt 0.917841 0.710799
vt 0.928658 0.229817
vt 0.917811 0.240664
vt 0.845528 0.710799
vt 0.845498 0.240664
vt 0.619736 0.863497
vt 0.713742 0.863497
vt 0.702895 0.874344
vt 0.630583 0.874344
vt 0.619736 0.717649
vt 0.713742 0.717649
vt 0.702895 0.728496
vt 0.630583 0.728496
vt 0.619736 0.957503
vt 0.630583 0.946656
vt 0.713742 0.811656
vt 0.702895 0.800809
vt 0.713742 0.957503
vt 0.702895 0.946656
vt 0.619736 0.811656
vt 0.630583 0.800809
vt 0.441669 0.373427
vt 0.441669 0.414641
vt 0.354894 0.414641
vt 0.354894 0.373427
vt 0.701994 0.373427
vt 0.701994 0.414641
vt 0.615219 0.414641
vt 0.615219 0.373427
vt 0.528444 0.414641
vt 0.528444 0.373427
vt 0.441669 0.286652
vt 0.528444 0.286652
vt 0.528444 0.501416
vt 0.441669 0.501416
vt 0.441669 0.640032
vt 0.441669 0.681246
vt 0.354894 0.681246
vt 0.354894 0.640032
vt 0.701994 0.640032
vt 0.701994 0.681246
vt 0.615219 0.681246
vt 0.615219 0.640032
vt 0.528444 0.681246
vt 0.528444 0.640032
vt 0.441669 0.553257
vt 0.528444 0.553257
vt 0.528444 0.768021
vt 0.441669 0.768021
vt 0.441683 0.104332
vt 0.441669 0.145546
vt 0.354894 0.145516
vt 0.354908 0.104302
vt 0.702008 0.104422
vt 0.701994 0.145635
vt 0.615219 0.145605
vt 0.615233 0.104392
vt 0.528444 0.145575
vt 0.528458 0.104362
vt 0.441713 0.017557
vt 0.528488 0.017587
vt 0.528414 0.232350
vt 0.441639 0.232320
vn 0.0000 0.0000 1.0000
vn 1.0000 0.0000 0.0000
vn -1.0000 0.0000 0.0000
vn 0.0000 -1.0000 0.0000
vn 0.0000 1.0000 0.0000
vn 0.0000 0.0000 -1.0000
usemtl None
s off
f 5/1/1 15/2/1 10/3/1 1/4/1
f 7/5/2 13/6/2 15/2/2 5/1/2
f 1/4/3 10/3/3 11/7/3 3/8/3
f 17/9/4 21/10/4 23/11/4 18/12/4
f 22/13/5 20/14/5 19/15/5 24/16/5
f 3/17/6 11/18/6 13/6/6 7/5/6
f 14/19/2 8/20/2 6/21/2 16/22/2
f 12/23/6 4/24/6 8/20/6 14/19/6
f 9/25/3 2/26/3 4/27/3 12/28/3
f 25/29/1 26/30/1 27/31/1 28/32/1
f 29/33/2 25/29/2 28/32/2 30/34/2
f 31/35/6 29/33/6 30/34/6 32/36/6
f 26/30/3 31/37/3 32/38/3 27/31/3
f 16/22/1 6/21/1 2/26/1 9/25/1
f 1/4/4 3/39/4 17/40/4 18/41/4
f 4/42/5 2/26/5 19/43/5 20/44/5
f 3/39/4 7/45/4 21/46/4 17/40/4
f 8/47/5 4/42/5 20/44/5 22/48/5
f 7/45/4 5/1/4 23/49/4 21/46/4
f 6/21/5 8/47/5 22/48/5 24/50/5
f 5/1/4 1/4/4 18/41/4 23/49/4
f 2/26/5 6/21/5 24/50/5 19/43/5
f 16/51/4 9/52/4 26/53/4 25/54/4
f 10/55/5 15/56/5 28/57/5 27/58/5
f 14/59/4 16/51/4 25/54/4 29/60/4
f 15/56/5 13/61/5 30/62/5 28/57/5
f 12/63/4 14/59/4 29/60/4 31/64/4
f 13/61/5 11/65/5 32/66/5 30/62/5
f 9/52/4 12/63/4 31/64/4 26/53/4
f 11/65/5 10/55/5 27/58/5 32/66/5
f 33/67/3 34/68/3 36/69/3 35/70/3
f 35/71/6 36/72/6 40/73/6 39/74/6
f 39/74/2 40/73/2 38/75/2 37/76/2
f 37/76/1 38/75/1 34/68/1 33/67/1
f 35/77/4 39/78/4 37/76/4 33/67/4
f 40/79/5 36/80/5 34/68/5 38/75/5
f 41/81/3 42/82/3 44/83/3 43/84/3
f 43/85/6 44/86/6 48/87/6 47/88/6
f 47/88/2 48/87/2 46/89/2 45/90/2
f 45/90/1 46/89/1 42/82/1 41/81/1
f 43/91/4 47/92/4 45/90/4 41/81/4
f 48/93/5 44/94/5 42/82/5 46/89/5
f 49/95/3 50/96/3 52/97/3 51/98/3
f 51/99/6 52/100/6 56/101/6 55/102/6
f 55/102/2 56/101/2 54/103/2 53/104/2
f 53/104/1 54/103/1 50/96/1 49/95/1
f 51/105/4 55/106/4 53/104/4 49/95/4
f 56/107/5 52/108/5 50/96/5 54/103/5
