# Blender v2.79 (sub 0) OBJ File: 'cactus.blend'
# www.blender.org
mtllib cactus.mtl
o Sphere
v 0.000000 6.699192 -0.707107
v 0.000000 -0.000000 -1.000000
v -0.407955 4.906522 1.908160
v 0.407955 4.906522 1.908160
v 0.672499 6.699192 -0.218508
v 0.951057 -0.000000 -0.309017
v -0.440803 3.569248 1.443745
v 0.415627 6.699192 0.572062
v 0.587785 -0.000000 0.809017
v -0.421896 4.304994 1.417722
v -0.000000 6.992085 0.000000
v -0.415627 6.699192 0.572062
v -0.587785 -0.000000 0.809017
v 0.440803 3.569248 1.443745
v -0.672499 6.699192 -0.218508
v -0.951057 -0.000000 -0.309017
v 0.421896 4.304994 1.417722
v 0.000000 5.861793 -0.743718
v 0.000000 5.024394 -0.780330
v 0.000000 4.186995 -0.816942
v 0.000000 3.349596 -0.853553
v 0.000000 2.512197 -0.890165
v 0.000000 1.674798 -0.926777
v 0.000000 0.837399 -0.963388
v 0.707318 5.861793 -0.229822
v 0.742138 5.024394 -0.241135
v 0.776958 4.186995 -0.252449
v 0.811778 3.349596 -0.263762
v 0.846597 2.512197 -0.275076
v 0.881417 1.674798 -0.286390
v 0.916237 0.837399 -0.297703
v 0.437147 5.861793 0.601681
v 0.458667 5.024394 0.631301
v 0.480186 4.186995 0.660920
v 0.501706 3.349596 0.690539
v 0.523226 2.512197 0.720159
v 0.544746 1.674798 0.749778
v 0.566265 0.837399 0.779398
v -0.437147 5.861793 0.601681
v -0.458667 5.024394 0.631300
v -0.480186 4.186995 0.660920
v -0.501706 3.349596 0.690539
v -0.523226 2.512197 0.720159
v -0.544746 1.674798 0.749778
v -0.566266 0.837399 0.779398
v -0.707318 5.861793 -0.229822
v -0.742138 5.024394 -0.241135
v -0.776958 4.186995 -0.252449
v -0.811778 3.349596 -0.263763
v -0.846597 2.512197 -0.275076
v -0.881417 1.674798 -0.286390
v -0.916237 0.837399 -0.297703
v 0.426237 4.394392 2.149599
v -0.426238 4.394392 2.149599
v 0.231560 5.546494 2.184692
v 0.241937 5.255803 2.321736
v -0.231561 5.546494 2.184692
v -0.241938 5.255803 2.321736
v -0.558470 2.828082 -1.345665
v -0.714703 2.351100 -1.801797
v -1.363121 2.874422 -1.086193
v -1.552448 2.399346 -1.531653
v -1.108131 3.349613 -1.792969
v -1.204229 3.056223 -2.073534
v -1.603069 3.378117 -1.633369
v -1.719524 3.085899 -1.907370
vn 0.0000 0.3967 -0.9180
vn 0.5874 0.0353 -0.8085
vn 0.0000 0.4264 0.9045
vn 0.2679 0.8901 -0.3687
vn -0.0000 -0.6500 0.7599
vn 0.4334 0.8901 0.1408
vn -0.9996 0.0278 -0.0093
vn 0.9505 0.0353 0.3088
vn -0.0000 0.0353 0.9994
vn 0.0000 0.6319 -0.7750
vn -0.0000 0.8901 0.4557
vn -0.0000 -0.1960 0.9806
vn 0.0000 0.9881 -0.1541
vn -0.9505 0.0353 0.3088
vn -0.9970 0.0282 0.0724
vn -0.4334 0.8901 0.1408
vn 0.9970 0.0282 0.0724
vn -0.5874 0.0353 -0.8085
vn 0.9996 0.0278 -0.0093
vn -0.2679 0.8901 -0.3687
vn 0.1987 0.9242 0.3262
vn -0.0000 -0.9600 0.2800
vn -0.9550 0.1537 0.2536
vn 0.9550 0.1537 0.2536
vn -0.2901 -0.5128 -0.8080
vn -0.8708 -0.0222 0.4911
vn 0.7663 0.1437 -0.6262
vn -0.2457 -0.8749 -0.4175
vn -0.1788 0.7100 -0.6812
vn 0.7580 0.3038 -0.5773
vn 0.2373 0.7644 0.5995
vn -0.9179 -0.0062 0.3968
usemtl None
s off
f 4//1 3//1 57//1 55//1
f 18//2 1//2 5//2 25//2
f 56//3 55//3 57//3 58//3
f 1//4 11//4 5//4
f 7//5 14//5 53//5 54//5
f 5//6 11//6 8//6
f 10//7 7//7 54//7 3//7
f 25//8 5//8 8//8 32//8
f 32//9 8//9 12//9 39//9
f 17//10 10//10 3//10 4//10
f 8//11 11//11 12//11
f 54//12 53//12 56//12 58//12
f 34//13 41//13 10//13 17//13
f 39//14 12//14 15//14 46//14
f 41//15 42//15 7//15 10//15
f 12//16 11//16 15//16
f 35//17 34//17 17//17 14//17
f 46//18 15//18 1//18 18//18
f 14//19 17//19 4//19 53//19
f 15//20 11//20 1//20
f 16//18 52//18 24//18 2//18
f 52//18 51//18 23//18 24//18
f 50//21 22//21 59//21 61//21
f 50//18 49//18 21//18 22//18
f 49//18 48//18 20//18 21//18
f 48//18 47//18 19//18 20//18
f 47//18 46//18 18//18 19//18
f 13//14 45//14 52//14 16//14
f 45//14 44//14 51//14 52//14
f 44//14 43//14 50//14 51//14
f 43//14 42//14 49//14 50//14
f 42//14 41//14 48//14 49//14
f 41//14 40//14 47//14 48//14
f 40//14 39//14 46//14 47//14
f 9//9 38//9 45//9 13//9
f 38//9 37//9 44//9 45//9
f 37//9 36//9 43//9 44//9
f 36//9 35//9 42//9 43//9
f 42//22 35//22 14//22 7//22
f 34//9 33//9 40//9 41//9
f 33//9 32//9 39//9 40//9
f 6//8 31//8 38//8 9//8
f 31//8 30//8 37//8 38//8
f 30//8 29//8 36//8 37//8
f 29//8 28//8 35//8 36//8
f 28//8 27//8 34//8 35//8
f 27//8 26//8 33//8 34//8
f 26//8 25//8 32//8 33//8
f 2//2 24//2 31//2 6//2
f 24//2 23//2 30//2 31//2
f 23//2 22//2 29//2 30//2
f 22//2 21//2 28//2 29//2
f 21//2 20//2 27//2 28//2
f 20//2 19//2 26//2 27//2
f 19//2 18//2 25//2 26//2
f 3//23 54//23 58//23 57//23
f 53//24 4//24 55//24 56//24
f 60//25 62//25 66//25 64//25
f 51//26 50//26 61//26 62//26
f 22//27 23//27 60//27 59//27
f 23//28 51//28 62//28 60//28
f 66//29 65//29 63//29 64//29
f 59//30 60//30 64//30 63//30
f 61//31 59//31 63//31 65//31
f 62//32 61//32 65//32 66//32
