# Blender v2.79 (sub 0) OBJ File: 'Crate.blend'
# www.blender.org
mtllib crate_0.mtl
o Cube.001_Cube.000
v -1.000000 -1.000000 1.000000
v -1.000000 1.000000 1.000000
v -1.000000 -1.000000 -1.000000
v -1.000000 1.000000 -1.000000
v 1.000000 -1.000000 1.000000
v 1.000000 1.000000 1.000000
v 1.000000 -1.000000 -1.000000
v 1.000000 1.000000 -1.000000
v 0.714286 1.000000 -0.714286
v 0.714286 1.000000 0.714286
v -0.714286 0.900000 -0.714286
v 0.714286 0.900000 0.714286
v 0.714286 0.900000 -0.714286
v -0.714286 1.000000 -0.714286
v -0.714286 1.000000 0.714286
v 0.714286 -0.714286 1.000000
v -0.714286 -0.714286 1.000000
v 0.714286 0.714286 0.900000
v -0.714286 -0.714286 0.900000
v 0.714286 -0.714286 0.900000
v 0.714286 0.714286 1.000000
v -0.714286 0.714286 1.000000
v 1.000000 -0.714286 -0.714286
v 1.000000 -0.714286 0.714286
v 0.900000 0.714286 -0.714286
v 0.900000 -0.714286 0.714286
v 0.900000 -0.714286 -0.714286
v 1.000000 0.714286 -0.714286
v 1.000000 0.714286 0.714286
v -0.714286 -0.714286 -1.000000
v 0.714286 -0.714286 -1.000000
v -0.714286 0.714286 -0.900000
v 0.714286 -0.714286 -0.900000
v -0.714286 -0.714286 -0.900000
v -0.714286 0.714286 -1.000000
v 0.714286 0.714286 -1.000000
v -1.000000 -0.714286 0.714286
v -1.000000 -0.714286 -0.714286
v -0.900000 0.714286 0.714286
v -0.900000 -0.714286 -0.714286
v -0.900000 -0.714286 0.714286
v -1.000000 0.714286 0.714286
v -1.000000 0.714286 -0.714286
v 0.900000 0.714286 0.714286
v 0.714286 0.714286 -0.900000
v -0.900000 0.714286 -0.714286
v -0.714286 0.714286 0.900000
v -0.714286 0.900000 0.714286
vt 0.390564 0.618346
vt 0.345500 0.663410
vt 0.345500 0.347961
vt 0.390564 0.393025
vt 0.660949 0.347961
vt 0.615885 0.393025
vt 0.143199 0.679098
vt 0.143199 0.984579
vt 0.121816 0.984579
vt 0.121816 0.679098
vt 0.100109 0.984579
vt 0.100109 0.679099
vt 0.121492 0.679099
vt 0.121492 0.984579
vt 0.251734 0.984274
vt 0.230350 0.984274
vt 0.230350 0.678793
vt 0.251734 0.678793
vt 0.143523 0.678793
vt 0.164906 0.678793
vt 0.164906 0.984274
vt 0.143523 0.984274
vt 0.615885 0.618346
vt 0.660949 0.663410
vt 0.390564 0.933795
vt 0.345500 0.978859
vt 0.390564 0.708474
vt 0.345501 0.032511
vt 0.660950 0.032512
vt 0.615885 0.077576
vt 0.390565 0.077576
vt 0.200886 0.023040
vt 0.200886 0.328486
vt 0.179505 0.328486
vt 0.179505 0.023040
vt 0.186613 0.984274
vt 0.165229 0.984274
vt 0.165229 0.678793
vt 0.186613 0.678793
vt 0.615885 0.302897
vt 0.201681 0.021933
vt 0.223135 0.021933
vt 0.223135 0.328426
vt 0.201681 0.328426
vt 0.078402 0.984579
vt 0.078401 0.679099
vt 0.099785 0.679099
vt 0.099785 0.984579
vt 0.390565 0.302896
vt 0.976399 0.347961
vt 0.976399 0.663410
vt 0.931334 0.618346
vt 0.931334 0.393025
vt 0.273441 0.678793
vt 0.273441 0.984274
vt 0.252057 0.984274
vt 0.252057 0.678793
vt 0.706014 0.618346
vt 0.135772 0.023040
vt 0.135772 0.328486
vt 0.114391 0.328486
vt 0.114391 0.023040
vt 0.223460 0.021933
vt 0.244914 0.021933
vt 0.244914 0.328426
vt 0.223460 0.328426
vt 0.245491 0.022985
vt 0.266875 0.022985
vt 0.266875 0.328465
vt 0.245492 0.328465
vt 0.706014 0.393025
vt 0.615885 0.933795
vt 0.615885 0.708474
vt 0.660949 0.978860
vt 0.070982 0.023040
vt 0.092363 0.023040
vt 0.092363 0.328486
vt 0.070982 0.328486
vt 0.267198 0.022985
vt 0.288582 0.022985
vt 0.288582 0.328465
vt 0.267199 0.328465
vt 0.157477 0.023040
vt 0.157477 0.328486
vt 0.136095 0.328486
vt 0.136096 0.023040
vt 0.230027 0.678793
vt 0.230027 0.984274
vt 0.208643 0.984274
vt 0.208643 0.678793
vt 0.075115 0.618346
vt 0.030051 0.663410
vt 0.030051 0.347960
vt 0.075115 0.393025
vt 0.179181 0.023040
vt 0.179181 0.328486
vt 0.157800 0.328486
vt 0.157800 0.023040
vt 0.300436 0.393025
vt 0.295148 0.984274
vt 0.273764 0.984274
vt 0.273764 0.678793
vt 0.295148 0.678793
vt 0.186936 0.984274
vt 0.186936 0.678793
vt 0.208320 0.678793
vt 0.208320 0.984274
vt 0.092686 0.023040
vt 0.114068 0.023040
vt 0.114068 0.328486
vt 0.092687 0.328486
vt 0.300436 0.618346
vt 0.590887 0.738700
vt 0.590887 0.915667
vt 0.413920 0.915667
vt 0.413920 0.738700
vt 0.730887 0.418300
vt 0.907855 0.418300
vt 0.907855 0.595268
vt 0.730887 0.595268
vt 0.414481 0.104058
vt 0.591448 0.104058
vt 0.591448 0.281025
vt 0.414481 0.281025
vt 0.591098 0.418387
vt 0.591098 0.595355
vt 0.414130 0.595355
vt 0.414130 0.418387
vt 0.692367 0.315446
vt 0.692367 0.040023
vt 0.967789 0.040023
vt 0.967789 0.315446
vt 0.099888 0.420340
vt 0.276855 0.420340
vt 0.276855 0.597308
vt 0.099888 0.597308
vn 0.0000 1.0000 0.0000
vn 1.0000 0.0000 0.0000
vn 0.0000 0.0000 1.0000
vn 0.0000 0.0000 -1.0000
vn -1.0000 0.0000 0.0000
vn 0.0000 -1.0000 0.0000
usemtl None
s off
f 14/1/1 4/2/1 2/3/1 15/4/1
f 2/3/1 6/5/1 10/6/1 15/4/1
f 14/7/2 15/8/2 48/9/2 11/10/2
f 9/11/3 14/12/3 11/13/3 13/14/3
f 10/15/4 12/16/4 48/17/4 15/18/4
f 9/19/5 13/20/5 12/21/5 10/22/5
f 9/23/1 10/6/1 6/5/1 8/24/1
f 14/1/1 9/23/1 8/24/1 4/2/1
f 30/25/4 3/26/4 4/2/4 35/27/4
f 1/28/3 5/29/3 16/30/3 17/31/3
f 16/32/5 21/33/5 18/34/5 20/35/5
f 16/36/1 20/37/1 19/38/1 17/39/1
f 16/30/3 5/29/3 6/5/3 21/40/3
f 17/41/2 19/42/2 47/43/2 22/44/2
f 21/45/6 22/46/6 47/47/6 18/48/6
f 21/40/3 6/5/3 2/3/3 22/49/3
f 1/28/3 17/31/3 22/49/3 2/3/3
f 5/50/2 7/51/2 23/52/2 24/53/2
f 28/54/6 29/55/6 44/56/6 25/57/6
f 23/52/2 7/51/2 8/24/2 28/58/2
f 23/59/3 28/60/3 25/61/3 27/62/3
f 24/63/4 26/64/4 44/65/4 29/66/4
f 23/67/1 27/68/1 26/69/1 24/70/1
f 5/50/2 24/53/2 29/71/2 6/5/2
f 6/5/2 29/71/2 28/58/2 8/24/2
f 31/72/4 36/73/4 8/24/4 7/74/4
f 31/75/5 33/76/5 45/77/5 36/78/5
f 7/74/4 3/26/4 30/25/4 31/72/4
f 30/79/1 34/80/1 33/81/1 31/82/1
f 30/83/2 35/84/2 32/85/2 34/86/2
f 35/87/6 36/88/6 45/89/6 32/90/6
f 35/27/4 4/2/4 8/24/4 36/73/4
f 38/91/5 3/92/5 1/93/5 37/94/5
f 37/95/4 42/96/4 39/97/4 41/98/4
f 1/93/5 2/3/5 42/99/5 37/94/5
f 37/100/1 41/101/1 40/102/1 38/103/1
f 42/104/6 43/105/6 46/106/6 39/107/6
f 38/108/3 40/109/3 46/110/3 43/111/3
f 43/112/5 42/99/5 2/3/5 4/2/5
f 3/92/5 38/91/5 43/112/5 4/2/5
f 40/113/5 41/114/5 39/115/5 46/116/5
f 33/117/4 34/118/4 32/119/4 45/120/4
f 26/121/2 27/122/2 25/123/2 44/124/2
f 19/125/3 20/126/3 18/127/3 47/128/3
f 7/129/6 5/130/6 1/131/6 3/132/6
f 12/133/1 13/134/1 11/135/1 48/136/1
