# Blender v3.0.0 OBJ File: ''
# www.blender.org
mtllib door_0_2obj.mtl
o ObjObject.008_ObjObject.002
v 0.053626 -0.056938 0.736972
v 0.053626 -0.056938 1.034272
v 0.271619 -0.056938 1.034272
v 0.271619 -0.056938 0.736972
v -0.080310 -0.291518 0.796061
v -0.080310 -0.115129 0.796061
v 0.053626 -0.115129 0.796061
v 0.053626 -0.291518 0.796061
v 0.053626 -0.115129 0.975182
v 0.053626 -0.291518 0.975182
v -0.080310 -0.115129 0.975182
v -0.080310 -0.291518 0.975182
v 0.053626 -0.349710 0.736972
v 0.053626 -0.349710 1.034271
v 0.271619 -0.349710 0.736972
v 0.271619 -0.349710 1.034271
v 0.148435 1.711498 1.172266
v 0.148435 -2.130533 1.172265
v 0.033072 -2.130533 1.172265
v 0.033072 1.711498 1.172266
v 0.148435 1.711499 -1.226003
v 0.148435 1.965090 -1.431694
v 0.148435 1.965089 1.377938
v 0.148435 -2.130533 -1.226004
v 0.148435 -2.130533 -1.431695
v 0.148435 -2.130533 1.377937
v 0.033072 -2.009885 1.055938
v 0.033072 -2.009884 -1.109696
v -0.080310 -2.009884 -1.109696
v -0.080310 -2.009885 1.055938
v 0.033072 1.711499 -1.226003
v 0.033072 -2.130533 -1.226004
v -0.065963 1.965089 1.377938
v -0.065963 -2.130533 1.377937
v -0.065963 -2.130533 -1.431695
v -0.065963 1.965090 -1.431694
v 0.033072 1.590869 1.055939
v 0.033072 1.590869 -1.109695
v -0.080310 1.590869 -1.109695
v -0.080310 1.590869 1.055939
vt 0.855639 0.807512
vt 0.915210 0.807626
vt 0.915126 0.851306
vt 0.855555 0.851192
vt 0.773108 0.898038
vt 0.773176 0.862694
vt 0.800013 0.862745
vt 0.799945 0.898089
vt 0.867501 0.795874
vt 0.903392 0.795943
vt 0.970556 0.898416
vt 0.970624 0.863072
vt 0.997461 0.863123
vt 0.997393 0.898467
vt 0.867126 0.992055
vt 0.867177 0.965218
vt 0.903068 0.965287
vt 0.903017 0.992124
vt 0.867552 0.769037
vt 0.903444 0.769106
vt 0.811875 0.851108
vt 0.811763 0.909772
vt 0.958694 0.910053
vt 0.958806 0.851389
vt 0.855359 0.953535
vt 0.914930 0.953649
vt 0.855443 0.909855
vt 0.915014 0.909969
vt 0.525007 0.836769
vt 0.036544 0.836768
vt 0.036544 0.822101
vt 0.525007 0.822101
vt 0.496587 0.369351
vt 0.496587 0.064442
vt 0.528828 0.038291
vt 0.528828 0.395500
vt 0.008099 0.064441
vt 0.008099 0.038290
vt 0.008122 0.369352
vt 0.008122 0.395500
vt 0.036544 0.962725
vt 0.311870 0.962725
vt 0.311870 0.977139
vt 0.036544 0.977140
vt 0.036544 0.869059
vt 0.525007 0.869059
vt 0.525007 0.883726
vt 0.036544 0.883727
vt 0.841943 0.819520
vt 0.537031 0.819520
vt 0.537031 0.804853
vt 0.841943 0.804853
vt 0.528828 0.422758
vt 0.008122 0.422758
vt 0.008100 0.011030
vt 0.528828 0.011032
vt 0.556086 0.038291
vt 0.556086 0.395500
vt 0.481239 0.745172
vt 0.481239 0.469840
vt 0.496576 0.455053
vt 0.496576 0.759961
vt 0.023440 0.469836
vt 0.008101 0.455049
vt 0.023438 0.745173
vt 0.008099 0.759962
vt 0.574676 0.043541
vt 0.998466 0.043541
vt 0.998466 0.748167
vt 0.574677 0.748167
vt 0.769683 0.930433
vt 0.494358 0.930433
vt 0.494358 0.916018
vt 0.769683 0.916018
vt 0.036544 0.930434
vt 0.036544 0.916018
vt 0.769683 0.962725
vt 0.769683 0.977141
vn 0.0000 1.0000 0.0000
vn 0.0000 0.0000 -1.0000
vn -1.0000 0.0000 0.0000
vn 0.0000 -0.0000 1.0000
vn 0.0000 -1.0000 -0.0000
vn 1.0000 0.0000 0.0000
usemtl Material.003
s off
f 1/1/1 2/2/1 3/3/1 4/4/1
f 5/5/2 6/6/2 7/7/2 8/8/2
f 7/9/3 9/10/3 2/2/3 1/1/3
f 10/11/4 9/12/4 11/13/4 12/14/4
f 5/15/5 8/16/5 10/17/5 12/18/5
f 7/9/1 6/19/1 11/20/1 9/10/1
f 8/8/3 7/7/3 1/21/3 13/22/3
f 9/12/3 10/11/3 14/23/3 2/24/3
f 10/17/3 8/16/3 13/25/3 14/26/3
f 15/27/6 4/4/6 3/3/6 16/28/6
f 13/22/2 1/21/2 4/4/2 15/27/2
f 2/24/4 14/23/4 16/28/4 3/3/4
f 14/26/5 13/25/5 15/27/5 16/28/5
s 1
f 17/29/2 18/30/2 19/31/2 20/32/2
f 17/33/6 21/34/6 22/35/6 23/36/6
f 21/34/6 24/37/6 25/38/6 22/35/6
f 18/39/6 17/33/6 23/36/6 26/40/6
f 27/41/1 28/42/1 29/43/1 30/44/1
f 24/45/4 21/46/4 31/47/4 32/48/4
f 21/49/5 17/50/5 20/51/5 31/52/5
f 26/40/4 23/36/4 33/53/4 34/54/4
f 22/35/2 25/38/2 35/55/2 36/56/2
f 23/36/1 22/35/1 36/57/1 33/58/1
f 37/59/6 38/60/6 31/61/6 20/62/6
f 38/60/6 28/63/6 32/64/6 31/61/6
f 28/63/6 27/65/6 19/66/6 32/64/6
f 27/65/6 37/59/6 20/62/6 19/66/6
f 30/67/6 29/68/6 39/69/6 40/70/6
f 38/71/5 37/72/5 40/73/5 39/74/5
f 37/72/2 27/75/2 30/76/2 40/73/2
f 28/42/4 38/77/4 39/78/4 29/43/4
