# Blender v3.0.0 OBJ File: ''
# www.blender.org
mtllib door_0_3_scaled.mtl
o ObjObject.009_ObjObject.003
v 0.107813 -0.415772 0.775195
v 0.107813 -0.142468 0.775195
v 0.241162 -0.005811 0.775195
v 0.241162 -0.552417 0.775195
v 0.241162 -0.552417 0.930469
v -0.014502 -0.552417 0.930469
v -0.014502 -0.552417 0.775195
v 0.107813 -0.415772 0.930469
v -0.014502 -0.415772 0.775195
v -0.014502 -0.415772 0.930469
v 0.107813 -0.142468 0.930469
v -0.014502 -0.142468 0.930469
v -0.014502 -0.142468 0.775195
v -0.014502 -0.005811 0.775195
v 0.241162 -0.005811 0.930469
v -0.014502 -0.005811 0.930469
v -0.014502 1.545691 0.821564
v -0.014502 0.069751 0.821564
v -0.083472 0.069751 0.821564
v -0.083472 1.545691 0.821564
v -0.014502 1.545691 -0.872987
v -0.083472 1.545691 -0.872987
v -0.014502 0.069751 -0.872987
v -0.083472 0.069751 -0.872987
v -0.014502 1.795386 1.074288
v -0.014502 -2.204615 1.074288
v -0.014502 1.795386 -1.125712
v -0.014502 -2.204614 -1.125712
v 0.111670 1.795386 1.074288
v 0.111670 -2.204615 1.074288
v 0.111670 1.795386 -1.125712
v 0.111670 -2.204614 -1.125712
v 0.111670 1.975134 1.255426
v 0.111670 1.975134 -1.306849
v -0.127930 1.975134 -1.306849
v -0.127930 1.975134 1.255426
v 0.111670 -2.204615 1.255425
v -0.127929 -2.204615 1.255425
v 0.111670 -2.204614 -1.306849
v -0.127929 -2.204614 -1.306849
vt 0.503255 0.333874
vt 0.539760 0.333874
vt 0.558013 0.351686
vt 0.485004 0.351686
vt 0.485004 0.372425
vt 0.450855 0.372425
vt 0.450855 0.351686
vt 0.471595 0.457052
vt 0.450855 0.457052
vt 0.450855 0.440715
vt 0.471595 0.440715
vt 0.485004 0.317537
vt 0.503255 0.317537
vt 0.450855 0.486790
vt 0.471595 0.486790
vt 0.471595 0.503127
vt 0.450855 0.503127
vt 0.539760 0.317537
vt 0.558013 0.317537
vt 0.539760 0.390237
vt 0.558013 0.372425
vt 0.558013 0.406574
vt 0.539760 0.406574
vt 0.592162 0.351686
vt 0.592162 0.372425
vt 0.503255 0.390237
vt 0.539760 0.410976
vt 0.503255 0.410976
vt 0.503255 0.406574
vt 0.485004 0.406574
vt 0.660851 0.741019
vt 0.660851 0.543882
vt 0.670063 0.543882
vt 0.670063 0.741019
vt 0.631112 0.514674
vt 0.631112 0.741019
vt 0.621900 0.741019
vt 0.621900 0.514674
vt 0.660850 0.317537
vt 0.670063 0.317537
vt 0.713191 0.952229
vt 0.713191 0.642566
vt 0.975372 0.642566
vt 0.975372 0.952229
vt 0.014869 0.634902
vt 0.549144 0.634902
vt 0.245361 0.668658
vt 0.048221 0.668658
vt 0.014869 0.928754
vt 0.048221 0.894998
vt 0.549144 0.928753
vt 0.245361 0.894998
vt 0.014869 0.975345
vt 0.014869 0.958492
vt 0.549145 0.958492
vt 0.549145 0.975345
vt 0.716654 0.317537
vt 0.716654 0.611389
vt 0.699801 0.611389
vt 0.699801 0.317537
vt 0.985131 0.270946
vt 0.985131 0.287799
vt 0.450855 0.287799
vt 0.450855 0.270946
vt 0.389113 0.046873
vt 0.046872 0.046872
vt 0.046872 0.014869
vt 0.389113 0.014869
vt 0.389112 0.605164
vt 0.421117 0.046873
vt 0.421117 0.605164
vt 0.071066 0.070881
vt 0.071065 0.605141
vt 0.046872 0.605140
vt 0.014869 0.605140
vt 0.014869 0.046872
vt 0.631112 0.317537
vt 0.621900 0.317537
vt 0.364919 0.070882
vt 0.364918 0.605164
vn -0.0000 0.0000 -1.0000
vn 0.0000 -1.0000 -0.0000
vn 0.0000 1.0000 0.0000
vn 0.0000 -0.0000 1.0000
vn -1.0000 0.0000 0.0000
vn 1.0000 0.0000 0.0000
usemtl Material.004
s 1
f 1/1/1 2/2/1 3/3/1 4/4/1
f 4/4/2 5/5/2 6/6/2 7/7/2
f 8/8/3 1/9/3 9/10/3 10/11/3
f 1/1/1 4/4/1 7/12/1 9/13/1
f 2/14/2 11/15/2 12/16/2 13/17/2
f 3/3/1 2/2/1 13/18/1 14/19/1
f 11/20/4 15/21/4 16/22/4 12/23/4
f 15/21/3 3/3/3 14/24/3 16/25/3
f 8/26/5 11/20/5 2/27/5 1/28/5
f 5/5/6 4/4/6 3/3/6 15/21/6
f 11/20/4 8/26/4 5/5/4 15/21/4
f 5/5/4 8/26/4 10/29/4 6/30/4
f 17/31/1 18/32/1 19/33/1 20/34/1
f 21/35/2 17/36/2 20/37/2 22/38/2
f 18/32/3 23/39/3 24/40/3 19/33/3
f 19/41/6 24/42/6 22/43/6 20/44/6
f 25/45/6 26/46/6 18/47/6 17/48/6
f 27/49/6 25/45/6 17/48/6 21/50/6
f 28/51/6 27/49/6 21/50/6 23/52/6
f 26/46/6 28/51/6 23/52/6 18/47/6
f 25/53/1 29/54/1 30/55/1 26/56/1
f 31/57/2 29/58/2 25/59/2 27/60/2
f 28/61/4 32/62/4 31/63/4 27/64/4
f 33/65/3 34/66/3 35/67/3 36/68/3
f 37/69/4 33/65/4 36/70/4 38/71/4
f 31/72/6 32/73/6 39/74/6 34/66/6
f 34/66/1 39/74/1 40/75/1 35/76/1
f 23/77/4 21/35/4 22/38/4 24/78/4
f 29/79/6 31/72/6 34/66/6 33/65/6
f 30/80/6 29/79/6 33/65/6 37/69/6
