# Blender v2.79 (sub 0) OBJ File: ''
# www.blender.org
mtllib grass_0.mtl
o Plane.001
v 0.000000 -0.122715 0.128688
v 0.000000 0.122715 0.128688
v 0.000000 0.122716 -0.148630
v 0.000000 -0.122715 -0.148630
v -0.138007 -0.122929 -0.000000
v 0.131505 -0.122929 -0.000000
v 0.131505 0.106769 0.000000
v -0.138007 0.106769 0.000000
vt 0.427487 0.017982
vt 0.427487 0.508127
vt 0.981316 0.508130
vt 0.981316 0.017982
vt 0.016430 0.526805
vt 0.554669 0.526805
vt 0.554669 0.985533
vt 0.016430 0.985533
vn -1.0000 0.0000 0.0000
vn 0.0000 -0.0000 1.0000
usemtl None
s 1
f 1/1/1 2/2/1 3/3/1 4/4/1
f 5/5/2 6/6/2 7/7/2 8/8/2
