# Blender v2.79 (sub 0) OBJ File: 'knight_0.blend'
# www.blender.org
mtllib knight_0.mtl
o Cylinder.002_Cylinder.048
v 0.340349 -0.420450 -0.892676
v 0.083089 1.214398 -0.448104
v -0.094275 -0.518556 -0.892676
v -0.371432 1.214398 -0.448104
v -0.094275 -0.518556 -0.458054
v 0.083089 1.214398 -0.902625
v 0.340349 -0.420450 -0.458054
v -0.371432 1.214398 -0.902625
v 0.306647 -0.301290 -0.458053
v -0.127977 -0.399396 -0.458054
v -0.127977 -0.399396 -0.892676
v 0.306647 -0.301290 -0.892676
v 0.335671 -0.294738 -0.921701
v -0.157001 -0.405948 -0.921701
v -0.157001 -0.405948 -0.429029
v 0.335671 -0.294738 -0.429029
v 0.306784 -0.182799 -0.429029
v -0.185889 -0.294009 -0.429029
v -0.185889 -0.294009 -0.921701
v 0.306784 -0.182799 -0.921701
v 0.287708 -0.187105 -0.902625
v -0.166813 -0.289703 -0.902625
v -0.166813 -0.289703 -0.448105
v 0.287708 -0.187105 -0.448105
v 0.083089 0.439991 -0.448105
v -0.371432 0.337393 -0.448104
v -0.371432 0.337393 -0.902625
v 0.083089 0.439991 -0.902625
v 0.204139 1.237161 0.345623
v 0.204139 1.928351 0.345635
v -0.487052 1.237161 0.345623
v -0.487052 1.928351 0.345635
v 0.204139 1.237174 -0.345568
v 0.204139 1.928363 -0.345555
v -0.487052 1.237174 -0.345568
v -0.487052 1.928363 -0.345555
v 0.204139 1.790113 0.345632
v -0.487052 1.790113 0.345632
v -0.487052 1.790125 -0.345557
v 0.204139 1.790125 -0.345558
v 0.083181 -1.873197 0.449244
v 0.083181 -0.421698 0.449271
v -0.366093 -1.873197 0.449244
v -0.366093 -0.421698 0.449271
v 0.083181 -1.873181 -0.449304
v 0.083181 -0.421681 -0.449277
v -0.366093 -1.873181 -0.449304
v -0.366093 -0.421681 -0.449277
v -0.366093 -1.873189 -0.000030
v -0.366093 -0.421690 -0.000003
v 0.083181 -1.873189 -0.000030
v 0.083181 -0.421690 -0.000003
v 0.094412 -0.421698 0.471734
v 0.094412 -0.089927 0.471740
v -0.377325 -0.421698 0.471734
v -0.377325 -0.089927 0.471740
v 0.094412 -0.421681 -0.471741
v 0.094412 -0.089909 -0.471735
v -0.377325 -0.421681 -0.471741
v -0.377325 -0.089909 -0.471735
v 0.083181 -0.089926 0.449277
v 0.083181 1.237159 0.449301
v -0.366093 -0.089926 0.449277
v -0.366093 1.237159 0.449301
v 0.083181 -0.089910 -0.449271
v 0.083181 1.237176 -0.449247
v -0.366093 -0.089910 -0.449271
v -0.366093 1.237176 -0.449247
v -0.366093 -1.510323 0.449250
v -0.366093 -1.510314 -0.000023
v 0.083181 -1.510306 -0.449297
v -0.366093 -1.510306 -0.449297
v 0.083181 -1.510323 0.449250
v 0.083181 -1.510314 -0.000023
v 0.340349 -0.420450 0.892676
v 0.083089 1.214398 0.448105
v -0.094275 -0.518557 0.892676
v -0.371432 1.214398 0.448105
v -0.094275 -0.518556 0.458053
v 0.083089 1.214398 0.902625
v 0.340349 -0.420450 0.458053
v -0.371432 1.214398 0.902625
v 0.306647 -0.301290 0.458053
v -0.127977 -0.399396 0.458053
v -0.127977 -0.399396 0.892676
v 0.306647 -0.301290 0.892676
v 0.335671 -0.294738 0.921701
v -0.157001 -0.405948 0.921701
v -0.157001 -0.405948 0.429029
v 0.335671 -0.294738 0.429029
v 0.306784 -0.182800 0.429029
v -0.185889 -0.294009 0.429029
v -0.185889 -0.294009 0.921701
v 0.306784 -0.182800 0.921701
v 0.287708 -0.187105 0.902625
v -0.166813 -0.289703 0.902625
v -0.166813 -0.289703 0.448105
v 0.287708 -0.187105 0.448105
v 0.083089 0.439991 0.448105
v -0.371431 0.337393 0.448105
v -0.371431 0.337393 0.902625
v 0.083089 0.439991 0.902625
vt 0.137209 0.234892
vt 0.249011 0.234892
vt 0.249011 0.300512
vt 0.122397 0.300512
vt 0.249012 0.427126
vt 0.314631 0.300512
vt 0.314631 0.427127
vt 0.441246 0.300512
vt 0.314631 0.234892
vt 0.426434 0.234892
vt 0.314631 0.123090
vt 0.249011 0.123090
vt 0.541331 0.836131
vt 0.604078 0.836131
vt 0.604078 0.854009
vt 0.541331 0.854009
vt 0.621930 0.853051
vt 0.621930 0.917377
vt 0.604078 0.918335
vt 0.523478 0.917377
vt 0.523478 0.853051
vt 0.541331 0.918335
vt 0.604078 0.936213
vt 0.541331 0.936213
vt 0.744618 0.338161
vt 0.817501 0.338161
vt 0.813335 0.342457
vt 0.749039 0.342457
vt 0.600606 0.338161
vt 0.673490 0.338161
vt 0.669068 0.342457
vt 0.604772 0.342457
vt 0.529478 0.338161
vt 0.596416 0.342457
vt 0.533669 0.342457
vt 0.740427 0.342457
vt 0.677680 0.342457
vt 0.600606 0.321471
vt 0.673490 0.321471
vt 0.744618 0.321471
vt 0.817501 0.321471
vt 0.529478 0.321471
vt 0.747355 0.318648
vt 0.814595 0.318648
vt 0.603512 0.318648
vt 0.670752 0.318648
vt 0.532233 0.318648
vt 0.597852 0.318648
vt 0.676244 0.318648
vt 0.741864 0.318648
vt 0.516968 0.205351
vt 0.531781 0.270971
vt 0.031862 0.270971
vt 0.046674 0.205351
vt 0.249011 0.027857
vt 0.314631 0.027857
vt 0.314632 0.522359
vt 0.249012 0.522359
vt 0.326837 0.881784
vt 0.306879 0.881784
vt 0.306880 0.981573
vt 0.326837 0.981573
vt 0.326837 0.582419
vt 0.306880 0.582419
vt 0.306879 0.682208
vt 0.326837 0.682208
vt 0.306879 0.781996
vt 0.326837 0.781996
vt 0.521433 0.456038
vt 0.521433 0.555826
vt 0.421644 0.555826
vt 0.421644 0.456038
vt 0.207091 0.781996
vt 0.207091 0.881784
vt 0.341814 0.555826
vt 0.341814 0.456038
vt 0.421644 0.655615
vt 0.341814 0.655614
vt 0.421644 0.755403
vt 0.341814 0.755403
vt 0.341813 0.356250
vt 0.421644 0.356250
vt 0.549243 0.025949
vt 0.549246 0.183115
vt 0.484384 0.183116
vt 0.484381 0.025950
vt 0.419521 0.183118
vt 0.354659 0.183119
vt 0.354656 0.025952
vt 0.419519 0.025951
vt 0.614109 0.183114
vt 0.614106 0.025948
vt 0.859720 0.525657
vt 0.859720 0.460794
vt 0.924582 0.460795
vt 0.924582 0.525657
vt 0.807331 0.525657
vt 0.807331 0.460795
vt 0.976971 0.460795
vt 0.924582 0.395932
vt 0.976971 0.395932
vt 0.976971 0.655382
vt 0.924582 0.655382
vt 0.924582 0.590519
vt 0.976971 0.590519
vt 0.859720 0.590519
vt 0.807331 0.590519
vt 0.976971 0.525657
vt 0.743830 0.025945
vt 0.743833 0.183111
vt 0.678971 0.183113
vt 0.678968 0.025946
vt 0.897629 0.092113
vt 0.849731 0.092113
vt 0.849731 0.024007
vt 0.897629 0.024008
vt 0.897629 0.432640
vt 0.849731 0.432640
vt 0.849731 0.296429
vt 0.897629 0.296430
vt 0.849731 0.228324
vt 0.897629 0.228324
vt 0.965734 0.092113
vt 0.965734 0.228324
vt 0.781625 0.228324
vt 0.781625 0.092113
vt 0.031933 0.681914
vt 0.223527 0.681914
vt 0.223527 0.746776
vt 0.031933 0.746776
vt 0.031933 0.357602
vt 0.223527 0.357602
vt 0.223527 0.487327
vt 0.031934 0.487327
vt 0.223527 0.552189
vt 0.031934 0.552189
vt 0.288389 0.552189
vt 0.288389 0.681914
vt 0.562990 0.769217
vt 0.548178 0.703598
vt 0.674792 0.703598
vt 0.674792 0.769218
vt 0.674793 0.576983
vt 0.740412 0.576983
vt 0.740412 0.703598
vt 0.867027 0.703598
vt 0.852215 0.769218
vt 0.740412 0.769218
vt 0.740412 0.881020
vt 0.674792 0.881020
vt 0.816721 0.836899
vt 0.816721 0.854777
vt 0.879468 0.854777
vt 0.879468 0.836899
vt 0.897321 0.853819
vt 0.879468 0.919103
vt 0.897321 0.918145
vt 0.798869 0.918145
vt 0.816721 0.919103
vt 0.798869 0.853819
vt 0.879468 0.936982
vt 0.816721 0.936982
vt 0.748524 0.391665
vt 0.752945 0.395960
vt 0.817241 0.395960
vt 0.821407 0.391665
vt 0.604513 0.391665
vt 0.608678 0.395960
vt 0.672974 0.395960
vt 0.677396 0.391665
vt 0.533385 0.391665
vt 0.537575 0.395960
vt 0.600322 0.395960
vt 0.681587 0.395960
vt 0.744334 0.395960
vt 0.604513 0.374974
vt 0.677396 0.374974
vt 0.748524 0.374974
vt 0.821407 0.374974
vt 0.533385 0.374974
vt 0.751261 0.372151
vt 0.818501 0.372151
vt 0.607418 0.372151
vt 0.674658 0.372151
vt 0.536139 0.372151
vt 0.601759 0.372151
vt 0.680150 0.372151
vt 0.745770 0.372151
vt 0.957562 0.733139
vt 0.942750 0.798759
vt 0.472455 0.798759
vt 0.457643 0.733139
vt 0.740412 0.976253
vt 0.674792 0.976253
vt 0.674793 0.481751
vt 0.740413 0.481751
vn 0.0000 -0.0000 1.0000
vn -1.0000 -0.0000 0.0000
vn 0.0000 0.0000 -1.0000
vn 1.0000 0.0000 -0.0000
vn 0.0000 1.0000 -0.0000
vn -0.9623 -0.2722 0.0000
vn 0.9623 0.2722 -0.0000
vn 0.2202 -0.9755 0.0000
vn 0.9683 0.2499 0.0000
vn -0.9683 -0.2499 -0.0000
vn -0.2202 0.9755 0.0000
vn 0.9507 0.3102 -0.0000
vn -0.9507 -0.3102 -0.0000
vn 0.0000 -1.0000 -0.0000
usemtl None
s off
f 25/1/1 2/2/1 4/3/1 26/4/1
f 26/5/2 4/3/2 8/6/2 27/7/2
f 27/8/3 8/6/3 6/9/3 28/10/3
f 28/11/4 6/9/4 2/2/4 25/12/4
f 8/6/5 4/3/5 2/2/5 6/9/5
f 10/13/6 11/14/6 3/15/6 5/16/6
f 11/17/3 12/18/3 1/19/3 3/15/3
f 9/20/1 10/21/1 5/16/1 7/22/1
f 12/23/7 9/24/7 7/22/7 1/19/7
f 16/25/8 15/26/8 10/27/8 9/28/8
f 14/29/8 13/30/8 12/31/8 11/32/8
f 15/33/8 14/29/8 11/34/8 10/35/8
f 13/30/8 16/25/8 9/36/8 12/37/8
f 19/38/3 20/39/3 13/30/3 14/29/3
f 17/40/1 18/41/1 15/26/1 16/25/1
f 20/39/9 17/40/9 16/25/9 13/30/9
f 18/42/10 19/38/10 14/29/10 15/33/10
f 24/43/11 23/44/11 18/41/11 17/40/11
f 22/45/11 21/46/11 20/39/11 19/38/11
f 23/47/11 22/48/11 19/38/11 18/42/11
f 21/49/11 24/50/11 17/40/11 20/39/11
f 27/8/3 28/10/3 21/51/3 22/52/3
f 25/1/1 26/4/1 23/53/1 24/54/1
f 28/11/12 25/12/12 24/55/12 21/56/12
f 26/5/13 27/7/13 22/57/13 23/58/13
f 7/22/8 5/16/8 3/15/8 1/19/8
f 37/59/1 30/60/1 32/61/1 38/62/1
f 38/63/2 32/64/2 36/65/2 39/66/2
f 39/66/3 36/65/3 34/67/3 40/68/3
f 40/68/4 34/67/4 30/60/4 37/59/4
f 31/69/14 35/70/14 33/71/14 29/72/14
f 36/73/5 32/74/5 30/60/5 34/67/5
f 33/71/4 40/75/4 37/76/4 29/72/4
f 35/77/3 39/78/3 40/75/3 33/71/3
f 31/79/2 38/80/2 39/78/2 35/77/2
f 29/72/1 37/76/1 38/81/1 31/82/1
f 46/83/3 71/84/3 72/85/3 48/86/3
f 70/87/2 69/88/2 44/89/2 50/90/2
f 72/85/2 70/87/2 50/90/2 48/86/2
f 74/91/4 71/84/4 46/83/4 52/92/4
f 49/93/14 47/94/14 45/95/14 51/96/14
f 49/93/2 70/97/2 72/98/2 47/94/2
f 71/99/3 45/95/3 47/100/3 72/101/3
f 69/102/1 43/103/1 41/104/1 73/105/1
f 43/106/2 69/107/2 70/97/2 49/93/2
f 45/95/4 71/99/4 74/108/4 51/96/4
f 43/106/14 49/93/14 51/96/14 41/104/14
f 44/109/1 69/110/1 73/111/1 42/112/1
f 53/113/1 54/114/1 56/115/1 55/116/1
f 55/117/2 56/118/2 60/119/2 59/120/2
f 59/120/3 60/119/3 58/121/3 57/122/3
f 57/122/4 58/121/4 54/114/4 53/113/4
f 55/123/14 59/124/14 57/122/14 53/113/14
f 60/125/5 56/126/5 54/114/5 58/121/5
f 61/127/1 62/128/1 64/129/1 63/130/1
f 63/131/2 64/132/2 68/133/2 67/134/2
f 67/134/3 68/133/3 66/135/3 65/136/3
f 65/136/4 66/135/4 62/128/4 61/127/4
f 68/137/5 64/138/5 62/128/5 66/135/5
f 73/105/4 41/104/4 51/96/4 74/108/4
f 42/112/4 73/111/4 74/91/4 52/92/4
f 99/139/3 100/140/3 78/141/3 76/142/3
f 100/143/2 101/144/2 82/145/2 78/141/2
f 101/146/1 102/147/1 80/148/1 82/145/1
f 102/149/4 99/150/4 76/142/4 80/148/4
f 82/145/5 80/148/5 76/142/5 78/141/5
f 84/151/6 79/152/6 77/153/6 85/154/6
f 85/155/1 77/153/1 75/156/1 86/157/1
f 83/158/3 81/159/3 79/152/3 84/160/3
f 86/161/7 75/156/7 81/159/7 83/162/7
f 90/163/8 83/164/8 84/165/8 89/166/8
f 88/167/8 85/168/8 86/169/8 87/170/8
f 89/171/8 84/172/8 85/173/8 88/167/8
f 87/170/8 86/174/8 83/175/8 90/163/8
f 93/176/1 88/167/1 87/170/1 94/177/1
f 91/178/3 90/163/3 89/166/3 92/179/3
f 94/177/9 87/170/9 90/163/9 91/178/9
f 92/180/10 89/171/10 88/167/10 93/176/10
f 98/181/11 91/178/11 92/179/11 97/182/11
f 96/183/11 93/176/11 94/177/11 95/184/11
f 97/185/11 92/180/11 93/176/11 96/186/11
f 95/187/11 94/177/11 91/178/11 98/188/11
f 101/146/1 96/189/1 95/190/1 102/147/1
f 99/139/3 98/191/3 97/192/3 100/140/3
f 102/149/12 95/193/12 98/194/12 99/150/12
f 100/143/13 97/195/13 96/196/13 101/144/13
f 81/159/8 75/156/8 77/153/8 79/152/8
