# Blender v2.83.0 OBJ File: 'SandStorm.blend'
# www.blender.org
mtllib Lamp1.mtl
o Cube.008
v 1.327850 1.155906 1.785309
v -1.618378 1.155906 1.785309
v -1.618378 1.155906 1.535309
v 1.327850 1.155906 1.535309
v 1.229858 -2.075051 1.062835
v 1.229858 -2.075050 -1.062897
v 0.979858 -2.075050 -1.062897
v 0.979858 -2.075051 1.062835
v 1.327850 1.155907 -1.785339
v 0.917603 -2.075050 -1.375122
v 0.917603 -2.075050 -1.125122
v 1.327850 1.155907 -1.535339
v 1.640076 1.155907 -1.473114
v 1.640076 1.155906 1.473053
v 1.390076 1.155906 1.473053
v 1.390076 1.155907 -1.473114
v 2.030182 1.315422 -2.175445
v 2.030182 1.315422 2.175446
v -0.145233 1.666145 -0.000030
v -2.320709 1.315422 2.175446
v -2.320709 1.315422 -2.175445
v 0.903412 2.341682 1.048676
v -1.193939 2.341682 1.048676
v 0.903412 2.341683 -1.048675
v -1.193939 2.341683 -1.048675
v 0.086151 -3.623100 0.214691
v 0.086151 -3.623100 -0.214631
v 2.287689 -3.623100 -0.214631
v 2.287689 -3.623100 0.214691
v -0.381805 -3.157707 0.214691
v -0.381805 -3.157707 -0.214631
v -0.304474 -3.527885 -0.214631
v -0.304474 -3.527885 0.214691
v 0.086151 -3.157707 0.214691
v 0.086151 -3.157707 -0.214631
v -0.381805 -2.382378 -0.214631
v 0.086151 -2.382378 -0.214631
v 0.086151 -2.382378 0.214691
v -0.381805 -2.382378 0.214691
v 2.287689 -3.157707 -0.214631
v 2.287689 -1.867775 -0.626618
v 2.287689 -3.958748 -0.626618
v 2.287689 -3.157707 0.214691
v 2.287689 -1.867775 0.626678
v 2.663788 -1.867775 0.626678
v 2.663788 -1.867775 -0.626618
v 2.287689 -3.958748 0.626678
v 2.663788 -3.958748 0.626678
v 2.663788 -3.958748 -0.626618
v -1.481354 -2.382378 1.336090
v -1.481354 -2.382377 -1.336090
v 1.190826 -2.382377 -1.336090
v 1.190826 -2.382378 1.336090
v 1.679108 1.463234 1.824311
v 0.917603 -2.075051 1.375091
v -1.969635 1.463234 1.824311
v -1.208130 -2.075051 1.375091
v -1.930603 1.155906 1.473053
v -1.520386 -2.075051 1.062835
v -1.969635 1.463234 -1.824371
v -1.930603 1.155907 -1.473114
v -1.520386 -2.075050 -1.062897
v -1.618378 1.155907 -1.785339
v -1.208130 -2.075050 -1.375122
v 1.679108 1.463234 -1.824371
v 0.917603 -2.075051 1.125091
v -1.208130 -2.075051 1.125091
v -1.208130 -2.075050 -1.125122
v -1.618378 1.155907 -1.535339
v -1.270386 -2.075051 1.062835
v -1.680603 1.155906 1.473053
v -1.680603 1.155907 -1.473114
v -1.270386 -2.075050 -1.062897
vt 0.887442 0.114682
vt 0.887442 0.114682
vt 0.887442 0.114682
vt 0.887442 0.114682
vt 0.909264 0.114770
vt 0.909264 0.114770
vt 0.909264 0.114770
vt 0.909264 0.114770
vt 0.909264 0.114770
vt 0.909264 0.114770
vt 0.909264 0.114770
vt 0.909264 0.114770
vt 0.909264 0.114770
vt 0.909264 0.114770
vt 0.909264 0.114770
vt 0.909264 0.114770
vt 0.700098 0.182394
vt 0.519615 0.182394
vt 0.609856 0.092153
vt 0.519614 0.001912
vt 0.700096 0.001909
vt 0.503133 0.198875
vt 0.566355 0.245615
vt 0.566355 0.332617
vt 0.503133 0.379358
vt 0.653357 0.245615
vt 0.716578 0.379358
vt 0.653357 0.332617
vt 0.716578 0.198877
vt 0.519615 0.395839
vt 0.700099 0.395841
vt 0.772611 0.444764
vt 0.772561 0.425433
vt 0.859572 0.425433
vt 0.859572 0.444764
vt 0.752102 0.444764
vt 0.752102 0.425433
vt 0.762022 0.425433
vt 0.762022 0.444764
vt 0.762493 0.465434
vt 0.761765 0.407142
vt 0.723487 0.425433
vt 0.723487 0.407142
vt 0.723487 0.465434
vt 0.723487 0.444764
vt 0.723487 0.388237
vt 0.762068 0.388237
vt 0.953281 0.034508
vt 0.934032 0.034508
vt 0.880674 0.017466
vt 0.967167 0.017467
vt 0.859572 0.465434
vt 0.859572 0.388237
vt 0.859572 0.407142
vt 0.880674 0.069309
vt 0.865117 0.069308
vt 0.865117 0.017466
vt 0.953282 0.052266
vt 0.967167 0.069309
vt 0.934032 0.052267
vt 0.967166 0.084865
vt 0.880674 0.084865
vt 0.880674 0.001909
vt 0.967166 0.001910
vt 0.982723 0.017467
vt 0.982723 0.069309
vt 0.975649 0.142021
vt 0.975649 0.252553
vt 0.865117 0.252553
vt 0.865116 0.142021
vt 0.930780 0.114682
vt 0.930780 0.114682
vt 0.930780 0.114682
vt 0.930780 0.114682
vt 0.930780 0.114682
vt 0.930780 0.114682
vt 0.930780 0.114682
vt 0.930780 0.114682
vt 0.930780 0.114682
vt 0.930780 0.114682
vt 0.930780 0.114682
vt 0.930780 0.114682
vt 0.930780 0.114682
vt 0.930780 0.114682
vt 0.930780 0.114682
vt 0.930780 0.114682
vt 0.930780 0.114682
vt 0.930780 0.114682
vt 0.930780 0.114682
vt 0.930780 0.114682
vt 0.930780 0.114682
vt 0.930780 0.114682
vt 0.930780 0.114682
vt 0.930780 0.114682
vt 0.858207 0.235584
vt 0.723488 0.252553
vt 0.723487 0.130686
vt 0.858207 0.147653
vt 0.723487 0.018878
vt 0.858208 0.001909
vt 0.858208 0.123777
vt 0.723488 0.106808
vt 0.909264 0.114770
vt 0.909264 0.114770
vt 0.909264 0.114770
vt 0.909264 0.114770
vt 0.887442 0.114682
vt 0.887442 0.114682
vt 0.887442 0.114682
vt 0.887442 0.114682
vt 0.887442 0.114682
vt 0.887442 0.114682
vt 0.887442 0.114682
vt 0.887442 0.114682
vt 0.999836 0.364359
vt 0.865116 0.381329
vt 0.865116 0.259462
vt 0.999836 0.276430
vt 0.858207 0.364360
vt 0.723487 0.381329
vt 0.723487 0.259462
vt 0.858207 0.276430
vt 0.909264 0.114770
vt 0.909264 0.114770
vt 0.909264 0.114770
vt 0.909264 0.114770
vt 0.909264 0.114770
vt 0.909264 0.114770
vt 0.909264 0.114770
vt 0.909264 0.114770
vt 0.887442 0.114682
vt 0.887442 0.114682
vt 0.887442 0.114682
vt 0.887442 0.114682
vt 0.887442 0.114682
vt 0.887442 0.114682
vt 0.887442 0.114682
vt 0.887442 0.114682
vn 0.0000 -1.0000 0.0000
vn 0.0000 1.0000 0.0000
vn -0.9920 0.1260 0.0000
vn -0.0801 -0.9936 0.0801
vn -0.0801 -0.9936 -0.0801
vn 0.0801 -0.9936 -0.0801
vn 0.0801 -0.9936 0.0801
vn 0.0000 0.7393 0.6734
vn 0.6734 0.7393 0.0000
vn 0.0000 0.7393 -0.6734
vn -0.6734 0.7393 0.0000
vn -0.1193 -0.9929 0.0000
vn -0.9947 -0.1028 0.0000
vn -0.7187 -0.6953 0.0000
vn 0.0000 -0.0000 1.0000
vn -0.0000 0.0000 -1.0000
vn -1.0000 0.0000 0.0000
vn 1.0000 0.0000 0.0000
vn 0.0000 -0.1259 0.9920
vn -0.9920 -0.1260 -0.0000
vn -0.0000 -0.1260 -0.9920
vn 0.9920 -0.1260 -0.0000
vn 0.0000 -0.1260 0.9920
vn 0.9920 0.1260 0.0000
vn 0.0000 0.1260 0.9920
vn 0.0000 0.1260 -0.9920
usemtl Material.007
s 1
f 1/1/1 2/2/1 3/3/1 4/4/1
f 5/5/2 6/6/2 7/7/2 8/8/2
f 9/9/3 10/10/3 11/11/3 12/12/3
f 13/13/1 14/14/1 15/15/1 16/16/1
f 17/17/4 18/18/5 19/19/1
f 20/20/6 21/21/7 19/19/1
f 21/21/7 17/17/4 19/19/1
f 18/22/8 22/23/8 23/24/8 20/25/8
f 17/17/9 24/26/9 22/23/9 18/18/9
f 21/27/10 25/28/10 24/26/10 17/29/10
f 20/30/11 23/24/11 25/28/11 21/31/11
f 18/18/5 20/20/6 19/19/1
f 26/32/12 27/33/12 28/34/1 29/35/1
f 30/36/13 31/37/13 32/38/14 33/39/14
f 33/39/14 32/38/14 27/33/12 26/32/12
f 22/23/2 24/26/2 25/28/2 23/24/2
f 34/40/15 30/36/15 33/39/15 26/32/15
f 31/37/16 35/41/16 27/33/16 32/38/16
f 36/42/16 37/43/16 35/41/16 31/37/16
f 38/44/15 39/45/15 30/36/15 34/40/15
f 39/45/17 36/42/17 31/37/13 30/36/13
f 37/43/18 38/46/18 34/47/18 35/41/18
f 28/48/17 40/49/17 41/50/17 42/51/17
f 34/40/15 26/32/15 29/35/15 43/52/15
f 35/41/2 34/47/2 43/53/2 40/54/2
f 27/33/16 35/41/16 40/54/16 28/34/16
f 41/50/2 44/55/2 45/56/2 46/57/2
f 29/58/17 28/48/17 42/51/17 47/59/17
f 40/49/17 43/60/17 44/55/17 41/50/17
f 43/60/17 29/58/17 47/59/17 44/55/17
f 44/55/15 47/59/15 48/61/15 45/62/15
f 42/51/16 41/50/16 46/63/16 49/64/16
f 47/59/1 42/51/1 49/65/1 48/66/1
f 50/67/1 51/68/1 52/69/1 53/70/1
f 53/71/19 54/72/19 1/73/19 55/74/19
f 54/72/19 56/75/19 2/76/19 1/73/19
f 56/75/19 50/77/19 57/78/19 2/76/19
f 50/77/19 53/71/19 55/74/19 57/78/19
f 50/77/20 56/75/20 58/79/20 59/80/20
f 56/75/20 60/81/20 61/82/20 58/79/20
f 60/81/20 51/83/20 62/84/20 61/82/20
f 51/83/20 50/77/20 59/80/20 62/84/20
f 51/83/21 60/81/21 63/85/21 64/86/21
f 60/81/21 65/87/21 9/88/21 63/85/21
f 65/87/21 52/89/21 10/90/21 9/88/21
f 52/89/21 51/83/21 64/86/21 10/90/21
f 52/89/22 65/87/22 13/91/22 6/92/22
f 65/87/22 54/72/22 14/93/22 13/91/22
f 54/72/22 53/71/22 5/94/22 14/93/22
f 53/71/22 52/89/22 6/92/22 5/94/22
f 66/95/23 4/96/23 3/97/23 67/98/23
f 68/99/21 69/100/21 12/101/21 11/102/21
f 64/103/24 63/104/24 69/105/24 68/106/24
f 57/107/2 55/108/2 66/109/2 67/110/2
f 10/111/2 64/112/2 68/113/2 11/114/2
f 2/2/24 57/107/24 67/110/24 3/3/24
f 63/104/1 9/9/1 12/12/1 69/105/1
f 55/108/3 1/1/3 4/4/3 66/109/3
f 70/115/20 71/116/20 72/117/20 73/118/20
f 7/119/22 16/120/22 15/121/22 8/122/22
f 61/123/25 62/124/25 73/125/25 72/126/25
f 58/127/1 61/123/1 72/126/1 71/128/1
f 59/129/26 58/127/26 71/128/26 70/130/26
f 14/131/26 5/132/26 8/133/26 15/134/26
f 6/6/25 13/13/25 16/16/25 7/7/25
f 62/135/2 59/136/2 70/137/2 73/138/2
