# Blender v2.83.0 OBJ File: 'SandStorm.blend'
# www.blender.org
mtllib Lamp3.mtl
o Cube.006
v 0.260906 -2.639686 -3.823945
v 0.260906 1.404320 -3.823883
v 0.260906 1.404320 -3.420349
v 0.260906 -2.639686 -3.420411
v -0.242359 1.404320 -3.420349
v -0.242359 -2.639686 -3.420411
v -0.242359 1.404320 -3.823883
v -0.242359 -2.639686 -3.823945
v 0.148937 0.686867 0.811218
v 0.148937 1.270912 0.811218
v -0.130329 1.270912 0.811218
v -0.130329 0.686867 0.811218
v 0.148907 1.270913 -3.420410
v -0.130360 1.270913 -3.420410
v 0.148907 0.686867 -3.420410
v -0.130360 0.686867 -3.420410
v 2.102581 -0.155128 -0.616791
v 1.212933 -0.155128 -1.506531
v -0.002644 0.735710 0.598633
v -1.217857 -0.155128 -1.506500
v -2.107506 -0.155128 -0.616760
v -0.054707 -0.991615 -3.684693
v -0.054707 -1.253608 -3.440125
v -0.054676 0.814125 -1.225403
v -0.054676 1.076119 -1.470001
v 0.073101 -1.253608 -3.440125
v 0.073101 0.814125 -1.225403
v 0.073101 -0.991615 -3.684693
v 0.073101 1.076119 -1.470001
v -0.002552 -0.155128 -1.832153
v -2.107506 -0.155129 1.814056
v -1.217857 -0.155129 2.703796
v 2.428295 -0.155129 0.598633
v -2.433342 -0.155129 0.598633
v -0.002522 -0.155129 3.029449
v 1.212963 -0.155129 2.703766
v 2.102612 -0.155129 1.814026
v -1.346092 -0.712730 -1.728607
v -2.329582 -0.712730 -0.744995
v 2.324688 -0.712731 1.942261
v 2.684765 -0.712731 0.598633
v 2.324657 -0.712730 -0.745026
v 1.341167 -0.712730 -1.728638
v -1.346092 -0.712731 2.925903
v -0.002522 -0.712731 3.285950
v -2.689812 -0.712731 0.598633
v -0.002552 -0.712730 -2.088623
v 1.341198 -0.712731 2.925903
v -2.329582 -0.712731 1.942291
v 2.102581 -0.155128 -0.616791
v -0.002644 0.735710 0.598633
v 1.212933 -0.155128 -1.506531
v -1.217857 -0.155128 -1.506500
v -2.107506 -0.155128 -0.616760
v -0.002552 -0.155128 -1.832153
v -2.107506 -0.155129 1.814056
v -1.217857 -0.155129 2.703796
v 2.428295 -0.155129 0.598633
v -2.433342 -0.155129 0.598633
v -0.002522 -0.155129 3.029449
v 1.212963 -0.155129 2.703766
v 2.102612 -0.155129 1.814026
v -2.329582 -0.712730 -0.744995
v -1.346092 -0.712730 -1.728607
v 2.684765 -0.712731 0.598633
v 2.324688 -0.712731 1.942261
v 1.341167 -0.712730 -1.728638
v 2.324657 -0.712730 -0.745026
v -0.002522 -0.712731 3.285950
v -1.346092 -0.712731 2.925903
v -2.689812 -0.712731 0.598633
v -0.002552 -0.712730 -2.088623
v 1.341198 -0.712731 2.925903
v -2.329582 -0.712731 1.942291
v 0.417980 -0.596245 0.599457
v 0.592083 -0.010948 0.599457
v 0.417980 -0.010948 1.019409
v 0.295208 -0.596245 0.896423
v -0.001820 -0.771111 0.599487
v 0.417980 0.574348 0.599457
v 0.295208 0.574348 0.896423
v -0.001820 -0.596245 1.019409
v -0.001820 0.574348 1.019409
v -0.001820 -0.010948 1.193359
v -0.298847 -0.596245 0.896423
v -0.298847 0.574348 0.896423
v -0.421894 -0.010948 1.019409
v -0.595722 -0.010948 0.599487
v -0.421894 -0.596245 0.599487
v -0.421894 0.574348 0.599487
v -0.421894 -0.010948 0.179504
v -0.298847 -0.596245 0.302490
v -0.298847 0.574348 0.302490
v -0.001820 -0.010948 0.005554
v -0.001820 -0.596245 0.179504
v -0.001820 0.574348 0.179504
v 0.417980 -0.010948 0.179504
v 0.295208 -0.596245 0.302490
v 0.295208 0.574348 0.302490
vt 0.256290 0.809944
vt 0.104090 0.809944
vt 0.104090 0.794756
vt 0.256290 0.794757
vt 0.104090 0.775816
vt 0.256290 0.775816
vt 0.104090 0.760628
vt 0.256290 0.760628
vt 0.271477 0.794756
vt 0.271477 0.775816
vt 0.088902 0.794756
vt 0.088902 0.775816
vt 0.056523 0.919889
vt 0.056523 0.941870
vt 0.046013 0.941870
vt 0.046013 0.919889
vt 0.013522 0.760628
vt 0.024031 0.760628
vt 0.024031 0.919888
vt 0.013522 0.919888
vt 0.056523 0.760628
vt 0.078504 0.760628
vt 0.078504 0.919889
vt 0.046013 0.760628
vt 0.371522 0.718556
vt 0.325988 0.707972
vt 0.370857 0.628657
vt 0.280028 0.629872
vt 0.292147 0.584118
vt 0.212164 0.834382
vt 0.212164 0.847872
vt 0.098131 0.847870
vt 0.098131 0.834381
vt 0.212164 0.852682
vt 0.098131 0.852679
vt 0.212164 0.829571
vt 0.098130 0.829571
vt 0.212164 0.866171
vt 0.098130 0.866169
vt 0.292882 0.675076
vt 0.370357 0.538375
vt 0.416041 0.550014
vt 0.416946 0.707149
vt 0.324474 0.549600
vt 0.449524 0.582529
vt 0.461313 0.627629
vt 0.449012 0.672933
vt 0.254147 0.631053
vt 0.268562 0.571005
vt 0.472263 0.685946
vt 0.429511 0.728554
vt 0.371734 0.744856
vt 0.314058 0.729348
vt 0.429339 0.528242
vt 0.470530 0.570290
vt 0.311804 0.527901
vt 0.271539 0.688684
vt 0.486731 0.626788
vt 0.370460 0.511546
vt 0.079147 0.551170
vt 0.126222 0.627759
vt 0.046141 0.584273
vt 0.048551 0.674860
vt 0.083076 0.707240
vt 0.035498 0.629714
vt 0.173643 0.704586
vt 0.206215 0.670506
vt 0.123714 0.536768
vt 0.128783 0.719381
vt 0.217379 0.625188
vt 0.203476 0.580697
vt 0.169038 0.548794
vt 0.070023 0.730860
vt 0.025979 0.687575
vt 0.123025 0.511959
vt 0.181859 0.525437
vt 0.024696 0.572467
vt 0.065391 0.528751
vt 0.241680 0.624436
vt 0.229033 0.681923
vt 0.129537 0.744498
vt 0.010188 0.629485
vt 0.225480 0.567939
vt 0.187947 0.727285
vt 0.346806 0.843138
vt 0.325107 0.843138
vt 0.325107 0.829389
vt 0.346806 0.829389
vt 0.247085 0.844865
vt 0.240754 0.829576
vt 0.253418 0.829571
vt 0.303408 0.843138
vt 0.303408 0.829389
vt 0.262379 0.838532
vt 0.303408 0.815638
vt 0.325107 0.815638
vt 0.346806 0.815638
vt 0.262379 0.851204
vt 0.303408 0.801884
vt 0.325107 0.801884
vt 0.346806 0.801884
vt 0.325107 0.788133
vt 0.346806 0.788133
vt 0.253420 0.860163
vt 0.303408 0.788133
vt 0.325107 0.774382
vt 0.346806 0.774382
vt 0.240750 0.860160
vt 0.303408 0.774382
vt 0.325107 0.760628
vt 0.346806 0.760628
vt 0.231791 0.851198
vt 0.303408 0.760628
vt 0.346806 0.870639
vt 0.325107 0.870639
vt 0.325107 0.856888
vt 0.346806 0.856888
vt 0.231791 0.838527
vt 0.303408 0.870639
vt 0.303408 0.856888
vn 1.0000 0.0000 0.0000
vn 0.0000 -0.0000 1.0000
vn -1.0000 0.0000 0.0000
vn 0.0000 -1.0000 -0.0000
vn 0.0000 1.0000 0.0000
vn 0.2980 0.9389 -0.1720
vn 0.1720 0.9389 -0.2980
vn -0.1721 0.9389 -0.2980
vn -0.2980 0.9389 -0.1721
vn 0.0000 -0.7309 0.6824
vn 0.0000 0.7309 -0.6824
vn -0.0000 0.9389 -0.3441
vn -0.2980 0.9389 0.1721
vn -0.1721 0.9389 0.2980
vn 0.3441 0.9389 -0.0000
vn -0.3441 0.9389 -0.0000
vn 0.0000 0.9389 0.3441
vn 0.1721 0.9389 0.2980
vn 0.2980 0.9389 0.1720
vn -0.7868 0.4178 -0.4543
vn -0.4543 0.4179 -0.7868
vn 0.9085 0.4179 -0.0000
vn 0.7868 0.4179 0.4542
vn 0.4543 0.4179 -0.7868
vn 0.7868 0.4178 -0.4542
vn 0.7868 0.4178 -0.4543
vn -0.0000 0.4179 0.9085
vn -0.4543 0.4179 0.7868
vn -0.9085 0.4179 -0.0000
vn -0.0000 0.4179 -0.9085
vn 0.4543 0.4179 0.7868
vn -0.7868 0.4178 0.4543
vn -0.2980 -0.9389 0.1720
vn -0.1720 -0.9389 0.2980
vn 0.1721 -0.9389 0.2980
vn 0.2980 -0.9389 0.1721
vn 0.0000 -0.9389 0.3441
vn 0.2980 -0.9389 -0.1721
vn 0.1721 -0.9389 -0.2980
vn -0.3441 -0.9389 0.0000
vn 0.3441 -0.9389 0.0000
vn -0.0000 -0.9389 -0.3441
vn -0.1721 -0.9389 -0.2980
vn -0.2980 -0.9389 -0.1720
vn 0.7868 -0.4178 0.4543
vn 0.4543 -0.4179 0.7868
vn -0.9085 -0.4179 0.0000
vn -0.7868 -0.4179 -0.4542
vn -0.4543 -0.4179 0.7868
vn -0.7868 -0.4178 0.4543
vn -0.7868 -0.4178 0.4542
vn 0.0000 -0.4179 -0.9085
vn 0.4543 -0.4179 -0.7868
vn 0.9085 -0.4179 0.0000
vn 0.0000 -0.4179 0.9085
vn -0.4543 -0.4179 -0.7868
vn 0.7868 -0.4178 -0.4543
vn 0.7842 -0.6205 -0.0000
vn 0.7071 -0.0000 0.7071
vn 0.5546 -0.6204 0.5545
vn 0.0001 -1.0000 0.0000
vn 0.9586 0.2848 0.0000
vn 0.6779 0.2848 0.6777
vn 0.0000 -0.6205 0.7842
vn 0.0001 0.2848 0.9586
vn 0.0001 -0.0000 1.0000
vn -0.5545 -0.6205 0.5545
vn -0.6778 0.2849 0.6778
vn -0.7071 -0.0000 0.7071
vn -0.7842 -0.6205 0.0000
vn -0.9586 0.2848 0.0000
vn -0.7071 0.0000 -0.7071
vn -0.5545 -0.6205 -0.5545
vn -0.6778 0.2849 -0.6778
vn 0.0001 0.0000 -1.0000
vn 0.0000 -0.6205 -0.7842
vn 0.0001 0.2848 -0.9586
vn 0.7071 0.0000 -0.7071
vn 0.5546 -0.6204 -0.5545
vn 0.6779 0.2848 -0.6777
usemtl Material.007
s 1
f 1/1/1 2/2/1 3/3/1 4/4/1
f 4/4/2 3/3/2 5/5/2 6/6/2
f 6/6/3 5/5/3 7/7/3 8/8/3
f 1/9/4 4/4/4 6/6/4 8/10/4
f 3/3/5 2/11/5 7/12/5 5/5/5
f 9/13/2 10/14/2 11/15/2 12/16/2
f 13/17/5 14/18/5 11/19/5 10/20/5
f 15/21/1 13/22/1 10/23/1 9/13/1
f 14/18/3 16/24/3 12/16/3 11/19/3
f 16/24/4 15/21/4 9/13/4 12/16/4
f 17/25/6 18/26/7 19/27/5
f 20/28/8 21/29/9 19/27/5
f 22/30/3 23/31/3 24/32/3 25/33/3
f 23/31/10 26/34/10 27/35/10 24/32/10
f 28/36/11 22/30/11 25/33/11 29/37/11
f 26/34/1 28/38/1 29/39/1 27/35/1
f 30/40/12 20/28/8 19/27/5
f 31/41/13 32/42/14 19/27/5
f 33/43/15 17/25/6 19/27/5
f 34/44/16 31/41/13 19/27/5
f 21/29/9 34/44/16 19/27/5
f 35/45/17 36/46/18 19/27/5
f 37/47/19 33/43/15 19/27/5
f 18/26/7 30/40/12 19/27/5
f 32/42/14 35/45/17 19/27/5
f 36/46/18 37/47/19 19/27/5
f 21/29/20 20/28/21 38/48/21 39/49/20
f 33/43/22 37/47/23 40/50/23 41/51/22
f 18/26/24 17/25/25 42/52/26 43/53/24
f 35/45/27 32/42/28 44/54/28 45/55/27
f 34/44/29 21/29/20 39/49/20 46/56/29
f 30/40/30 18/26/24 43/53/24 47/57/30
f 36/46/31 35/45/27 45/55/27 48/58/31
f 31/41/32 34/44/29 46/56/29 49/59/32
f 20/28/21 30/40/30 47/57/30 38/48/21
f 37/47/23 36/46/31 48/58/31 40/50/23
f 17/25/25 33/43/22 41/51/22 42/52/26
f 32/42/28 31/41/32 49/59/32 44/54/28
f 50/60/33 51/61/4 52/62/34
f 53/63/35 51/61/4 54/64/36
f 55/65/37 51/61/4 53/63/35
f 56/66/38 51/61/4 57/67/39
f 58/68/40 51/61/4 50/60/33
f 59/69/41 51/61/4 56/66/38
f 54/64/36 51/61/4 59/69/41
f 60/70/42 51/61/4 61/71/43
f 62/72/44 51/61/4 58/68/40
f 52/62/34 51/61/4 55/65/37
f 57/67/39 51/61/4 60/70/42
f 61/71/43 51/61/4 62/72/44
f 54/64/45 63/73/45 64/74/46 53/63/46
f 58/68/47 65/75/47 66/76/48 62/72/48
f 52/62/49 67/77/49 68/78/50 50/60/51
f 60/70/52 69/79/52 70/80/53 57/67/53
f 59/69/54 71/81/54 63/73/45 54/64/45
f 55/65/55 72/82/55 67/77/49 52/62/49
f 61/71/56 73/83/56 69/79/52 60/70/52
f 56/66/57 74/84/57 71/81/54 59/69/54
f 53/63/46 64/74/46 72/82/55 55/65/55
f 62/72/48 66/76/48 73/83/56 61/71/56
f 50/60/51 68/78/50 65/75/47 58/68/47
f 57/67/53 70/80/53 74/84/57 56/66/57
f 75/85/58 76/86/1 77/87/59 78/88/60
f 79/89/61 75/90/58 78/91/60
f 76/86/1 80/92/62 81/93/63 77/87/59
f 79/89/61 78/91/60 82/94/64
f 77/87/59 81/93/63 83/95/65 84/96/66
f 78/88/60 77/87/59 84/96/66 82/97/64
f 79/89/61 82/94/64 85/98/67
f 84/96/66 83/95/65 86/99/68 87/100/69
f 82/97/64 84/96/66 87/100/69 85/101/67
f 85/101/67 87/100/69 88/102/3 89/103/70
f 79/89/61 85/98/67 89/104/70
f 87/100/69 86/99/68 90/105/71 88/102/3
f 89/103/70 88/102/3 91/106/72 92/107/73
f 79/89/61 89/104/70 92/108/73
f 88/102/3 90/105/71 93/109/74 91/106/72
f 92/107/73 91/106/72 94/110/75 95/111/76
f 79/89/61 92/108/73 95/112/76
f 91/106/72 93/109/74 96/113/77 94/110/75
f 95/114/76 94/115/75 97/116/78 98/117/79
f 79/89/61 95/112/76 98/118/79
f 94/115/75 96/119/77 99/120/80 97/116/78
f 98/117/79 97/116/78 76/86/1 75/85/58
f 79/89/61 98/118/79 75/90/58
f 97/116/78 99/120/80 80/92/62 76/86/1
