# Blender v2.79 (sub 0) OBJ File: 'ord_0.blend'
# www.blender.org
mtllib ord_0.mtl
o Plane.001
v -1.400000 -1.400000 0.000000
v 1.400000 -1.400000 0.000000
v -1.400000 1.400000 -0.000000
v 1.400000 1.400000 -0.000000
v -1.400000 0.000000 1.400000
v 1.400000 0.000000 1.400000
v -1.400000 0.000000 -1.400000
v 1.400000 -0.000000 -1.400000
v 0.000000 0.923880 -0.382683
v -0.000000 0.707107 -0.707107
v -0.000000 0.382683 -0.923880
v -0.000000 -0.000000 -1.000000
v -0.000000 -0.382684 -0.923880
v 0.000000 -0.707107 -0.707107
v -0.000000 -0.923880 -0.382684
v 0.000000 -1.000000 -0.000000
v -0.000000 1.000000 -0.000000
v 0.146447 0.923880 -0.353553
v 0.270598 0.707107 -0.653282
v 0.353553 0.382683 -0.853553
v 0.382683 -0.000000 -0.923880
v 0.353553 -0.382684 -0.853553
v 0.270598 -0.707107 -0.653281
v 0.146447 -0.923880 -0.353553
v 0.270598 0.923880 -0.270598
v 0.500000 0.707107 -0.500000
v 0.653281 0.382683 -0.653281
v 0.707107 -0.000000 -0.707107
v 0.653281 -0.382684 -0.653282
v 0.500000 -0.707107 -0.500000
v 0.270598 -0.923880 -0.270598
v 0.353553 0.923880 -0.146447
v 0.653281 0.707107 -0.270598
v 0.853553 0.382683 -0.353553
v 0.923879 -0.000000 -0.382683
v 0.853553 -0.382684 -0.353553
v 0.653281 -0.707107 -0.270598
v 0.353553 -0.923880 -0.146447
v 0.382683 0.923880 -0.000000
v 0.707107 0.707107 -0.000000
v 0.923879 0.382683 -0.000000
v 1.000000 -0.000000 -0.000000
v 0.923879 -0.382684 -0.000000
v 0.707107 -0.707107 -0.000000
v 0.382683 -0.923880 -0.000000
v 0.353553 0.923880 0.146446
v 0.653281 0.707107 0.270598
v 0.853553 0.382683 0.353553
v 0.923879 -0.000000 0.382683
v 0.853553 -0.382684 0.353553
v 0.653281 -0.707107 0.270598
v 0.353553 -0.923880 0.146446
v 0.270598 0.923880 0.270598
v 0.500000 0.707107 0.500000
v 0.653281 0.382683 0.653281
v 0.707106 -0.000000 0.707107
v 0.653281 -0.382684 0.653281
v 0.500000 -0.707107 0.500000
v 0.270598 -0.923880 0.270598
v 0.146446 0.923880 0.353553
v 0.270598 0.707107 0.653281
v 0.353553 0.382683 0.853553
v 0.382683 -0.000000 0.923879
v 0.353553 -0.382684 0.853553
v 0.270598 -0.707107 0.653281
v 0.146446 -0.923880 0.353553
v -0.000000 0.923880 0.382683
v -0.000000 0.707107 0.707106
v -0.000000 0.382683 0.923879
v -0.000000 -0.000000 1.000000
v -0.000000 -0.382684 0.923879
v -0.000000 -0.707107 0.707106
v -0.000000 -0.923880 0.382683
v -0.146447 0.923880 0.353553
v -0.270598 0.707107 0.653281
v -0.353554 0.382683 0.853553
v -0.382684 -0.000000 0.923879
v -0.353554 -0.382684 0.853553
v -0.270598 -0.707107 0.653281
v -0.146447 -0.923880 0.353553
v -0.270598 0.923880 0.270598
v -0.500000 0.707107 0.499999
v -0.653282 0.382683 0.653281
v -0.707107 -0.000000 0.707106
v -0.653282 -0.382684 0.653281
v -0.500000 -0.707107 0.499999
v -0.270598 -0.923880 0.270598
v -0.353553 0.923880 0.146446
v -0.653281 0.707107 0.270597
v -0.853553 0.382683 0.353553
v -0.923879 -0.000000 0.382683
v -0.853553 -0.382683 0.353553
v -0.653281 -0.707107 0.270597
v -0.353553 -0.923880 0.146446
v -0.382683 0.923880 -0.000000
v -0.707106 0.707107 -0.000000
v -0.923879 0.382683 -0.000001
v -1.000000 -0.000000 -0.000001
v -0.923879 -0.382684 -0.000001
v -0.707106 -0.707107 -0.000000
v -0.382683 -0.923880 -0.000000
v -0.353553 0.923880 -0.146447
v -0.653281 0.707107 -0.270598
v -0.853553 0.382683 -0.353554
v -0.923879 -0.000000 -0.382684
v -0.853553 -0.382684 -0.353554
v -0.653281 -0.707107 -0.270598
v -0.353553 -0.923880 -0.146447
v -0.270598 0.923880 -0.270598
v -0.499999 0.707107 -0.500000
v -0.653281 0.382683 -0.653282
v -0.707106 -0.000000 -0.707107
v -0.653281 -0.382684 -0.653282
v -0.499999 -0.707107 -0.500000
v -0.270598 -0.923880 -0.270598
v -0.146446 0.923880 -0.353553
v -0.270598 0.707107 -0.653281
v -0.353553 0.382683 -0.853553
v -0.382683 -0.000000 -0.923880
v -0.353553 -0.382684 -0.853553
v -0.270598 -0.707107 -0.653281
v -0.146446 -0.923880 -0.353553
v -0.000000 -1.400000 -1.400000
v -0.000000 -1.400000 1.400000
v 0.000000 1.400000 -1.400000
v 0.000000 1.400000 1.400000
vt 0.377937 0.347752
vt 0.377937 0.022673
vt 0.703016 0.022673
vt 0.703016 0.347752
vt 0.023424 0.377187
vt 0.348502 0.377187
vt 0.348502 0.702266
vt 0.023424 0.702266
vt 0.804355 0.766224
vt 0.810789 0.732310
vt 0.835248 0.741836
vt 0.816326 0.770706
vt 0.819403 0.692176
vt 0.830999 0.638030
vt 0.890000 0.662476
vt 0.858565 0.708054
vt 0.567385 0.437484
vt 0.558772 0.477619
vt 0.532529 0.478180
vt 0.525127 0.437805
vt 0.552338 0.511533
vt 0.547057 0.543866
vt 0.539563 0.511973
vt 0.799075 0.798557
vt 0.578982 0.383339
vt 0.515117 0.383350
vt 0.825671 0.779428
vt 0.888668 0.737711
vt 0.854200 0.759998
vt 0.486209 0.454273
vt 0.456125 0.407797
vt 0.527929 0.517269
vt 0.508498 0.488740
vt 0.935150 0.707634
vt 0.456557 0.484379
vt 0.410980 0.452953
vt 0.519207 0.526614
vt 0.490338 0.507693
vt 0.864759 0.784029
vt 0.830966 0.791062
vt 0.959581 0.766628
vt 0.905131 0.776629
vt 0.865318 0.810271
vt 0.831407 0.803837
vt 0.959581 0.830478
vt 0.905449 0.818883
vt 0.480813 0.532152
vt 0.440682 0.523540
vt 0.514725 0.538586
vt 0.386550 0.511945
vt 0.481373 0.558395
vt 0.441000 0.565794
vt 0.515165 0.551361
vt 0.826925 0.815809
vt 0.889575 0.858044
vt 0.855793 0.834730
vt 0.386550 0.575795
vt 0.935151 0.889470
vt 0.818203 0.825154
vt 0.859923 0.888150
vt 0.837633 0.853683
vt 0.457463 0.604712
vt 0.410982 0.634789
vt 0.520461 0.562995
vt 0.491932 0.582425
vt 0.890006 0.934626
vt 0.529805 0.571717
vt 0.510883 0.600587
vt 0.813603 0.864243
vt 0.806569 0.830450
vt 0.831014 0.959074
vt 0.821005 0.904618
vt 0.487567 0.634369
vt 0.456131 0.679947
vt 0.787360 0.864804
vt 0.793794 0.830890
vt 0.767149 0.959084
vt 0.778746 0.904939
vt 0.535342 0.610113
vt 0.526729 0.650248
vt 0.541776 0.576199
vt 0.515132 0.704393
vt 0.554551 0.575759
vt 0.781823 0.826409
vt 0.739584 0.889060
vt 0.762901 0.855278
vt 0.568988 0.649927
vt 0.578997 0.704382
vt 0.561585 0.609552
vt 0.708149 0.934638
vt 0.709481 0.859403
vt 0.743949 0.837116
vt 0.607905 0.633459
vt 0.637989 0.679935
vt 0.566186 0.570463
vt 0.585616 0.598992
vt 0.772478 0.817686
vt 0.662999 0.889480
vt 0.733390 0.813086
vt 0.767183 0.806052
vt 0.638568 0.830486
vt 0.693018 0.820485
vt 0.603776 0.580039
vt 0.637557 0.603353
vt 0.574907 0.561118
vt 0.683134 0.634779
vt 0.638568 0.766636
vt 0.692700 0.778231
vt 0.613301 0.555580
vt 0.653432 0.564192
vt 0.579389 0.549146
vt 0.766742 0.793277
vt 0.732831 0.786843
vt 0.707564 0.575787
vt 0.771224 0.781305
vt 0.708574 0.739070
vt 0.742356 0.762384
vt 0.653114 0.521938
vt 0.707564 0.511937
vt 0.578949 0.536371
vt 0.612742 0.529337
vt 0.662998 0.707644
vt 0.636651 0.483020
vt 0.683132 0.452943
vt 0.573653 0.524737
vt 0.602182 0.505307
vt 0.760516 0.743431
vt 0.779946 0.771960
vt 0.708143 0.662488
vt 0.738227 0.708964
vt 0.784546 0.732871
vt 0.791580 0.766664
vt 0.767135 0.638041
vt 0.777144 0.692496
vt 0.583231 0.487145
vt 0.606547 0.453363
vt 0.564309 0.516015
vt 0.637983 0.407785
vt 0.348502 0.347752
vt 0.023424 0.347752
vt 0.023424 0.022673
vt 0.348502 0.022673
vn 0.0000 0.0000 1.0000
vn 0.0000 1.0000 0.0000
vn 0.0000 -0.9152 -0.4031
vn 0.0000 -0.6952 -0.7188
vn 0.2751 -0.6952 -0.6641
vn 0.1542 -0.9152 -0.3724
vn 0.0000 -0.3743 -0.9273
vn 0.0000 0.0000 -1.0000
vn 0.3827 0.0000 -0.9239
vn 0.3548 -0.3743 -0.8567
vn 0.0000 0.3743 -0.9273
vn 0.0000 0.6952 -0.7188
vn 0.2751 0.6952 -0.6641
vn 0.3548 0.3743 -0.8567
vn 0.0000 0.9152 -0.4031
vn 0.1542 0.9152 -0.3724
vn 0.0000 -1.0000 0.0000
vn 0.2850 -0.9152 -0.2850
vn 0.6557 -0.3743 -0.6557
vn 0.5083 -0.6952 -0.5083
vn 0.6557 0.3743 -0.6557
vn 0.7071 0.0000 -0.7071
vn 0.2850 0.9152 -0.2850
vn 0.5083 0.6952 -0.5083
vn 0.8567 0.3743 -0.3548
vn 0.9239 0.0000 -0.3827
vn 0.3724 0.9152 -0.1542
vn 0.6641 0.6952 -0.2751
vn 0.6641 -0.6952 -0.2751
vn 0.3724 -0.9152 -0.1542
vn 0.8567 -0.3743 -0.3548
vn 0.7188 -0.6952 0.0000
vn 0.4031 -0.9152 0.0000
vn 1.0000 0.0000 0.0000
vn 0.9273 -0.3743 0.0000
vn 0.7188 0.6952 0.0000
vn 0.9273 0.3743 0.0000
vn 0.4031 0.9152 0.0000
vn 0.6641 0.6952 0.2751
vn 0.8567 0.3743 0.3548
vn 0.3724 0.9152 0.1542
vn 0.3724 -0.9152 0.1542
vn 0.8567 -0.3743 0.3548
vn 0.6641 -0.6952 0.2751
vn 0.9239 0.0000 0.3827
vn 0.2850 -0.9152 0.2850
vn 0.6557 -0.3743 0.6557
vn 0.5083 -0.6952 0.5083
vn 0.6557 0.3743 0.6557
vn 0.7071 0.0000 0.7071
vn 0.2850 0.9152 0.2850
vn 0.5083 0.6952 0.5083
vn 0.1542 0.9152 0.3724
vn 0.2751 0.6952 0.6641
vn 0.2751 -0.6952 0.6641
vn 0.1542 -0.9152 0.3724
vn 0.3827 0.0000 0.9239
vn 0.3548 -0.3743 0.8567
vn 0.3548 0.3743 0.8567
vn 0.0000 -0.6952 0.7188
vn 0.0000 -0.9152 0.4031
vn 0.0000 -0.3743 0.9273
vn 0.0000 0.6952 0.7188
vn 0.0000 0.3743 0.9273
vn 0.0000 0.9152 0.4031
vn -0.1542 0.9152 0.3724
vn -0.1542 -0.9152 0.3724
vn -0.3548 -0.3743 0.8567
vn -0.2751 -0.6952 0.6641
vn -0.3548 0.3743 0.8567
vn -0.3827 0.0000 0.9239
vn -0.2751 0.6952 0.6641
vn -0.6557 -0.3743 0.6557
vn -0.5083 -0.6952 0.5083
vn -0.6557 0.3743 0.6557
vn -0.7071 0.0000 0.7071
vn -0.2850 0.9152 0.2850
vn -0.5083 0.6952 0.5083
vn -0.2850 -0.9152 0.2850
vn -0.6641 -0.6952 0.2751
vn -0.3724 -0.9152 0.1542
vn -0.9239 0.0000 0.3827
vn -0.8567 -0.3743 0.3548
vn -0.6641 0.6952 0.2751
vn -0.8567 0.3743 0.3548
vn -0.3724 0.9152 0.1542
vn -1.0000 0.0000 0.0000
vn -0.9273 -0.3743 0.0000
vn -0.7188 0.6952 0.0000
vn -0.9273 0.3743 0.0000
vn -0.4031 0.9152 0.0000
vn -0.4031 -0.9152 0.0000
vn -0.7188 -0.6952 0.0000
vn -0.3724 -0.9152 -0.1542
vn -0.8567 -0.3743 -0.3548
vn -0.6641 -0.6952 -0.2751
vn -0.8567 0.3743 -0.3548
vn -0.9239 0.0000 -0.3827
vn -0.3724 0.9152 -0.1542
vn -0.6641 0.6952 -0.2751
vn -0.6557 0.3743 -0.6557
vn -0.7071 0.0000 -0.7071
vn -0.2850 0.9152 -0.2850
vn -0.5083 0.6952 -0.5083
vn -0.5083 -0.6952 -0.5083
vn -0.2850 -0.9152 -0.2850
vn -0.6557 -0.3743 -0.6557
vn -0.2751 -0.6952 -0.6641
vn -0.1542 -0.9152 -0.3724
vn -0.3827 0.0000 -0.9239
vn -0.3548 -0.3743 -0.8567
vn -0.2751 0.6952 -0.6641
vn -0.3548 0.3743 -0.8567
vn -0.1542 0.9152 -0.3724
usemtl None
s 1
f 1/1/1 2/2/1 4/3/1 3/4/1
f 5/5/2 6/6/2 8/7/2 7/8/2
f 15/9/3 14/10/4 23/11/5 24/12/6
f 13/13/7 12/14/8 21/15/9 22/16/10
f 11/17/11 10/18/12 19/19/13 20/20/14
f 9/21/15 17/22/2 18/23/16
f 16/24/17 15/9/3 24/12/6
f 14/10/4 13/13/7 22/16/10 23/11/5
f 12/25/8 11/17/11 20/20/14 21/26/9
f 10/18/12 9/21/15 18/23/16 19/19/13
f 16/24/17 24/12/6 31/27/18
f 23/11/5 22/16/10 29/28/19 30/29/20
f 21/26/9 20/20/14 27/30/21 28/31/22
f 19/19/13 18/23/16 25/32/23 26/33/24
f 24/12/6 23/11/5 30/29/20 31/27/18
f 22/16/10 21/15/9 28/34/22 29/28/19
f 20/20/14 19/19/13 26/33/24 27/30/21
f 18/23/16 17/22/2 25/32/23
f 28/31/22 27/30/21 34/35/25 35/36/26
f 26/33/24 25/32/23 32/37/27 33/38/28
f 31/27/18 30/29/20 37/39/29 38/40/30
f 29/28/19 28/34/22 35/41/26 36/42/31
f 27/30/21 26/33/24 33/38/28 34/35/25
f 25/32/23 17/22/2 32/37/27
f 16/24/17 31/27/18 38/40/30
f 30/29/20 29/28/19 36/42/31 37/39/29
f 38/40/30 37/39/29 44/43/32 45/44/33
f 36/42/31 35/41/26 42/45/34 43/46/35
f 34/35/25 33/38/28 40/47/36 41/48/37
f 32/37/27 17/22/2 39/49/38
f 16/24/17 38/40/30 45/44/33
f 37/39/29 36/42/31 43/46/35 44/43/32
f 35/36/26 34/35/25 41/48/37 42/50/34
f 33/38/28 32/37/27 39/49/38 40/47/36
f 41/48/37 40/47/36 47/51/39 48/52/40
f 39/49/38 17/22/2 46/53/41
f 16/24/17 45/44/33 52/54/42
f 44/43/32 43/46/35 50/55/43 51/56/44
f 42/50/34 41/48/37 48/52/40 49/57/45
f 40/47/36 39/49/38 46/53/41 47/51/39
f 45/44/33 44/43/32 51/56/44 52/54/42
f 43/46/35 42/45/34 49/58/45 50/55/43
f 16/24/17 52/54/42 59/59/46
f 51/56/44 50/55/43 57/60/47 58/61/48
f 49/57/45 48/52/40 55/62/49 56/63/50
f 47/51/39 46/53/41 53/64/51 54/65/52
f 52/54/42 51/56/44 58/61/48 59/59/46
f 50/55/43 49/58/45 56/66/50 57/60/47
f 48/52/40 47/51/39 54/65/52 55/62/49
f 46/53/41 17/22/2 53/64/51
f 54/65/52 53/64/51 60/67/53 61/68/54
f 59/59/46 58/61/48 65/69/55 66/70/56
f 57/60/47 56/66/50 63/71/57 64/72/58
f 55/62/49 54/65/52 61/68/54 62/73/59
f 53/64/51 17/22/2 60/67/53
f 16/24/17 59/59/46 66/70/56
f 58/61/48 57/60/47 64/72/58 65/69/55
f 56/63/50 55/62/49 62/73/59 63/74/57
f 66/70/56 65/69/55 72/75/60 73/76/61
f 64/72/58 63/71/57 70/77/1 71/78/62
f 62/73/59 61/68/54 68/79/63 69/80/64
f 60/67/53 17/22/2 67/81/65
f 16/24/17 66/70/56 73/76/61
f 65/69/55 64/72/58 71/78/62 72/75/60
f 63/74/57 62/73/59 69/80/64 70/82/1
f 61/68/54 60/67/53 67/81/65 68/79/63
f 67/81/65 17/22/2 74/83/66
f 16/24/17 73/76/61 80/84/67
f 72/75/60 71/78/62 78/85/68 79/86/69
f 70/82/1 69/80/64 76/87/70 77/88/71
f 68/79/63 67/81/65 74/83/66 75/89/72
f 73/76/61 72/75/60 79/86/69 80/84/67
f 71/78/62 70/77/1 77/90/71 78/85/68
f 69/80/64 68/79/63 75/89/72 76/87/70
f 79/86/69 78/85/68 85/91/73 86/92/74
f 77/88/71 76/87/70 83/93/75 84/94/76
f 75/89/72 74/83/66 81/95/77 82/96/78
f 80/84/67 79/86/69 86/92/74 87/97/79
f 78/85/68 77/90/71 84/98/76 85/91/73
f 76/87/70 75/89/72 82/96/78 83/93/75
f 74/83/66 17/22/2 81/95/77
f 16/24/17 80/84/67 87/97/79
f 87/97/79 86/92/74 93/99/80 94/100/81
f 85/91/73 84/98/76 91/101/82 92/102/83
f 83/93/75 82/96/78 89/103/84 90/104/85
f 81/95/77 17/22/2 88/105/86
f 16/24/17 87/97/79 94/100/81
f 86/92/74 85/91/73 92/102/83 93/99/80
f 84/94/76 83/93/75 90/104/85 91/106/82
f 82/96/78 81/95/77 88/105/86 89/103/84
f 92/102/83 91/101/82 98/107/87 99/108/88
f 90/104/85 89/103/84 96/109/89 97/110/90
f 88/105/86 17/22/2 95/111/91
f 16/24/17 94/100/81 101/112/92
f 93/99/80 92/102/83 99/108/88 100/113/93
f 91/106/82 90/104/85 97/110/90 98/114/87
f 89/103/84 88/105/86 95/111/91 96/109/89
f 94/100/81 93/99/80 100/113/93 101/112/92
f 16/24/17 101/112/92 108/115/94
f 100/113/93 99/108/88 106/116/95 107/117/96
f 98/114/87 97/110/90 104/118/97 105/119/98
f 96/109/89 95/111/91 102/120/99 103/121/100
f 101/112/92 100/113/93 107/117/96 108/115/94
f 99/108/88 98/107/87 105/122/98 106/116/95
f 97/110/90 96/109/89 103/121/100 104/118/97
f 95/111/91 17/22/2 102/120/99
f 105/119/98 104/118/97 111/123/101 112/124/102
f 103/121/100 102/120/99 109/125/103 110/126/104
f 108/115/94 107/117/96 114/127/105 115/128/106
f 106/116/95 105/122/98 112/129/102 113/130/107
f 104/118/97 103/121/100 110/126/104 111/123/101
f 102/120/99 17/22/2 109/125/103
f 16/24/17 108/115/94 115/128/106
f 107/117/96 106/116/95 113/130/107 114/127/105
f 115/128/106 114/127/105 121/131/108 122/132/109
f 113/130/107 112/129/102 119/133/110 120/134/111
f 111/123/101 110/126/104 117/135/112 118/136/113
f 109/125/103 17/22/2 116/137/114
f 16/24/17 115/128/106 122/132/109
f 114/127/105 113/130/107 120/134/111 121/131/108
f 112/124/102 111/123/101 118/136/113 119/138/110
f 110/126/104 109/125/103 116/137/114 117/135/112
f 118/136/113 117/135/112 10/18/12 11/17/11
f 116/137/114 17/22/2 9/21/15
f 16/24/17 122/132/109 15/9/3
f 121/131/108 120/134/111 13/13/7 14/10/4
f 119/138/110 118/136/113 11/17/11 12/25/8
f 117/135/112 116/137/114 9/21/15 10/18/12
f 122/132/109 121/131/108 14/10/4 15/9/3
f 120/134/111 119/133/110 12/14/8 13/13/7
f 123/139/87 124/140/87 126/141/87 125/142/87
