# Blender v2.83.0 OBJ File: 'SandWindows.blend'
# www.blender.org
mtllib Window1.mtl
o Cube.006_Cube.004
v 0.015839 1.259029 -0.804588
v 0.015839 -1.260555 -0.804588
v 0.015839 -1.260555 0.804517
v -0.133810 -1.399559 -0.943592
v -0.133810 -1.399559 0.943521
v -0.133810 1.398033 -0.943287
v 0.015839 0.533675 0.806398
v 0.015839 1.398033 0.943521
v 0.015839 0.392793 0.070423
v 0.015839 0.533675 -0.804588
v 0.015839 0.392793 -0.070554
v 0.015839 -1.399559 0.943521
v 0.015839 -1.399559 -0.943592
v -0.133810 1.398033 0.943521
v 0.015839 1.398033 -0.943592
v 0.015839 0.392793 -0.804588
v 0.015839 0.392793 0.804517
v 0.015839 -1.260556 0.070423
v 0.015839 -1.260556 -0.070554
v 0.015839 1.259029 0.804517
v -0.104640 0.392793 -0.804588
v -0.104640 0.392793 -0.070554
v -0.104640 1.259029 -0.804588
v -0.104640 0.533675 -0.804588
v -0.104640 0.392793 0.070423
v -0.104640 0.392793 0.804517
v -0.104640 -1.260556 0.070423
v -0.104640 -1.260556 -0.070554
v -0.104640 1.259029 0.804517
v -0.104640 0.533675 0.806398
v -0.104640 -1.260555 -0.804588
v -0.104640 -1.260555 0.804517
vt 0.036988 0.590548
vt 0.517825 0.590545
vt 0.517826 0.616266
vt 0.036988 0.616269
vt 0.345049 0.790551
vt 0.369264 0.917048
vt 0.345049 0.916724
vt 0.036988 0.940616
vt 0.517826 0.940616
vt 0.517826 0.966337
vt 0.036988 0.966337
vt 0.928691 0.429841
vt 0.928691 0.556004
vt 0.949398 0.556004
vt 0.949398 0.429841
vt 0.907184 0.564776
vt 0.907184 0.689447
vt 0.886477 0.689447
vt 0.886477 0.564776
vt 0.060879 0.766321
vt 0.060879 0.790552
vt 0.369263 0.640159
vt 0.345049 0.640159
vt 0.345049 0.766321
vt 0.907184 0.163541
vt 0.907184 0.288211
vt 0.886477 0.288211
vt 0.886477 0.163541
vt 0.011267 0.616269
vt 0.011267 0.940616
vt 0.543547 0.616318
vt 0.543547 0.940616
vt 0.060879 0.640160
vt 0.060879 0.916724
vt 0.493934 0.640158
vt 0.907184 0.966337
vt 0.886477 0.966337
vt 0.493934 0.916724
vt 0.855595 0.682167
vt 0.855595 0.966337
vt 0.729423 0.966337
vt 0.729423 0.682167
vt 0.701786 0.682167
vt 0.701786 0.966337
vt 0.575624 0.966337
vt 0.575624 0.682167
vt 0.855595 0.660070
vt 0.730925 0.660071
vt 0.730925 0.383505
vt 0.855595 0.383182
vt 0.928691 0.840174
vt 0.949398 0.840174
vt 0.965393 0.555994
vt 0.965393 0.429822
vt 0.986101 0.429822
vt 0.986101 0.555994
vt 0.928691 0.966337
vt 0.949398 0.966337
vt 0.965393 0.145651
vt 0.986101 0.145651
vt 0.965393 0.840164
vt 0.986101 0.840164
vt 0.928691 0.145671
vt 0.949398 0.145671
vt 0.965393 0.966337
vt 0.986101 0.966337
vn -0.0010 0.0001 -1.0000
vn 1.0000 0.0000 0.0000
vn 0.0000 0.0000 1.0000
vn 0.0000 1.0000 0.0000
vn 0.0000 -0.0026 -1.0000
vn 0.0000 -1.0000 0.0000
vn 0.0000 0.0000 -1.0000
usemtl Material.005
s off
f 4/1/1 6/2/1 15/3/1 13/4/1
f 9/5/2 7/6/2 17/7/2
f 12/8/3 8/9/3 14/10/3 5/11/3
f 19/12/4 2/13/4 31/14/4 28/15/4
f 20/16/5 7/17/5 30/18/5 29/19/5
f 13/4/2 19/20/2 18/21/2 12/8/2
f 13/4/2 15/3/2 10/22/2 16/23/2
f 11/24/2 10/22/2 7/6/2 9/5/2
f 10/25/3 1/26/3 23/27/3 24/28/3
f 4/29/6 13/4/6 12/8/6 5/30/6
f 15/3/4 6/31/4 14/32/4 8/9/4
f 16/23/2 2/33/2 13/4/2
f 3/34/2 17/7/2 12/8/2
f 2/33/2 19/20/2 13/4/2
f 1/35/2 10/22/2 15/3/2
f 18/21/2 3/34/2 12/8/2
f 7/17/4 10/36/4 24/37/4 30/18/4
f 7/6/2 20/38/2 8/9/2
f 16/23/2 10/22/2 11/24/2
f 17/7/2 7/6/2 8/9/2 12/8/2
f 18/21/2 19/20/2 11/24/2 9/5/2
f 20/38/2 1/35/2 15/3/2 8/9/2
f 27/39/2 25/40/2 26/41/2 32/42/2
f 31/43/2 21/44/2 22/45/2 28/46/2
f 24/47/2 23/48/2 29/49/2 30/50/2
f 2/13/3 16/51/3 21/52/3 31/14/3
f 3/53/4 18/54/4 27/55/4 32/56/4
f 16/51/6 11/57/6 22/58/6 21/52/6
f 18/54/3 9/59/3 25/60/3 27/55/3
f 17/61/7 3/53/7 32/56/7 26/62/7
f 11/63/7 19/12/7 28/15/7 22/64/7
f 9/65/6 17/61/6 26/62/6 25/66/6
f 1/26/6 20/16/6 29/19/6 23/27/6
