# Blender v2.83.0 OBJ File: 'SandWindows.blend'
# www.blender.org
mtllib Window3.mtl
o Cube.002
v -0.093268 -1.698521 -0.062860
v -0.093268 -1.698521 0.062796
v -0.093268 0.790559 0.717113
v -0.093268 0.790559 0.062796
v -0.093268 0.790559 -0.062860
v -0.093268 0.790559 -0.717124
v 0.014118 -1.698521 -0.717124
v 0.014118 -1.698521 -0.062860
v 0.014118 -1.698521 0.062796
v -0.119269 0.914456 0.841011
v 0.014118 -1.822419 -0.841022
v 0.014118 0.790559 0.062796
v -0.093268 -1.698521 0.717113
v 0.014118 0.914456 0.841011
v 0.014118 0.790559 0.717113
v -0.093268 -1.698521 -0.717124
v -0.119269 -1.822419 0.841011
v -0.119269 -1.822419 -0.841022
v -0.119269 0.914456 -0.841022
v 0.014118 -1.698521 0.717113
v 0.014118 -1.822419 0.841011
v 0.014118 0.790559 -0.062860
v 0.014118 0.790559 -0.717124
v 0.014118 0.914456 -0.840751
v -0.093268 0.066070 0.717113
v -0.093268 -0.052500 0.717113
v -0.010060 0.066070 0.717113
v -0.010060 -0.052500 0.717113
v -0.010060 -0.052500 -0.717124
v -0.010060 0.066070 -0.717124
v -0.093268 -0.052500 -0.717124
v -0.093268 0.066070 -0.717124
v -0.093268 -0.785199 -0.717124
v -0.093268 -0.903769 -0.717124
v -0.010060 -0.785199 -0.717124
v -0.010060 -0.903769 -0.717124
v -0.010060 -0.903769 0.717113
v -0.010060 -0.785199 0.717113
v -0.093268 -0.903769 0.717113
v -0.093268 -0.785199 0.717113
v -0.119269 1.279108 0.879166
v 0.668046 0.929646 0.879166
v -0.119269 1.279108 -0.879183
v 0.668046 0.929646 -0.878900
v 0.668046 0.601094 0.879166
v 0.668046 0.601094 -0.878900
v 0.588251 0.927369 0.946985
v 0.588251 0.927369 -0.946719
v 0.588251 0.851035 0.946985
v 0.588251 0.851035 -0.946719
v 0.663836 0.927369 -0.946719
v 0.663836 0.927369 0.946985
v 0.663836 0.851035 -0.946719
v 0.663836 0.851035 0.946985
v 0.588251 0.920219 0.938787
v 0.588251 0.920219 0.876064
v 0.588251 0.858185 0.938787
v 0.588251 0.858185 0.876064
v -0.119269 0.920219 0.876064
v -0.119269 0.920219 0.938787
v -0.119269 0.858185 0.876064
v -0.119269 0.858185 0.938787
v -0.128486 1.247184 0.930586
v -0.021095 1.201593 0.930586
v 0.588251 0.920219 -0.942168
v -0.021095 1.201593 -0.930314
v -0.128303 1.315145 0.930586
v 0.004457 1.256874 0.930586
v 0.004457 1.256874 -0.930373
v -0.128303 1.315145 -0.930615
v 0.588251 0.920219 -0.879444
v -0.128486 1.247184 -0.930503
v 0.588251 0.858185 -0.879444
v 0.588251 0.858185 -0.942168
v -0.119269 0.920219 -0.942168
v -0.119269 0.920219 -0.879444
v -0.119269 0.858185 -0.942168
v -0.119269 0.858185 -0.879444
v -0.119269 1.279108 0.879166
v 0.668046 0.929646 0.879166
v -0.119269 1.279108 -0.879183
v 0.668046 0.929646 -0.878900
v 0.668046 0.601094 0.879166
v 0.668046 0.601094 -0.878900
vt 0.884593 0.161092
vt 0.884593 0.182188
vt 0.466743 0.182187
vt 0.466743 0.161093
vt 0.905392 0.312815
vt 0.445945 0.312773
vt 0.466744 0.292020
vt 0.884593 0.292017
vt 0.884593 0.051251
vt 0.905392 0.030452
vt 0.905390 0.335207
vt 0.445943 0.335165
vt 0.466742 0.051251
vt 0.445943 0.030452
vt 0.423553 0.312819
vt 0.423551 0.030452
vt 0.672323 0.979223
vt 0.441446 0.979223
vt 0.441446 0.969262
vt 0.672323 0.969262
vt 0.943903 0.530506
vt 0.943903 0.299629
vt 0.953863 0.299629
vt 0.953863 0.530506
vt 0.943903 0.238937
vt 0.943903 0.008060
vt 0.953863 0.008060
vt 0.953863 0.238937
vt 0.927784 0.312815
vt 0.927784 0.030452
vt 0.445943 0.008060
vt 0.905392 0.008060
vt 0.380759 0.979223
vt 0.149882 0.979223
vt 0.149882 0.969262
vt 0.380759 0.969262
vt 0.733009 0.969262
vt 0.733009 0.979223
vt 0.841399 0.898417
vt 0.423551 0.898417
vt 0.423551 0.788585
vt 0.841399 0.788585
vt 0.423551 0.662624
vt 0.841399 0.662624
vt 0.841399 0.772466
vt 0.423551 0.772466
vt 0.953863 0.591197
vt 0.943903 0.591197
vt 0.390650 0.919270
vt 0.149882 0.919270
vt 0.149882 0.905301
vt 0.390650 0.905301
vt 0.390650 0.939175
vt 0.149882 0.939174
vt 0.197724 0.648414
vt 0.197724 0.889182
vt 0.183755 0.889182
vt 0.183755 0.648414
vt 0.163851 0.889182
vt 0.163851 0.648414
vt 0.149882 0.889182
vt 0.149882 0.648414
vt 0.390650 0.953143
vt 0.149882 0.953143
vt 0.786744 0.646457
vt 0.642141 0.646505
vt 0.642141 0.351326
vt 0.786744 0.351326
vt 0.841899 0.351326
vt 0.841899 0.646457
vt 0.133763 0.979126
vt 0.120948 0.979126
vt 0.120948 0.661229
vt 0.133763 0.661229
vt 0.095445 0.979126
vt 0.095445 0.661229
vt 0.108259 0.661229
vt 0.108260 0.979126
vt 0.082756 0.979126
vt 0.082756 0.661229
vt 0.120948 0.648414
vt 0.108259 0.648414
vt 0.120949 0.991940
vt 0.108260 0.991940
vt 0.032414 0.971332
vt 0.008075 0.971374
vt 0.008060 0.658931
vt 0.032398 0.658930
vt 0.042638 0.971322
vt 0.042622 0.658929
vt 0.062207 0.658928
vt 0.062223 0.971353
vt 0.213843 0.679771
vt 0.213843 0.669358
vt 0.332616 0.669357
vt 0.332616 0.679771
vt 0.213843 0.690301
vt 0.332616 0.690301
vt 0.213843 0.658828
vt 0.213843 0.648414
vt 0.332616 0.648414
vt 0.332616 0.658828
vt 0.348735 0.648414
vt 0.359149 0.648414
vt 0.359149 0.767187
vt 0.348735 0.767187
vt 0.066637 0.981873
vt 0.042300 0.981540
vt 0.042299 0.648710
vt 0.066637 0.648414
vt 0.380092 0.648414
vt 0.390622 0.648414
vt 0.390622 0.767187
vt 0.380092 0.767187
vt 0.369678 0.648414
vt 0.369678 0.767187
vt 0.471730 0.646457
vt 0.471730 0.351326
vt 0.616333 0.351326
vt 0.616333 0.646505
vt 0.416575 0.646457
vt 0.416575 0.351326
vn 1.0000 0.0000 0.0000
vn 0.0010 0.0000 -1.0000
vn 0.0000 1.0000 0.0000
vn 0.0000 0.0000 -1.0000
vn 0.0000 -0.0000 1.0000
vn 0.0000 -1.0000 0.0000
vn 0.4057 0.9140 0.0000
vn -1.0000 0.0000 0.0000
vn 0.4019 0.9157 0.0000
vn -0.3908 -0.9205 0.0000
vn 0.9077 -0.4196 0.0000
vn 0.0011 -0.0016 -1.0000
vn -0.4057 -0.9140 0.0000
usemtl Material
s off
f 9/1/1 8/2/1 22/3/1 12/4/1
f 11/5/1 24/6/1 23/7/1 7/8/1
f 9/1/1 20/9/1 21/10/1
f 7/8/1 8/2/1 11/5/1
f 18/11/2 19/12/2 24/6/2 11/5/2
f 20/9/1 15/13/1 14/14/1 21/10/1
f 24/6/3 19/15/3 10/16/3 14/14/3
f 22/17/4 8/18/4 1/19/4 5/20/4
f 15/21/4 20/22/4 13/23/4 3/24/4
f 9/25/5 12/26/5 4/27/5 2/28/5
f 18/29/6 11/5/6 21/10/6 17/30/6
f 20/22/3 9/25/3 2/28/3 13/23/3
f 11/5/1 8/2/1 9/1/1 21/10/1
f 21/10/5 14/14/5 10/31/5 17/32/5
f 7/33/5 23/34/5 6/35/5 16/36/5
f 22/17/6 5/20/6 6/37/6 23/38/6
f 16/39/1 6/40/1 5/41/1 1/42/1
f 2/43/1 4/44/1 3/45/1 13/46/1
f 15/21/6 3/24/6 4/47/6 12/48/6
f 8/18/3 7/33/3 16/36/3 1/19/3
f 12/4/1 14/14/1 15/13/1
f 23/7/1 24/6/1 22/3/1
f 12/4/1 22/3/1 24/6/1 14/14/1
f 27/49/3 30/50/3 32/51/3 25/52/3
f 28/53/1 29/54/1 30/50/1 27/49/1
f 39/55/6 34/56/6 36/57/6 37/58/6
f 37/58/1 36/57/1 35/59/1 38/60/1
f 38/60/3 35/59/3 33/61/3 40/62/3
f 26/63/6 31/64/6 29/54/6 28/53/6
f 44/65/7 43/66/7 41/67/7 42/68/7
f 44/65/1 42/68/1 45/69/1 46/70/1
f 48/71/8 50/72/8 49/73/8 47/74/8
f 51/75/1 52/76/1 54/77/1 53/78/1
f 48/79/3 47/80/3 52/76/3 51/75/3
f 47/81/5 49/73/5 54/77/5 52/82/5
f 49/73/6 50/72/6 53/78/6 54/77/6
f 50/72/4 48/83/4 51/84/4 53/78/4
f 69/85/9 70/86/9 67/87/9 68/88/9
f 66/89/10 64/90/10 63/91/10 72/92/10
f 56/93/4 58/94/4 61/95/4 59/96/4
f 55/97/3 56/93/3 59/96/3 60/98/3
f 57/99/5 55/100/5 60/101/5 62/102/5
f 58/94/6 57/99/6 62/102/6 61/95/6
f 65/103/4 74/104/4 77/105/4 75/106/4
f 64/90/11 66/89/11 69/85/11 68/88/11
f 66/89/12 72/92/12 70/107/12 69/108/12
f 63/91/5 64/90/5 68/109/5 67/110/5
f 71/111/3 65/112/3 75/113/3 76/114/3
f 73/115/5 71/111/5 76/114/5 78/116/5
f 74/104/6 73/115/6 78/116/6 77/105/6
f 82/117/13 80/118/13 79/119/13 81/120/13
f 82/117/8 84/121/8 83/122/8 80/118/8
