# Blender v2.83.0 OBJ File: 'SandWindows.blend'
# www.blender.org
mtllib Window4.mtl
o Cube.003
v -0.104640 -1.094180 -0.071340
v -0.104640 -1.094180 0.069637
v -0.104640 1.093389 0.803731
v -0.104640 1.093389 0.069637
v -0.104640 1.093389 -0.071340
v -0.104640 1.093389 -0.805374
v 0.015839 -1.094180 -0.805374
v 0.015839 -1.094180 -0.071340
v 0.015839 -1.094180 0.069637
v -0.133810 1.232393 0.942735
v 0.015839 -1.233184 -0.944378
v 0.015839 1.093389 0.069637
v -0.104640 -1.094180 0.803731
v 0.015839 1.232393 0.942735
v 0.015839 1.093389 0.803731
v -0.104640 -1.094180 -0.805374
v -0.133810 -1.233184 0.942735
v -0.133810 -1.233184 -0.944378
v -0.133810 1.232393 -0.944378
v 0.015839 -1.094180 0.803731
v 0.015839 -1.233184 0.942735
v 0.015839 1.093389 -0.071340
v 0.015839 1.093389 -0.805374
v 0.015839 1.232393 -0.944073
v 0.004739 -0.056677 0.803731
v -0.104640 -0.056677 0.803731
v 0.004739 -0.056677 -0.805373
v -0.104640 -0.056677 -0.805373
v 0.004739 0.055886 0.803731
v -0.104640 0.055886 0.803731
v -0.104640 0.055886 -0.805373
v 0.004739 0.055886 -0.805373
v 0.015839 1.131296 0.033136
v 0.015839 1.200389 0.033136
v 0.015839 1.131296 -0.034776
v 0.015839 1.200389 -0.034776
v 0.015839 -1.198519 0.033136
v 0.015839 -1.129426 0.033136
v 0.015839 -1.198519 -0.034776
v 0.015839 -1.129426 -0.034776
v 0.150366 1.131296 0.033136
v 0.219456 1.151955 0.033136
v 0.171022 1.200389 0.033136
v 0.150366 1.131296 -0.034776
v 0.171022 1.200389 -0.034776
v 0.219456 1.151955 -0.034776
v 0.150366 -1.129426 0.033136
v 0.150366 -1.129426 -0.034776
v 0.219456 -1.150085 -0.034776
v 0.171022 -1.198519 -0.034776
v 0.171022 -1.198519 0.033136
v 0.219456 -1.150085 0.033136
v 0.015839 1.131296 -0.306424
v 0.015839 1.200389 -0.306424
v 0.015839 1.131296 -0.374336
v 0.015839 1.200389 -0.374336
v 0.015839 -1.198519 -0.306424
v 0.015839 -1.129426 -0.306424
v 0.015839 -1.198519 -0.374336
v 0.015839 -1.129426 -0.374336
v 0.150366 1.131296 -0.306424
v 0.219456 1.151955 -0.306424
v 0.171022 1.200389 -0.306424
v 0.150366 1.131296 -0.374336
v 0.171022 1.200389 -0.374336
v 0.219456 1.151955 -0.374336
v 0.150366 -1.129426 -0.306424
v 0.150366 -1.129426 -0.374336
v 0.219456 -1.150085 -0.374336
v 0.171022 -1.198519 -0.374336
v 0.171022 -1.198519 -0.306424
v 0.219456 -1.150085 -0.306424
v 0.015839 1.131296 -0.645984
v 0.015839 1.200389 -0.645984
v 0.015839 1.131296 -0.713896
v 0.015839 1.200389 -0.713896
v 0.015839 -1.198519 -0.645984
v 0.015839 -1.129426 -0.645984
v 0.015839 -1.198519 -0.713896
v 0.015839 -1.129426 -0.713896
v 0.150366 1.131296 -0.645984
v 0.219456 1.151955 -0.645984
v 0.171022 1.200389 -0.645984
v 0.150366 1.131296 -0.713896
v 0.171022 1.200389 -0.713896
v 0.219456 1.151955 -0.713896
v 0.150366 -1.129426 -0.645984
v 0.150366 -1.129426 -0.713896
v 0.219456 -1.150085 -0.713896
v 0.171022 -1.198519 -0.713896
v 0.171022 -1.198519 -0.645984
v 0.219456 -1.150085 -0.645984
v 0.015839 1.131296 0.304782
v 0.015839 1.200389 0.304782
v 0.015839 1.131296 0.372694
v 0.015839 1.200389 0.372694
v 0.015839 -1.198519 0.304782
v 0.015839 -1.129426 0.304782
v 0.015839 -1.198519 0.372694
v 0.015839 -1.129426 0.372694
v 0.150366 1.131296 0.304782
v 0.219456 1.151955 0.304782
v 0.171022 1.200389 0.304782
v 0.150366 1.131296 0.372694
v 0.171022 1.200389 0.372694
v 0.219456 1.151955 0.372694
v 0.150366 -1.129426 0.304782
v 0.150366 -1.129426 0.372694
v 0.219456 -1.150085 0.372694
v 0.171022 -1.198519 0.372694
v 0.171022 -1.198519 0.304782
v 0.219456 -1.150085 0.304782
v 0.015839 1.131296 0.644342
v 0.015839 1.200389 0.644342
v 0.015839 1.131296 0.712254
v 0.015839 1.200389 0.712254
v 0.015839 -1.198519 0.644342
v 0.015839 -1.129426 0.644342
v 0.015839 -1.198519 0.712254
v 0.015839 -1.129426 0.712254
v 0.150366 1.131296 0.644342
v 0.219456 1.151955 0.644342
v 0.171022 1.200389 0.644342
v 0.150366 1.131296 0.712254
v 0.171022 1.200389 0.712254
v 0.219456 1.151955 0.712254
v 0.150366 -1.129426 0.644342
v 0.150366 -1.129426 0.712254
v 0.219456 -1.150085 0.712254
v 0.171022 -1.198519 0.712254
v 0.171022 -1.198519 0.644342
v 0.219456 -1.150085 0.644342
vt 0.401905 0.671916
vt 0.401905 0.694296
vt 0.054648 0.694295
vt 0.054648 0.671916
vt 0.423970 0.832880
vt 0.032583 0.832834
vt 0.054648 0.810817
vt 0.401905 0.810815
vt 0.401905 0.555385
vt 0.423971 0.533320
vt 0.423967 0.856636
vt 0.032580 0.856590
vt 0.054648 0.555385
vt 0.032582 0.533320
vt 0.008827 0.832882
vt 0.008827 0.533320
vt 0.934306 0.125354
vt 0.934305 0.472612
vt 0.915180 0.472612
vt 0.915180 0.125354
vt 0.897526 0.125363
vt 0.897526 0.472620
vt 0.878401 0.472620
vt 0.878400 0.125363
vt 0.897526 0.589151
vt 0.897526 0.936393
vt 0.878402 0.936393
vt 0.878401 0.589151
vt 0.447726 0.832880
vt 0.447726 0.533320
vt 0.032582 0.509564
vt 0.423971 0.509564
vt 0.934305 0.589133
vt 0.934306 0.936374
vt 0.915182 0.936374
vt 0.915180 0.589133
vt 0.915180 0.008827
vt 0.934306 0.008827
vt 0.420410 0.143011
vt 0.767667 0.143011
vt 0.767667 0.259532
vt 0.420410 0.259532
vt 0.767667 0.125357
vt 0.420410 0.125357
vt 0.420410 0.008827
vt 0.767667 0.008827
vt 0.878401 0.008827
vt 0.897526 0.008827
vt 0.541310 0.986707
vt 0.523442 0.986707
vt 0.523442 0.731276
vt 0.541310 0.731276
vt 0.506079 0.986707
vt 0.506079 0.731276
vt 0.558673 0.986707
vt 0.558673 0.731276
vt 0.951959 0.829634
vt 0.951959 0.808279
vt 0.962740 0.808279
vt 0.962740 0.829634
vt 0.839391 0.406478
vt 0.828424 0.409758
vt 0.828423 0.044331
vt 0.839391 0.047611
vt 0.785320 0.047611
vt 0.785320 0.036643
vt 0.809955 0.036643
vt 0.806676 0.047611
vt 0.817644 0.033459
vt 0.817644 0.008827
vt 0.828423 0.008827
vt 0.828423 0.033459
vt 0.817643 0.445264
vt 0.817643 0.420631
vt 0.828424 0.420631
vt 0.828424 0.445264
vt 0.817643 0.409758
vt 0.817644 0.044331
vt 0.785321 0.417446
vt 0.785321 0.406478
vt 0.806676 0.406478
vt 0.809955 0.417446
vt 0.836112 0.417446
vt 0.860746 0.406478
vt 0.860746 0.417446
vt 0.951959 0.449412
vt 0.951959 0.428057
vt 0.962740 0.428057
vt 0.962740 0.449412
vt 0.836112 0.036643
vt 0.860747 0.036643
vt 0.860747 0.047611
vt 0.980393 0.410404
vt 0.980393 0.389049
vt 0.991173 0.389049
vt 0.991173 0.410404
vt 0.560150 0.674837
vt 0.549182 0.678116
vt 0.549182 0.312690
vt 0.560150 0.315970
vt 0.506079 0.315970
vt 0.506079 0.305001
vt 0.530714 0.305001
vt 0.527435 0.315970
vt 0.538402 0.301817
vt 0.538402 0.277185
vt 0.549182 0.277185
vt 0.549182 0.301818
vt 0.538402 0.713623
vt 0.538402 0.688989
vt 0.549182 0.688989
vt 0.549182 0.713623
vt 0.538402 0.678116
vt 0.538403 0.312690
vt 0.506080 0.685805
vt 0.506080 0.674837
vt 0.527434 0.674837
vt 0.530713 0.685805
vt 0.556871 0.685805
vt 0.581504 0.674837
vt 0.581504 0.685805
vt 0.980393 0.030181
vt 0.980393 0.008827
vt 0.991173 0.008827
vt 0.991173 0.030181
vt 0.556871 0.305001
vt 0.581506 0.305001
vt 0.581506 0.315970
vt 0.410404 0.885070
vt 0.389049 0.885070
vt 0.389049 0.874289
vt 0.410404 0.874289
vt 0.620515 0.315971
vt 0.631483 0.312692
vt 0.631483 0.678118
vt 0.620515 0.674838
vt 0.674586 0.674838
vt 0.674586 0.685807
vt 0.649951 0.685807
vt 0.653231 0.674838
vt 0.642263 0.688991
vt 0.642263 0.713623
vt 0.631483 0.713623
vt 0.631483 0.688991
vt 0.642263 0.277185
vt 0.642263 0.301819
vt 0.631483 0.301819
vt 0.631483 0.277185
vt 0.642263 0.312692
vt 0.642263 0.678118
vt 0.674585 0.305003
vt 0.674585 0.315971
vt 0.653231 0.315971
vt 0.649952 0.305004
vt 0.623794 0.305004
vt 0.599161 0.315971
vt 0.599161 0.305004
vt 0.030181 0.885070
vt 0.008827 0.885070
vt 0.008827 0.874289
vt 0.030181 0.874289
vt 0.623794 0.685807
vt 0.599159 0.685807
vt 0.599159 0.674838
vt 0.488425 0.678762
vt 0.477645 0.678762
vt 0.477645 0.657407
vt 0.488425 0.657407
vt 0.746311 0.315970
vt 0.746310 0.674837
vt 0.735343 0.678116
vt 0.735343 0.312690
vt 0.692240 0.674837
vt 0.713595 0.674837
vt 0.716874 0.685804
vt 0.692240 0.685804
vt 0.724562 0.688989
vt 0.735343 0.688989
vt 0.735343 0.713623
vt 0.724562 0.713623
vt 0.724563 0.277185
vt 0.735343 0.277185
vt 0.735343 0.301818
vt 0.724563 0.301818
vt 0.724563 0.678116
vt 0.724563 0.312690
vt 0.692240 0.305001
vt 0.716874 0.305001
vt 0.713595 0.315970
vt 0.692240 0.315969
vt 0.743032 0.305001
vt 0.767667 0.305001
vt 0.767667 0.315970
vt 0.488425 0.298540
vt 0.477645 0.298540
vt 0.477645 0.277185
vt 0.488425 0.277185
vt 0.767665 0.674837
vt 0.767665 0.685805
vt 0.743031 0.685805
vt 0.951959 0.008827
vt 0.962740 0.008827
vt 0.962740 0.030181
vt 0.951959 0.030181
vt 0.839391 0.501702
vt 0.839391 0.860569
vt 0.828424 0.863849
vt 0.828423 0.498422
vt 0.785321 0.860569
vt 0.806676 0.860569
vt 0.809955 0.871537
vt 0.785321 0.871537
vt 0.817643 0.874722
vt 0.828423 0.874722
vt 0.828423 0.899355
vt 0.817643 0.899355
vt 0.817644 0.462918
vt 0.828423 0.462918
vt 0.828423 0.487550
vt 0.817644 0.487550
vt 0.817643 0.863849
vt 0.817644 0.498422
vt 0.785320 0.490734
vt 0.809955 0.490734
vt 0.806676 0.501702
vt 0.785320 0.501702
vt 0.836112 0.490734
vt 0.860747 0.490734
vt 0.860747 0.501702
vt 0.951959 0.389048
vt 0.962740 0.389048
vt 0.962740 0.410404
vt 0.951959 0.410404
vt 0.860746 0.860569
vt 0.860746 0.871537
vt 0.836112 0.871537
vn 1.0000 0.0000 0.0000
vn 0.0010 0.0001 -1.0000
vn 0.0000 1.0000 0.0000
vn 0.0000 0.0000 -1.0000
vn 0.0000 -0.0000 1.0000
vn 0.0000 -1.0000 0.0000
vn 0.3827 0.9239 0.0000
vn 0.3827 -0.9239 0.0000
vn 0.9239 -0.3827 0.0000
vn 0.9239 0.3827 0.0000
vn -1.0000 0.0000 0.0000
usemtl Material
s 1
f 9/1/1 8/2/1 22/3/1 12/4/1
f 11/5/1 24/6/1 23/7/1 7/8/1
f 9/1/1 20/9/1 21/10/1
f 7/8/1 8/2/1 11/5/1
f 18/11/2 19/12/2 24/6/2 11/5/2
f 20/9/1 15/13/1 14/14/1 21/10/1
f 24/6/3 19/15/3 10/16/3 14/14/3
f 22/17/4 8/18/4 1/19/4 5/20/4
f 15/21/4 20/22/4 13/23/4 3/24/4
f 9/25/5 12/26/5 4/27/5 2/28/5
f 18/29/6 11/5/6 21/10/6 17/30/6
f 20/22/3 9/25/3 2/28/3 13/23/3
f 11/5/1 8/2/1 9/1/1 21/10/1
f 21/10/5 14/14/5 10/31/5 17/32/5
f 7/33/5 23/34/5 6/35/5 16/36/5
f 22/17/6 5/20/6 6/37/6 23/38/6
f 16/39/1 6/40/1 5/41/1 1/42/1
f 2/43/1 4/44/1 3/45/1 13/46/1
f 15/21/6 3/24/6 4/47/6 12/48/6
f 8/18/3 7/33/3 16/36/3 1/19/3
f 12/4/1 14/14/1 15/13/1
f 23/7/1 24/6/1 22/3/1
f 12/4/1 22/3/1 24/6/1 14/14/1
f 27/49/1 32/50/1 29/51/1 25/52/1
f 32/50/3 31/53/3 30/54/3 29/51/3
f 28/55/6 27/49/6 25/52/6 26/56/6
f 35/57/6 44/58/6 41/59/6 33/60/6
f 47/61/5 52/62/5 42/63/5 41/64/5
f 35/65/4 36/66/4 45/67/4 44/68/4
f 45/69/7 36/70/3 34/71/3 43/72/7
f 39/73/6 50/74/8 51/75/8 37/76/6
f 52/62/9 49/77/9 46/78/10 42/63/10
f 39/79/4 40/80/4 48/81/4 50/82/4
f 49/77/4 48/81/4 44/68/4 46/78/4
f 51/83/5 47/61/5 38/84/5 37/85/5
f 48/86/3 40/87/3 38/88/3 47/89/3
f 41/64/5 43/90/5 34/91/5 33/92/5
f 42/63/5 43/90/5 41/64/5
f 45/67/4 46/78/4 44/68/4
f 49/77/4 50/82/4 48/81/4
f 51/83/5 52/62/5 47/61/5
f 45/69/7 43/72/7 42/63/10 46/78/10
f 51/75/8 50/74/8 49/77/9 52/62/9
f 48/86/11 47/89/11 41/59/11 44/58/11
f 55/93/6 64/94/6 61/95/6 53/96/6
f 67/97/5 72/98/5 62/99/5 61/100/5
f 55/101/4 56/102/4 65/103/4 64/104/4
f 65/105/7 56/106/3 54/107/3 63/108/7
f 59/109/6 70/110/8 71/111/8 57/112/6
f 72/98/9 69/113/9 66/114/10 62/99/10
f 59/115/4 60/116/4 68/117/4 70/118/4
f 69/113/4 68/117/4 64/104/4 66/114/4
f 71/119/5 67/97/5 58/120/5 57/121/5
f 68/122/3 60/123/3 58/124/3 67/125/3
f 61/100/5 63/126/5 54/127/5 53/128/5
f 62/99/5 63/126/5 61/100/5
f 65/103/4 66/114/4 64/104/4
f 69/113/4 70/118/4 68/117/4
f 71/119/5 72/98/5 67/97/5
f 65/105/7 63/108/7 62/99/10 66/114/10
f 71/111/8 70/110/8 69/113/9 72/98/9
f 68/122/11 67/125/11 61/95/11 64/94/11
f 75/129/6 84/130/6 81/131/6 73/132/6
f 87/133/5 92/134/5 82/135/5 81/136/5
f 75/137/4 76/138/4 85/139/4 84/140/4
f 85/141/7 76/142/3 74/143/3 83/144/7
f 79/145/6 90/146/8 91/147/8 77/148/6
f 92/134/9 89/149/9 86/150/10 82/135/10
f 79/151/4 80/152/4 88/153/4 90/154/4
f 89/149/4 88/153/4 84/140/4 86/150/4
f 91/155/5 87/133/5 78/156/5 77/157/5
f 88/158/3 80/159/3 78/160/3 87/161/3
f 81/136/5 83/162/5 74/163/5 73/164/5
f 82/135/5 83/162/5 81/136/5
f 85/139/4 86/150/4 84/140/4
f 89/149/4 90/154/4 88/153/4
f 91/155/5 92/134/5 87/133/5
f 85/141/7 83/144/7 82/135/10 86/150/10
f 91/147/8 90/146/8 89/149/9 92/134/9
f 88/158/11 87/161/11 81/131/11 84/130/11
f 95/165/6 93/166/6 101/167/6 104/168/6
f 107/169/4 101/170/4 102/171/4 112/172/4
f 95/173/5 104/174/5 105/175/5 96/176/5
f 105/177/7 103/178/7 94/179/3 96/180/3
f 99/181/6 97/182/6 111/183/8 110/184/8
f 112/172/9 102/171/10 106/185/10 109/186/9
f 99/187/5 110/188/5 108/189/5 100/190/5
f 109/186/5 106/185/5 104/174/5 108/189/5
f 111/191/4 97/192/4 98/193/4 107/169/4
f 108/194/3 107/195/3 98/196/3 100/197/3
f 101/170/4 93/198/4 94/199/4 103/200/4
f 102/171/4 101/170/4 103/200/4
f 105/175/5 104/174/5 106/185/5
f 109/186/5 108/189/5 110/188/5
f 111/191/4 107/169/4 112/172/4
f 105/177/7 106/185/10 102/171/10 103/178/7
f 111/183/8 112/172/9 109/186/9 110/184/8
f 108/194/11 104/168/11 101/167/11 107/195/11
f 115/201/6 113/202/6 121/203/6 124/204/6
f 127/205/4 121/206/4 122/207/4 132/208/4
f 115/209/5 124/210/5 125/211/5 116/212/5
f 125/213/7 123/214/7 114/215/3 116/216/3
f 119/217/6 117/218/6 131/219/8 130/220/8
f 132/208/9 122/207/10 126/221/10 129/222/9
f 119/223/5 130/224/5 128/225/5 120/226/5
f 129/222/5 126/221/5 124/210/5 128/225/5
f 131/227/4 117/228/4 118/229/4 127/205/4
f 128/230/3 127/231/3 118/232/3 120/233/3
f 121/206/4 113/234/4 114/235/4 123/236/4
f 122/207/4 121/206/4 123/236/4
f 125/211/5 124/210/5 126/221/5
f 129/222/5 128/225/5 130/224/5
f 131/227/4 127/205/4 132/208/4
f 125/213/7 126/221/10 122/207/10 123/214/7
f 131/219/8 132/208/9 129/222/9 130/220/8
f 128/230/11 124/204/11 121/203/11 127/231/11
