# Blender v3.0.0 OBJ File: ''
# www.blender.org
mtllib Undergrowth.mtl
o Mesh_1106.001
v -0.990876 -1.006244 0.995539
v 0.993718 -1.006244 -0.989055
v 0.993718 -1.006244 0.995539
v 0.993718 -0.779465 0.995540
v -0.990876 -0.779465 0.995539
v -0.990875 -0.779465 -0.989055
v -0.990875 -1.006244 -0.989055
v 0.993719 -0.779465 -0.989054
v -0.939900 -0.804675 0.310891
v -0.939900 -0.195340 -0.298445
v 0.945125 -0.195340 -0.298445
v 0.945125 -0.804675 -0.298445
v 0.945125 -0.804675 0.310891
v 0.945125 -0.195340 0.310891
v -0.939900 -0.195340 0.310891
v -0.939900 -0.804675 -0.298445
v -0.915929 -0.804745 0.938242
v -0.915929 -0.195410 0.328907
v -0.915929 -0.804745 0.328907
v 0.969096 -0.804745 0.328907
v 0.969096 -0.195410 0.328907
v 0.969096 -0.195410 0.938242
v 0.969096 -0.804745 0.938242
v -0.915929 -0.195410 0.938242
v -0.904741 -0.195340 -0.330530
v -0.904741 -0.195340 -0.939865
v -0.904741 -0.804675 -0.939865
v 0.980284 -0.195340 -0.939865
v 0.980284 -0.804675 -0.939865
v 0.980284 -0.195340 -0.330530
v 0.980284 -0.804675 -0.330530
v -0.904741 -0.804675 -0.330530
v 0.957563 -0.204995 0.934103
v 0.957563 0.404340 0.934103
v 0.348227 0.404340 0.934103
v 0.348227 0.404340 -0.950922
v 0.348227 -0.204995 -0.950922
v 0.957562 0.404340 -0.950922
v 0.348227 -0.204995 0.934103
v 0.957563 -0.204995 -0.950922
v -0.311209 -0.204925 0.922915
v -0.311209 0.404411 0.922915
v -0.920545 0.404411 0.922915
v -0.920545 -0.204925 -0.962110
v -0.311209 0.404411 -0.962110
v -0.311209 -0.204925 -0.962111
v -0.920545 -0.204925 0.922915
v -0.920545 0.404411 -0.962110
v 0.330211 -0.204925 0.958074
v -0.279124 -0.204925 -0.926951
v 0.330211 0.404411 -0.926951
v 0.330211 -0.204924 -0.926951
v -0.279124 -0.204925 0.958074
v -0.279124 0.404411 0.958075
v -0.279125 0.404411 -0.926951
v 0.330211 0.404411 0.958074
v -0.979570 1.040141 -0.992297
v -0.979570 0.247831 -0.992297
v -0.979570 1.040141 0.992297
v 1.006613 0.247831 0.992297
v -0.979570 0.247831 0.992297
v 1.006613 1.040141 0.992297
v 1.006613 1.040141 -0.992297
v 1.006613 0.247831 -0.992297
vt 0.692279 0.227084
vt 0.692278 0.249421
vt 0.496799 0.249421
vt 0.496799 0.227084
vt 0.474461 0.031604
vt 0.496799 0.031604
vt 0.474462 0.227084
vt 0.496799 0.009267
vt 0.692278 0.009267
vt 0.692278 0.031604
vt 0.301323 0.731723
vt 0.301323 0.671704
vt 0.361341 0.671704
vt 0.361341 0.731723
vt 0.714616 0.031604
vt 0.714616 0.227084
vt 0.710802 0.651034
vt 0.770821 0.651034
vt 0.770821 0.711053
vt 0.710802 0.711053
vt 0.913207 0.069286
vt 0.973226 0.069286
vt 0.973226 0.254958
vt 0.913207 0.254958
vt 0.913207 0.009267
vt 0.973226 0.009267
vt 0.530746 0.651034
vt 0.530746 0.465362
vt 0.590765 0.465362
vt 0.590765 0.651034
vt 0.547014 0.791741
vt 0.547014 0.851760
vt 0.361341 0.851760
vt 0.361341 0.791741
vt 0.547014 0.671704
vt 0.547014 0.731723
vt 0.607032 0.671704
vt 0.607032 0.731723
vt 0.547014 0.911779
vt 0.361341 0.911779
vt 0.710802 0.405344
vt 0.770821 0.405344
vt 0.770821 0.465362
vt 0.710802 0.465362
vt 0.909390 0.333540
vt 0.909390 0.393559
vt 0.849372 0.393559
vt 0.849372 0.333540
vt 0.853188 0.254958
vt 0.853188 0.069286
vt 0.973226 0.314977
vt 0.913207 0.314977
vt 0.650783 0.651034
vt 0.650783 0.465362
vt 0.733151 0.254958
vt 0.733151 0.069286
vt 0.793170 0.069286
vt 0.793170 0.254958
vt 0.314972 0.930716
vt 0.254953 0.930716
vt 0.254953 0.870697
vt 0.314972 0.870697
vt 0.069281 0.930716
vt 0.069281 0.870697
vt 0.871255 0.849650
vt 0.811237 0.849650
vt 0.811237 0.789632
vt 0.871255 0.789632
vt 0.969409 0.579231
vt 0.909390 0.579231
vt 0.969409 0.393559
vt 0.849372 0.579231
vt 0.849372 0.639250
vt 0.909391 0.639250
vt 0.789353 0.393559
vt 0.789353 0.579231
vt 0.811237 0.729613
vt 0.625564 0.789632
vt 0.625564 0.729613
vt 0.625564 0.909669
vt 0.625564 0.849650
vt 0.811237 0.909669
vt 0.565546 0.789631
vt 0.565546 0.849650
vt 0.254953 0.810678
vt 0.069281 0.810678
vt 0.069281 0.990734
vt 0.254953 0.990734
vt 0.009262 0.870697
vt 0.009262 0.930716
vt 0.204747 0.596019
vt 0.204747 0.400383
vt 0.282788 0.400383
vt 0.282788 0.596019
vt 0.204747 0.791499
vt 0.282788 0.791499
vt 0.204747 0.204903
vt 0.204747 0.009267
vt 0.282788 0.009267
vt 0.282788 0.204903
vt 0.478268 0.400383
vt 0.478268 0.596019
vt 0.009267 0.596019
vt 0.009267 0.400383
vt 0.692278 0.444901
vt 0.496799 0.444901
vn 1.0000 -0.0000 0.0000
vn 0.0000 0.0000 -1.0000
vn -1.0000 0.0000 -0.0000
vn 0.0000 1.0000 0.0000
vn -0.0000 -0.0000 1.0000
vn 0.0000 -1.0000 0.0000
usemtl None
s off
f 4/1/1 3/2/1 2/3/1 8/4/1
f 7/5/2 6/6/2 8/4/2 2/7/2
f 6/6/3 7/8/3 1/9/3 5/10/3
f 18/11/3 19/12/3 17/13/3 24/14/3
f 5/10/4 4/1/4 8/4/4 6/6/4
f 5/10/5 1/15/5 3/16/5 4/1/5
f 14/17/1 13/18/1 12/19/1 11/20/1
f 25/21/5 32/22/5 31/23/5 30/24/5
f 26/25/3 27/26/3 32/22/3 25/21/3
f 13/27/6 9/28/6 16/29/6 12/30/6
f 21/31/2 20/32/2 19/33/2 18/34/2
f 24/14/5 17/13/5 23/35/5 22/36/5
f 22/36/1 23/35/1 20/37/1 21/38/1
f 23/39/6 17/40/6 19/33/6 20/32/6
f 10/41/3 16/42/3 9/43/3 15/44/3
f 24/14/4 22/36/4 21/31/4 18/34/4
f 43/45/5 47/46/5 41/47/5 42/48/5
f 25/21/4 30/24/4 28/49/4 26/50/4
f 30/24/1 31/23/1 29/51/1 28/52/1
f 15/44/5 9/43/5 13/18/5 14/17/5
f 15/44/4 14/17/4 11/53/4 10/54/4
f 31/55/6 32/56/6 27/57/6 29/58/6
f 28/49/2 29/58/2 27/57/2 26/50/2
f 11/53/2 12/30/2 16/29/2 10/54/2
f 38/59/2 40/60/2 37/61/2 36/62/2
f 40/60/6 33/63/6 39/64/6 37/61/6
f 54/65/5 53/66/5 49/67/5 56/68/5
f 48/69/3 44/70/3 47/46/3 43/71/3
f 46/72/6 41/47/6 47/46/6 44/70/6
f 45/73/2 46/72/2 44/70/2 48/74/2
f 42/75/1 41/47/1 46/72/1 45/76/1
f 56/77/1 49/67/1 52/78/1 51/79/1
f 55/80/3 50/81/3 53/66/3 54/82/3
f 52/78/6 49/67/6 53/66/6 50/81/6
f 51/83/2 52/78/2 50/81/2 55/84/2
f 36/85/3 37/61/3 39/64/3 35/86/3
f 34/87/1 33/63/1 40/60/1 38/88/1
f 35/89/5 39/64/5 33/63/5 34/90/5
f 61/91/5 60/92/5 62/93/5 59/94/5
f 58/95/3 61/91/3 59/94/3 57/96/3
f 64/97/2 58/98/2 57/99/2 63/100/2
f 60/92/1 64/97/1 63/100/1 62/93/1
f 59/94/4 62/93/4 63/101/4 57/102/4
f 58/103/6 64/104/6 60/92/6 61/91/6
f 1/105/6 7/106/6 2/3/6 3/2/6
