# Blender v2.91.2 OBJ File: ''
# www.blender.org
mtllib 58.mtl
o Cylinder.036
v -1.000000 1.501155 -0.000000
v -1.482023 2.922441 0.000000
v -0.923879 1.832314 -0.382684
v -0.707107 1.501155 -0.707107
v -1.047949 2.922442 -1.047949
v -0.382683 1.832314 -0.923880
v 0.000000 1.501155 -1.000000
v -0.000000 2.922442 -1.482023
v 0.382684 1.832314 -0.923880
v 0.707107 1.501156 -0.707107
v 1.047949 2.922442 -1.047949
v 0.923880 1.832314 -0.382684
v 1.000000 1.501155 -0.000000
v 1.482023 2.922442 -0.000000
v 0.923880 1.832314 0.382683
v 0.707107 1.501155 0.707106
v 1.047949 2.922442 1.047949
v 0.382684 1.832314 0.923879
v 0.000000 1.501155 1.000000
v -0.000000 2.922441 1.482024
v -0.382683 1.832313 0.923879
v -0.707107 1.501155 0.707106
v -1.047949 2.922441 1.047948
v -0.923880 1.832313 0.382683
v -1.000000 1.250203 -0.000000
v -0.923879 1.250203 -0.382684
v -0.707107 1.250204 -0.707107
v -0.382683 1.250204 -0.923880
v 0.000000 1.250204 -1.000000
v 0.382684 1.250204 -0.923880
v 0.707107 1.250204 -0.707107
v 0.923880 1.250204 -0.382684
v 1.000000 1.250204 -0.000000
v 0.923880 1.250204 0.382683
v 0.707107 1.250204 0.707106
v 0.382684 1.250203 0.923879
v 0.000000 1.250203 1.000000
v -0.382683 1.250203 0.923879
v -0.707107 1.250203 0.707106
v -0.923880 1.250203 0.382683
v -0.619398 1.375680 -0.765712
v -0.707107 1.479139 -0.707107
v -0.707107 1.272222 -0.707107
v -0.765711 1.375680 -0.619399
v -0.741583 1.375680 -0.741583
v 0.103462 1.375682 -0.979424
v -0.103456 1.375682 -0.979424
v 0.000003 1.375682 -1.048759
v 0.000003 1.272223 0.999997
v -0.103456 1.375682 0.979418
v 1.000003 1.479141 -0.000003
v 1.000003 1.272223 -0.000003
v 1.048759 1.375682 -0.000003
v -0.979418 1.375682 0.103456
v -0.979418 1.375682 -0.103462
v 0.765714 1.375682 -0.619401
v 0.619401 1.375682 -0.765714
v -0.619396 1.375682 0.765709
v -0.765709 1.375682 0.619396
v 0.765712 1.375680 0.619398
v 0.707107 1.479139 0.707107
v 0.707107 1.272221 0.707107
v 0.619399 1.375680 0.765711
v 0.741583 1.375680 0.741583
v 0.979424 1.375682 -0.103462
v 0.979424 1.375682 0.103456
v -0.999997 1.479141 -0.000003
v -0.999997 1.272223 -0.000003
v -1.048754 1.375682 -0.000003
v 0.000003 1.479141 -1.000003
v 0.000003 1.272224 -1.000003
v 0.000003 1.479141 0.999997
v 0.103462 1.375682 0.979418
v 0.000003 1.375682 1.048754
v 0.707110 1.479141 -0.707110
v 0.707110 1.272224 -0.707110
v 0.741586 1.375682 -0.741586
v -0.707104 1.479141 0.707104
v -0.707104 1.272223 0.707104
v -0.741580 1.375682 0.741580
v -1.000000 1.501155 -0.000000
v -1.000000 1.501155 -0.000000
v -1.482023 2.922441 0.000000
v -1.047949 2.922442 -1.047949
v -0.707107 1.501155 -0.707107
v -0.707107 1.501155 -0.707107
v -0.000000 2.922442 -1.482023
v 0.000000 1.501155 -1.000000
v 0.000000 1.501155 -1.000000
v 1.047949 2.922442 -1.047949
v 0.707107 1.501156 -0.707107
v 0.707107 1.501156 -0.707107
v 1.482023 2.922442 -0.000000
v 1.000000 1.501155 -0.000000
v 1.000000 1.501155 -0.000000
v 1.047949 2.922442 1.047949
v 0.707107 1.501155 0.707106
v 0.707107 1.501155 0.707106
v -0.000000 2.922441 1.482024
v 0.000000 1.501155 1.000000
v 0.000000 1.501155 1.000000
v -1.047949 2.922441 1.047948
v -0.707107 1.501155 0.707106
v -0.707107 1.501155 0.707106
v -0.923879 1.832314 -0.382684
v -0.923879 1.832314 -0.382684
v -0.382683 1.832314 -0.923880
v -0.382683 1.832314 -0.923880
v 0.382684 1.832314 -0.923880
v 0.382684 1.832314 -0.923880
v 0.923880 1.832314 -0.382684
v 0.923880 1.832314 -0.382684
v 0.923880 1.832314 0.382683
v 0.923880 1.832314 0.382683
v 0.382684 1.832314 0.923879
v 0.382684 1.832314 0.923879
v -0.382683 1.832313 0.923879
v -0.382683 1.832313 0.923879
v -0.923880 1.832313 0.382683
v -0.923880 1.832313 0.382683
v -0.741583 1.375680 -0.741583
v -0.741583 1.375680 -0.741583
v -0.741583 1.375680 -0.741583
v -0.707107 1.272222 -0.707107
v -0.707107 1.479139 -0.707107
v -0.619398 1.375680 -0.765712
v -0.765711 1.375680 -0.619399
v 0.103462 1.375682 -0.979424
v 0.000003 1.375682 -1.048759
v 0.000003 1.375682 -1.048759
v 0.000003 1.375682 -1.048759
v -0.103456 1.375682 -0.979424
v 1.048759 1.375682 -0.000003
v 1.048759 1.375682 -0.000003
v 1.048759 1.375682 -0.000003
v 1.000003 1.272223 -0.000003
v 1.000003 1.479141 -0.000003
v 0.741586 1.375682 -0.741586
v 0.741586 1.375682 -0.741586
v 0.741586 1.375682 -0.741586
v 0.707110 1.272224 -0.707110
v 0.707110 1.479141 -0.707110
v 0.765714 1.375682 -0.619401
v 0.619401 1.375682 -0.765714
v -0.741580 1.375682 0.741580
v -0.741580 1.375682 0.741580
v -0.741580 1.375682 0.741580
v -0.707104 1.272223 0.707104
v -0.707104 1.479141 0.707104
v -0.619396 1.375682 0.765709
v -0.765709 1.375682 0.619396
v 0.741583 1.375680 0.741583
v 0.741583 1.375680 0.741583
v 0.741583 1.375680 0.741583
v 0.707107 1.272221 0.707107
v 0.707107 1.479139 0.707107
v 0.765712 1.375680 0.619398
v 0.619399 1.375680 0.765711
v -1.048754 1.375682 -0.000003
v -1.048754 1.375682 -0.000003
v -1.048754 1.375682 -0.000003
v -0.999997 1.272223 -0.000003
v -0.999997 1.479141 -0.000003
v 0.000003 1.479141 0.999997
v 0.000003 1.375682 1.048754
v 0.000003 1.375682 1.048754
v 0.000003 1.375682 1.048754
v 0.103462 1.375682 0.979418
v 0.000003 1.272224 -1.000003
v 0.000003 1.479141 -1.000003
v 0.000003 1.272223 0.999997
v -0.103456 1.375682 0.979418
v 0.979424 1.375682 0.103456
v 0.979424 1.375682 -0.103462
v -0.979418 1.375682 0.103456
v -0.979418 1.375682 -0.103462
vt 0.485343 0.791190
vt 0.497260 0.804099
vt 0.483279 0.817007
vt 0.509178 0.817007
vt 0.497260 0.804099
vt 0.511242 0.791190
vt 0.483279 0.817007
vt 0.497260 0.804099
vt 0.509178 0.817007
vt 0.511242 0.791190
vt 0.497260 0.804099
vt 0.485343 0.791190
vt 0.509178 0.559188
vt 0.497260 0.546279
vt 0.511241 0.533371
vt 0.485343 0.533371
vt 0.497260 0.546279
vt 0.483279 0.559188
vt 0.511241 0.533371
vt 0.497260 0.546279
vt 0.485343 0.533371
vt 0.483279 0.559188
vt 0.497260 0.546279
vt 0.509178 0.559188
vt 0.509178 0.224750
vt 0.511242 0.250566
vt 0.497260 0.237658
vt 0.485343 0.250566
vt 0.483279 0.224750
vt 0.497260 0.237658
vt 0.483279 0.224750
vt 0.509178 0.224750
vt 0.497260 0.237658
vt 0.485343 0.729000
vt 0.497260 0.716092
vt 0.511241 0.729000
vt 0.509178 0.703184
vt 0.497260 0.716092
vt 0.483279 0.703184
vt 0.511241 0.729000
vt 0.497260 0.716092
vt 0.509178 0.703184
vt 0.483279 0.703184
vt 0.497260 0.716092
vt 0.485343 0.729000
vt 0.485343 0.645644
vt 0.483279 0.619828
vt 0.497260 0.632736
vt 0.509178 0.619828
vt 0.511242 0.645644
vt 0.497260 0.632736
vt 0.483279 0.619828
vt 0.509178 0.619828
vt 0.497260 0.632736
vt 0.511242 0.645644
vt 0.485343 0.645644
vt 0.497260 0.632736
vt 0.509178 0.474281
vt 0.497260 0.461373
vt 0.511242 0.448465
vt 0.485343 0.448465
vt 0.497260 0.461373
vt 0.483279 0.474281
vt 0.511242 0.448465
vt 0.497260 0.461373
vt 0.485343 0.448465
vt 0.483279 0.474281
vt 0.497260 0.461373
vt 0.509178 0.474281
vt 0.509178 0.372860
vt 0.511242 0.398676
vt 0.497260 0.385768
vt 0.485343 0.398676
vt 0.483279 0.372860
vt 0.497260 0.385768
vt 0.511242 0.398676
vt 0.485343 0.398676
vt 0.497260 0.385768
vt 0.483279 0.372860
vt 0.509178 0.372860
vt 0.497260 0.385768
vt 0.485343 0.323071
vt 0.483279 0.297254
vt 0.497260 0.310163
vt 0.509178 0.297254
vt 0.511242 0.323071
vt 0.497260 0.310163
vt 0.483279 0.297254
vt 0.509178 0.297254
vt 0.497260 0.310163
vt 0.511242 0.323071
vt 0.485343 0.323071
vt 0.497260 0.310163
vt 0.485343 0.250566
vt 0.497260 0.237658
vt 0.511242 0.250566
vt 0.500047 0.111489
vt 0.500047 0.072483
vt 0.560694 0.072483
vt 0.196808 0.072483
vt 0.257456 0.111489
vt 0.196808 0.162963
vt 0.136160 0.111489
vt 0.136160 0.072483
vt 0.014865 0.111489
vt 0.014865 0.072483
vt 0.075512 0.072483
vt 0.621342 0.111489
vt 0.560694 0.162963
vt 0.439399 0.072483
vt 0.439399 0.162963
vt 0.075512 0.162963
vt 0.621342 0.072483
vt 0.681990 0.072483
vt 0.378751 0.111489
vt 0.378751 0.072483
vt 0.803285 0.072483
vt 0.863933 0.111489
vt 0.803285 0.162963
vt 0.257456 0.072483
vt 0.318103 0.072483
vt 0.742638 0.111489
vt 0.681990 0.162963
vt 0.742638 0.072483
vt 0.318103 0.162963
vt 0.863933 0.072483
vt 0.924581 0.072483
vt 0.407746 0.288804
vt 0.187462 0.212037
vt 0.386901 0.212037
vt 0.650242 0.717574
vt 0.806485 0.593622
vt 0.586201 0.670389
vt 0.586201 0.670389
vt 0.806485 0.593622
vt 0.607046 0.593622
vt 0.650242 0.522131
vt 0.806485 0.398179
vt 0.586201 0.474946
vt 0.586201 0.474946
vt 0.806485 0.398179
vt 0.607046 0.398179
vt 0.607046 0.212037
vt 0.806485 0.212037
vt 0.586201 0.288804
vt 0.586201 0.288804
vt 0.806485 0.212037
vt 0.650242 0.335989
vt 0.343705 0.522131
vt 0.187462 0.398179
vt 0.407746 0.474946
vt 0.407746 0.474946
vt 0.187462 0.398179
vt 0.386901 0.398179
vt 0.650242 0.922319
vt 0.806485 0.798367
vt 0.586201 0.875134
vt 0.586201 0.875134
vt 0.806485 0.798367
vt 0.607046 0.798367
vt 0.343705 0.922319
vt 0.187462 0.798367
vt 0.407746 0.875134
vt 0.407746 0.875134
vt 0.187462 0.798367
vt 0.386901 0.798367
vt 0.386901 0.593622
vt 0.187462 0.593622
vt 0.407746 0.670389
vt 0.407746 0.670389
vt 0.187462 0.593622
vt 0.343705 0.717574
vt 0.343705 0.335989
vt 0.187462 0.212037
vt 0.407746 0.288804
vt 0.985229 0.072483
vt 0.985229 0.111489
vt 0.924581 0.162963
vn -0.1804 -0.3645 -0.9135
vn -0.9135 0.3645 -0.1804
vn -0.1804 0.3645 -0.9135
vn -0.9135 -0.3645 -0.1804
vn 0.5184 -0.3645 -0.7735
vn -0.5184 0.3645 -0.7735
vn 0.5184 0.3645 -0.7735
vn -0.5184 -0.3645 -0.7735
vn 0.5184 -0.3645 0.7735
vn -0.5184 0.3645 0.7735
vn -0.5184 -0.3645 0.7735
vn 0.7735 -0.3645 0.5184
vn 0.7735 0.3645 -0.5184
vn 0.7735 0.3645 0.5184
vn 0.7735 -0.3645 -0.5184
vn -0.7735 -0.3645 0.5184
vn -0.7735 0.3645 -0.5184
vn -0.7735 0.3645 0.5184
vn -0.7735 -0.3645 -0.5184
vn 0.9135 -0.3645 -0.1804
vn 0.1804 0.3645 -0.9135
vn 0.9135 0.3645 -0.1804
vn 0.1804 -0.3645 -0.9135
vn -0.1804 -0.3645 0.9135
vn -0.9135 0.3645 0.1804
vn -0.1804 0.3645 0.9135
vn -0.9135 -0.3645 0.1804
vn 0.9135 -0.3645 0.1804
vn 0.1804 0.3645 0.9135
vn 0.9135 0.3645 0.1804
vn 0.1804 -0.3645 0.9135
vn 0.5184 0.3645 0.7735
vn 0.0000 0.0000 1.0000
vn 0.3827 0.0000 0.9239
vn -0.9239 0.0000 -0.3827
vn -1.0000 0.0000 0.0000
vn -0.7071 0.0000 -0.7071
vn 0.0000 0.0000 -1.0000
vn -0.3827 0.0000 -0.9239
vn 0.7071 0.0000 0.7071
vn -0.3827 0.0000 0.9239
vn 0.9239 0.0000 0.3827
vn -0.7071 0.0000 0.7071
vn 0.9239 0.0000 -0.3827
vn 0.7071 0.0000 -0.7071
vn -0.9239 0.0000 0.3827
vn 1.0000 0.0000 0.0000
vn 0.3827 0.0000 -0.9239
vn -0.8583 -0.2911 -0.4226
vn -0.9057 -0.2911 -0.3081
vn -0.3081 -0.2911 -0.9057
vn -0.4226 -0.2911 -0.8583
vn 0.4226 -0.2911 -0.8583
vn 0.3081 -0.2911 -0.9057
vn 0.9057 -0.2911 -0.3081
vn 0.8583 -0.2911 -0.4226
vn 0.8583 -0.2911 0.4226
vn 0.9057 -0.2911 0.3081
vn 0.3081 -0.2911 0.9057
vn 0.4226 -0.2911 0.8583
vn -0.4226 -0.2911 0.8583
vn -0.3081 -0.2911 0.9057
vn -0.9057 -0.2911 0.3081
vn -0.8583 -0.2911 0.4226
usemtl None
s off
f 43/1/1 121/2/1 41/3/1
f 42/4/2 122/5/2 44/6/2
f 126/7/3 45/8/3 125/9/3
f 127/10/4 123/11/4 124/12/4
f 71/13/5 129/14/5 128/15/5
f 70/16/6 130/17/6 132/18/6
f 46/19/7 131/20/7 170/21/7
f 47/22/8 48/23/8 169/24/8
f 49/25/9 73/26/9 166/27/9
f 72/28/10 50/29/10 165/30/10
f 172/31/11 171/32/11 74/33/11
f 136/34/12 133/35/12 66/36/12
f 137/37/13 134/38/13 65/39/13
f 173/40/14 53/41/14 51/42/14
f 174/43/15 135/44/15 52/45/15
f 162/46/16 54/47/16 159/48/16
f 163/49/17 55/50/17 160/51/17
f 175/52/18 67/53/18 69/54/18
f 176/55/19 68/56/19 161/57/19
f 76/58/20 138/59/20 56/60/20
f 75/61/21 139/62/21 57/63/21
f 143/64/22 77/65/22 142/66/22
f 144/67/23 140/68/23 141/69/23
f 79/70/24 58/71/24 145/72/24
f 78/73/25 59/74/25 146/75/25
f 150/76/26 149/77/26 80/78/26
f 151/79/27 148/80/27 147/81/27
f 62/82/28 60/83/28 152/84/28
f 61/85/29 63/86/29 153/87/29
f 157/88/30 156/89/30 64/90/30
f 158/91/31 155/92/31 154/93/31
f 164/94/32 167/95/32 168/96/32
s 1
f 101/97/33 37/98/33 36/99/34
f 26/100/35 82/101/36 3/102/35
f 86/103/37 27/104/37 26/100/35
f 89/105/38 29/106/38 28/107/39
f 36/99/34 97/108/40 18/109/34
f 38/110/41 101/97/33 21/111/41
f 28/107/39 86/103/37 6/112/39
f 97/108/40 35/113/40 34/114/42
f 104/115/43 39/116/43 38/110/41
f 32/117/44 92/118/45 12/119/44
f 82/101/36 25/120/36 40/121/46
f 34/114/42 95/122/47 15/123/42
f 95/122/47 33/124/47 32/117/44
f 40/121/46 104/115/43 24/125/46
f 92/118/45 31/126/45 30/127/48
f 25/120/36 82/101/36 26/100/35
f 81/128/49 83/129/49 105/130/49
f 106/131/50 84/132/50 85/133/50
f 4/134/51 5/135/51 107/136/51
f 108/137/52 87/138/52 88/139/52
f 7/140/53 8/141/53 109/142/53
f 110/143/54 90/144/54 91/145/54
f 10/146/55 11/147/55 111/148/55
f 112/149/56 93/150/56 94/151/56
f 13/152/57 14/153/57 113/154/57
f 114/155/58 96/156/58 98/157/58
f 16/158/59 17/159/59 115/160/59
f 116/161/60 99/162/60 100/163/60
f 19/164/61 20/165/61 117/166/61
f 118/167/62 102/168/62 103/169/62
f 22/170/63 23/171/63 119/172/63
f 120/173/64 2/174/64 1/175/64
f 31/126/45 92/118/45 32/117/44
f 36/99/34 18/109/34 101/97/33
f 38/110/41 21/111/41 104/115/43
f 29/176/38 89/177/38 30/127/48
f 34/114/42 15/123/42 97/108/40
f 39/116/43 104/115/43 40/121/46
f 27/104/37 86/103/37 28/107/39
f 32/117/44 12/119/44 95/122/47
f 37/98/33 101/97/33 38/110/41
f 30/127/48 9/178/48 92/118/45
f 35/113/40 97/108/40 36/99/34
f 28/107/39 6/112/39 89/105/38
f 33/124/47 95/122/47 34/114/42
f 26/100/35 3/102/35 86/103/37
f 40/121/46 24/125/46 82/101/36
f 30/127/48 89/177/38 9/178/48
