# Blender v3.0.0 OBJ File: 'Patchy.blend'
# www.blender.org
mtllib Patchy.mtl
o Cube.001
v 0.980538 -0.010557 -0.110400
v 0.980538 0.434194 -0.110400
v 0.980538 -0.010557 -0.611469
v 0.980538 0.434194 -0.611469
v 1.094255 0.058555 -0.188264
v 1.094255 0.365082 -0.188264
v 1.094255 0.058555 -0.533605
v 1.094255 0.365082 -0.533605
v 0.980538 -0.058737 -0.502229
v 0.980538 -0.058737 -0.219640
v 0.980538 0.086405 -0.056119
v 0.980538 0.337232 -0.056119
v 0.980538 0.482374 -0.219640
v 0.980538 0.482374 -0.502229
v 0.980538 0.337232 -0.665750
v 0.980538 0.086405 -0.665750
v 1.078239 0.029052 -0.566845
v 1.051553 0.002314 -0.596968
v 1.051553 0.421323 -0.596968
v 1.078239 0.394586 -0.566845
v 1.099784 0.302237 -0.554323
v 1.099784 0.121401 -0.554323
v 1.099784 0.040166 -0.259067
v 1.099784 0.040166 -0.462802
v 1.099784 0.383472 -0.462802
v 1.099784 0.383472 -0.259067
v 1.099784 0.302237 -0.167546
v 1.099784 0.121401 -0.167546
v 1.051553 0.002314 -0.124901
v 1.078239 0.029052 -0.155025
v 1.078239 0.394586 -0.155025
v 1.051553 0.421323 -0.124901
v 1.051962 0.094110 -0.650003
v 1.051962 0.329528 -0.650003
v 1.079769 0.109230 -0.614590
v 1.079769 0.314407 -0.614590
v 1.111615 0.118396 -0.466187
v 1.111615 0.305242 -0.466187
v 1.111615 0.118396 -0.255682
v 1.111615 0.305242 -0.255682
v 1.079769 0.109230 -0.107279
v 1.079769 0.314407 -0.107279
v 1.051962 0.094110 -0.071867
v 1.051962 0.329528 -0.071867
v 1.051962 -0.044759 -0.493549
v 1.079769 -0.013327 -0.476514
v 1.051962 -0.044759 -0.228320
v 1.079769 -0.013327 -0.245356
v 1.079769 0.436965 -0.476514
v 1.051962 0.468397 -0.493549
v 1.079769 0.436965 -0.245356
v 1.051962 0.468397 -0.228320
v -0.944448 0.678581 0.861846
v -0.878613 0.695463 0.924929
v -0.925184 0.690518 0.906452
v -0.879081 0.455701 0.916210
v -0.943221 0.437975 0.849974
v -0.924415 0.450509 0.896810
v -0.879098 0.202739 -0.916210
v -0.943220 0.220291 -0.850622
v -0.924420 0.207880 -0.896999
v -0.944448 -0.020290 -0.862405
v -0.878571 -0.037023 -0.924929
v -0.925172 -0.032122 -0.906616
v 0.849752 0.695463 0.924929
v 0.915587 0.678581 0.861846
v 0.896323 0.690518 0.906452
v 0.914360 0.437975 0.849974
v 0.850220 0.455701 0.916210
v 0.895554 0.450509 0.896809
v 0.914360 0.220291 -0.850622
v 0.850237 0.202739 -0.916210
v 0.895559 0.207880 -0.896999
v 0.849710 -0.037023 -0.924929
v 0.915588 -0.020290 -0.862405
v 0.896311 -0.032122 -0.906616
v -0.997228 0.684501 0.914111
v -0.931749 0.701300 0.976882
v -0.978067 0.696379 0.958496
v -1.048520 0.686920 0.965397
v -0.984157 0.703478 1.027268
v -1.029686 0.698628 1.009147
v -1.070019 0.678299 0.987192
v -1.007421 0.694598 1.048097
v -1.051700 0.689824 1.030259
v -1.077123 0.663767 0.994043
v -1.015683 0.679983 1.054636
v -1.059140 0.675233 1.036889
v -1.079466 0.543183 0.992411
v -1.018465 0.559498 1.053376
v -1.061590 0.554719 1.035520
v -1.076170 0.525017 0.987666
v -1.015026 0.541592 1.049604
v -1.058249 0.536737 1.031463
v -1.068858 0.506204 0.978523
v -1.007022 0.523155 1.041863
v -1.050731 0.518190 1.023311
v -1.047227 0.485462 0.955024
v -0.984284 0.502843 1.019972
v -1.028773 0.497752 1.000949
v -0.995942 0.460187 0.902831
v -0.932107 0.477830 0.968755
v -0.977226 0.472663 0.949446
v -0.997228 -0.026217 -0.914692
v -0.931706 -0.042860 -0.976882
v -0.978055 -0.037985 -0.958667
v -1.048521 -0.028653 -0.966046
v -0.984108 -0.045038 -1.027268
v -1.029672 -0.040239 -1.009336
v -1.070020 -0.020059 -0.987940
v -1.007364 -0.036158 -1.048097
v -1.051683 -0.031443 -1.030478
v -1.077124 -0.005559 -0.994910
v -1.015616 -0.021543 -1.054636
v -1.059121 -0.016861 -1.037143
v -1.080191 0.010726 -0.997194
v -1.019219 -0.005324 -1.057167
v -1.062342 -0.000623 -1.039602
v -1.076170 0.133142 -0.988718
v -1.015053 0.116848 -1.049604
v -1.058257 0.121620 -1.031771
v -1.068857 0.151998 -0.979414
v -1.007044 0.135285 -1.041862
v -1.050737 0.140180 -1.023572
v -1.047227 0.172776 -0.955778
v -0.984303 0.155597 -1.019972
v -1.028779 0.160629 -1.001170
v -0.995941 0.198072 -0.903505
v -0.932125 0.180610 -0.968755
v -0.977230 0.185725 -0.949643
v 0.902845 -0.042860 -0.976882
v 0.968368 -0.026217 -0.914692
v 0.949195 -0.037985 -0.958667
v 0.955247 -0.045038 -1.027268
v 1.019660 -0.028653 -0.966046
v 1.000811 -0.040239 -1.009336
v 0.978503 -0.036158 -1.048097
v 1.041159 -0.020059 -0.987940
v 1.022822 -0.031443 -1.030478
v 0.986756 -0.021543 -1.054636
v 1.048263 -0.005559 -0.994910
v 1.030260 -0.016861 -1.037143
v 0.990359 -0.005324 -1.057167
v 1.051330 0.010726 -0.997194
v 1.033481 -0.000623 -1.039602
v 0.986192 0.116848 -1.049604
v 1.047309 0.133142 -0.988718
v 1.029396 0.121620 -1.031771
v 0.978184 0.135285 -1.041862
v 1.039997 0.151998 -0.979414
v 1.021877 0.140180 -1.023571
v 0.955443 0.155597 -1.019972
v 1.018366 0.172776 -0.955778
v 0.999918 0.160629 -1.001170
v 0.903264 0.180610 -0.968755
v 0.967081 0.198072 -0.903505
v 0.948370 0.185725 -0.949643
v 0.967081 0.460187 0.902831
v 0.903247 0.477830 0.968755
v 0.948365 0.472663 0.949446
v 1.018367 0.485462 0.955024
v 0.955423 0.502843 1.019972
v 0.999913 0.497752 1.000949
v 1.039997 0.506204 0.978523
v 0.978161 0.523155 1.041863
v 1.021870 0.518190 1.023311
v 1.047310 0.525017 0.987666
v 0.986166 0.541592 1.049604
v 1.029388 0.536737 1.031463
v 1.050606 0.543183 0.992411
v 0.989605 0.559498 1.053376
v 1.032730 0.554719 1.035520
v 1.048263 0.663767 0.994043
v 0.986822 0.679983 1.054636
v 1.030279 0.675233 1.036889
v 1.041159 0.678299 0.987192
v 0.978561 0.694598 1.048097
v 1.022839 0.689824 1.030259
v 1.019660 0.686920 0.965397
v 0.955296 0.703478 1.027268
v 1.000825 0.698628 1.009147
v 0.968367 0.684501 0.914111
v 0.902888 0.701300 0.976882
v 0.949207 0.696379 0.958496
vt 0.918706 0.367404
vt 0.865769 0.421880
vt 0.779573 0.373813
vt 0.808038 0.300147
vt 0.566092 0.377803
vt 0.480186 0.426567
vt 0.425094 0.372486
vt 0.536712 0.300147
vt 0.783695 0.901922
vt 0.812307 0.978286
vt 0.545023 0.978294
vt 0.572782 0.905825
vt 0.763195 0.415038
vt 0.582664 0.418073
vt 0.835536 0.455861
vt 0.752237 0.470925
vt 0.594608 0.473316
vt 0.807937 0.487832
vt 0.511145 0.459993
vt 0.539397 0.491344
vt 0.755865 0.807537
vt 0.767489 0.862180
vt 0.588804 0.865124
vt 0.599475 0.809784
vt 0.755278 0.548248
vt 0.593282 0.550493
vt 0.757353 0.730938
vt 0.596085 0.733005
vt 0.524555 0.553755
vt 0.527437 0.731799
vt 0.824174 0.549974
vt 0.825900 0.728127
vt 0.810656 0.789975
vt 0.544123 0.793363
vt 0.435733 0.523483
vt 0.358429 0.497038
vt 0.838380 0.821182
vt 0.868563 0.854391
vt 0.517060 0.825212
vt 0.921946 0.907568
vt 0.436329 0.912553
vt 0.487604 0.858981
vt 0.439567 0.765416
vt 0.367775 0.795047
vt 0.474139 0.540937
vt 0.477442 0.746086
vt 0.876081 0.741421
vt 0.874405 0.536182
vt 0.987160 0.787155
vt 0.914306 0.759353
vt 0.912511 0.517371
vt 0.988815 0.489039
vt 0.334926 0.340981
vt 0.337547 0.337996
vt 0.337548 0.580010
vt 0.334926 0.577025
vt 0.339337 0.336616
vt 0.339337 0.581388
vt 0.104493 0.988454
vt 0.085882 0.745400
vt 0.100492 0.744621
vt 0.119051 0.987000
vt 0.163586 0.049216
vt 0.165847 0.050006
vt 0.165795 0.295116
vt 0.163535 0.295905
vt 0.168197 0.051293
vt 0.168147 0.293830
vt 0.171706 0.054245
vt 0.171657 0.290880
vt 0.178543 0.060684
vt 0.178496 0.284445
vt 0.429793 0.054343
vt 0.429792 0.290789
vt 0.423804 0.284349
vt 0.423806 0.060779
vt 0.322567 0.353890
vt 0.328876 0.347403
vt 0.328876 0.570605
vt 0.322565 0.564125
vt 0.179778 0.298427
vt 0.186757 0.292147
vt 0.416063 0.292259
vt 0.422280 0.298508
vt 0.083878 0.347325
vt 0.083928 0.570701
vt 0.077061 0.577114
vt 0.077008 0.340912
vt 0.073500 0.580028
vt 0.073445 0.337998
vt 0.071097 0.581259
vt 0.071041 0.336769
vt 0.000095 0.486460
vt 0.007222 0.242616
vt 0.022060 0.243556
vt 0.014963 0.486389
vt 0.435877 0.048829
vt 0.435877 0.296306
vt 0.434014 0.295236
vt 0.434015 0.049898
vt 0.432321 0.293805
vt 0.432323 0.051328
vt 0.417515 0.277842
vt 0.417511 0.067275
vt 0.314672 0.572094
vt 0.321026 0.578539
vt 0.092119 0.578421
vt 0.099045 0.571979
vt 0.327201 0.584843
vt 0.085142 0.584729
vt 0.329667 0.587880
vt 0.081584 0.587750
vt 0.330339 0.589989
vt 0.079624 0.589729
vt 0.083044 0.734251
vt 0.002294 0.497626
vt 0.017199 0.497650
vt 0.097665 0.733462
vt 0.172691 0.305195
vt 0.174260 0.303313
vt 0.425613 0.303510
vt 0.425873 0.305674
vt 0.176225 0.301395
vt 0.424823 0.301468
vt 0.193688 0.285711
vt 0.409680 0.285830
vt 0.321020 0.339464
vt 0.092072 0.339597
vt 0.085091 0.333289
vt 0.327196 0.333159
vt 0.081530 0.330268
vt 0.329664 0.330121
vt 0.079567 0.328287
vt 0.330336 0.328011
vt 0.010070 0.231598
vt 0.104501 0.000095
vt 0.119051 0.001736
vt 0.024950 0.232445
vt 0.172746 0.039930
vt 0.425878 0.039468
vt 0.425618 0.041630
vt 0.174313 0.041811
vt 0.424829 0.043671
vt 0.176278 0.043729
vt 0.422287 0.046629
vt 0.179832 0.046698
vt 0.416074 0.052878
vt 0.186811 0.052978
vt 0.185429 0.067184
vt 0.185387 0.277956
vt 0.409702 0.059309
vt 0.193750 0.059411
vt 0.099005 0.346034
vt 0.314658 0.345907
vt 0.090821 0.564224
vt 0.090773 0.353806
vt 0.326568 0.341804
vt 0.320251 0.348245
vt 0.332630 0.335524
vt 0.335107 0.332615
vt 0.336355 0.330747
vt 0.117956 0.998459
vt 0.103386 0.999905
vt 0.104334 0.994147
vt 0.118898 0.992725
vt 0.168612 0.044520
vt 0.166512 0.043128
vt 0.170753 0.046068
vt 0.174158 0.048944
vt 0.180980 0.055243
vt 0.187868 0.061689
vt 0.421534 0.055208
vt 0.415235 0.061631
vt 0.427534 0.049006
vt 0.429918 0.046239
vt 0.431080 0.044546
vt 0.432272 0.042660
vt 0.022951 0.237923
vt 0.008101 0.237004
vt 0.075930 0.332625
vt 0.073664 0.331031
vt 0.079424 0.335547
vt 0.086290 0.341869
vt 0.093185 0.348313
vt 0.421528 0.289924
vt 0.415220 0.283491
vt 0.427530 0.296130
vt 0.429916 0.298898
vt 0.431078 0.300592
vt 0.432271 0.302478
vt 0.015523 0.492065
vt 0.000645 0.492115
vt 0.075986 0.585397
vt 0.073723 0.586991
vt 0.079478 0.582475
vt 0.086339 0.576153
vt 0.093225 0.569712
vt 0.180929 0.289885
vt 0.187811 0.283446
vt 0.174106 0.296181
vt 0.170700 0.299055
vt 0.168559 0.300603
vt 0.166459 0.301994
vt 0.099470 0.738985
vt 0.084859 0.739797
vt 0.335108 0.585388
vt 0.336355 0.587255
vt 0.332632 0.582479
vt 0.326571 0.576202
vt 0.320260 0.569767
vn 0.2519 0.7129 -0.6544
vn 0.5422 0.6220 -0.5649
vn 0.5370 0.2185 -0.8148
vn 0.2397 0.2549 -0.9368
vn 0.5370 -0.2185 -0.8148
vn 0.5422 -0.6220 -0.5649
vn 0.2519 -0.7129 -0.6544
vn 0.2397 -0.2549 -0.9368
vn 0.5370 0.2185 0.8148
vn 0.2397 0.2549 0.9368
vn 0.2397 -0.2549 0.9368
vn 0.5370 -0.2185 0.8148
vn 0.8811 0.1192 -0.4577
vn 0.8811 -0.1192 -0.4577
vn 0.8793 0.3565 -0.3156
vn 0.9715 0.0768 -0.2241
vn 0.9715 -0.0768 -0.2241
vn 0.9582 0.2153 -0.1881
vn 0.8793 -0.3565 -0.3156
vn 0.9582 -0.2153 -0.1881
vn 0.9715 0.0768 0.2241
vn 0.8811 0.1192 0.4577
vn 0.8811 -0.1192 0.4577
vn 0.9715 -0.0768 0.2241
vn 0.9951 0.0738 -0.0658
vn 0.9951 -0.0738 -0.0658
vn 0.9951 0.0738 0.0658
vn 0.9951 -0.0738 0.0658
vn 0.9662 -0.2490 -0.0661
vn 0.9662 -0.2490 0.0661
vn 0.9662 0.2490 -0.0661
vn 0.9662 0.2490 0.0661
vn 0.9582 0.2153 0.1881
vn 0.9582 -0.2153 0.1881
vn 0.5134 -0.8381 -0.1844
vn 0.2177 -0.9524 -0.2133
vn 0.8793 0.3565 0.3156
vn 0.5422 0.6220 0.5649
vn 0.8793 -0.3565 0.3156
vn 0.2519 0.7129 0.6544
vn 0.2519 -0.7129 0.6544
vn 0.5422 -0.6220 0.5649
vn 0.5134 -0.8381 0.1844
vn 0.2177 -0.9524 0.2133
vn 0.8615 -0.4976 -0.1011
vn 0.8615 -0.4976 0.1011
vn 0.8615 0.4976 0.1011
vn 0.8615 0.4976 -0.1011
vn 0.2177 0.9524 0.2133
vn 0.5134 0.8381 0.1844
vn 0.5134 0.8381 -0.1844
vn 0.2177 0.9524 -0.2133
vn -0.0542 0.9872 0.1498
vn -0.1484 0.7562 0.6372
vn 0.1484 0.7562 0.6372
vn 0.0542 0.9872 0.1498
vn -0.2197 0.2571 0.9411
vn 0.2197 0.2571 0.9411
vn -0.1965 -0.1183 0.9733
vn 0.1965 -0.1183 0.9733
vn -0.1716 -0.3360 0.9261
vn 0.1716 -0.3360 0.9261
vn -0.1202 -0.6041 0.7877
vn 0.1202 -0.6041 0.7877
vn -0.0514 -0.8366 0.5453
vn 0.0514 -0.8366 0.5453
vn -0.0250 -0.9180 0.3957
vn 0.0250 -0.9180 0.3957
vn -0.0537 -0.9872 -0.1500
vn 0.0537 -0.9872 -0.1500
vn 0.0249 -0.9948 0.0987
vn -0.0249 -0.9948 0.0987
vn -0.0143 0.9919 -0.1260
vn -0.0251 0.9948 -0.0989
vn 0.0251 0.9948 -0.0989
vn 0.0143 0.9919 -0.1260
vn 0.3549 -0.8902 0.2854
vn 0.1565 -0.9478 0.2776
vn 0.1568 -0.9603 0.2306
vn 0.3589 -0.9146 0.1861
vn -0.0248 0.9179 -0.3959
vn 0.0248 0.9179 -0.3959
vn 0.0508 0.8365 -0.5455
vn -0.0508 0.8365 -0.5455
vn 0.1187 0.6041 -0.7880
vn -0.1187 0.6041 -0.7880
vn 0.1870 0.2505 -0.9499
vn -0.1870 0.2505 -0.9499
vn 0.2079 -0.0675 -0.9758
vn -0.2079 -0.0675 -0.9758
vn 0.2051 -0.3471 -0.9151
vn -0.2051 -0.3471 -0.9151
vn 0.1468 -0.7561 -0.6377
vn -0.1468 -0.7561 -0.6377
vn 0.0141 -0.9919 0.1259
vn -0.0141 -0.9919 0.1259
vn 0.1320 0.9612 -0.2422
vn 0.1569 0.9602 -0.2308
vn 0.1563 0.9478 -0.2777
vn 0.1325 0.9540 -0.2688
vn 0.3592 0.9144 -0.1866
vn 0.3547 0.8902 -0.2858
vn 0.7267 0.6863 -0.0293
vn 0.7004 0.6524 -0.2895
vn 0.9576 0.2456 0.1502
vn 0.9297 0.2592 -0.2616
vn 0.9672 -0.1079 0.2300
vn 0.9790 -0.0810 -0.1870
vn 0.9000 -0.3455 0.2656
vn 0.9337 -0.3389 -0.1155
vn 0.7012 -0.6520 0.2885
vn 0.7261 -0.6870 0.0281
vn 0.1326 -0.9540 0.2687
vn 0.1318 -0.9612 0.2420
vn -0.1569 0.9602 -0.2308
vn -0.1563 0.9478 -0.2777
vn -0.3547 0.8902 -0.2858
vn -0.3592 0.9144 -0.1866
vn -0.7004 0.6524 -0.2895
vn -0.7267 0.6863 -0.0293
vn -0.9297 0.2592 -0.2616
vn -0.9576 0.2456 0.1502
vn -0.9790 -0.0810 -0.1870
vn -0.9672 -0.1079 0.2300
vn -0.9337 -0.3389 -0.1155
vn -0.9000 -0.3455 0.2656
vn -0.7261 -0.6870 0.0281
vn -0.7012 -0.6520 0.2885
vn -0.3589 -0.9146 0.1861
vn -0.3549 -0.8902 0.2854
vn -0.1568 -0.9603 0.2306
vn -0.1565 -0.9478 0.2776
vn -0.0149 -0.9268 0.3752
vn 0.0149 -0.9268 0.3752
vn -0.1318 -0.9612 0.2420
vn -0.1326 -0.9540 0.2687
vn -0.1325 0.9540 -0.2688
vn -0.1320 0.9612 -0.2422
vn 0.0148 0.9268 -0.3753
vn -0.0148 0.9268 -0.3753
vn -0.0938 0.9819 -0.1642
vn -0.0735 0.9800 -0.1850
vn -0.2304 0.9730 -0.0099
vn -0.5186 0.7732 0.3648
vn -0.7037 0.2904 0.6485
vn -0.6881 -0.1274 0.7143
vn -0.6126 -0.3840 0.6908
vn -0.4572 -0.6579 0.5984
vn -0.2153 -0.8746 0.4343
vn -0.0928 -0.9360 0.3395
vn -0.0742 -0.9436 0.3227
vn -0.0933 -0.9821 0.1638
vn -0.0731 -0.9801 0.1847
vn -0.2292 -0.9733 0.0088
vn -0.5158 -0.7740 -0.3672
vn -0.6825 -0.4004 -0.6114
vn -0.7116 -0.0904 -0.6967
vn -0.6509 0.2752 -0.7075
vn -0.4540 0.6583 -0.6004
vn -0.2140 0.8745 -0.4352
vn -0.0923 0.9359 -0.3399
vn -0.0739 0.9435 -0.3230
vn 0.0933 -0.9821 0.1638
vn 0.0731 -0.9801 0.1847
vn 0.2292 -0.9733 0.0088
vn 0.5158 -0.7740 -0.3672
vn 0.6825 -0.4004 -0.6114
vn 0.7116 -0.0904 -0.6967
vn 0.6509 0.2752 -0.7075
vn 0.4540 0.6583 -0.6004
vn 0.2140 0.8745 -0.4352
vn 0.0923 0.9359 -0.3399
vn 0.0739 0.9435 -0.3230
vn 0.0928 -0.9360 0.3395
vn 0.0742 -0.9436 0.3227
vn 0.2153 -0.8746 0.4343
vn 0.4572 -0.6579 0.5984
vn 0.6126 -0.3840 0.6908
vn 0.6881 -0.1274 0.7143
vn 0.7037 0.2904 0.6485
vn 0.5186 0.7732 0.3648
vn 0.2304 0.9730 -0.0099
vn 0.0938 0.9819 -0.1642
vn 0.0735 0.9800 -0.1850
usemtl None
s 1
f 4/1/1 19/2/2 34/3/3 15/4/4
f 33/5/5 18/6/6 3/7/7 16/8/8
f 44/9/9 12/10/10 11/11/11 43/12/12
f 34/3/3 36/13/13 35/14/14 33/5/5
f 19/2/2 20/15/15 36/13/13 34/3/3
f 36/13/13 21/16/16 22/17/17 35/14/14
f 20/15/15 8/18/18 21/16/16 36/13/13
f 33/5/5 35/14/14 17/19/19 18/6/6
f 35/14/14 22/17/17 7/20/20 17/19/19
f 27/21/21 42/22/22 41/23/23 28/24/24
f 21/16/16 38/25/25 37/26/26 22/17/17
f 37/26/26 38/25/25 40/27/27 39/28/28
f 24/29/29 37/26/26 39/28/28 23/30/30
f 21/16/16 8/18/18 25/31/31 38/25/25
f 40/27/27 26/32/32 6/33/33 27/21/21
f 23/30/30 39/28/28 28/24/24 5/34/34
f 22/17/17 37/26/26 24/29/29 7/20/20
f 39/28/28 40/27/27 27/21/21 28/24/24
f 45/35/35 9/36/36 3/7/7 18/6/6
f 38/25/25 25/31/31 26/32/32 40/27/27
f 42/22/22 44/9/9 43/12/12 41/23/23
f 31/37/37 32/38/38 44/9/9 42/22/22
f 28/24/24 41/23/23 30/39/39 5/34/34
f 32/38/38 2/40/40 12/10/10 44/9/9
f 43/12/12 11/11/11 1/41/41 29/42/42
f 41/23/23 43/12/12 29/42/42 30/39/39
f 45/35/35 47/43/43 10/44/44 9/36/36
f 6/33/33 31/37/37 42/22/22 27/21/21
f 47/43/43 29/42/42 1/41/41 10/44/44
f 17/19/19 46/45/45 45/35/35 18/6/6
f 24/29/29 46/45/45 17/19/19 7/20/20
f 5/34/34 30/39/39 48/46/46 23/30/30
f 46/45/45 48/46/46 47/43/43 45/35/35
f 23/30/30 48/46/46 46/45/45 24/29/29
f 51/47/47 26/32/32 25/31/31 49/48/48
f 13/49/49 52/50/50 50/51/51 14/52/52
f 48/46/46 30/39/39 29/42/42 47/43/43
f 19/2/2 50/51/51 49/48/48 20/15/15
f 32/38/38 52/50/50 13/49/49 2/40/40
f 50/51/51 52/50/50 51/47/47 49/48/48
f 14/52/52 50/51/51 19/2/2 4/1/1
f 49/48/48 25/31/31 8/18/18 20/15/15
f 26/32/32 51/47/47 31/37/37 6/33/33
f 52/50/50 32/38/38 31/37/37 51/47/47
f 15/4/4 34/3/3 33/5/5 16/8/8
f 81/53/53 84/54/54 177/55/55 180/56/56
f 84/54/54 87/57/57 174/58/58 177/55/55
f 90/59/59 171/60/60 174/61/58 87/62/57
f 90/63/59 93/64/61 168/65/62 171/66/60
f 93/64/61 96/67/63 165/68/64 168/65/62
f 96/67/63 99/69/65 162/70/66 165/68/64
f 99/69/65 102/71/67 159/72/68 162/70/66
f 108/73/69 134/74/70 131/75/71 105/76/72
f 54/77/73 78/78/74 183/79/75 65/80/76
f 161/81/77 158/82/78 132/83/79 135/84/80
f 129/85/81 155/86/82 152/87/83 126/88/84
f 126/88/84 152/87/83 149/89/85 123/90/86
f 123/90/86 149/89/85 146/91/87 120/92/88
f 143/93/89 117/94/90 120/95/88 146/96/87
f 117/97/90 143/98/89 140/99/91 114/100/92
f 114/100/92 140/99/91 137/101/93 111/102/94
f 111/102/94 137/101/93 134/74/70 108/73/69
f 131/75/71 74/103/95 63/104/96 105/76/72
f 66/105/97 182/106/98 156/107/99 71/108/100
f 182/106/98 179/109/101 153/110/102 156/107/99
f 179/109/101 176/111/103 150/112/104 153/110/102
f 176/111/103 173/113/105 147/114/106 150/112/104
f 170/115/107 144/116/108 147/117/106 173/118/105
f 170/119/107 167/120/109 141/121/110 144/122/108
f 167/120/109 164/123/111 138/124/112 141/121/110
f 164/123/111 161/81/77 135/84/80 138/124/112
f 158/82/78 68/125/113 75/126/114 132/83/79
f 78/78/74 81/53/53 180/56/56 183/79/75
f 77/127/115 128/128/116 125/129/117 80/130/118
f 80/130/118 125/129/117 122/131/119 83/132/120
f 83/132/120 122/131/119 119/133/121 86/134/122
f 116/135/123 89/136/124 86/137/122 119/138/121
f 89/139/124 116/140/123 113/141/125 92/142/126
f 92/142/126 113/141/125 110/143/127 95/144/128
f 95/144/128 110/143/127 107/145/129 98/146/130
f 98/146/130 107/145/129 104/147/131 101/148/132
f 102/71/67 56/149/133 69/150/134 159/72/68
f 104/147/131 62/151/135 57/152/136 101/148/132
f 60/153/137 128/128/116 77/127/115 53/154/138
f 72/155/139 155/86/82 129/85/81 59/156/140
f 53/154/138 77/127/115 79/157/141 55/158/142
f 55/158/142 79/157/141 78/78/74 54/77/73
f 77/127/115 80/130/118 82/159/143 79/157/141
f 79/157/141 82/159/143 81/53/53 78/78/74
f 80/130/118 83/132/120 85/160/144 82/159/143
f 82/159/143 85/160/144 84/54/54 81/53/53
f 83/132/120 86/134/122 88/161/145 85/160/144
f 85/160/144 88/161/145 87/57/57 84/54/54
f 86/162/122 89/163/124 91/164/146 88/165/145
f 88/165/145 91/164/146 90/59/59 87/62/57
f 89/139/124 92/142/126 94/166/147 91/167/146
f 91/167/146 94/166/147 93/64/61 90/63/59
f 92/142/126 95/144/128 97/168/148 94/166/147
f 94/166/147 97/168/148 96/67/63 93/64/61
f 95/144/128 98/146/130 100/169/149 97/168/148
f 97/168/148 100/169/149 99/69/65 96/67/63
f 98/146/130 101/148/132 103/170/150 100/169/149
f 100/169/149 103/170/150 102/71/67 99/69/65
f 101/148/132 57/152/136 58/171/151 103/170/150
f 103/170/150 58/171/151 56/149/133 102/71/67
f 62/151/135 104/147/131 106/172/152 64/173/153
f 64/173/153 106/172/152 105/76/72 63/104/96
f 104/147/131 107/145/129 109/174/154 106/172/152
f 106/172/152 109/174/154 108/73/69 105/76/72
f 107/145/129 110/143/127 112/175/155 109/174/154
f 109/174/154 112/175/155 111/102/94 108/73/69
f 110/143/127 113/141/125 115/176/156 112/175/155
f 112/175/155 115/176/156 114/100/92 111/102/94
f 113/141/125 116/140/123 118/177/157 115/176/156
f 115/176/156 118/177/157 117/97/90 114/100/92
f 116/135/123 119/138/121 121/178/158 118/179/157
f 118/179/157 121/178/158 120/95/88 117/94/90
f 119/133/121 122/131/119 124/180/159 121/181/158
f 121/181/158 124/180/159 123/90/86 120/92/88
f 122/131/119 125/129/117 127/182/160 124/180/159
f 124/180/159 127/182/160 126/88/84 123/90/86
f 125/129/117 128/128/116 130/183/161 127/182/160
f 127/182/160 130/183/161 129/85/81 126/88/84
f 128/128/116 60/153/137 61/184/162 130/183/161
f 130/183/161 61/184/162 59/156/140 129/85/81
f 74/103/95 131/75/71 133/185/163 76/186/164
f 76/186/164 133/185/163 132/83/79 75/126/114
f 131/75/71 134/74/70 136/187/165 133/185/163
f 133/185/163 136/187/165 135/84/80 132/83/79
f 134/74/70 137/101/93 139/188/166 136/187/165
f 136/187/165 139/188/166 138/124/112 135/84/80
f 137/101/93 140/99/91 142/189/167 139/188/166
f 139/188/166 142/189/167 141/121/110 138/124/112
f 140/99/91 143/98/89 145/190/168 142/189/167
f 142/189/167 145/190/168 144/122/108 141/121/110
f 143/93/89 146/96/87 148/191/169 145/192/168
f 145/192/168 148/191/169 147/117/106 144/116/108
f 146/91/87 149/89/85 151/193/170 148/194/169
f 148/194/169 151/193/170 150/112/104 147/114/106
f 149/89/85 152/87/83 154/195/171 151/193/170
f 151/193/170 154/195/171 153/110/102 150/112/104
f 152/87/83 155/86/82 157/196/172 154/195/171
f 154/195/171 157/196/172 156/107/99 153/110/102
f 155/86/82 72/155/139 73/197/173 157/196/172
f 157/196/172 73/197/173 71/108/100 156/107/99
f 68/125/113 158/82/78 160/198/174 70/199/175
f 70/199/175 160/198/174 159/72/68 69/150/134
f 158/82/78 161/81/77 163/200/176 160/198/174
f 160/198/174 163/200/176 162/70/66 159/72/68
f 161/81/77 164/123/111 166/201/177 163/200/176
f 163/200/176 166/201/177 165/68/64 162/70/66
f 164/123/111 167/120/109 169/202/178 166/201/177
f 166/201/177 169/202/178 168/65/62 165/68/64
f 167/120/109 170/119/107 172/203/179 169/202/178
f 169/202/178 172/203/179 171/66/60 168/65/62
f 170/115/107 173/118/105 175/204/180 172/205/179
f 172/205/179 175/204/180 174/61/58 171/60/60
f 173/113/105 176/111/103 178/206/181 175/207/180
f 175/207/180 178/206/181 177/55/55 174/58/58
f 176/111/103 179/109/101 181/208/182 178/206/181
f 178/206/181 181/208/182 180/56/56 177/55/55
f 179/109/101 182/106/98 184/209/183 181/208/182
f 181/208/182 184/209/183 183/79/75 180/56/56
f 182/106/98 66/105/97 67/210/184 184/209/183
f 184/209/183 67/210/184 65/80/76 183/79/75
