# Blender v3.0.0 OBJ File: 'Bad_News.blend'
# www.blender.org
mtllib Bad_News.mtl
o Plane
v 0.738978 0.334165 1.842215
v 1.003934 -1.500098 0.942808
v 1.003934 1.500098 -0.942808
v 0.778602 -0.277267 -1.810019
v 1.231987 0.917132 0.398584
v 1.231987 -0.917132 -0.398584
v 1.030996 0.625649 1.069280
v 1.095952 -1.208615 0.272112
v 1.030997 -0.625648 -1.069280
v 1.095952 1.208615 -0.272112
v 0.938978 -0.582967 1.341392
v 0.995959 0.582967 -1.341392
v 1.231987 0.000000 0.000000
v 1.107518 -0.291483 0.670696
v 1.063474 0.291483 -0.670696
v 0.857319 0.334165 1.656426
v 1.072858 -1.345024 0.942808
v 1.072858 1.385759 -0.942808
v 0.830785 -0.277267 -1.867198
v 1.245909 0.917132 0.398584
v 1.245909 -0.917132 -0.398584
v 1.084534 0.625649 1.069280
v 1.137375 -1.208615 0.272112
v 1.084534 -0.625648 -1.069280
v 1.137375 1.208615 -0.272112
v 1.020017 -0.582967 1.341392
v 1.020017 0.582967 -1.341392
v 1.245909 -0.000000 0.000000
v 1.110955 -0.291483 0.670696
v 1.110955 0.291483 -0.670696
v 0.938419 0.334165 1.764570
v 1.116139 -1.387846 0.881179
v 1.116139 1.385759 -0.942808
v 0.916542 -0.277267 -1.756216
v 1.247098 0.917132 0.398584
v 1.247098 -0.917132 -0.398584
v 1.116041 0.546428 1.069280
v 1.159610 -1.208615 0.272112
v 1.116041 -0.584301 -1.069280
v 1.159610 1.250095 -0.272112
v 1.072570 -0.582967 1.384931
v 1.072570 0.582967 -1.378594
v 1.247098 -0.000000 0.000000
v 1.137826 -0.291483 0.670696
v 1.137826 0.291483 -0.670696
vt 0.614526 0.795413
vt 0.615894 0.615403
vt 0.769977 0.616988
vt 0.746651 0.795977
vt 0.345937 0.795424
vt 0.345695 0.615452
vt 0.479481 0.615517
vt 0.479470 0.795435
vt 0.210880 0.795642
vt 0.213128 0.615403
vt 0.479452 0.975365
vt 0.613242 0.975404
vt 0.185686 0.985401
vt 0.343040 0.975896
vt 0.745800 0.975833
vt 0.301963 0.425716
vt 0.483491 0.427282
vt 0.484569 0.591785
vt 0.301329 0.559406
vt 0.302822 0.155441
vt 0.484569 0.157308
vt 0.483934 0.291432
vt 0.302369 0.290694
vt 0.304408 0.021495
vt 0.459937 0.035269
vt 0.120918 0.290300
vt 0.120537 0.424339
vt 0.126323 0.029049
vt 0.120988 0.154617
vt 0.138863 0.549307
vt 0.781686 0.165950
vt 0.605536 0.163951
vt 0.603626 0.021495
vt 0.777880 0.025368
vt 0.784121 0.436643
vt 0.601061 0.437730
vt 0.599859 0.302947
vt 0.782896 0.301300
vt 0.788402 0.578268
vt 0.616261 0.553199
vt 0.965926 0.299652
vt 0.971709 0.161798
vt 0.971709 0.577221
vt 0.953919 0.441423
vt 0.944668 0.039261
vn 0.9808 0.0378 -0.1911
vn 0.9724 0.0299 -0.2314
vn 0.9726 -0.0239 -0.2313
vn 0.9851 -0.0004 -0.1718
vn 0.9763 -0.0446 0.2117
vn 0.9845 -0.0604 0.1649
vn 0.9845 -0.0751 0.1585
vn 0.9804 -0.0637 0.1863
vn 0.9704 -0.0243 0.2402
vn 0.9842 -0.0458 0.1713
vn 0.9744 0.0749 -0.2121
vn 0.9694 0.0832 -0.2309
vn 0.9789 0.0667 -0.1933
vn 0.9875 0.0458 -0.1507
vn 0.9532 -0.0045 0.3023
vn 0.9653 -0.0278 0.2597
vn 0.9754 -0.0523 0.2139
vn 0.9939 0.0248 -0.1074
vn 0.9847 0.0320 -0.1712
vn 0.9775 0.0338 -0.2080
vn 0.9736 0.0006 -0.2283
vn 0.9846 0.0034 -0.1747
vn 0.9839 -0.0310 0.1760
vn 0.9902 -0.0318 0.1360
vn 0.9863 -0.0535 0.1558
vn 0.9833 -0.0604 0.1716
vn 0.9835 -0.0014 0.1809
vn 0.9936 -0.0067 0.1130
vn 0.9833 0.0604 -0.1716
vn 0.9800 0.0673 -0.1873
vn 0.9863 0.0535 -0.1558
vn 0.9903 0.0313 -0.1355
vn 0.9690 0.0039 0.2469
vn 0.9756 -0.0321 0.2170
vn 0.9800 -0.0673 0.1873
vn 0.9936 0.0065 -0.1129
vn 0.9904 0.0211 -0.1368
vn 0.9849 0.0206 -0.1718
vn 0.9812 -0.0145 -0.1924
vn 0.9903 -0.0075 -0.1385
vn 0.9910 -0.0236 0.1321
vn 0.9942 -0.0246 0.1045
vn 0.9910 -0.0432 0.1266
vn 0.9892 -0.0494 0.1380
vn 0.9915 0.0036 0.1300
vn 0.9968 -0.0043 0.0804
vn 0.9892 0.0486 -0.1385
vn 0.9870 0.0552 -0.1511
vn 0.9912 0.0420 -0.1258
vn 0.9944 0.0221 -0.1033
vn 0.9848 0.0106 0.1735
vn 0.9866 -0.0216 0.1619
vn 0.9872 -0.0556 0.1494
vn 0.9969 0.0002 -0.0786
usemtl None
s 1
f 15/1/1 9/2/2 4/3/3 12/4/4
f 14/5/5 8/6/6 6/7/7 13/8/8
f 11/9/9 2/10/10 8/6/6 14/5/5
f 13/8/11 6/7/12 9/2/2 15/1/1
f 5/11/13 13/8/11 15/1/1 10/12/14
f 1/13/15 11/9/9 14/5/5 7/14/16
f 7/14/16 14/5/5 13/8/8 5/11/17
f 10/12/14 15/1/1 12/4/4 3/15/18
f 30/16/19 24/17/20 19/18/21 27/19/22
f 29/20/23 23/21/24 21/22/25 28/23/26
f 26/24/27 17/25/28 23/21/24 29/20/23
f 28/23/29 21/22/30 24/17/20 30/16/19
f 20/26/31 28/23/29 30/16/19 25/27/32
f 16/28/33 26/24/27 29/20/23 22/29/34
f 22/29/34 29/20/23 28/23/26 20/26/35
f 25/27/32 30/16/19 27/19/22 18/30/36
f 45/31/37 39/32/38 34/33/39 42/34/40
f 44/35/41 38/36/42 36/37/43 43/38/44
f 41/39/45 32/40/46 38/36/42 44/35/41
f 43/38/47 36/37/48 39/32/38 45/31/37
f 35/41/49 43/38/47 45/31/37 40/42/50
f 31/43/51 41/39/45 44/35/41 37/44/52
f 37/44/52 44/35/41 43/38/44 35/41/53
f 40/42/50 45/31/37 42/34/40 33/45/54
