# Blender v3.0.0 OBJ File: ''
# www.blender.org
mtllib Cork Earplugs.mtl
o Cylinder_Cylinder.006
v -0.000000 0.000000 0.852634
v -0.353220 0.000000 0.852634
v -0.326333 -0.135171 0.852634
v -0.249764 -0.249764 0.852634
v -0.135171 -0.326333 0.852634
v 0.000000 -0.353220 0.852634
v 0.135172 -0.326333 0.852634
v 0.249764 -0.249764 0.852634
v 0.326333 -0.135171 0.852634
v 0.353220 0.000000 0.852634
v 0.326333 0.135172 0.852634
v 0.249764 0.249765 0.852634
v 0.135171 0.326333 0.852634
v -0.000000 0.353220 0.852634
v -0.135172 0.326333 0.852634
v -0.249764 0.249765 0.852634
v -0.326333 0.135172 0.852634
v 0.000000 0.000000 1.561258
v -0.381835 0.000000 1.561259
v -0.420017 0.000000 1.518892
v -0.402882 0.000000 1.555583
v -0.416858 0.000000 1.540075
v -0.388045 -0.160734 1.518892
v -0.352770 -0.146122 1.561258
v -0.385126 -0.159525 1.540075
v -0.372215 -0.154176 1.555583
v -0.296997 -0.296997 1.518892
v -0.269998 -0.269998 1.561258
v -0.294763 -0.294763 1.540075
v -0.284881 -0.284881 1.555582
v -0.160733 -0.388045 1.518892
v -0.146122 -0.352770 1.561258
v -0.159524 -0.385126 1.540075
v -0.154176 -0.372215 1.555582
v 0.000000 -0.420017 1.518892
v 0.000000 -0.381835 1.561258
v 0.000000 -0.416858 1.540075
v 0.000000 -0.402882 1.555582
v 0.160734 -0.388045 1.518892
v 0.146122 -0.352770 1.561258
v 0.159525 -0.385126 1.540075
v 0.154177 -0.372215 1.555582
v 0.296997 -0.296997 1.518892
v 0.269999 -0.269998 1.561258
v 0.294763 -0.294763 1.540075
v 0.284881 -0.284881 1.555582
v 0.388046 -0.160733 1.518892
v 0.352770 -0.146122 1.561258
v 0.385127 -0.159524 1.540075
v 0.372215 -0.154176 1.555582
v 0.420017 0.000000 1.518892
v 0.381836 0.000000 1.561258
v 0.416858 0.000000 1.540075
v 0.402883 0.000000 1.555582
v 0.388045 0.160734 1.518892
v 0.352770 0.146122 1.561258
v 0.385127 0.159525 1.540075
v 0.372215 0.154177 1.555582
v 0.296997 0.296997 1.518892
v 0.269999 0.269999 1.561258
v 0.294763 0.294763 1.540075
v 0.284881 0.284881 1.555582
v 0.160734 0.388046 1.518892
v 0.146122 0.352770 1.561258
v 0.159525 0.385127 1.540075
v 0.154176 0.372215 1.555582
v -0.000000 0.420018 1.518892
v -0.000000 0.381836 1.561258
v -0.000000 0.416858 1.540075
v -0.000000 0.402883 1.555582
v -0.160734 0.388046 1.518892
v -0.146122 0.352770 1.561258
v -0.159525 0.385127 1.540075
v -0.154177 0.372215 1.555582
v -0.296997 0.296997 1.518892
v -0.269998 0.269999 1.561258
v -0.294763 0.294763 1.540075
v -0.284881 0.284881 1.555582
v -0.388045 0.160734 1.518892
v -0.352770 0.146122 1.561258
v -0.385127 0.159525 1.540075
v -0.372215 0.154177 1.555583
v -0.000000 0.000000 -0.852634
v -0.353221 0.000000 -0.852634
v -0.326333 -0.135171 -0.852634
v -0.249765 -0.249764 -0.852634
v -0.135172 -0.326333 -0.852634
v -0.000000 -0.353220 -0.852634
v 0.135171 -0.326333 -0.852634
v 0.249764 -0.249764 -0.852634
v 0.326333 -0.135171 -0.852634
v 0.353220 0.000000 -0.852634
v 0.326333 0.135172 -0.852634
v 0.249764 0.249765 -0.852634
v 0.135171 0.326333 -0.852634
v -0.000000 0.353220 -0.852634
v -0.135172 0.326333 -0.852634
v -0.249765 0.249765 -0.852634
v -0.326333 0.135172 -0.852634
v -0.000000 0.000000 -1.561258
v -0.381836 0.000000 -1.561258
v -0.420018 0.000000 -1.518892
v -0.402883 0.000000 -1.555582
v -0.416858 0.000000 -1.540075
v -0.388046 -0.160734 -1.518892
v -0.352770 -0.146122 -1.561258
v -0.385127 -0.159525 -1.540075
v -0.372215 -0.154176 -1.555582
v -0.296997 -0.296997 -1.518892
v -0.269999 -0.269998 -1.561258
v -0.294763 -0.294763 -1.540075
v -0.284881 -0.284881 -1.555582
v -0.160734 -0.388045 -1.518892
v -0.146122 -0.352770 -1.561258
v -0.159525 -0.385126 -1.540075
v -0.154177 -0.372215 -1.555582
v -0.000000 -0.420017 -1.518892
v -0.000000 -0.381835 -1.561258
v -0.000000 -0.416858 -1.540075
v -0.000000 -0.402882 -1.555582
v 0.160733 -0.388045 -1.518892
v 0.146122 -0.352770 -1.561258
v 0.159524 -0.385126 -1.540075
v 0.154176 -0.372215 -1.555582
v 0.296997 -0.296997 -1.518892
v 0.269998 -0.269998 -1.561258
v 0.294763 -0.294763 -1.540075
v 0.284881 -0.284881 -1.555582
v 0.388045 -0.160733 -1.518892
v 0.352770 -0.146122 -1.561258
v 0.385126 -0.159524 -1.540075
v 0.372215 -0.154176 -1.555583
v 0.420017 0.000000 -1.518892
v 0.381835 0.000000 -1.561259
v 0.416858 0.000000 -1.540075
v 0.402882 0.000000 -1.555583
v 0.388045 0.160734 -1.518892
v 0.352770 0.146122 -1.561258
v 0.385126 0.159525 -1.540075
v 0.372214 0.154177 -1.555583
v 0.296997 0.296997 -1.518892
v 0.269998 0.269999 -1.561258
v 0.294763 0.294763 -1.540075
v 0.284880 0.284881 -1.555582
v 0.160733 0.388046 -1.518892
v 0.146122 0.352770 -1.561258
v 0.159524 0.385127 -1.540075
v 0.154176 0.372215 -1.555582
v -0.000001 0.420018 -1.518892
v -0.000001 0.381836 -1.561258
v -0.000001 0.416858 -1.540075
v -0.000001 0.402883 -1.555582
v -0.160734 0.388046 -1.518892
v -0.146123 0.352770 -1.561258
v -0.159525 0.385127 -1.540075
v -0.154177 0.372215 -1.555582
v -0.296998 0.296997 -1.518892
v -0.269999 0.269999 -1.561258
v -0.294764 0.294763 -1.540075
v -0.284881 0.284881 -1.555582
v -0.388046 0.160734 -1.518892
v -0.352771 0.146122 -1.561258
v -0.385127 0.159525 -1.540075
v -0.372215 0.154177 -1.555582
v -0.326333 -0.135171 0.852634
v -0.353220 0.000000 0.852634
v -0.249764 -0.249764 0.852634
v -0.135171 -0.326333 0.852634
v 0.000000 -0.353220 0.852634
v 0.135172 -0.326333 0.852634
v 0.249764 -0.249764 0.852634
v 0.326333 -0.135171 0.852634
v 0.353220 0.000000 0.852634
v 0.326333 0.135172 0.852634
v 0.249764 0.249765 0.852634
v 0.135171 0.326333 0.852634
v -0.000000 0.353220 0.852634
v -0.135172 0.326333 0.852634
v -0.249764 0.249765 0.852634
v -0.326333 0.135172 0.852634
v -0.326333 -0.135171 -0.852634
v -0.353221 0.000000 -0.852634
v -0.249765 -0.249764 -0.852634
v -0.135172 -0.326333 -0.852634
v -0.000000 -0.353220 -0.852634
v 0.135171 -0.326333 -0.852634
v 0.249764 -0.249764 -0.852634
v 0.326333 -0.135171 -0.852634
v 0.353220 0.000000 -0.852634
v 0.326333 0.135172 -0.852634
v 0.249764 0.249765 -0.852634
v 0.135171 0.326333 -0.852634
v -0.000000 0.353220 -0.852634
v -0.135172 0.326333 -0.852634
v -0.249765 0.249765 -0.852634
v -0.326333 0.135172 -0.852634
vt 0.973576 0.633242
vt 0.957132 0.672942
vt 0.865561 0.611756
vt 0.757545 0.590270
vt 0.773989 0.550570
vt 0.926746 0.703327
vt 0.804375 0.520185
vt 0.844075 0.503740
vt 0.887046 0.719772
vt 0.887046 0.503741
vt 0.844075 0.719771
vt 0.926746 0.520185
vt 0.804375 0.703327
vt 0.957132 0.550570
vt 0.773989 0.672942
vt 0.973576 0.590270
vt 0.757545 0.633242
vt 0.340496 0.258822
vt 0.340496 0.467598
vt 0.289398 0.467598
vt 0.289398 0.258822
vt 0.101519 0.539484
vt 0.144125 0.521862
vt 0.167118 0.637769
vt 0.190231 0.521886
vt 0.232818 0.539552
vt 0.265403 0.572170
vt 0.283025 0.614776
vt 0.283002 0.660882
vt 0.265336 0.703469
vt 0.232717 0.736055
vt 0.190111 0.753677
vt 0.144005 0.753653
vt 0.101418 0.735987
vt 0.068833 0.703368
vt 0.051211 0.660763
vt 0.051234 0.614657
vt 0.068900 0.572069
vt 0.544886 0.258822
vt 0.544886 0.467598
vt 0.493789 0.467598
vt 0.493789 0.258822
vt 0.238301 0.258822
vt 0.238301 0.467598
vt 0.187203 0.467598
vt 0.187203 0.258822
vt 0.902569 0.258822
vt 0.902569 0.467598
vt 0.851472 0.467598
vt 0.851472 0.258822
vt 0.647081 0.258822
vt 0.647081 0.467598
vt 0.595984 0.467598
vt 0.595984 0.258822
vt 0.391593 0.258822
vt 0.391593 0.467598
vt 0.136105 0.467598
vt 0.136105 0.258822
vt 0.749277 0.258822
vt 0.749277 0.467598
vt 0.698179 0.467598
vt 0.698179 0.258822
vt 0.442691 0.467598
vt 0.442691 0.258822
vt 0.800374 0.467598
vt 0.800374 0.258822
vt 0.085008 0.467598
vt 0.085008 0.258822
vt 0.051617 0.560594
vt 0.089942 0.522269
vt 0.093948 0.528206
vt 0.057590 0.564547
vt 0.097726 0.533808
vt 0.063224 0.568276
vt 0.140017 0.501527
vt 0.141446 0.508545
vt 0.142793 0.515166
vt 0.194218 0.501527
vt 0.192852 0.508558
vt 0.191562 0.515190
vt 0.244293 0.522268
vt 0.240340 0.528241
vt 0.236611 0.533875
vt 0.282619 0.560594
vt 0.276681 0.564600
vt 0.271080 0.568377
vt 0.303360 0.610669
vt 0.296342 0.612097
vt 0.289721 0.613444
vt 0.303361 0.664869
vt 0.296330 0.663503
vt 0.289698 0.662214
vt 0.282619 0.714944
vt 0.276646 0.710992
vt 0.271012 0.707262
vt 0.244293 0.753270
vt 0.240288 0.747333
vt 0.236510 0.741731
vt 0.194218 0.774012
vt 0.192790 0.766993
vt 0.191443 0.760373
vt 0.140018 0.774012
vt 0.141384 0.766981
vt 0.142673 0.760349
vt 0.089943 0.753270
vt 0.093896 0.747297
vt 0.097625 0.741664
vt 0.051617 0.714945
vt 0.057555 0.710939
vt 0.063156 0.707161
vt 0.030875 0.664870
vt 0.037894 0.663441
vt 0.044515 0.662095
vt 0.030875 0.610669
vt 0.037906 0.612035
vt 0.044538 0.613325
vt 0.754891 0.928078
vt 0.693705 0.836507
vt 0.785276 0.897693
vt 0.632519 0.744936
vt 0.602134 0.775321
vt 0.801720 0.857993
vt 0.585689 0.815021
vt 0.585689 0.857993
vt 0.801720 0.815021
vt 0.602134 0.897693
vt 0.785276 0.775321
vt 0.632519 0.928078
vt 0.754890 0.744936
vt 0.672219 0.944523
vt 0.715190 0.728492
vt 0.715190 0.944523
vt 0.672219 0.728492
vt 0.647087 0.016108
vt 0.698184 0.016108
vt 0.698184 0.224884
vt 0.647087 0.224884
vt 0.406222 0.736055
vt 0.471821 0.637769
vt 0.448828 0.753677
vt 0.494934 0.753653
vt 0.537521 0.735987
vt 0.570106 0.703368
vt 0.587728 0.660763
vt 0.587705 0.614656
vt 0.570038 0.572069
vt 0.537420 0.539484
vt 0.494814 0.521862
vt 0.448708 0.521886
vt 0.406121 0.539552
vt 0.373536 0.572171
vt 0.355913 0.614776
vt 0.355937 0.660882
vt 0.373603 0.703470
vt 0.442697 0.016108
vt 0.493794 0.016108
vt 0.493794 0.224884
vt 0.442697 0.224884
vt 0.749282 0.016108
vt 0.800379 0.016108
vt 0.800379 0.224884
vt 0.749282 0.224884
vt 0.085014 0.016108
vt 0.136112 0.016108
vt 0.136112 0.224884
vt 0.085014 0.224884
vt 0.340502 0.016108
vt 0.391599 0.016108
vt 0.391599 0.224884
vt 0.340502 0.224884
vt 0.595989 0.016108
vt 0.595989 0.224884
vt 0.851477 0.016108
vt 0.851477 0.224884
vt 0.238307 0.016108
vt 0.289404 0.016108
vt 0.289404 0.224884
vt 0.238307 0.224884
vt 0.544892 0.016108
vt 0.544892 0.224884
vt 0.187209 0.016108
vt 0.187209 0.224884
vt 0.902574 0.016108
vt 0.902574 0.224884
vt 0.356320 0.714945
vt 0.362293 0.710992
vt 0.398651 0.747333
vt 0.394645 0.753270
vt 0.367927 0.707263
vt 0.402429 0.741731
vt 0.446149 0.766993
vt 0.444720 0.774012
vt 0.447496 0.760373
vt 0.497555 0.766981
vt 0.498921 0.774012
vt 0.496266 0.760349
vt 0.545043 0.747297
vt 0.548996 0.753270
vt 0.541314 0.741664
vt 0.581384 0.710939
vt 0.587322 0.714945
vt 0.575783 0.707161
vt 0.601045 0.663441
vt 0.608064 0.664870
vt 0.594424 0.662095
vt 0.601033 0.612035
vt 0.608064 0.610669
vt 0.594401 0.613325
vt 0.581349 0.564547
vt 0.587322 0.560594
vt 0.575715 0.568276
vt 0.544991 0.528206
vt 0.548996 0.522268
vt 0.541213 0.533807
vt 0.497493 0.508545
vt 0.498921 0.501527
vt 0.496146 0.515166
vt 0.446087 0.508558
vt 0.444721 0.501527
vt 0.447376 0.515190
vt 0.398599 0.528241
vt 0.394646 0.522268
vt 0.402328 0.533875
vt 0.362258 0.564600
vt 0.356320 0.560594
vt 0.367859 0.568377
vt 0.342597 0.612097
vt 0.335578 0.610669
vt 0.349218 0.613444
vt 0.342609 0.663504
vt 0.335578 0.664870
vt 0.349241 0.662214
vn 0.0000 0.0000 -1.0000
vn -0.9236 0.3825 0.0237
vn -0.9192 0.3807 -0.0997
vn -0.9950 0.0000 -0.0997
vn -0.9997 0.0000 0.0237
vn -0.1361 -0.0564 0.9891
vn -0.1042 -0.1042 0.9891
vn 0.0000 0.0000 1.0000
vn -0.0564 -0.1361 0.9891
vn 0.0000 -0.1474 0.9891
vn 0.0564 -0.1361 0.9891
vn 0.1042 -0.1042 0.9891
vn 0.1361 -0.0564 0.9891
vn 0.1474 0.0000 0.9891
vn 0.1361 0.0564 0.9891
vn 0.1042 0.1042 0.9891
vn 0.0564 0.1361 0.9891
vn 0.0000 0.1474 0.9891
vn -0.0564 0.1361 0.9891
vn -0.1042 0.1042 0.9891
vn -0.1361 0.0564 0.9891
vn -0.1474 0.0000 0.9891
vn 0.3825 0.9236 0.0237
vn 0.3807 0.9192 -0.0997
vn 0.0000 0.9950 -0.0997
vn 0.0000 0.9997 0.0237
vn -0.9236 -0.3825 0.0237
vn -0.9192 -0.3807 -0.0997
vn -0.7036 -0.7036 -0.0997
vn -0.7069 -0.7069 0.0237
vn 0.0000 -0.9997 0.0237
vn 0.0000 -0.9950 -0.0997
vn 0.3807 -0.9192 -0.0997
vn 0.3825 -0.9236 0.0237
vn 0.9236 0.3825 0.0237
vn 0.9192 0.3807 -0.0997
vn 0.7036 0.7036 -0.0997
vn 0.7069 0.7069 0.0237
vn -0.7069 0.7069 0.0237
vn -0.7036 0.7036 -0.0997
vn -0.3807 -0.9192 -0.0997
vn -0.3825 -0.9236 0.0237
vn 0.9236 -0.3825 0.0237
vn 0.9192 -0.3807 -0.0997
vn 0.9950 0.0000 -0.0997
vn 0.9997 0.0000 0.0237
vn -0.3807 0.9192 -0.0997
vn -0.3825 0.9236 0.0237
vn 0.7036 -0.7036 -0.0997
vn 0.7069 -0.7069 0.0237
vn -0.8412 -0.3484 0.4134
vn -0.9106 0.0000 0.4134
vn -0.5060 -0.2096 0.8366
vn -0.5477 0.0000 0.8366
vn -0.6438 -0.6438 0.4134
vn -0.3873 -0.3873 0.8366
vn -0.3484 -0.8412 0.4134
vn -0.2096 -0.5060 0.8366
vn 0.0000 -0.9106 0.4134
vn 0.0000 -0.5477 0.8366
vn 0.3484 -0.8412 0.4134
vn 0.2096 -0.5060 0.8366
vn 0.6438 -0.6438 0.4134
vn 0.3873 -0.3873 0.8366
vn 0.8412 -0.3484 0.4134
vn 0.5060 -0.2096 0.8366
vn 0.9106 0.0000 0.4134
vn 0.5477 0.0000 0.8366
vn 0.8412 0.3484 0.4134
vn 0.5060 0.2096 0.8366
vn 0.6438 0.6438 0.4134
vn 0.3873 0.3873 0.8366
vn 0.3484 0.8412 0.4134
vn 0.2096 0.5060 0.8366
vn 0.0000 0.9106 0.4134
vn 0.0000 0.5477 0.8366
vn -0.3484 0.8412 0.4134
vn -0.2096 0.5060 0.8366
vn -0.6438 0.6438 0.4134
vn -0.3873 0.3873 0.8366
vn -0.8412 0.3484 0.4134
vn -0.5060 0.2096 0.8366
vn -0.9236 0.3825 -0.0237
vn -0.9997 0.0000 -0.0237
vn -0.9950 0.0000 0.0997
vn -0.9192 0.3807 0.0997
vn -0.1361 -0.0564 -0.9891
vn -0.1042 -0.1042 -0.9891
vn -0.0564 -0.1361 -0.9891
vn 0.0000 -0.1474 -0.9891
vn 0.0564 -0.1361 -0.9891
vn 0.1042 -0.1042 -0.9891
vn 0.1361 -0.0564 -0.9891
vn 0.1474 0.0000 -0.9891
vn 0.1361 0.0564 -0.9891
vn 0.1042 0.1042 -0.9891
vn 0.0564 0.1361 -0.9891
vn 0.0000 0.1474 -0.9891
vn -0.0564 0.1361 -0.9891
vn -0.1042 0.1042 -0.9891
vn -0.1361 0.0564 -0.9891
vn -0.1474 0.0000 -0.9891
vn 0.3825 0.9236 -0.0237
vn 0.0000 0.9997 -0.0237
vn 0.0000 0.9950 0.0997
vn 0.3807 0.9192 0.0997
vn -0.9236 -0.3825 -0.0237
vn -0.7069 -0.7069 -0.0237
vn -0.7036 -0.7036 0.0997
vn -0.9192 -0.3807 0.0997
vn 0.0000 -0.9997 -0.0237
vn 0.3825 -0.9236 -0.0237
vn 0.3807 -0.9192 0.0997
vn 0.0000 -0.9950 0.0997
vn 0.9236 0.3825 -0.0237
vn 0.7069 0.7069 -0.0237
vn 0.7036 0.7036 0.0997
vn 0.9192 0.3807 0.0997
vn -0.7069 0.7069 -0.0237
vn -0.7036 0.7036 0.0997
vn -0.3825 -0.9236 -0.0237
vn -0.3807 -0.9192 0.0997
vn 0.9236 -0.3825 -0.0237
vn 0.9997 0.0000 -0.0237
vn 0.9950 0.0000 0.0997
vn 0.9192 -0.3807 0.0997
vn -0.3825 0.9236 -0.0237
vn -0.3807 0.9192 0.0997
vn 0.7069 -0.7069 -0.0237
vn 0.7036 -0.7036 0.0997
vn -0.9106 0.0000 -0.4134
vn -0.8412 -0.3484 -0.4134
vn -0.5477 0.0000 -0.8366
vn -0.5060 -0.2096 -0.8366
vn -0.6438 -0.6438 -0.4134
vn -0.3873 -0.3873 -0.8366
vn -0.3484 -0.8412 -0.4134
vn -0.2096 -0.5060 -0.8366
vn 0.0000 -0.9106 -0.4134
vn 0.0000 -0.5477 -0.8366
vn 0.3484 -0.8412 -0.4134
vn 0.2096 -0.5060 -0.8366
vn 0.6438 -0.6438 -0.4134
vn 0.3873 -0.3873 -0.8366
vn 0.8412 -0.3484 -0.4134
vn 0.5060 -0.2096 -0.8366
vn 0.9106 0.0000 -0.4134
vn 0.5477 0.0000 -0.8366
vn 0.8412 0.3484 -0.4134
vn 0.5060 0.2096 -0.8366
vn 0.6438 0.6438 -0.4134
vn 0.3873 0.3873 -0.8366
vn 0.3484 0.8412 -0.4134
vn 0.2096 0.5060 -0.8366
vn 0.0000 0.9106 -0.4134
vn 0.0000 0.5477 -0.8366
vn -0.3484 0.8412 -0.4134
vn -0.2096 0.5060 -0.8366
vn -0.6438 0.6438 -0.4134
vn -0.3873 0.3873 -0.8366
vn -0.8412 0.3484 -0.4134
vn -0.5060 0.2096 -0.8366
usemtl None
s 1
f 175/1/1 174/2/1 1/3/1
f 167/4/1 165/5/1 1/3/1
f 174/2/1 173/6/1 1/3/1
f 166/7/1 180/8/1 1/3/1
f 165/5/1 166/7/1 1/3/1
f 173/6/1 172/9/1 1/3/1
f 180/8/1 179/10/1 1/3/1
f 172/9/1 171/11/1 1/3/1
f 179/10/1 178/12/1 1/3/1
f 171/11/1 170/13/1 1/3/1
f 178/12/1 177/14/1 1/3/1
f 170/13/1 169/15/1 1/3/1
f 177/14/1 176/16/1 1/3/1
f 169/15/1 168/17/1 1/3/1
f 176/16/1 175/1/1 1/3/1
f 79/18/2 17/19/3 2/20/4 20/21/5
f 24/22/6 28/23/7 18/24/8
f 28/23/7 32/25/9 18/24/8
f 32/25/9 36/26/10 18/24/8
f 36/26/10 40/27/11 18/24/8
f 40/27/11 44/28/12 18/24/8
f 44/28/12 48/29/13 18/24/8
f 48/29/13 52/30/14 18/24/8
f 52/30/14 56/31/15 18/24/8
f 56/31/15 60/32/16 18/24/8
f 60/32/16 64/33/17 18/24/8
f 64/33/17 68/34/18 18/24/8
f 68/34/18 72/35/19 18/24/8
f 72/35/19 76/36/20 18/24/8
f 168/17/1 167/4/1 1/3/1
f 76/36/20 80/37/21 18/24/8
f 80/37/21 19/38/22 18/24/8
f 63/39/23 13/40/24 14/41/25 67/42/26
f 23/43/27 3/44/28 4/45/29 27/46/30
f 35/47/31 6/48/32 7/49/33 39/50/34
f 55/51/35 11/52/36 12/53/37 59/54/38
f 75/55/39 16/56/40 17/19/3 79/18/2
f 27/46/30 4/45/29 5/57/41 31/58/42
f 47/59/43 9/60/44 10/61/45 51/62/46
f 67/42/26 14/41/25 15/63/47 71/64/48
f 39/50/34 7/49/33 8/65/49 43/66/50
f 59/54/38 12/53/37 13/40/24 63/39/23
f 31/58/42 5/57/41 6/67/32 35/68/31
f 51/62/46 10/61/45 11/52/36 55/51/35
f 20/21/5 2/20/4 3/44/28 23/43/27
f 71/64/48 15/63/47 16/56/40 75/55/39
f 43/66/50 8/65/49 9/60/44 47/59/43
f 20/69/5 23/70/27 25/71/51 22/72/52
f 22/72/52 25/71/51 26/73/53 21/74/54
f 21/74/54 26/73/53 24/22/6 19/38/22
f 23/70/27 27/75/30 29/76/55 25/71/51
f 25/71/51 29/76/55 30/77/56 26/73/53
f 26/73/53 30/77/56 28/23/7 24/22/6
f 27/75/30 31/78/42 33/79/57 29/76/55
f 29/76/55 33/79/57 34/80/58 30/77/56
f 30/77/56 34/80/58 32/25/9 28/23/7
f 31/78/42 35/81/31 37/82/59 33/79/57
f 33/79/57 37/82/59 38/83/60 34/80/58
f 34/80/58 38/83/60 36/26/10 32/25/9
f 35/81/31 39/84/34 41/85/61 37/82/59
f 37/82/59 41/85/61 42/86/62 38/83/60
f 38/83/60 42/86/62 40/27/11 36/26/10
f 39/84/34 43/87/50 45/88/63 41/85/61
f 41/85/61 45/88/63 46/89/64 42/86/62
f 42/86/62 46/89/64 44/28/12 40/27/11
f 43/87/50 47/90/43 49/91/65 45/88/63
f 45/88/63 49/91/65 50/92/66 46/89/64
f 46/89/64 50/92/66 48/29/13 44/28/12
f 47/90/43 51/93/46 53/94/67 49/91/65
f 49/91/65 53/94/67 54/95/68 50/92/66
f 50/92/66 54/95/68 52/30/14 48/29/13
f 51/93/46 55/96/35 57/97/69 53/94/67
f 53/94/67 57/97/69 58/98/70 54/95/68
f 54/95/68 58/98/70 56/31/15 52/30/14
f 55/96/35 59/99/38 61/100/71 57/97/69
f 57/97/69 61/100/71 62/101/72 58/98/70
f 58/98/70 62/101/72 60/32/16 56/31/15
f 59/99/38 63/102/23 65/103/73 61/100/71
f 61/100/71 65/103/73 66/104/74 62/101/72
f 62/101/72 66/104/74 64/33/17 60/32/16
f 63/102/23 67/105/26 69/106/75 65/103/73
f 65/103/73 69/106/75 70/107/76 66/104/74
f 66/104/74 70/107/76 68/34/18 64/33/17
f 67/105/26 71/108/48 73/109/77 69/106/75
f 69/106/75 73/109/77 74/110/78 70/107/76
f 70/107/76 74/110/78 72/35/19 68/34/18
f 71/108/48 75/111/39 77/112/79 73/109/77
f 73/109/77 77/112/79 78/113/80 74/110/78
f 74/110/78 78/113/80 76/36/20 72/35/19
f 75/111/39 79/114/2 81/115/81 77/112/79
f 77/112/79 81/115/81 82/116/82 78/113/80
f 78/113/80 82/116/82 80/37/21 76/36/20
f 79/114/2 20/69/5 22/72/52 81/115/81
f 81/115/81 22/72/52 21/74/54 82/116/82
f 82/116/82 21/74/54 19/38/22 80/37/21
f 19/38/22 24/22/6 18/24/8
f 191/117/8 83/118/8 190/119/8
f 183/120/8 83/118/8 181/121/8
f 190/119/8 83/118/8 189/122/8
f 182/123/8 83/118/8 196/124/8
f 181/121/8 83/118/8 182/123/8
f 189/122/8 83/118/8 188/125/8
f 196/124/8 83/118/8 195/126/8
f 188/125/8 83/118/8 187/127/8
f 195/126/8 83/118/8 194/128/8
f 187/127/8 83/118/8 186/129/8
f 194/128/8 83/118/8 193/130/8
f 186/129/8 83/118/8 185/131/8
f 193/130/8 83/118/8 192/132/8
f 185/131/8 83/118/8 184/133/8
f 192/132/8 83/118/8 191/117/8
f 161/134/83 102/135/84 84/136/85 99/137/86
f 106/138/87 100/139/1 110/140/88
f 110/140/88 100/139/1 114/141/89
f 114/141/89 100/139/1 118/142/90
f 118/142/90 100/139/1 122/143/91
f 122/143/91 100/139/1 126/144/92
f 126/144/92 100/139/1 130/145/93
f 130/145/93 100/139/1 134/146/94
f 134/146/94 100/139/1 138/147/95
f 138/147/95 100/139/1 142/148/96
f 142/148/96 100/139/1 146/149/97
f 146/149/97 100/139/1 150/150/98
f 150/150/98 100/139/1 154/151/99
f 154/151/99 100/139/1 158/152/100
f 184/133/8 83/118/8 183/120/8
f 158/152/100 100/139/1 162/153/101
f 162/153/101 100/139/1 101/154/102
f 145/155/103 149/156/104 96/157/105 95/158/106
f 105/159/107 109/160/108 86/161/109 85/162/110
f 117/163/111 121/164/112 89/165/113 88/166/114
f 137/167/115 141/168/116 94/169/117 93/170/118
f 157/171/119 161/134/83 99/137/86 98/172/120
f 109/160/108 113/173/121 87/174/122 86/161/109
f 129/175/123 133/176/124 92/177/125 91/178/126
f 149/156/104 153/179/127 97/180/128 96/157/105
f 121/164/112 125/181/129 90/182/130 89/165/113
f 141/168/116 145/155/103 95/158/106 94/169/117
f 113/173/121 117/183/111 88/184/114 87/174/122
f 133/176/124 137/167/115 93/170/118 92/177/125
f 102/135/84 105/159/107 85/162/110 84/136/85
f 153/179/127 157/171/119 98/172/120 97/180/128
f 125/181/129 129/175/123 91/178/126 90/182/130
f 102/185/84 104/186/131 107/187/132 105/188/107
f 104/186/131 103/189/133 108/190/134 107/187/132
f 103/189/133 101/154/102 106/138/87 108/190/134
f 105/188/107 107/187/132 111/191/135 109/192/108
f 107/187/132 108/190/134 112/193/136 111/191/135
f 108/190/134 106/138/87 110/140/88 112/193/136
f 109/192/108 111/191/135 115/194/137 113/195/121
f 111/191/135 112/193/136 116/196/138 115/194/137
f 112/193/136 110/140/88 114/141/89 116/196/138
f 113/195/121 115/194/137 119/197/139 117/198/111
f 115/194/137 116/196/138 120/199/140 119/197/139
f 116/196/138 114/141/89 118/142/90 120/199/140
f 117/198/111 119/197/139 123/200/141 121/201/112
f 119/197/139 120/199/140 124/202/142 123/200/141
f 120/199/140 118/142/90 122/143/91 124/202/142
f 121/201/112 123/200/141 127/203/143 125/204/129
f 123/200/141 124/202/142 128/205/144 127/203/143
f 124/202/142 122/143/91 126/144/92 128/205/144
f 125/204/129 127/203/143 131/206/145 129/207/123
f 127/203/143 128/205/144 132/208/146 131/206/145
f 128/205/144 126/144/92 130/145/93 132/208/146
f 129/207/123 131/206/145 135/209/147 133/210/124
f 131/206/145 132/208/146 136/211/148 135/209/147
f 132/208/146 130/145/93 134/146/94 136/211/148
f 133/210/124 135/209/147 139/212/149 137/213/115
f 135/209/147 136/211/148 140/214/150 139/212/149
f 136/211/148 134/146/94 138/147/95 140/214/150
f 137/213/115 139/212/149 143/215/151 141/216/116
f 139/212/149 140/214/150 144/217/152 143/215/151
f 140/214/150 138/147/95 142/148/96 144/217/152
f 141/216/116 143/215/151 147/218/153 145/219/103
f 143/215/151 144/217/152 148/220/154 147/218/153
f 144/217/152 142/148/96 146/149/97 148/220/154
f 145/219/103 147/218/153 151/221/155 149/222/104
f 147/218/153 148/220/154 152/223/156 151/221/155
f 148/220/154 146/149/97 150/150/98 152/223/156
f 149/222/104 151/221/155 155/224/157 153/225/127
f 151/221/155 152/223/156 156/226/158 155/224/157
f 152/223/156 150/150/98 154/151/99 156/226/158
f 153/225/127 155/224/157 159/227/159 157/228/119
f 155/224/157 156/226/158 160/229/160 159/227/159
f 156/226/158 154/151/99 158/152/100 160/229/160
f 157/228/119 159/227/159 163/230/161 161/231/83
f 159/227/159 160/229/160 164/232/162 163/230/161
f 160/229/160 158/152/100 162/153/101 164/232/162
f 161/231/83 163/230/161 104/186/131 102/185/84
f 163/230/161 164/232/162 103/189/133 104/186/131
f 164/232/162 162/153/101 101/154/102 103/189/133
f 101/154/102 100/139/1 106/138/87
