# Blender v2.79 (sub 0) OBJ File: 'hat_191.blend'
# www.blender.org
mtllib hat_191.mtl
o Sphere.012_Sphere.014
v 1.275475 0.087116 -0.000000
v 1.242752 0.248086 0.000000
v 1.182288 0.371286 0.000000
v 1.275475 0.080485 -0.033338
v 1.242752 0.229201 -0.094938
v 1.182288 0.343024 -0.142085
v 1.103288 0.404624 -0.167601
v 1.275475 0.061600 -0.061600
v 1.242752 0.175423 -0.175423
v 1.182288 0.262539 -0.262539
v 1.103288 0.309686 -0.309686
v 1.275475 0.033338 -0.080485
v 1.242752 0.094938 -0.229201
v 1.182288 0.142085 -0.343024
v 1.103288 0.167601 -0.404624
v 1.275475 0.000000 -0.087116
v 1.242752 0.000000 -0.248086
v 1.182288 0.000000 -0.371286
v 1.103288 0.000000 -0.437962
v 1.275475 -0.033338 -0.080485
v 1.242752 -0.094938 -0.229201
v 1.182288 -0.142085 -0.343024
v 1.103288 -0.167601 -0.404624
v 1.275475 -0.061600 -0.061600
v 1.242752 -0.175423 -0.175423
v 1.182288 -0.262539 -0.262539
v 1.103288 -0.309686 -0.309686
v 1.275475 -0.080485 -0.033338
v 1.242752 -0.229201 -0.094938
v 1.182288 -0.343024 -0.142085
v 1.103288 -0.404624 -0.167601
v 1.275475 -0.087116 0.000000
v 1.242752 -0.248085 0.000000
v 1.182288 -0.371286 0.000000
v 1.103288 -0.437962 -0.000000
v 1.279686 -0.000000 0.000000
v 1.275475 -0.080485 0.033338
v 1.242752 -0.229201 0.094938
v 1.182288 -0.343024 0.142085
v 1.103288 -0.404624 0.167601
v 1.275475 -0.061600 0.061600
v 1.242752 -0.175423 0.175423
v 1.182288 -0.262539 0.262539
v 1.103288 -0.309686 0.309686
v 1.275475 -0.033338 0.080485
v 1.242752 -0.094938 0.229201
v 1.182288 -0.142085 0.343024
v 1.103288 -0.167601 0.404624
v 1.275475 0.000000 0.087116
v 1.242752 0.000000 0.248085
v 1.182288 0.000000 0.371286
v 1.103288 0.000000 0.437962
v 1.275475 0.033338 0.080485
v 1.242752 0.094938 0.229201
v 1.182288 0.142085 0.343023
v 1.103288 0.167601 0.404624
v 1.275475 0.061600 0.061600
v 1.242752 0.175423 0.175423
v 1.182288 0.262539 0.262539
v 1.103288 0.309686 0.309686
v 1.275475 0.080485 0.033338
v 1.242752 0.229201 0.094938
v 1.182288 0.343024 0.142085
v 1.103288 0.404624 0.167601
v 1.103288 0.437962 -0.000000
v 1.199167 0.446542 0.000000
v 1.199167 0.412551 -0.170884
v 1.199167 0.315753 -0.315753
v 1.199167 0.170884 -0.412551
v 1.199167 0.000000 -0.446542
v 1.199167 -0.170884 -0.412551
v 1.199167 -0.315753 -0.315753
v 1.199167 -0.412551 -0.170884
v 1.199167 -0.446542 0.000000
v 1.199167 -0.412551 0.170884
v 1.199167 -0.315753 0.315753
v 1.199167 -0.170884 0.412551
v 1.199167 0.000000 0.446542
v 1.199167 0.170884 0.412551
v 1.199167 0.315753 0.315753
v 1.199167 0.412551 0.170884
v 1.199167 0.573453 0.000000
v 1.199167 0.529802 -0.219451
v 1.199167 0.405493 -0.405493
v 1.199167 0.219451 -0.529802
v 1.199167 0.000000 -0.573453
v 1.199167 -0.219451 -0.529802
v 1.199167 -0.405493 -0.405493
v 1.199167 -0.529802 -0.219451
v 1.199167 -0.573453 0.000000
v 1.199167 -0.529802 0.219451
v 1.199167 -0.405493 0.405493
v 1.199167 -0.219451 0.529802
v 1.199167 0.000000 0.573453
v 1.199167 0.219451 0.529802
v 1.199167 0.405493 0.405493
v 1.199167 0.529802 0.219451
v 0.979066 0.573453 0.000000
v 0.979066 0.529802 -0.219451
v 0.979066 0.405493 -0.405493
v 0.979066 0.219451 -0.529802
v 0.979066 0.000000 -0.573453
v 0.979066 -0.219451 -0.529802
v 0.979066 -0.405493 -0.405493
v 0.979066 -0.529802 -0.219451
v 0.979066 -0.573453 0.000000
v 0.979066 -0.529802 0.219451
v 0.979066 -0.405493 0.405493
v 0.979066 -0.219451 0.529802
v 0.979066 0.000000 0.573453
v 0.979066 0.219451 0.529802
v 0.979066 0.405493 0.405493
v 0.979066 0.529802 0.219451
v 0.979066 -0.000026 0.000000
v -1.047938 0.234324 -1.048518
v -1.145075 0.234324 -0.559497
v -1.145076 0.234323 0.559496
v -1.048518 0.234323 1.047939
v -0.559497 0.234323 1.145076
v -0.559496 0.234324 -1.145076
v 1.047939 0.234324 -1.048517
v 1.145076 0.234324 -0.559496
v 1.145075 0.234324 0.559497
v 1.048517 0.234324 1.047939
v 0.559496 0.234324 1.145076
v 0.559497 0.234324 -1.145076
v -1.047938 -0.216813 -1.048518
v -1.145075 -0.216813 -0.559497
v -1.145076 -0.216813 0.559496
v -1.048518 -0.216813 1.047939
v -0.559497 -0.216813 1.145076
v -0.559496 -0.216813 -1.145076
v 1.047939 -0.216813 -1.048517
v 1.145076 -0.216813 -0.559496
v 1.145075 -0.216813 0.559497
v 1.048517 -0.216813 1.047939
v 0.559496 -0.216813 1.145076
v 0.559497 -0.216813 -1.145076
v 0.979065 -0.216813 0.979065
v 0.979065 0.234324 0.979065
v -0.979064 0.234323 0.979065
v -0.979064 -0.216813 0.979065
v -0.979065 0.234324 -0.979065
v -0.979065 -0.216813 -0.979065
v 0.979065 0.234324 -0.979065
v 0.979065 -0.216813 -0.979065
v -0.979065 0.234323 0.559497
v 0.979065 0.234324 0.559497
v -0.979065 -0.216813 0.559497
v 0.979065 -0.216813 0.559497
v -0.979065 0.234324 -0.559496
v 0.979065 0.234324 -0.559496
v -0.979065 -0.216813 -0.559496
v 0.979065 -0.216813 -0.559496
v 1.145075 0.234324 0.499497
v 1.145075 -0.216813 0.499497
v 0.979065 0.234324 0.499497
v 0.979065 -0.216813 0.499497
v 1.145076 0.234324 -0.499496
v 1.145076 -0.216813 -0.499496
v 0.979065 0.234324 -0.499496
v 0.979065 -0.216813 -0.499496
v 1.103288 0.309686 -0.309686
v 1.103288 0.404624 -0.167601
v 1.103288 0.167601 -0.404624
v 1.103288 0.000000 -0.437962
v 1.103288 -0.167601 -0.404624
v 1.103288 -0.309686 -0.309686
v 1.103288 -0.404624 -0.167601
v 1.103288 -0.437962 -0.000000
v 1.103288 -0.404624 0.167601
v 1.103288 -0.309686 0.309686
v 1.103288 -0.167601 0.404624
v 1.103288 0.000000 0.437962
v 1.103288 0.167601 0.404624
v 1.103288 0.309686 0.309686
v 1.103288 0.404624 0.167601
v 1.103288 0.437962 -0.000000
v 1.199167 0.412551 -0.170884
v 1.199167 0.446542 0.000000
v 1.199167 0.315753 -0.315753
v 1.199167 0.170884 -0.412551
v 1.199167 0.000000 -0.446542
v 1.199167 -0.170884 -0.412551
v 1.199167 -0.315753 -0.315753
v 1.199167 -0.412551 -0.170884
v 1.199167 -0.446542 0.000000
v 1.199167 -0.412551 0.170884
v 1.199167 -0.315753 0.315753
v 1.199167 -0.170884 0.412551
v 1.199167 0.000000 0.446542
v 1.199167 0.170884 0.412551
v 1.199167 0.315753 0.315753
v 1.199167 0.412551 0.170884
v 1.199167 0.529802 -0.219451
v 1.199167 0.573453 0.000000
v 1.199167 0.405493 -0.405493
v 1.199167 0.219451 -0.529802
v 1.199167 0.000000 -0.573453
v 1.199167 -0.219451 -0.529802
v 1.199167 -0.405493 -0.405493
v 1.199167 -0.529802 -0.219451
v 1.199167 -0.573453 0.000000
v 1.199167 -0.529802 0.219451
v 1.199167 -0.405493 0.405493
v 1.199167 -0.219451 0.529802
v 1.199167 0.000000 0.573453
v 1.199167 0.219451 0.529802
v 1.199167 0.405493 0.405493
v 1.199167 0.529802 0.219451
v 0.979066 0.529802 -0.219451
v 0.979066 0.573453 0.000000
v 0.979066 0.405493 -0.405493
v 0.979066 0.219451 -0.529802
v 0.979066 0.000000 -0.573453
v 0.979066 -0.219451 -0.529802
v 0.979066 -0.405493 -0.405493
v 0.979066 -0.529802 -0.219451
v 0.979066 -0.573453 0.000000
v 0.979066 -0.529802 0.219451
v 0.979066 -0.405493 0.405493
v 0.979066 -0.219451 0.529802
v 0.979066 0.000000 0.573453
v 0.979066 0.219451 0.529802
v 0.979066 0.405493 0.405493
v 0.979066 0.529802 0.219451
v -1.145076 0.234323 0.559496
v -1.145075 0.234324 -0.559497
v -1.047938 0.234324 -1.048518
v -0.559497 0.234323 1.145076
v -1.048518 0.234323 1.047939
v -0.559496 0.234324 -1.145076
v 1.145076 0.234324 -0.559496
v 1.047939 0.234324 -1.048517
v 0.559496 0.234324 1.145076
v 1.048517 0.234324 1.047939
v 0.559497 0.234324 -1.145076
v 1.145075 0.234324 0.559497
v -1.145076 -0.216813 0.559496
v -1.145075 -0.216813 -0.559497
v -1.047938 -0.216813 -1.048518
v -0.559497 -0.216813 1.145076
v -1.048518 -0.216813 1.047939
v -0.559496 -0.216813 -1.145076
v 1.145076 -0.216813 -0.559496
v 1.047939 -0.216813 -1.048517
v 0.559496 -0.216813 1.145076
v 1.048517 -0.216813 1.047939
v 0.559497 -0.216813 -1.145076
v 1.145075 -0.216813 0.559497
v 0.979065 -0.216813 0.979065
v 0.979065 -0.216813 0.979065
v 0.979065 0.234324 0.979065
v 0.979065 0.234324 0.979065
v 0.979065 -0.216813 0.559497
v 0.979065 0.234324 0.559497
v -0.979065 -0.216813 -0.979065
v 0.979065 -0.216813 -0.979065
v -0.979065 0.234324 -0.979065
v 0.979065 0.234324 -0.979065
v -0.979065 -0.216813 -0.559496
v -0.979065 0.234324 -0.559496
v -0.979064 -0.216813 0.979065
v -0.979064 0.234323 0.979065
v -0.979065 0.234323 0.559497
v -0.979065 -0.216813 0.559497
v 0.979065 0.234324 -0.559496
v 0.979065 -0.216813 -0.559496
v 1.145075 0.234324 0.499497
v 1.145075 -0.216813 0.499497
v 0.979065 -0.216813 0.499497
v 0.979065 0.234324 0.499497
v 1.145076 -0.216813 -0.499496
v 1.145076 0.234324 -0.499496
v 0.979065 -0.216813 -0.499496
v 0.979065 0.234324 -0.499496
vt 0.046708 0.884191
vt 0.046708 0.630054
vt 0.105259 0.630054
vt 0.105259 0.884191
vt 0.046708 0.575600
vt 0.105259 0.575600
vt 0.046708 0.375916
vt 0.046708 0.121778
vt 0.105259 0.121778
vt 0.105259 0.375916
vt 0.046708 0.067324
vt 0.105259 0.067324
vt 0.046708 0.430370
vt 0.105259 0.430370
vt 0.105259 0.938645
vt 0.046708 0.938645
vt 0.046708 0.884191
vt 0.105259 0.884191
vt 0.105259 0.946432
vt 0.046708 0.946432
vt 0.046708 0.059537
vt 0.105259 0.059537
vt 0.739446 0.219245
vt 0.756934 0.212015
vt 0.765148 0.223659
vt 0.742437 0.233614
vt 0.747141 0.197583
vt 0.735703 0.180799
vt 0.738628 0.177799
vt 0.755596 0.188895
vt 0.931599 0.901442
vt 0.943852 0.901442
vt 0.943852 0.923267
vt 0.931599 0.923267
vt 0.729640 0.171938
vt 0.740180 0.173913
vt 0.760059 0.177670
vt 0.770185 0.198588
vt 0.777113 0.181060
vt 0.781864 0.206172
vt 0.790932 0.183881
vt 0.776951 0.162235
vt 0.790932 0.159571
vt 0.931599 0.879454
vt 0.943852 0.879454
vt 0.740127 0.169733
vt 0.759904 0.165598
vt 0.931599 0.857332
vt 0.943852 0.857332
vt 0.738494 0.165882
vt 0.755166 0.154507
vt 0.769537 0.144962
vt 0.781507 0.136885
vt 0.756323 0.131573
vt 0.764006 0.119914
vt 0.931599 0.835103
vt 0.943852 0.835103
vt 0.735500 0.162960
vt 0.746574 0.146059
vt 0.931599 0.812792
vt 0.943852 0.812792
vt 0.735406 0.141566
vt 0.738856 0.124567
vt 0.741723 0.110776
vt 0.731619 0.161404
vt 0.931599 0.790426
vt 0.943852 0.790426
vt 0.727440 0.161449
vt 0.723369 0.141673
vt 0.931599 0.768034
vt 0.943852 0.768034
vt 0.720069 0.124651
vt 0.717485 0.110739
vt 0.712288 0.146369
vt 0.702710 0.131899
vt 0.694984 0.119992
vt 0.723596 0.163086
vt 0.931599 0.745642
vt 0.943852 0.745642
vt 0.720668 0.166066
vt 0.703875 0.154945
vt 0.931599 0.723277
vt 0.943852 0.723277
vt 0.689404 0.145286
vt 0.677694 0.137204
vt 0.699204 0.166066
vt 0.682151 0.162698
vt 0.668246 0.159705
vt 0.719099 0.169947
vt 0.931599 0.700966
vt 0.943852 0.700966
vt 0.719135 0.174131
vt 0.699334 0.178146
vt 0.682220 0.181585
vt 0.668189 0.184158
vt 0.703926 0.189360
vt 0.689422 0.199068
vt 0.931599 0.678736
vt 0.943852 0.678736
vt 0.677435 0.206808
vt 0.720773 0.177990
vt 0.931599 0.656614
vt 0.943852 0.656614
vt 0.723767 0.180923
vt 0.712605 0.197866
vt 0.702848 0.212395
vt 0.694736 0.224212
vt 0.720441 0.219555
vt 0.717509 0.233688
vt 0.931599 0.634627
vt 0.943852 0.634627
vt 0.727654 0.182482
vt 0.723864 0.202379
vt 0.931599 0.612801
vt 0.943852 0.612801
vt 0.731847 0.182452
vt 0.735951 0.202204
vt 0.931599 0.591163
vt 0.943852 0.591163
vt 0.943852 0.944905
vt 0.931599 0.944905
vt 0.773613 0.834267
vt 0.773613 0.811654
vt 0.789767 0.808441
vt 0.789767 0.837481
vt 0.659930 0.811654
vt 0.659930 0.834267
vt 0.643775 0.837480
vt 0.643775 0.808441
vt 0.764959 0.790763
vt 0.778654 0.781612
vt 0.668584 0.855159
vt 0.654888 0.864310
vt 0.748969 0.774773
vt 0.758120 0.761078
vt 0.684573 0.871148
vt 0.675422 0.884844
vt 0.728078 0.766119
vt 0.731291 0.749965
vt 0.705465 0.879802
vt 0.702251 0.895957
vt 0.705465 0.766119
vt 0.702252 0.749965
vt 0.728078 0.879802
vt 0.748969 0.871148
vt 0.758120 0.884844
vt 0.731291 0.895957
vt 0.684573 0.774773
vt 0.675422 0.761078
vt 0.764959 0.855159
vt 0.778654 0.864310
vt 0.668584 0.790763
vt 0.654888 0.781612
vt 0.924702 0.500792
vt 0.924702 0.471752
vt 0.953268 0.471752
vt 0.953268 0.500792
vt 0.924702 0.239435
vt 0.924702 0.210395
vt 0.953268 0.210395
vt 0.953268 0.239435
vt 0.924702 0.442712
vt 0.953268 0.442712
vt 0.924702 0.181356
vt 0.953268 0.181356
vt 0.924702 0.413673
vt 0.953268 0.413673
vt 0.924702 0.152316
vt 0.953268 0.152316
vt 0.924702 0.384633
vt 0.953268 0.384633
vt 0.924702 0.123276
vt 0.953268 0.123276
vt 0.924702 0.355594
vt 0.953268 0.355594
vt 0.924702 0.094237
vt 0.953268 0.094237
vt 0.924702 0.326554
vt 0.953268 0.326554
vt 0.924702 0.065197
vt 0.953268 0.065197
vt 0.924702 0.297514
vt 0.953268 0.297514
vt 0.924702 0.036157
vt 0.953268 0.036157
vt 0.924702 0.268475
vt 0.953268 0.268475
vt 0.362054 0.140142
vt 0.373167 0.166971
vt 0.300170 0.181494
vt 0.373167 0.196011
vt 0.341519 0.119608
vt 0.258822 0.243374
vt 0.285651 0.254487
vt 0.314690 0.108495
vt 0.362054 0.222840
vt 0.341520 0.243374
vt 0.314690 0.254487
vt 0.238287 0.222840
vt 0.227174 0.196011
vt 0.227174 0.166971
vt 0.238287 0.140142
vt 0.258822 0.119608
vt 0.285651 0.108495
vt 0.530920 0.639990
vt 0.530920 0.704610
vt 0.472369 0.704610
vt 0.472369 0.639990
vt 0.606920 0.354052
vt 0.752149 0.354052
vt 0.806604 0.375598
vt 0.552466 0.375598
vt 0.530920 0.026167
vt 0.530920 0.090787
vt 0.472368 0.090787
vt 0.472368 0.026167
vt 0.530920 0.155495
vt 0.472368 0.155495
vt 0.752148 0.651282
vt 0.606919 0.651282
vt 0.552466 0.629736
vt 0.806602 0.629736
vt 0.175139 0.430052
vt 0.196684 0.375598
vt 0.196684 0.430052
vt 0.530920 0.849839
vt 0.530920 0.914459
vt 0.472368 0.914459
vt 0.472369 0.849839
vt 0.530920 0.300724
vt 0.530920 0.365432
vt 0.472369 0.365432
vt 0.472369 0.300724
vt 0.530920 0.575282
vt 0.552466 0.575282
vt 0.530920 0.979167
vt 0.472368 0.979167
vt 0.530920 0.575282
vt 0.472369 0.575282
vt 0.530920 0.430052
vt 0.472369 0.430052
vt 0.543527 0.638750
vt 0.543452 0.366659
vt 0.530920 0.430052
vt 0.450823 0.629736
vt 0.396369 0.651282
vt 0.251140 0.651282
vt 0.196686 0.629736
vt 0.450823 0.375598
vt 0.472369 0.430052
vt 0.450823 0.430052
vt 0.251139 0.354052
vt 0.396369 0.354052
vt 0.815541 0.638750
vt 0.828148 0.575282
vt 0.815618 0.366659
vt 0.828150 0.430052
vt 0.806604 0.430052
vt 0.187670 0.366659
vt 0.187747 0.638750
vt 0.175140 0.575281
vt 0.459761 0.638750
vt 0.472369 0.575282
vt 0.459837 0.366659
vt 0.450823 0.575282
vt 0.552466 0.430052
vt 0.806602 0.575282
vt 0.196686 0.575281
vt 0.472368 0.018380
vt 0.530920 0.018380
vt 0.196684 0.437839
vt 0.175139 0.437839
vt 0.828150 0.437840
vt 0.806604 0.437840
vt 0.530920 0.986954
vt 0.472368 0.986954
vt 0.175140 0.567494
vt 0.196686 0.567494
vt 0.806602 0.567495
vt 0.828148 0.567495
vn -0.0000 0.0000 -1.0000
vn 1.0000 0.0000 -0.0000
vn 0.0000 -0.0000 1.0000
vn -1.0000 -0.0000 0.0000
vn 0.7758 0.5829 0.2414
vn 0.7758 0.6309 0.0000
vn 0.6450 0.7642 0.0000
vn 0.6450 0.7060 0.2924
vn 0.9416 0.3366 0.0000
vn 0.9910 0.1334 0.0000
vn 0.9910 0.1233 -0.0511
vn 0.9416 0.3110 -0.1288
vn 0.0891 -0.7043 0.7043
vn 0.0891 -0.9202 0.3811
vn 0.9910 0.0943 -0.0943
vn 0.9416 0.2380 -0.2380
vn 0.7758 0.5829 -0.2414
vn 0.7758 0.4461 -0.4461
vn 0.6450 0.7060 -0.2924
vn 0.6450 0.5404 -0.5404
vn 0.7758 0.2414 -0.5829
vn 0.6450 0.2924 -0.7060
vn 0.0891 -0.3811 0.9202
vn 0.9910 0.0511 -0.1233
vn 0.9416 0.1288 -0.3110
vn 0.0891 0.0000 0.9960
vn 0.9910 0.0000 -0.1334
vn 0.9416 0.0000 -0.3366
vn 0.7758 0.0000 -0.6309
vn 0.6450 0.0000 -0.7642
vn 0.7758 -0.2414 -0.5829
vn 0.6450 -0.2924 -0.7060
vn 0.0891 0.3811 0.9202
vn 0.9910 -0.0511 -0.1233
vn 0.9416 -0.1288 -0.3110
vn 0.0891 0.7043 0.7043
vn 0.9416 -0.2380 -0.2380
vn 0.7758 -0.4461 -0.4461
vn 0.6450 -0.5404 -0.5404
vn 0.9910 -0.0943 -0.0943
vn 0.0891 0.9202 0.3811
vn 0.9910 -0.1233 -0.0511
vn 0.9416 -0.3110 -0.1288
vn 0.0891 0.9960 0.0000
vn 0.7758 -0.5829 -0.2414
vn 0.6450 -0.7060 -0.2924
vn 0.9416 -0.3366 0.0000
vn 0.7758 -0.6309 0.0000
vn 0.6450 -0.7642 0.0000
vn 0.9910 -0.1334 0.0000
vn 0.0891 0.9202 -0.3811
vn 0.9910 -0.1233 0.0511
vn 0.9416 -0.3110 0.1288
vn 0.0891 0.7043 -0.7043
vn 0.7758 -0.5829 0.2414
vn 0.6450 -0.7060 0.2924
vn 0.9416 -0.2380 0.2380
vn 0.7758 -0.4461 0.4461
vn 0.6450 -0.5404 0.5404
vn 0.9910 -0.0943 0.0943
vn 0.0891 0.3811 -0.9202
vn 0.9910 -0.0511 0.1233
vn 0.9416 -0.1288 0.3110
vn 0.7758 -0.2414 0.5829
vn 0.6450 -0.2924 0.7060
vn 0.9416 0.0000 0.3366
vn 0.7758 0.0000 0.6309
vn 0.0891 0.0000 -0.9960
vn 0.6450 0.0000 0.7642
vn 0.9910 0.0000 0.1334
vn 0.0891 -0.3811 -0.9202
vn 0.9910 0.0511 0.1233
vn 0.9416 0.1288 0.3110
vn 0.7758 0.2414 0.5829
vn 0.6450 0.2924 0.7060
vn 0.7758 0.4461 0.4461
vn 0.6450 0.5404 0.5404
vn 0.0891 -0.7043 -0.7043
vn 0.9910 0.0943 0.0943
vn 0.9416 0.2380 0.2380
vn 0.0891 -0.9202 -0.3811
vn 0.9910 0.1233 0.0511
vn 0.9416 0.3110 0.1288
vn 0.0891 -0.9960 0.0000
vn 0.0000 -1.0000 0.0000
vn 0.0000 -0.9239 0.3827
vn 0.0000 0.9239 -0.3827
vn 0.0000 0.7071 -0.7071
vn 0.0000 -0.7071 0.7071
vn 0.0000 0.3827 -0.9239
vn 0.0000 -0.3827 0.9239
vn 0.0000 -0.3827 -0.9239
vn 0.0000 0.3827 0.9239
vn 0.0000 -0.7071 -0.7071
vn 0.0000 0.7071 0.7071
vn 0.0000 -0.9239 -0.3827
vn 0.0000 0.9239 0.3827
vn 0.0000 1.0000 0.0000
vn -0.7068 0.0000 -0.7074
vn -0.0974 0.0000 -0.9952
vn 0.9952 0.0000 0.0974
vn 0.7074 0.0000 0.7068
vn 0.0979 0.0000 0.9952
vn 0.0974 0.0000 -0.9952
vn 0.7068 0.0000 -0.7074
vn -0.0979 0.0000 0.9952
vn -0.7074 0.0000 0.7068
vn 0.9952 0.0000 -0.0979
vn -0.9952 0.0000 -0.0979
vn -0.9952 0.0000 0.0974
usemtl None
s off
f 252/1/1 263/2/1 141/3/1 254/4/1
f 263/2/2 266/5/2 265/6/2 141/3/2
f 257/7/3 146/8/3 145/9/3 143/10/3
f 146/8/4 268/11/4 267/12/4 145/9/4
f 265/6/2 266/5/2 261/13/2 151/14/2
f 148/15/4 150/16/4 139/17/4 140/18/4
f 151/14/2 261/13/2 257/7/2 143/10/2
f 150/16/4 148/15/4 157/19/4 158/20/4
f 267/12/4 268/11/4 162/21/4 161/22/4
s 1
f 63/23/5 3/24/6 178/25/7 177/26/8
f 2/27/9 1/28/10 4/29/11 5/30/12
f 11/31/13 181/32/13 179/33/14 7/34/14
f 1/28/10 36/35/2 4/29/11
f 5/30/12 4/29/11 8/36/15 9/37/16
f 6/38/17 5/30/12 9/37/16 10/39/18
f 164/40/19 6/38/17 10/39/18 163/41/20
f 163/41/20 10/39/18 14/42/21 165/43/22
f 15/44/23 182/45/23 181/32/13 11/31/13
f 4/29/11 36/35/2 8/36/15
f 9/37/16 8/36/15 12/46/24 13/47/25
f 19/48/26 183/49/26 182/45/23 15/44/23
f 8/36/15 36/35/2 12/46/24
f 10/39/18 9/37/16 13/47/25 14/42/21
f 12/46/24 16/50/27 17/51/28 13/47/25
f 14/42/21 13/47/25 17/51/28 18/52/29
f 165/43/22 14/42/21 18/52/29 166/53/30
f 18/52/29 22/54/31 167/55/32 166/53/30
f 23/56/33 184/57/33 183/49/26 19/48/26
f 12/46/24 36/35/2 16/50/27
f 17/51/28 16/50/27 20/58/34 21/59/35
f 27/60/36 185/61/36 184/57/33 23/56/33
f 16/50/27 36/35/2 20/58/34
f 18/52/29 17/51/28 21/59/35 22/54/31
f 22/54/31 21/59/35 25/62/37 26/63/38
f 167/55/32 22/54/31 26/63/38 168/64/39
f 21/59/35 20/58/34 24/65/40 25/62/37
f 31/66/41 186/67/41 185/61/36 27/60/36
f 20/58/34 36/35/2 24/65/40
f 25/62/37 24/65/40 28/68/42 29/69/43
f 35/70/44 187/71/44 186/67/41 31/66/41
f 24/65/40 36/35/2 28/68/42
f 26/63/38 25/62/37 29/69/43 30/72/45
f 168/64/39 26/63/38 30/72/45 169/73/46
f 30/72/45 29/69/43 33/74/47 34/75/48
f 169/73/46 30/72/45 34/75/48 170/76/49
f 29/69/43 28/68/42 32/77/50 33/74/47
f 40/78/51 188/79/51 187/71/44 35/70/44
f 28/68/42 36/35/2 32/77/50
f 33/74/47 32/77/50 37/80/52 38/81/53
f 44/82/54 189/83/54 188/79/51 40/78/51
f 32/77/50 36/35/2 37/80/52
f 34/75/48 33/74/47 38/81/53 39/84/55
f 170/76/49 34/75/48 39/84/55 171/85/56
f 38/81/53 42/86/57 43/87/58 39/84/55
f 171/85/56 39/84/55 43/87/58 172/88/59
f 38/81/53 37/80/52 41/89/60 42/86/57
f 48/90/61 190/91/61 189/83/54 44/82/54
f 37/80/52 36/35/2 41/89/60
f 42/86/57 41/89/60 45/92/62 46/93/63
f 41/89/60 36/35/2 45/92/62
f 43/87/58 42/86/57 46/93/63 47/94/64
f 172/88/59 43/87/58 47/94/64 173/95/65
f 46/93/63 50/96/66 51/97/67 47/94/64
f 52/98/68 191/99/68 190/91/61 48/90/61
f 173/95/65 47/94/64 51/97/67 174/100/69
f 46/93/63 45/92/62 49/101/70 50/96/66
f 56/102/71 192/103/71 191/99/68 52/98/68
f 45/92/62 36/35/2 49/101/70
f 50/96/66 49/101/70 53/104/72 54/105/73
f 51/97/67 50/96/66 54/105/73 55/106/74
f 174/100/69 51/97/67 55/106/74 175/107/75
f 175/107/75 55/106/74 59/108/76 176/109/77
f 60/110/78 193/111/78 192/103/71 56/102/71
f 49/101/70 36/35/2 53/104/72
f 54/105/73 53/104/72 57/112/79 58/113/80
f 64/114/81 194/115/81 193/111/78 60/110/78
f 53/104/72 36/35/2 57/112/79
f 55/106/74 54/105/73 58/113/80 59/108/76
f 57/112/79 61/116/82 62/117/83 58/113/80
f 59/108/76 58/113/80 62/117/83 63/23/5
f 176/109/77 59/108/76 63/23/5 177/26/8
f 63/23/5 62/117/83 2/27/9 3/24/6
f 65/118/84 180/119/84 194/115/81 64/114/81
f 57/112/79 36/35/2 61/116/82
f 62/117/83 61/116/82 1/28/10 2/27/9
f 61/116/82 36/35/2 1/28/10
f 3/24/6 2/27/9 5/30/12 6/38/17
f 7/34/14 179/33/14 180/120/84 65/121/84
f 69/122/2 70/123/2 199/124/2 198/125/2
f 77/126/2 78/127/2 207/128/2 206/129/2
f 70/123/2 71/130/2 200/131/2 199/124/2
f 78/127/2 79/132/2 208/133/2 207/128/2
f 71/130/2 72/134/2 201/135/2 200/131/2
f 79/132/2 80/136/2 209/137/2 208/133/2
f 72/134/2 73/138/2 202/139/2 201/135/2
f 80/136/2 81/140/2 210/141/2 209/137/2
f 73/138/2 74/142/2 203/143/2 202/139/2
f 66/144/2 67/145/2 195/146/2 196/147/2
f 81/140/2 66/144/2 196/147/2 210/141/2
f 74/142/2 75/148/2 204/149/2 203/143/2
f 67/145/2 68/150/2 197/151/2 195/146/2
f 75/148/2 76/152/2 205/153/2 204/149/2
f 68/150/2 69/122/2 198/125/2 197/151/2
f 76/152/2 77/126/2 206/129/2 205/153/2
f 90/154/85 91/155/86 220/156/86 219/157/85
f 83/158/87 84/159/88 213/160/88 211/161/87
f 91/155/86 92/162/89 221/163/89 220/156/86
f 84/159/88 85/164/90 214/165/90 213/160/88
f 92/162/89 93/166/91 222/167/91 221/163/89
f 85/164/90 86/168/1 215/169/1 214/165/90
f 93/166/91 94/170/3 223/171/3 222/167/91
f 86/168/1 87/172/92 216/173/92 215/169/1
f 94/170/3 95/174/93 224/175/93 223/171/3
f 87/172/92 88/176/94 217/177/94 216/173/92
f 95/174/93 96/178/95 225/179/95 224/175/93
f 88/176/94 89/180/96 218/181/96 217/177/94
f 96/178/95 97/182/97 226/183/97 225/179/95
f 89/180/96 90/184/85 219/185/85 218/181/96
f 82/186/98 83/158/87 211/161/87 212/187/98
f 97/182/97 82/186/98 212/187/98 226/183/97
f 178/25/7 3/24/6 6/38/17 164/40/19
f 100/188/4 101/189/4 114/190/4
f 101/189/4 102/191/4 114/190/4
f 99/192/4 100/188/4 114/190/4
f 107/193/4 114/190/4 106/194/4
f 114/190/4 98/195/4 99/192/4
f 102/191/4 103/196/4 114/190/4
f 103/196/4 104/197/4 114/190/4
f 104/197/4 105/198/4 114/190/4
f 105/198/4 106/194/4 114/190/4
f 107/193/4 108/199/4 114/190/4
f 109/200/4 114/190/4 108/199/4
f 109/200/4 110/201/4 114/190/4
f 111/202/4 114/190/4 110/201/4
f 111/202/4 112/203/4 114/190/4
f 112/203/4 113/204/4 114/190/4
f 98/195/4 114/190/4 113/204/4
f 229/205/99 232/206/100 244/207/100 241/208/99
f 119/209/98 235/210/98 253/211/98 264/212/98
f 238/213/101 236/214/102 248/215/102 250/216/101
f 236/214/102 125/217/103 137/218/103 248/215/102
f 237/219/98 120/220/98 259/221/98 260/222/98
f 135/223/85 251/224/85 255/225/85
f 126/226/104 234/227/105 246/228/105 138/229/104
f 230/230/106 231/231/107 243/232/107 242/233/106
f 116/234/98 262/235/98 259/221/98
f 234/227/105 233/236/108 245/237/108 246/228/105
f 228/238/109 229/205/99 241/208/99 240/239/109
f 231/231/107 227/240/110 239/241/110 243/232/107
f 120/220/98 115/242/98 259/221/98
f 115/242/98 116/234/98 259/221/98
f 118/243/98 264/212/98 117/244/98
f 118/243/98 119/209/98 264/212/98
f 144/245/85 132/246/85 249/247/85 258/248/85
f 142/249/85 129/250/85 149/251/85
f 251/224/85 247/252/85 131/253/85 142/249/85
f 237/219/98 260/222/98 121/254/98
f 121/254/98 260/222/98 122/255/98
f 124/256/98 123/257/98 253/211/98
f 124/256/98 253/211/98 235/210/98
f 123/257/98 256/258/98 253/211/98
f 136/259/85 251/224/85 135/223/85
f 133/260/85 134/261/85 258/248/85
f 249/247/85 133/260/85 258/248/85
f 132/246/85 144/245/85 127/262/85
f 232/206/100 126/226/104 138/229/104 244/207/100
f 127/262/85 144/245/85 128/263/85
f 130/264/85 129/250/85 142/249/85
f 130/264/85 142/249/85 131/253/85
f 136/259/85 247/252/85 251/224/85
f 230/230/106 242/233/106 137/218/103 125/217/103
f 227/240/110 228/238/109 240/239/109 239/241/110
f 149/251/85 129/250/85 128/263/85 153/265/85
f 147/266/98 117/244/98 264/212/98
f 152/267/98 122/255/98 260/222/98
f 134/261/85 154/268/85 258/248/85
f 262/235/98 116/234/98 117/244/98 147/266/98
f 153/265/85 128/263/85 144/245/85
f 238/213/101 250/216/101 270/269/2 269/270/2
f 135/223/85 255/225/85 271/271/85 156/272/85
f 256/258/98 123/257/98 155/273/98 272/274/98
f 245/237/108 233/236/108 274/275/2 273/276/2
f 154/268/85 134/261/85 160/277/85 275/278/85
f 122/255/98 152/267/98 276/279/98 159/280/98
