# Blender v3.0.0 OBJ File: ''
# www.blender.org
mtllib Captcha_Hat.mtl
o Cube.004_Cube.010
v 0.078886 1.418849 1.630423
v 0.078885 6.332125 1.630424
v -0.078885 1.418849 1.630423
v -0.078885 6.332125 1.630424
v 0.078885 1.418849 -1.630424
v 0.078885 6.332126 -1.630423
v -0.078885 1.418849 -1.630424
v -0.078886 6.332126 -1.630423
v 0.107869 1.533212 -0.613331
v 0.107869 1.909449 -0.613331
v 0.107869 1.533212 -1.534244
v 0.107869 1.909449 -1.534244
v 0.107869 5.205616 1.543818
v 0.107869 6.257947 1.543818
v 0.107869 5.205617 -1.543818
v 0.107868 6.257947 -1.543818
v 0.107869 2.070367 1.543818
v 0.107869 5.158003 1.543818
v 0.107869 2.070367 -1.543818
v 0.107869 5.158004 -1.543818
v 0.107869 2.070367 0.755986
v 0.107869 2.070367 0.787831
v 0.107869 2.070367 -0.015923
v 0.107869 2.070367 0.015922
v 0.107869 2.070367 -0.787832
v 0.107869 2.070367 -0.755987
v 0.107869 5.158004 -0.755986
v 0.107869 5.158004 -0.787831
v 0.107869 5.158003 0.015923
v 0.107869 5.158003 -0.015922
v 0.107869 5.158003 0.787832
v 0.107869 5.158003 0.755987
v 0.107869 2.826354 1.543818
v 0.107869 2.858199 1.543818
v 0.107869 3.598263 1.543818
v 0.107869 3.630108 1.543818
v 0.107869 4.370172 1.543818
v 0.107869 4.402017 1.543818
v 0.107869 4.402017 -1.543818
v 0.107869 4.370172 -1.543818
v 0.107869 3.630108 -1.543818
v 0.107869 3.598263 -1.543818
v 0.107869 2.858199 -1.543818
v 0.107869 2.826354 -1.543818
v 0.107869 4.402017 -0.787831
v 0.107869 4.402017 -0.755986
v 0.107869 4.370172 -0.755986
v 0.107869 4.370172 -0.787831
v 0.107869 3.630108 -0.787832
v 0.107869 3.630108 -0.755986
v 0.107869 3.598263 -0.755986
v 0.107869 3.598263 -0.787832
v 0.107869 2.826354 -0.787832
v 0.107869 2.858199 -0.787832
v 0.107869 2.858199 -0.755987
v 0.107869 2.826354 -0.755987
v 0.107869 4.402017 -0.015922
v 0.107869 4.402017 0.015923
v 0.107869 4.370172 0.015923
v 0.107869 4.370172 -0.015922
v 0.107869 3.630108 -0.015923
v 0.107869 3.630108 0.015923
v 0.107869 3.598263 0.015923
v 0.107869 3.598263 -0.015923
v 0.107869 2.826354 -0.015923
v 0.107869 2.858199 -0.015923
v 0.107869 2.858199 0.015922
v 0.107869 2.826354 0.015922
v 0.107869 4.402017 0.787832
v 0.107869 4.370172 0.787832
v 0.107869 4.370172 0.755987
v 0.107869 4.402017 0.755987
v 0.107869 3.630108 0.787832
v 0.107869 3.598263 0.787832
v 0.107869 3.598263 0.755986
v 0.107869 3.630108 0.755986
v 0.107869 2.826354 0.787831
v 0.107869 2.826354 0.755986
v 0.107869 2.858199 0.755986
v 0.107869 2.858199 0.787831
v 0.115996 1.833040 0.449832
v 0.115996 1.797203 0.363313
v 0.115996 1.710684 0.327476
v 0.115996 1.624165 0.363313
v 0.115996 1.588328 0.449832
v 0.115996 1.624165 0.536350
v 0.115996 1.710684 0.572188
v 0.115996 1.797203 0.536350
v 0.115996 1.781125 0.379391
v 0.115996 1.810302 0.449832
v 0.115996 1.710684 0.350213
v 0.115996 1.640244 0.379391
v 0.115996 1.611066 0.449832
v 0.115996 1.640244 0.520272
v 0.115996 1.710684 0.549450
v 0.115996 1.781125 0.520272
v 0.099083 1.816127 1.338176
v 0.099083 1.785243 1.263616
v 0.099083 1.636125 1.263616
v 0.099083 1.605241 1.338176
v 0.099083 1.636125 1.412735
v 0.099083 1.710684 1.443619
v 0.099083 1.785243 1.412735
v 0.099083 1.771388 1.277472
v 0.099083 1.796532 1.338176
v 0.099083 1.649980 1.277472
v 0.099083 1.624836 1.338176
v 0.099083 1.649980 1.398880
v 0.099083 1.710684 1.424024
v 0.099083 1.771388 1.398880
v 0.099083 1.685441 1.243189
v 0.099083 1.685441 1.262784
v 0.099083 1.729325 1.243793
v 0.099083 1.800233 1.243793
v 0.099083 1.729325 1.311864
v 0.107869 1.848973 0.894697
v 0.107869 1.707361 0.985107
v 0.107869 1.707361 1.008925
v 0.107869 1.734744 1.008925
v 0.107869 1.778458 1.000230
v 0.107869 1.815516 0.975468
v 0.107869 1.840278 0.938410
v 0.107869 1.825155 0.894697
v 0.107869 1.734744 0.985107
v 0.107869 1.769343 0.978225
v 0.107869 1.798674 0.958626
v 0.107869 1.818273 0.929295
v 0.107869 1.707361 0.932893
v 0.107869 1.615464 0.932893
v 0.107869 1.645469 1.008925
v 0.107869 1.616512 0.980598
v 0.107869 1.625252 1.000628
v 0.107869 1.707361 0.804286
v 0.107869 1.707361 0.780468
v 0.107869 1.734744 0.780468
v 0.107869 1.778458 0.789163
v 0.107869 1.815516 0.813925
v 0.107869 1.840278 0.850983
v 0.107869 1.734744 0.804286
v 0.107869 1.769343 0.811168
v 0.107869 1.798674 0.830767
v 0.107869 1.818273 0.860098
v 0.107869 1.707361 0.856500
v 0.107869 1.615464 0.856500
v 0.107869 1.645469 0.780468
v 0.107869 1.616512 0.808795
v 0.107869 1.625252 0.788765
v 0.095026 1.647563 0.464219
v 0.095026 1.725072 0.464219
v 0.095026 1.647563 0.435444
v 0.095026 1.725072 0.435444
v 0.095026 1.745416 0.464219
v 0.095026 1.774192 0.464219
v 0.095026 1.745416 0.435444
v 0.095026 1.774192 0.435444
vt 0.684414 0.217068
vt 0.684414 0.499703
vt 0.675338 0.499703
vt 0.675338 0.217068
vt 0.966186 0.103128
vt 0.966186 0.478389
vt 0.717132 0.478389
vt 0.717133 0.103128
vt 0.675339 0.969913
vt 0.675338 0.687284
vt 0.684414 0.687284
vt 0.684414 0.969913
vt 0.968308 0.531136
vt 0.968308 0.906397
vt 0.719254 0.906397
vt 0.719254 0.531136
vt 0.675338 0.029484
vt 0.684414 0.029484
vt 0.636931 0.042630
vt 0.636931 0.116033
vt 0.457264 0.116033
vt 0.457264 0.042630
vt 0.036411 0.759105
vt 0.638799 0.759105
vt 0.638799 0.964412
vt 0.036411 0.964412
vt 0.183901 0.301131
vt 0.183901 0.445515
vt 0.036411 0.445515
vt 0.036411 0.301131
vt 0.485096 0.602325
vt 0.485096 0.749816
vt 0.340711 0.749816
vt 0.340711 0.602325
vt 0.334498 0.602325
vt 0.334498 0.749816
vt 0.190114 0.749816
vt 0.190114 0.602325
vt 0.183901 0.602325
vt 0.183901 0.749816
vt 0.036411 0.749816
vt 0.036411 0.602325
vt 0.485096 0.147427
vt 0.485096 0.294918
vt 0.340711 0.294918
vt 0.340711 0.147427
vt 0.334498 0.301131
vt 0.334498 0.445515
vt 0.190114 0.445515
vt 0.190114 0.301131
vt 0.638799 0.147427
vt 0.638799 0.294918
vt 0.491308 0.294918
vt 0.491308 0.147427
vt 0.334498 0.451728
vt 0.334498 0.596112
vt 0.190114 0.596112
vt 0.190114 0.451728
vt 0.485096 0.301131
vt 0.485096 0.445515
vt 0.340711 0.445515
vt 0.340711 0.301131
vt 0.638799 0.602325
vt 0.638799 0.749816
vt 0.491308 0.749816
vt 0.491308 0.602325
vt 0.485096 0.451728
vt 0.485096 0.596112
vt 0.340711 0.596112
vt 0.340711 0.451728
vt 0.638799 0.301131
vt 0.638799 0.445515
vt 0.491308 0.445515
vt 0.491308 0.301131
vt 0.334498 0.147427
vt 0.334498 0.294918
vt 0.190114 0.294918
vt 0.190114 0.147427
vt 0.183901 0.451728
vt 0.183901 0.596112
vt 0.036411 0.596112
vt 0.036411 0.451728
vt 0.638799 0.451728
vt 0.638799 0.596112
vt 0.491308 0.596112
vt 0.491308 0.451728
vt 0.183901 0.147427
vt 0.183901 0.294918
vt 0.036411 0.294918
vt 0.036411 0.147427
vt 0.249844 0.053383
vt 0.266724 0.060375
vt 0.263587 0.063512
vt 0.249844 0.057819
vt 0.232965 0.094134
vt 0.225973 0.077254
vt 0.230409 0.077254
vt 0.236101 0.090997
vt 0.273715 0.077254
vt 0.266724 0.094134
vt 0.263587 0.090997
vt 0.269279 0.077254
vt 0.232965 0.060375
vt 0.236101 0.063512
vt 0.249844 0.101126
vt 0.249844 0.096690
vt 0.076531 0.056683
vt 0.091077 0.062708
vt 0.088374 0.065411
vt 0.076531 0.060506
vt 0.061984 0.091801
vt 0.055959 0.077254
vt 0.059782 0.077254
vt 0.064688 0.089098
vt 0.061984 0.062708
vt 0.064688 0.065411
vt 0.076531 0.097826
vt 0.076531 0.094003
vt 0.091077 0.091801
vt 0.088374 0.089098
vt 0.095062 0.072329
vt 0.091239 0.072329
vt 0.094945 0.080891
vt 0.081664 0.080891
vt 0.094945 0.094725
vt 0.145413 0.081948
vt 0.140767 0.081948
vt 0.140767 0.076606
vt 0.145413 0.076606
vt 0.142463 0.090477
vt 0.146756 0.088698
vt 0.163052 0.104234
vt 0.154524 0.102538
vt 0.156302 0.098245
vt 0.163052 0.099587
vt 0.147294 0.097707
vt 0.150580 0.094421
vt 0.155600 0.076606
vt 0.155600 0.058677
vt 0.146293 0.058882
vt 0.142385 0.060587
vt 0.140767 0.064531
vt 0.180691 0.081948
vt 0.180691 0.076606
vt 0.185338 0.076606
vt 0.185338 0.081948
vt 0.183642 0.090477
vt 0.179348 0.088698
vt 0.169802 0.098245
vt 0.171581 0.102538
vt 0.178811 0.097707
vt 0.175525 0.094421
vt 0.170504 0.076606
vt 0.170504 0.058677
vt 0.179811 0.058882
vt 0.183719 0.060587
vt 0.185338 0.064531
vt 0.252651 0.064940
vt 0.252651 0.080061
vt 0.247037 0.080061
vt 0.247037 0.064940
vt 0.252651 0.084031
vt 0.252651 0.089645
vt 0.247037 0.089645
vt 0.247037 0.084031
vn 0.0000 -0.0000 1.0000
vn -1.0000 -0.0000 0.0000
vn 0.0000 0.0000 -1.0000
vn 1.0000 0.0000 -0.0000
vn 0.0000 -1.0000 -0.0000
vn 0.0000 1.0000 0.0000
usemtl None
s off
f 1/1/1 2/2/1 4/3/1 3/4/1
f 3/5/2 4/6/2 8/7/2 7/8/2
f 7/9/3 8/10/3 6/11/3 5/12/3
f 5/13/4 6/14/4 2/15/4 1/16/4
f 3/4/5 7/17/5 5/18/5 1/1/5
f 8/10/6 4/3/6 2/2/6 6/11/6
f 11/19/4 12/20/4 10/21/4 9/22/4
f 13/23/4 15/24/4 16/25/4 14/26/4
f 80/27/4 74/28/4 35/29/4 34/30/4
f 46/31/4 27/32/4 30/33/4 57/34/4
f 58/35/4 29/36/4 32/37/4 72/38/4
f 69/39/4 31/40/4 18/41/4 38/42/4
f 26/43/4 56/44/4 65/45/4 23/46/4
f 67/47/4 63/48/4 75/49/4 79/50/4
f 19/51/4 44/52/4 53/53/4 25/54/4
f 62/55/4 59/56/4 71/57/4 76/58/4
f 55/59/4 51/60/4 64/61/4 66/62/4
f 39/63/4 20/64/4 28/65/4 45/66/4
f 50/67/4 47/68/4 60/69/4 61/70/4
f 43/71/4 42/72/4 52/73/4 54/74/4
f 24/75/4 68/76/4 78/77/4 21/78/4
f 73/79/4 70/80/4 37/81/4 36/82/4
f 41/83/4 40/84/4 48/85/4 49/86/4
f 22/87/4 77/88/4 33/89/4 17/90/4
f 85/91/4 84/92/4 92/93/4 93/94/4
f 88/95/4 87/96/4 95/97/4 96/98/4
f 83/99/4 82/100/4 89/101/4 91/102/4
f 86/103/4 85/91/4 93/94/4 94/104/4
f 81/105/4 88/95/4 96/98/4 90/106/4
f 82/100/4 81/105/4 90/106/4 89/101/4
f 84/92/4 83/99/4 91/102/4 92/93/4
f 87/96/4 86/103/4 94/104/4 95/97/4
f 100/107/4 99/108/4 106/109/4 107/110/4
f 103/111/4 102/112/4 109/113/4 110/114/4
f 101/115/4 100/107/4 107/110/4 108/116/4
f 97/117/4 103/111/4 110/114/4 105/118/4
f 98/119/4 97/117/4 105/118/4 104/120/4
f 99/108/4 111/121/4 112/122/4 106/109/4
f 113/123/4 104/120/4 115/124/4
f 98/119/4 113/123/4 114/125/4
f 104/120/4 113/123/4 98/119/4
f 102/112/4 101/115/4 108/116/4 109/113/4
f 124/126/4 119/127/4 118/128/4 117/129/4
f 120/130/4 119/127/4 124/126/4 125/131/4
f 116/132/4 122/133/4 127/134/4 123/135/4
f 121/136/4 120/130/4 125/131/4 126/137/4
f 122/133/4 121/136/4 126/137/4 127/134/4
f 128/138/4 117/129/4 129/139/4
f 131/140/4 129/139/4 117/129/4
f 131/140/4 117/129/4 132/141/4
f 118/128/4 130/142/4 117/129/4
f 130/142/4 132/141/4 117/129/4
f 139/143/4 133/144/4 134/145/4 135/146/4
f 136/147/4 140/148/4 139/143/4 135/146/4
f 116/132/4 123/135/4 142/149/4 138/150/4
f 137/151/4 141/152/4 140/148/4 136/147/4
f 138/150/4 142/149/4 141/152/4 137/151/4
f 143/153/4 144/154/4 133/144/4
f 146/155/4 133/144/4 144/154/4
f 146/155/4 147/156/4 133/144/4
f 134/145/4 133/144/4 145/157/4
f 145/157/4 133/144/4 147/156/4
f 150/158/4 151/159/4 149/160/4 148/161/4
f 154/162/4 155/163/4 153/164/4 152/165/4
