# Blender v2.91.2 OBJ File: ''
# www.blender.org
mtllib 27.mtl
o Cube.079_Cube.101
v 1.009269 -0.182530 1.009270
v 1.009269 0.368236 1.009270
v -1.009269 -0.182531 1.009270
v -1.009269 0.368235 1.009270
v 1.009269 -0.182530 -1.009270
v 1.009269 0.368236 -1.009270
v -1.009269 -0.182530 -1.009270
v -1.009269 0.368236 -1.009270
v 1.009269 0.001060 0.195045
v 1.009269 0.001060 -0.195046
v 1.009269 0.184646 -0.195046
v 1.009269 0.184646 0.195045
v 1.009269 0.001060 0.882767
v 1.009269 0.184646 0.882767
v 1.009269 0.001060 -0.882767
v 1.009269 0.184646 -0.882767
vt 0.358330 0.489133
vt 0.276911 0.489134
vt 0.261933 0.467397
vt 0.404514 0.489134
vt 0.500912 0.467397
vt 0.485935 0.489134
vt 0.022955 0.532602
vt 0.022955 0.467396
vt 0.261933 0.532603
vt 0.500912 0.532604
vt 0.739889 0.467397
vt 0.739888 0.532603
vt 0.276910 0.510868
vt 0.404514 0.510867
vt 0.485935 0.510868
vt 0.358331 0.510867
vt 0.978866 0.467396
vt 0.978866 0.532602
vn 1.0000 -0.0000 0.0000
vn 0.0000 0.0000 -1.0000
vn 0.0000 0.0000 1.0000
vn -1.0000 0.0000 0.0000
usemtl None
s off
f 11/1/1 16/2/1 6/3/1
f 12/4/1 2/5/1 14/6/1
f 7/7/2 8/8/2 6/3/2 5/9/2
f 1/10/3 2/5/3 4/11/3 3/12/3
f 6/3/1 16/2/1 15/13/1 5/9/1
f 1/10/1 9/14/1 13/15/1
f 12/4/1 9/14/1 10/16/1 11/1/1
f 9/14/1 1/10/1 5/9/1 10/16/1
f 14/6/1 2/5/1 1/10/1 13/15/1
f 8/17/4 7/18/4 3/12/4 4/11/4
f 10/16/1 5/9/1 15/13/1
f 6/3/1 2/5/1 12/4/1 11/1/1
