# Blender v3.0.0 OBJ File: ''
# www.blender.org
mtllib 20.mtl
o Cone
v 1.142127 -0.706304 -0.462827
v 1.118073 -0.947174 -0.462827
v 1.135374 -0.707255 -0.488279
v 1.116925 -0.709853 -0.506910
v 1.091722 -0.713403 -0.513729
v 1.066520 -0.716954 -0.506910
v 1.048069 -0.719553 -0.488279
v 1.041317 -0.720503 -0.462827
v 1.048069 -0.719553 -0.437376
v 1.066520 -0.716954 -0.418745
v 1.091722 -0.713403 -0.411924
v 1.116925 -0.709853 -0.418745
v 0.962621 -0.576809 -0.419408
v 0.989033 -0.559125 -0.387624
v 0.856958 -0.453827 -0.361332
v 0.833825 -0.489952 -0.404229
v 1.135374 -0.707255 -0.437376
v 1.061190 -0.510814 -0.538031
v 1.025111 -0.534969 -0.549664
v 0.888558 -0.404481 -0.580023
v 0.920160 -0.355133 -0.564322
v 1.025111 -0.534970 -0.375990
v 1.061190 -0.510814 -0.387624
v 0.920160 -0.355133 -0.361332
v 0.888558 -0.404481 -0.345631
v 0.989033 -0.559125 -0.538031
v 0.962621 -0.576809 -0.506245
v 0.833825 -0.489952 -0.521425
v 0.856958 -0.453827 -0.564322
v 1.087602 -0.493130 -0.419408
v 1.097269 -0.486658 -0.462827
v 0.951760 -0.305787 -0.462827
v 0.943293 -0.319009 -0.404229
v 0.952954 -0.583281 -0.462827
v 0.825358 -0.503175 -0.462827
v 1.087602 -0.493130 -0.506245
v 0.943293 -0.319008 -0.521425
v 1.142127 -0.706304 0.462827
v 1.135374 -0.707255 0.488279
v 1.118073 -0.947174 0.462827
v 1.116925 -0.709854 0.506910
v 1.091722 -0.713403 0.513729
v 1.066520 -0.716954 0.506910
v 1.048069 -0.719553 0.488279
v 1.041317 -0.720504 0.462827
v 1.048069 -0.719553 0.437376
v 1.066520 -0.716954 0.418745
v 1.091722 -0.713403 0.411924
v 1.116925 -0.709854 0.418745
v 0.962621 -0.576809 0.419408
v 0.833825 -0.489952 0.404229
v 0.856958 -0.453827 0.361332
v 0.989033 -0.559125 0.387624
v 1.135374 -0.707255 0.437376
v 1.061190 -0.510814 0.538031
v 0.920160 -0.355134 0.564321
v 0.888558 -0.404481 0.580023
v 1.025111 -0.534970 0.549664
v 1.025111 -0.534970 0.375990
v 0.888558 -0.404481 0.345631
v 0.920160 -0.355134 0.361332
v 1.061190 -0.510814 0.387624
v 0.989033 -0.559125 0.538031
v 0.856958 -0.453827 0.564321
v 0.833825 -0.489952 0.521425
v 0.962621 -0.576809 0.506245
v 1.087602 -0.493130 0.419408
v 0.943293 -0.319009 0.404229
v 0.951760 -0.305787 0.462827
v 1.097269 -0.486658 0.462827
v 0.952954 -0.583281 0.462827
v 0.825358 -0.503175 0.462827
v 1.087602 -0.493130 0.506245
v 0.943293 -0.319009 0.521425
vt 0.322755 0.525211
vt 0.506242 0.345872
vt 0.345003 0.542573
vt 0.367628 0.558383
vt 0.391154 0.572503
vt 0.416155 0.584242
vt 0.442722 0.592627
vt 0.470613 0.596874
vt 0.704118 0.518065
vt 0.610753 0.753765
vt 0.677786 0.507941
vt 0.650553 0.502066
vt 0.623020 0.499882
vt 0.595589 0.500496
vt 0.748856 0.340273
vt 0.705745 0.317800
vt 0.806317 0.164375
vt 0.852218 0.208182
vt 0.568103 0.503025
vt 0.540176 0.507089
vt 0.280613 0.755125
vt 0.325848 0.765363
vt 0.320570 0.967926
vt 0.254830 0.975127
vt 0.661808 0.299994
vt 0.617441 0.286483
vt 0.704007 0.082591
vt 0.757550 0.121407
vt 0.372836 0.771655
vt 0.421419 0.773484
vt 0.445789 0.939430
vt 0.384217 0.954752
vt 0.572039 0.276641
vt 0.525108 0.270363
vt 0.584014 0.031004
vt 0.645088 0.051495
vt 0.789284 0.366885
vt 0.897397 0.250995
vt 0.236297 0.741189
vt 0.188244 0.972959
vt 0.192418 0.723398
vt 0.125039 0.960512
vt 0.469721 0.770390
vt 0.506242 0.924614
vt 0.063583 0.517887
vt 0.091002 0.511208
vt 0.157107 0.756807
vt 0.118126 0.506098
vt 0.145377 0.502900
vt 0.172993 0.502478
vt 0.200659 0.505759
vt 0.227829 0.513355
vt 0.930796 0.585540
vt 0.902906 0.581293
vt 0.966426 0.334539
vt 0.876338 0.572908
vt 0.851338 0.561169
vt 0.827812 0.547050
vt 0.881603 0.762151
vt 0.905973 0.928096
vt 0.844400 0.943419
vt 0.833020 0.760322
vt 0.805187 0.531239
vt 0.782939 0.513877
vt 0.119698 0.290978
vt 0.186651 0.079831
vt 0.243616 0.113425
vt 0.165142 0.300245
vt 0.786032 0.754029
vt 0.780753 0.956592
vt 0.715014 0.963794
vt 0.740796 0.743791
vt 0.210562 0.313828
vt 0.296218 0.151603
vt 0.346046 0.190886
vt 0.255601 0.332136
vt 0.696481 0.729855
vt 0.648428 0.961625
vt 0.585222 0.949178
vt 0.652601 0.712064
vt 0.929904 0.759056
vt 0.966426 0.913280
vt 0.073571 0.285461
vt 0.125062 0.054430
vt 0.026257 0.283637
vt 0.062328 0.039789
vt 0.395061 0.229248
vt 0.298358 0.354816
vn 0.9986 0.0526 0.0000
vn 0.1132 -0.9936 0.0000
vn 0.8775 0.0228 -0.4790
vn 0.5418 -0.0614 -0.8382
vn 0.0721 -0.1822 -0.9806
vn -0.4090 -0.3086 -0.8588
vn -0.7668 -0.4036 -0.4991
vn -0.8986 -0.4387 0.0000
vn -0.7668 -0.4036 0.4992
vn -0.4090 -0.3086 0.8588
vn 0.0721 -0.1822 0.9806
vn 0.5418 -0.0614 0.8382
vn -0.5856 -0.6301 0.5100
vn -0.2789 -0.4078 0.8694
vn -0.1994 -0.4628 0.8638
vn -0.4460 -0.7429 0.4992
vn 0.8775 0.0228 0.4790
vn 0.5201 0.1610 -0.8388
vn 0.1269 -0.1174 -0.9849
vn 0.1390 -0.0836 -0.9868
vn 0.4685 0.2821 -0.8372
vn 0.1269 -0.1174 0.9849
vn 0.5201 0.1610 0.8388
vn 0.4685 0.2821 0.8372
vn 0.1390 -0.0836 0.9868
vn -0.2788 -0.4078 -0.8694
vn -0.5856 -0.6301 -0.5099
vn -0.4460 -0.7429 -0.4992
vn -0.1994 -0.4628 -0.8638
vn 0.8013 0.3584 0.4790
vn 0.9030 0.4296 0.0000
vn 0.7800 0.6257 0.0000
vn 0.6987 0.5362 0.4736
vn -0.7003 -0.7138 0.0000
vn -0.5349 -0.8449 0.0000
vn 0.8013 0.3584 -0.4789
vn 0.6987 0.5362 -0.4736
vn -0.7668 -0.4036 0.4991
vn -0.7668 -0.4036 -0.4992
vn -0.5856 -0.6301 -0.5100
vn -0.2789 -0.4078 -0.8694
vn -0.2788 -0.4078 0.8694
vn -0.5856 -0.6301 0.5099
vn 0.8013 0.3584 -0.4790
vn 0.8013 0.3584 0.4789
usemtl None
s 1
f 1/1/1 2/2/2 3/3/3
f 3/3/3 2/2/2 4/4/4
f 4/4/4 2/2/2 5/5/5
f 5/5/5 2/2/2 6/6/6
f 6/6/6 2/2/2 7/7/7
f 7/7/7 2/2/2 8/8/8
f 8/9/8 2/10/2 9/11/9
f 9/11/9 2/10/2 10/12/10
f 10/12/10 2/10/2 11/13/11
f 11/13/11 2/10/2 12/14/12
f 13/15/13 14/16/14 15/17/15 16/18/16
f 12/14/12 2/10/2 17/19/17
f 17/19/17 2/10/2 1/20/1
f 18/21/18 19/22/19 20/23/20 21/24/21
f 22/25/22 23/26/23 24/27/24 25/28/25
f 26/29/26 27/30/27 28/31/28 29/32/29
f 30/33/30 31/34/31 32/35/32 33/36/33
f 34/37/34 13/15/13 16/18/16 35/38/35
f 36/39/36 18/21/18 21/24/21 37/40/37
f 31/41/31 36/39/36 37/40/37 32/42/32
f 14/16/14 22/25/22 25/28/25 15/17/15
f 19/22/19 26/29/26 29/32/29 20/23/20
f 23/26/23 30/33/30 33/36/33 24/27/24
f 27/30/27 34/43/34 35/44/35 28/31/28
f 7/7/7 8/8/8 34/43/34 27/30/27
f 12/14/12 17/19/17 30/33/30 23/26/23
f 5/5/5 6/6/6 26/29/26 19/22/19
f 10/12/10 11/13/11 22/25/22 14/16/14
f 1/1/1 3/3/3 36/39/36 31/41/31
f 3/3/3 4/4/4 18/21/18 36/39/36
f 8/9/8 9/11/9 13/15/13 34/37/34
f 17/19/17 1/20/1 31/34/31 30/33/30
f 6/6/6 7/7/7 27/30/27 26/29/26
f 11/13/11 12/14/12 23/26/23 22/25/22
f 4/4/4 5/5/5 19/22/19 18/21/18
f 9/11/9 10/12/10 14/16/14 13/15/13
f 38/45/1 39/46/17 40/47/2
f 39/46/17 41/48/12 40/47/2
f 41/48/12 42/49/11 40/47/2
f 42/49/11 43/50/10 40/47/2
f 43/50/10 44/51/38 40/47/2
f 44/51/38 45/52/8 40/47/2
f 45/53/8 46/54/39 40/55/2
f 46/54/39 47/56/6 40/55/2
f 47/56/6 48/57/5 40/55/2
f 48/57/5 49/58/4 40/55/2
f 50/59/40 51/60/28 52/61/29 53/62/41
f 49/58/4 54/63/3 40/55/2
f 54/63/3 38/64/1 40/55/2
f 55/65/23 56/66/24 57/67/25 58/68/22
f 59/69/19 60/70/20 61/71/21 62/72/18
f 63/73/42 64/74/15 65/75/16 66/76/43
f 67/77/44 68/78/37 69/79/32 70/80/31
f 71/81/34 72/82/35 51/60/28 50/59/40
f 73/83/45 74/84/33 56/66/24 55/65/23
f 70/85/31 69/86/32 74/84/33 73/83/45
f 53/62/41 52/61/29 60/70/20 59/69/19
f 58/68/22 57/67/25 64/74/15 63/73/42
f 62/72/18 61/71/21 68/78/37 67/77/44
f 66/76/43 65/75/16 72/87/35 71/88/34
f 44/51/38 66/76/43 71/88/34 45/52/8
f 49/58/4 62/72/18 67/77/44 54/63/3
f 42/49/11 58/68/22 63/73/42 43/50/10
f 47/56/6 53/62/41 59/69/19 48/57/5
f 38/45/1 70/85/31 73/83/45 39/46/17
f 39/46/17 73/83/45 55/65/23 41/48/12
f 45/53/8 71/81/34 50/59/40 46/54/39
f 54/63/3 67/77/44 70/80/31 38/64/1
f 43/50/10 63/73/42 66/76/43 44/51/38
f 48/57/5 59/69/19 62/72/18 49/58/4
f 41/48/12 55/65/23 58/68/22 42/49/11
f 46/54/39 50/59/40 53/62/41 47/56/6
