# Blender v2.79 (sub 0) OBJ File: 'hat_176.blend'
# www.blender.org
mtllib hat_176.mtl
o 12_Cube.066
v 0.335038 1.704784 0.647608
v 0.335038 3.000000 0.647608
v 0.335038 1.704784 -0.647608
v 0.335038 3.000000 -0.647608
v 1.000000 1.704784 0.647608
v 1.000000 3.000000 0.647608
v 1.000000 1.704784 -0.647608
v 1.000000 3.000000 -0.647608
v 1.000000 2.870478 -0.518086
v 1.000000 1.834306 -0.518086
v 1.000000 1.834306 0.518086
v 1.000000 2.870478 0.518086
v 0.572484 1.704784 -0.230037
v 0.572484 1.704784 0.230037
v 1.000000 1.704784 -0.230037
v 1.000000 1.704784 0.230037
v 1.000000 1.000000 -0.230037
v 1.000000 1.000000 0.230037
v 0.572484 1.312686 -0.230037
v 0.572484 1.312686 0.230037
v -1.000000 1.000000 -0.230037
v -1.000000 1.000000 0.230037
v -0.617872 1.312686 -0.230037
v -0.617872 1.312686 0.230037
v -1.000000 1.583166 -0.230037
v -1.000000 1.583166 0.230037
v -0.617872 1.583166 -0.230037
v -0.617872 1.583166 0.230037
v 0.615340 3.000000 0.491162
v 0.615340 3.402587 0.491162
v 0.615340 3.000000 0.349668
v 0.615340 3.402587 0.349668
v 0.756833 3.000000 0.491162
v 0.756833 3.402587 0.491162
v 0.756833 3.000000 0.349668
v 0.756833 3.402587 0.349668
v 0.570706 3.402587 0.535796
v 0.570706 3.402587 0.305034
v 0.801467 3.402587 0.305034
v 0.801467 3.402587 0.535796
v 0.570706 3.603943 0.535796
v 0.570706 3.603943 0.305034
v 0.801467 3.603943 0.305034
v 0.801467 3.603943 0.535796
v 0.615340 3.000000 -0.491162
v 0.615340 3.402587 -0.491162
v 0.615340 3.000000 -0.349668
v 0.615340 3.402587 -0.349668
v 0.756833 3.000000 -0.491162
v 0.756833 3.402587 -0.491162
v 0.756833 3.000000 -0.349668
v 0.756833 3.402587 -0.349668
v 0.570706 3.402587 -0.535796
v 0.570706 3.402587 -0.305034
v 0.801467 3.402587 -0.305034
v 0.801467 3.402587 -0.535796
v 0.570706 3.603943 -0.535796
v 0.570706 3.603943 -0.305034
v 0.801467 3.603943 -0.305034
v 0.801467 3.603943 -0.535796
vt 0.045451 0.963907
vt 0.045451 0.736861
vt 0.272496 0.736861
vt 0.272496 0.963907
vt 0.015922 0.361573
vt 0.242967 0.361573
vt 0.242967 0.478138
vt 0.015922 0.478138
vt 0.470012 0.705183
vt 0.470012 0.478138
vt 0.492716 0.500842
vt 0.492716 0.682478
vt 0.697057 0.478138
vt 0.470012 0.361573
vt 0.697057 0.361573
vt 0.516570 0.759009
vt 0.516570 0.940645
vt 0.334935 0.940645
vt 0.334934 0.759009
vt 0.697057 0.705183
vt 0.674352 0.682478
vt 0.674352 0.500842
vt 0.860533 0.139234
vt 0.785592 0.084422
vt 0.785592 0.015689
vt 0.860533 0.015689
vt 0.697057 0.551336
vt 0.697057 0.631984
vt 0.770255 0.478138
vt 0.770255 0.403196
vt 0.850904 0.478138
vt 0.850903 0.403196
vt 0.924102 0.478137
vt 0.924101 0.361573
vt 0.984079 0.139235
vt 0.984079 0.219883
vt 0.860533 0.219883
vt 0.509943 0.219883
vt 0.509943 0.139234
vt 0.407717 0.219883
vt 0.407717 0.139234
vt 0.015922 0.219883
vt 0.015922 0.139234
vt 0.084654 0.139234
vt 0.084654 0.219883
vt 0.785592 0.274696
vt 0.576928 0.274695
vt 0.576928 0.084422
vt 0.576928 0.322109
vt 0.509943 0.322109
vt 0.293318 0.139234
vt 0.293318 0.219883
vt 0.340732 0.219883
vt 0.340732 0.139234
vt 0.509943 0.037008
vt 0.576928 0.037008
vt 0.828394 0.540007
vt 0.828369 0.610579
vt 0.803566 0.610570
vt 0.803591 0.539999
vt 0.902803 0.540033
vt 0.902779 0.610605
vt 0.877976 0.610596
vt 0.878000 0.540024
vt 0.853173 0.610588
vt 0.853197 0.540016
vt 0.108848 0.579220
vt 0.149299 0.579220
vt 0.149299 0.614516
vt 0.108848 0.614516
vt 0.181927 0.546593
vt 0.157124 0.546593
vt 0.149299 0.538768
vt 0.189751 0.538769
vt 0.157124 0.571396
vt 0.181927 0.571396
vt 0.189751 0.579220
vt 0.189751 0.614516
vt 0.189751 0.654968
vt 0.149299 0.654968
vt 0.230202 0.579220
vt 0.230202 0.614516
vt 0.068397 0.579220
vt 0.068397 0.614516
vt 0.877976 0.676734
vt 0.902779 0.676734
vt 0.902779 0.747306
vt 0.877976 0.747306
vt 0.803566 0.676734
vt 0.828369 0.676734
vt 0.828369 0.747306
vt 0.803566 0.747306
vt 0.853173 0.676734
vt 0.853173 0.747306
vt 0.369701 0.579220
vt 0.369701 0.614516
vt 0.329250 0.614516
vt 0.329250 0.579220
vt 0.296622 0.546593
vt 0.288798 0.538768
vt 0.329250 0.538768
vt 0.321425 0.546593
vt 0.321425 0.571396
vt 0.296622 0.571396
vt 0.288798 0.579220
vt 0.288798 0.614516
vt 0.329249 0.654968
vt 0.288798 0.654968
vt 0.248347 0.614516
vt 0.248347 0.579220
vt 0.410152 0.579220
vt 0.410152 0.614516
vt 0.860533 0.343429
vt 0.785592 0.343428
vn -1.0000 0.0000 0.0000
vn 0.0000 0.0000 -1.0000
vn 1.0000 -0.0000 0.0000
vn 0.0000 0.0000 1.0000
vn 0.0000 1.0000 0.0000
vn 0.0000 -1.0000 0.0000
usemtl None
s off
f 1/1/1 2/2/1 4/3/1 3/4/1
f 3/5/2 4/6/2 8/7/2 7/8/2
f 8/9/3 6/10/3 12/11/3 9/12/3
f 5/13/4 6/10/4 2/14/4 1/15/4
f 8/7/5 4/6/5 2/14/5 6/10/5
f 10/16/3 9/17/3 12/18/3 11/19/3
f 7/20/3 8/9/3 9/12/3 10/21/3
f 6/10/3 5/13/3 11/22/3 12/11/3
f 17/23/2 19/24/2 13/25/2 15/26/2
f 10/21/3 11/22/3 16/27/3 15/28/3
f 11/22/3 5/13/3 16/27/3
f 7/20/3 10/21/3 15/28/3
f 16/29/6 5/13/6 14/30/6
f 15/31/6 13/32/6 7/33/6
f 7/33/6 13/32/6 3/34/6
f 5/13/6 1/15/6 14/30/6
f 1/15/6 3/34/6 13/32/6 14/30/6
f 15/35/3 16/36/3 18/37/3 17/23/3
f 18/37/6 22/38/6 21/39/6 17/23/6
f 22/38/1 26/40/1 25/41/1 21/39/1
f 14/42/1 13/43/1 19/44/1 20/45/1
f 22/38/4 18/37/4 20/46/4 24/47/4
f 21/39/2 23/48/2 19/24/2 17/23/2
f 24/47/4 28/49/4 26/50/4 22/38/4
f 20/45/5 19/44/5 23/51/5 24/52/5
f 28/53/5 27/54/5 25/41/5 26/40/5
f 24/52/3 23/51/3 27/54/3 28/53/3
f 23/48/2 21/39/2 25/55/2 27/56/2
f 29/57/1 30/58/1 32/59/1 31/60/1
f 31/61/2 32/62/2 36/63/2 35/64/2
f 35/64/3 36/63/3 34/65/3 33/66/3
f 33/66/4 34/65/4 30/58/4 29/57/4
f 37/67/4 40/68/4 44/69/4 41/70/4
f 32/71/6 30/72/6 37/73/6 38/74/6
f 30/72/6 34/75/6 40/68/6 37/73/6
f 36/76/6 32/71/6 38/74/6 39/77/6
f 34/75/6 36/76/6 39/77/6 40/68/6
f 43/78/5 42/79/5 41/80/5 44/69/5
f 39/77/2 38/81/2 42/82/2 43/78/2
f 40/68/3 39/77/3 43/78/3 44/69/3
f 38/83/1 37/67/1 41/70/1 42/84/1
f 45/85/1 47/86/1 48/87/1 46/88/1
f 47/89/4 51/90/4 52/91/4 48/92/4
f 51/90/3 49/93/3 50/94/3 52/91/3
f 49/93/2 45/85/2 46/88/2 50/94/2
f 53/95/2 57/96/2 60/97/2 56/98/2
f 48/99/6 54/100/6 53/101/6 46/102/6
f 46/102/6 53/101/6 56/98/6 50/103/6
f 52/104/6 55/105/6 54/100/6 48/99/6
f 50/103/6 56/98/6 55/105/6 52/104/6
f 59/106/5 60/97/5 57/107/5 58/108/5
f 55/105/4 59/106/4 58/109/4 54/110/4
f 56/98/3 60/97/3 59/106/3 55/105/3
f 54/111/1 58/112/1 57/96/1 53/95/1
f 20/46/4 18/37/4 16/113/4 14/114/4
