# Blender v3.0.0 OBJ File: ''
# www.blender.org
mtllib Tropicano.mtl
o Plane.004_Plane.005
v -0.164343 1.186307 -0.182627
v -0.108748 1.197753 -0.208501
v 0.026654 0.804830 -0.103315
v -0.405350 1.474250 -0.241285
v -0.110149 1.549331 -0.377841
v -0.634181 1.797178 -0.516176
v -0.292338 1.898061 -0.679729
v -0.623309 1.560352 -1.424273
v -0.115650 1.363271 -0.499932
v 0.029204 0.853246 -0.172370
v -0.409836 1.630483 -0.779602
v -0.162043 0.976074 -1.926499
v -0.602243 0.207037 -1.969639
v -0.366867 0.222315 -2.035125
v -0.021268 1.047822 -0.119701
v 0.009923 0.765644 -0.031801
v 0.151606 1.263868 -0.159480
v -0.053393 1.471946 -0.467071
v 0.243110 1.487394 -0.377840
v 0.415948 1.511644 -0.713851
v 0.288963 1.523839 -0.270941
v 0.028503 0.863071 0.016564
v 0.106919 1.373609 0.151328
v -0.099126 0.756189 0.005897
v 0.018893 1.863473 0.557614
v 0.760457 2.370534 0.588813
v 1.150565 1.977092 1.183699
v 0.719049 1.929185 1.578554
v 1.312274 1.232595 1.633869
v 1.112580 1.224855 1.815368
v -0.149659 1.537454 -0.239351
v -0.005219 0.858083 -0.158103
v -0.222034 2.171836 -0.547468
v -1.487365 2.514577 -0.645716
v -1.222129 2.503010 -1.222981
v -1.792522 1.786935 -1.359652
v -0.113646 0.843139 0.014665
v -0.420203 1.100292 0.075104
v -1.092744 1.238300 0.173644
v -1.315171 0.849771 0.630721
v -1.478719 0.875724 0.269432
v -1.504857 0.319429 0.615450
v -1.579563 0.334791 0.447428
v -0.238538 1.042469 -0.221618
v -0.389633 1.254871 -0.442211
v -1.222309 0.971557 -0.670229
v -1.015791 1.058059 -1.009131
v -0.013902 1.140647 0.374576
v -0.083489 1.141765 0.371720
v -0.083585 0.807498 0.082336
v -0.232912 1.371179 0.610773
v -0.271474 1.470611 1.022427
v -0.341602 1.215348 1.454510
v -0.086139 0.721866 1.715629
v 0.110969 1.439065 0.131701
v 0.011501 0.769714 0.000297
v 0.267056 2.050754 0.349030
v 0.145509 2.578357 0.719938
v -0.353213 2.665599 0.427782
v -0.190546 2.503602 1.210601
v -0.563787 1.918708 1.589217
v -0.786462 1.933440 1.459375
v 0.016172 1.466571 -0.096963
v -0.231790 2.183872 -0.409640
v 0.295442 2.838184 -1.299309
v 0.826802 2.901384 -0.963626
v 0.897851 2.200609 -1.515115
v 0.119175 0.852003 -0.073895
v 0.346205 1.142063 -0.134372
v 0.352704 1.152490 -0.083539
v 0.125463 0.860172 -0.023048
v 0.531042 1.289638 -0.286656
v 0.879636 1.366327 -0.025869
v 1.169303 0.882368 -0.012347
v 1.283316 0.153089 -0.188622
v 0.372053 1.284797 0.135449
v 0.749427 1.580512 -0.006067
v 1.214353 1.591258 0.132920
v 1.027471 1.588323 0.605545
v 1.578221 0.983865 0.348122
v 1.401526 1.008262 0.805974
v -0.232730 1.249578 0.290710
v -0.280190 1.579627 0.662150
v -0.591350 1.692424 0.317117
v -0.987536 1.874854 0.650146
v -1.393713 1.461507 0.951863
v -1.532434 0.646848 1.291534
v -0.430294 1.276630 -0.164892
v -0.075010 0.792209 -0.100601
v -0.719590 1.734784 0.071055
v -1.257095 1.943576 0.094024
v -1.291726 1.839921 -0.465603
v -2.081519 0.659687 -0.085512
v -2.097443 0.624465 -0.335533
v -0.019648 0.778247 -0.062951
v -0.708916 0.903594 -0.267654
v -0.940364 0.620477 -0.061863
v -0.930567 0.604452 -0.330606
v -0.988465 0.159646 -0.127057
v -0.983403 0.152330 -0.252049
v -0.029492 0.793369 -0.077672
v -0.466657 1.885009 -1.123074
v -0.794915 1.802539 -0.968191
v -0.778346 1.522016 -1.353502
v -0.056073 0.843639 -0.148640
v -0.030458 1.373111 -0.524011
v 0.043635 1.667230 -0.906071
v -0.055234 1.509203 -1.435806
v -0.581878 1.497863 -1.289172
v -0.665970 0.959394 -1.783386
v -0.037904 0.764713 -0.046202
v 0.026614 1.049320 -0.105489
v -0.102795 1.249404 -0.235925
v 0.131761 1.492551 -0.798383
v 0.483143 1.260961 -1.071316
v 0.351139 1.247228 -1.111068
v -0.022202 0.858936 -0.073451
v 0.340050 1.530576 -0.181140
v 0.727993 2.125154 -0.158115
v 0.458037 2.070301 -0.636684
v 1.275502 2.339960 -0.407660
v 0.961084 2.287878 -0.965641
v 1.833840 1.804016 -0.617316
v 1.528700 1.782919 -1.152110
v 1.943967 0.811773 -0.883048
v 1.804029 0.801870 -1.131504
v -0.026779 0.764366 -0.059865
v 0.034840 1.363950 0.217396
v 0.403458 1.940269 0.207638
v 0.311904 2.284560 0.996546
v -0.049822 0.860406 -0.061599
v -0.193883 1.540218 -0.142668
v -0.458960 2.177341 -0.034095
v -0.651084 2.662752 -0.852956
v -0.927507 2.677118 -0.254665
v -1.915641 1.792066 -1.093300
v -0.140716 0.842063 -0.046210
v -0.392883 1.101714 0.135867
v -0.710247 1.250217 0.044874
v -0.566091 1.255710 0.368542
v -0.924878 1.221353 0.550999
v 0.002441 0.759252 -0.061852
v 0.037480 0.773511 -0.118409
v -0.273340 1.028257 -0.164902
v -0.575802 1.172986 -0.141299
v -0.721927 1.330671 -0.679610
v -0.939090 1.228034 -0.328961
v -1.206633 0.529911 -1.169757
v -1.303350 0.490554 -1.013659
v -0.013966 0.804527 0.085477
v 0.136576 1.371398 0.627377
v 0.158037 1.477466 1.042156
v 0.070779 1.236438 1.471208
v -0.278292 0.713126 1.706950
v 0.092180 0.759811 0.047336
v 0.030136 1.440931 0.084969
v -0.162066 2.103282 0.094998
v -0.673743 2.547195 0.931690
v -0.061146 0.752561 -0.073961
v 0.027169 0.761846 -0.015484
v -0.072338 1.455787 -0.155109
v 0.238046 2.221187 -0.089138
v 0.487324 2.832374 -0.435431
v -0.059274 2.838663 -0.794847
v 0.654101 2.143863 -1.676529
v 0.564642 1.357265 -0.016245
v 0.840610 1.291810 -0.341082
v 1.130137 0.852283 -0.313082
v 1.300664 0.157670 -0.048280
v 0.064722 0.846919 -0.056623
v 0.034730 0.850810 0.019913
v 0.401727 1.281440 0.058785
v 0.590222 1.583427 0.400914
v 1.617098 0.258096 0.727488
v 1.699888 0.247094 0.516246
v -0.051893 0.770141 0.012844
v -0.110360 0.788354 -0.052068
v -0.291478 1.265506 0.226050
v -0.625676 1.739503 1.052473
v -1.040352 1.344121 1.337565
v -1.371070 0.594566 1.470704
v -0.069236 0.806604 -0.010437
v -0.424134 1.292705 -0.075047
v -0.750589 1.647087 -0.408670
v -1.821097 1.350885 -0.481797
v -1.791670 1.437700 0.057105
v -0.017816 0.775596 -0.108237
v -0.255031 0.895261 -0.124850
v -0.256690 0.897998 -0.079562
v -0.439922 0.951046 -0.233879
v -0.449535 0.965213 0.006969
v -0.720237 0.919633 0.013087
vt 0.370620 0.101265
vt 0.370893 0.077368
vt 0.474669 0.077319
vt 0.474073 0.101135
vt 0.541810 0.058554
vt 0.542742 0.138869
vt 0.647825 0.052073
vt 0.644000 0.149503
vt 0.766804 0.057646
vt 0.766742 0.147243
vt 0.871176 0.075294
vt 0.870654 0.124699
vt 0.370893 0.077368
vt 0.370620 0.101265
vt 0.474073 0.101135
vt 0.474669 0.077319
vt 0.539457 0.138149
vt 0.538886 0.059209
vt 0.633197 0.149503
vt 0.630646 0.052073
vt 0.760091 0.147986
vt 0.752584 0.056575
vt 0.870654 0.124699
vt 0.871176 0.075294
vt 0.370620 0.101265
vt 0.370893 0.077368
vt 0.474669 0.077319
vt 0.474073 0.101135
vt 0.541557 0.058611
vt 0.535335 0.137244
vt 0.628429 0.052073
vt 0.616663 0.149503
vt 0.740048 0.055630
vt 0.732745 0.151042
vt 0.871176 0.075294
vt 0.870654 0.124699
vt 0.370620 0.101265
vt 0.370893 0.077368
vt 0.474669 0.077319
vt 0.474073 0.101135
vt 0.543534 0.058168
vt 0.540634 0.138407
vt 0.370620 0.101265
vt 0.370893 0.077368
vt 0.474669 0.077319
vt 0.474073 0.101135
vt 0.550050 0.056708
vt 0.545789 0.139538
vt 0.642949 0.052073
vt 0.633490 0.149503
vt 0.757037 0.056910
vt 0.751829 0.148909
vt 0.871176 0.075294
vt 0.870654 0.124699
vt 0.370620 0.101265
vt 0.370893 0.077368
vt 0.474669 0.077319
vt 0.474073 0.101135
vt 0.550059 0.056706
vt 0.543664 0.139071
vt 0.647804 0.052073
vt 0.635785 0.149503
vt 0.751395 0.056485
vt 0.743852 0.149801
vt 0.871176 0.075294
vt 0.870654 0.124699
vt 0.370620 0.101265
vt 0.370893 0.077368
vt 0.474669 0.077319
vt 0.474073 0.101135
vt 0.537021 0.059627
vt 0.531054 0.136305
vt 0.629529 0.052073
vt 0.618076 0.149503
vt 0.750279 0.056401
vt 0.743090 0.149886
vt 0.871176 0.075294
vt 0.870654 0.124699
vt 0.370620 0.101265
vt 0.370893 0.077368
vt 0.474669 0.077319
vt 0.474073 0.101135
vt 0.541643 0.058591
vt 0.536907 0.137589
vt 0.629736 0.052073
vt 0.619745 0.149503
vt 0.740447 0.055660
vt 0.734515 0.150844
vt 0.871176 0.075294
vt 0.870654 0.124699
vt 0.370620 0.101265
vt 0.370893 0.077368
vt 0.474669 0.077319
vt 0.474073 0.101135
vt 0.552617 0.056133
vt 0.551343 0.140756
vt 0.645347 0.052073
vt 0.639471 0.149503
vt 0.754027 0.056683
vt 0.751939 0.148897
vt 0.871176 0.075294
vt 0.870654 0.124699
vt 0.370620 0.101265
vt 0.370893 0.077368
vt 0.474669 0.077319
vt 0.474073 0.101135
vt 0.545290 0.057774
vt 0.540442 0.138365
vt 0.657722 0.052073
vt 0.633514 0.149503
vt 0.752076 0.056536
vt 0.751293 0.148969
vt 0.871176 0.075294
vt 0.870654 0.124699
vt 0.370893 0.077368
vt 0.370620 0.101265
vt 0.474073 0.101135
vt 0.474669 0.077319
vt 0.542808 0.138883
vt 0.539929 0.058975
vt 0.648451 0.149503
vt 0.649091 0.052073
vt 0.741185 0.150099
vt 0.736103 0.055332
vt 0.870654 0.124699
vt 0.871176 0.075294
vt 0.370893 0.077368
vt 0.370620 0.101265
vt 0.474073 0.101135
vt 0.474669 0.077319
vt 0.539453 0.138148
vt 0.535613 0.059942
vt 0.602142 0.147436
vt 0.595136 0.052073
vt 0.723760 0.152046
vt 0.719254 0.054063
vt 0.870654 0.124699
vt 0.871176 0.075294
vt 0.370620 0.101265
vt 0.370893 0.077368
vt 0.474669 0.077319
vt 0.474073 0.101135
vt 0.547252 0.057335
vt 0.546681 0.139733
vt 0.632074 0.052073
vt 0.627341 0.149503
vt 0.738957 0.055548
vt 0.737896 0.150467
vt 0.871176 0.075294
vt 0.870654 0.124699
vt 0.370620 0.101265
vt 0.370893 0.077368
vt 0.474669 0.077319
vt 0.474073 0.101135
vt 0.545686 0.057686
vt 0.537329 0.137682
vt 0.631459 0.052073
vt 0.633593 0.149503
vt 0.742229 0.055794
vt 0.747820 0.149357
vt 0.871176 0.075294
vt 0.870654 0.124699
vt 0.370620 0.101265
vt 0.370893 0.077368
vt 0.474669 0.077319
vt 0.474073 0.101135
vt 0.551481 0.056388
vt 0.545430 0.139459
vt 0.640502 0.052073
vt 0.629086 0.149503
vt 0.746527 0.056118
vt 0.740210 0.150208
vt 0.871176 0.075294
vt 0.870654 0.124699
vt 0.370620 0.101265
vt 0.370893 0.077368
vt 0.474669 0.077319
vt 0.474073 0.101135
vt 0.540851 0.058769
vt 0.631586 0.052073
vt 0.626572 0.149503
vt 0.533556 0.136854
vt 0.749508 0.056343
vt 0.740999 0.150120
vt 0.871176 0.075294
vt 0.870654 0.124699
vt 0.351514 0.218979
vt 0.436069 0.214218
vt 0.438952 0.348264
vt 0.353272 0.342436
vt 0.657656 0.207325
vt 0.659276 0.345185
vt 0.836075 0.245800
vt 0.836642 0.308606
vt 0.544428 0.057967
vt 0.536904 0.137588
vn 0.3325 0.3487 0.8763
vn 0.3121 0.3870 0.8677
vn 0.3118 0.3875 0.8675
vn 0.2085 0.5873 0.7821
vn 0.2113 0.5824 0.7850
vn -0.0590 0.9119 0.4061
vn -0.0408 0.8985 0.4370
vn -0.3490 0.9071 -0.2353
vn -0.3411 0.9158 -0.2119
vn -0.4337 0.7180 -0.5444
vn 0.1623 0.5655 0.8087
vn 0.1311 0.6955 0.7065
vn 0.1343 0.6838 0.7173
vn -0.0252 0.9910 0.1316
vn -0.0245 0.9906 0.1343
vn -0.1730 0.8507 -0.4964
vn -0.1713 0.8555 -0.4887
vn -0.2513 0.4811 -0.8399
vn -0.2521 0.4750 -0.8431
vn -0.2739 0.2094 -0.9387
vn -0.2828 0.2566 0.9242
vn -0.2839 0.3318 0.8996
vn -0.2839 0.3311 0.8999
vn -0.2588 0.6049 0.7530
vn -0.2602 0.5966 0.7592
vn -0.1530 0.9313 0.3306
vn -0.1670 0.9085 0.3830
vn 0.0206 0.9572 -0.2886
vn 0.0052 0.9719 -0.2351
vn 0.1034 0.8201 -0.5628
vn -0.7741 0.4831 0.4090
vn -0.7764 0.4902 0.3961
vn -0.7763 0.4899 0.3966
vn -0.2664 0.8180 0.5098
vn -0.6257 0.7639 -0.1577
vn -0.6502 0.3729 -0.6619
vn -0.6534 0.3924 -0.6474
vn -0.6535 0.3929 -0.6470
vn -0.5893 0.6225 -0.5150
vn -0.5827 0.6371 -0.5045
vn -0.1360 0.9901 0.0358
vn -0.1797 0.9837 -0.0112
vn 0.4112 0.7254 0.5521
vn 0.3822 0.7576 0.5291
vn 0.5503 0.5205 0.6529
vn 0.8853 0.2358 0.4008
vn 0.8772 0.2673 0.3989
vn 0.8772 0.2673 0.3988
vn 0.7557 0.5603 0.3391
vn 0.7625 0.5489 0.3425
vn 0.2063 0.9756 0.0754
vn 0.2728 0.9561 0.1068
vn -0.4816 0.8430 -0.2396
vn -0.4401 0.8703 -0.2212
vn -0.7040 0.6254 -0.3365
vn 0.5848 0.7623 -0.2772
vn 0.5190 0.8182 -0.2474
vn 0.5188 0.8183 -0.2473
vn 0.1659 0.9836 -0.0703
vn 0.1691 0.9830 -0.0719
vn -0.3697 0.9079 0.1977
vn -0.3437 0.9207 0.1848
vn -0.7535 0.5415 0.3730
vn -0.7530 0.5423 0.3728
vn -0.8621 0.2963 0.4112
vn 0.5072 0.7084 0.4908
vn 0.4553 0.7514 0.4776
vn 0.4555 0.7513 0.4776
vn 0.1756 0.9151 0.3630
vn 0.1820 0.9126 0.3661
vn -0.3276 0.9428 0.0616
vn -0.2948 0.9518 0.0848
vn -0.7240 0.6327 -0.2749
vn -0.7069 0.6591 -0.2567
vn -0.8182 0.4177 -0.3950
vn 0.0517 0.6524 -0.7561
vn 0.0407 0.6964 -0.7165
vn 0.0405 0.6970 -0.7159
vn 0.0153 0.8972 -0.4414
vn 0.0147 0.9015 -0.4326
vn -0.0270 0.9878 0.1533
vn -0.0253 0.9913 0.1288
vn -0.0574 0.6827 0.7284
vn -0.0565 0.7196 0.6921
vn -0.0594 0.4427 0.8947
vn 0.5050 0.0934 -0.8581
vn 0.5101 0.1311 -0.8501
vn 0.5104 0.1336 -0.8495
vn 0.5063 0.4059 -0.7609
vn 0.5070 0.3985 -0.7643
vn 0.2803 0.9252 -0.2557
vn 0.2958 0.9118 -0.2847
vn -0.1571 0.8812 0.4458
vn -0.1620 0.8769 0.4525
vn -0.3394 0.6510 0.6790
vn -0.5553 0.0868 0.8271
vn -0.5602 0.1266 0.8186
vn -0.5601 0.1252 0.8189
vn -0.5251 0.3902 0.7563
vn -0.5258 0.3875 0.7572
vn -0.3023 0.8679 0.3942
vn -0.2978 0.8727 0.3869
vn 0.1422 0.9277 -0.3451
vn 0.1649 0.9086 -0.3839
vn 0.3686 0.5911 -0.7174
vn -0.7897 0.6133 -0.0129
vn -0.7253 0.6858 -0.0600
vn -0.7297 0.6814 -0.0571
vn -0.3087 0.9324 -0.1879
vn -0.3363 0.9239 -0.1824
vn 0.4541 0.8568 -0.2442
vn 0.4759 0.8452 -0.2432
vn 0.9162 0.3627 -0.1702
vn 0.9157 0.3639 -0.1704
vn 0.9727 0.1857 -0.1392
vn -0.7106 0.6333 -0.3067
vn -0.6801 0.6761 -0.2836
vn -0.6803 0.6757 -0.2838
vn -0.3058 0.9440 -0.1236
vn -0.2998 0.9463 -0.1212
vn 0.4433 0.8810 0.1654
vn 0.4234 0.8921 0.1579
vn 0.8491 0.4222 0.3176
vn 0.8509 0.4180 0.3183
vn 0.9119 0.2274 0.3416
vn 0.6897 0.5408 -0.4815
vn 0.6881 0.5639 -0.4567
vn 0.6881 0.5636 -0.4570
vn 0.5293 0.8224 -0.2086
vn 0.5416 0.8102 -0.2242
vn 0.0183 0.9547 0.2970
vn 0.0111 0.9530 0.3029
vn -0.4742 0.6188 0.6263
vn -0.4999 0.5853 0.6384
vn -0.6185 0.3915 0.6812
vn 0.8073 0.5708 -0.1501
vn 0.8011 0.5782 -0.1547
vn 0.5580 0.8091 -0.1844
vn 0.5599 0.8078 -0.1843
vn -0.2464 0.9563 -0.1576
vn -0.1579 0.9733 -0.1667
vn -0.8366 0.5462 -0.0428
vn -0.8053 0.5905 -0.0530
vn -0.9359 0.3522 -0.0007
vn 0.4524 0.8911 -0.0356
vn 0.3567 0.9269 -0.1170
vn 0.4070 0.9069 -0.1091
vn -0.1674 0.9783 0.1223
vn -0.5463 0.8347 -0.0696
vn -0.4972 0.8649 -0.0695
vn 0.2199 0.9676 0.1240
vn -0.9304 0.3621 -0.0566
vn -0.9135 0.4027 -0.0583
vn -0.9931 0.1091 -0.0439
vn 0.1581 0.9720 -0.1740
vn 0.1195 0.9808 -0.1542
vn 0.7295 0.5188 -0.4458
vn 0.7233 0.5297 -0.4431
vn 0.8432 0.2253 -0.4881
usemtl Material.001
s 1
f 101/1/1 3/2/1 2/3/2 1/4/3
f 2/3/2 5/5/4 4/6/5 1/4/3
f 5/5/4 7/7/6 6/8/7 4/6/5
f 7/7/6 102/9/8 103/10/9 6/8/7
f 102/9/8 8/11/10 104/12/10 103/10/9
f 105/13/11 10/14/11 106/15/12 9/16/13
f 106/15/12 107/17/14 11/18/15 9/16/13
f 107/17/14 108/19/16 109/20/17 11/18/15
f 108/19/16 12/21/18 110/22/19 109/20/17
f 12/21/18 14/23/20 13/24/20 110/22/19
f 111/25/21 16/26/21 112/27/22 15/28/23
f 112/27/22 17/29/24 113/30/25 15/28/23
f 17/29/24 19/31/26 18/32/27 113/30/25
f 19/31/26 20/33/28 114/34/29 18/32/27
f 20/33/28 115/35/30 116/36/30 114/34/29
f 117/37/31 22/38/31 118/39/32 21/40/33
f 118/39/32 119/41/34 120/42/35 21/40/33
f 127/43/36 24/44/36 128/45/37 23/46/38
f 128/45/37 25/47/39 129/48/40 23/46/38
f 25/47/39 130/49/41 26/50/42 129/48/40
f 130/49/41 28/51/43 27/52/44 26/50/42
f 28/51/43 30/53/45 29/54/45 27/52/44
f 131/55/46 32/56/46 31/57/47 132/58/48
f 31/57/47 33/59/49 133/60/50 132/58/48
f 33/59/49 134/61/51 135/62/52 133/60/50
f 134/61/51 35/63/53 34/64/54 135/62/52
f 35/63/53 36/65/55 136/66/55 34/64/54
f 37/67/56 137/68/56 38/69/57 138/70/58
f 38/69/57 139/71/59 140/72/60 138/70/58
f 139/71/59 39/73/61 141/74/62 140/72/60
f 39/73/61 41/75/63 40/76/64 141/74/62
f 41/75/63 43/77/65 42/78/65 40/76/64
f 142/79/66 143/80/66 44/81/67 144/82/68
f 44/81/67 45/83/69 145/84/70 144/82/68
f 45/83/69 146/85/71 147/86/72 145/84/70
f 146/85/71 47/87/73 46/88/74 147/86/72
f 47/87/73 148/89/75 149/90/75 46/88/74
f 150/91/76 50/92/76 49/93/77 48/94/78
f 49/93/77 51/95/79 151/96/80 48/94/78
f 51/95/79 52/97/81 152/98/82 151/96/80
f 52/97/81 53/99/83 153/100/84 152/98/82
f 53/99/83 154/101/85 54/102/85 153/100/84
f 155/103/86 56/104/86 156/105/87 55/106/88
f 156/105/87 157/107/89 57/108/90 55/106/88
f 157/107/89 59/109/91 58/110/92 57/108/90
f 59/109/91 158/111/93 60/112/94 58/110/92
f 158/111/93 62/113/95 61/114/95 60/112/94
f 159/115/96 160/116/96 63/117/97 161/118/98
f 63/117/97 162/119/99 64/120/100 161/118/98
f 162/119/99 163/121/101 164/122/102 64/120/100
f 163/121/101 66/123/103 65/124/104 164/122/102
f 66/123/103 67/125/105 165/126/105 65/124/104
f 68/127/106 71/128/106 70/129/107 69/130/108
f 70/129/107 166/131/109 72/132/110 69/130/108
f 166/131/109 73/133/111 167/134/112 72/132/110
f 73/133/111 74/135/113 168/136/114 167/134/112
f 74/135/113 169/137/115 75/138/115 168/136/114
f 170/139/116 171/140/116 76/141/117 172/142/118
f 76/141/117 173/143/119 77/144/120 172/142/118
f 173/143/119 79/145/121 78/146/122 77/144/120
f 79/145/121 81/147/123 80/148/124 78/146/122
f 81/147/123 174/149/125 175/150/125 80/148/124
f 176/151/126 177/152/126 178/153/127 82/154/128
f 178/153/127 84/155/129 83/156/130 82/154/128
f 84/155/129 85/157/131 179/158/132 83/156/130
f 85/157/131 86/159/133 180/160/134 179/158/132
f 86/159/133 87/161/135 181/162/135 180/160/134
f 182/163/136 89/164/136 88/165/137 183/166/137
f 88/165/137 184/167/138 90/168/139 183/166/137
f 184/167/138 92/169/140 91/170/141 90/168/139
f 92/169/140 185/171/142 186/172/143 91/170/141
f 185/171/142 94/173/144 93/174/144 186/172/143
f 95/175/145 187/176/145 188/177/146 189/178/147
f 190/179/148 96/180/149 192/181/150 191/182/151
f 96/180/149 98/183/152 97/184/153 192/181/150
f 98/183/152 100/185/154 99/186/154 97/184/153
f 119/187/34 121/188/155 122/189/156 120/190/35
f 121/188/155 123/191/157 124/192/158 122/189/156
f 123/191/157 125/193/159 126/194/159 124/192/158
f 188/177/146 190/195/148 191/196/151 189/178/147
