# Blender v2.91.2 OBJ File: ''
# www.blender.org
mtllib hat_210.mtl
o Plane
v -0.869880 0.270313 -1.141688
v -1.141688 1.156186 -0.869880
v -0.869880 1.156186 -1.141688
v -0.869880 1.156186 1.141688
v -1.141688 0.270313 0.869880
v -0.869880 0.270313 1.141688
v 0.869880 0.373954 -1.141688
v 0.869880 1.156186 -1.141688
v 1.141688 1.156186 0.869882
v 0.869880 0.373954 1.141688
v 1.141688 0.373954 0.869880
v 0.960648 1.337227 0.794890
v 0.960648 1.337227 -0.794890
v 0.794890 1.337227 -0.960647
v 1.926164 0.270313 -0.869880
v 1.926164 0.373956 0.869880
v 1.926164 0.270313 0.869880
v 1.654357 0.270313 1.141688
v 1.654357 0.373956 1.141688
v 1.654357 0.270313 -1.141688
v 1.868378 0.439997 0.595664
v 1.868378 0.379104 0.534775
v 1.868378 0.379104 0.595664
v 2.002763 0.439997 0.595664
v 2.002763 0.260222 0.534775
v 2.002763 0.439997 0.534775
v 1.941151 0.379104 0.595664
v 1.868378 0.439997 0.534775
v 1.941151 0.379104 0.534775
v 1.941151 0.260222 0.534775
v 2.002763 0.260222 0.595663
v 1.941151 0.260222 0.595663
v 1.868378 0.439997 0.511825
v 1.868378 0.379104 0.450934
v 1.868378 0.379104 0.511825
v 2.002763 0.439997 0.511825
v 2.002763 0.260222 0.450934
v 2.002763 0.439997 0.450934
v 1.941151 0.379104 0.511825
v 1.868378 0.439997 0.450934
v 1.941151 0.379104 0.450934
v 1.941151 0.260222 0.450934
v 2.002763 0.260222 0.511825
v 1.941151 0.260222 0.511825
v 1.810652 0.445225 0.449266
v 1.870347 0.650204 0.449266
v 1.870347 0.445225 0.449266
v 1.801668 0.373932 0.603732
v 1.801668 0.445225 0.443607
v 1.801668 0.373932 0.443607
v 1.879333 0.373932 0.603732
v 1.801668 0.445225 0.603732
v 1.879333 0.445225 0.443607
v 1.879333 0.373932 0.443607
v 1.879333 0.445225 0.603732
v 1.810652 0.445225 0.598073
v 1.870347 0.445225 0.598073
v 1.810652 0.650204 0.598073
v 1.810652 0.650204 0.449266
v 1.870347 0.650204 0.598073
v 1.810652 0.650204 0.604278
v 1.870347 0.650204 0.655224
v 1.870347 0.650204 0.604278
v 1.870347 0.650204 0.443063
v 1.810652 0.650204 0.392117
v 1.810652 0.650204 0.443063
v 1.870347 0.452337 0.655224
v 1.810652 0.452337 0.604278
v 1.870347 0.452337 0.604278
v 1.810652 0.452337 0.392117
v 1.870347 0.452337 0.443063
v 1.810652 0.452337 0.443063
v 1.870347 0.490510 0.392117
v 1.870347 0.650204 0.392117
v 1.810652 0.490510 0.655224
v 1.810652 0.650204 0.655224
v 1.870347 0.490510 0.443063
v 1.810652 0.490510 0.392117
v 1.810652 0.472058 0.604278
v 1.870347 0.472058 0.604278
v 1.810652 0.490510 0.604278
v 1.810652 0.472058 0.655224
v 1.870347 0.490510 0.655224
v 1.870347 0.472058 0.392117
v 1.870347 0.472058 0.443063
v 1.810652 0.472058 0.443063
v 1.810652 0.472058 0.392117
v 1.870347 0.452337 0.392117
v 1.810652 0.490510 0.443063
v 1.870347 0.472058 0.655224
v 1.810652 0.452337 0.655224
v 1.873333 0.471134 0.389567
v 1.873333 0.491434 0.445608
v 1.873333 0.471134 0.445608
v 1.870347 0.490510 0.604278
v 1.873333 0.491434 0.657772
v 1.807666 0.491434 0.445608
v 1.873333 0.491434 0.389567
v 1.807666 0.471134 0.445608
v 1.807666 0.471134 0.389567
v 1.807666 0.471134 0.657772
v 1.807666 0.491434 0.389567
v 1.873333 0.491434 0.601729
v 1.807666 0.471134 0.601729
v 1.873333 0.471134 0.601729
v 1.873333 0.471134 0.657772
v 1.807666 0.491434 0.657772
v 1.807666 0.491434 0.601729
v 1.893639 0.642741 0.470530
v 1.787362 0.642741 0.576809
v 1.787362 0.642741 0.470530
v 1.787362 0.750303 0.576809
v 1.893639 0.750303 0.470530
v 1.787362 0.750303 0.470530
v 1.893639 0.642741 0.576809
v 1.893639 0.750303 0.576809
v 1.654357 0.373956 -1.141688
v -1.141688 0.270313 -0.869880
v 1.141688 0.373956 -0.869880
v -0.794890 1.337227 -0.960647
v -0.960648 1.337227 -0.794890
v -0.960648 1.337227 0.794890
v -0.794890 1.337227 0.960648
v 0.794890 1.337227 0.960648
v -1.141688 1.156186 0.869882
v 0.869880 1.156186 1.141688
v 1.141688 1.156186 -0.869880
v 1.790156 0.736910 0.456643
v 1.774480 0.831828 0.472318
v 1.790156 0.831828 0.456643
v 1.790156 0.831828 0.588332
v 1.774480 0.736910 0.572657
v 1.790156 0.736910 0.588332
v 1.890492 0.764154 0.456643
v 1.890492 0.831828 0.456643
v 1.906170 0.831828 0.572657
v 1.890492 0.764154 0.588332
v 1.906170 0.764154 0.572657
v 1.895728 0.842269 0.476643
v 1.886168 0.842269 0.467084
v 1.794480 0.842269 0.577891
v 1.951412 0.736910 0.472318
v 1.951412 0.764154 0.572657
v 1.951412 0.736910 0.572657
v 1.935737 0.736910 0.588332
v 1.935737 0.764154 0.588332
v 1.935737 0.736910 0.456643
v 1.935737 0.764154 0.456643
v 1.774480 0.736910 0.472318
v 1.906170 0.764154 0.472318
v 1.784920 0.842269 0.476643
v 1.784920 0.842269 0.568330
v 1.886168 0.842269 0.577891
v 1.895728 0.842269 0.568330
v 1.906170 0.831828 0.472318
v 1.774478 0.831828 0.572657
v 1.794480 0.842269 0.467084
v 1.890492 0.831828 0.588332
v 1.926164 0.373956 -0.869880
v 1.951412 0.764154 0.472318
vt 0.928367 0.514025
vt 0.986622 0.665224
vt 0.928367 0.665224
vt 0.928366 0.016780
vt 0.986622 0.167979
vt 0.928366 0.167979
vt 0.664705 0.585615
vt 0.664705 0.665224
vt 0.606450 0.016780
vt 0.664705 0.096390
vt 0.606450 0.096390
vt 0.078210 0.894185
vt 0.078210 0.658996
vt 0.105322 0.635006
vt 0.504625 0.472833
vt 0.433036 0.209172
vt 0.504625 0.209172
vt 0.545818 0.167979
vt 0.545818 0.096390
vt 0.545818 0.514025
vt 0.314149 0.209172
vt 0.391843 0.167979
vt 0.759202 0.862375
vt 0.779411 0.842166
vt 0.779411 0.862375
vt 0.759202 0.777359
vt 0.818865 0.797568
vt 0.759202 0.797568
vt 0.759202 0.732761
vt 0.779411 0.756912
vt 0.759202 0.842166
vt 0.779411 0.818015
vt 0.839073 0.693307
vt 0.818865 0.717458
vt 0.818865 0.693307
vt 0.738994 0.777359
vt 0.738994 0.732761
vt 0.839073 0.756912
vt 0.818865 0.777359
vt 0.818865 0.756912
vt 0.818865 0.818015
vt 0.839073 0.717458
vt 0.621865 0.713515
vt 0.642074 0.693307
vt 0.642074 0.713515
vt 0.621865 0.758114
vt 0.681528 0.778323
vt 0.621865 0.778323
vt 0.642074 0.737667
vt 0.621865 0.822921
vt 0.642074 0.798770
vt 0.642074 0.822921
vt 0.681527 0.862375
vt 0.701736 0.838224
vt 0.701736 0.862375
vt 0.601656 0.822921
vt 0.681527 0.798770
vt 0.701736 0.778323
vt 0.701736 0.798770
vt 0.681528 0.758114
vt 0.681527 0.838224
vt 0.102979 0.084457
vt 0.171008 0.104268
vt 0.102979 0.104269
vt 0.888895 0.767951
vt 0.942037 0.744291
vt 0.942037 0.767951
vt 0.865235 0.718517
vt 0.888895 0.744291
vt 0.865235 0.744291
vt 0.965697 0.744291
vt 0.942037 0.718517
vt 0.965697 0.718517
vt 0.942037 0.694857
vt 0.888895 0.718517
vt 0.888895 0.694857
vt 0.940159 0.721498
vt 0.940159 0.741310
vt 0.890773 0.741310
vt 0.890773 0.721498
vt 0.220394 0.084457
vt 0.171008 0.084457
vt 0.171008 0.172297
vt 0.220394 0.104269
vt 0.220394 0.172297
vt 0.220394 0.016428
vt 0.171008 0.016428
vt 0.288423 0.104269
vt 0.288423 0.084457
vt 0.121519 0.267387
vt 0.104571 0.247610
vt 0.121479 0.247575
vt 0.101425 0.475441
vt 0.121271 0.458573
vt 0.121237 0.475481
vt 0.104789 0.355588
vt 0.121657 0.335742
vt 0.121697 0.355553
vt 0.121065 0.560468
vt 0.101288 0.543520
vt 0.121100 0.543560
vt 0.101566 0.405534
vt 0.101459 0.458533
vt 0.051612 0.267529
vt 0.104611 0.267422
vt 0.048426 0.475334
vt 0.174270 0.458680
vt 0.189558 0.247438
vt 0.183053 0.267263
vt 0.183013 0.247451
vt 0.121626 0.320386
vt 0.104736 0.329231
vt 0.121643 0.329197
vt 0.104464 0.194611
vt 0.033071 0.475303
vt 0.039650 0.458408
vt 0.039616 0.475316
vt 0.189625 0.458711
vt 0.183046 0.475606
vt 0.183081 0.458698
vt 0.101597 0.390454
vt 0.121395 0.397039
vt 0.101584 0.396999
vt 0.121130 0.528480
vt 0.104433 0.179255
vt 0.121354 0.185766
vt 0.104446 0.185800
vt 0.036532 0.267559
vt 0.043037 0.247734
vt 0.043077 0.267546
vt 0.040689 0.457565
vt 0.047388 0.476177
vt 0.040651 0.476164
vt 0.174478 0.247469
vt 0.050671 0.246728
vt 0.051572 0.247717
vt 0.175271 0.476435
vt 0.174236 0.475588
vt 0.048460 0.458426
vt 0.047425 0.457579
vt 0.182008 0.476449
vt 0.182045 0.457850
vt 0.043978 0.268535
vt 0.122371 0.404677
vt 0.121378 0.405574
vt 0.122215 0.193538
vt 0.121372 0.194576
vt 0.101301 0.536975
vt 0.121113 0.537015
vt 0.100312 0.536074
vt 0.122119 0.529381
vt 0.122105 0.536118
vt 0.122384 0.397940
vt 0.100578 0.404633
vt 0.100591 0.397896
vt 0.175309 0.457837
vt 0.182156 0.268256
vt 0.175375 0.246476
vt 0.182111 0.246462
vt 0.043934 0.246741
vt 0.050715 0.268521
vt 0.103888 0.328196
vt 0.122473 0.321422
vt 0.122487 0.328158
vt 0.122201 0.186801
vt 0.103616 0.193575
vt 0.103603 0.186839
vt 0.100326 0.529337
vt 0.101318 0.528440
vt 0.104718 0.320421
vt 0.103875 0.321459
vt 0.175419 0.268269
vt 0.174518 0.267280
vt 0.896526 0.812672
vt 0.931798 0.847943
vt 0.896526 0.847943
vt 0.931798 0.883640
vt 0.896526 0.918911
vt 0.896526 0.883640
vt 0.967495 0.918911
vt 0.967495 0.883640
vt 0.860829 0.883640
vt 0.860829 0.918911
vt 0.896527 0.954609
vt 0.931798 0.918911
vt 0.931798 0.954609
vt 0.545818 0.585615
vt 0.487563 0.514025
vt 0.487563 0.096390
vt 0.557969 0.913902
vt 0.402872 0.643442
vt 0.557969 0.643442
vt 0.314149 0.472833
vt 0.234539 0.209172
vt 0.340968 0.635531
vt 0.363627 0.660958
vt 0.363627 0.896147
vt 0.354711 0.959207
vt 0.336515 0.919874
vt 0.100869 0.919874
vt 0.038965 0.912444
vt 0.087126 0.595936
vt 0.402872 0.913902
vt 0.357726 0.595936
vt 0.084111 0.959207
vt 0.038965 0.641983
vt 0.606450 0.585615
vt 0.606450 0.665224
vt 0.798107 0.955290
vt 0.805098 0.973434
vt 0.798107 0.973434
vt 0.798107 0.895620
vt 0.805098 0.913764
vt 0.798107 0.913764
vt 0.766468 0.963880
vt 0.766468 0.973434
vt 0.759477 0.895620
vt 0.766468 0.905174
vt 0.759477 0.905174
vt 0.619031 0.951529
vt 0.615858 0.948174
vt 0.653263 0.917298
vt 0.747258 0.950347
vt 0.738668 0.918707
vt 0.747258 0.918707
vt 0.752201 0.913764
vt 0.752201 0.905174
vt 0.752201 0.955290
vt 0.724401 0.918707
vt 0.733724 0.913764
vt 0.752201 0.963880
vt 0.745211 0.955290
vt 0.745211 0.905174
vt 0.652322 0.888394
vt 0.616906 0.908704
vt 0.616906 0.888394
vt 0.724401 0.950347
vt 0.714848 0.918707
vt 0.619111 0.913757
vt 0.610704 0.914713
vt 0.650090 0.913943
vt 0.658417 0.914879
vt 0.653163 0.948373
vt 0.652239 0.956810
vt 0.650010 0.951716
vt 0.616823 0.956727
vt 0.610704 0.950593
vt 0.652322 0.908704
vt 0.615958 0.917099
vt 0.658417 0.950759
vt 0.759477 0.963880
vt 0.759477 0.973434
vt 0.986622 0.514025
vt 0.986622 0.016780
vt 0.664705 0.016780
vt 0.433036 0.472833
vt 0.391843 0.514025
vt 0.272956 0.514025
vt 0.272956 0.167979
vt 0.779411 0.732760
vt 0.839073 0.777359
vt 0.621865 0.693307
vt 0.601656 0.778323
vt 0.681528 0.737667
vt 0.104749 0.335776
vt 0.101254 0.560428
vt 0.189598 0.267250
vt 0.033105 0.458395
vt 0.189591 0.475619
vt 0.121409 0.390494
vt 0.121341 0.179221
vt 0.036492 0.247747
vt 0.931798 0.812672
vt 0.487563 0.585615
vt 0.487563 0.167979
vt 0.234539 0.472833
vt 0.969559 0.209172
vt 0.969559 0.472833
vt 0.805098 0.955290
vt 0.805098 0.895620
vt 0.766468 0.895620
vt 0.738668 0.950347
vt 0.733724 0.955290
vt 0.719458 0.955290
vt 0.719458 0.913764
vt 0.745211 0.963881
vt 0.745211 0.913764
vt 0.714848 0.950347
vt 0.803050 0.918707
vt 0.803050 0.950347
vn -0.3827 0.0000 -0.9239
vn -0.9239 0.0000 -0.3827
vn -0.3827 -0.0000 0.9239
vn -0.9239 -0.0000 0.3827
vn 0.1874 0.0000 -0.9823
vn 0.3827 0.0000 -0.9239
vn 0.9239 -0.0000 0.3827
vn 0.1874 -0.0000 0.9823
vn 0.4044 0.8991 0.1675
vn 0.4044 0.8991 -0.1675
vn 0.1675 0.8991 -0.4044
vn 0.9239 0.0000 -0.3827
vn 0.3827 0.0000 0.9239
vn -0.0000 1.0000 -0.0000
vn -1.0000 0.0000 0.0000
vn 1.0000 -0.0000 0.0000
vn 0.0000 0.0000 1.0000
vn 0.0000 0.0000 -1.0000
vn 0.0000 -1.0000 0.0000
vn 0.0000 0.9403 -0.3402
vn 0.0000 0.9403 -0.3404
vn 0.2955 0.9554 0.0000
vn 0.2955 0.9553 0.0000
vn -0.2950 0.9555 0.0000
vn -0.2951 0.9555 -0.0000
vn -0.2955 0.9554 0.0000
vn 0.2955 -0.9554 0.0000
vn 0.2955 -0.9553 0.0000
vn 0.0000 -0.9401 -0.3409
vn 0.0000 0.9402 0.3407
vn 0.0000 0.9404 0.3401
vn -0.2955 -0.9554 0.0000
vn -0.2954 0.9554 0.0000
vn 0.0000 -0.9400 -0.3411
vn 0.0000 -0.9402 0.3406
vn 0.0000 0.9400 -0.3411
vn -0.0000 0.9401 -0.3408
vn -0.0000 0.9402 -0.3406
vn 0.2954 0.9554 0.0000
vn -0.2954 -0.9554 0.0000
vn 0.0000 0.9402 0.3406
vn -0.1675 0.8991 -0.4044
vn -0.6269 0.7345 -0.2597
vn -0.4044 0.8991 -0.1675
vn -0.4044 0.8991 0.1675
vn -0.2597 0.7345 0.6269
vn -0.1675 0.8991 0.4044
vn 0.1675 0.8991 0.4044
vn 0.6269 0.7345 0.2597
vn 0.2597 0.7345 -0.6269
vn -0.6269 0.7345 0.2597
vn -0.2597 0.7345 -0.6269
vn 0.2597 0.7345 0.6269
vn 0.6269 0.7345 -0.2597
vn -0.2597 0.7345 -0.6270
vn -0.6270 0.7345 -0.2597
vn 0.2597 0.7345 0.6270
vn -0.0000 0.9403 -0.3403
vn 0.2954 -0.9554 0.0000
vn 0.2950 0.9555 -0.0000
usemtl None
s 1
f 1/1/1 2/2/2 3/3/1
f 4/4/3 5/5/4 6/6/3
f 7/7/5 3/3/1 8/8/6
f 9/9/7 10/10/8 11/11/7
f 12/12/9 13/13/10 14/14/11
f 15/15/12 16/16/7 17/17/7
f 10/10/8 18/18/13 19/19/13
f 7/7/5 20/20/6 1/1/1
f 11/21/14 19/22/14 16/16/14
f 21/23/15 22/24/15 23/25/15
f 24/26/16 25/27/16 26/28/16
f 21/29/17 27/30/17 24/26/17
f 28/31/18 29/32/18 22/24/18
f 22/33/19 27/34/19 23/35/19
f 21/29/14 26/36/14 28/37/14
f 30/38/19 31/39/19 32/40/19
f 29/32/18 25/27/18 30/41/18
f 27/30/17 31/39/17 24/26/17
f 29/42/15 32/40/15 27/34/15
f 33/43/15 34/44/15 35/45/15
f 36/46/16 37/47/16 38/48/16
f 33/43/17 39/49/17 36/46/17
f 40/50/18 41/51/18 34/52/18
f 34/53/19 39/54/19 35/55/19
f 33/56/14 38/48/14 40/50/14
f 42/57/19 43/58/19 44/59/19
f 41/51/18 37/47/18 42/57/18
f 39/49/17 43/60/17 36/46/17
f 41/61/15 44/59/15 39/54/15
f 45/62/18 46/63/18 47/64/18
f 48/65/15 49/66/15 50/67/15
f 51/68/17 52/69/17 48/70/17
f 50/71/18 53/72/18 54/73/18
f 54/74/16 55/75/16 51/76/16
f 47/77/14 49/66/14 45/78/14
f 56/79/14 49/66/14 52/69/14
f 56/79/14 55/75/14 57/80/14
f 57/80/14 53/72/14 47/77/14
f 58/81/14 46/63/14 59/82/14
f 47/83/16 60/84/16 57/85/16
f 56/86/15 59/82/15 45/87/15
f 57/88/17 58/81/17 56/89/17
f 61/90/14 62/91/14 63/92/14
f 64/93/14 65/94/14 66/95/14
f 67/96/19 68/97/19 69/98/19
f 70/99/19 71/100/19 72/101/19
f 73/102/18 65/94/18 74/103/18
f 75/104/17 62/91/17 76/105/17
f 77/106/16 74/103/16 64/93/16
f 78/107/15 66/95/15 65/94/15
f 69/108/18 79/109/18 80/110/18
f 81/111/15 76/105/15 61/90/15
f 68/97/15 82/112/15 79/113/15
f 83/114/16 63/92/16 62/91/16
f 71/115/16 84/116/16 85/117/16
f 70/118/15 86/119/15 87/120/15
f 88/121/18 87/122/18 84/123/18
f 89/124/17 64/93/17 66/95/17
f 67/125/16 80/126/16 90/127/16
f 91/128/17 90/129/17 82/130/17
f 92/131/16 93/132/16 94/133/16
f 95/134/18 61/90/18 63/92/18
f 75/104/20 96/135/21 83/136/21
f 78/107/22 97/137/23 89/138/23
f 73/139/24 93/132/25 98/140/26
f 87/120/27 99/141/28 100/142/27
f 90/129/29 101/143/29 82/130/29
f 73/102/30 102/144/30 78/145/31
f 84/116/32 94/133/32 85/117/32
f 83/114/26 103/146/33 95/147/33
f 72/101/17 85/148/17 86/149/17
f 94/150/17 97/151/17 99/152/17
f 100/153/18 98/154/18 92/155/18
f 99/141/15 102/156/15 100/142/15
f 104/157/18 103/158/18 105/159/18
f 106/160/17 107/161/17 101/143/17
f 101/162/15 108/163/15 104/164/15
f 105/165/16 96/166/16 106/167/16
f 85/148/34 99/152/34 86/149/34
f 82/112/27 104/164/28 79/113/28
f 79/109/35 105/159/35 80/110/35
f 89/124/36 93/168/37 77/169/38
f 75/170/39 108/163/23 107/171/39
f 87/122/35 92/155/35 84/123/35
f 90/127/32 105/165/40 106/167/32
f 95/134/41 108/172/41 81/173/41
f 109/174/19 110/175/19 111/176/19
f 112/177/14 113/178/14 114/179/14
f 110/175/15 114/179/15 111/176/15
f 115/180/17 112/177/17 110/181/17
f 111/182/18 113/178/18 109/183/18
f 109/184/16 116/185/16 115/186/16
f 117/187/6 15/188/12 20/20/6
f 18/18/13 16/189/7 19/19/13
f 5/190/4 2/191/2 118/192/2
f 10/10/8 4/4/3 6/6/3
f 119/193/12 9/194/7 11/21/7
f 15/15/19 17/17/19 18/18/19
f 120/195/42 2/191/43 121/196/44
f 122/197/45 4/198/46 123/199/47
f 124/200/48 9/201/49 12/12/9
f 13/13/10 8/202/50 14/14/11
f 121/196/44 125/203/51 122/197/45
f 14/14/11 3/204/52 120/195/42
f 123/199/47 126/205/53 124/200/48
f 12/12/9 127/206/54 13/13/10
f 119/207/12 8/8/6 127/208/12
f 128/209/1 129/210/2 130/211/1
f 131/212/3 132/213/4 133/214/3
f 134/215/5 130/211/1 135/216/6
f 136/217/7 137/218/8 138/219/7
f 139/220/10 140/221/11 141/222/47
f 142/223/12 143/224/7 144/225/7
f 137/218/8 145/226/13 146/227/13
f 134/215/5 147/228/6 128/209/1
f 138/229/14 146/230/14 143/224/14
f 148/231/6 142/232/12 147/228/6
f 145/226/13 143/233/7 146/227/13
f 132/234/4 129/235/2 149/236/2
f 137/218/8 131/212/3 133/214/3
f 150/237/12 136/238/7 138/229/7
f 142/223/19 144/225/19 145/226/19
f 151/239/44 130/240/55 129/235/56
f 152/241/45 131/242/46 141/222/47
f 153/243/48 136/244/49 154/245/9
f 140/221/11 155/246/54 135/247/50
f 151/239/44 156/248/51 152/241/45
f 157/249/42 135/247/50 130/240/55
f 141/222/47 158/250/57 153/243/48
f 139/220/10 136/244/49 155/246/54
f 150/251/12 135/216/6 155/252/12
f 1/1/1 118/253/2 2/2/2
f 4/4/3 125/254/4 5/5/4
f 7/7/5 1/1/1 3/3/1
f 9/9/7 126/255/13 10/10/8
f 14/14/11 120/195/42 123/199/47
f 120/195/42 121/196/44 123/199/47
f 121/196/44 122/197/45 123/199/47
f 123/199/47 124/200/48 14/14/11
f 124/200/48 12/12/9 14/14/11
f 15/15/12 159/256/12 16/16/7
f 10/10/8 6/6/3 18/18/13
f 7/7/5 117/187/6 20/20/6
f 117/257/14 7/258/14 119/193/14
f 11/21/14 10/259/14 19/22/14
f 117/257/14 119/193/14 159/256/14
f 119/193/14 11/21/14 159/256/14
f 16/16/14 159/256/14 11/21/14
f 21/23/15 28/31/15 22/24/15
f 24/26/16 31/39/16 25/27/16
f 21/29/17 23/260/17 27/30/17
f 28/31/18 26/28/18 29/32/18
f 22/33/19 29/42/19 27/34/19
f 21/29/14 24/26/14 26/36/14
f 30/38/19 25/261/19 31/39/19
f 29/32/18 26/28/18 25/27/18
f 27/30/17 32/40/17 31/39/17
f 29/42/15 30/38/15 32/40/15
f 33/43/15 40/262/15 34/44/15
f 36/46/16 43/60/16 37/47/16
f 33/43/17 35/45/17 39/49/17
f 40/50/18 38/48/18 41/51/18
f 34/53/19 41/61/19 39/54/19
f 33/56/14 36/263/14 38/48/14
f 42/57/19 37/47/19 43/58/19
f 41/51/18 38/48/18 37/47/18
f 39/49/17 44/264/17 43/60/17
f 41/61/15 42/57/15 44/59/15
f 45/62/18 59/82/18 46/63/18
f 48/65/15 52/69/15 49/66/15
f 51/68/17 55/75/17 52/69/17
f 50/71/18 49/66/18 53/72/18
f 54/74/16 53/72/16 55/75/16
f 47/77/14 53/72/14 49/66/14
f 56/79/14 45/78/14 49/66/14
f 56/79/14 52/69/14 55/75/14
f 57/80/14 55/75/14 53/72/14
f 58/81/14 60/84/14 46/63/14
f 47/83/16 46/63/16 60/84/16
f 56/86/15 58/81/15 59/82/15
f 57/88/17 60/84/17 58/81/17
f 61/90/14 76/105/14 62/91/14
f 64/93/14 74/103/14 65/94/14
f 67/96/19 91/265/19 68/97/19
f 70/99/19 88/266/19 71/100/19
f 73/102/18 78/145/18 65/94/18
f 75/104/17 83/136/17 62/91/17
f 77/106/16 73/139/16 74/103/16
f 78/107/15 89/138/15 66/95/15
f 69/108/18 68/267/18 79/109/18
f 81/111/15 75/170/15 76/105/15
f 68/97/15 91/265/15 82/112/15
f 83/114/16 95/147/16 63/92/16
f 71/115/16 88/268/16 84/116/16
f 70/118/15 72/269/15 86/119/15
f 88/121/18 70/270/18 87/122/18
f 89/124/17 77/169/17 64/93/17
f 67/125/16 69/271/16 80/126/16
f 91/128/17 67/272/17 90/129/17
f 92/131/16 98/140/16 93/132/16
f 95/134/18 81/173/18 61/90/18
f 75/104/20 107/161/58 96/135/21
f 78/107/22 102/156/22 97/137/23
f 73/139/24 77/106/26 93/132/25
f 87/120/27 86/119/28 99/141/28
f 90/129/29 106/160/29 101/143/29
f 73/102/30 98/154/30 102/144/30
f 84/116/32 92/131/32 94/133/32
f 83/114/26 96/166/26 103/146/33
f 72/101/17 71/100/17 85/148/17
f 94/150/17 93/168/17 97/151/17
f 100/153/18 102/144/18 98/154/18
f 99/141/15 97/137/15 102/156/15
f 104/157/18 108/172/18 103/158/18
f 106/160/17 96/135/17 107/161/17
f 101/162/15 107/171/15 108/163/15
f 105/165/16 103/146/16 96/166/16
f 85/148/34 94/150/34 99/152/34
f 82/112/27 101/162/59 104/164/28
f 79/109/35 104/157/35 105/159/35
f 89/124/36 97/151/37 93/168/37
f 75/170/39 81/111/60 108/163/23
f 87/122/35 100/153/35 92/155/35
f 90/127/32 80/126/40 105/165/40
f 95/134/41 103/158/41 108/172/41
f 109/174/19 115/273/19 110/175/19
f 112/177/14 116/185/14 113/178/14
f 110/175/15 112/177/15 114/179/15
f 115/180/17 116/185/17 112/177/17
f 111/182/18 114/179/18 113/178/18
f 109/184/16 113/178/16 116/185/16
f 117/187/6 159/274/12 15/188/12
f 18/18/13 17/275/7 16/189/7
f 5/190/4 125/203/4 2/191/2
f 10/10/8 126/255/13 4/4/3
f 119/193/12 127/276/12 9/194/7
f 18/18/19 6/6/19 1/1/19
f 6/6/19 5/277/19 1/1/19
f 5/277/19 118/278/19 1/1/19
f 1/1/19 20/20/19 18/18/19
f 20/20/19 15/15/19 18/18/19
f 120/195/42 3/204/52 2/191/43
f 122/197/45 125/203/51 4/198/46
f 124/200/48 126/205/53 9/201/49
f 13/13/10 127/206/54 8/202/50
f 121/196/44 2/191/43 125/203/51
f 14/14/11 8/202/50 3/204/52
f 123/199/47 4/198/46 126/205/53
f 12/12/9 9/201/49 127/206/54
f 119/207/12 7/7/5 8/8/6
f 128/209/1 149/279/2 129/210/2
f 131/212/3 156/280/4 132/213/4
f 134/215/5 128/209/1 130/211/1
f 136/217/7 158/281/13 137/218/8
f 140/221/11 157/249/42 141/222/47
f 157/249/42 151/239/44 141/222/47
f 151/239/44 152/241/45 141/222/47
f 141/222/47 153/243/48 154/245/9
f 154/245/9 139/220/10 141/222/47
f 142/223/12 160/282/12 143/224/7
f 137/218/8 133/214/3 145/226/13
f 134/215/5 148/231/6 147/228/6
f 148/283/14 134/284/14 150/237/14
f 138/229/14 137/285/14 146/230/14
f 148/283/14 150/237/14 160/282/14
f 150/237/14 138/229/14 160/282/14
f 143/224/14 160/282/14 138/229/14
f 148/231/6 160/286/12 142/232/12
f 145/226/13 144/287/7 143/233/7
f 132/234/4 156/248/4 129/235/2
f 137/218/8 158/281/13 131/212/3
f 150/237/12 155/288/12 136/238/7
f 145/226/19 133/214/19 128/209/19
f 133/214/19 132/289/19 128/209/19
f 132/289/19 149/290/19 128/209/19
f 128/209/19 147/228/19 145/226/19
f 147/228/19 142/223/19 145/226/19
f 151/239/44 157/249/42 130/240/55
f 152/241/45 156/248/51 131/242/46
f 153/243/48 158/250/57 136/244/49
f 140/221/11 139/220/10 155/246/54
f 151/239/44 129/235/56 156/248/51
f 157/249/42 140/221/11 135/247/50
f 141/222/47 131/242/46 158/250/57
f 139/220/10 154/245/9 136/244/49
f 150/251/12 134/215/5 135/216/6
