# Blender v2.79 (sub 0) OBJ File: ''
# www.blender.org
mtllib hat_75.mtl
o Chef_Cube.028
v -0.636595 2.777397 0.643736
v -1.212357 2.373131 1.219497
v -0.814514 2.757611 0.821656
v -0.975019 2.700190 0.982160
v -1.102396 2.610753 1.109537
v -1.184177 2.498056 1.191318
v -0.636595 2.777397 -0.643736
v -1.212357 2.373131 -1.219497
v -0.814514 2.757611 -0.821656
v -0.975019 2.700190 -0.982160
v -1.102396 2.610753 -1.109537
v -1.184177 2.498056 -1.191318
v 0.650877 2.777397 0.643736
v 1.226639 2.373131 1.219497
v 0.828797 2.757611 0.821656
v 0.989301 2.700190 0.982160
v 1.116678 2.610753 1.109537
v 1.198459 2.498056 1.191318
v 0.650877 2.777397 -0.643736
v 1.226639 2.373131 -1.219497
v 0.828797 2.757611 -0.821656
v 0.989301 2.700190 -0.982160
v 1.116678 2.610753 -1.109537
v 1.198459 2.498056 -1.191318
v -0.771778 2.777397 -0.000000
v -0.987062 2.757611 -0.000000
v -1.181273 2.700190 -0.000000
v -1.335398 2.610753 -0.000000
v -1.434353 2.498056 -0.000000
v -1.468451 2.373131 -0.000000
v 0.786061 2.777397 -0.000000
v 1.001345 2.757611 -0.000000
v 1.195555 2.700190 -0.000000
v 1.349681 2.610753 -0.000000
v 1.448635 2.498056 -0.000000
v 1.482733 2.373131 -0.000000
v 0.007141 2.777397 -0.778920
v 0.007141 2.757611 -0.994204
v 0.007141 2.700190 -1.188414
v 0.007141 2.610753 -1.342540
v 0.007141 2.498056 -1.441494
v 0.007141 2.373131 -1.475592
v 0.007141 2.777397 0.778920
v 0.007141 2.757611 0.994204
v 0.007141 2.700190 1.188414
v 0.007141 2.610753 1.342540
v 0.007141 2.498056 1.441494
v 0.007141 2.373131 1.475592
v -0.946184 2.757611 0.410828
v -1.132410 2.700190 0.491080
v -1.280199 2.610753 0.554768
v -1.375086 2.498056 0.595659
v -1.407782 2.373131 0.609749
v 0.754035 2.777397 0.321868
v -0.739754 2.777397 0.321868
v 0.960467 2.757611 0.410828
v 1.146692 2.700190 0.491080
v 1.294481 2.610753 0.554768
v 1.389367 2.498056 0.595659
v 1.422063 2.373131 0.609749
v -0.739754 2.777397 -0.321868
v 0.960467 2.757611 -0.410828
v 1.146692 2.700190 -0.491080
v 1.294481 2.610753 -0.554768
v 1.389367 2.498056 -0.595659
v 1.422063 2.373131 -0.609749
v -0.946184 2.757611 -0.410828
v -1.132410 2.700190 -0.491080
v -1.280199 2.610753 -0.554768
v -1.375086 2.498056 -0.595659
v -1.407782 2.373131 -0.609749
v 0.754035 2.777397 -0.321868
v 0.329008 2.777397 -0.746894
v 0.417969 2.757611 0.953326
v 0.498220 2.700190 1.139551
v 0.561910 2.610753 1.287340
v 0.602800 2.498056 1.382226
v 0.616890 2.373131 1.414922
v 0.417969 2.757611 -0.953326
v 0.498220 2.700190 -1.139551
v 0.561910 2.610753 -1.287340
v 0.602800 2.498056 -1.382226
v 0.616890 2.373131 -1.414922
v 0.329008 2.777397 0.746894
v -0.403687 2.757611 -0.953326
v -0.483938 2.700190 -1.139551
v -0.547626 2.610753 -1.287340
v -0.588518 2.498056 -1.382226
v -0.602608 2.373131 -1.414922
v -0.314726 2.777397 0.746894
v -0.314726 2.777397 -0.746894
v -0.403687 2.757611 0.953326
v -0.483938 2.700190 1.139551
v -0.547626 2.610753 1.287340
v -0.588518 2.498056 1.382226
v -0.602608 2.373131 1.414922
v 0.007166 2.777397 -0.000000
v -1.008198 0.605700 1.015339
v -1.008198 0.605700 -1.015339
v 1.022480 0.605700 1.015339
v 1.022480 0.605700 -1.015339
v -1.221418 0.605700 -0.000000
v 1.235702 0.605700 -0.000000
v 0.007141 0.605700 -1.228560
v 0.007141 0.605700 1.228560
v -1.170906 0.605700 0.507670
v 1.185188 0.605700 0.507670
v 1.185188 0.605700 -0.507669
v -1.170906 0.605700 -0.507669
v 0.514811 0.605700 1.178047
v 0.514811 0.605700 -1.178047
v -0.500528 0.605700 -1.178047
v -0.500528 0.605700 1.178047
v -1.008198 0.196533 1.015339
v -1.008198 0.196533 -1.015339
v 1.022480 0.196533 1.015339
v 1.022480 0.196533 -1.015339
v -1.221418 0.196533 -0.000000
v 1.235702 0.196533 -0.000000
v 0.007141 0.196533 -1.228560
v 0.007141 0.196533 1.228560
v -1.170906 0.196533 0.507670
v 1.185188 0.196533 0.507670
v 1.185188 0.196533 -0.507669
v -1.170906 0.196533 -0.507669
v 0.514811 0.196533 1.178047
v 0.514811 0.196533 -1.178047
v -0.500528 0.196533 -1.178047
v -0.500528 0.196533 1.178047
v -0.859430 0.196533 0.866572
v -0.859430 0.196533 -0.866572
v 0.873713 0.196533 0.866572
v 0.873713 0.196533 -0.866572
v -1.041410 0.196533 -0.000000
v 1.055693 0.196533 -0.000000
v 0.007141 0.196533 -1.048552
v 0.007141 0.196533 1.048552
v -0.998299 0.196533 0.433286
v 1.012581 0.196533 0.433286
v 1.012581 0.196533 -0.433286
v -0.998299 0.196533 -0.433286
v 0.440428 0.196533 1.005440
v 0.440428 0.196533 -1.005440
v -0.426146 0.196533 -1.005440
v -0.426146 0.196533 1.005440
v -0.859430 0.718616 0.866572
v -0.859430 0.718616 -0.866572
v 0.873713 0.718616 0.866572
v 0.873713 0.718616 -0.866572
v -1.041410 0.718616 -0.000000
v 1.055693 0.718616 -0.000000
v 0.007141 0.718616 -1.048552
v 0.007141 0.718616 1.048552
v -0.998299 0.718616 0.433286
v 1.012581 0.718616 0.433286
v 1.012581 0.718616 -0.433286
v -0.998299 0.718616 -0.433286
v 0.440428 0.718616 1.005440
v 0.440428 0.718616 -1.005440
v -0.426146 0.718616 -1.005440
v -0.426146 0.718616 1.005440
v 0.007141 0.718616 -0.000010
v -1.008198 0.605700 1.015339
v -1.170906 0.605700 0.507670
v -1.008198 0.605700 -1.015339
v -0.500528 0.605700 -1.178047
v 1.022480 0.605700 -1.015339
v 1.185188 0.605700 -0.507669
v 1.022480 0.605700 1.015339
v 0.514811 0.605700 1.178047
v -1.221418 0.605700 -0.000000
v -1.170906 0.605700 -0.507669
v 1.235702 0.605700 -0.000000
v 1.185188 0.605700 0.507670
v 0.007141 0.605700 -1.228560
v 0.514811 0.605700 -1.178047
v 0.007141 0.605700 1.228560
v -0.500528 0.605700 1.178047
v -1.008198 0.196533 1.015339
v -1.170906 0.196533 0.507670
v -1.008198 0.196533 -1.015339
v -0.500528 0.196533 -1.178047
v 1.022480 0.196533 -1.015339
v 1.185188 0.196533 -0.507669
v 1.022480 0.196533 1.015339
v 0.514811 0.196533 1.178047
v -1.221418 0.196533 -0.000000
v -1.170906 0.196533 -0.507669
v 1.235702 0.196533 -0.000000
v 1.185188 0.196533 0.507670
v 0.007141 0.196533 -1.228560
v 0.514811 0.196533 -1.178047
v 0.007141 0.196533 1.228560
v -0.500528 0.196533 1.178047
v -0.859430 0.196533 0.866572
v -0.998299 0.196533 0.433286
v -0.859430 0.196533 -0.866572
v -0.426146 0.196533 -1.005440
v 0.873713 0.196533 -0.866572
v 1.012581 0.196533 -0.433286
v 0.873713 0.196533 0.866572
v 0.440428 0.196533 1.005440
v -1.041410 0.196533 -0.000000
v -0.998299 0.196533 -0.433286
v 1.055693 0.196533 -0.000000
v 1.012581 0.196533 0.433286
v 0.007141 0.196533 -1.048552
v 0.440428 0.196533 -1.005440
v 0.007141 0.196533 1.048552
v -0.426146 0.196533 1.005440
v -0.859430 0.718616 0.866572
v -0.998299 0.718616 0.433286
v -0.859430 0.718616 -0.866572
v -0.426146 0.718616 -1.005440
v 0.873713 0.718616 -0.866572
v 1.012581 0.718616 -0.433286
v 0.873713 0.718616 0.866572
v 0.440428 0.718616 1.005440
v -1.041410 0.718616 -0.000000
v -0.998299 0.718616 -0.433286
v 1.055693 0.718616 -0.000000
v 1.012581 0.718616 0.433286
v 0.007141 0.718616 -1.048552
v 0.440428 0.718616 -1.005440
v 0.007141 0.718616 1.048552
v -0.426146 0.718616 1.005440
vt 0.235722 0.661694
vt 0.201372 0.658122
vt 0.235800 0.578528
vt 0.270078 0.658186
vt 0.304112 0.646971
vt 0.322687 0.665581
vt 0.279789 0.680261
vt 0.339588 0.682514
vt 0.289006 0.701036
vt 0.354052 0.697005
vt 0.297153 0.719546
vt 0.366144 0.709120
vt 0.303787 0.735598
vt 0.376810 0.719806
vt 0.308766 0.750315
vt 0.315455 0.544253
vt 0.304240 0.510219
vt 0.322850 0.491643
vt 0.337530 0.534541
vt 0.339783 0.474742
vt 0.358305 0.525325
vt 0.354273 0.460278
vt 0.376815 0.517177
vt 0.366388 0.448186
vt 0.392866 0.510543
vt 0.377074 0.437521
vt 0.407583 0.505564
vt 0.201521 0.498876
vt 0.167487 0.510091
vt 0.148912 0.491481
vt 0.191810 0.476801
vt 0.132011 0.474548
vt 0.182593 0.456026
vt 0.117547 0.460057
vt 0.174446 0.437516
vt 0.105455 0.447942
vt 0.167812 0.421465
vt 0.094789 0.437257
vt 0.162833 0.406748
vt 0.156144 0.612809
vt 0.167359 0.646843
vt 0.148749 0.665419
vt 0.134069 0.622521
vt 0.131816 0.682320
vt 0.113294 0.631737
vt 0.117326 0.696784
vt 0.094784 0.639885
vt 0.105211 0.708876
vt 0.078733 0.646519
vt 0.094526 0.719542
vt 0.064016 0.651498
vt 0.304081 0.421592
vt 0.235954 0.412991
vt 0.235969 0.397335
vt 0.309087 0.406884
vt 0.297417 0.437631
vt 0.235938 0.430244
vt 0.289235 0.456126
vt 0.235920 0.450073
vt 0.279980 0.476883
vt 0.235899 0.472128
vt 0.270227 0.498940
vt 0.235877 0.495368
vt 0.167518 0.735470
vt 0.235645 0.744071
vt 0.235630 0.759727
vt 0.162512 0.750178
vt 0.174182 0.719431
vt 0.235661 0.726819
vt 0.182365 0.700937
vt 0.235679 0.706989
vt 0.191620 0.680179
vt 0.235700 0.684934
vt 0.315391 0.612958
vt 0.078860 0.510250
vt 0.070259 0.578376
vt 0.054603 0.578362
vt 0.064153 0.505243
vt 0.094899 0.516914
vt 0.087512 0.578393
vt 0.113394 0.525096
vt 0.107341 0.578411
vt 0.134151 0.534351
vt 0.129396 0.578432
vt 0.156208 0.544104
vt 0.152636 0.578453
vt 0.392739 0.646813
vt 0.401340 0.578686
vt 0.416996 0.578701
vt 0.407446 0.651819
vt 0.376700 0.640148
vt 0.384088 0.578670
vt 0.358205 0.631966
vt 0.364258 0.578651
vt 0.337448 0.622711
vt 0.342203 0.578631
vt 0.318963 0.578609
vt 0.447903 0.074472
vt 0.447903 0.259237
vt 0.385571 0.259237
vt 0.385571 0.074472
vt 0.926129 0.074472
vt 0.926129 0.259237
vt 0.868162 0.259237
vt 0.868162 0.074472
vt 0.323488 0.074472
vt 0.323488 0.259237
vt 0.263859 0.259237
vt 0.263859 0.074472
vt 0.691287 0.074472
vt 0.691287 0.259237
vt 0.630094 0.259237
vt 0.630094 0.074472
vt 0.083265 0.074472
vt 0.083265 0.259237
vt 0.025794 0.259237
vt 0.025794 0.074472
vt 0.567947 0.074472
vt 0.567947 0.259237
vt 0.507933 0.259237
vt 0.507933 0.074472
vt 0.143209 0.074472
vt 0.143209 0.259237
vt 0.749870 0.074472
vt 0.749870 0.259237
vt 0.808139 0.259237
vt 0.808139 0.074472
vt 0.204505 0.074472
vt 0.204505 0.259237
vt 0.981385 0.074472
vt 0.981385 0.259237
vt 0.691287 0.074472
vt 0.630094 0.074472
vt 0.630094 0.032339
vt 0.691287 0.032339
vt 0.868162 0.074472
vt 0.808139 0.074472
vt 0.808139 0.032339
vt 0.868162 0.032339
vt 0.749870 0.074472
vt 0.749870 0.032339
vt 0.567947 0.074472
vt 0.567947 0.032339
vt 0.204505 0.074472
vt 0.143209 0.074472
vt 0.143209 0.032339
vt 0.204505 0.032339
vt 0.263859 0.074472
vt 0.263859 0.032339
vt 0.507933 0.074472
vt 0.507933 0.032339
vt 0.926129 0.074472
vt 0.926129 0.032339
vt 0.981385 0.074472
vt 0.981385 0.032339
vt 0.083265 0.074472
vt 0.025794 0.074472
vt 0.025794 0.032339
vt 0.083265 0.032339
vt 0.447903 0.074472
vt 0.447903 0.032339
vt 0.385571 0.074472
vt 0.323488 0.074472
vt 0.323488 0.032339
vt 0.385571 0.032339
vt 0.456713 0.702968
vt 0.463001 0.647924
vt 0.481625 0.656274
vt 0.476259 0.703253
vt 0.481471 0.593058
vt 0.536852 0.576193
vt 0.544656 0.595053
vt 0.497389 0.609446
vt 0.592056 0.571511
vt 0.591771 0.591057
vt 0.701966 0.596268
vt 0.718831 0.651650
vt 0.699971 0.659453
vt 0.685577 0.612187
vt 0.533126 0.832023
vt 0.478260 0.813553
vt 0.494648 0.797635
vt 0.541476 0.813399
vt 0.698755 0.816764
vt 0.643374 0.833629
vt 0.635570 0.814769
vt 0.682837 0.800375
vt 0.588170 0.838311
vt 0.588455 0.818765
vt 0.461395 0.758172
vt 0.480255 0.750368
vt 0.647099 0.577799
vt 0.638750 0.596423
vt 0.717225 0.761898
vt 0.698601 0.753548
vt 0.723513 0.706853
vt 0.703967 0.706569
vt 0.445287 0.899787
vt 0.492571 0.899787
vt 0.492571 0.956482
vt 0.445287 0.956482
vt 0.299184 0.899787
vt 0.346468 0.899787
vt 0.346468 0.956482
vt 0.299184 0.956482
vt 0.153081 0.899788
vt 0.202490 0.899787
vt 0.202490 0.956482
vt 0.153081 0.956482
vt 0.105796 0.899788
vt 0.105796 0.956482
vt 0.832065 0.899786
vt 0.879349 0.899786
vt 0.879349 0.956481
vt 0.832065 0.956481
vt 0.539856 0.899787
vt 0.539856 0.956482
vt 0.589266 0.899786
vt 0.638676 0.899786
vt 0.638676 0.956482
vt 0.589266 0.956482
vt 0.685960 0.899786
vt 0.685960 0.956482
vt 0.782655 0.899786
vt 0.782655 0.956481
vt 0.395877 0.899787
vt 0.395878 0.956482
vt 0.251899 0.899787
vt 0.251900 0.956482
vt 0.733245 0.899786
vt 0.733245 0.956482
vt 0.700997 0.360510
vt 0.794926 0.454791
vt 0.685829 0.407534
vt 0.681059 0.454577
vt 0.685652 0.501638
vt 0.904021 0.502048
vt 0.908791 0.455004
vt 0.888852 0.549072
vt 0.889205 0.360863
vt 0.904197 0.407944
vt 0.841772 0.564063
vt 0.748078 0.345518
vt 0.700644 0.548718
vt 0.747668 0.563887
vt 0.842182 0.345695
vt 0.795138 0.340925
vt 0.794711 0.568657
vn -0.0487 0.9988 0.0000
vn -0.0471 0.9988 0.0090
vn 0.0000 1.0000 0.0000
vn -0.0471 0.9988 -0.0090
vn -0.0361 0.9987 -0.0361
vn -0.1323 0.9823 -0.1323
vn -0.1873 0.9816 -0.0372
vn -0.2647 0.9272 -0.2647
vn -0.3872 0.9186 -0.0785
vn -0.4295 0.7943 -0.4295
vn -0.6204 0.7738 -0.1274
vn -0.6139 0.4962 -0.6139
vn -0.8613 0.4751 -0.1800
vn -0.7054 0.0688 -0.7054
vn -0.9765 0.0642 -0.2055
vn 0.0090 0.9988 -0.0471
vn 0.0361 0.9987 -0.0361
vn 0.1323 0.9823 -0.1323
vn 0.0372 0.9816 -0.1873
vn 0.2647 0.9272 -0.2647
vn 0.0785 0.9186 -0.3872
vn 0.4295 0.7943 -0.4295
vn 0.1274 0.7738 -0.6204
vn 0.6139 0.4962 -0.6139
vn 0.1800 0.4751 -0.8613
vn 0.7054 0.0688 -0.7054
vn 0.2055 0.0642 -0.9765
vn 0.0471 0.9988 0.0090
vn 0.0361 0.9987 0.0361
vn 0.1323 0.9823 0.1323
vn 0.1873 0.9816 0.0372
vn 0.2647 0.9272 0.2647
vn 0.3872 0.9186 0.0785
vn 0.4295 0.7943 0.4295
vn 0.6204 0.7738 0.1274
vn 0.6139 0.4962 0.6139
vn 0.8613 0.4751 0.1800
vn 0.7054 0.0688 0.7054
vn 0.9765 0.0642 0.2055
vn -0.0090 0.9988 0.0471
vn -0.0361 0.9987 0.0361
vn -0.1323 0.9823 0.1323
vn -0.0372 0.9816 0.1873
vn -0.2647 0.9272 0.2647
vn -0.0785 0.9186 0.3872
vn -0.4295 0.7943 0.4295
vn -0.1274 0.7738 0.6204
vn -0.6139 0.4962 0.6139
vn -0.1800 0.4751 0.8613
vn -0.7054 0.0688 0.7054
vn -0.2055 0.0642 0.9765
vn 0.8613 0.4751 -0.1800
vn 0.8838 0.4679 0.0000
vn 0.9980 0.0629 0.0000
vn 0.9765 0.0642 -0.2055
vn 0.6204 0.7738 -0.1274
vn 0.6410 0.7675 0.0000
vn 0.3872 0.9186 -0.0785
vn 0.4018 0.9157 0.0000
vn 0.1873 0.9816 -0.0372
vn 0.1943 0.9809 0.0000
vn 0.0471 0.9988 -0.0090
vn 0.0487 0.9988 0.0000
vn -0.8613 0.4751 0.1800
vn -0.8838 0.4679 0.0000
vn -0.9980 0.0629 0.0000
vn -0.9765 0.0642 0.2055
vn -0.6204 0.7738 0.1274
vn -0.6410 0.7675 0.0000
vn -0.3872 0.9186 0.0785
vn -0.4018 0.9157 0.0000
vn -0.1873 0.9816 0.0372
vn -0.1943 0.9809 0.0000
vn -0.0090 0.9988 -0.0471
vn 0.1800 0.4751 0.8613
vn 0.0000 0.4679 0.8838
vn 0.0000 0.0629 0.9980
vn 0.2055 0.0642 0.9765
vn 0.1274 0.7738 0.6204
vn 0.0000 0.7675 0.6410
vn 0.0785 0.9186 0.3872
vn 0.0000 0.9157 0.4018
vn 0.0372 0.9816 0.1873
vn 0.0000 0.9809 0.1943
vn 0.0090 0.9988 0.0471
vn 0.0000 0.9988 0.0487
vn -0.1800 0.4751 -0.8613
vn 0.0000 0.4679 -0.8838
vn 0.0000 0.0629 -0.9980
vn -0.2055 0.0642 -0.9765
vn -0.1274 0.7738 -0.6204
vn 0.0000 0.7675 -0.6410
vn -0.0785 0.9186 -0.3872
vn 0.0000 0.9157 -0.4018
vn -0.0372 0.9816 -0.1873
vn 0.0000 0.9809 -0.1943
vn 0.0000 0.9988 -0.0487
vn -0.1993 -0.1415 0.9697
vn -0.6978 -0.1612 0.6978
vn 0.1993 -0.1415 -0.9697
vn 0.6978 -0.1612 -0.6978
vn -0.9697 -0.1415 0.1993
vn -0.9904 -0.1384 0.0000
vn 0.9697 -0.1415 0.1993
vn 0.6978 -0.1612 0.6978
vn -0.1993 -0.1415 -0.9697
vn 0.0000 -0.1384 -0.9904
vn 0.1993 -0.1415 0.9697
vn 0.0000 -0.1384 0.9904
vn -0.6978 -0.1612 -0.6978
vn 0.9904 -0.1384 0.0000
vn 0.9697 -0.1415 -0.1993
vn -0.9697 -0.1415 -0.1993
vn 0.9791 0.0000 0.2032
vn 0.7071 0.0000 0.7071
vn 0.7071 0.0000 -0.7071
vn 0.9791 0.0000 -0.2032
vn 1.0000 0.0000 0.0000
vn 0.2032 0.0000 0.9791
vn -0.9791 0.0000 -0.2032
vn -0.7071 0.0000 -0.7071
vn -1.0000 0.0000 0.0000
vn 0.0000 0.0000 1.0000
vn 0.2032 0.0000 -0.9791
vn 0.0000 0.0000 -1.0000
vn -0.2032 0.0000 -0.9791
vn -0.2032 0.0000 0.9791
vn -0.7071 0.0000 0.7071
vn -0.9791 0.0000 0.2032
vn 0.0000 -1.0000 0.0000
usemtl None
s 1
f 25/1/1 55/2/2 97/3/3
f 61/4/4 7/5/5 9/6/6 67/7/7
f 67/7/7 9/6/6 10/8/8 68/9/9
f 68/9/9 10/8/8 11/10/10 69/11/11
f 69/11/11 11/10/10 12/12/12 70/13/13
f 70/13/13 12/12/12 8/14/14 71/15/15
f 73/16/16 19/17/17 21/18/18 79/19/19
f 79/19/19 21/18/18 22/20/20 80/21/21
f 80/21/21 22/20/20 23/22/22 81/23/23
f 81/23/23 23/22/22 24/24/24 82/25/25
f 82/25/25 24/24/24 20/26/26 83/27/27
f 54/28/28 13/29/29 15/30/30 56/31/31
f 56/31/31 15/30/30 16/32/32 57/33/33
f 57/33/33 16/32/32 17/34/34 58/35/35
f 58/35/35 17/34/34 18/36/36 59/37/37
f 59/37/37 18/36/36 14/38/38 60/39/39
f 90/40/40 1/41/41 3/42/42 92/43/43
f 92/43/43 3/42/42 4/44/44 93/45/45
f 93/45/45 4/44/44 5/46/46 94/47/47
f 94/47/47 5/46/46 6/48/48 95/49/49
f 95/49/49 6/48/48 2/50/50 96/51/51
f 65/52/52 35/53/53 36/54/54 66/55/55
f 64/56/56 34/57/57 35/53/53 65/52/52
f 63/58/58 33/59/59 34/57/57 64/56/56
f 62/60/60 32/61/61 33/59/59 63/58/58
f 72/62/62 31/63/63 32/61/61 62/60/60
f 52/64/64 29/65/65 30/66/66 53/67/67
f 51/68/68 28/69/69 29/65/65 52/64/64
f 50/70/70 27/71/71 28/69/69 51/68/68
f 49/72/72 26/73/73 27/71/71 50/70/70
f 55/2/2 25/1/1 26/73/73 49/72/72
f 73/16/16 97/3/3 19/17/17
f 7/5/5 97/3/3 91/74/74
f 77/75/75 47/76/76 48/77/77 78/78/78
f 76/79/79 46/80/80 47/76/76 77/75/75
f 75/81/81 45/82/82 46/80/80 76/79/79
f 74/83/83 44/84/84 45/82/82 75/81/81
f 84/85/85 43/86/86 44/84/84 74/83/83
f 88/87/87 41/88/88 42/89/89 89/90/90
f 87/91/91 40/92/92 41/88/88 88/87/87
f 86/93/93 39/94/94 40/92/92 87/91/91
f 85/95/95 38/96/96 39/94/94 86/93/93
f 91/74/74 37/97/97 38/96/96 85/95/95
f 19/17/17 97/3/3 72/62/62
f 91/74/74 97/3/3 37/97/97
f 178/98/98 96/99/51 2/100/50 163/101/99
f 1/41/41 55/2/2 49/72/72 3/42/42
f 3/42/42 49/72/72 50/70/70 4/44/44
f 4/44/44 50/70/70 51/68/68 5/46/46
f 5/46/46 51/68/68 52/64/64 6/48/48
f 6/48/48 52/64/64 53/67/67 2/50/50
f 35/53/53 59/37/37 60/39/39 36/54/54
f 34/57/57 58/35/35 59/37/37 35/53/53
f 33/59/59 57/33/33 58/35/35 34/57/57
f 32/61/61 56/31/31 57/33/33 33/59/59
f 31/63/63 54/28/28 56/31/31 32/61/61
f 97/3/3 84/85/85 13/29/29
f 1/41/41 97/3/3 55/2/2
f 72/62/62 97/3/3 31/63/63
f 176/102/100 83/103/27 20/104/26 167/105/101
f 19/17/17 72/62/62 62/60/60 21/18/18
f 21/18/18 62/60/60 63/58/58 22/20/20
f 22/20/20 63/58/58 64/56/56 23/22/22
f 23/22/22 64/56/56 65/52/52 24/24/24
f 24/24/24 65/52/52 66/55/55 20/26/26
f 29/65/65 70/13/13 71/15/15 30/66/66
f 28/69/69 69/11/11 70/13/13 29/65/65
f 27/71/71 68/9/9 69/11/11 28/69/69
f 26/73/73 67/7/7 68/9/9 27/71/71
f 25/1/1 61/4/4 67/7/7 26/73/73
f 164/106/102 53/107/67 30/108/66 171/109/103
f 61/4/4 25/1/1 97/3/3
f 84/85/85 97/3/3 43/86/86
f 13/29/29 84/85/85 74/83/83 15/30/30
f 15/30/30 74/83/83 75/81/81 16/32/32
f 16/32/32 75/81/81 76/79/79 17/34/34
f 17/34/34 76/79/79 77/75/75 18/36/36
f 18/36/36 77/75/75 78/78/78 14/38/38
f 174/110/104 60/111/39 14/112/38 169/113/105
f 37/97/97 97/3/3 73/16/16
f 41/88/88 82/25/25 83/27/27 42/89/89
f 40/92/92 81/23/23 82/25/25 41/88/88
f 39/94/94 80/21/21 81/23/23 40/92/92
f 38/96/96 79/19/19 80/21/21 39/94/94
f 37/97/97 73/16/16 79/19/19 38/96/96
f 166/114/106 89/115/90 42/116/89 175/117/107
f 97/3/3 1/41/41 90/40/40
f 97/3/3 54/28/28 31/63/63
f 7/5/5 91/74/74 85/95/95 9/6/6
f 9/6/6 85/95/95 86/93/93 10/8/8
f 10/8/8 86/93/93 87/91/91 11/10/10
f 11/10/10 87/91/91 88/87/87 12/12/12
f 12/12/12 88/87/87 89/90/90 8/14/14
f 97/3/3 7/5/5 61/4/4
f 170/118/108 78/119/78 48/120/77 177/121/109
f 47/76/76 95/49/49 96/51/51 48/77/77
f 46/80/80 94/47/47 95/49/49 47/76/76
f 45/82/82 93/45/45 94/47/47 46/80/80
f 44/84/84 92/43/43 93/45/45 45/82/82
f 43/86/86 90/40/40 92/43/43 44/84/84
f 90/40/40 43/86/86 97/3/3
f 165/122/110 8/123/14 89/115/90 166/114/106
f 173/124/111 36/125/54 60/111/39 174/110/104
f 167/105/101 20/104/26 66/126/55 168/127/112
f 172/128/113 71/129/15 8/123/14 165/122/110
f 169/113/105 14/112/38 78/119/78 170/118/108
f 168/127/112 66/126/55 36/125/54 173/124/111
f 175/130/107 42/131/89 83/103/27 176/102/100
f 177/121/109 48/120/77 96/99/51 178/98/98
f 163/101/99 2/100/50 53/107/67 164/106/102
f 171/109/103 30/108/66 71/129/15 172/128/113
f 107/132/114 100/133/115 185/134/115 190/135/114
f 101/136/116 108/137/117 184/138/117 183/139/116
f 108/137/117 103/140/118 189/141/118 184/138/117
f 100/133/115 110/142/119 186/143/119 185/134/115
f 109/144/120 99/145/121 181/146/121 188/147/120
f 102/148/122 109/144/120 188/147/120 187/149/122
f 110/142/119 105/150/123 193/151/123 186/143/119
f 103/140/118 107/132/114 190/135/114 189/141/118
f 111/152/124 101/136/116 183/139/116 192/153/124
f 104/154/125 111/152/124 192/153/124 191/155/125
f 112/156/126 104/157/125 191/158/125 182/159/126
f 105/150/123 113/160/127 194/161/127 193/151/123
f 98/162/128 106/163/129 180/164/129 179/165/128
f 113/160/127 98/162/128 179/165/128 194/161/127
f 106/163/129 102/148/122 187/149/122 180/164/129
f 99/145/121 112/156/126 182/159/126 181/146/121
f 121/166/130 129/167/130 210/168/130 209/169/130
f 114/170/130 122/171/130 196/172/130 195/173/130
f 129/167/130 114/170/130 195/173/130 210/168/130
f 122/171/130 118/174/130 203/175/130 196/172/130
f 115/176/130 128/177/130 198/178/130 197/179/130
f 123/180/130 116/181/130 201/182/130 206/183/130
f 117/184/130 124/185/130 200/186/130 199/187/130
f 124/185/130 119/188/130 205/189/130 200/186/130
f 116/181/130 126/190/130 202/191/130 201/182/130
f 125/192/130 115/176/130 197/179/130 204/193/130
f 118/174/130 125/192/130 204/193/130 203/175/130
f 126/190/130 121/166/130 209/169/130 202/191/130
f 119/188/130 123/180/130 206/183/130 205/189/130
f 127/194/130 117/184/130 199/187/130 208/195/130
f 120/196/130 127/194/130 208/195/130 207/197/130
f 128/177/130 120/196/130 207/197/130 198/178/130
f 142/198/126 137/199/125 225/200/125 218/201/126
f 135/202/122 139/203/120 222/204/120 221/205/122
f 143/206/127 133/207/128 215/208/128 224/209/127
f 136/210/123 143/206/127 224/209/127 223/211/123
f 144/212/119 136/213/123 223/214/123 214/215/119
f 137/199/125 145/216/124 226/217/124 225/200/125
f 130/218/116 138/219/117 212/220/117 211/221/116
f 145/216/124 130/218/116 211/221/116 226/217/124
f 138/219/117 134/222/118 219/223/118 212/220/117
f 131/224/115 144/212/119 214/215/119 213/225/115
f 139/203/120 132/226/121 217/227/121 222/204/120
f 133/207/128 140/228/129 216/229/129 215/208/128
f 140/228/129 135/202/122 221/205/122 216/229/129
f 132/226/121 142/198/126 218/201/126 217/227/121
f 141/230/114 131/224/115 213/225/115 220/231/114
f 134/222/118 141/230/114 220/231/114 219/223/118
f 146/232/130 162/233/130 161/234/130
f 153/235/130 162/233/130 158/236/130
f 159/237/130 162/233/130 152/238/130
f 161/234/130 162/233/130 153/235/130
f 149/239/130 162/233/130 159/237/130
f 162/233/130 147/240/130 160/241/130
f 156/242/130 162/233/130 149/239/130
f 154/243/130 162/233/130 146/232/130
f 158/236/130 162/233/130 148/244/130
f 160/241/130 152/238/130 162/233/130
f 148/244/130 162/233/130 155/245/130
f 147/240/130 162/233/130 157/246/130
f 150/247/130 162/233/130 154/243/130
f 151/248/130 162/233/130 156/242/130
f 157/246/130 162/233/130 150/247/130
f 155/245/130 162/233/130 151/248/130
f 13/29/29 54/28/28 97/3/3
