# Blender v2.79 (sub 0) OBJ File: 'hat_137.blend'
# www.blender.org
mtllib hat_137.mtl
o Box_Cube.001
v 1.000000 1.000000 -1.000000
v 1.000000 -1.000000 -1.000000
v -1.000000 1.000000 -1.000000
v -1.000000 -1.000000 -1.000000
v 1.000000 1.000000 1.000000
v 1.000000 -1.000000 1.000000
v -1.000000 1.000000 1.000000
v -1.000000 -1.000000 1.000000
v -1.000000 -1.000000 -1.000000
v -1.508879 -1.693650 1.000000
v -1.508879 -1.693650 -0.999999
v -1.000000 -1.000000 1.000000
v 1.000000 -1.000000 -1.000000
v 1.462317 -1.704630 1.000000
v 1.000000 -1.000000 1.000000
v 1.462317 -1.704631 -1.000000
v -1.000000 -1.000000 1.000000
v 1.000000 -1.000000 1.000000
v -1.000000 -1.000000 -1.000000
v 1.000000 -1.000000 -1.000000
v 0.766916 -0.788090 -1.335481
v -0.766916 -0.788090 -1.335482
v -0.766916 -0.779908 1.333848
v 0.766916 -0.779908 1.333848
vt 0.347406 0.320393
vt 0.347406 0.018897
vt 0.045910 0.018897
vt 0.045910 0.320393
vt 0.347406 0.621889
vt 0.347406 0.923384
vt 0.648902 0.923384
vt 0.648902 0.621889
vt 0.950398 0.320393
vt 0.950398 0.018897
vt 0.648902 0.018897
vt 0.648902 0.320393
vt 0.320269 0.348908
vt 0.018773 0.348908
vt 0.018773 0.650404
vt 0.320269 0.650404
vt 0.812842 0.649360
vt 0.812842 0.347864
vt 0.683154 0.347864
vt 0.683154 0.649360
vt 0.810769 0.980496
vt 0.810769 0.679000
vt 0.683725 0.679000
vt 0.683725 0.980496
vt 0.932064 0.383001
vt 0.872247 0.347864
vt 0.872247 0.649359
vt 0.932064 0.614223
vt 0.871310 0.980124
vt 0.931589 0.944987
vt 0.931589 0.713765
vt 0.871310 0.678628
vn -0.0000 -0.0000 -1.0000
vn -1.0000 0.0000 0.0000
vn 0.0000 0.0000 1.0000
vn 1.0000 -0.0000 -0.0000
vn 0.0000 1.0000 -0.0000
vn -0.0000 -1.0000 0.0000
vn -0.8063 0.5915 -0.0000
vn 0.8361 0.5486 -0.0000
vn 0.0000 -0.8455 -0.5340
vn -0.0000 -0.8349 0.5504
usemtl None
s off
f 1/1/1 2/2/1 4/3/1 3/4/1
f 3/5/2 4/6/2 8/7/2 7/8/2
f 7/9/3 8/10/3 6/11/3 5/12/3
f 5/12/4 6/11/4 2/2/4 1/1/4
f 3/5/5 7/8/5 5/12/5 1/1/5
f 8/13/6 4/14/6 2/15/6 6/16/6
f 12/17/7 9/18/7 11/19/7 10/20/7
f 14/21/8 16/22/8 13/23/8 15/24/8
f 21/25/9 20/26/9 19/27/9 22/28/9
f 18/29/10 24/30/10 23/31/10 17/32/10
