# Blender v3.0.0 OBJ File: ''
# www.blender.org
mtllib Guard.mtl
o Face_Cube.015
v 1.000000 0.035447 1.000000
v 1.000000 0.035447 -1.000000
v -1.000000 -0.318204 1.000000
v -1.000000 -0.318203 -1.000000
v -1.000000 -1.000000 -1.000000
v -1.000000 -1.000000 1.000000
v -1.000000 0.035447 -1.000000
v -1.000000 0.035447 1.000000
v 1.000000 -0.318203 -1.000000
v 1.000000 -1.000000 -1.000000
v 1.000000 -1.000000 1.000000
v 1.000000 -0.673266 0.333333
v 1.000000 -0.613192 0.333333
v 1.000000 -0.318203 1.000000
v 1.000000 -0.613192 -0.333333
v 0.929838 -0.613192 0.333333
v 0.929838 -0.613192 -0.333333
v 1.000000 -0.673266 -0.333333
v 0.929838 -0.673266 0.333333
v 0.929838 -0.673266 -0.333333
v 1.074240 -0.014815 0.134998
v 0.989753 -0.014815 0.134998
v 0.989753 -0.014815 -0.134998
v 1.074240 -0.014815 -0.134998
v 0.989753 -0.379302 0.134998
v 0.989753 -0.379302 -0.134998
v 1.074240 -0.379302 -0.134998
v 1.074240 -0.379302 0.134998
v 0.814155 -1.019289 1.070444
v 0.814155 -1.019289 1.000000
v -0.215788 0.176659 1.000000
v 1.039161 -0.822106 1.070444
v 0.009218 0.373842 1.070444
v 1.039161 -0.822106 1.000000
v 0.009218 0.373842 1.000000
v 0.778597 -0.943648 1.000000
v 1.003603 -0.746466 1.000000
v 1.003603 -0.746466 1.070444
v 0.814155 -1.019289 -1.070444
v 0.814155 -1.019289 -1.000000
v 1.039161 -0.822106 -1.070444
v 0.009219 0.373842 -1.070444
v 1.039161 -0.822106 -1.000000
v 0.009219 0.373842 -1.000000
v 0.778597 -0.943648 -1.000000
v 1.003603 -0.746466 -1.000000
v 1.003603 -0.746466 -1.070444
v -0.215788 0.176659 1.070444
v -0.215788 0.176659 -1.070444
v -0.215788 0.176659 -1.000000
v 1.035245 -1.009542 1.000000
v 1.035245 -1.009542 1.070444
v 1.035245 -1.009542 -1.000000
v 1.035245 -1.009542 -1.070444
v -1.083387 -0.126936 1.124946
v -1.209847 3.076947 1.124946
v -1.083387 -0.126936 -1.124946
v -1.209847 3.076947 -1.124946
v 1.164754 -0.038200 1.124946
v 1.038294 3.165683 1.124946
v 1.164754 -0.038200 -1.124946
v 1.038294 3.165683 -1.124946
vt 0.105904 0.756655
vt 0.107780 0.631298
vt 0.132819 0.631515
vt 0.132819 0.763610
vt 0.720753 0.107111
vt 0.595379 0.107111
vt 0.595379 0.101215
vt 0.720753 0.101215
vt 0.761961 0.101216
vt 0.893937 0.095615
vt 0.894200 0.101505
vt 0.768956 0.107111
vt 0.743439 0.107111
vt 0.727748 0.107111
vt 0.727748 0.101215
vt 0.743439 0.101215
vt 0.743438 0.274500
vt 0.761961 0.107111
vt 0.761960 0.274500
vt 0.720752 0.274499
vt 0.727748 0.274499
vt 0.720752 0.280395
vt 0.595383 0.280394
vt 0.595383 0.274499
vt 0.118265 0.815489
vt 0.132819 0.826946
vt 0.107780 0.827162
vt 0.743438 0.280395
vt 0.727748 0.280395
vt 0.105904 0.833901
vt 0.768955 0.274500
vt 0.761960 0.280395
vt 0.118265 0.775067
vt 0.107780 0.763394
vt 0.894200 0.280107
vt 0.893937 0.285997
vt 0.132819 0.959041
vt 0.107780 0.959258
vt 0.477105 0.211924
vt 0.208750 0.211924
vt 0.208750 0.023622
vt 0.477105 0.023622
vt 0.477105 0.776832
vt 0.208750 0.776832
vt 0.208750 0.588530
vt 0.477105 0.588530
vt 0.208750 0.400227
vt 0.477105 0.400227
vt 0.665408 0.588530
vt 0.665408 0.400227
vt 0.020448 0.588530
vt 0.020448 0.400227
vt 0.631360 0.650852
vt 0.798748 0.650852
vt 0.798748 0.707914
vt 0.631360 0.707914
vt 0.966137 0.932365
vt 0.798748 0.932365
vt 0.798748 0.875302
vt 0.966137 0.875302
vt 0.631360 0.875302
vt 0.687156 0.902648
vt 0.687156 0.907676
vt 0.631360 0.932365
vt 0.800063 0.401304
vt 0.855859 0.401304
vt 0.855859 0.407176
vt 0.800063 0.407176
vt 0.463972 0.932364
vt 0.463972 0.875302
vt 0.742952 0.902648
vt 0.855859 0.412204
vt 0.800063 0.412204
vt 0.861731 0.407176
vt 0.861731 0.412204
vt 0.855859 0.418076
vt 0.800063 0.418076
vt 0.794191 0.412204
vt 0.794191 0.407176
vt 0.631360 0.621253
vt 0.798748 0.621253
vt 0.798748 0.961963
vt 0.631360 0.961963
vt 0.742952 0.907676
vt 0.966137 0.961963
vt 0.463972 0.961963
vt 0.794191 0.522271
vt 0.794191 0.499674
vt 0.801262 0.499674
vt 0.801262 0.522271
vt 0.831768 0.499674
vt 0.831768 0.522271
vt 0.801262 0.492603
vt 0.831768 0.492603
vt 0.831768 0.529342
vt 0.801262 0.529342
vn 0.0000 0.0000 1.0000
vn 0.7479 0.6638 0.0000
vn -0.7431 -0.6495 -0.1611
vn 0.9998 -0.0209 0.0000
vn 0.9050 0.4254 0.0000
vn 0.0440 -0.9990 0.0000
vn 0.0000 0.0000 -1.0000
vn -0.9050 -0.4254 -0.0000
vn -0.7431 -0.6495 0.1611
vn -0.9992 -0.0394 0.0000
vn 0.9992 0.0394 0.0000
vn 0.0394 -0.9992 0.0000
vn -0.0394 0.9992 0.0000
vn -1.0000 0.0000 0.0000
vn 1.0000 0.0000 0.0000
vn 0.0000 -1.0000 -0.0000
vn 0.0000 1.0000 0.0000
usemtl None
s off
f 38/1/1 33/2/1 48/3/1 29/4/1
f 37/5/2 35/6/2 33/7/2 38/8/2
f 29/9/3 48/10/3 31/11/3 36/12/3
f 51/13/4 34/14/4 32/15/4 52/16/4
f 34/14/5 37/5/5 38/8/5 32/15/5
f 53/17/6 51/13/6 30/18/6 40/19/6
f 46/20/5 37/5/5 34/14/5 43/21/5
f 46/20/2 47/22/2 42/23/2 44/24/2
f 54/25/7 39/26/7 41/27/7
f 53/17/4 54/28/4 41/29/4 43/21/4
f 43/21/5 41/29/5 47/22/5 46/20/5
f 41/27/7 39/26/7 47/30/7
f 40/19/8 30/18/8 36/12/8 45/31/8
f 40/19/6 39/32/6 54/28/6 53/17/6
f 43/21/4 34/14/4 51/13/4 53/17/4
f 30/18/6 51/13/6 52/16/6 29/9/6
f 29/4/1 52/33/1 32/34/1
f 32/34/1 38/1/1 29/4/1
f 39/32/9 45/31/9 50/35/9 49/36/9
f 47/30/7 39/26/7 49/37/7 42/38/7
f 36/12/8 30/18/8 29/9/8
f 45/31/8 39/32/8 40/19/8
f 55/39/10 56/40/10 58/41/10 57/42/10
f 57/43/7 58/44/7 62/45/7 61/46/7
f 61/46/11 62/45/11 60/47/11 59/48/11
f 59/48/1 60/47/1 56/40/1 55/39/1
f 57/49/12 61/46/12 59/48/12 55/50/12
f 62/45/13 58/51/13 56/52/13 60/47/13
s 1
f 3/53/14 4/54/14 5/55/14 6/56/14
f 4/57/7 9/58/7 10/59/7 5/60/7
f 11/61/15 12/62/15 13/63/15 14/64/15
f 15/65/16 13/66/16 16/67/16 17/68/16
f 11/61/1 14/64/1 3/69/1 6/70/1
f 10/59/15 18/71/15 12/62/15 11/61/15
f 17/68/15 16/67/15 19/72/15 20/73/15
f 13/74/7 12/75/7 19/72/7 16/67/7
f 12/76/17 18/77/17 20/73/17 19/72/17
f 18/78/1 15/79/1 17/68/1 20/73/1
f 3/53/14 8/80/14 7/81/14 4/54/14
f 9/58/15 2/82/15 1/83/15 14/64/15
f 6/56/16 5/55/16 10/59/16 11/61/16
f 9/58/15 15/84/15 18/71/15 10/59/15
f 15/84/15 9/58/15 14/64/15 13/63/15
f 4/57/7 7/85/7 2/82/7 9/58/7
f 14/64/1 1/83/1 8/86/1 3/69/1
f 25/87/16 26/88/16 27/89/16 28/90/16
f 27/89/15 24/91/15 21/92/15 28/90/15
f 26/93/7 23/94/7 24/91/7 27/89/7
f 28/90/1 21/92/1 22/95/1 25/96/1
