# Blender v2.91.2 OBJ File: ''
# www.blender.org
mtllib hat_216.mtl
o 2.001_Cube.002
v 0.026843 1.969092 -0.009483
v 0.026843 2.152796 -0.317951
v 0.026843 2.152796 0.317944
v 0.026843 1.969092 -0.070690
v 0.026843 1.451953 0.003731
v 0.026843 1.262654 -0.317951
v 0.026843 1.451953 -0.070690
v -0.026843 2.152796 -0.317951
v -0.026843 1.969092 -0.009483
v -0.026843 2.152796 0.317944
v -0.026843 1.909879 0.113628
v -0.026843 1.841870 0.113628
v -0.009172 1.841870 0.113628
v -0.009172 1.909879 0.113628
v 0.026843 2.025672 -0.445076
v 0.026843 1.389777 -0.445076
v -0.026843 1.389777 -0.445076
v -0.026843 2.025672 -0.445076
v 0.026843 1.262654 0.317944
v 0.026843 1.268875 0.357227
v -0.026843 1.268875 0.357227
v -0.026843 1.262654 0.317944
v 0.026843 2.100394 -0.420795
v 0.026843 2.064955 -0.438854
v -0.026843 2.064955 -0.438854
v -0.026843 2.100394 -0.420795
v 0.026843 1.286932 0.392666
v 0.026843 1.315056 0.420788
v -0.026843 1.315056 0.420788
v -0.026843 1.286932 0.392666
v 0.026843 1.350495 0.438847
v -0.026843 1.350495 0.438847
v 0.026843 1.350495 -0.438854
v -0.026843 1.350495 -0.438854
v 0.026843 1.268875 -0.357235
v 0.026843 1.286932 -0.392673
v 0.026843 1.350495 -0.438854
v 0.026843 1.315056 -0.420795
v 0.026843 1.389777 -0.445076
v -0.026843 1.389777 0.445068
v -0.026843 1.841870 0.113628
v -0.026843 1.451953 0.003731
v -0.026843 1.262654 0.317944
v 0.026843 2.025672 -0.445076
v 0.026843 2.064955 -0.438854
v 0.026843 2.100394 -0.420795
v 0.026843 2.128517 -0.392673
v 0.026843 2.146574 -0.357235
v -0.026843 1.451953 -0.070690
v -0.026843 1.262654 -0.317951
v 0.026843 1.262654 0.317944
v 0.026843 1.268875 0.357227
v 0.026843 1.350495 0.438847
v 0.009172 1.451953 0.003731
v 0.026843 1.451953 0.003731
v 0.026843 1.889713 0.003731
v 0.009172 1.889713 0.003731
v 0.009172 1.969092 -0.009483
v 0.026843 1.969092 -0.009483
v 0.026843 1.969092 -0.070690
v 0.009172 1.969092 -0.070690
v 0.026843 2.128517 -0.392673
v -0.026843 2.128517 -0.392673
v 0.026843 2.146574 -0.357235
v -0.026843 2.146574 -0.357235
v 0.026843 2.152796 -0.317951
v -0.026843 2.152796 -0.317951
v -0.026843 2.025672 0.445068
v -0.026843 1.389777 0.445068
v 0.026843 1.389777 0.445068
v 0.026843 2.025672 0.445068
v 0.026843 1.286932 0.392666
v 0.026843 1.389777 0.445068
v 0.026843 1.315056 0.420788
v 0.026843 2.025672 0.445068
v 0.026843 1.841870 0.113628
v 0.026843 2.100394 0.420788
v 0.026843 2.064955 0.438847
v 0.026843 2.146574 0.357227
v 0.026843 2.128517 0.392666
v -0.009172 1.969092 -0.009483
v -0.009172 1.889713 0.003731
v -0.009172 1.841870 0.113628
v -0.009172 1.909879 0.113628
v 0.026843 1.909879 0.113628
v 0.026843 1.889713 0.003731
v 0.009172 1.909879 0.113628
v 0.026843 1.909879 0.113628
v 0.009172 1.841870 0.113628
v 0.026843 1.841870 0.113628
v 0.026843 1.909879 0.113628
v 0.009172 1.909879 0.113628
v 0.009172 1.889713 0.003731
v 0.009172 1.841870 0.113628
v 0.026843 1.841870 0.113628
v 0.026843 1.889713 0.003731
v 0.009172 1.889713 0.003731
v 0.009172 1.969092 -0.070690
v 0.009172 1.969092 -0.009483
v 0.026843 1.262654 -0.317951
v -0.026843 1.262654 -0.317951
v 0.009172 1.451953 -0.070690
v 0.026843 1.451953 -0.070690
v 0.026843 1.451953 0.003731
v 0.009172 1.451953 0.003731
v 0.026843 1.315056 -0.420795
v -0.026843 1.315056 -0.420795
v 0.026843 1.286932 -0.392673
v -0.026843 1.286932 -0.392673
v 0.026843 1.268875 -0.357235
v -0.026843 1.268875 -0.357235
v 0.026843 2.064955 0.438847
v -0.026843 2.064955 0.438847
v 0.026843 2.100394 0.420788
v -0.026843 2.100394 0.420788
v 0.026843 2.128517 0.392666
v -0.026843 2.128517 0.392666
v 0.026843 2.146574 0.357227
v -0.026843 2.146574 0.357227
v 0.026843 2.152796 0.317944
v -0.026843 2.152796 0.317944
v -0.026843 1.969092 -0.070690
v -0.026843 1.969092 -0.070690
v -0.026843 1.969092 -0.009483
v -0.009172 1.969092 -0.009483
v -0.009172 1.969092 -0.070690
v -0.026843 1.889713 0.003731
v -0.026843 1.451953 0.003731
v -0.009172 1.451953 0.003731
v -0.009172 1.889713 0.003731
v -0.026843 1.268875 0.357227
v -0.026843 1.286932 0.392666
v -0.026843 1.315056 0.420788
v -0.026843 1.350495 0.438847
v -0.026843 2.025672 0.445068
v -0.026843 2.064955 0.438847
v -0.026843 1.909879 0.113628
v -0.026843 2.100394 0.420788
v -0.026843 2.128517 0.392666
v -0.026843 2.146574 0.357227
v -0.026843 1.286932 -0.392673
v -0.026843 1.268875 -0.357235
v -0.026843 1.350495 -0.438854
v -0.026843 1.315056 -0.420795
v -0.026843 1.389777 -0.445076
v -0.026843 2.100394 -0.420795
v -0.026843 2.064955 -0.438854
v -0.026843 2.025672 -0.445076
v -0.026843 2.146574 -0.357235
v -0.026843 2.128517 -0.392673
v -0.026843 1.889713 0.003731
v -0.026843 1.909879 0.113628
v -0.009172 1.909879 0.113628
v -0.009172 1.969092 -0.070690
v 0.009172 1.909879 0.113628
v 0.009172 1.841870 0.113628
v -0.026843 1.451953 0.003731
v -0.026843 1.451953 -0.070690
v -0.009172 1.451953 -0.070690
v -0.009172 1.451953 0.003731
v -0.026843 1.841870 0.113628
v -0.009172 1.841870 0.113628
v -0.009172 1.889713 0.003731
v -0.026843 1.889713 0.003731
v -0.026843 1.451953 -0.070690
v -0.026843 1.969092 -0.070690
v -0.009172 1.969092 -0.070690
v -0.009172 1.451953 -0.070690
v -0.009172 1.451953 0.003731
v -0.009172 1.451953 -0.070690
v 0.009172 1.969092 -0.070690
v 0.026843 1.969092 -0.070690
v 0.026843 1.451953 -0.070690
v 0.009172 1.451953 -0.070690
v 0.009172 1.451953 0.003731
v 0.009172 1.451953 -0.070690
vt 0.255178 0.389621
vt 0.415836 0.485299
vt 0.084646 0.485298
vt 0.287056 0.389621
vt 0.248297 0.120283
vt 0.415839 0.021691
vt 0.287056 0.120283
vt 0.576148 0.485298
vt 0.736807 0.389621
vt 0.907338 0.485298
vt 0.548493 0.695257
vt 0.548492 0.722880
vt 0.583914 0.722880
vt 0.583914 0.695257
vt 0.058957 0.532463
vt 0.390147 0.532463
vt 0.390143 0.560424
vt 0.058959 0.560424
vt 0.824908 0.532463
vt 0.845626 0.532465
vt 0.845626 0.560426
vt 0.824910 0.560424
vt 0.100385 0.642120
vt 0.079668 0.642119
vt 0.079668 0.614158
vt 0.100385 0.614158
vt 0.866339 0.532465
vt 0.887052 0.532465
vt 0.887057 0.560426
vt 0.866339 0.560426
vt 0.907768 0.532465
vt 0.907770 0.560422
vt 0.410860 0.532463
vt 0.410860 0.560424
vt 0.436299 0.024931
vt 0.454756 0.034336
vt 0.478808 0.067441
vt 0.469402 0.048983
vt 0.482047 0.087901
vt 0.973548 0.087900
vt 0.800926 0.323360
vt 0.743687 0.120283
vt 0.907338 0.021691
vt 0.482047 0.419090
vt 0.478806 0.439550
vt 0.469400 0.458007
vt 0.454754 0.472654
vt 0.436295 0.482059
vt 0.704928 0.120283
vt 0.576148 0.021691
vt 0.084648 0.021691
vt 0.064187 0.024931
vt 0.021678 0.067440
vt 0.137406 0.788278
vt 0.365405 0.788278
vt 0.365404 0.760666
vt 0.137406 0.760666
vt 0.534403 0.788272
vt 0.566282 0.788272
vt 0.566282 0.760660
vt 0.534402 0.760660
vt 0.058955 0.642119
vt 0.058955 0.614158
vt 0.121099 0.642119
vt 0.121099 0.614158
vt 0.141810 0.642119
vt 0.141810 0.614158
vt 0.162530 0.642119
vt 0.162530 0.614158
vt 0.597293 0.614158
vt 0.928483 0.614159
vt 0.928483 0.642120
vt 0.597293 0.642119
vt 0.045730 0.034335
vt 0.018436 0.087900
vt 0.031084 0.048983
vt 0.018436 0.419088
vt 0.191058 0.323360
vt 0.031082 0.458005
vt 0.021676 0.439548
vt 0.064185 0.482058
vt 0.045728 0.472653
vt 0.877303 0.898177
vt 0.835961 0.905060
vt 0.811043 0.962298
vt 0.846464 0.962298
vt 0.191058 0.358781
vt 0.248297 0.348278
vt 0.463253 0.788272
vt 0.463253 0.760660
vt 0.427831 0.788272
vt 0.463253 0.788272
vt 0.463253 0.760660
vt 0.427831 0.760660
vt 0.365405 0.788278
vt 0.427831 0.788272
vt 0.427831 0.760660
vt 0.365404 0.760666
vt 0.137157 0.904814
vt 0.095814 0.866055
vt 0.095813 0.897932
vt 0.493720 0.532465
vt 0.493720 0.560426
vt 0.835592 0.788272
vt 0.874346 0.788278
vt 0.874346 0.760672
vt 0.835593 0.760660
vt 0.431578 0.532463
vt 0.431578 0.560424
vt 0.452291 0.532465
vt 0.452289 0.560426
vt 0.473007 0.532465
vt 0.473007 0.560426
vt 0.576578 0.642119
vt 0.576578 0.614158
vt 0.555862 0.642119
vt 0.555862 0.614158
vt 0.535147 0.642119
vt 0.535147 0.614158
vt 0.514433 0.642119
vt 0.514433 0.614158
vt 0.493718 0.642119
vt 0.493718 0.614158
vt 0.928481 0.532465
vt 0.928483 0.560422
vt 0.704928 0.389621
vt 0.445463 0.695269
vt 0.445463 0.722880
vt 0.477342 0.722880
vt 0.477342 0.695269
vt 0.646341 0.695257
vt 0.646341 0.722869
vt 0.874346 0.722863
vt 0.874346 0.695257
vt 0.927801 0.024931
vt 0.946256 0.034336
vt 0.960902 0.048984
vt 0.970308 0.067441
vt 0.973548 0.419089
vt 0.970308 0.439549
vt 0.800926 0.358781
vt 0.960902 0.458006
vt 0.946256 0.472654
vt 0.927799 0.482058
vt 0.537230 0.034336
vt 0.555687 0.024931
vt 0.513178 0.067441
vt 0.522584 0.048983
vt 0.509937 0.087900
vt 0.522584 0.458006
vt 0.513178 0.439549
vt 0.509937 0.419089
vt 0.555689 0.482058
vt 0.537228 0.472653
vt 0.743687 0.348278
vt 0.548492 0.722880
vt 0.548493 0.695257
vt 0.877303 0.866299
vt 0.126653 0.962053
vt 0.162076 0.962053
vt 0.137360 0.695269
vt 0.137360 0.722880
vt 0.176122 0.722880
vt 0.176121 0.695269
vt 0.583914 0.695257
vt 0.583914 0.722880
vt 0.646341 0.722869
vt 0.646341 0.695257
vt 0.176121 0.695269
vt 0.176122 0.722880
vt 0.445463 0.722880
vt 0.445463 0.695269
vt 0.607965 0.905060
vt 0.607965 0.866299
vt 0.566282 0.788272
vt 0.835592 0.788272
vt 0.835593 0.760660
vt 0.566282 0.760660
vt 0.365158 0.904814
vt 0.365158 0.866055
vn 1.0000 -0.0000 0.0000
vn -1.0000 -0.0000 0.0000
vn 0.0000 0.0000 -1.0000
vn 0.0000 0.0785 -0.9969
vn 0.0000 -0.0785 -0.9969
vn 0.0000 -0.9969 0.0784
vn 0.0000 -0.9511 0.3090
vn 0.0000 0.5878 -0.8090
vn 0.0000 0.3090 -0.9510
vn 0.0000 -0.8090 0.5878
vn 0.0000 -0.5878 0.8090
vn 0.0000 -0.3090 0.9511
vn 0.0000 -0.3090 -0.9510
vn 0.0000 -0.9750 -0.2223
vn 0.0000 -1.0000 0.0000
vn 0.0000 0.8090 -0.5878
vn 0.0000 0.9511 -0.3090
vn 0.0000 0.9969 -0.0785
vn 0.0000 0.0784 0.9969
vn 0.0000 -0.0785 0.9969
vn 0.0000 -0.9012 -0.4334
vn 0.0000 0.9169 0.3992
vn 0.0000 -0.9969 -0.0784
vn 0.0000 1.0000 0.0000
vn 0.0000 -0.5878 -0.8090
vn 0.0000 -0.8090 -0.5878
vn 0.0000 -0.9511 -0.3090
vn 0.0000 0.3090 0.9511
vn 0.0000 0.5878 0.8090
vn 0.0000 0.8090 0.5878
vn 0.0000 0.9511 0.3090
vn 0.0000 0.9969 0.0785
vn 0.0000 -0.0000 1.0000
usemtl None
s 1
f 1/1/1 2/2/1 3/3/1
f 1/1/1 4/4/1 2/2/1
f 5/5/1 6/6/1 7/7/1
f 8/8/2 9/9/2 10/10/2
f 11/11/3 14/12/3 13/13/3 12/14/3
f 15/15/4 16/16/5 17/17/5 18/18/4
f 19/19/6 20/20/7 21/21/7 22/22/6
f 23/23/8 24/24/9 25/25/9 26/26/8
f 27/27/10 28/28/11 29/29/11 30/30/10
f 28/28/11 31/31/12 32/32/12 29/29/11
f 33/33/13 34/34/13 17/17/5 16/16/5
f 35/35/1 36/36/1 37/37/1
f 36/36/1 38/38/1 37/37/1
f 37/37/1 39/39/1 6/6/1
f 40/40/2 41/41/2 42/42/2 43/43/2
f 44/44/1 45/45/1 46/46/1
f 46/46/1 47/47/1 48/48/1
f 42/42/2 49/49/2 50/50/2
f 6/6/1 35/35/1 37/37/1
f 51/51/1 6/6/1 5/5/1
f 52/52/1 51/51/1 53/53/1
f 54/54/3 57/55/3 56/56/3 55/57/3
f 58/58/14 61/59/15 60/60/15 59/61/14
f 24/24/9 15/62/4 18/63/4 25/25/9
f 62/64/16 23/23/8 26/26/8 63/65/16
f 20/20/7 27/27/10 30/30/10 21/21/7
f 64/66/17 62/64/16 63/65/16 65/67/17
f 66/68/18 64/66/17 65/67/17 67/69/18
f 68/70/19 69/71/20 70/72/20 71/73/19
f 48/48/1 2/2/1 44/44/1
f 39/39/1 7/7/1 6/6/1
f 46/46/1 48/48/1 44/44/1
f 72/74/1 52/52/1 53/53/1
f 53/53/1 51/51/1 73/75/1
f 53/53/1 74/76/1 72/74/1
f 75/77/1 73/75/1 76/78/1
f 77/79/1 78/80/1 79/81/1
f 78/80/1 75/77/1 79/81/1
f 79/81/1 80/82/1 77/79/1
f 81/83/2 82/84/2 83/85/2 84/86/2
f 3/3/1 79/81/1 75/77/1
f 85/87/1 3/3/1 75/77/1
f 5/5/1 86/88/1 76/78/1
f 76/78/1 85/87/1 75/77/1
f 87/89/21 58/58/14 59/61/14 88/90/21
f 89/91/3 92/92/3 91/93/3 90/94/3
f 93/95/22 94/96/22 95/97/22 96/98/22
f 85/87/1 1/1/1 3/3/1
f 97/99/1 98/100/1 99/101/1
f 100/102/23 19/19/6 22/22/6 101/103/23
f 102/104/24 105/105/24 104/106/24 103/107/24
f 4/4/1 7/7/1 39/39/1 44/44/1 2/2/1
f 106/108/25 107/109/25 34/34/13 33/33/13
f 108/110/26 109/111/26 107/109/25 106/108/25
f 110/112/27 111/113/27 109/111/26 108/110/26
f 100/102/23 101/103/23 111/113/27 110/112/27
f 112/114/28 113/115/28 68/70/19 71/73/19
f 114/116/29 115/117/29 113/115/28 112/114/28
f 116/118/30 117/119/30 115/117/29 114/116/29
f 118/120/31 119/121/31 117/119/30 116/118/30
f 120/122/32 121/123/32 119/121/31 118/120/31
f 31/31/12 70/124/20 69/125/20 32/32/12
f 8/8/2 122/126/2 9/9/2
f 120/122/32 66/68/18 67/69/18 121/123/32
f 123/127/15 126/128/15 125/129/14 124/130/14
f 127/131/3 130/132/3 129/133/3 128/134/3
f 50/50/2 43/43/2 42/42/2
f 43/43/2 131/135/2 40/40/2
f 76/78/1 73/75/1 51/51/1 5/5/1
f 131/135/2 132/136/2 133/137/2
f 133/137/2 134/138/2 40/40/2
f 40/40/2 135/139/2 41/41/2
f 135/139/2 136/140/2 10/10/2
f 41/41/2 135/139/2 137/141/2
f 136/140/2 138/142/2 139/143/2
f 139/143/2 140/144/2 136/140/2
f 140/144/2 10/10/2 136/140/2
f 133/137/2 40/40/2 131/135/2
f 141/145/2 142/146/2 143/147/2
f 142/146/2 50/50/2 143/147/2
f 143/147/2 144/148/2 141/145/2
f 145/149/2 143/147/2 50/50/2
f 49/49/2 145/149/2 50/50/2
f 146/150/2 147/151/2 148/152/2
f 149/153/2 150/154/2 146/150/2
f 8/8/2 149/153/2 148/152/2
f 149/153/2 146/150/2 148/152/2
f 10/10/2 137/141/2 135/139/2
f 41/41/2 151/155/2 42/42/2
f 124/130/14 125/129/14 153/156/21 152/157/21
f 81/83/2 154/158/2 82/84/2
f 97/99/1 99/101/1 155/159/1 156/160/1
f 49/49/2 122/126/2 8/8/2 148/152/2 145/149/2
f 157/161/24 160/162/24 159/163/24 158/164/24
f 161/165/22 162/166/22 163/167/22 164/168/22
f 9/9/2 137/141/2 10/10/2
f 165/169/33 168/170/33 167/171/33 166/172/33
f 169/173/2 82/84/2 154/158/2 170/174/2
f 171/175/33 174/176/33 173/177/33 172/178/33
f 175/179/1 176/180/1 98/100/1 97/99/1
