# Blender v2.91.2 OBJ File: ''
# www.blender.org
mtllib hat_231.mtl
o Plane
v 1.691404 0.523733 0.257835
v 1.011828 0.771090 0.686620
v 1.400439 0.197327 0.745423
v 1.212855 -0.300183 0.763749
v 1.366560 -0.013866 0.677609
v 1.685359 -0.079356 -0.234896
v 1.685359 -0.079356 0.234896
v 1.993476 -0.544609 0.202629
v 1.993476 -0.544609 -0.202629
v 1.757946 0.120206 -0.164065
v 1.757946 0.120206 0.164065
v 1.631674 -0.226072 -0.367911
v 1.973825 -0.599772 -0.226753
v 1.928108 -0.720452 -0.280774
v 1.516273 -0.507255 -0.478149
v 1.631674 -0.226072 0.367911
v 1.973825 -0.599772 0.226753
v 1.212855 -0.300183 -0.763749
v 1.516273 -0.507255 0.478149
v 1.116110 -0.247406 -1.027751
v 1.116110 0.352306 -1.005326
v 1.400439 0.197327 -0.745423
v 1.071017 1.002912 0.257835
v 1.691404 0.523733 -0.257835
v 1.071017 1.002912 -0.257835
v 1.011828 0.771090 -0.686620
v 1.366560 -0.013866 -0.677609
v 1.928108 -0.720452 0.280774
v 1.116110 0.352306 1.005326
v 1.116110 -0.247406 1.027751
v 0.802400 -0.247406 -1.027751
v 0.802400 0.352306 -1.005326
v 0.803393 1.005457 -1.005326
v 1.077223 1.005456 -1.005326
v 0.803394 1.368736 -0.697857
v 1.077223 1.368736 -0.697857
v 0.803394 1.004372 -0.264736
v 0.802400 0.352306 1.005326
v 0.802400 -0.247406 1.027751
v 1.077223 1.005456 1.005326
v 0.803393 1.005457 1.005326
v 1.077223 1.368736 0.697857
v 0.803394 1.368736 0.697857
v 0.803394 1.004372 0.264736
v 2.044121 -0.634970 -0.141918
v 2.015508 -0.710501 -0.175728
v 2.056420 -0.600446 -0.126819
v 2.056420 -0.600446 0.126819
v 2.044121 -0.634970 0.141918
v 2.015508 -0.710501 0.175728
vt 0.337956 0.599489
vt 0.172633 0.634602
vt 0.239654 0.511908
vt 0.234993 0.405062
vt 0.255181 0.469558
vt 0.488565 0.581184
vt 0.419375 0.519055
vt 0.497926 0.441137
vt 0.557611 0.494732
vt 0.448560 0.599015
vt 0.405834 0.559590
vt 0.527941 0.591138
vt 0.570089 0.495941
vt 0.597599 0.499108
vt 0.591492 0.598684
vt 0.405257 0.480974
vt 0.495386 0.428861
vt 0.910358 0.421300
vt 0.853464 0.494478
vt 0.662962 0.494478
vt 0.606068 0.421300
vt 0.614696 0.759735
vt 0.614872 0.817243
vt 0.497514 0.845195
vt 0.507781 0.762359
vt 0.230390 0.714646
vt 0.413710 0.670249
vt 0.306144 0.785406
vt 0.537316 0.695940
vt 0.389935 0.837579
vt 0.548976 0.743984
vt 0.390941 0.418598
vt 0.489287 0.401849
vt 0.157710 0.527791
vt 0.303001 0.480317
vt 0.177606 0.408803
vt 0.629483 0.878590
vt 0.512126 0.906542
vt 0.384354 0.936769
vt 0.371600 0.883220
vt 0.291284 0.958935
vt 0.278530 0.905387
vt 0.476157 0.288952
vt 0.379167 0.201875
vt 0.456974 0.183812
vt 0.363996 0.108287
vt 0.180602 0.985298
vt 0.166917 0.933249
vt 0.476157 0.087897
vt 0.095510 0.517391
vt 0.115406 0.398403
vt 0.128346 0.656002
vt 0.074054 0.646924
vt 0.112568 0.750365
vt 0.058276 0.741287
vt 0.314084 0.062781
vt 0.294901 0.167920
vt 0.217094 0.149858
vt 0.201923 0.243446
vt 0.092370 0.863616
vt 0.039511 0.853508
vt 0.314084 0.263836
vt 0.270434 0.825669
vt 0.192652 0.753015
vt 0.814146 0.586860
vt 0.702281 0.586860
vt 0.326132 0.384021
vt 0.344605 0.446334
vt 0.566056 0.653187
vt 0.629483 0.667374
vt 0.553476 0.399347
vt 0.962950 0.399346
vt 0.553476 0.336853
vt 0.962950 0.336853
vt 0.958482 0.217385
vt 0.557944 0.217385
vt 0.619194 0.014903
vt 0.705475 0.087488
vt 0.557943 0.087272
vt 0.897232 0.014903
vt 0.958482 0.087272
vt 0.810951 0.087488
vt 0.601662 0.485377
vt 0.571454 0.492155
vt 0.562000 0.469885
vt 0.579416 0.464776
vt 0.554504 0.472021
vt 0.521987 0.441407
vt 0.523716 0.433324
vt 0.527982 0.414869
vt 0.793219 0.604383
vt 0.723207 0.604384
vt 0.499139 0.425802
vt 0.503858 0.392645
vn 0.5872 0.4656 0.6621
vn 0.6447 0.4963 0.5814
vn 0.6409 0.4943 0.5873
vn 0.7158 -0.1119 0.6893
vn 0.7791 -0.2104 0.5906
vn 0.8186 -0.2904 0.4955
vn 0.8337 0.5522 0.0000
vn 0.9398 -0.3418 -0.0000
vn 0.4991 0.1488 -0.8537
vn 0.6175 0.3311 0.7135
vn 0.6175 0.3311 -0.7135
vn -0.5005 -0.8658 -0.0000
vn -0.5288 -0.8487 -0.0000
vn 0.7823 -0.1110 -0.6130
vn 0.6113 0.7914 0.0000
vn 0.8498 -0.0285 -0.5264
vn 0.9867 0.1627 0.0000
vn 0.5872 0.4656 -0.6621
vn 0.6409 0.4943 -0.5873
vn 0.6447 0.4963 -0.5814
vn 0.7158 -0.1119 -0.6893
vn 0.8186 -0.2904 -0.4955
vn 0.7791 -0.2104 -0.5906
vn 0.4991 0.1488 0.8537
vn 0.7113 0.5292 0.4626
vn 0.8498 -0.0285 0.5264
vn 0.7113 0.5292 -0.4626
vn 0.7823 -0.1110 0.6130
vn -0.0000 0.0190 -0.9998
vn 0.0000 0.0374 -0.9993
vn -0.0000 0.0187 -0.9998
vn -0.0000 0.0000 -1.0000
vn 0.0000 0.6460 -0.7633
vn 0.9688 0.0577 0.2412
vn 0.9844 -0.0422 0.1710
vn 0.9928 -0.0367 0.1142
vn 0.9940 -0.1085 0.0152
vn -0.0061 0.7671 0.6415
vn 0.9909 -0.1099 -0.0774
vn 0.5441 0.7044 -0.4559
vn 0.0000 0.0190 0.9998
vn 0.0000 0.0187 0.9998
vn 0.0000 0.0374 0.9993
vn 0.0000 -0.0000 1.0000
vn 0.0000 0.6460 0.7633
vn 0.9688 0.0577 -0.2412
vn 0.9928 -0.0367 -0.1142
vn 0.9844 -0.0422 -0.1710
vn 0.9940 -0.1085 -0.0152
vn -0.0061 0.7671 -0.6415
vn 0.9909 -0.1099 0.0774
vn 0.5441 0.7044 0.4559
vn 0.0055 1.0000 0.0000
vn -0.4597 -0.8881 -0.0000
vn 0.6921 -0.0800 0.7173
vn 0.6921 -0.0800 -0.7173
vn -0.4789 -0.8779 -0.0000
vn 0.0000 -1.0000 -0.0000
vn -1.0000 0.0008 0.0000
vn -1.0000 -0.0000 0.0000
vn -1.0000 0.0012 -0.0000
vn -1.0000 0.0010 -0.0000
vn 0.7689 -0.0051 -0.6393
vn 0.7698 -0.0012 -0.6383
vn 0.7700 0.0001 -0.6380
vn 0.7708 0.0040 -0.6370
vn 0.9378 -0.3473 0.0000
vn 0.9420 -0.3356 0.0000
vn 0.9351 -0.3543 0.0000
vn 0.6636 0.7481 0.0000
vn 0.1131 -0.9936 0.0000
vn 0.7708 0.0040 0.6370
vn 0.7698 -0.0012 0.6383
vn 0.7700 0.0001 0.6380
vn 0.7689 -0.0051 0.6393
usemtl None.002
s 1
f 1/1/1 2/2/2 3/3/3
f 4/4/4 5/5/5 3/3/6
f 6/6/7 7/7/7 8/8/7 9/9/7
f 10/10/8 11/11/8 7/7/8 6/6/8
f 12/12/9 13/13/9 14/14/9 15/15/9
f 7/7/10 16/16/10 17/17/10 8/8/10
f 6/6/11 9/9/11 13/13/11 12/12/11
f 18/18/12 15/19/13 19/20/13 4/21/12
f 18/22/14 20/23/14 21/24/14 22/25/14
f 23/26/15 1/1/15 24/27/15 25/28/15
f 10/10/16 6/6/16 22/29/16 24/27/16
f 10/10/17 24/27/17 1/1/17 11/11/17
f 24/27/18 22/25/19 26/30/20
f 18/22/21 22/25/22 27/31/23
f 16/16/24 19/32/24 28/33/24 17/17/24
f 3/3/3 2/2/2 29/34/25
f 11/11/26 1/1/26 3/35/26 7/7/26
f 22/25/19 21/24/27 26/30/20
f 4/4/28 3/3/28 29/34/28 30/36/28
f 21/24/29 20/23/30 31/37/30 32/38/31
f 21/24/29 32/38/31 33/39/32 34/40/32
f 34/40/33 33/39/33 35/41/33 36/42/33
f 21/43/34 34/44/35 26/45/36
f 34/44/35 36/46/37 26/45/36
f 36/42/38 35/41/38 37/47/38 25/48/38
f 36/46/37 25/49/39 26/45/36
f 26/30/40 25/28/40 24/27/40
f 29/34/41 38/50/42 39/51/43 30/36/43
f 29/34/41 40/52/44 41/53/44 38/50/42
f 40/52/45 42/54/45 43/55/45 41/53/45
f 29/56/46 2/57/47 40/58/48
f 40/58/48 2/57/47 42/59/49
f 42/54/50 23/60/50 44/61/50 43/55/50
f 42/59/49 2/57/47 23/62/51
f 2/2/52 1/1/52 23/26/52
f 37/63/53 44/64/53 23/26/53 25/28/53
f 14/65/54 28/66/54 19/20/13 15/19/13
f 5/5/5 4/4/4 19/67/55 16/68/55
f 18/22/21 27/31/23 12/69/56 15/70/56
f 30/71/57 20/72/57 18/18/12 4/21/12
f 30/71/58 39/73/58 31/74/58 20/72/58
f 32/75/59 31/74/60 39/73/60 38/76/59
f 43/77/60 44/78/61 41/79/62
f 41/79/62 44/78/61 38/76/59
f 35/80/60 33/81/62 37/82/61
f 33/81/62 32/75/59 37/82/61
f 44/78/61 37/82/61 32/75/59 38/76/59
f 14/83/63 13/84/64 45/85/65 46/86/63
f 13/84/64 9/9/66 47/87/66 45/85/65
f 45/85/67 47/87/68 48/88/68 49/89/67
f 46/86/69 45/85/67 49/89/67 50/90/69
f 9/9/70 8/8/70 48/88/70 47/87/70
f 28/66/71 14/65/71 46/91/71 50/92/71
f 8/8/72 17/93/73 49/89/74 48/88/72
f 17/93/73 28/94/75 50/90/75 49/89/74
