# Blender v3.0.0 OBJ File: ''
# www.blender.org
mtllib BigL.mtl
o Cube.002_Cube.006
v 0.370575 1.000000 0.869191
v 0.370575 3.811377 0.869191
v -0.370575 1.000000 0.869191
v -0.370575 3.811377 0.869191
v 0.370575 3.811377 0.203820
v -0.370575 3.811377 0.203820
v -0.370575 1.575875 0.203820
v 0.370575 1.575875 0.203820
v -0.370575 1.575875 -0.869192
v -0.370575 1.000000 -0.869192
v 0.370575 1.000000 -0.869192
v 0.370575 1.575875 -0.869192
vt 0.455094 0.410302
vt 0.075620 0.410302
vt 0.075620 0.310263
vt 0.455094 0.310263
vt 0.606333 0.467174
vt 0.606333 0.165430
vt 0.706372 0.165430
vt 0.706372 0.467174
vt 0.075620 0.220453
vt 0.377363 0.220453
vt 0.606333 0.075620
vt 0.706372 0.075620
vt 0.455094 0.644945
vt 0.377363 0.644945
vt 0.377363 0.500113
vt 0.606333 0.924380
vt 0.606333 0.689737
vt 0.706372 0.689737
vt 0.706372 0.924380
vt 0.075620 0.500113
vt 0.606333 0.612007
vt 0.706372 0.612007
vt 0.377363 0.075620
vt 0.455093 0.075620
vn 0.0000 0.0000 1.0000
vn 0.0000 -0.0000 -1.0000
vn -1.0000 -0.0000 0.0000
vn -0.0000 1.0000 0.0000
vn 1.0000 0.0000 -0.0000
vn 0.0000 -1.0000 -0.0000
usemtl None
s off
f 1/1/1 2/2/1 4/3/1 3/4/1
f 7/5/2 6/6/2 5/7/2 8/8/2
f 3/4/3 4/3/3 6/9/3 7/10/3
f 6/6/4 4/11/4 2/12/4 5/7/4
f 1/1/5 11/13/5 12/14/5 8/15/5
f 3/16/6 10/17/6 11/18/6 1/19/6
f 8/15/5 5/20/5 2/2/5 1/1/5
f 10/17/2 9/21/2 12/22/2 11/18/2
f 7/5/4 8/8/4 12/22/4 9/21/4
f 7/10/3 9/23/3 10/24/3 3/4/3
