# Blender v2.91.2 OBJ File: ''
# www.blender.org
mtllib 74.mtl
o Cube.080_Cube.113
v 1.023913 -1.023913 1.023913
v -1.023913 -1.023914 1.023913
v -1.023913 1.023913 1.023913
v -1.023913 -1.023913 -1.023913
v -1.023913 1.023913 -1.023913
v 1.023913 -0.362597 0.470296
v 1.023913 -0.132950 0.815238
v 1.023913 -0.359770 0.524257
v 1.023913 -0.351358 0.576889
v 1.023913 -0.337567 0.626897
v 1.023913 -0.318738 0.673048
v 1.023913 -0.295335 0.714207
v 1.023913 -0.267933 0.749360
v 1.023913 -0.237208 0.777642
v 1.023913 -0.203915 0.798356
v 1.023913 -0.168874 0.810992
v 1.023913 0.289916 0.815238
v 1.023913 0.519564 0.470296
v 1.023913 1.023913 1.023913
v 1.023913 0.325841 0.810992
v 1.023913 0.360881 0.798356
v 1.023913 0.394174 0.777642
v 1.023913 0.424900 0.749360
v 1.023913 0.452302 0.714207
v 1.023913 0.475705 0.673048
v 1.023913 0.494534 0.626897
v 1.023913 0.508324 0.576889
v 1.023913 0.516737 0.524257
v 1.023913 0.519564 -0.470296
v 1.023913 0.289916 -0.815238
v 1.023913 1.023914 -1.023913
v 1.023913 0.516737 -0.524257
v 1.023913 0.508324 -0.576889
v 1.023913 0.494534 -0.626897
v 1.023913 0.475705 -0.673048
v 1.023913 0.452302 -0.714207
v 1.023913 0.424900 -0.749360
v 1.023913 0.394174 -0.777642
v 1.023913 0.360881 -0.798356
v 1.023913 0.325841 -0.810992
v 1.023913 -0.132949 -0.815239
v 1.023913 -0.362597 -0.470296
v 1.023913 -1.023913 -1.023913
v 1.023913 -0.168874 -0.810992
v 1.023913 -0.203914 -0.798356
v 1.023913 -0.237207 -0.777642
v 1.023913 -0.267933 -0.749361
v 1.023913 -0.295335 -0.714207
v 1.023913 -0.318738 -0.673048
v 1.023913 -0.337567 -0.626897
v 1.023913 -0.351357 -0.576889
v 1.023913 -0.359770 -0.524257
vt 0.021480 0.340504
vt 0.340493 0.340504
vt 0.340493 0.659517
vt 0.021480 0.659517
vt 0.340493 0.978530
vt 0.659507 0.659517
vt 0.659507 0.978530
vt 0.978520 0.659517
vt 0.659507 0.340504
vt 0.978520 0.340503
vt 0.426401 0.262249
vt 0.573114 0.261997
vt 0.658754 0.021715
vt 0.626821 0.226178
vt 0.626727 0.160422
vt 0.340234 0.023095
vt 0.572682 0.124308
vt 0.426541 0.124436
vt 0.372993 0.160382
vt 0.372905 0.226610
vt 0.418150 0.124897
vt 0.409976 0.126214
vt 0.402217 0.128354
vt 0.395064 0.131263
vt 0.388690 0.134872
vt 0.383253 0.139092
vt 0.378882 0.143820
vt 0.375684 0.148940
vt 0.373735 0.154327
vt 0.373560 0.232192
vt 0.375516 0.237633
vt 0.378724 0.242801
vt 0.383103 0.247570
vt 0.388546 0.251823
vt 0.394917 0.255456
vt 0.402059 0.258380
vt 0.409795 0.260524
vt 0.417994 0.261819
vt 0.581523 0.261551
vt 0.589724 0.260235
vt 0.597514 0.258082
vt 0.604702 0.255144
vt 0.611111 0.251494
vt 0.616583 0.247221
vt 0.620984 0.242430
vt 0.624205 0.237240
vt 0.626167 0.231778
vt 0.625908 0.154247
vt 0.623881 0.148820
vt 0.620617 0.143666
vt 0.616187 0.138905
vt 0.610692 0.134655
vt 0.604280 0.131045
vt 0.597089 0.128144
vt 0.589297 0.126022
vt 0.581094 0.124732
vn 0.0000 -0.0000 1.0000
vn -1.0000 -0.0000 -0.0000
vn 0.0000 0.0000 -1.0000
vn -0.0000 1.0000 0.0000
vn 1.0000 0.0000 0.0000
usemtl None
s off
f 1/1/1 19/2/1 3/3/1 2/4/1
f 2/5/2 3/3/2 5/6/2 4/7/2
f 4/8/3 5/6/3 31/9/3 43/10/3
f 5/6/4 3/3/4 19/2/4 31/9/4
f 31/9/5 19/2/5 18/11/5 29/12/5
f 43/13/5 31/9/5 30/14/5 41/15/5
f 1/16/5 43/13/5 42/17/5 6/18/5
f 19/2/5 1/16/5 7/19/5 17/20/5
f 6/18/5 8/21/5 1/16/5
f 8/21/5 9/22/5 1/16/5
f 9/22/5 10/23/5 1/16/5
f 10/23/5 11/24/5 1/16/5
f 11/24/5 12/25/5 1/16/5
f 12/25/5 13/26/5 1/16/5
f 13/26/5 14/27/5 1/16/5
f 14/27/5 15/28/5 1/16/5
f 15/28/5 16/29/5 1/16/5
f 16/29/5 7/19/5 1/16/5
f 17/20/5 20/30/5 19/2/5
f 20/30/5 21/31/5 19/2/5
f 21/31/5 22/32/5 19/2/5
f 22/32/5 23/33/5 19/2/5
f 23/33/5 24/34/5 19/2/5
f 24/34/5 25/35/5 19/2/5
f 25/35/5 26/36/5 19/2/5
f 26/36/5 27/37/5 19/2/5
f 27/37/5 28/38/5 19/2/5
f 28/38/5 18/11/5 19/2/5
f 29/12/5 32/39/5 31/9/5
f 32/39/5 33/40/5 31/9/5
f 33/40/5 34/41/5 31/9/5
f 34/41/5 35/42/5 31/9/5
f 35/42/5 36/43/5 31/9/5
f 36/43/5 37/44/5 31/9/5
f 37/44/5 38/45/5 31/9/5
f 38/45/5 39/46/5 31/9/5
f 39/46/5 40/47/5 31/9/5
f 40/47/5 30/14/5 31/9/5
f 41/15/5 44/48/5 43/13/5
f 44/48/5 45/49/5 43/13/5
f 45/49/5 46/50/5 43/13/5
f 46/50/5 47/51/5 43/13/5
f 47/51/5 48/52/5 43/13/5
f 48/52/5 49/53/5 43/13/5
f 49/53/5 50/54/5 43/13/5
f 50/54/5 51/55/5 43/13/5
f 51/55/5 52/56/5 43/13/5
f 52/56/5 42/17/5 43/13/5
