# Blender v2.79 (sub 0) OBJ File: 'hat_207.blend'
# www.blender.org
mtllib hat_207.mtl
o 5_Cube.022
v 1.338492 -0.697112 -0.457342
v 1.338492 0.017571 -0.457341
v 1.338492 -0.053897 -0.385873
v 1.338492 -0.625643 -0.385873
v 1.338492 -0.697112 0.457342
v 1.338492 -0.625644 0.385873
v 1.000000 -0.697112 -0.457342
v 1.000000 -0.516558 -0.457342
v 1.110412 -0.516558 -0.457342
v 1.110412 -0.162982 -0.457341
v 1.000000 -0.162982 -0.457342
v 1.000000 0.017571 -0.457341
v 1.338492 0.017571 0.457342
v 1.338492 -0.053897 0.385873
v 1.225075 -0.053897 -0.385873
v 1.225075 -0.625643 -0.385873
v 1.000000 -0.697112 0.457342
v 1.225075 -0.625644 0.385873
v 1.000000 0.017571 0.457342
v 1.000000 0.017571 -0.176788
v 1.110412 0.017571 -0.176788
v 1.110412 0.017571 0.176788
v 1.000000 0.017571 0.176788
v 1.225075 -0.053897 0.385873
v 1.000000 -0.162983 0.457342
v 1.110412 -0.162983 0.457342
v 1.110412 -0.516558 0.457342
v 1.000000 -0.516558 0.457342
v 1.000000 1.000000 -0.176787
v 1.000000 1.000000 0.176788
v -1.000000 1.000000 0.176788
v -1.000000 1.000000 -0.176788
v 1.000000 -0.516558 -1.000000
v 1.000000 -0.162982 -1.000000
v 1.000000 -0.162983 1.000000
v 1.000000 -0.516558 1.000000
v -1.000000 -0.162983 1.000000
v -1.000000 -0.516558 1.000000
v -1.000000 -0.162982 -1.000000
v -1.000000 -0.516558 -1.000000
v -1.000000 -0.162983 0.176788
v -1.000000 -0.516558 0.166666
v -1.000000 -0.162983 -0.176788
v -1.000000 -0.516558 -0.166667
v 1.110412 1.139456 -0.176787
v 1.110412 1.139456 0.176788
v -1.132495 1.139456 0.176788
v -1.132495 1.139456 -0.176788
v 1.110412 -0.516558 -1.121454
v 1.110412 -0.162982 -1.121453
v 1.110412 -0.162983 1.121454
v 1.110412 -0.516558 1.121454
v -1.132495 -0.162983 1.121453
v -1.132495 -0.516558 1.121453
v -1.132495 -0.162982 -1.121454
v -1.132495 -0.516558 -1.121454
v -1.132495 -0.162983 0.176788
v -1.132495 -0.516558 0.186909
v -1.132495 -0.162983 -0.176788
v -1.132495 -0.516558 -0.186909
v 1.319562 -0.632208 -0.036481
v 1.319562 -0.047333 -0.036481
v 1.319562 -0.632208 0.036481
v 1.319562 -0.047333 0.036481
v 1.246601 -0.632208 -0.036481
v 1.246601 -0.047333 -0.036481
v 1.246601 -0.632208 0.036481
v 1.246601 -0.047333 0.036481
v 1.319562 -0.632208 0.181809
v 1.319562 -0.047333 0.181809
v 1.319562 -0.632208 0.254770
v 1.319562 -0.047333 0.254770
v 1.246601 -0.632208 0.181809
v 1.246601 -0.047333 0.181809
v 1.246601 -0.632208 0.254770
v 1.246601 -0.047333 0.254770
v 1.319562 -0.632208 -0.181808
v 1.319562 -0.047333 -0.181808
v 1.319562 -0.632208 -0.254770
v 1.319562 -0.047333 -0.254770
v 1.246601 -0.632208 -0.181808
v 1.246601 -0.047333 -0.181808
v 1.246601 -0.632208 -0.254770
v 1.246601 -0.047333 -0.254770
vt 0.265688 0.906472
vt 0.180712 0.906472
vt 0.189209 0.897974
vt 0.257190 0.897974
vt 0.265688 0.797716
vt 0.257190 0.806213
vt 0.265688 0.946718
vt 0.244220 0.946718
vt 0.244220 0.933591
vt 0.180712 0.797716
vt 0.189209 0.806213
vt 0.237399 0.365852
vt 0.237399 0.297871
vt 0.250885 0.297871
vt 0.250885 0.365852
vt 0.305935 0.797716
vt 0.305934 0.906472
vt 0.237399 0.457612
vt 0.250885 0.457612
vt 0.140465 0.797716
vt 0.153593 0.831074
vt 0.140465 0.831074
vt 0.237399 0.206110
vt 0.250885 0.206110
vt 0.774853 0.888726
vt 0.774853 0.820746
vt 0.866614 0.820746
vt 0.866614 0.888726
vt 0.244220 0.770597
vt 0.244220 0.757469
vt 0.265688 0.757469
vt 0.237399 0.525593
vt 0.250885 0.525593
vt 0.029188 0.265019
vt 0.071228 0.265019
vt 0.071228 0.502819
vt 0.029188 0.502819
vt 0.029188 0.126740
vt 0.071228 0.126740
vt 0.471365 0.078421
vt 0.431731 0.078421
vt 0.430528 0.036381
vt 0.472568 0.036381
vt 0.570448 0.078421
vt 0.570448 0.036381
vt 0.332648 0.078421
vt 0.094848 0.078421
vt 0.094848 0.036380
vt 0.332648 0.036381
vt 0.808248 0.078421
vt 0.808248 0.036381
vt 0.477775 0.508038
vt 0.477775 0.241355
vt 0.519815 0.241355
vt 0.519815 0.508038
vt 0.477775 0.662898
vt 0.519815 0.662898
vt 0.476571 0.704938
vt 0.521018 0.704938
vt 0.365454 0.704938
vt 0.365454 0.662898
vt 0.632136 0.704938
vt 0.632136 0.662898
vt 0.898818 0.662898
vt 0.898818 0.704938
vt 0.098771 0.704938
vt 0.098771 0.662898
vt 0.322918 0.492284
vt 0.461194 0.492284
vt 0.322918 0.508038
vt 0.349700 0.648457
vt 0.349700 0.550576
vt 0.365454 0.550576
vt 0.536396 0.254483
vt 0.536396 0.492284
vt 0.617695 0.958492
vt 0.617695 0.720692
vt 0.632136 0.971620
vt 0.674675 0.492284
vt 0.674675 0.508038
vt 0.647889 0.648457
vt 0.885690 0.648457
vt 0.518611 0.720692
vt 0.647889 0.550577
vt 0.632136 0.550577
vt 0.478978 0.720692
vt 0.379894 0.720692
vt 0.379894 0.958492
vt 0.365453 0.971621
vt 0.111899 0.648457
vt 0.461194 0.254483
vt 0.202180 0.770597
vt 0.180712 0.757469
vt 0.202180 0.757469
vt 0.153593 0.873114
vt 0.140465 0.906472
vt 0.140465 0.873114
vt 0.202180 0.933591
vt 0.202180 0.946718
vt 0.180712 0.946719
vt 0.098771 0.583934
vt 0.111899 0.583934
vt 0.019808 0.704938
vt 0.019808 0.662897
vt 0.444416 0.958493
vt 0.444416 0.971621
vt 0.898818 0.583935
vt 0.885690 0.583935
vt 0.977781 0.662898
vt 0.977781 0.704938
vt 0.553173 0.958492
vt 0.553173 0.971620
vt 0.030325 0.078421
vt 0.030325 0.036380
vt 0.872770 0.036381
vt 0.872770 0.078421
vt 0.477775 0.107963
vt 0.519816 0.107963
vt 0.653205 0.254483
vt 0.653205 0.241355
vt 0.344385 0.254483
vt 0.344385 0.241355
vt 0.071228 0.619630
vt 0.029188 0.619630
vt 0.118997 0.906472
vt 0.118997 0.797716
vt 0.055489 0.906472
vt 0.055489 0.797716
vt 0.076957 0.797716
vt 0.076957 0.906472
vt 0.153480 0.453625
vt 0.153479 0.523166
vt 0.144804 0.523166
vt 0.144804 0.453625
vt 0.136129 0.523166
vt 0.136129 0.453625
vt 0.162155 0.453625
vt 0.162155 0.523166
vt 0.153480 0.332470
vt 0.153480 0.402012
vt 0.144804 0.402012
vt 0.144804 0.332470
vt 0.136129 0.402012
vt 0.136129 0.332470
vt 0.162155 0.332470
vt 0.162155 0.402012
vt 0.144804 0.205164
vt 0.153479 0.205164
vt 0.153480 0.274705
vt 0.144804 0.274705
vt 0.162155 0.205164
vt 0.162155 0.274705
vt 0.136129 0.205164
vt 0.136129 0.274705
vn 1.0000 0.0000 0.0000
vn 0.0000 0.0000 -1.0000
vn -0.0000 -0.0000 1.0000
vn 0.0000 -1.0000 -0.0000
vn -0.0000 1.0000 0.0000
vn -1.0000 0.0000 0.0000
usemtl None
s off
f 1/1/1 2/2/1 3/3/1 4/4/1
f 5/5/1 1/1/1 4/4/1 6/6/1
f 7/7/2 8/8/2 9/9/2 1/1/2
f 2/2/1 13/10/1 14/11/1 3/3/1
f 4/12/3 3/13/3 15/14/3 16/15/3
f 13/10/1 5/5/1 6/6/1 14/11/1
f 5/5/4 17/16/4 7/17/4 1/1/4
f 6/18/5 4/12/5 16/15/5 18/19/5
f 19/20/5 13/10/5 22/21/5 23/22/5
f 3/13/4 14/23/4 24/24/4 15/14/4
f 16/25/1 15/26/1 24/27/1 18/28/1
f 5/5/3 27/29/3 28/30/3 17/31/3
f 14/32/2 6/18/2 18/19/2 24/33/2
f 31/34/4 32/35/4 29/36/4 30/37/4
f 41/38/1 43/39/1 32/35/1 31/34/1
f 42/40/1 44/41/1 43/42/1 41/43/1
f 38/44/1 42/40/1 41/43/1 37/45/1
f 40/46/3 33/47/3 34/48/3 39/49/3
f 44/41/1 40/46/1 39/49/1 43/42/1
f 36/50/2 38/44/2 37/45/2 35/51/2
f 47/52/5 46/53/5 45/54/5 48/55/5
f 57/56/6 47/52/6 48/55/6 59/57/6
f 58/58/6 57/56/6 59/57/6 60/59/6
f 54/60/6 53/61/6 57/56/6 58/58/6
f 56/62/2 55/63/2 50/64/2 49/65/2
f 60/59/6 59/57/6 55/63/6 56/62/6
f 52/66/3 51/67/3 53/61/3 54/60/3
f 41/68/3 31/69/3 47/52/3 57/70/3
f 37/71/5 41/72/5 57/73/5 53/61/5
f 29/74/2 32/75/2 48/55/2 45/54/2
f 33/76/4 40/77/4 56/62/4 49/78/4
f 32/75/2 43/79/2 59/80/2 48/55/2
f 39/81/5 34/82/5 50/64/5 55/63/5
f 40/77/4 44/83/4 60/59/4 56/62/4
f 43/84/5 39/81/5 55/63/5 59/85/5
f 44/83/4 42/86/4 58/58/4 60/59/4
f 38/87/4 36/88/4 52/89/4 54/60/4
f 35/90/5 37/71/5 53/61/5 51/67/5
f 42/86/4 38/87/4 54/60/4 58/58/4
f 31/69/3 30/91/3 46/53/3 47/52/3
f 26/92/3 13/10/3 19/93/3 25/94/3
f 27/29/3 5/5/3 13/10/3 26/92/3
f 22/21/5 13/10/5 2/2/5 21/95/5
f 21/95/5 2/2/5 12/96/5 20/97/5
f 2/2/2 10/98/2 11/99/2 12/100/2
f 1/1/2 9/9/2 10/98/2 2/2/2
f 26/101/5 25/102/5 35/90/5 51/67/5
f 27/103/1 26/104/1 51/67/1 52/66/1
f 28/105/4 27/106/4 52/89/4 36/88/4
f 10/107/5 50/64/5 34/82/5 11/108/5
f 10/109/1 9/110/1 49/65/1 50/64/1
f 8/111/4 33/76/4 49/78/4 9/112/4
f 33/47/6 8/113/6 11/114/6 34/48/6
f 36/50/6 35/51/6 25/115/6 28/116/6
f 22/117/1 21/118/1 45/54/1 46/53/1
f 20/119/2 29/74/2 45/54/2 21/120/2
f 23/121/3 22/122/3 46/53/3 30/91/3
f 30/37/6 29/36/6 20/123/6 23/124/6
f 12/96/6 11/125/6 20/97/6
f 19/20/6 23/22/6 25/126/6
f 7/127/6 17/128/6 28/129/6 8/130/6
f 8/130/6 28/129/6 25/126/6 11/125/6
f 23/22/6 20/97/6 11/125/6 25/126/6
f 61/131/1 62/132/1 64/133/1 63/134/1
f 63/134/3 64/133/3 68/135/3 67/136/3
f 65/137/2 66/138/2 62/132/2 61/131/2
f 69/139/1 70/140/1 72/141/1 71/142/1
f 71/142/3 72/141/3 76/143/3 75/144/3
f 73/145/2 74/146/2 70/140/2 69/139/2
f 77/147/1 79/148/1 80/149/1 78/150/1
f 79/148/2 83/151/2 84/152/2 80/149/2
f 81/153/3 77/147/3 78/150/3 82/154/3
l 18 11
