# Blender v2.79 (sub 0) OBJ File: ''
# www.blender.org
mtllib 23.mtl
o Cube_Cube.002_Cube_Cube.004
v 1.054098 0.970084 -1.054096
v 1.054097 0.970084 1.054097
v 1.079350 0.944831 1.079350
v 1.079351 0.944831 -1.079350
v -1.103832 0.885728 1.103831
v -1.103831 0.885728 -1.103832
v -1.054097 0.970084 1.054097
v -1.079350 0.944831 1.079350
v 1.018682 0.984754 -1.018680
v 1.018681 0.984754 1.018681
v -1.079350 0.944831 -1.079351
v -1.054096 0.970084 -1.054097
v -1.018681 0.984754 -1.018681
v -1.018681 0.984754 1.018681
v 1.103831 0.885728 1.103832
v 1.103832 0.885728 -1.103831
v -0.969355 0.994565 0.969355
v 0.969355 0.994566 0.969355
v 0.969356 0.994566 -0.969355
v -0.969355 0.994565 -0.969356
v -1.103832 0.183815 1.103831
v -1.103831 0.183815 -1.103832
v 1.103831 0.183815 1.103832
v 1.103832 0.183815 -1.103831
v 1.877073 0.183815 1.289647
v 1.877073 -0.000000 1.289647
v -1.877074 -0.000000 1.289646
v -1.877073 -0.000000 -1.289647
v -1.763497 -0.000000 -1.563842
v -1.563841 -0.000000 -1.763499
v -1.289646 -0.000000 -1.877074
v 1.289648 -0.000000 -1.877073
v 1.563842 -0.000000 -1.763497
v 1.763499 -0.000000 -1.563841
v 1.877074 -0.000000 -1.289646
v -1.289646 0.183815 -1.877074
v -1.563841 0.183815 -1.763499
v -1.763497 0.183815 -1.563842
v -1.877073 0.183815 -1.289647
v 1.877074 0.183815 -1.289646
v 1.763499 0.183815 -1.563841
v 1.563842 0.183815 -1.763497
v 1.289648 0.183815 -1.877073
v 1.763498 0.381820 1.479323
v 1.877073 0.056660 1.422386
v 1.763498 0.254665 1.612062
v -1.763498 0.254664 1.612061
v -1.877073 0.056660 1.422385
v -1.877074 0.183815 1.289646
v -1.763498 0.381819 1.479322
v 1.289646 0.689184 1.539666
v 1.563841 0.577737 1.517786
v 1.763498 0.346408 1.659695
v 1.563841 0.542325 1.698158
v 1.289646 0.653773 1.720038
v -1.289647 0.653772 1.720038
v -1.563842 0.542324 1.698158
v -1.763498 0.346408 1.659694
v -1.563842 0.577736 1.517786
v -1.289647 0.689184 1.539666
vt 0.924973 0.128625
vt 0.535136 0.128624
vt 0.546930 0.100151
vt 0.913179 0.100152
vt 0.924506 0.639592
vt 0.924507 0.868757
vt 0.851645 0.868757
vt 0.851644 0.639592
vt 0.630797 0.653661
vt 0.630799 0.854807
vt 0.625581 0.859925
vt 0.625579 0.648543
vt 0.831945 0.854806
vt 0.831943 0.653659
vt 0.837161 0.648541
vt 0.837163 0.859923
vt 0.841141 0.863598
vt 0.841139 0.644867
vt 0.845004 0.642133
vt 0.845005 0.866216
vt 0.611097 0.868874
vt 0.611099 0.639712
vt 0.617739 0.642253
vt 0.617738 0.866333
vt 0.621604 0.863600
vt 0.621603 0.644870
vt 0.538236 0.868874
vt 0.538238 0.639711
vt 0.625681 0.860025
vt 0.837063 0.860024
vt 0.840737 0.864001
vt 0.622007 0.864002
vt 0.625679 0.648443
vt 0.837061 0.648441
vt 0.616730 0.633959
vt 0.845894 0.633959
vt 0.843353 0.640600
vt 0.619271 0.640600
vt 0.846012 0.874506
vt 0.616849 0.874506
vt 0.619390 0.867865
vt 0.843471 0.867866
vt 0.622005 0.644466
vt 0.840736 0.644463
vt 0.616730 0.561098
vt 0.845894 0.561098
vt 0.085010 0.662391
vt 0.153511 0.614623
vt 0.105743 0.683124
vt 0.073216 0.007284
vt 0.073216 0.275122
vt 0.054128 0.275122
vt 0.054128 0.007284
vt 0.054128 0.633919
vt 0.054128 0.366081
vt 0.073216 0.366081
vt 0.073216 0.633919
vt 0.105742 0.316875
vt 0.153511 0.385376
vt 0.085010 0.337608
vt 0.054128 0.305941
vt 0.073216 0.305941
vt 0.073216 0.335262
vt 0.054128 0.335262
vt 0.054128 0.664738
vt 0.073216 0.664738
vt 0.073216 0.694058
vt 0.054128 0.694058
vt 0.402054 0.305081
vt 0.382758 0.385376
vt 0.134215 0.305081
vt 0.054128 0.992716
vt 0.054128 0.724877
vt 0.073216 0.724877
vt 0.073216 0.992716
vt 0.402053 0.694918
vt 0.382758 0.614624
vt 0.134215 0.694918
vt 0.892446 0.460655
vt 0.567662 0.460655
vt 0.546930 0.439922
vt 0.913179 0.439922
vt 0.924973 0.411449
vt 0.535136 0.411449
vt 0.535136 0.143611
vt 0.924973 0.143611
vt 0.462490 0.730304
vt 0.446420 0.720003
vt 0.463053 0.694057
vt 0.479122 0.704359
vt 0.446422 0.279996
vt 0.462491 0.269695
vt 0.479123 0.295640
vt 0.463054 0.305941
vt 0.892446 0.068684
vt 0.567663 0.068684
vt 0.596136 0.056890
vt 0.863975 0.056891
vt 0.463053 0.664737
vt 0.482140 0.664737
vt 0.482140 0.694058
vt 0.482141 0.335262
vt 0.463054 0.335262
vt 0.482142 0.305941
vt 0.482141 0.366081
vt 0.482140 0.633918
vt 0.463053 0.633918
vt 0.463054 0.366081
vt 0.451259 0.662392
vt 0.451260 0.337608
vt 0.430526 0.683124
vt 0.430528 0.316875
vt 0.913179 0.089418
vt 0.546930 0.089417
vt 0.863973 0.472449
vt 0.596136 0.472449
vt 0.450097 0.738733
vt 0.450099 0.261266
vt 0.846012 0.947367
vt 0.616849 0.947367
vn -0.0000 -0.8387 0.5446
vn -0.0000 -0.5951 0.8037
vn 0.0000 0.0000 -1.0000
vn 0.0000 0.1693 -0.9856
vn 0.0737 0.9945 0.0737
vn -0.0737 0.9945 0.0737
vn 0.0000 0.9419 0.3360
vn 0.1729 0.9696 0.1729
vn -0.0737 0.9945 -0.0737
vn 0.0737 0.9945 -0.0737
vn 0.1729 0.9696 -0.1729
vn 0.0000 0.9419 -0.3360
vn 0.0000 0.7784 -0.6278
vn 0.0000 0.4983 -0.8670
vn -0.0000 0.1693 0.9856
vn -0.0000 0.4983 0.8670
vn 0.0000 0.7784 0.6278
vn -0.0000 0.0000 1.0000
vn -0.3360 0.9419 -0.0000
vn -0.6278 0.7784 -0.0000
vn 0.9856 0.1693 0.0000
vn 0.8670 0.4983 0.0000
vn -0.9856 0.1693 -0.0000
vn -0.8670 0.4983 -0.0000
vn 0.6278 0.7784 0.0000
vn 1.0000 0.0000 0.0000
vn 0.0000 1.0000 0.0000
vn -0.9879 0.1120 0.1073
vn -0.9808 0.0000 -0.1951
vn -1.0000 -0.0000 0.0000
vn 0.1951 0.0000 -0.9808
vn -0.1951 0.0000 -0.9808
vn -0.8315 0.0000 -0.5556
vn -0.5556 0.0000 -0.8315
vn 0.5556 0.0000 -0.8315
vn 0.8315 0.0000 -0.5556
vn -0.0000 0.9419 -0.3359
vn 0.9879 0.1120 0.1073
vn 0.9239 0.0000 -0.3827
vn 0.0000 -1.0000 -0.0000
vn -0.0000 -0.9797 0.2004
vn 0.9746 0.1616 0.1548
vn 0.8848 0.4306 0.1779
vn 0.9767 0.1549 0.1484
vn -0.9746 0.1616 0.1548
vn -0.9767 0.1549 0.1484
vn -0.8849 0.4306 0.1779
vn -0.0000 -0.1926 0.9813
vn 0.5556 0.8159 0.1602
vn 0.9073 0.4126 0.0810
vn -0.5556 0.8159 0.1602
vn -0.9073 0.4126 0.0810
vn -0.1951 0.9624 0.1889
vn 0.1951 0.9624 0.1889
vn 0.0000 0.1926 -0.9813
vn 0.0000 0.5678 -0.8232
vn -0.0000 -0.3748 0.9271
usemtl Material.021
s 1
f 48/1/1 45/2/1 46/3/2 47/4/2
f 24/5/3 22/6/3 6/7/4 16/8/4
f 18/9/5 17/10/6 14/11/7 10/12/8
f 20/13/9 19/14/10 9/15/11 13/16/12
f 12/17/13 1/18/13 4/19/14 11/20/14
f 5/21/15 15/22/15 3/23/16 8/24/16
f 16/8/4 6/7/4 11/20/14 4/19/14
f 10/12/8 14/11/7 7/25/17 2/26/17
f 13/16/12 9/15/11 1/18/13 12/17/13
f 2/26/17 7/25/17 8/24/16 3/23/16
f 18/9/5 19/14/10 20/13/9 17/10/6
f 21/27/18 23/28/18 15/22/15 5/21/15
f 14/29/19 13/30/19 12/31/20 7/32/20
f 19/14/10 18/9/5 10/33/8 9/34/11
f 17/10/6 20/13/9 13/30/19 14/29/19
f 15/35/21 16/36/21 4/37/22 3/38/22
f 6/39/23 5/40/23 8/41/24 11/42/24
f 11/42/24 8/41/24 7/32/20 12/31/20
f 9/34/11 10/33/8 2/43/25 1/44/25
f 1/44/25 2/43/25 3/38/22 4/37/22
f 23/45/26 24/46/26 16/36/21 15/35/21
f 42/47/27 24/48/27 41/49/27
f 49/50/28 39/51/29 28/52/29 27/53/30
f 32/54/31 31/55/32 36/56/32 43/57/31
f 38/58/27 22/59/27 37/60/27
f 29/61/33 38/62/33 37/63/34 30/64/34
f 33/65/35 42/66/35 41/67/36 34/68/36
f 49/69/37 21/70/27 22/59/27 39/71/27
f 26/72/26 35/73/26 40/74/26 25/75/38
f 36/56/27 22/59/27 24/48/27 43/57/27
f 21/70/27 49/69/37 25/76/37 23/77/27
f 37/60/27 22/59/27 36/56/27
f 39/71/27 22/59/27 38/58/27
f 41/49/27 24/48/27 40/78/27
f 43/57/27 24/48/27 42/47/27
f 28/52/29 39/51/29 38/62/33 29/61/33
f 36/56/32 31/55/32 30/64/34 37/63/34
f 32/54/31 43/57/31 42/66/35 33/65/35
f 40/74/39 35/73/39 34/68/36 41/67/36
f 40/78/27 24/48/27 23/77/27 25/76/37
f 30/79/40 33/80/40 34/81/40 29/82/40
f 28/83/40 35/84/40 26/85/41 27/86/41
f 29/82/40 34/81/40 35/84/40 28/83/40
f 45/87/42 25/88/38 44/89/43 46/90/44
f 49/91/28 48/92/45 47/93/46 50/94/47
f 57/95/48 54/96/48 55/97/48 56/98/48
f 52/99/49 54/100/49 53/101/50 44/89/43
f 57/102/51 59/103/51 50/94/47 58/104/52
f 56/105/53 55/106/54 51/107/54 60/108/53
f 52/109/55 59/110/55 60/108/55 51/107/55
f 51/107/54 55/106/54 54/100/49 52/99/49
f 56/105/53 60/108/53 59/103/51 57/102/51
f 59/110/55 52/109/55 44/111/56 50/112/56
f 58/113/57 53/114/57 54/96/48 57/95/48
f 33/80/40 30/79/40 31/115/40 32/116/40
f 50/112/56 44/111/56 25/76/37 49/69/37
f 46/90/44 44/89/43 53/101/50
f 25/88/38 45/87/42 26/117/26
f 46/3/2 53/114/57 58/113/57 47/4/2
f 50/94/47 47/93/46 58/104/52
f 48/92/45 49/91/28 27/118/30
f 27/86/41 26/85/41 45/2/1 48/1/1
f 5/40/23 6/39/23 22/119/30 21/120/30
