# Blender v2.91.2 OBJ File: ''
# www.blender.org
mtllib hat_239.mtl
o Cylinder.052_Cylinder.024
v -0.042953 2.608173 -0.253163
v -0.043779 2.660146 -0.008199
v 0.027441 2.661053 -0.008151
v 0.028267 2.609081 -0.253115
v -0.041009 2.466421 -0.459589
v 0.030211 2.467328 -0.459541
v -0.038243 2.256469 -0.596050
v 0.032976 2.257376 -0.596003
v -0.035076 2.010280 -0.641772
v 0.036143 2.011188 -0.641724
v -0.031991 1.765336 -0.589793
v 0.039229 1.766243 -0.589746
v -0.029456 1.558925 -0.448028
v 0.041763 1.559832 -0.447980
v -0.027858 1.422473 -0.238058
v 0.043361 1.423380 -0.238010
v -0.027441 1.376753 0.008151
v 0.043779 1.377660 0.008199
v -0.028267 1.428725 0.253115
v 0.042953 1.429632 0.253163
v -0.030211 1.570478 0.459541
v 0.041009 1.571385 0.459589
v -0.032976 1.780430 0.596003
v 0.038243 1.781337 0.596050
v -0.036143 2.026618 0.641724
v 0.035076 2.027526 0.641772
v -0.039229 2.271563 0.589746
v 0.031991 2.272470 0.589793
v -0.041763 2.477974 0.447980
v 0.029456 2.478881 0.448028
v -0.043361 2.614426 0.238010
v 0.027858 2.615333 0.238057
vt 0.794926 0.753733
vt 0.794927 0.845336
vt 0.768872 0.845337
vt 0.768872 0.753734
vt 0.794926 0.662131
vt 0.768872 0.662131
vt 0.794926 0.570528
vt 0.768872 0.570528
vt 0.794926 0.478925
vt 0.768872 0.478926
vt 0.794926 0.387323
vt 0.768872 0.387323
vt 0.794926 0.295720
vt 0.768872 0.295720
vt 0.794926 0.204118
vt 0.768872 0.204117
vt 0.794927 0.112515
vt 0.768872 0.112514
vt 0.593961 0.204117
vt 0.620015 0.112515
vt 0.620015 0.204117
vt 0.593961 0.295720
vt 0.620015 0.295720
vt 0.593960 0.387322
vt 0.620014 0.387322
vt 0.593960 0.478925
vt 0.620014 0.478925
vt 0.593960 0.570528
vt 0.620014 0.570528
vt 0.593960 0.662131
vt 0.620014 0.662131
vt 0.593960 0.753734
vt 0.620014 0.753734
vt 0.593961 0.112514
vt 0.593961 0.845337
vt 0.620015 0.845336
vt 0.445204 0.619569
vt 0.380431 0.945204
vt 0.119569 0.554796
vt 0.204199 0.980259
vt 0.054796 0.880431
vt 0.295801 0.519741
vt 0.380432 0.554796
vt 0.204199 0.519741
vt 0.019741 0.704199
vt 0.054796 0.619569
vt 0.019741 0.795801
vt 0.119569 0.945204
vt 0.295802 0.980259
vt 0.480259 0.795801
vt 0.445204 0.880431
vt 0.480259 0.704199
vt 0.204199 0.019741
vt 0.380431 0.054796
vt 0.480259 0.204198
vt 0.054796 0.119569
vt 0.019741 0.295801
vt 0.119569 0.445204
vt 0.054796 0.380431
vt 0.204199 0.480259
vt 0.295801 0.480259
vt 0.380431 0.445204
vt 0.445204 0.380431
vt 0.480259 0.295801
vt 0.445204 0.119569
vt 0.295802 0.019741
vt 0.119569 0.054796
vt 0.019741 0.204198
vn -0.0114 0.9189 -0.3944
vn -0.0127 0.9998 -0.0127
vn -0.0084 0.6980 -0.7161
vn -0.0041 0.3709 -0.9287
vn 0.0008 -0.0127 -0.9999
vn 0.0056 -0.3944 -0.9189
vn 0.0096 -0.7160 -0.6980
vn 0.0121 -0.9286 -0.3709
vn 0.0127 -0.9998 0.0127
vn 0.0114 -0.9189 0.3944
vn 0.0084 -0.6980 0.7161
vn 0.0041 -0.3709 0.9287
vn -0.0008 0.0127 0.9999
vn -0.0056 0.3944 0.9189
vn -0.0096 0.7160 0.6980
vn -0.0121 0.9286 0.3709
vn 0.9999 0.0127 0.0007
vn -0.9999 -0.0127 -0.0007
usemtl None.004
s 1
f 1/1/1 2/2/2 3/3/2
f 1/1/1 3/3/2 4/4/1
f 5/5/3 4/4/1 6/6/3
f 7/7/4 6/6/3 8/8/4
f 9/9/5 8/8/4 10/10/5
f 11/11/6 10/10/5 12/12/6
f 13/13/7 12/12/6 14/14/7
f 15/15/8 14/14/7 16/16/8
f 17/17/9 16/16/8 18/18/9
f 19/19/10 18/20/9 20/21/10
f 21/22/11 20/21/10 22/23/11
f 23/24/12 22/23/11 24/25/12
f 25/26/13 24/25/12 26/27/13
f 27/28/14 26/27/13 28/29/14
f 29/30/15 28/29/14 30/31/15
f 31/32/16 30/31/15 32/33/16
f 5/5/3 1/1/1 4/4/1
f 7/7/4 5/5/3 6/6/3
f 9/9/5 7/7/4 8/8/4
f 11/11/6 9/9/5 10/10/5
f 13/13/7 11/11/6 12/12/6
f 15/15/8 13/13/7 14/14/7
f 17/17/9 15/15/8 16/16/8
f 19/19/10 17/34/9 18/20/9
f 21/22/11 19/19/10 20/21/10
f 23/24/12 21/22/11 22/23/11
f 25/26/13 23/24/12 24/25/12
f 27/28/14 25/26/13 26/27/13
f 29/30/15 27/28/14 28/29/14
f 31/32/16 29/30/15 30/31/15
f 2/35/2 32/33/16 3/36/2
f 4/37/17 28/38/17 12/39/17
f 28/38/17 24/40/17 20/41/17
f 8/42/17 6/43/17 4/37/17
f 10/44/17 8/42/17 4/37/17
f 12/39/17 10/44/17 4/37/17
f 16/45/17 14/46/17 12/39/17
f 18/47/17 16/45/17 12/39/17
f 20/41/17 18/47/17 12/39/17
f 24/40/17 22/48/17 20/41/17
f 28/38/17 26/49/17 24/40/17
f 32/50/17 30/51/17 28/38/17
f 3/52/17 32/50/17 28/38/17
f 4/37/17 3/52/17 28/38/17
f 7/53/18 11/54/18 15/55/18
f 1/56/18 7/53/18 15/55/18
f 31/57/18 1/56/18 15/55/18
f 27/58/18 29/59/18 31/57/18
f 25/60/18 27/58/18 31/57/18
f 23/61/18 25/60/18 31/57/18
f 21/62/18 23/61/18 15/55/18
f 19/63/18 21/62/18 15/55/18
f 15/55/18 17/64/18 19/63/18
f 11/54/18 13/65/18 15/55/18
f 7/53/18 9/66/18 11/54/18
f 1/56/18 5/67/18 7/53/18
f 31/57/18 2/68/18 1/56/18
f 15/55/18 23/61/18 31/57/18
f 28/38/17 20/41/17 12/39/17
f 2/35/2 31/32/16 32/33/16
