# Blender v2.79 (sub 0) OBJ File: '25_Crown.blend'
# www.blender.org
mtllib hat_25.mtl
o Cube.002
v -0.541663 0.000002 0.541663
v -0.541663 0.210041 0.541663
v -0.541663 0.000002 -0.541663
v -0.541663 0.210041 -0.541663
v 0.541663 0.000001 0.541663
v 0.541663 0.210040 0.541663
v 0.541663 0.000001 -0.541663
v 0.541663 0.210040 -0.541663
v -0.541663 0.210041 0.324998
v -0.541663 0.210041 0.108333
v -0.541663 0.210041 -0.108333
v -0.541663 0.210041 -0.324998
v 0.541663 0.210040 0.324998
v 0.541663 0.210040 0.108333
v 0.541663 0.210040 -0.108333
v 0.541663 0.210040 -0.324998
v -0.324998 0.210041 -0.541663
v -0.108333 0.210041 -0.541663
v 0.108333 0.210041 -0.541663
v 0.324998 0.210041 -0.541663
v 0.324998 0.210041 0.541663
v 0.108333 0.210041 0.541663
v -0.108333 0.210041 0.541663
v -0.324998 0.210041 0.541663
v 0.324998 0.210041 0.324998
v 0.108333 0.210041 0.324998
v -0.108333 0.210041 0.324998
v -0.324998 0.210041 0.324998
v 0.324998 0.210041 0.108333
v -0.324998 0.210041 0.108333
v 0.324998 0.210041 -0.108333
v -0.324998 0.210041 -0.108333
v 0.324998 0.210041 -0.324998
v 0.108333 0.210041 -0.324998
v -0.108333 0.210041 -0.324998
v -0.324998 0.210041 -0.324998
v 0.324998 0.000001 -0.324998
v -0.324998 0.000002 -0.324998
v 0.324998 0.000001 0.324998
v -0.324998 0.000002 0.324998
v 0.541663 0.629242 0.108333
v 0.541663 0.629242 -0.108333
v 0.324998 0.629242 0.108333
v 0.324998 0.629242 -0.108333
v 0.324998 0.402468 -0.541663
v 0.541663 0.402467 -0.541663
v -0.324998 0.402468 0.541663
v -0.541663 0.402468 0.541663
v -0.541663 0.402468 -0.324998
v -0.541663 0.402468 -0.541663
v 0.541663 0.402467 -0.324998
v -0.541663 0.402468 0.324998
v -0.541663 0.402468 0.108333
v -0.541663 0.402468 -0.108333
v 0.541663 0.402467 0.541663
v 0.541663 0.402467 0.324998
v -0.324998 0.402468 0.324998
v -0.324998 0.402468 0.108333
v -0.324998 0.402468 -0.108333
v -0.324998 0.402468 -0.324998
v -0.324998 0.402468 -0.541663
v -0.108333 0.402468 -0.541663
v 0.108333 0.402468 -0.541663
v 0.324998 0.402468 0.541663
v 0.108333 0.402468 0.541663
v -0.108333 0.402468 0.541663
v 0.324998 0.402468 0.324998
v 0.108333 0.402468 0.324998
v -0.108333 0.402468 0.324998
v 0.324998 0.402468 -0.324998
v 0.108333 0.402468 -0.324998
v -0.108333 0.402468 -0.324998
vt 0.500000 0.255788
vt 0.548665 0.302964
vt 0.500000 0.302964
vt 0.743322 0.255788
vt 0.986644 0.255788
vt 0.889316 0.302964
vt 0.840651 0.302964
vt 0.451336 0.302964
vt 0.706361 0.468469
vt 0.706361 0.518452
vt 0.661970 0.518452
vt 0.661970 0.468469
vt 0.800735 0.562843
vt 0.750752 0.562843
vt 0.750752 0.518452
vt 0.800735 0.518452
vt 0.937980 0.351628
vt 0.889316 0.351628
vt 0.937980 0.302964
vt 0.845127 0.518452
vt 0.845127 0.468469
vt 0.889518 0.468469
vt 0.889518 0.518452
vt 0.840651 0.351629
vt 0.791986 0.351629
vt 0.791986 0.302964
vt 0.402671 0.302964
vt 0.354007 0.302964
vt 0.256678 0.255788
vt 0.986644 0.302964
vt 0.645993 0.302964
vt 0.597329 0.302964
vt 0.743322 0.302964
vt 0.738928 0.056693
vt 0.659898 0.133306
vt 0.580868 0.133306
vt 0.501839 0.056693
vt 0.305342 0.302964
vt 0.256678 0.302964
vt 0.896988 0.133306
vt 0.817958 0.133306
vt 0.976017 0.056693
vt 0.027660 0.056693
vt 0.264749 0.056694
vt 0.185719 0.133306
vt 0.106689 0.133306
vt 0.343779 0.133306
vt 0.422809 0.133306
vt 0.694658 0.302964
vt 0.451336 0.351629
vt 0.402671 0.351629
vt 0.354007 0.351629
vt 0.305342 0.351629
vt 0.106908 0.562843
vt 0.056925 0.562843
vt 0.056925 0.518452
vt 0.106908 0.518452
vt 0.208014 0.302964
vt 0.208014 0.351629
vt 0.159349 0.351629
vt 0.159349 0.302964
vt 0.706361 0.518452
vt 0.706361 0.468469
vt 0.750752 0.468469
vt 0.110685 0.302964
vt 0.110685 0.351629
vt 0.062021 0.351629
vt 0.062021 0.302964
vt 0.523204 0.562843
vt 0.473221 0.562843
vt 0.473221 0.518452
vt 0.523204 0.518452
vt 0.548665 0.351629
vt 0.597329 0.351629
vt 0.056925 0.424077
vt 0.106908 0.424077
vt 0.106908 0.468469
vt 0.056925 0.468469
vt 0.645993 0.351629
vt 0.694658 0.351629
vt 0.791986 0.207124
vt 0.937979 0.207123
vt 0.548664 0.207124
vt 0.694658 0.207124
vt 0.389885 0.853544
vt 0.515309 0.853544
vt 0.515309 0.978967
vt 0.389885 0.978967
vt 0.515309 0.610877
vt 0.640732 0.610877
vt 0.640732 0.853544
vt 0.766155 0.610877
vt 0.766155 0.853544
vt 0.264462 0.610877
vt 0.389885 0.610877
vt 0.264462 0.853544
vt 0.245673 0.468469
vt 0.245673 0.518452
vt 0.195690 0.518452
vt 0.195690 0.468469
vt 0.800735 0.468469
vt 0.939501 0.468469
vt 0.939501 0.518451
vt 0.611987 0.518452
vt 0.611987 0.468469
vt 0.523204 0.468469
vt 0.473221 0.468469
vt 0.384439 0.468469
vt 0.384439 0.518452
vt 0.334456 0.518452
vt 0.334456 0.468469
vt 0.750752 0.424077
vt 0.800735 0.424077
vt 0.845127 0.468469
vt 0.845127 0.518452
vt 0.983892 0.468469
vt 0.983892 0.518452
vt 0.428830 0.518452
vt 0.428830 0.468469
vt 0.195690 0.424077
vt 0.245673 0.424077
vt 0.428830 0.468469
vt 0.428830 0.518452
vt 0.012534 0.518452
vt 0.012534 0.468469
vt 0.939501 0.562843
vt 0.889518 0.562843
vt 0.473221 0.424077
vt 0.523204 0.424077
vt 0.290064 0.518452
vt 0.290065 0.468469
vt 0.290064 0.468469
vt 0.290064 0.518452
vt 0.567595 0.518452
vt 0.567595 0.468469
vt 0.334456 0.424077
vt 0.384439 0.424077
vt 0.889518 0.424077
vt 0.939501 0.424077
vt 0.245673 0.562843
vt 0.195690 0.562843
vt 0.151299 0.468469
vt 0.151299 0.518452
vt 0.151299 0.518452
vt 0.151299 0.468469
vt 0.384439 0.562843
vt 0.334456 0.562843
vt 0.661970 0.562843
vt 0.611987 0.562843
vt 0.567595 0.468469
vt 0.567595 0.518452
vt 0.611987 0.424077
vt 0.661970 0.424077
vt 0.305342 0.207124
vt 0.451335 0.207124
vt 0.062020 0.207124
vt 0.208014 0.207124
vt 0.013356 0.255788
vt 0.013356 0.302965
vt 0.264749 0.133306
vt 0.501839 0.133306
vt 0.738928 0.133306
vt 0.976017 0.133306
vt 0.027660 0.133306
vn -0.0000 0.0000 -1.0000
vn -1.0000 -0.0000 0.0000
vn 1.0000 0.0000 0.0000
vn 0.0000 0.0000 1.0000
vn 0.0000 1.0000 0.0000
vn -0.0000 -1.0000 0.0000
usemtl None
s off
f 7/1/1 20/2/1 8/3/1
f 3/4/2 1/5/2 10/6/2 11/7/2
f 8/3/3 16/8/3 7/1/3
f 21/9/4 6/10/4 55/11/4 64/12/4
f 24/13/3 28/14/3 57/15/3 47/16/3
f 28/17/5 30/18/5 10/6/5 9/19/5
f 10/20/4 30/21/4 58/22/4 53/23/4
f 32/24/5 36/25/5 12/26/5 11/7/5
f 7/1/3 15/27/3 14/28/3 5/29/3
f 1/5/2 9/19/2 10/6/2
f 1/5/2 2/30/2 9/19/2
f 12/26/2 3/4/2 11/7/2
f 7/1/1 3/4/1 18/31/1 19/32/1
f 4/33/2 3/4/2 12/26/2
f 16/8/3 15/27/3 7/1/3
f 39/34/2 29/35/2 31/36/2 37/37/2
f 5/29/3 13/38/3 6/39/3
f 27/40/1 26/41/1 39/34/1 40/42/1
f 40/43/3 38/44/3 32/45/3 30/46/3
f 35/47/4 38/44/4 37/37/4 34/48/4
f 3/4/1 17/49/1 18/31/1
f 3/4/1 4/33/1 17/49/1
f 20/2/1 7/1/1 19/32/1
f 15/27/5 16/8/5 33/50/5 31/51/5
f 13/38/5 14/28/5 29/52/5 25/53/5
f 27/54/2 23/55/2 66/56/2 69/57/2
f 21/58/5 25/59/5 26/60/5 22/61/5
f 28/62/1 9/63/1 52/64/1 57/15/1
f 23/65/5 27/66/5 28/67/5 24/68/5
f 8/69/1 20/70/1 45/71/1 46/72/1
f 33/73/5 20/2/5 19/32/5 34/74/5
f 22/75/3 26/76/3 68/77/3 65/78/3
f 35/79/5 18/31/5 17/49/5 36/80/5
f 5/29/3 14/28/3 13/38/3
f 3/4/6 38/81/6 40/82/6 1/5/6
f 3/4/6 7/1/6 37/83/6 38/84/6
f 41/85/5 42/86/5 44/87/5 43/88/5
f 15/89/1 31/90/1 44/91/1 42/86/1
f 31/90/2 29/92/2 43/93/2 44/91/2
f 29/94/4 14/95/4 41/85/4 43/96/4
f 60/97/5 61/98/5 50/99/5 49/100/5
f 47/16/5 57/15/5 52/64/5 48/101/5
f 58/22/5 59/102/5 54/103/5 53/23/5
f 55/11/5 56/104/5 67/105/5 64/12/5
f 65/78/5 68/77/5 69/57/5 66/56/5
f 51/106/5 46/72/5 45/71/5 70/107/5
f 71/108/5 63/109/5 62/110/5 72/111/5
f 9/112/2 2/113/2 48/101/2 52/64/2
f 2/114/4 24/115/4 47/16/4 48/101/4
f 32/116/1 11/117/1 54/103/1 59/102/1
f 20/118/2 33/119/2 70/107/2 45/71/2
f 12/120/4 36/121/4 60/97/4 49/100/4
f 34/122/3 19/123/3 63/109/3 71/108/3
f 23/124/4 22/125/4 65/78/4 66/56/4
f 11/126/2 10/127/2 53/23/2 54/103/2
f 33/128/4 16/129/4 51/106/4 70/107/4
f 18/130/2 35/131/2 72/111/2 62/110/2
f 36/132/3 17/133/3 61/98/3 60/97/3
f 13/134/1 25/135/1 67/105/1 56/104/1
f 35/136/4 34/137/4 71/108/4 72/111/4
f 30/138/3 32/139/3 59/102/3 58/22/3
f 17/140/1 4/141/1 50/99/1 61/98/1
f 26/142/1 27/143/1 69/57/1 68/77/1
f 4/144/2 12/145/2 49/100/2 50/99/2
f 19/146/1 18/147/1 62/110/1 63/109/1
f 6/148/3 13/149/3 56/104/3 55/11/3
f 16/150/3 8/151/3 46/72/3 51/106/3
f 25/152/2 21/153/2 64/12/2 67/105/2
f 7/1/6 5/29/6 39/154/6 37/155/6
f 40/156/6 39/157/6 5/29/6 1/158/6
f 22/61/4 23/65/4 1/158/4 5/29/4
f 24/68/4 1/158/4 23/65/4
f 22/61/4 5/29/4 21/58/4
f 2/159/4 1/158/4 24/68/4
f 5/29/4 6/39/4 21/58/4
f 36/160/4 38/44/4 35/47/4
f 34/48/4 37/37/4 33/161/4
f 37/37/2 31/36/2 33/161/2
f 25/162/2 29/35/2 39/34/2
f 26/41/1 25/162/1 39/34/1
f 28/163/1 27/40/1 40/42/1
f 28/164/3 40/43/3 30/46/3
f 38/44/3 36/160/3 32/45/3
f 14/95/3 15/89/3 42/86/3 41/85/3
