# Blender v2.79 (sub 0) OBJ File: 'Goggles.blend'
# www.blender.org
mtllib hat_18.mtl
o Cube
v 0.625450 -0.186369 -0.070338
v 0.625450 -0.186369 0.070338
v -0.500131 0.225214 -0.500132
v 0.500132 0.225214 -0.500132
v 0.500132 0.225214 0.500132
v -0.500131 0.225214 0.500132
v -0.500131 0.000000 -0.500132
v 0.500132 0.000000 -0.500132
v 0.500132 0.000000 0.500132
v -0.500131 0.000000 0.500132
v 0.500132 -0.186369 -0.500132
v 0.500132 -0.186369 0.500132
v 0.625450 0.009015 -0.070338
v 0.625450 0.009015 0.070338
v 0.625450 -0.186369 0.500132
v 0.625450 -0.186369 -0.500132
v 0.625450 0.000000 0.500132
v 0.625450 0.000000 -0.500132
v 0.500132 0.009015 0.070338
v 0.500132 0.009015 -0.070338
v 0.500132 -0.186369 0.070338
v 0.500132 -0.186369 -0.070338
v -0.573504 0.000000 0.586111
v -0.573504 0.225214 0.586111
v -0.573504 0.225214 -0.586111
v -0.573504 0.000000 -0.586111
v 0.625450 0.000000 -0.586111
v 0.625450 0.225214 0.586111
v 0.625450 0.000000 0.586111
v 0.625450 0.225214 -0.586111
vt 0.496798 0.264144
vt 0.808428 0.264144
vt 0.808428 0.399275
vt 0.496798 0.405811
vt 0.083168 0.816730
vt 0.083168 0.653435
vt 0.394798 0.810194
vt 0.062560 0.018690
vt 0.327122 0.018690
vt 0.346528 0.041431
vt 0.029414 0.041431
vt 0.346528 0.100998
vt 0.029414 0.100998
vt 0.394798 0.951860
vt 0.083168 0.951860
vt 0.394799 0.264144
vt 0.394799 0.405811
vt 0.083169 0.399275
vt 0.083169 0.264144
vt 0.049702 0.158905
vt 0.136764 0.158905
vt 0.136764 0.217447
vt 0.049702 0.217447
vt 0.633831 0.022024
vt 0.656572 0.041431
vt 0.369269 0.022024
vt 0.786577 0.158905
vt 0.873639 0.158905
vt 0.873639 0.217447
vt 0.786577 0.217447
vt 0.973686 0.041431
vt 0.973686 0.100998
vt 0.656572 0.100998
vt 0.870769 0.562570
vt 0.020828 0.562570
vt 0.428812 0.158905
vt 0.494528 0.158905
vt 0.494528 0.217447
vt 0.428812 0.217447
vt 0.585801 0.158905
vt 0.585801 0.217447
vt 0.337540 0.158905
vt 0.337540 0.217447
vt 0.808428 0.653435
vt 0.496798 0.810194
vt 0.327122 0.123739
vt 0.062560 0.123739
vt 0.940540 0.123739
vt 0.675979 0.123739
vt 0.029414 0.018690
vt 0.940541 0.018690
vt 0.973686 0.018690
vt 0.496798 0.951861
vt 0.808428 0.816730
vt 0.808428 0.951861
vt 0.675979 0.018690
vt 0.910736 0.708345
vt 0.910736 0.435675
vt 0.972129 0.435675
vt 0.972129 0.708345
vt 0.633831 0.120405
vt 0.369269 0.120405
vt 0.972129 0.981015
vt 0.910736 0.981015
vt 0.972129 0.163005
vt 0.910736 0.163005
vt 0.020828 0.399275
vt 0.870769 0.399275
vn 1.0000 0.0000 0.0000
vn -1.0000 0.0000 0.0000
vn 0.0000 -1.0000 0.0000
vn 0.0000 0.0000 -1.0000
vn 0.0000 0.0000 1.0000
vn 0.0000 1.0000 0.0000
usemtl None
s off
f 1/1/1 16/2/1 18/3/1 13/4/1
f 9/5/2 5/6/2 19/7/2
f 8/8/3 7/9/3 26/10/3 27/11/3
f 25/12/4 30/13/4 27/11/4 26/10/4
f 19/7/2 21/14/2 12/15/2 9/5/2
f 2/16/1 14/17/1 17/18/1 15/19/1
f 9/20/5 12/21/5 15/22/5 17/23/5
f 10/24/3 23/25/3 26/10/3 7/26/3
f 11/27/4 8/28/4 18/29/4 16/30/4
f 23/25/5 29/31/5 28/32/5 24/33/5
f 30/34/1 28/35/1 14/17/1 13/4/1
f 19/36/3 20/37/3 13/38/3 14/39/3
f 20/37/5 22/40/5 1/41/5 13/38/5
f 12/21/3 21/42/3 2/43/3 15/22/3
f 21/42/4 19/36/4 14/39/4 2/43/4
f 14/17/1 28/35/1 17/18/1
f 13/4/1 18/3/1 30/34/1
f 4/44/2 20/45/2 19/7/2 5/6/2
f 26/10/2 23/25/2 24/33/2 25/12/2
f 25/12/6 3/46/6 4/47/6 30/13/6
f 24/33/6 28/32/6 5/48/6 6/49/6
f 18/50/3 8/8/3 27/11/3
f 9/51/3 17/52/3 29/31/3
f 22/53/2 20/45/2 8/54/2 11/55/2
f 30/34/6 4/44/6 5/6/6 28/35/6
f 9/51/3 29/31/3 23/25/3 10/56/3
f 10/57/1 7/58/1 3/59/1 6/60/1
f 25/12/6 24/33/6 6/61/6 3/62/6
f 11/27/3 16/30/3 1/41/3 22/40/3
f 6/60/4 5/63/4 9/64/4 10/57/4
f 4/65/5 3/59/5 7/58/5 8/66/5
f 4/44/2 8/54/2 20/45/2
f 29/67/1 17/18/1 28/35/1
f 18/3/1 27/68/1 30/34/1
