# Blender v2.79 (sub 0) OBJ File: ''
# www.blender.org
mtllib 22.mtl
o Cube_Cube.005_Cube_Cube.022
v 1.054097 0.970085 1.054097
v 1.079350 0.944831 1.079350
v -1.103832 0.885729 1.103831
v -1.054097 0.970085 1.054097
v -1.079350 0.944832 1.079350
v 1.018681 0.984755 1.018681
v -1.018681 0.984755 1.018681
v 1.103831 0.885728 1.103832
v -0.969355 0.994566 0.969355
v 0.969355 0.994567 0.969355
v 1.875287 0.183024 1.289192
v 1.877073 0.000000 1.289647
v -1.877074 0.000000 1.289646
v 1.720213 0.382469 1.479810
v 1.880049 0.057979 1.423144
v 1.760522 0.253346 1.611303
v -1.760522 0.253345 1.611302
v -1.880049 0.057979 1.423144
v -1.875288 0.183024 1.289191
v -1.720214 0.382469 1.479809
v 1.289646 0.689185 1.539666
v 1.564310 0.578077 1.517868
v 1.707392 0.346862 1.659804
v 1.563372 0.541985 1.698076
v 1.289646 0.653773 1.720038
v -1.289647 0.653772 1.720038
v -1.563373 0.541984 1.698076
v -1.707394 0.346862 1.659804
v -1.564311 0.578077 1.517868
v -1.289647 0.689184 1.539666
v 1.054097 0.970085 -1.054097
v 1.079350 0.944831 -1.079350
v -1.103832 0.885729 -1.103831
v -1.054097 0.970085 -1.054097
v -1.079350 0.944832 -1.079350
v 1.018681 0.984755 -1.018681
v -1.018681 0.984755 -1.018681
v 1.103831 0.885728 -1.103832
v -0.969355 0.994566 -0.969355
v 0.969355 0.994567 -0.969355
v 1.875287 0.183024 -1.289193
v 1.877073 0.000000 -1.289648
v -1.877074 0.000000 -1.289646
v 1.720213 0.382469 -1.479810
v 1.880049 0.057979 -1.423145
v 1.760521 0.253346 -1.611303
v -1.760522 0.253345 -1.611302
v -1.880050 0.057979 -1.423143
v -1.875288 0.183024 -1.289191
v -1.720214 0.382469 -1.479809
v 1.289646 0.689185 -1.539666
v 1.564310 0.578077 -1.517868
v 1.707392 0.346862 -1.659804
v 1.563371 0.541985 -1.698076
v 1.289646 0.653773 -1.720038
v -1.289647 0.653772 -1.720038
v -1.563373 0.541984 -1.698076
v -1.707394 0.346862 -1.659803
v -1.564311 0.578077 -1.517868
v -1.289647 0.689184 -1.539666
v -1.103832 0.420937 1.103831
v 1.103831 0.420937 1.103832
v -1.103832 0.420937 -1.103831
v 1.103831 0.420937 -1.103832
v 1.187885 0.174956 1.187886
v -1.187886 0.174956 1.187885
v 1.187885 0.174956 -1.187886
v -1.187886 0.174956 -1.187885
v 1.145439 0.420937 1.145440
v 1.145439 0.420937 -1.145440
v -1.145440 0.420937 1.145439
v -1.145440 0.420937 -1.145439
v 1.165940 0.400436 1.165940
v 1.187885 0.347455 1.187886
v 1.165940 0.400436 -1.165940
v 1.187885 0.347455 -1.187886
v -1.187886 0.347455 1.187885
v -1.165940 0.400436 1.165939
v -1.165940 0.400436 -1.165939
v -1.187886 0.347455 -1.187885
vt 0.985261 0.096020
vt 0.546530 0.096019
vt 0.559804 0.063975
vt 0.971989 0.063977
vt 0.153316 0.631034
vt 0.153319 0.857415
vt 0.147446 0.863175
vt 0.147443 0.625274
vt 0.131146 0.873247
vt 0.131146 0.615335
vt 0.138619 0.618195
vt 0.138620 0.870386
vt 0.142970 0.867310
vt 0.142968 0.621140
vt 0.076328 0.873247
vt 0.076329 0.615335
vt 0.385460 0.863284
vt 0.389595 0.867761
vt 0.143425 0.867762
vt 0.147560 0.863287
vt 0.395398 0.608859
vt 0.392538 0.616333
vt 0.140345 0.616336
vt 0.137485 0.608863
vt 0.140480 0.872110
vt 0.392672 0.872111
vt 0.395532 0.879585
vt 0.137620 0.879585
vt 0.143422 0.620687
vt 0.389592 0.620681
vt 0.385457 0.625158
vt 0.147556 0.625162
vt 0.036710 0.105422
vt 0.058196 0.105422
vt 0.058190 0.406915
vt 0.036704 0.406915
vt 0.018366 0.474933
vt 0.029959 0.456848
vt 0.059159 0.475566
vt 0.047565 0.493651
vt 0.525160 0.456847
vt 0.536753 0.474932
vt 0.507553 0.493651
vt 0.495959 0.475566
vt 0.948655 0.028562
vt 0.583137 0.028562
vt 0.615181 0.015289
vt 0.916613 0.015290
vt 0.092157 0.475566
vt 0.092157 0.497048
vt 0.059159 0.497048
vt 0.462961 0.497048
vt 0.462961 0.475566
vt 0.495959 0.497048
vt 0.428276 0.497048
vt 0.126842 0.497048
vt 0.126842 0.475566
vt 0.428276 0.475566
vt 0.094797 0.462293
vt 0.460321 0.462293
vt 0.071464 0.438959
vt 0.483654 0.438960
vt 0.971989 0.051896
vt 0.559804 0.051895
vt 0.496927 0.406914
vt 0.008879 0.460986
vt 0.546239 0.460986
vt 0.985261 0.112886
vt 0.546530 0.112886
vt 0.985261 0.414317
vt 0.546530 0.414317
vt 0.496932 0.105425
vt 0.518418 0.105426
vt 0.518413 0.406915
vt 0.395397 0.554042
vt 0.137485 0.554046
vt 0.379700 0.857412
vt 0.379697 0.631030
vt 0.985261 0.431184
vt 0.971988 0.463228
vt 0.559803 0.463227
vt 0.546530 0.431183
vt 0.385569 0.625271
vt 0.385573 0.863171
vt 0.401872 0.873119
vt 0.394399 0.870258
vt 0.394398 0.618062
vt 0.401873 0.615202
vt 0.390046 0.621135
vt 0.390048 0.867306
vt 0.456691 0.873119
vt 0.456691 0.615202
vt 0.416381 0.394977
vt 0.416376 0.117363
vt 0.018371 0.037404
vt 0.047571 0.018685
vt 0.059164 0.036771
vt 0.029964 0.055489
vt 0.525164 0.055493
vt 0.495964 0.036774
vt 0.507558 0.018689
vt 0.536757 0.037408
vt 0.948655 0.498641
vt 0.916611 0.511914
vt 0.615178 0.511913
vt 0.583136 0.498641
vt 0.092163 0.036771
vt 0.059164 0.015289
vt 0.092163 0.015289
vt 0.462966 0.015292
vt 0.495964 0.015292
vt 0.462966 0.036774
vt 0.428282 0.015292
vt 0.428282 0.036773
vt 0.126847 0.036771
vt 0.126848 0.015289
vt 0.094803 0.050044
vt 0.460326 0.050047
vt 0.483659 0.073381
vt 0.071469 0.073378
vt 0.971988 0.475309
vt 0.559803 0.475308
vt 0.008885 0.051350
vt 0.546243 0.051354
vt 0.461579 0.877980
vt 0.461579 0.610341
vt 0.466425 0.607946
vt 0.466425 0.880375
vt 0.395532 0.934402
vt 0.137620 0.934402
vt 0.138743 0.117360
vt 0.405216 0.514913
vt 0.405217 0.535428
vt 0.127665 0.535433
vt 0.127664 0.514917
vt 0.400393 0.939289
vt 0.132759 0.939289
vt 0.071441 0.878108
vt 0.071441 0.610474
vt 0.138748 0.394976
vt 0.402788 0.944136
vt 0.130364 0.944136
vt 0.405351 0.953015
vt 0.405351 0.973530
vt 0.127801 0.973530
vt 0.127801 0.953015
vt 0.495820 0.882939
vt 0.475305 0.882939
vt 0.475305 0.605382
vt 0.495820 0.605382
vt 0.037200 0.883066
vt 0.037200 0.605515
vt 0.057715 0.605515
vt 0.057715 0.883066
vt 0.400258 0.549154
vt 0.132624 0.549158
vt 0.130229 0.544312
vt 0.402653 0.544308
vt 0.066594 0.608078
vt 0.066594 0.880503
vn -0.0000 -0.8377 0.5462
vn -0.0000 -0.6162 0.7876
vn 0.0737 0.9945 0.0737
vn -0.0737 0.9945 0.0737
vn 0.0000 0.9419 0.3360
vn 0.1729 0.9696 0.1729
vn -0.0000 0.1693 0.9856
vn -0.0000 0.4983 0.8670
vn 0.0000 0.7784 0.6278
vn -0.0000 0.0000 1.0000
vn -0.3360 0.9419 0.0000
vn -0.6278 0.7784 0.0000
vn 0.9856 0.1693 0.0000
vn 0.8670 0.4983 0.0000
vn -0.8670 0.4983 0.0000
vn -0.9856 0.1694 0.0000
vn 0.6278 0.7784 0.0000
vn 0.1729 0.9696 -0.1729
vn 0.9999 0.0097 0.0113
vn 0.9818 0.1681 -0.0881
vn 0.9818 0.1681 0.0881
vn 0.9999 0.0097 -0.0113
vn 0.9628 0.2397 0.1246
vn 0.8557 0.4846 0.1813
vn 0.8903 0.4112 0.1957
vn -0.9818 0.1681 0.0881
vn -0.9628 0.2397 0.1246
vn -0.8903 0.4112 0.1957
vn -0.8557 0.4846 0.1813
vn -0.0000 -0.1925 0.9813
vn -0.0000 -0.1928 0.9812
vn 0.6122 0.7722 0.1697
vn 0.6119 0.7725 0.1697
vn 0.8428 0.5174 0.1481
vn -0.6119 0.7725 0.1697
vn -0.6122 0.7722 0.1697
vn -0.8428 0.5174 0.1481
vn -0.1951 0.9621 0.1903
vn 0.1951 0.9621 0.1903
vn 0.0000 0.1912 -0.9815
vn 0.0000 0.1925 -0.9813
vn 0.0000 0.5583 -0.8296
vn -0.0000 -0.3789 0.9254
vn -0.0069 0.9475 -0.3198
vn 0.0069 0.9475 -0.3198
vn -0.9999 0.0097 -0.0113
vn -0.0000 -0.9788 0.2047
vn -0.0000 -0.9788 -0.2047
vn -0.9818 0.1681 -0.0881
vn -0.9999 0.0097 0.0113
vn 1.0000 0.0000 0.0000
vn -0.0737 0.9945 -0.0737
vn 0.0737 0.9945 -0.0737
vn -0.0000 -0.8377 -0.5462
vn -0.0000 -0.6162 -0.7876
vn 0.0000 0.9419 -0.3360
vn -0.0000 0.1693 -0.9856
vn -0.0000 0.4983 -0.8670
vn 0.0000 0.7784 -0.6278
vn -0.0000 0.0000 -1.0000
vn 0.0043 0.9987 -0.0505
vn 0.0043 0.9987 0.0505
vn 0.0069 0.9475 0.3198
vn 0.9628 0.2397 -0.1246
vn 0.8903 0.4112 -0.1957
vn 0.8557 0.4846 -0.1813
vn -0.8557 0.4846 -0.1813
vn -0.8903 0.4112 -0.1957
vn -0.9628 0.2397 -0.1246
vn -0.0000 -0.1925 -0.9813
vn -0.0000 -0.1928 -0.9812
vn 0.6122 0.7722 -0.1697
vn 0.8428 0.5174 -0.1481
vn 0.6119 0.7725 -0.1697
vn -0.6119 0.7725 -0.1697
vn -0.8428 0.5174 -0.1481
vn -0.6122 0.7722 -0.1697
vn -0.1951 0.9621 -0.1903
vn 0.1951 0.9621 -0.1903
vn 0.0000 0.1912 0.9815
vn 0.0000 0.1925 0.9813
vn 0.0000 0.5583 0.8296
vn -0.0000 -0.3789 -0.9254
vn -0.0069 0.9475 0.3198
vn -0.0000 0.8334 -0.5526
vn -1.0000 0.0000 0.0000
vn -0.0043 0.9987 0.0505
vn 0.0000 1.0000 0.0000
vn -0.5526 0.8334 0.0000
vn -0.0000 0.8334 0.5526
vn -0.0043 0.9987 -0.0505
vn -0.9856 0.1693 0.0000
vn 0.5526 0.8334 0.0000
usemtl Material.044
s 1
f 18/1/1 15/2/1 16/3/2 17/4/2
f 10/5/3 9/6/4 7/7/5 6/8/6
f 3/9/7 8/10/7 2/11/8 5/12/8
f 6/8/6 7/7/5 4/13/9 1/14/9
f 1/14/9 4/13/9 5/12/8 2/11/8
f 61/15/10 62/16/10 8/10/7 3/9/7
f 37/17/11 34/18/12 4/19/12 7/20/11
f 38/21/13 32/22/14 2/23/14 8/24/13
f 5/25/15 35/26/15 33/27/16 3/28/16
f 4/19/12 34/18/12 35/26/15 5/25/15
f 1/29/17 31/30/17 36/31/18 6/32/6
f 42/33/19 41/34/20 11/35/21 12/36/22
f 15/37/23 11/38/21 14/39/24 16/40/25
f 19/41/26 18/42/27 17/43/28 20/44/29
f 27/45/30 24/46/30 25/47/31 26/48/31
f 22/49/32 24/50/33 23/51/34 14/39/24
f 27/52/35 29/53/36 20/44/29 28/54/37
f 26/55/38 25/56/39 21/57/39 30/58/38
f 22/59/40 29/60/40 30/58/41 21/57/41
f 21/57/39 25/56/39 24/50/33 22/49/32
f 26/55/38 30/58/38 29/53/36 27/52/35
f 29/60/40 22/59/40 14/61/42 20/62/42
f 28/63/43 23/64/43 24/46/30 27/45/30
f 20/62/42 14/61/42 11/35/44 19/65/45
f 16/40/25 14/39/24 23/51/34
f 11/38/21 15/37/23 12/66/22
f 16/3/2 23/64/43 28/63/43 17/4/2
f 20/44/29 17/43/28 28/54/37
f 18/42/27 19/41/26 13/67/46
f 13/68/47 12/69/47 15/2/1 18/1/1
f 13/68/47 43/70/48 42/71/48 12/69/47
f 49/72/49 43/73/50 13/74/46 19/65/26
f 64/75/51 38/21/13 8/24/13 62/76/51
f 2/23/14 32/22/14 31/30/17 1/29/17
f 39/77/52 37/17/11 7/20/11 9/6/4
f 6/32/6 36/31/18 40/78/53 10/5/3
f 40/78/53 39/77/52 9/6/4 10/5/3
f 48/79/54 47/80/55 46/81/55 45/82/54
f 40/78/53 36/83/18 37/84/56 39/77/52
f 33/85/57 35/86/58 32/87/58 38/88/57
f 36/83/18 31/89/59 34/90/59 37/84/56
f 31/89/59 32/87/58 35/86/58 34/90/59
f 63/91/60 33/85/57 38/88/57 64/92/60
f 19/65/45 66/93/61 68/94/62 49/72/63
f 45/95/64 46/96/65 44/97/66 41/98/20
f 49/99/49 50/100/67 47/101/68 48/102/69
f 57/103/70 56/104/71 55/105/71 54/106/70
f 52/107/72 44/97/66 53/108/73 54/109/74
f 57/110/75 58/111/76 50/100/67 59/112/77
f 56/113/78 60/114/78 51/115/79 55/116/79
f 52/117/80 51/115/81 60/114/81 59/118/80
f 51/115/79 52/107/72 54/109/74 55/116/79
f 56/113/78 57/110/75 59/112/77 60/114/78
f 59/118/80 50/119/82 44/120/82 52/117/80
f 58/121/83 57/103/70 54/106/70 53/122/83
f 50/119/82 49/72/63 41/34/84 44/120/82
f 46/96/65 53/108/73 44/97/66
f 41/98/20 42/123/19 45/95/64
f 46/81/55 47/80/55 58/121/83 53/122/83
f 50/100/67 58/111/76 47/101/68
f 48/102/69 43/124/50 49/99/49
f 43/70/48 48/79/54 45/82/54 42/71/48
f 72/125/85 70/126/85 75/127/58 79/128/58
f 33/27/16 63/129/86 61/130/86 3/28/16
f 68/94/62 67/131/87 41/34/84 49/72/63
f 67/132/51 76/133/13 74/134/13 65/135/51
f 61/130/88 63/129/88 72/136/89 71/137/89
f 63/91/88 64/92/88 70/126/85 72/125/85
f 62/16/88 61/15/88 71/138/90 69/139/90
f 19/65/45 11/35/44 65/140/91 66/93/61
f 79/141/15 78/142/15 71/137/89 72/136/89
f 41/34/84 67/131/87 65/140/91 11/35/44
f 80/143/92 68/144/86 66/145/86 77/146/92
f 68/147/60 80/148/57 76/149/57 67/150/60
f 66/151/10 65/152/10 74/153/7 77/154/7
f 70/155/93 69/156/93 73/157/14 75/158/14
f 64/75/88 62/76/88 69/156/93 70/155/93
f 80/143/92 77/146/92 78/142/15 79/141/15
f 76/149/57 80/148/57 79/128/58 75/127/58
f 74/134/13 76/133/13 75/158/14 73/157/14
f 77/154/7 74/153/7 73/159/8 78/160/8
f 69/139/90 71/138/90 78/160/8 73/159/8
