# Blender v2.79 (sub 0) OBJ File: ''
# www.blender.org
mtllib hat_105.mtl
o Pot_Beanie_Bomble_Cube.001
v -0.507671 0.053781 1.178047
v -1.015340 0.053781 1.015339
v 0.507669 0.053781 -1.178047
v 1.015338 0.053781 -1.015339
v -1.178048 0.053781 0.507670
v -1.228561 0.053781 0.000000
v 1.178046 0.053781 0.507670
v 1.015338 0.053781 1.015339
v -0.507671 0.053781 -1.178047
v -0.000001 0.053781 -1.228560
v 0.507669 0.053781 1.178047
v -0.000001 0.053781 1.228560
v -1.015340 0.053781 -1.015339
v 1.228559 0.053781 0.000000
v 1.178046 0.053781 -0.507669
v -1.178048 0.053781 -0.507669
v -0.000009 1.163319 0.000009
v -1.015340 0.927230 -1.015339
v -0.827596 1.163319 -0.827592
v -0.990187 1.045274 -0.990185
v -0.921468 1.131689 -0.921465
v -0.960216 1.163319 -0.413794
v -1.178048 0.927230 -0.507669
v -1.069132 1.131689 -0.460732
v -1.148864 1.045274 -0.495092
v 0.827591 1.163319 -0.827592
v 1.015338 0.927230 -1.015339
v 0.921465 1.131689 -0.921465
v 0.990185 1.045274 -0.990186
v 0.413795 1.163319 -0.960213
v 0.507669 0.927230 -1.178047
v 0.460732 1.131689 -1.069130
v 0.495093 1.045274 -1.148863
v 0.827592 1.163318 0.827596
v 1.015338 0.927230 1.015339
v 0.921465 1.131688 0.921468
v 0.990185 1.045274 0.990186
v 1.178046 0.927230 0.507670
v 0.960213 1.163318 0.413799
v 1.148862 1.045274 0.495094
v 1.069130 1.131688 0.460735
v -1.015340 0.927230 1.015339
v -0.827595 1.163318 0.827595
v -0.990187 1.045274 0.990186
v -0.921467 1.131688 0.921467
v -0.507671 0.927230 1.178047
v -0.413800 1.163318 0.960218
v -0.495094 1.045274 1.148864
v -0.460735 1.131688 1.069132
v 1.001386 1.163319 0.000002
v 1.228559 0.927230 0.000000
v 1.114972 1.131689 0.000001
v 1.198124 1.045274 0.000000
v 1.178046 0.927230 -0.507669
v 0.960213 1.163319 -0.413794
v 1.148862 1.045274 -0.495092
v 1.069129 1.131689 -0.460732
v -1.001389 1.163319 0.000002
v -1.228561 0.927230 0.000000
v -1.114975 1.131689 0.000001
v -1.198125 1.045274 0.000000
v -0.960216 1.163318 0.413798
v -1.178048 0.927230 0.507670
v -1.069132 1.131688 0.460734
v -1.148864 1.045274 0.495094
v -0.000001 0.927230 1.228560
v -0.000002 1.163318 1.001391
v -0.000001 1.045274 1.198125
v -0.000001 1.131688 1.114975
v 0.413795 1.163318 0.960218
v 0.507669 0.927230 1.178047
v 0.460732 1.131688 1.069132
v 0.495093 1.045274 1.148863
v -0.000001 0.927230 -1.228560
v -0.000002 1.163319 -1.001386
v -0.000001 1.045274 -1.198125
v -0.000001 1.131689 -1.114973
v -0.507671 0.927230 -1.178047
v -0.413799 1.163319 -0.960213
v -0.495094 1.045274 -1.148863
v -0.460735 1.131689 -1.069130
v -0.446750 0.053781 1.036682
v -0.893499 0.053781 0.893498
v 0.446749 0.053781 -1.036681
v 0.893498 0.053781 -0.893498
v -1.036682 0.053781 0.446750
v -1.081133 0.053781 0.000000
v 1.036681 0.053781 0.446750
v 0.893498 0.053781 0.893498
v -0.446750 0.053781 -1.036681
v -0.000001 0.053781 -1.081133
v 0.446749 0.053781 1.036682
v -0.000001 0.053781 1.081133
v -0.893499 0.053781 -0.893498
v 1.081132 0.053781 0.000000
v 1.036681 0.053781 -0.446749
v -1.036682 0.053781 -0.446749
v -0.446750 0.602174 1.036682
v -0.893499 0.602174 0.893498
v 0.446749 0.602174 -1.036681
v 0.893498 0.602174 -0.893498
v -1.036682 0.602174 0.446750
v -1.081133 0.602174 0.000000
v 1.036681 0.602174 0.446750
v 0.893498 0.602174 0.893498
v -0.446750 0.602174 -1.036681
v -0.000001 0.602174 -1.081133
v 0.446749 0.602174 1.036682
v -0.000001 0.602174 1.081133
v -0.893499 0.602174 -0.893498
v 1.081132 0.602174 0.000000
v 1.036681 0.602174 -0.446749
v -1.036682 0.602174 -0.446749
v 0.000030 0.572176 0.000031
v -1.167562 0.328299 0.155122
v -1.167562 0.218611 0.109688
v -1.167562 0.173177 0.000000
v -1.167562 0.218611 -0.109687
v -1.167562 0.328299 -0.155121
v -1.167562 0.437986 -0.109687
v -1.167562 0.483420 0.000000
v -1.167562 0.437986 0.109688
v -2.633271 0.328298 0.155122
v -2.730031 0.328298 0.094654
v -2.689135 0.328298 0.138919
v -2.633271 0.218611 0.109688
v -2.730031 0.261368 0.066931
v -2.689135 0.230067 0.098231
v -2.633271 0.173177 0.000000
v -2.730031 0.233644 0.000000
v -2.689135 0.189379 0.000000
v -2.633271 0.218611 -0.109687
v -2.730031 0.261368 -0.066930
v -2.689135 0.230067 -0.098230
v -2.633271 0.328298 -0.155121
v -2.730031 0.328298 -0.094654
v -2.689135 0.328298 -0.138919
v -2.633271 0.437985 -0.109687
v -2.730031 0.395228 -0.066930
v -2.689135 0.426528 -0.098230
v -2.633271 0.483419 0.000000
v -2.730031 0.422952 0.000000
v -2.689135 0.467217 0.000000
v -2.633271 0.437985 0.109688
v -2.730031 0.395228 0.066931
v -2.689135 0.426528 0.098231
v -2.745000 0.328304 0.000000
vt 0.262373 0.670518
vt 0.262373 0.769987
vt 0.204274 0.769987
vt 0.204274 0.670518
vt 0.618801 0.670518
vt 0.618802 0.769987
vt 0.558091 0.769987
vt 0.558091 0.670518
vt 0.320472 0.670518
vt 0.320472 0.769987
vt 0.294779 0.378808
vt 0.186347 0.425566
vt 0.278157 0.334093
vt 0.139192 0.533826
vt 0.186139 0.539277
vt 0.233504 0.317308
vt 0.186556 0.311857
vt 0.917131 0.670518
vt 0.917131 0.769986
vt 0.856421 0.769987
vt 0.856421 0.670518
vt 0.300058 0.425775
vt 0.277821 0.517377
vt 0.294607 0.472723
vt 0.077917 0.472326
vt 0.094538 0.517041
vt 0.078089 0.378411
vt 0.072638 0.425359
vt 0.381182 0.670518
vt 0.381182 0.769987
vt 0.139589 0.317136
vt 0.094874 0.333758
vt 0.233107 0.533998
vt 0.679512 0.670518
vt 0.679512 0.769987
vt 0.499992 0.769987
vt 0.499992 0.670518
vt 0.143563 0.769987
vt 0.143563 0.670518
vt 0.441893 0.769987
vt 0.441893 0.670518
vt 0.795710 0.670518
vt 0.795710 0.769987
vt 0.737611 0.769987
vt 0.737611 0.670518
vt 0.082853 0.769987
vt 0.082853 0.670518
vt 0.024754 0.769987
vt 0.024754 0.670518
vt 0.975230 0.670518
vt 0.975230 0.769986
vt 0.249347 0.574407
vt 0.186060 0.582445
vt 0.186088 0.567145
vt 0.244543 0.559994
vt 0.186114 0.552873
vt 0.238976 0.546674
vt 0.065434 0.372496
vt 0.084659 0.323505
vt 0.052135 0.366879
vt 0.074631 0.313440
vt 0.037740 0.362023
vt 0.064300 0.303071
vt 0.123349 0.276727
vt 0.128152 0.291141
vt 0.133720 0.304460
vt 0.029469 0.425280
vt 0.044769 0.425308
vt 0.059042 0.425334
vt 0.037508 0.488566
vt 0.051921 0.483763
vt 0.065241 0.478195
vt 0.308396 0.548064
vt 0.298065 0.537694
vt 0.288037 0.527630
vt 0.122804 0.574175
vt 0.127660 0.559780
vt 0.133276 0.546481
vt 0.084285 0.527256
vt 0.074221 0.537284
vt 0.063852 0.547615
vt 0.308844 0.303519
vt 0.335188 0.362568
vt 0.320774 0.367371
vt 0.298475 0.313850
vt 0.307455 0.372939
vt 0.288410 0.323878
vt 0.343226 0.425855
vt 0.334956 0.489111
vt 0.320560 0.484255
vt 0.327926 0.425827
vt 0.307261 0.478638
vt 0.313653 0.425801
vt 0.186635 0.268689
vt 0.186607 0.283989
vt 0.186581 0.298262
vt 0.239419 0.304654
vt 0.245036 0.291355
vt 0.249892 0.276959
vt 0.408157 0.546103
vt 0.389172 0.488438
vt 0.405215 0.481373
vt 0.421923 0.532119
vt 0.463994 0.295870
vt 0.521760 0.289661
vt 0.521893 0.306449
vt 0.471059 0.311913
vt 0.579618 0.294956
vt 0.572807 0.311109
vt 0.466116 0.564175
vt 0.472926 0.548022
vt 0.637576 0.313027
vt 0.656562 0.370692
vt 0.640518 0.377757
vt 0.623811 0.327012
vt 0.382962 0.430672
vt 0.399751 0.430539
vt 0.406329 0.314856
vt 0.420313 0.328621
vt 0.388257 0.372814
vt 0.404410 0.379624
vt 0.639405 0.544274
vt 0.581740 0.563260
vt 0.574675 0.547217
vt 0.625420 0.530509
vt 0.523973 0.569470
vt 0.523840 0.552681
vt 0.662771 0.428459
vt 0.645983 0.428591
vt 0.657476 0.486316
vt 0.641323 0.479506
vt 0.870933 0.940833
vt 0.817508 0.940833
vt 0.817508 0.878381
vt 0.870933 0.878381
vt 0.399298 0.940833
vt 0.345873 0.940833
vt 0.345873 0.878382
vt 0.399298 0.878382
vt 0.294746 0.940833
vt 0.294746 0.878382
vt 0.554978 0.940833
vt 0.503851 0.940833
vt 0.503851 0.878382
vt 0.554978 0.878382
vt 0.661828 0.940833
vt 0.608403 0.940833
vt 0.608403 0.878382
vt 0.661828 0.878382
vt 0.243619 0.940833
vt 0.243619 0.878382
vt 0.452723 0.940833
vt 0.452723 0.878382
vt 0.922060 0.940832
vt 0.922060 0.878381
vt 0.190194 0.940833
vt 0.136768 0.940833
vt 0.136768 0.878382
vt 0.190194 0.878382
vt 0.764083 0.940833
vt 0.712955 0.940833
vt 0.712955 0.878382
vt 0.764083 0.878382
vt 0.085641 0.940833
vt 0.085641 0.878382
vt 0.692119 0.428630
vt 0.697457 0.377774
vt 0.815260 0.429294
vt 0.714044 0.326979
vt 0.696911 0.479540
vt 0.712951 0.530510
vt 0.933616 0.379042
vt 0.917575 0.328072
vt 0.765014 0.310938
vt 0.815924 0.306147
vt 0.866780 0.311485
vt 0.938407 0.429952
vt 0.933069 0.480808
vt 0.916482 0.531603
vt 0.865512 0.547644
vt 0.814602 0.552435
vt 0.763746 0.547097
vt 0.239764 0.103171
vt 0.072849 0.103171
vt 0.072849 0.089651
vt 0.239764 0.089651
vt 0.239764 0.170774
vt 0.072849 0.170774
vt 0.072849 0.157253
vt 0.239764 0.157253
vt 0.072849 0.143733
vt 0.239764 0.143733
vt 0.072849 0.130212
vt 0.239764 0.130212
vt 0.072849 0.116692
vt 0.239764 0.116692
vt 0.072849 0.076131
vt 0.239764 0.076130
vt 0.072849 0.062610
vt 0.239764 0.062610
vt 0.293930 0.062610
vt 0.306623 0.075240
vt 0.299267 0.078680
vt 0.291150 0.070246
vt 0.293493 0.081201
vt 0.288823 0.076160
vt 0.285144 0.084364
vt 0.281808 0.075874
vt 0.276009 0.062610
vt 0.279481 0.069949
vt 0.276865 0.080856
vt 0.263481 0.075386
vt 0.271134 0.078107
vt 0.276869 0.087723
vt 0.263587 0.093288
vt 0.270921 0.089807
vt 0.281663 0.092424
vt 0.276313 0.105830
vt 0.279107 0.098210
vt 0.288445 0.092782
vt 0.294200 0.105928
vt 0.290733 0.098613
vt 0.293172 0.087908
vt 0.306623 0.093137
vt 0.298982 0.090408
vn 0.0000 0.0000 1.0000
vn 0.0000 0.1249 0.9922
vn -0.2032 0.1276 0.9708
vn -0.2032 0.0000 0.9791
vn 0.7071 0.0000 -0.7071
vn 0.7001 0.1400 -0.7001
vn 0.9708 0.1276 -0.2032
vn 0.9791 0.0000 -0.2032
vn 0.2032 0.0000 0.9791
vn 0.2032 0.1276 0.9708
vn 0.1391 0.9899 0.0268
vn -0.0000 1.0000 0.0000
vn 0.1069 0.9885 0.1069
vn -0.0268 0.9899 -0.1391
vn -0.0000 0.9896 -0.1437
vn 0.0268 0.9899 0.1391
vn -0.0000 0.9896 0.1437
vn -0.9791 0.0000 -0.2032
vn -0.9708 0.1276 -0.2032
vn -0.7001 0.1400 -0.7001
vn -0.7071 0.0000 -0.7071
vn 0.1437 0.9896 0.0000
vn 0.1069 0.9885 -0.1069
vn 0.1391 0.9899 -0.0268
vn -0.1391 0.9899 -0.0268
vn -0.1069 0.9885 -0.1069
vn -0.1391 0.9899 0.0268
vn -0.1437 0.9896 0.0000
vn 0.7071 0.0000 0.7071
vn 0.7001 0.1400 0.7001
vn -0.0268 0.9899 0.1391
vn -0.1069 0.9885 0.1069
vn 0.0268 0.9899 -0.1391
vn 0.2032 0.0000 -0.9791
vn 0.2032 0.1276 -0.9708
vn 0.9922 0.1249 -0.0000
vn 1.0000 -0.0000 -0.0000
vn -0.7001 0.1400 0.7001
vn -0.7071 0.0000 0.7071
vn 0.9708 0.1276 0.2032
vn 0.9791 -0.0000 0.2032
vn -0.2032 0.0000 -0.9791
vn -0.2032 0.1276 -0.9708
vn 0.0000 0.1249 -0.9922
vn 0.0000 0.0000 -1.0000
vn -0.9708 0.1276 0.2032
vn -0.9791 -0.0000 0.2032
vn -0.9922 0.1249 -0.0000
vn -1.0000 0.0000 -0.0000
vn 0.0000 0.4808 -0.8768
vn 0.1787 0.4879 -0.8544
vn -0.0000 0.8514 -0.5246
vn 0.1029 0.8553 -0.5079
vn -0.5079 0.8553 0.1029
vn -0.3647 0.8567 0.3647
vn -0.8544 0.4879 0.1787
vn -0.6104 0.5048 0.6104
vn -0.1787 0.4879 0.8544
vn -0.1029 0.8553 0.5079
vn -0.8768 0.4808 -0.0000
vn -0.5246 0.8514 0.0000
vn -0.8544 0.4879 -0.1787
vn -0.5079 0.8553 -0.1029
vn 0.6104 0.5048 -0.6104
vn 0.3647 0.8567 -0.3647
vn -0.1787 0.4879 -0.8544
vn -0.1029 0.8553 -0.5079
vn -0.3647 0.8567 -0.3647
vn -0.6104 0.5048 -0.6104
vn 0.8544 0.4879 0.1787
vn 0.6104 0.5048 0.6104
vn 0.5079 0.8553 0.1029
vn 0.3647 0.8567 0.3647
vn 0.8544 0.4879 -0.1787
vn 0.8768 0.4808 -0.0000
vn 0.5079 0.8553 -0.1029
vn 0.5246 0.8514 0.0000
vn 0.0000 0.4808 0.8768
vn 0.0000 0.8514 0.5246
vn 0.1029 0.8553 0.5079
vn 0.1787 0.4879 0.8544
vn 0.0000 -1.0000 0.0000
vn -0.0000 -0.9996 0.0277
vn -0.0058 -0.9996 0.0264
vn -0.0168 -0.9997 0.0168
vn 0.0058 -0.9996 0.0264
vn 0.0168 -0.9997 0.0168
vn -0.0058 -0.9996 -0.0264
vn -0.0168 -0.9997 -0.0168
vn -0.0264 -0.9996 0.0058
vn -0.0277 -0.9996 -0.0000
vn -0.0264 -0.9996 -0.0058
vn -0.0000 -0.9996 -0.0277
vn 0.0058 -0.9996 -0.0264
vn 0.0168 -0.9997 -0.0168
vn 0.0264 -0.9996 -0.0058
vn 0.0277 -0.9996 -0.0000
vn 0.0264 -0.9996 0.0058
vn -0.0000 0.7071 0.7071
vn -0.1361 0.7005 0.7005
vn -0.1361 -0.0000 0.9907
vn -0.1361 -0.9907 0.0000
vn -0.1361 -0.7005 -0.7005
vn 0.0000 -0.7071 -0.7071
vn -0.1361 0.0000 -0.9907
vn -0.1361 0.7005 -0.7005
vn -0.0000 0.7071 -0.7071
vn -0.1361 0.9907 0.0000
vn -0.1361 -0.7005 0.7005
vn 0.0000 -0.7071 0.7071
vn -0.4984 -0.0000 0.8670
vn -0.4984 -0.6130 0.6130
vn -0.8712 -0.0000 0.4910
vn -0.8712 -0.3472 0.3472
vn -0.8712 -0.4910 0.0000
vn -0.4984 -0.8670 0.0000
vn -0.8712 -0.3472 -0.3472
vn -0.4984 -0.6130 -0.6130
vn -0.8712 -0.0000 -0.4910
vn -0.4984 0.0000 -0.8670
vn -0.8712 0.3472 -0.3472
vn -0.4984 0.6130 -0.6130
vn -0.8712 0.4910 0.0000
vn -0.4984 0.8670 0.0000
vn -0.8712 0.3472 0.3472
vn -0.4984 0.6130 0.6130
usemtl None.010
s 1
f 12/1/1 66/2/2 46/3/3 1/4/4
f 4/5/5 27/6/6 54/7/7 15/8/8
f 11/9/9 71/10/10 66/2/2 12/1/1
f 39/11/11 17/12/12 34/13/13
f 79/14/14 17/12/12 75/15/15
f 70/16/16 17/12/12 67/17/17
f 16/18/18 23/19/19 18/20/20 13/21/21
f 50/22/22 17/12/12 39/11/11
f 26/23/23 17/12/12 55/24/24
f 22/25/25 17/12/12 19/26/26
f 70/16/16 34/13/13 17/12/12
f 62/27/27 17/12/12 58/28/28
f 8/29/29 35/30/30 71/10/10 11/9/9
f 67/17/17 17/12/12 47/31/31
f 47/31/31 17/12/12 43/32/32
f 30/33/33 17/12/12 26/23/23
f 3/34/34 31/35/35 27/6/6 4/5/5
f 62/27/27 43/32/32 17/12/12
f 15/8/8 54/7/7 51/36/36 14/37/37
f 1/4/4 46/3/3 42/38/38 2/39/39
f 30/33/33 75/15/15 17/12/12
f 14/37/37 51/36/36 38/40/40 7/41/41
f 7/41/41 38/40/40 35/30/30 8/29/29
f 9/42/42 78/43/43 74/44/44 10/45/45
f 55/24/24 17/12/12 50/22/22
f 2/39/39 42/38/38 63/46/46 5/47/47
f 5/47/47 63/46/46 59/48/48 6/49/49
f 6/50/49 59/51/48 23/19/19 16/18/18
f 58/28/28 17/12/12 22/25/25
f 13/21/21 18/20/20 78/43/43 9/42/42
f 10/45/45 74/44/44 31/35/35 3/34/34
f 31/52/35 74/53/44 76/54/50 33/55/51
f 33/55/51 76/54/50 77/56/52 32/57/53
f 32/57/53 77/56/52 75/15/15 30/33/33
f 43/32/32 62/27/27 64/58/54 45/59/55
f 45/59/55 64/58/54 65/60/56 44/61/57
f 44/61/57 65/60/56 63/62/46 42/63/38
f 42/63/38 46/64/3 48/65/58 44/61/57
f 44/61/57 48/65/58 49/66/59 45/59/55
f 45/59/55 49/66/59 47/31/31 43/32/32
f 59/67/48 63/62/46 65/60/56 61/68/60
f 61/68/60 65/60/56 64/58/54 60/69/61
f 60/69/61 64/58/54 62/27/27 58/28/28
f 23/70/19 59/67/48 61/68/60 25/71/62
f 25/71/62 61/68/60 60/69/61 24/72/63
f 24/72/63 60/69/61 58/28/28 22/25/25
f 27/73/6 31/52/35 33/55/51 29/74/64
f 29/74/64 33/55/51 32/57/53 28/75/65
f 28/75/65 32/57/53 30/33/33 26/23/23
f 74/53/44 78/76/43 80/77/66 76/54/50
f 76/54/50 80/77/66 81/78/67 77/56/52
f 77/56/52 81/78/67 79/14/14 75/15/15
f 19/26/26 79/14/14 81/78/67 21/79/68
f 21/79/68 81/78/67 80/77/66 20/80/69
f 20/80/69 80/77/66 78/76/43 18/81/20
f 35/82/30 38/83/40 40/84/70 37/85/71
f 37/85/71 40/84/70 41/86/72 36/87/73
f 36/87/73 41/86/72 39/11/11 34/13/13
f 51/88/36 54/89/7 56/90/74 53/91/75
f 53/91/75 56/90/74 57/92/76 52/93/77
f 52/93/77 57/92/76 55/24/24 50/22/22
f 26/23/23 55/24/24 57/92/76 28/75/65
f 28/75/65 57/92/76 56/90/74 29/74/64
f 29/74/64 56/90/74 54/89/7 27/73/6
f 46/64/3 66/94/2 68/95/78 48/65/58
f 48/65/58 68/95/78 69/96/79 49/66/59
f 49/66/59 69/96/79 67/17/17 47/31/31
f 34/13/13 70/16/16 72/97/80 36/87/73
f 36/87/73 72/97/80 73/98/81 37/85/71
f 37/85/71 73/98/81 71/99/10 35/82/30
f 18/81/20 23/70/19 25/71/62 20/80/69
f 20/80/69 25/71/62 24/72/63 21/79/68
f 21/79/68 24/72/63 22/25/25 19/26/26
f 38/83/40 51/88/36 53/91/75 40/84/70
f 40/84/70 53/91/75 52/93/77 41/86/72
f 41/86/72 52/93/77 50/22/22 39/11/11
f 66/94/2 71/99/10 73/98/81 68/95/78
f 68/95/78 73/98/81 72/97/80 69/96/79
f 69/96/79 72/97/80 70/16/16 67/17/17
f 79/14/14 19/26/26 17/12/12
f 2/100/82 5/101/82 86/102/82 83/103/82
f 9/104/82 10/105/82 91/106/82 90/107/82
f 10/105/82 3/108/82 84/109/82 91/106/82
f 1/110/82 2/100/82 83/103/82 82/111/82
f 4/112/82 15/113/82 96/114/82 85/115/82
f 5/101/82 6/116/82 87/117/82 86/102/82
f 13/118/82 9/104/82 90/107/82 94/119/82
f 16/120/82 13/118/82 94/119/82 97/121/82
f 8/122/82 11/123/82 92/124/82 89/125/82
f 11/123/82 12/126/82 93/127/82 92/124/82
f 15/113/82 14/128/82 95/129/82 96/114/82
f 3/108/82 4/112/82 85/115/82 84/109/82
f 12/126/82 1/110/82 82/111/82 93/127/82
f 14/128/82 7/130/82 88/131/82 95/129/82
f 7/130/82 8/122/82 89/125/82 88/131/82
f 6/116/82 16/120/82 97/121/82 87/117/82
f 97/132/41 94/133/29 110/134/29 113/135/41
f 89/136/21 92/137/42 108/138/42 105/139/21
f 92/137/42 93/140/45 109/141/45 108/138/42
f 96/142/47 95/143/49 111/144/49 112/145/47
f 84/146/4 85/147/39 101/148/39 100/149/4
f 93/140/45 82/150/34 98/151/34 109/141/45
f 95/143/49 88/152/18 104/153/18 111/144/49
f 88/152/18 89/136/21 105/139/21 104/153/18
f 87/154/37 97/132/41 113/135/41 103/155/37
f 83/156/5 86/157/8 102/158/8 99/159/5
f 90/160/9 91/161/1 107/162/1 106/163/9
f 91/161/1 84/146/4 100/149/4 107/162/1
f 82/150/34 83/156/5 99/159/5 98/151/34
f 85/147/39 96/142/47 112/145/47 101/148/39
f 86/157/8 87/164/37 103/165/37 102/158/8
f 94/133/29 90/160/9 106/163/9 110/134/29
f 109/166/83 98/167/84 114/168/82
f 99/169/85 114/168/82 98/167/84
f 109/166/83 114/168/82 108/170/86
f 108/170/86 114/168/82 105/171/87
f 106/172/88 114/168/82 110/173/89
f 102/174/90 114/168/82 99/169/85
f 103/175/91 114/168/82 102/174/90
f 113/176/92 114/168/82 103/175/91
f 110/173/89 114/168/82 113/176/92
f 106/172/88 107/177/93 114/168/82
f 107/177/93 100/178/94 114/168/82
f 101/179/95 114/168/82 100/178/94
f 112/180/96 114/168/82 101/179/95
f 112/180/96 111/181/97 114/168/82
f 111/181/97 104/182/98 114/168/82
f 105/171/87 114/168/82 104/182/98
f 122/183/99 144/184/100 123/185/101 115/186/1
f 117/187/82 129/188/102 132/189/103 118/190/104
f 118/190/104 132/189/103 135/191/105 119/192/45
f 119/192/45 135/191/105 138/193/106 120/194/107
f 120/194/107 138/193/106 141/195/108 121/196/12
f 121/196/12 141/195/108 144/184/100 122/183/99
f 115/186/1 123/185/101 126/197/109 116/198/110
f 116/198/110 126/197/109 129/199/102 117/200/82
f 126/201/109 123/202/101 125/203/111 128/204/112
f 128/204/112 125/203/111 124/205/113 127/206/114
f 147/207/49 130/208/115 127/206/114
f 129/209/102 126/201/109 128/204/112 131/210/116
f 131/210/116 128/204/112 127/206/114 130/208/115
f 130/208/115 147/207/49 133/211/117
f 132/212/103 129/209/102 131/210/116 134/213/118
f 134/213/118 131/210/116 130/208/115 133/211/117
f 133/211/117 147/207/49 136/214/119
f 135/215/105 132/212/103 134/213/118 137/216/120
f 137/216/120 134/213/118 133/211/117 136/214/119
f 136/214/119 147/207/49 139/217/121
f 138/218/106 135/215/105 137/216/120 140/219/122
f 140/219/122 137/216/120 136/214/119 139/217/121
f 139/217/121 147/207/49 142/220/123
f 141/221/108 138/218/106 140/219/122 143/222/124
f 143/222/124 140/219/122 139/217/121 142/220/123
f 147/207/49 145/223/125 142/220/123
f 144/224/100 141/221/108 143/222/124 146/225/126
f 146/225/126 143/222/124 142/220/123 145/223/125
f 147/207/49 124/205/113 145/223/125
f 123/202/101 144/224/100 146/225/126 125/203/111
f 125/203/111 146/225/126 145/223/125 124/205/113
f 124/205/113 147/207/49 127/206/114
