# Blender v3.0.0 OBJ File: 'Booked.blend'
# www.blender.org
mtllib Booked.mtl
o Cube.001
v -0.925327 0.981383 0.601595
v -0.925327 0.981383 -0.601595
v -0.925327 1.068358 -0.601595
v 0.925327 0.981383 0.601595
v 0.925327 0.981383 -0.601595
v 0.925327 1.068358 -0.601595
v -0.925327 1.222085 0.601595
v -0.925327 1.135110 -0.601595
v -0.925327 1.222085 -0.601595
v 0.925327 1.222085 0.601595
v 0.925327 1.135110 -0.601595
v 0.925327 1.222085 -0.601595
v -0.925327 1.135110 0.477926
v 0.925327 1.135110 0.477926
v -0.925327 1.068358 0.477926
v 0.925327 1.068358 0.477926
v -0.879776 1.064764 0.579228
v -0.879776 1.140472 0.579228
v -0.879776 1.064764 -0.579228
v -0.879776 1.140472 -0.579228
v 0.879776 1.064764 0.579228
v 0.879776 1.140472 0.579228
v 0.879776 1.064764 -0.579228
v 0.879776 1.140472 -0.579228
v -1.008701 1.220162 -0.447960
v 0.000097 1.220162 -1.103697
v 0.000097 1.307137 -1.103697
v -0.000097 1.220162 1.103697
v 1.008701 1.220162 0.447960
v 1.008701 1.307137 0.447960
v -1.008701 1.460865 -0.447960
v 0.000097 1.373889 -1.103697
v 0.000097 1.460865 -1.103697
v -0.000097 1.460865 1.103697
v 1.008701 1.373889 0.447960
v 1.008701 1.460865 0.447960
v -0.905012 1.373889 -0.515359
v 0.103591 1.373889 1.036297
v -0.905012 1.307137 -0.515359
v 0.103591 1.307137 1.036297
v -0.965123 1.303543 -0.421958
v -0.965123 1.379251 -0.421958
v 0.006170 1.303543 -1.053316
v 0.006170 1.379251 -1.053316
v -0.006170 1.303543 1.053316
v -0.006170 1.379251 1.053316
v 0.965123 1.303543 0.421958
v 0.965123 1.379251 0.421958
v 1.092743 1.459568 -0.155106
v 0.585188 1.459568 0.935789
v 0.585188 1.546543 0.935789
v -0.585188 1.459568 -0.935789
v -1.092743 1.459568 0.155106
v -1.092743 1.546543 0.155106
v 1.092743 1.700270 -0.155106
v 0.585188 1.613295 0.935789
v 0.585188 1.700270 0.935789
v -0.585188 1.700270 -0.935789
v -1.092743 1.613295 0.155106
v -1.092743 1.700270 0.155106
v 1.040575 1.613295 -0.042979
v -0.637357 1.613295 -0.823662
v 1.040575 1.546543 -0.042979
v -0.637357 1.546543 -0.823662
v 1.042009 1.542949 -0.154042
v 1.042009 1.618657 -0.154042
v 0.553324 1.542949 0.896295
v 0.553324 1.618657 0.896295
v -0.553324 1.542949 -0.896295
v -0.553324 1.618657 -0.896295
v -1.042009 1.542949 0.154042
v -1.042009 1.618657 0.154042
v -0.434160 1.691662 -1.014717
v 0.751238 1.691662 -0.808571
v 0.751238 1.778637 -0.808571
v -0.751238 1.691662 0.808571
v 0.434160 1.691662 1.014717
v 0.434160 1.778637 1.014717
v -0.434160 1.932364 -1.014717
v 0.751238 1.845389 -0.808571
v 0.751238 1.932364 -0.808571
v -0.751238 1.932364 0.808571
v 0.434160 1.845389 1.014717
v 0.434160 1.932364 1.014717
v -0.312319 1.845389 -0.993529
v -0.629398 1.845389 0.829760
v -0.312319 1.778637 -0.993529
v -0.629398 1.778637 0.829760
v -0.419928 1.775043 -0.966008
v -0.419928 1.850751 -0.966008
v 0.721398 1.775043 -0.767526
v 0.721398 1.850751 -0.767526
v -0.721398 1.775043 0.767526
v -0.721398 1.850751 0.767526
v 0.419928 1.775043 0.966008
v 0.419928 1.850751 0.966008
vt 0.793327 0.170676
vt 0.805048 0.170676
vt 0.805048 0.420082
vt 0.793327 0.420082
vt 0.805048 0.565566
vt 0.814044 0.565566
vt 0.825766 0.582233
vt 0.793327 0.582233
vt 0.814044 0.170676
vt 0.825766 0.170676
vt 0.825766 0.420082
vt 0.814044 0.420082
vt 0.010062 0.010062
vt 0.259469 0.010062
vt 0.259469 0.172212
vt 0.010062 0.172212
vt 0.269828 0.842276
vt 0.269828 0.833280
vt 0.519235 0.833280
vt 0.519235 0.842276
vt 0.519235 0.987760
vt 0.269828 0.987760
vt 0.010062 0.204651
vt 0.259469 0.204651
vt 0.269828 0.687796
vt 0.519235 0.687796
vt 0.793327 0.008527
vt 0.825766 0.008527
vt 0.814044 0.025194
vt 0.805048 0.025194
vt 0.259469 0.366801
vt 0.010062 0.366801
vt 0.964967 0.498881
vt 0.973876 0.498881
vt 0.973876 0.635196
vt 0.964967 0.635196
vt 0.973876 0.842240
vt 0.964967 0.842240
vt 0.973876 0.978562
vt 0.964967 0.978562
vt 0.837433 0.170676
vt 0.849154 0.170676
vt 0.849154 0.420082
vt 0.837433 0.420082
vt 0.849154 0.565566
vt 0.858150 0.565566
vt 0.869872 0.582233
vt 0.837433 0.582233
vt 0.858150 0.170676
vt 0.869871 0.170676
vt 0.869872 0.420082
vt 0.858150 0.420082
vt 0.531547 0.009972
vt 0.780954 0.009972
vt 0.780954 0.172123
vt 0.531547 0.172123
vt 0.271781 0.533233
vt 0.271781 0.524237
vt 0.521188 0.524237
vt 0.521188 0.533233
vt 0.521188 0.678716
vt 0.271781 0.678716
vt 0.531547 0.204561
vt 0.780954 0.204561
vt 0.271781 0.378753
vt 0.521188 0.378753
vt 0.837433 0.008527
vt 0.869871 0.008527
vt 0.858150 0.025194
vt 0.849154 0.025194
vt 0.780954 0.366711
vt 0.531547 0.366711
vt 0.984407 0.014323
vt 0.993315 0.014323
vt 0.993315 0.150637
vt 0.984407 0.150637
vt 0.993315 0.357682
vt 0.984406 0.357682
vt 0.993315 0.494004
vt 0.984406 0.494004
vt 0.879077 0.170676
vt 0.890799 0.170676
vt 0.890799 0.420082
vt 0.879077 0.420082
vt 0.890799 0.565566
vt 0.899795 0.565566
vt 0.911516 0.582233
vt 0.879077 0.582233
vt 0.899795 0.170676
vt 0.911516 0.170676
vt 0.911516 0.420082
vt 0.899795 0.420082
vt 0.010062 0.379113
vt 0.259469 0.379113
vt 0.259469 0.541263
vt 0.010062 0.541263
vt 0.535453 0.535635
vt 0.535453 0.526639
vt 0.784860 0.526639
vt 0.784860 0.535635
vt 0.784860 0.681119
vt 0.535453 0.681119
vt 0.010062 0.573702
vt 0.259469 0.573702
vt 0.535453 0.381156
vt 0.784860 0.381156
vt 0.879077 0.008527
vt 0.911516 0.008527
vt 0.899795 0.025194
vt 0.890799 0.025194
vt 0.259469 0.735852
vt 0.010062 0.735852
vt 0.985045 0.498881
vt 0.993954 0.498881
vt 0.993954 0.635196
vt 0.985045 0.635196
vt 0.993954 0.842240
vt 0.985045 0.842240
vt 0.993954 0.978562
vt 0.985045 0.978562
vt 0.921953 0.170676
vt 0.933674 0.170676
vt 0.933674 0.420082
vt 0.921953 0.420082
vt 0.933674 0.565566
vt 0.942670 0.565566
vt 0.954392 0.582233
vt 0.921953 0.582233
vt 0.942670 0.170676
vt 0.954391 0.170676
vt 0.954392 0.420082
vt 0.942670 0.420082
vt 0.273734 0.010062
vt 0.523141 0.010062
vt 0.523141 0.172212
vt 0.273734 0.172212
vt 0.531547 0.847911
vt 0.531547 0.838915
vt 0.780953 0.838915
vt 0.780953 0.847911
vt 0.780953 0.993394
vt 0.531547 0.993394
vt 0.273734 0.204651
vt 0.523141 0.204651
vt 0.531547 0.693431
vt 0.780953 0.693431
vt 0.921953 0.008527
vt 0.954391 0.008527
vt 0.942670 0.025194
vt 0.933674 0.025194
vt 0.523141 0.366801
vt 0.273734 0.366801
vt 0.963294 0.014323
vt 0.972202 0.014323
vt 0.972202 0.150637
vt 0.963293 0.150637
vt 0.972202 0.357682
vt 0.963293 0.357682
vt 0.972202 0.494004
vt 0.963293 0.494004
vn 0.0000 0.0000 -1.0000
vn 1.0000 0.0000 0.0000
vn 0.0000 1.0000 0.0000
vn 0.0000 -1.0000 0.0000
vn 0.0000 0.0000 1.0000
vn -1.0000 0.0000 0.0000
vn 0.8384 0.0000 -0.5450
vn 0.5450 0.0000 0.8384
vn -0.8384 0.0000 0.5450
vn -0.5450 0.0000 -0.8384
vn -0.4218 0.0000 0.9067
vn -0.9067 0.0000 -0.4218
vn 0.4218 0.0000 -0.9067
vn 0.9067 0.0000 0.4218
vn 0.9852 0.0000 0.1713
vn -0.1713 0.0000 0.9852
vn -0.9852 0.0000 -0.1713
vn 0.1713 0.0000 -0.9852
usemtl None
s off
f 2/1/1 3/2/1 6/3/1 5/4/1
f 16/5/2 14/6/2 10/7/2 4/8/2
f 8/9/1 9/10/1 12/11/1 11/12/1
f 12/13/3 9/14/3 7/15/3 10/16/3
f 14/17/1 16/18/1 15/19/1 13/20/1
f 8/21/4 11/22/4 14/17/4 13/20/4
f 4/23/5 10/16/5 7/15/5 1/24/5
f 6/25/3 3/26/3 15/19/3 16/18/3
f 1/27/6 7/28/6 13/29/6 15/30/6
f 2/31/4 5/32/4 4/23/4 1/24/4
f 4/8/2 5/4/2 6/3/2 16/5/2
f 10/7/2 14/6/2 11/12/2 12/11/2
f 15/30/6 3/2/6 2/1/6 1/27/6
f 13/29/6 7/28/6 9/10/6 8/9/6
f 17/33/6 18/34/6 20/35/6 19/36/6
f 19/36/1 20/35/1 24/37/1 23/38/1
f 23/38/2 24/37/2 22/39/2 21/40/2
f 26/41/7 27/42/7 30/43/7 29/44/7
f 40/45/8 38/46/8 34/47/8 28/48/8
f 32/49/7 33/50/7 36/51/7 35/52/7
f 36/53/3 33/54/3 31/55/3 34/56/3
f 38/57/7 40/58/7 39/59/7 37/60/7
f 32/61/4 35/62/4 38/57/4 37/60/4
f 28/63/9 34/56/9 31/55/9 25/64/9
f 30/65/3 27/66/3 39/59/3 40/58/3
f 25/67/10 31/68/10 37/69/10 39/70/10
f 26/71/4 29/72/4 28/63/4 25/64/4
f 28/48/8 29/44/8 30/43/8 40/45/8
f 34/47/8 38/46/8 35/52/8 36/51/8
f 39/70/10 27/42/10 26/41/10 25/67/10
f 37/69/10 31/68/10 33/50/10 32/49/10
f 41/73/10 42/74/10 44/75/10 43/76/10
f 43/76/7 44/75/7 48/77/7 47/78/7
f 47/78/8 48/77/8 46/79/8 45/80/8
f 50/81/11 51/82/11 54/83/11 53/84/11
f 64/85/12 62/86/12 58/87/12 52/88/12
f 56/89/11 57/90/11 60/91/11 59/92/11
f 60/93/3 57/94/3 55/95/3 58/96/3
f 62/97/11 64/98/11 63/99/11 61/100/11
f 56/101/4 59/102/4 62/97/4 61/100/4
f 52/103/13 58/96/13 55/95/13 49/104/13
f 54/105/3 51/106/3 63/99/3 64/98/3
f 49/107/14 55/108/14 61/109/14 63/110/14
f 50/111/4 53/112/4 52/103/4 49/104/4
f 52/88/12 53/84/12 54/83/12 64/85/12
f 58/87/12 62/86/12 59/92/12 60/91/12
f 63/110/14 51/82/14 50/81/14 49/107/14
f 61/109/14 55/108/14 57/90/14 56/89/14
f 65/113/14 66/114/14 68/115/14 67/116/14
f 67/116/11 68/115/11 72/117/11 71/118/11
f 71/118/12 72/117/12 70/119/12 69/120/12
f 74/121/15 75/122/15 78/123/15 77/124/15
f 88/125/16 86/126/16 82/127/16 76/128/16
f 80/129/15 81/130/15 84/131/15 83/132/15
f 84/133/3 81/134/3 79/135/3 82/136/3
f 86/137/15 88/138/15 87/139/15 85/140/15
f 80/141/4 83/142/4 86/137/4 85/140/4
f 76/143/17 82/136/17 79/135/17 73/144/17
f 78/145/3 75/146/3 87/139/3 88/138/3
f 73/147/18 79/148/18 85/149/18 87/150/18
f 74/151/4 77/152/4 76/143/4 73/144/4
f 76/128/16 77/124/16 78/123/16 88/125/16
f 82/127/16 86/126/16 83/132/16 84/131/16
f 87/150/18 75/122/18 74/121/18 73/147/18
f 85/149/18 79/148/18 81/130/18 80/129/18
f 89/153/18 90/154/18 92/155/18 91/156/18
f 91/156/15 92/155/15 96/157/15 95/158/15
f 95/158/16 96/157/16 94/159/16 93/160/16
