# Blender v2.91.2 OBJ File: ''
# www.blender.org
mtllib hat_277.mtl
o Cube.024_Cube.076
v 0.560679 1.083238 0.560679
v 0.560679 1.303869 0.560679
v -0.560679 1.303869 0.560679
v -0.560679 1.083238 0.560679
v 0.560679 1.083238 -0.560679
v 0.560679 1.303869 -0.560679
v -0.560679 1.083238 -0.560679
v -0.560679 1.303869 -0.560679
v -0.451907 1.303869 0.451907
v -0.451907 2.095824 0.451907
v -0.451907 2.095824 -0.451907
v -0.451907 1.303869 -0.451907
v 0.451907 2.095824 -0.451907
v 0.451907 1.303869 -0.451907
v 0.451907 2.095824 0.451907
v 0.451907 1.303869 0.451907
v -0.253759 -1.135213 0.987745
v -0.253759 -0.132947 0.987746
v -0.022901 -0.132947 0.987746
v -0.022901 -1.135213 0.987745
v -0.022901 -0.132947 1.094704
v -0.022901 -1.135213 1.094704
v -0.253759 -0.132947 1.094704
v -0.253759 -1.135213 1.094704
v -0.253759 -1.135213 -0.987746
v -0.022901 -1.135213 -0.987746
v -0.022901 -0.132946 -0.987746
v -0.253759 -0.132946 -0.987746
v -0.022901 -1.135213 -1.094704
v -0.022901 -0.132946 -1.094704
v -0.253759 -1.135213 -1.094704
v -0.253759 -0.132946 -1.094704
v 1.115820 0.478367 -1.115820
v 1.115820 1.083238 -1.115820
v 1.115820 1.083237 1.115820
v 1.115820 0.478367 1.115820
v -1.115820 1.083238 -1.115820
v -1.115820 1.083237 1.115820
v 0.000000 0.478367 -1.115820
v 0.000000 0.478367 1.115820
v -1.115820 -0.145853 -1.115820
v 0.000000 -0.145853 -1.115820
v 0.000000 -0.145854 -0.915820
v -0.915820 -0.145854 -0.915820
v -1.115820 -0.145854 1.115820
v 0.000000 -0.145854 1.115820
v -0.915820 -0.145854 0.915820
v 0.000000 -0.145854 0.915820
v 0.000000 0.478367 0.915820
v 0.915820 0.478367 0.915820
v -0.915820 0.990158 -0.915820
v -0.915820 0.990158 0.915820
v 0.915820 0.478367 -0.915820
v 0.915820 0.990158 0.915820
v 0.915820 0.990158 -0.915820
v 0.000000 0.478367 -0.915820
v 1.326070 0.371185 0.121024
v 1.326070 0.371185 0.823634
v 1.326070 0.300924 0.753373
v 1.326070 0.300924 0.191285
v 1.000000 -0.331425 0.121024
v 1.163035 -0.112570 0.121024
v 1.326070 -0.331425 0.121024
v 1.000000 0.371185 0.823634
v 1.163035 0.152330 0.823634
v 1.326070 -0.331425 0.823634
v 1.326070 -0.261164 0.191285
v 1.326070 -0.261164 0.753373
v 1.000000 0.300924 0.753373
v 1.000000 0.300924 0.191285
v 1.000000 -0.261164 0.191285
v 1.000000 -0.261164 0.753373
v 1.000000 0.371185 0.121024
v 1.163035 0.152330 0.121024
v 1.000000 0.152330 0.121024
v 1.000000 0.152330 -0.121024
v 1.163035 0.152330 -0.121024
v 1.000000 0.152330 0.823634
v 1.000000 -0.112570 0.823634
v 1.000000 -0.112570 1.000000
v 1.000000 0.152330 1.000000
v -0.064279 -0.112570 1.000000
v -0.064279 0.152330 1.000000
v 1.163035 -0.112570 0.823634
v 1.000000 -0.112570 0.121024
v 1.000000 -0.112570 -0.121024
v 1.163035 -0.112570 -0.121024
v 1.000000 -0.331425 0.823634
v 1.163035 0.152330 1.100000
v 1.163035 -0.112570 1.100000
v -0.064279 -0.112570 1.100000
v 1.326070 0.371185 -0.121024
v 1.326070 0.300924 -0.191285
v 1.326070 0.300924 -0.753373
v 1.326070 0.371185 -0.823634
v 1.000000 -0.331425 -0.121024
v 1.326070 -0.331425 -0.121024
v 1.000000 0.371185 -0.823634
v 1.163035 0.152330 -0.823634
v 1.326070 -0.331425 -0.823634
v 1.326070 -0.261164 -0.753373
v 1.326070 -0.261164 -0.191285
v 1.000000 0.300924 -0.191285
v 1.000000 0.300924 -0.753373
v 1.000000 -0.261164 -0.753373
v 1.000000 -0.261164 -0.191285
v 1.000000 0.371185 -0.121024
v 1.000000 0.152330 -0.823634
v 1.000000 0.152330 -1.000000
v 1.000000 -0.112569 -1.000000
v 1.000000 -0.112569 -0.823634
v -0.064279 0.152330 -1.000000
v -0.064279 -0.112569 -1.000000
v 1.163035 -0.112569 -0.823634
v 1.000000 -0.331425 -0.823634
v 1.163035 0.152331 -1.100000
v 1.163035 -0.112569 -1.100000
v -0.064279 -0.112569 -1.100000
v 1.163035 -0.261164 -0.191285
v 1.163035 -0.261164 -0.753373
v 1.163035 0.300924 -0.753373
v 1.163035 0.300924 -0.191285
v 1.163035 0.300924 0.191285
v 1.163035 0.300924 0.753373
v 1.163035 -0.261164 0.753373
v 1.163035 -0.261164 0.191285
v -0.064279 0.152331 -1.100000
v -0.064279 0.152330 1.100000
vt 0.405300 0.980096
vt 0.405300 0.955109
vt 0.532296 0.955109
vt 0.532296 0.980096
vt 0.380314 0.828113
vt 0.405300 0.828113
vt 0.380314 0.955109
vt 0.532296 0.803126
vt 0.532296 0.828113
vt 0.405300 0.803126
vt 0.557283 0.955109
vt 0.557283 0.828113
vt 0.309265 0.739611
vt 0.219575 0.739611
vt 0.219575 0.637252
vt 0.309265 0.637252
vt 0.219575 0.547562
vt 0.117216 0.637252
vt 0.117216 0.547562
vt 0.027525 0.637252
vt 0.117216 0.739611
vt 0.027526 0.739611
vt 0.117216 0.829301
vt 0.219575 0.829301
vt 0.030106 0.968442
vt 0.030106 0.854934
vt 0.056252 0.854934
vt 0.056252 0.968442
vt 0.068365 0.854934
vt 0.068365 0.968442
vt 0.094510 0.854934
vt 0.094510 0.968442
vt 0.106623 0.854934
vt 0.106623 0.968442
vt 0.068365 0.980556
vt 0.094510 0.980556
vt 0.218564 0.968284
vt 0.192419 0.968285
vt 0.192419 0.854776
vt 0.218564 0.854776
vt 0.180306 0.968285
vt 0.180306 0.854776
vt 0.154161 0.968284
vt 0.154161 0.854776
vt 0.142048 0.968284
vt 0.142048 0.854776
vt 0.180306 0.980398
vt 0.154161 0.980398
vt 0.475808 0.521021
vt 0.407305 0.521021
vt 0.407305 0.268283
vt 0.475808 0.268283
vt 0.154567 0.521021
vt 0.154567 0.268283
vt 0.407305 0.773758
vt 0.475808 0.647390
vt 0.407305 0.015545
vt 0.475808 0.141914
vt 0.647685 0.455638
vt 0.774054 0.455638
vt 0.774054 0.478288
vt 0.670336 0.478288
vt 0.546502 0.647390
vt 0.546502 0.773759
vt 0.015370 0.521021
vt 0.015370 0.268283
vt 0.774054 0.708376
vt 0.647685 0.708376
vt 0.670336 0.685725
vt 0.774054 0.685725
vt 0.971117 0.708376
vt 0.844748 0.708376
vt 0.844748 0.685725
vt 0.948467 0.685725
vt 0.546502 0.015545
vt 0.546502 0.141914
vt 0.848459 0.419079
vt 0.641022 0.419079
vt 0.641022 0.290424
vt 0.848459 0.290424
vt 0.641022 0.025025
vt 0.848459 0.025025
vt 0.848459 0.082987
vt 0.641022 0.082987
vt 0.844748 0.455638
vt 0.844748 0.478288
vt 0.971117 0.455638
vt 0.948467 0.478288
vt 0.906421 0.186705
vt 0.583061 0.186705
vt 0.512367 0.290424
vt 0.512367 0.186705
vt 0.977115 0.290424
vt 0.977115 0.186705
vt 0.906421 0.082987
vt 0.583061 0.082987
vt 0.716052 0.853387
vt 0.636480 0.853387
vt 0.644437 0.845429
vt 0.708094 0.845429
vt 0.752980 0.773815
vt 0.734516 0.798600
vt 0.716052 0.773815
vt 0.599551 0.853387
vt 0.618016 0.828601
vt 0.636480 0.773815
vt 0.708094 0.781772
vt 0.644437 0.781772
vt 0.118041 0.115783
vt 0.181698 0.115783
vt 0.181698 0.152712
vt 0.118041 0.152712
vt 0.245356 0.115783
vt 0.309013 0.115783
vt 0.309013 0.152712
vt 0.245356 0.152712
vt 0.372671 0.152712
vt 0.372671 0.115783
vt 0.716052 0.890315
vt 0.636480 0.890315
vt 0.734516 0.828601
vt 0.752980 0.853387
vt 0.752980 0.828601
vt 0.071069 0.178109
vt 0.043656 0.178109
vt 0.043656 0.159644
vt 0.071069 0.159644
vt 0.359702 0.042187
vt 0.359702 0.072188
vt 0.339729 0.072188
vt 0.339729 0.042187
vt 0.219197 0.072188
vt 0.219197 0.042187
vt 0.618016 0.798600
vt 0.043656 0.111180
vt 0.071069 0.111180
vt 0.071069 0.129644
vt 0.043656 0.129644
vt 0.599551 0.828601
vt 0.716052 0.736887
vt 0.636480 0.736887
vt 0.534826 0.503434
vt 0.546151 0.521898
vt 0.514852 0.521898
vt 0.514852 0.503434
vt 0.607450 0.521898
vt 0.576151 0.521898
vt 0.587477 0.503434
vt 0.607450 0.503434
vt 0.546151 0.553197
vt 0.576151 0.553197
vt 0.599552 0.773815
vt 0.599552 0.798600
vt 0.752980 0.798600
vt 0.708094 0.898272
vt 0.644437 0.898272
vt 0.576151 0.382902
vt 0.587477 0.382902
vt 0.716052 0.969887
vt 0.636480 0.969887
vt 0.644437 0.961930
vt 0.708094 0.961930
vt 0.716052 0.945101
vt 0.716052 0.915101
vt 0.636480 0.915101
vt 0.636480 0.945101
vt 0.852080 0.853691
vt 0.860037 0.845734
vt 0.923694 0.845734
vt 0.931651 0.853691
vt 0.815151 0.774119
vt 0.852080 0.774119
vt 0.833615 0.798905
vt 0.968580 0.853691
vt 0.950116 0.828905
vt 0.931651 0.774119
vt 0.923694 0.782076
vt 0.860037 0.782076
vt 0.372602 0.194297
vt 0.372602 0.231225
vt 0.308945 0.231225
vt 0.308945 0.194297
vt 0.245287 0.194297
vt 0.245287 0.231225
vt 0.181629 0.231225
vt 0.181629 0.194297
vt 0.117972 0.231225
vt 0.117972 0.194297
vt 0.931651 0.890619
vt 0.852080 0.890619
vt 0.833615 0.828905
vt 0.815151 0.853691
vt 0.815151 0.828905
vt 0.181893 0.071729
vt 0.161919 0.071729
vt 0.161919 0.041729
vt 0.181893 0.041729
vt 0.041387 0.071729
vt 0.041387 0.041729
vt 0.950116 0.798905
vt 0.968580 0.828905
vt 0.852080 0.737191
vt 0.931651 0.737191
vt 0.329758 0.904644
vt 0.349731 0.904644
vt 0.349731 0.923108
vt 0.318432 0.923108
vt 0.257133 0.923108
vt 0.257133 0.904644
vt 0.277107 0.904644
vt 0.288432 0.923108
vt 0.318432 0.954407
vt 0.288432 0.954407
vt 0.968580 0.774119
vt 0.968580 0.798905
vt 0.815151 0.798905
vt 0.923694 0.898576
vt 0.860037 0.898576
vt 0.277107 0.784112
vt 0.288432 0.784112
vt 0.852080 0.970191
vt 0.860037 0.962234
vt 0.923694 0.962234
vt 0.931651 0.970191
vt 0.852080 0.945405
vt 0.852080 0.915405
vt 0.931651 0.915405
vt 0.931651 0.945405
vt 0.779422 0.548784
vt 0.779422 0.612442
vt 0.715765 0.612442
vt 0.715765 0.548784
vt 0.843630 0.548854
vt 0.907287 0.548854
vt 0.907287 0.612511
vt 0.843630 0.612511
vt 0.071069 0.208109
vt 0.043656 0.208109
vt 0.318432 0.784112
vt 0.329758 0.784112
vt 0.546151 0.382902
vt 0.534826 0.382902
vn 0.0000 -0.0000 1.0000
vn 1.0000 -0.0000 0.0000
vn 0.0000 0.0000 -1.0000
vn -1.0000 0.0000 0.0000
vn 0.0000 1.0000 0.0000
vn 0.0000 -1.0000 0.0000
usemtl None
s 1
f 1/1/1 2/2/1 3/3/1 4/4/1
f 5/5/2 6/6/2 2/2/2 1/7/2
f 7/8/3 8/9/3 6/6/3 5/10/3
f 4/11/4 3/3/4 8/9/4 7/12/4
f 3/3/5 2/2/5 6/6/5 8/9/5
f 9/13/4 10/14/4 11/15/4 12/16/4
f 12/17/3 11/15/3 13/18/3 14/19/3
f 14/20/2 13/18/2 15/21/2 16/22/2
f 16/23/1 15/21/1 10/14/1 9/24/1
f 13/18/5 11/15/5 10/14/5 15/21/5
f 17/25/3 18/26/3 19/27/3 20/28/3
f 20/28/2 19/27/2 21/29/2 22/30/2
f 22/30/1 21/29/1 23/31/1 24/32/1
f 24/32/4 23/31/4 18/33/4 17/34/4
f 20/35/6 22/30/6 24/32/6 17/36/6
f 25/37/1 26/38/1 27/39/1 28/40/1
f 26/38/2 29/41/2 30/42/2 27/39/2
f 29/41/3 31/43/3 32/44/3 30/42/3
f 31/43/4 25/45/4 28/46/4 32/44/4
f 26/47/6 25/48/6 31/43/6 29/41/6
f 33/49/2 34/50/2 35/51/2 36/52/2
f 35/51/5 34/50/5 37/53/5 38/54/5
f 37/55/3 34/50/3 33/49/3 39/56/3
f 38/57/1 40/58/1 36/52/1 35/51/1
f 41/59/6 42/60/6 43/61/6 44/62/6
f 39/56/3 42/63/3 41/64/3 37/55/3
f 37/53/4 41/65/4 45/66/4 38/54/4
f 46/67/6 45/68/6 47/69/6 48/70/6
f 36/71/6 40/72/6 49/73/6 50/74/6
f 40/58/1 38/57/1 45/75/1 46/76/1
f 47/77/2 44/78/2 51/79/2 52/80/2
f 53/81/4 50/82/4 54/83/4 55/84/4
f 42/60/2 39/85/2 56/86/2 43/61/2
f 39/85/6 33/87/6 53/88/6 56/86/6
f 40/72/2 46/67/2 48/70/2 49/73/2
f 45/68/6 41/59/6 44/62/6 47/69/6
f 33/87/6 36/71/6 50/74/6 53/88/6
f 52/80/3 54/83/3 49/89/3
f 54/83/6 52/80/6 51/79/6 55/84/6
f 51/79/1 56/90/1 55/84/1
f 44/91/1 43/92/1 56/90/1 51/79/1
f 47/93/3 52/80/3 49/89/3 48/94/3
f 49/89/3 54/83/3 50/95/3
f 55/84/1 56/90/1 53/96/1
f 57/97/2 58/98/2 59/99/2 60/100/2
f 61/101/3 62/102/3 63/103/3
f 64/104/1 65/105/1 58/98/1
f 66/106/2 63/103/2 67/107/2 68/108/2
f 60/109/6 59/110/6 69/111/6 70/112/6
f 68/113/5 67/114/5 71/115/5 72/116/5
f 72/116/3 69/111/3 59/110/3 68/113/3
f 68/108/2 59/99/2 58/98/2 66/106/2
f 70/117/1 71/115/1 67/114/1 60/118/1
f 60/100/2 67/107/2 63/103/2 57/97/2
f 57/97/5 73/119/5 64/120/5 58/98/5
f 62/102/3 74/121/3 57/97/3 63/103/3
f 73/122/3 74/121/3 75/123/3
f 57/97/3 74/121/3 73/122/3
f 76/124/5 75/125/5 74/126/5 77/127/5
f 78/128/4 79/129/4 80/130/4 81/131/4
f 81/131/3 80/130/3 82/132/3 83/133/3
f 65/105/1 84/134/1 66/106/1 58/98/1
f 85/135/6 86/136/6 87/137/6 62/138/6
f 62/138/2 87/137/2 77/127/2 74/126/2
f 64/104/1 78/139/1 65/105/1
f 61/140/6 63/103/6 66/106/6 88/141/6
f 81/142/5 89/143/5 65/144/5 78/145/5
f 84/146/6 90/147/6 80/148/6 79/149/6
f 65/150/2 89/143/2 90/147/2 84/151/2
f 88/152/1 66/106/1 84/134/1
f 84/134/1 79/153/1 88/152/1
f 62/102/3 61/101/3 85/154/3
f 64/120/4 73/119/4 70/155/4 69/156/4
f 80/148/6 90/147/6 91/157/6 82/158/6
f 61/159/4 88/160/4 72/161/4 71/162/4
f 85/163/4 71/162/4 70/155/4 75/164/4
f 73/119/4 75/164/4 70/155/4
f 85/163/4 61/159/4 71/162/4
f 78/165/4 69/156/4 72/161/4 79/166/4
f 78/165/4 64/120/4 69/156/4
f 79/166/4 72/161/4 88/160/4
f 92/167/2 93/168/2 94/169/2 95/170/2
f 96/171/1 97/172/1 87/173/1
f 98/174/3 95/170/3 99/175/3
f 100/176/2 101/177/2 102/178/2 97/172/2
f 93/179/6 103/180/6 104/181/6 94/182/6
f 101/183/5 105/184/5 106/185/5 102/186/5
f 105/184/1 101/183/1 94/182/1 104/181/1
f 101/177/2 100/176/2 95/170/2 94/169/2
f 103/187/3 93/188/3 102/186/3 106/185/3
f 93/168/2 92/167/2 97/172/2 102/178/2
f 92/167/5 95/170/5 98/189/5 107/190/5
f 87/173/1 97/172/1 92/167/1 77/191/1
f 107/192/1 76/193/1 77/191/1
f 92/167/1 107/192/1 77/191/1
f 108/194/4 109/195/4 110/196/4 111/197/4
f 109/195/1 112/198/1 113/199/1 110/196/1
f 99/175/3 95/170/3 100/176/3 114/200/3
f 98/174/3 99/175/3 108/201/3
f 96/202/6 115/203/6 100/176/6 97/172/6
f 109/204/5 108/205/5 99/206/5 116/207/5
f 114/208/6 111/209/6 110/210/6 117/211/6
f 99/212/2 114/213/2 117/211/2 116/207/2
f 115/214/3 114/200/3 100/176/3
f 114/200/3 115/214/3 111/215/3
f 87/173/1 86/216/1 96/171/1
f 98/189/4 104/217/4 103/218/4 107/190/4
f 110/210/6 113/219/6 118/220/6 117/211/6
f 96/221/4 106/222/4 105/223/4 115/224/4
f 86/225/4 76/226/4 103/218/4 106/222/4
f 107/190/4 103/218/4 76/226/4
f 86/225/4 106/222/4 96/221/4
f 108/227/4 111/228/4 105/223/4 104/217/4
f 108/227/4 104/217/4 98/189/4
f 111/228/4 115/224/4 105/223/4
f 119/229/2 120/230/2 121/231/2 122/232/2
f 123/233/2 124/234/2 125/235/2 126/236/2
f 75/125/4 76/124/4 86/237/4 85/238/4
f 127/239/5 112/240/5 109/204/5 116/207/5
f 118/220/3 127/239/3 116/207/3 117/211/3
f 128/241/1 91/157/1 90/147/1 89/143/1
f 83/242/5 128/241/5 89/143/5 81/142/5
