# Blender v2.79 (sub 0) OBJ File: 'hat_189.blend'
# www.blender.org
mtllib hat_189.mtl
o Cube.001_Cube.008
v 0.298934 1.000000 0.175542
v 0.232183 1.000000 0.437980
v -0.403722 1.000000 0.276237
v -0.336971 1.000000 0.013800
v -0.403722 1.270793 0.276237
v 0.232183 1.270793 0.437980
v 0.444153 1.000000 0.491894
v 0.510904 1.000000 0.229457
v 0.444153 1.270793 0.491894
v 0.510904 1.270793 0.229457
v 0.298935 1.270793 0.175542
v -0.336971 1.270793 0.013800
v 0.298934 1.000000 -0.175584
v -0.336971 1.000000 -0.013842
v -0.403722 1.000000 -0.276278
v 0.232183 1.000000 -0.438021
v -0.403722 1.270793 -0.276278
v 0.232183 1.270793 -0.438021
v 0.444153 1.000000 -0.491936
v 0.510904 1.000000 -0.229499
v 0.444153 1.270793 -0.491936
v 0.510904 1.270793 -0.229498
v 0.298935 1.270793 -0.175584
v -0.336971 1.270793 -0.013841
v -0.052363 2.492095 0.212913
v -0.051297 2.577262 0.212913
v -0.477130 2.582594 0.212913
v -0.478197 2.497427 0.212913
v -0.477130 2.582594 -0.212954
v -0.478196 2.497427 -0.212954
v -0.051296 2.577263 -0.212954
v -0.052362 2.492096 -0.212954
v -0.482462 2.156761 0.212913
v -0.482462 2.156761 -0.212954
v -0.056628 2.151429 -0.212954
v -0.056628 2.151429 0.212913
v -0.137026 1.130274 0.290634
v -0.134467 1.334674 0.290634
v -0.425099 1.338313 0.290633
v -0.427658 1.133913 0.290633
v -0.425098 1.338313 -0.290675
v -0.427658 1.133913 -0.290675
v -0.134466 1.334674 -0.290675
v -0.137026 1.130274 -0.290675
v -0.141387 1.334761 0.276793
v -0.131149 2.152362 0.276794
v -0.407941 2.155828 0.276793
v -0.418179 1.338227 0.276793
v -0.407941 2.155828 -0.276834
v -0.418178 1.338227 -0.276835
v -0.131149 2.152362 -0.276834
v -0.141386 1.334761 -0.276834
v -0.349478 1.548619 0.311315
v -0.379397 2.113308 0.415078
v -0.139794 2.150539 0.281548
v -0.122435 1.822912 0.221345
v -0.163021 1.459247 0.189302
v -0.026852 1.903781 0.178177
v 0.106457 1.687807 0.067680
v -0.211606 1.512325 0.548592
v 0.015438 1.786617 0.458622
v -0.001921 2.114244 0.518824
v -0.241524 2.077013 0.652353
v -0.025150 1.422953 0.426579
v 0.244330 1.651512 0.304955
v 0.111019 1.867487 0.415453
v 0.257888 1.638899 0.311294
v 0.111249 1.876472 0.432842
v -0.040412 1.916395 0.171838
v 0.106229 1.678823 0.050290
v 0.168417 1.731568 0.022224
v 0.021777 1.969139 0.143771
v 0.035334 1.956526 0.150110
v 0.168644 1.740552 0.039613
v 0.173436 1.929215 0.404775
v 0.320075 1.691644 0.283228
v 0.306517 1.704257 0.276890
v 0.173208 1.920232 0.387386
v 0.118252 2.026851 0.112688
v 0.251561 1.810877 0.002191
v 0.389432 1.774584 0.239467
v 0.256124 1.990556 0.349964
v -0.349477 1.548619 -0.311357
v -0.122435 1.822912 -0.221385
v -0.139793 2.150538 -0.281588
v -0.379396 2.113307 -0.415118
v -0.163021 1.459247 -0.189344
v 0.106457 1.687807 -0.067721
v -0.026852 1.903781 -0.178216
v -0.211605 1.512324 -0.548634
v -0.241523 2.077012 -0.652394
v -0.001920 2.114243 -0.518864
v 0.015438 1.786616 -0.458663
v -0.025149 1.422952 -0.426620
v 0.111021 1.867487 -0.415494
v 0.244330 1.651512 -0.304997
v 0.111250 1.876472 -0.432882
v 0.257888 1.638899 -0.311335
v 0.106230 1.678823 -0.050332
v -0.040411 1.916395 -0.171878
v 0.168417 1.731568 -0.022265
v 0.168645 1.740552 -0.039654
v 0.035334 1.956526 -0.150150
v 0.021777 1.969139 -0.143811
v 0.173436 1.929214 -0.404815
v 0.173209 1.920232 -0.387426
v 0.306517 1.704256 -0.276929
v 0.320076 1.691644 -0.283269
v 0.118251 2.026851 -0.112728
v 0.251561 1.810877 -0.002230
v 0.389432 1.774583 -0.239506
v 0.256125 1.990556 -0.350004
vt 0.864021 0.710060
vt 0.864021 0.777920
vt 0.699592 0.777920
vt 0.699592 0.710060
vt 0.699592 0.845777
vt 0.864021 0.845777
vt 0.918830 0.777920
vt 0.918830 0.710060
vt 0.918830 0.845777
vt 0.986690 0.845777
vt 0.986690 0.913638
vt 0.918830 0.913638
vt 0.864021 0.913638
vt 0.699592 0.913638
vt 0.918830 0.981498
vt 0.864021 0.981498
vt 0.699592 0.981498
vt 0.631732 0.913638
vt 0.631732 0.845777
vt 0.862746 0.602785
vt 0.698319 0.602785
vt 0.698319 0.534925
vt 0.862746 0.534925
vt 0.698319 0.467065
vt 0.862746 0.467065
vt 0.917557 0.534925
vt 0.917557 0.602785
vt 0.917557 0.467065
vt 0.917557 0.399207
vt 0.985415 0.399207
vt 0.985415 0.467065
vt 0.862746 0.399207
vt 0.698319 0.399207
vt 0.862746 0.331347
vt 0.917557 0.331347
vt 0.698317 0.331347
vt 0.630459 0.467065
vt 0.630459 0.399207
vt 0.575401 0.782159
vt 0.575401 0.803503
vt 0.682121 0.803503
vt 0.682121 0.782159
vt 0.255240 0.782161
vt 0.255240 0.803503
vt 0.361961 0.803503
vt 0.361961 0.782159
vt 0.468682 0.803503
vt 0.468682 0.782159
vt 0.126956 0.782247
vt 0.233675 0.782245
vt 0.233675 0.888966
vt 0.126956 0.888966
vt 0.468682 0.910224
vt 0.575401 0.910224
vt 0.233675 0.974343
vt 0.126956 0.974343
vt 0.340396 0.888966
vt 0.340396 0.974343
vt 0.447117 0.888966
vt 0.447117 0.974343
vt 0.020235 0.974343
vt 0.020235 0.888966
vt 0.521566 0.679635
vt 0.521566 0.628411
vt 0.448729 0.628411
vt 0.448729 0.679635
vt 0.885748 0.679637
vt 0.885748 0.628411
vt 0.740075 0.628411
vt 0.740075 0.679637
vt 0.667239 0.628411
vt 0.667239 0.679635
vt 0.521566 0.752473
vt 0.667239 0.752473
vt 0.667239 0.555574
vt 0.521566 0.555574
vt 0.759918 0.034098
vt 0.759918 0.236929
vt 0.691252 0.236929
vt 0.691252 0.034098
vt 0.553919 0.236929
vt 0.553918 0.034098
vt 0.965918 0.034098
vt 0.965918 0.236929
vt 0.897252 0.236929
vt 0.897251 0.034098
vt 0.897252 0.305595
vt 0.759919 0.305595
vt 0.322567 0.415881
vt 0.322567 0.271810
vt 0.391934 0.271810
vt 0.391936 0.355399
vt 0.374748 0.445830
vt 0.420612 0.338694
vt 0.455606 0.398589
vt 0.322565 0.058371
vt 0.391934 0.118854
vt 0.391934 0.202442
vt 0.322567 0.202442
vt 0.374747 0.028422
vt 0.455604 0.075663
vt 0.420612 0.135558
vt 0.161284 0.078608
vt 0.100270 0.078608
vt 0.100270 0.075354
vt 0.161284 0.075354
vt 0.222409 0.078608
vt 0.222409 0.075354
vt 0.295652 0.075354
vt 0.295652 0.078608
vt 0.295652 0.049677
vt 0.222409 0.049677
vt 0.222409 0.045931
vt 0.295652 0.045931
vt 0.161284 0.049677
vt 0.100270 0.049677
vt 0.100270 0.045931
vt 0.161284 0.045931
vt 0.299269 0.625265
vt 0.299269 0.694634
vt 0.270454 0.694634
vt 0.270454 0.625265
vt 0.368637 0.694634
vt 0.368637 0.625265
vt 0.397450 0.625265
vt 0.397452 0.694634
vt 0.368637 0.723448
vt 0.299269 0.723448
vt 0.299269 0.596450
vt 0.368637 0.596450
vt 0.025802 0.045931
vt 0.025802 0.049677
vt 0.025802 0.075354
vt 0.025802 0.078608
vt 0.475524 0.202442
vt 0.475524 0.271810
vt 0.024683 0.271810
vt 0.024683 0.202442
vt 0.118330 0.202442
vt 0.118330 0.271810
vt 0.178494 0.202442
vt 0.178494 0.271810
vt 0.508711 0.202442
vt 0.508711 0.271810
vt 0.220108 0.688056
vt 0.150739 0.627573
vt 0.150742 0.543985
vt 0.220110 0.543985
vt 0.167927 0.718005
vt 0.087070 0.670761
vt 0.122064 0.610867
vt 0.220110 0.330545
vt 0.220110 0.474616
vt 0.150742 0.474616
vt 0.150742 0.391026
vt 0.167931 0.300597
vt 0.122066 0.407733
vt 0.087072 0.347838
vt 0.161283 0.154841
vt 0.161283 0.151116
vt 0.222467 0.151116
vt 0.222467 0.154841
vt 0.100267 0.154841
vt 0.025816 0.154841
vt 0.025816 0.151116
vt 0.100267 0.151116
vt 0.025816 0.124832
vt 0.025816 0.121214
vt 0.100267 0.121214
vt 0.100267 0.124832
vt 0.161283 0.124832
vt 0.161283 0.121214
vt 0.222467 0.121214
vt 0.222467 0.124832
vt 0.509818 0.334174
vt 0.509818 0.305359
vt 0.579187 0.305359
vt 0.579187 0.334174
vt 0.579187 0.403541
vt 0.579187 0.432356
vt 0.509818 0.432356
vt 0.509818 0.403543
vt 0.608001 0.403543
vt 0.608001 0.334174
vt 0.481005 0.403543
vt 0.481003 0.334174
vt 0.296619 0.121214
vt 0.296619 0.124832
vt 0.296619 0.151116
vt 0.296619 0.154841
vt 0.067151 0.543985
vt 0.067151 0.474616
vt 0.517992 0.543987
vt 0.424345 0.543985
vt 0.424345 0.474619
vt 0.517992 0.474619
vt 0.364181 0.543985
vt 0.364181 0.474616
vt 0.033964 0.543983
vt 0.033964 0.474616
vn -0.0000 -1.0000 -0.0000
vn -0.2465 -0.0000 0.9691
vn 0.9691 -0.0000 0.2465
vn 0.0000 1.0000 -0.0000
vn 0.2465 -0.0000 -0.9691
vn -0.9691 0.0000 -0.2465
vn -0.2465 0.0000 -0.9691
vn 0.9691 0.0000 -0.2465
vn 0.2465 -0.0000 0.9691
vn -0.9691 -0.0000 0.2465
vn 0.0000 -0.0000 1.0000
vn -0.9999 0.0125 -0.0000
vn 0.0000 0.0000 -1.0000
vn 0.9999 -0.0125 0.0000
vn -0.0125 -0.9999 0.0000
vn 0.0125 0.9999 0.0000
vn -0.4981 0.1311 -0.8572
vn 0.4981 -0.1311 0.8572
vn -0.7211 -0.6116 0.3255
vn 0.7211 0.6116 -0.3254
vn 0.7211 0.6116 -0.3255
vn 0.4816 -0.7802 -0.3992
vn -0.4816 0.7802 0.3992
vn 0.8656 0.1345 -0.4824
vn -0.0520 0.9822 0.1805
vn -0.3857 -0.9188 0.0836
vn -0.8656 -0.1345 0.4824
vn -0.4807 0.7810 0.3988
vn -0.4981 0.1311 0.8572
vn 0.4981 -0.1311 -0.8572
vn -0.7211 -0.6116 -0.3255
vn -0.7211 -0.6116 -0.3254
vn 0.7211 0.6116 0.3254
vn 0.7211 0.6116 0.3255
vn 0.4816 -0.7802 0.3992
vn -0.4816 0.7802 -0.3992
vn 0.8656 0.1345 0.4824
vn -0.0520 0.9822 -0.1805
vn -0.3857 -0.9188 -0.0836
vn -0.8656 -0.1345 -0.4824
vn -0.4807 0.7810 -0.3988
usemtl None
s 1
f 1/1/1 2/2/1 3/3/1 4/4/1
f 5/5/2 3/3/2 2/2/2 6/6/2
f 7/7/1 2/2/1 1/1/1 8/8/1
f 9/9/3 7/10/3 8/11/3 10/12/3
f 7/7/2 9/9/2 6/6/2 2/2/2
f 6/6/4 9/9/4 10/12/4 11/13/4
f 5/5/4 6/6/4 11/13/4 12/14/4
f 10/12/5 8/15/5 1/16/5 11/13/5
f 4/17/5 12/14/5 11/13/5 1/16/5
f 5/5/6 12/14/6 4/18/6 3/19/6
f 13/20/1 14/21/1 15/22/1 16/23/1
f 17/24/7 18/25/7 16/23/7 15/22/7
f 19/26/1 20/27/1 13/20/1 16/23/1
f 21/28/8 22/29/8 20/30/8 19/31/8
f 19/26/7 16/23/7 18/25/7 21/28/7
f 18/25/4 23/32/4 22/29/4 21/28/4
f 17/24/4 24/33/4 23/32/4 18/25/4
f 22/29/9 23/32/9 13/34/9 20/35/9
f 14/36/9 13/34/9 23/32/9 24/33/9
f 17/24/10 15/37/10 14/38/10 24/33/10
f 25/39/11 26/40/11 27/41/11 28/42/11
f 28/43/12 27/44/12 29/45/12 30/46/12
f 30/46/13 29/45/13 31/47/13 32/48/13
f 32/48/14 31/47/14 26/40/14 25/39/14
f 33/49/15 34/50/15 35/51/15 36/52/15
f 29/53/16 27/54/16 26/40/16 31/47/16
f 35/51/14 32/55/14 25/56/14 36/52/14
f 34/57/13 30/58/13 32/55/13 35/51/13
f 33/59/12 28/60/12 30/58/12 34/57/12
f 36/52/11 25/56/11 28/61/11 33/62/11
f 37/63/11 38/64/11 39/65/11 40/66/11
f 40/67/12 39/68/12 41/69/12 42/70/12
f 42/70/13 41/69/13 43/71/13 44/72/13
f 44/72/14 43/71/14 38/64/14 37/63/14
f 40/73/15 42/74/15 44/72/15 37/63/15
f 41/75/16 39/76/16 38/64/16 43/71/16
f 45/77/11 46/78/11 47/79/11 48/80/11
f 48/80/12 47/79/12 49/81/12 50/82/12
f 50/83/13 49/84/13 51/85/13 52/86/13
f 52/86/14 51/85/14 46/78/14 45/77/14
f 49/87/16 47/88/16 46/78/16 51/85/16
f 53/89/17 54/90/17 55/91/17 56/92/17
f 57/93/17 53/89/17 56/92/17
f 56/92/17 58/94/17 59/95/17 57/93/17
f 60/96/18 61/97/18 62/98/18 63/99/18
f 61/97/18 60/96/18 64/100/18
f 64/100/18 65/101/18 66/102/18 61/97/18
f 66/103/19 65/104/19 67/105/19 68/106/19
f 58/107/19 69/108/19 70/109/19 59/110/19
f 71/111/20 72/112/20 73/113/20 74/114/20
f 75/115/20 76/116/20 77/117/20 78/118/20
f 79/119/17 80/120/17 74/121/17 73/122/17
f 81/123/18 82/124/18 78/125/18 77/126/18
f 79/119/21 82/124/21 81/123/21 80/120/21
f 77/127/22 74/128/22 80/120/22 81/123/22
f 82/124/23 79/119/23 73/129/23 78/130/23
f 72/112/20 75/115/20 78/118/20 73/113/20
f 74/131/20 77/117/20 76/116/20 71/132/20
f 58/107/19 66/103/19 68/106/19 69/108/19
f 70/133/19 67/105/19 65/104/19 59/134/19
f 55/91/24 62/98/24 61/135/24 56/136/24
f 59/137/22 65/138/22 64/139/22 57/140/22
f 54/90/25 63/99/25 62/98/25 55/91/25
f 57/140/26 64/139/26 60/141/26 53/142/26
f 63/99/27 54/90/27 53/142/27 60/141/27
f 56/136/28 61/135/28 66/143/28 58/144/28
f 67/105/18 76/116/18 75/115/18 68/106/18
f 71/111/17 70/109/17 69/108/17 72/112/17
f 72/112/23 69/108/23 68/106/23 75/115/23
f 70/133/22 71/132/22 76/116/22 67/105/22
f 83/145/29 84/146/29 85/147/29 86/148/29
f 87/149/29 84/146/29 83/145/29
f 84/146/29 87/149/29 88/150/29 89/151/29
f 90/152/30 91/153/30 92/154/30 93/155/30
f 93/155/30 94/156/30 90/152/30
f 94/156/30 93/155/30 95/157/30 96/158/30
f 95/159/31 97/160/31 98/161/31 96/162/31
f 89/163/31 88/164/32 99/165/32 100/166/31
f 101/167/33 102/168/33 103/169/33 104/170/33
f 105/171/33 106/172/33 107/173/33 108/174/33
f 109/175/29 103/176/29 102/177/29 110/178/29
f 111/179/30 107/180/30 106/181/30 112/182/30
f 109/175/34 110/178/34 111/179/34 112/182/34
f 107/183/35 111/179/35 110/178/35 102/184/35
f 112/182/36 106/185/36 103/186/36 109/175/36
f 104/170/33 103/169/33 106/172/33 105/171/33
f 102/187/33 101/188/33 108/174/33 107/173/33
f 89/163/31 100/166/31 97/160/31 95/159/31
f 99/189/32 88/190/32 96/162/31 98/161/31
f 85/147/37 84/191/37 93/192/37 92/154/37
f 88/193/35 87/194/35 94/195/35 96/196/35
f 86/148/38 85/147/38 92/154/38 91/153/38
f 87/194/39 83/197/39 90/198/39 94/195/39
f 91/153/40 90/198/40 83/197/40 86/148/40
f 84/191/41 89/199/41 95/200/41 93/192/41
f 97/160/30 105/171/30 108/174/30 98/161/30
f 104/170/29 100/166/29 99/165/29 101/167/29
f 105/171/36 97/160/36 100/166/36 104/170/36
f 98/161/35 108/174/35 101/188/35 99/189/35
