# Blender v2.79 (sub 0) OBJ File: 'hat_base.blend'
# www.blender.org
mtllib hat_17.mtl
o Cube.002
v 0.500132 -0.000000 0.500132
v 0.500132 1.000263 0.500132
v 0.500132 -0.000000 -0.500132
v 0.500132 1.000263 -0.500132
v 0.150040 -0.000000 -0.500132
v 0.150040 1.000263 -0.500132
v 0.150040 -0.000000 0.500132
v 0.150040 1.000263 0.500132
v -0.500131 0.500131 -0.500132
v -0.500131 0.500132 0.500132
v 0.150040 0.500131 -0.500132
v 0.150040 0.500131 0.500132
v -0.500131 0.721888 0.500132
v -0.500131 0.721888 -0.500132
v 0.150040 0.721888 -0.500132
v 0.150040 0.721888 0.500132
v 0.150040 0.500131 -0.300079
v 0.150040 0.500131 0.300079
v 0.150040 0.721888 -0.300079
v 0.150040 0.721888 0.300079
v -0.370097 0.500131 0.300079
v -0.370097 0.500131 -0.300079
v -0.370097 0.721888 0.300079
v -0.370097 0.721888 -0.300079
v 0.425629 0.528187 0.354104
v 0.425629 0.762505 0.354104
v 0.425629 0.528187 -0.354104
v 0.425629 0.762505 -0.354104
v 0.563285 0.528187 0.354104
v 0.563285 0.762505 0.354104
v 0.563285 0.528187 -0.354104
v 0.563285 0.762505 -0.354104
vt 0.966480 0.400023
vt 0.966480 0.498674
vt 0.842414 0.498674
vt 0.345722 0.164503
vt 0.345722 0.207921
vt 0.232837 0.207921
vt 0.204615 0.164504
vt 0.156487 0.381591
vt 0.015380 0.381591
vt 0.015380 0.338174
vt 0.128266 0.338174
vt 0.487940 0.498674
vt 0.842414 0.622740
vt 0.487940 0.622740
vt 0.842414 0.144200
vt 0.487940 0.144200
vt 0.487940 0.020134
vt 0.842414 0.020134
vt 0.363874 0.400023
vt 0.363874 0.321437
vt 0.558835 0.799977
vt 0.558835 0.721390
vt 0.771520 0.721390
vt 0.771520 0.799977
vt 0.015380 0.164504
vt 0.156487 0.164504
vt 0.128266 0.207921
vt 0.015380 0.207921
vt 0.345722 0.381591
vt 0.204615 0.381591
vt 0.232837 0.338174
vt 0.345722 0.338174
vt 0.487941 0.977214
vt 0.487940 0.799977
vt 0.842414 0.721390
vt 0.204615 0.023396
vt 0.156487 0.023396
vt 0.314429 0.610043
vt 0.314429 0.561915
vt 0.427315 0.561915
vt 0.427315 0.610043
vt 0.842414 0.799977
vt 0.842414 0.977214
vt 0.184176 0.610043
vt 0.184176 0.561915
vt 0.363874 0.144200
vt 0.487940 0.721391
vt 0.363875 0.498674
vt 0.071290 0.610043
vt 0.071290 0.561915
vt 0.204615 0.522699
vt 0.156487 0.522699
vt 0.966480 0.144200
vt 0.966480 0.321437
vt 0.443331 0.822762
vt 0.443331 0.918395
vt 0.387149 0.918395
vt 0.387149 0.822762
vt 0.098105 0.918395
vt 0.098105 0.822762
vt 0.041923 0.918395
vt 0.041923 0.822762
vt 0.387149 0.766580
vt 0.098105 0.766580
vt 0.387149 0.974577
vt 0.098105 0.974577
vn 0.0000 0.0000 -1.0000
vn -0.0000 -1.0000 0.0000
vn 0.0000 1.0000 0.0000
vn 0.0000 0.0000 1.0000
vn 1.0000 0.0000 0.0000
vn -1.0000 0.0000 0.0000
usemtl None
s off
f 15/1/1 6/2/1 4/3/1
f 11/4/2 17/5/2 22/6/2 9/7/2
f 13/8/3 16/9/3 20/10/3 23/11/3
f 2/12/3 4/3/3 6/13/3 8/14/3
f 3/15/2 1/16/2 7/17/2 5/18/2
f 16/19/4 12/20/4 2/12/4
f 2/12/5 1/16/5 3/15/5 4/3/5
f 18/21/6 20/22/6 19/23/6 17/24/6
f 15/25/3 14/26/3 24/27/3 19/28/3
f 12/29/2 10/30/2 21/31/2 18/32/2
f 7/33/6 12/34/6 18/21/6
f 20/22/6 8/14/6 6/13/6 19/23/6
f 6/13/6 15/35/6 19/23/6
f 10/30/2 9/7/2 22/6/2 21/31/2
f 11/36/1 9/7/1 14/26/1 15/37/1
f 21/38/1 23/39/1 20/40/1 18/41/1
f 17/24/6 11/42/6 5/43/6
f 21/38/5 22/44/5 24/45/5 23/39/5
f 1/16/4 2/12/4 12/20/4 7/46/4
f 20/22/6 16/47/6 8/14/6
f 2/12/4 8/48/4 16/19/4
f 17/49/4 19/50/4 24/45/4 22/44/4
f 10/30/4 12/51/4 16/52/4 13/8/4
f 24/27/3 14/26/3 13/8/3 23/11/3
f 3/15/1 5/53/1 11/54/1 4/3/1
f 5/43/6 7/33/6 18/21/6 17/24/6
f 15/1/1 4/3/1 11/54/1
f 9/7/6 10/30/6 13/8/6 14/26/6
f 27/55/1 28/56/1 32/57/1 31/58/1
f 31/58/5 32/57/5 30/59/5 29/60/5
f 29/60/4 30/59/4 26/61/4 25/62/4
f 27/63/2 31/58/2 29/60/2 25/64/2
f 32/57/3 28/65/3 26/66/3 30/59/3
