# Blender v2.79 (sub 0) OBJ File: 'BearKing.blend'
# www.blender.org
mtllib hat_19.mtl
o Cube
v -0.206311 0.953732 0.285268
v -0.206311 0.953732 -0.285268
v 0.364224 0.953732 0.285268
v 0.364224 0.953732 -0.285268
v -0.206311 1.150824 0.171161
v -0.206311 1.150824 0.057054
v -0.206311 1.150824 -0.057054
v -0.206311 1.150824 -0.171161
v -0.092204 1.150824 -0.285268
v 0.021903 1.150824 -0.285268
v 0.136010 1.150824 -0.285268
v 0.250117 1.150824 -0.285268
v 0.364224 1.150824 -0.171161
v 0.364224 1.150824 -0.057054
v 0.364224 1.150824 0.057054
v 0.364224 1.150824 0.171161
v 0.250117 1.150824 0.285268
v 0.136010 1.150824 0.285268
v 0.021903 1.150824 0.285268
v -0.092204 1.150824 0.285268
v 0.250117 1.150824 -0.171161
v 0.250117 1.150824 -0.057054
v 0.250117 1.150824 0.057054
v 0.250117 1.150824 0.171161
v 0.136010 1.150824 -0.171161
v 0.136010 1.150824 0.171161
v 0.021903 1.150824 -0.171161
v 0.021903 1.150824 0.171161
v -0.092204 1.150824 -0.171161
v -0.092204 1.150824 -0.057054
v -0.092204 1.150824 0.057054
v -0.092204 1.150824 0.171161
v -0.092204 0.953732 -0.171161
v -0.092204 0.953732 0.171161
v 0.364224 1.261409 -0.285268
v 0.250117 1.261409 -0.285268
v -0.206311 1.261409 -0.285268
v -0.206311 1.261409 -0.171161
v 0.250117 0.953732 -0.171161
v 0.250117 0.953732 0.171161
v 0.364224 1.261409 0.171161
v 0.364224 1.261409 0.285268
v -0.092204 1.261409 0.285268
v -0.206311 1.261409 0.285268
v -0.206311 1.261409 0.171161
v -0.206311 1.261409 0.057054
v -0.206311 1.261409 -0.057054
v -0.092204 1.261409 -0.285268
v 0.021903 1.261409 -0.285268
v 0.136010 1.261409 -0.285268
v 0.364224 1.261409 -0.171161
v 0.364224 1.261409 -0.057054
v 0.364224 1.261409 0.057054
v 0.250117 1.261409 0.285268
v 0.136010 1.261409 0.285268
v 0.021903 1.261409 0.285268
v 0.250117 1.261409 0.171161
v 0.250117 1.261409 -0.171161
v 0.250117 1.261409 -0.057054
v 0.250117 1.261409 0.057054
v 0.136010 1.261409 0.171161
v 0.136010 1.261409 -0.171161
v 0.021903 1.261409 0.171161
v 0.021903 1.261409 -0.171161
v -0.092204 1.261409 0.171161
v -0.092204 1.261409 -0.171161
v -0.092204 1.261409 -0.057054
v -0.092204 1.261409 0.057054
v 0.097580 0.791874 0.834650
v 0.097580 1.263861 0.834650
v 0.097580 0.791874 0.362663
v 0.097580 1.263861 0.362663
v 0.268685 0.791874 0.834650
v 0.268685 1.263861 0.834650
v 0.268685 0.791874 0.362663
v 0.268685 1.263861 0.362663
v 0.097580 0.791874 -0.834650
v 0.097580 1.263861 -0.834650
v 0.097580 0.791874 -0.362663
v 0.097580 1.263861 -0.362663
v 0.268685 0.791874 -0.834650
v 0.268685 1.263861 -0.834650
v 0.268685 0.791874 -0.362663
v 0.268685 1.263861 -0.362663
v 0.431157 0.162811 0.210411
v 0.431157 0.495009 0.210411
v 0.431157 0.162811 -0.210411
v 0.431157 0.495009 -0.210411
v 0.614644 0.162811 0.210411
v 0.614644 0.495009 0.210411
v 0.614644 0.162811 -0.210411
v 0.614644 0.495009 -0.210411
v -0.500132 -0.000000 0.500132
v -0.500132 1.000263 0.500132
v -0.500132 -0.000000 -0.500132
v -0.500132 1.000263 -0.500132
v 0.500132 -0.000000 0.500132
v 0.500132 1.000263 0.500132
v 0.500132 -0.000000 -0.500132
v 0.500132 1.000263 -0.500132
vt 0.086794 0.889143
vt 0.051315 0.827860
vt 0.051315 0.889143
vt 0.122274 0.889143
vt 0.086794 0.889143
vt 0.015835 0.827860
vt 0.193233 0.827860
vt 0.015835 0.923527
vt 0.015835 0.889143
vt 0.015835 0.889143
vt 0.015835 0.923527
vt 0.157753 0.889143
vt 0.122274 0.889143
vt 0.122274 0.923527
vt 0.122274 0.923527
vt 0.051315 0.889143
vt 0.051315 0.923527
vt 0.015835 0.923527
vt 0.157753 0.889143
vt 0.193233 0.889143
vt 0.157753 0.923527
vt 0.193233 0.923527
vt 0.051315 0.889143
vt 0.193233 0.889143
vt 0.157753 0.889143
vt 0.157753 0.889143
vt 0.193233 0.889143
vt 0.193233 0.889143
vt 0.157753 0.889143
vt 0.157753 0.889143
vt 0.122274 0.889143
vt 0.122274 0.889143
vt 0.193233 0.923527
vt 0.157753 0.923527
vt 0.086794 0.889143
vt 0.051315 0.889143
vt 0.051315 0.889143
vt 0.086794 0.889143
vt 0.157753 0.923527
vt 0.193233 0.923527
vt 0.015835 0.889143
vt 0.051315 0.889143
vt 0.015835 0.923527
vt 0.015835 0.827860
vt 0.015835 0.923527
vt 0.015835 0.889143
vt 0.086794 0.923527
vt 0.122274 0.923527
vt 0.051315 0.827860
vt 0.264192 0.923527
vt 0.264192 0.889143
vt 0.299672 0.889143
vt 0.299672 0.923527
vt 0.193233 0.827860
vt 0.193233 0.923527
vt 0.157753 0.923527
vt 0.157753 0.923527
vt 0.193233 0.923527
vt 0.086794 0.923527
vt 0.086794 0.923527
vt 0.157753 0.923527
vt 0.193233 0.923527
vt 0.051315 0.923527
vt 0.015835 0.923527
vt 0.051315 0.923527
vt 0.051315 0.923527
vt 0.086794 0.923527
vt 0.122274 0.923527
vt 0.157753 0.827860
vt 0.370631 0.923527
vt 0.335151 0.923527
vt 0.335151 0.889143
vt 0.370631 0.827860
vt 0.051315 0.923527
vt 0.051315 0.923527
vt 0.228713 0.889143
vt 0.228713 0.923527
vt 0.157753 0.827860
vt 0.115817 0.450131
vt 0.115817 0.292430
vt 0.273518 0.292430
vt 0.273518 0.450131
vt 0.330688 0.077559
vt 0.330688 0.235260
vt 0.273518 0.235260
vt 0.273518 0.077558
vt 0.115817 0.235260
vt 0.115817 0.077558
vt 0.058647 0.235260
vt 0.058647 0.077559
vt 0.273518 0.020389
vt 0.115817 0.020389
vt 0.894353 0.450131
vt 0.736652 0.450131
vt 0.736652 0.292430
vt 0.894353 0.292430
vt 0.679482 0.077559
vt 0.736652 0.077559
vt 0.736652 0.235260
vt 0.679482 0.235260
vt 0.894353 0.077559
vt 0.894353 0.235260
vt 0.951523 0.077559
vt 0.951523 0.235260
vt 0.736652 0.020389
vt 0.894353 0.020389
vt 0.940243 0.812060
vt 0.940243 0.919373
vt 0.880969 0.919373
vt 0.880969 0.812060
vt 0.745026 0.919373
vt 0.745026 0.812060
vt 0.685752 0.919373
vt 0.685752 0.812060
vt 0.880969 0.752785
vt 0.745026 0.752785
vt 0.880969 0.978648
vt 0.745026 0.978648
vt 0.629044 0.018799
vt 0.629044 0.253974
vt 0.393869 0.253974
vt 0.393869 0.018799
vt 0.158694 0.724323
vt 0.158694 0.489149
vt 0.393869 0.489149
vt 0.393869 0.724323
vt 0.629044 0.489149
vt 0.629044 0.724323
vt 0.864218 0.489148
vt 0.864218 0.724323
vt 0.393869 0.959498
vt 0.629044 0.959498
vn 0.0000 0.0000 -1.0000
vn 0.0000 0.0000 1.0000
vn -1.0000 0.0000 0.0000
vn 1.0000 0.0000 0.0000
vn 0.0000 1.0000 0.0000
vn -0.0000 -1.0000 0.0000
usemtl None
s off
f 28/1/1 34/2/1 32/3/1
f 18/4/2 19/5/2 1/6/2 3/7/2
f 47/8/3 7/9/3 6/10/3 46/11/3
f 18/4/2 3/7/2 17/12/2
f 18/4/4 26/13/4 61/14/4 55/15/4
f 1/6/2 20/16/2 43/17/2 44/18/2
f 24/19/5 26/13/5 18/4/5 17/12/5
f 16/20/1 24/19/1 57/21/1 41/22/1
f 28/1/5 32/3/5 20/16/5 19/5/5
f 31/23/4 32/3/4 34/2/4
f 13/24/5 21/25/5 22/26/5 14/27/5
f 20/16/2 1/6/2 19/5/2
f 15/28/5 23/29/5 24/19/5 16/20/5
f 12/30/5 11/31/5 25/32/5 21/25/5
f 23/29/2 15/28/2 53/33/2 60/34/2
f 10/35/5 9/36/5 29/37/5 27/38/5
f 14/27/1 22/26/1 59/39/1 52/40/1
f 29/37/5 8/41/5 7/9/5 30/42/5
f 37/43/3 2/44/3 8/41/3 38/45/3
f 31/23/5 6/10/5 5/46/5 32/3/5
f 10/35/1 49/47/1 50/48/1 11/31/1
f 33/49/4 29/37/4 30/42/4
f 27/38/2 29/37/2 33/49/2
f 30/42/4 31/23/4 34/2/4 33/49/4
f 53/50/4 15/51/4 14/52/4 52/53/4
f 11/31/1 12/30/1 4/54/1
f 10/35/1 11/31/1 4/54/1 2/44/1
f 52/40/5 59/39/5 60/34/5 53/33/5
f 35/55/5 36/56/5 58/57/5 51/58/5
f 61/14/5 63/59/5 56/60/5 55/15/5
f 2/44/1 9/36/1 10/35/1
f 41/22/5 57/21/5 54/61/5 42/62/5
f 65/63/5 45/64/5 44/18/5 43/17/5
f 35/55/1 4/54/1 12/30/1 36/56/1
f 68/65/4 31/23/4 30/42/4 67/66/4
f 1/6/3 5/46/3 6/10/3
f 17/12/2 3/7/2 42/62/2 54/61/2
f 64/67/2 27/38/2 25/32/2 62/68/2
f 40/69/3 24/19/3 23/29/3
f 35/70/4 51/71/4 13/72/4 4/73/4
f 50/48/5 49/47/5 64/67/5 62/68/5
f 48/74/5 37/43/5 38/45/5 66/75/5
f 67/66/5 47/8/5 46/11/5 68/65/5
f 24/19/1 40/69/1 26/13/1
f 25/32/4 11/31/4 50/48/4 62/68/4
f 37/43/1 48/74/1 9/36/1 2/44/1
f 28/1/3 19/5/3 56/60/3 63/59/3
f 28/1/1 26/13/1 40/69/1 34/2/1
f 42/62/4 3/7/4 16/76/4 41/77/4
f 10/35/3 27/38/3 64/67/3 49/47/3
f 20/16/4 32/3/4 65/63/4 43/17/4
f 7/9/3 8/41/3 2/44/3
f 59/39/3 22/26/3 23/29/3 60/34/3
f 29/37/4 9/36/4 48/74/4 66/75/4
f 8/41/2 29/37/2 66/75/2 38/45/2
f 30/42/1 7/9/1 47/8/1 67/66/1
f 56/60/2 19/5/2 18/4/2 55/15/2
f 6/10/2 31/23/2 68/65/2 46/11/2
f 44/18/3 45/64/3 5/46/3 1/6/3
f 24/19/3 17/12/3 54/61/3 57/21/3
f 32/3/1 5/46/1 45/64/1 65/63/1
f 21/25/2 13/24/2 51/58/2 58/57/2
f 6/10/3 7/9/3 2/44/3 1/6/3
f 12/30/3 21/25/3 58/57/3 36/56/3
f 4/73/4 13/72/4 14/52/4
f 15/51/4 16/76/4 3/7/4
f 39/78/2 21/25/2 25/32/2
f 14/52/4 15/51/4 3/7/4 4/73/4
f 25/32/2 27/38/2 33/49/2 39/78/2
f 61/14/1 26/13/1 28/1/1 63/59/1
f 22/26/3 21/25/3 39/78/3
f 22/26/3 39/78/3 40/69/3 23/29/3
f 69/79/3 70/80/3 72/81/3 71/82/3
f 71/83/1 72/84/1 76/85/1 75/86/1
f 75/86/4 76/85/4 74/87/4 73/88/4
f 73/88/2 74/87/2 70/89/2 69/90/2
f 71/91/6 75/86/6 73/88/6 69/92/6
f 76/85/5 72/81/5 70/80/5 74/87/5
f 77/93/3 79/94/3 80/95/3 78/96/3
f 79/97/2 83/98/2 84/99/2 80/100/2
f 83/98/4 81/101/4 82/102/4 84/99/4
f 81/101/1 77/103/1 78/104/1 82/102/1
f 79/105/6 77/106/6 81/101/6 83/98/6
f 84/99/5 82/102/5 78/96/5 80/95/5
f 87/107/1 88/108/1 92/109/1 91/110/1
f 91/110/4 92/109/4 90/111/4 89/112/4
f 89/112/2 90/111/2 86/113/2 85/114/2
f 87/115/6 91/110/6 89/112/6 85/116/6
f 92/109/5 88/117/5 86/118/5 90/111/5
f 93/119/3 94/120/3 96/121/3 95/122/3
f 95/123/1 96/124/1 100/125/1 99/126/1
f 99/126/4 100/125/4 98/127/4 97/128/4
f 97/128/2 98/127/2 94/129/2 93/130/2
f 95/131/6 99/126/6 97/128/6 93/132/6
f 100/125/5 96/121/5 94/120/5 98/127/5
