# Blender v2.91.2 OBJ File: ''
# www.blender.org
mtllib 1.mtl
o 1_Cone.005
v 0.000000 3.699896 0.000000
v 0.000000 2.638300 -0.500983
v 0.391684 2.638300 -0.312358
v 0.488422 2.638300 0.111479
v 0.217368 2.638300 0.451370
v -0.217368 2.638300 0.451370
v -0.488422 2.638300 0.111479
v -0.391684 2.638300 -0.312358
v 0.000000 1.576703 0.000000
vt 0.027901 0.296180
vt 0.303670 0.296180
vt 0.131731 0.511785
vt 0.365034 0.565035
vt 0.552130 0.415832
vt 0.552130 0.176528
vt 0.365035 0.027325
vt 0.131731 0.080575
vt 0.775215 0.436150
vt 0.962309 0.585353
vt 0.713850 0.705005
vt 0.962309 0.824657
vt 0.775214 0.973860
vt 0.541911 0.920610
vt 0.438081 0.705005
vt 0.541911 0.489400
vn 0.3993 0.3913 -0.8291
vn 0.8972 0.3913 -0.2048
vn 0.7195 0.3913 0.5738
vn -0.0000 0.3913 0.9203
vn -0.7195 0.3913 0.5738
vn -0.8972 0.3913 -0.2048
vn -0.3993 0.3913 -0.8291
vn 0.3993 -0.3913 -0.8291
vn 0.8972 -0.3913 -0.2048
vn 0.7195 -0.3913 0.5738
vn -0.0000 -0.3913 0.9203
vn -0.7195 -0.3913 0.5738
vn -0.8972 -0.3913 -0.2048
vn -0.3993 -0.3913 -0.8291
usemtl None
s off
f 2/1/1 1/2/1 3/3/1
f 3/3/2 1/2/2 4/4/2
f 4/4/3 1/2/3 5/5/3
f 5/5/4 1/2/4 6/6/4
f 6/6/5 1/2/5 7/7/5
f 7/7/6 1/2/6 8/8/6
f 8/8/7 1/2/7 2/1/7
f 2/9/8 3/10/8 9/11/8
f 3/10/9 4/12/9 9/11/9
f 4/12/10 5/13/10 9/11/10
f 5/13/11 6/14/11 9/11/11
f 6/14/12 7/15/12 9/11/12
f 7/15/13 8/16/13 9/11/13
f 8/16/14 2/9/14 9/11/14
