# File produced by Open Asset Import Library (http://www.assimp.sf.net)
# (assimp v3.1.128981410)

mtllib hat_238.mtl

# vertex positions
v 0.761252 0.091888 -1.532264
v 0.761252 0.209064 -1.384915
v 0.761252 0.153851 -1.344714
v 0.761252 0.010047 -1.368956
v 0.761252 0.088650 -1.281013
v 0.761252 0.006634 -1.200801
v 0.761252 -0.049201 -1.170617
v 0.761252 -0.037081 -1.248783
v 0.761252 0.123047 -1.609117
v 0.761252 0.271588 -1.404802
v 0.761252 0.054194 -1.461028
v 0.761252 0.125749 -1.715995
v 0.761252 0.349934 -1.387325
v 0.761252 0.750493 -4.092154
v 0.761252 1.488785 -3.869883
v 0.761252 1.906996 -2.341744
v 0.761252 1.488785 -1.394428
v 0.761252 1.760142 -3.459178
v 0.761252 1.134246 -4.092154
v 0.761252 0.124597 -3.459178
v 0.761252 0.395952 -3.869884
v 0.761252 0.083417 -1.872847
v 0.761252 0.022487 -2.083217
v 0.761252 0.583270 -1.235693
v 0.761252 -0.041222 -2.632156
v 0.761252 -0.022261 -2.922568
v 0.761252 0.942367 -1.143457
v 0.761252 -0.023630 -2.344410
v 0.761252 0.033650 -3.201855
v 0.761252 0.246867 -3.684824
v 0.761252 0.565966 -4.007533
v 0.761252 0.942370 -4.120853
v 0.761252 1.318773 -4.007533
v 0.761252 1.637870 -3.684824
v 0.761252 1.906998 -2.922567
v 0.761252 1.760140 -1.805133
v 0.761252 1.134243 -1.172156
v 0.761252 0.450958 -1.320886
v 0.761252 0.752708 -1.169550
v 0.761252 1.318771 -1.256777
v 0.761252 1.637870 -1.579487
v 0.761252 1.851086 -2.062455
v 0.761252 1.925958 -2.632156
v 0.761252 1.851086 -3.201855

# UV coordinates
vt 0.148755 0.215958
vt 0.101799 0.253299
vt 0.088988 0.235704
vt 0.096714 0.189878
vt 0.068689 0.214927
vt 0.043128 0.188791
vt 0.033509 0.170998
vt 0.058418 0.174860
vt 0.173245 0.225888
vt 0.108136 0.273224
vt 0.126054 0.203947
vt 0.207304 0.226749
vt 0.102567 0.298190
vt 0.964513 0.425835
vt 0.893682 0.661107
vt 0.406711 0.794378
vt 0.104831 0.661107
vt 0.762803 0.747579
vt 0.964513 0.548125
vt 0.762803 0.226381
vt 0.893682 0.312854
vt 0.257288 0.213259
vt 0.324327 0.193843
vt 0.054247 0.372547
vt 0.499256 0.173540
vt 0.591802 0.179583
vt 0.024854 0.486980
vt 0.407561 0.179146
vt 0.680802 0.197400
vt 0.834710 0.265345
vt 0.937547 0.367032
vt 0.973658 0.486980
vt 0.937547 0.606929
vt 0.834710 0.708615
vt 0.591802 0.794378
vt 0.235710 0.747579
vt 0.033999 0.548125
vt 0.081395 0.330383
vt 0.033169 0.426542
vt 0.060966 0.606928
vt 0.163803 0.708615
vt 0.317710 0.776561
vt 0.499256 0.800420
vt 0.680802 0.776561

# vertex normals
vn 1.000000 0.000000 0.000000

# Mesh
g Cylinder.053_Cylinder.029
usemtl None.003
f 1/1/1 2/2/1 3/3/1
f 4/4/1 5/5/1 6/6/1
f 7/7/1 8/8/1 6/6/1
f 9/9/1 10/10/1 2/2/1
f 1/1/1 9/9/1 2/2/1
f 8/8/1 4/4/1 6/6/1
f 5/5/1 11/11/1 3/3/1
f 11/11/1 1/1/1 3/3/1
f 4/4/1 11/11/1 5/5/1
f 9/9/1 12/12/1 10/10/1
f 13/13/1 10/10/1 12/12/1
f 14/14/1 15/15/1 16/16/1
f 16/16/1 17/17/1 14/14/1
f 15/15/1 18/18/1 16/16/1
f 14/14/1 19/19/1 15/15/1
f 20/20/1 21/21/1 14/14/1
f 12/12/1 22/22/1 13/13/1
f 22/22/1 23/23/1 24/24/1
f 25/25/1 26/26/1 27/27/1
f 28/28/1 25/25/1 27/27/1
f 26/26/1 29/29/1 20/20/1
f 20/20/1 30/30/1 21/21/1
f 21/21/1 31/31/1 14/14/1
f 14/14/1 32/32/1 19/19/1
f 19/19/1 33/33/1 15/15/1
f 15/15/1 34/34/1 18/18/1
f 18/18/1 35/35/1 16/16/1
f 16/16/1 36/36/1 17/17/1
f 20/20/1 37/37/1 26/26/1
f 17/17/1 37/37/1 14/14/1
f 38/38/1 13/13/1 22/22/1
f 39/39/1 23/23/1 28/28/1
f 24/24/1 38/38/1 22/22/1
f 39/39/1 24/24/1 23/23/1
f 37/37/1 20/20/1 14/14/1
f 27/27/1 39/39/1 28/28/1
f 37/37/1 27/27/1 26/26/1
f 17/17/1 40/40/1 37/37/1
f 36/36/1 41/41/1 17/17/1
f 16/16/1 42/42/1 36/36/1
f 35/35/1 43/43/1 16/16/1
f 18/18/1 44/44/1 35/35/1
