# Blender v3.0.0 OBJ File: ''
# www.blender.org
mtllib default cube.mtl
o Cube.001
v 0.562032 1.264981 -0.370249
v 0.562032 1.597733 -0.370249
v 0.533869 1.264981 -0.370249
v 0.533869 1.597733 -0.370249
v 0.562032 1.366564 -0.615021
v 0.533869 1.366564 -0.615021
v 0.562032 1.328506 -0.449675
v 0.562032 1.353545 -0.510702
v 0.533869 1.353545 -0.510702
v 0.533869 1.328506 -0.449675
v 0.562032 1.221336 -0.564946
v 0.562032 1.196298 -0.503919
v 0.533869 1.196298 -0.503919
v 0.533869 1.221336 -0.564946
v 0.391904 1.436043 0.851184
v 0.391904 1.479468 0.894610
v 0.391904 1.448762 0.881891
v 0.391904 1.479468 -0.894609
v 0.391904 1.436043 -0.851184
v 0.391904 1.448762 -0.881890
v 0.391904 1.978395 0.894610
v 0.391904 2.021820 0.851184
v 0.391904 2.009101 0.881891
v 0.391904 2.021820 -0.851184
v 0.391904 1.978395 -0.894609
v 0.391904 2.009101 -0.881890
v 0.463967 2.021820 0.851184
v 0.463967 1.978395 0.894610
v 0.463967 2.009101 0.881891
v 0.463967 1.479468 0.894610
v 0.463967 1.436043 0.851184
v 0.463967 1.448762 0.881891
v 0.463967 1.436043 -0.851184
v 0.463967 1.479468 -0.894609
v 0.463967 1.448762 -0.881890
v 0.463967 1.978395 -0.894609
v 0.463967 2.021820 -0.851184
v 0.463967 2.009101 -0.881890
v 0.463967 1.728932 0.000000
v 0.391904 1.728931 0.000000
v -1.000000 1.000000 -1.000000
v -1.000000 -1.000000 -1.000000
v 1.000000 1.000000 -1.000000
v 1.000000 -1.000000 -1.000000
v -1.000000 1.000000 1.000000
v -1.000000 -1.000000 1.000000
v 1.000000 1.000000 1.000000
v 1.000000 -1.000000 1.000000
vt 0.811846 0.176097
vt 0.811846 0.243970
vt 0.786570 0.243970
vt 0.786570 0.176097
vt 0.110983 0.169973
vt 0.187389 0.125503
vt 0.115433 0.201694
vt 0.133372 0.351617
vt 0.061415 0.275427
vt 0.137821 0.319896
vt 0.786570 0.334087
vt 0.786570 0.312643
vt 0.811846 0.312643
vt 0.811846 0.334087
vt 0.811846 0.363235
vt 0.786570 0.363235
vt 0.786570 0.155352
vt 0.811846 0.155352
vt 0.811846 0.126203
vt 0.786570 0.126203
vt 0.786570 0.112748
vt 0.811846 0.112748
vt 0.146379 0.300966
vt 0.187389 0.319508
vt 0.178830 0.338438
vt 0.102425 0.151043
vt 0.069974 0.188515
vt 0.061415 0.169585
vt 0.081354 0.125503
vt 0.167450 0.275427
vt 0.906074 0.975151
vt 0.906074 0.627913
vt 0.970750 0.627913
vt 0.970750 0.975151
vt 0.906074 0.499028
vt 0.906074 0.151790
vt 0.970750 0.151790
vt 0.970750 0.499028
vt 0.673884 0.067199
vt 0.680147 0.069793
vt 0.623000 0.249675
vt 0.517335 0.806857
vt 0.699499 0.857653
vt 0.517335 0.908450
vt 0.906074 0.614354
vt 0.906074 0.512587
vt 0.970750 0.512587
vt 0.970750 0.614354
vt 0.970750 0.505808
vt 0.906074 0.505808
vt 0.906074 0.621134
vt 0.970750 0.621134
vt 0.906074 0.022905
vt 0.970750 0.022905
vt 0.970750 0.029684
vt 0.906074 0.029684
vt 0.970750 0.036463
vt 0.906074 0.036463
vt 0.906074 0.145010
vt 0.970750 0.145010
vt 0.906074 0.138231
vt 0.970750 0.138231
vt 0.879073 0.800604
vt 0.881662 0.806857
vt 0.879073 0.914703
vt 0.881662 0.908450
vt 0.872820 0.798014
vt 0.519925 0.914703
vt 0.526177 0.917293
vt 0.526177 0.798014
vt 0.519925 0.800604
vt 0.872820 0.917293
vt 0.682742 0.076056
vt 0.572116 0.432152
vt 0.565853 0.429558
vt 0.563259 0.423294
vt 0.682742 0.423294
vt 0.563259 0.076056
vt 0.565853 0.069793
vt 0.680147 0.429558
vt 0.572116 0.067199
vt 0.673884 0.432152
vt 0.489385 0.500000
vt 0.725968 0.500000
vt 0.725968 0.736583
vt 0.489385 0.736583
vt 0.252802 0.736583
vt 0.489385 0.973166
vt 0.252802 0.973166
vt 0.252802 0.026834
vt 0.489385 0.026834
vt 0.489385 0.263417
vt 0.252802 0.263417
vt 0.016219 0.500000
vt 0.252802 0.500000
vt 0.016219 0.736583
vn 0.0000 -0.0000 1.0000
vn 1.0000 0.0000 0.0000
vn -1.0000 -0.0000 -0.0000
vn 0.0000 -0.9923 -0.1238
vn 0.0000 0.7270 -0.6866
vn 0.0000 0.3796 -0.9252
vn 0.0000 -0.7809 -0.6246
vn 0.0000 -0.9252 -0.3796
vn 0.0000 -0.3796 0.9252
vn 0.0000 -1.0000 -0.0000
vn 0.0000 1.0000 0.0000
vn 0.0000 0.0000 -1.0000
vn 0.0000 0.9239 -0.3827
vn -0.0000 0.3827 -0.9239
vn 0.0000 -0.9239 -0.3827
vn 0.0000 -0.3827 -0.9239
vn 0.0000 -0.9239 0.3827
vn 0.0000 -0.3827 0.9239
vn 0.0000 0.9239 0.3827
vn -0.0000 0.3827 0.9239
usemtl Material
s off
f 1/1/1 2/2/1 4/3/1 3/4/1
f 7/5/2 2/6/2 1/7/2
f 3/8/3 4/9/3 10/10/3
f 9/11/4 6/12/4 5/13/4 8/14/4
f 6/12/5 4/3/5 2/2/5 5/13/5
f 9/11/6 8/14/6 11/15/6 14/16/6
f 3/4/7 10/17/7 7/18/7 1/1/7
f 12/19/8 13/20/8 14/21/8 11/22/8
f 7/18/9 10/17/9 13/20/9 12/19/9
f 10/10/3 9/23/3 14/24/3 13/25/3
f 8/26/2 7/5/2 12/27/2 11/28/2
f 2/6/2 7/5/2 8/26/2
f 8/26/2 5/29/2 2/6/2
f 10/10/3 4/9/3 9/23/3
f 9/23/3 4/9/3 6/30/3
f 15/31/10 19/32/10 33/33/10 31/34/10
f 24/35/11 22/36/11 27/37/11 37/38/11
f 18/39/3 20/40/3 40/41/3
f 30/42/2 39/43/2 28/44/2
f 18/45/12 25/46/12 36/47/12 34/48/12
f 24/35/13 37/38/13 38/49/13 26/50/13
f 26/50/14 38/49/14 36/47/14 25/46/14
f 33/33/15 19/32/15 20/51/15 35/52/15
f 35/52/16 20/51/16 18/45/16 34/48/16
f 15/53/17 31/54/17 32/55/17 17/56/17
f 17/56/18 32/55/18 30/57/18 16/58/18
f 27/37/19 22/36/19 23/59/19 29/60/19
f 29/60/20 23/59/20 21/61/20 28/62/20
f 21/61/1 16/58/1 30/57/1 28/62/1
f 35/63/2 34/64/2 39/43/2
f 38/65/2 39/43/2 36/66/2
f 33/67/2 35/63/2 39/43/2
f 29/68/2 39/43/2 27/69/2
f 31/70/2 39/43/2 32/71/2
f 39/43/2 30/42/2 32/71/2
f 28/44/2 39/43/2 29/68/2
f 27/69/2 39/43/2 37/72/2
f 37/72/2 39/43/2 38/65/2
f 31/70/2 33/67/2 39/43/2
f 36/66/2 39/43/2 34/64/2
f 20/40/3 19/73/3 40/41/3
f 21/74/3 23/75/3 40/41/3
f 23/75/3 22/76/3 40/41/3
f 19/73/3 15/77/3 40/41/3
f 24/78/3 26/79/3 40/41/3
f 22/76/3 24/78/3 40/41/3
f 15/77/3 17/80/3 40/41/3
f 26/79/3 25/81/3 40/41/3
f 16/82/3 21/74/3 40/41/3
f 17/80/3 16/82/3 40/41/3
f 25/81/3 18/39/3 40/41/3
f 41/83/11 45/84/11 47/85/11 43/86/11
f 44/87/2 43/86/2 47/88/2 48/89/2
f 48/90/1 47/91/1 45/92/1 46/93/1
f 46/94/10 42/95/10 44/87/10 48/96/10
f 42/95/12 41/83/12 43/86/12 44/87/12
f 46/93/3 45/92/3 41/83/3 42/95/3
