# Blender v2.79 (sub 0) OBJ File: 'Skull.blend'
# www.blender.org
mtllib hat_12.mtl
o Cube.001_Cube.002
v 0.043619 1.043970 0.500132
v 0.043619 1.043970 -0.500132
v 0.043619 0.373979 -0.500132
v 0.043619 0.373979 0.500132
v 0.043619 0.507796 -0.357237
v 0.043619 0.507796 -0.071447
v 0.043619 0.507796 0.071447
v 0.043619 0.507796 0.357237
v 0.043619 0.793586 -0.357237
v 0.043619 0.793586 -0.071447
v 0.043619 0.793586 0.071447
v 0.043619 0.793586 0.357237
v 0.043619 -0.000000 0.285789
v 0.043619 -0.000000 -0.285790
v 0.043619 0.373979 -0.285789
v 0.043619 0.373979 0.285790
v 0.043619 0.293454 -0.071447
v 0.043619 0.293454 0.071447
v 0.043619 0.436349 -0.071447
v 0.043619 0.436349 0.071447
v 0.043619 1.043970 0.000000
v -0.044689 0.698323 -0.166711
v -0.044689 0.698323 -0.261974
v -0.044689 0.603059 -0.166711
v -0.044689 0.603059 -0.261974
v -0.044689 0.793586 -0.071447
v -0.044689 0.793586 -0.357237
v -0.044689 0.507796 -0.071447
v -0.044689 0.507796 -0.357237
v -0.044689 0.698323 0.261974
v -0.044689 0.698323 0.166711
v -0.044689 0.603059 0.261974
v -0.044689 0.603059 0.166711
v -0.044689 0.793586 0.357237
v -0.044689 0.507796 0.071447
v -0.044689 0.293454 0.071447
v -0.070837 0.373979 0.285790
v -0.070837 0.373979 0.500132
v -0.044689 0.436349 0.071447
v -0.044689 0.293454 -0.071447
v -0.044689 0.436349 -0.071447
v -0.070837 0.373979 -0.285789
v 0.007713 0.603059 0.166711
v 0.007713 0.603059 0.261974
v 0.007713 0.698323 0.166711
v 0.007713 0.698323 0.261974
v -0.044689 0.793586 0.071447
v -0.044689 0.507796 0.357237
v -0.070837 1.043970 0.500132
v -0.070837 1.043970 0.000000
v -0.070837 0.373979 -0.500132
v -0.070837 1.043970 -0.500132
v -0.070837 -0.000000 -0.285790
v -0.070837 -0.000000 0.285789
v 0.007713 0.603059 -0.261974
v 0.007713 0.603059 -0.166711
v 0.007713 0.698323 -0.261974
v 0.007713 0.698323 -0.166711
v -1.031392 0.699415 0.487916
v -1.031392 0.839221 0.487916
v -1.031392 0.699415 -0.487916
v -1.031392 0.839221 -0.487916
v -0.064193 0.699415 0.487916
v -0.064193 0.839221 0.487916
v -0.064193 0.699415 -0.487916
v -0.064193 0.839221 -0.487916
v -0.064193 0.699415 0.292750
v -0.064193 0.699415 -0.292750
v -0.064193 0.839221 -0.292750
v -0.064193 0.839221 0.292750
v -0.836226 0.839221 -0.292750
v -0.836226 0.839221 0.292750
v -0.836226 0.699415 -0.292750
v -0.836226 0.699415 0.292750
vt 0.415603 0.932600
vt 0.474816 0.828846
vt 0.593241 0.828846
vt 0.622847 0.932600
vt 0.975515 0.315627
vt 0.975516 0.389631
vt 0.929781 0.389631
vt 0.929781 0.315627
vt 0.179632 0.845613
vt 0.179632 0.943102
vt 0.149508 0.943102
vt 0.149508 0.845613
vt 0.052020 0.815490
vt 0.149508 0.815490
vt 0.052020 0.845613
vt 0.830092 0.932600
vt 0.830092 0.980028
vt 0.622847 0.980028
vt 0.240768 0.283500
vt 0.240767 0.230078
vt 0.337886 0.230078
vt 0.337887 0.283500
vt 0.810043 0.389631
vt 0.810043 0.315627
vt 0.855777 0.315627
vt 0.855777 0.389631
vt 0.337886 0.069852
vt 0.391309 0.069852
vt 0.391309 0.166971
vt 0.337887 0.166971
vt 0.240767 0.166971
vt 0.187345 0.166971
vt 0.187345 0.069852
vt 0.240767 0.069852
vt 0.240767 0.016430
vt 0.337886 0.016430
vt 0.741273 0.500000
vt 0.504422 0.500000
vt 0.504422 0.452572
vt 0.741273 0.452572
vt 0.337886 0.380620
vt 0.337886 0.434042
vt 0.240767 0.434042
vt 0.240768 0.380619
vt 0.337886 0.220393
vt 0.240767 0.220393
vt 0.985061 0.500000
vt 0.896242 0.500000
vt 0.896242 0.452572
vt 0.985061 0.452572
vt 0.222913 0.815490
vt 0.320401 0.815523
vt 0.320391 0.845647
vt 0.222903 0.845613
vt 0.349453 0.500000
vt 0.260634 0.500000
vt 0.260634 0.452572
vt 0.349453 0.452572
vt 0.149508 0.973225
vt 0.052020 0.973225
vt 0.052020 0.943102
vt 0.415603 0.654969
vt 0.368175 0.932600
vt 0.368175 0.654969
vt 0.192745 0.943091
vt 0.192779 0.845603
vt 0.222869 0.943102
vt 0.320347 0.973259
vt 0.222859 0.973225
vt 0.320357 0.943135
vt 0.415603 0.980028
vt 0.652454 0.828846
vt 0.770879 0.828846
vt 0.830092 0.654969
vt 0.770879 0.710420
vt 0.474816 0.710420
vt 0.593241 0.710420
vt 0.652454 0.710420
vt 0.593241 0.680814
vt 0.652454 0.680814
vt 0.593241 0.621601
vt 0.504422 0.654969
vt 0.652454 0.621601
vt 0.741273 0.654969
vt 0.877520 0.654969
vt 0.877520 0.932600
vt 0.855777 0.269893
vt 0.929781 0.269893
vt 0.021896 0.943102
vt 0.021896 0.845613
vt 0.187345 0.380619
vt 0.187345 0.283500
vt 0.929781 0.435365
vt 0.855777 0.435365
vt 0.391309 0.283500
vt 0.391309 0.380619
vt 0.350515 0.845657
vt 0.350481 0.943146
vt 0.622847 0.019972
vt 0.741273 0.297602
vt 0.504422 0.297602
vt 0.415603 0.297602
vt 0.415603 0.019972
vt 0.830092 0.297602
vt 0.830092 0.019972
vt 0.127992 0.776334
vt 0.127992 0.664853
vt 0.150288 0.687149
vt 0.150288 0.776334
vt 0.239472 0.537401
vt 0.239472 0.648881
vt 0.217176 0.626585
vt 0.217176 0.537401
vt 0.016511 0.664853
vt 0.016512 0.648881
vt 0.127992 0.648881
vt 0.350952 0.648881
vt 0.350952 0.664853
vt 0.239472 0.664853
vt 0.239472 0.776334
vt 0.217176 0.776334
vt 0.217176 0.687149
vt 0.127992 0.537401
vt 0.150288 0.537401
vt 0.150288 0.626585
vt 0.201204 0.626585
vt 0.201205 0.537401
vt 0.217176 0.703121
vt 0.150288 0.703121
vt 0.166259 0.626585
vt 0.166259 0.537401
vn 1.0000 0.0000 0.0000
vn 0.0000 1.0000 0.0000
vn 0.0000 0.0000 -1.0000
vn 0.0000 -1.0000 0.0000
vn 0.0000 0.0000 1.0000
vn -1.0000 0.0000 0.0000
usemtl None
s off
f 1/1/1 12/2/1 11/3/1 21/4/1
f 18/5/2 17/6/2 40/7/2 36/8/2
f 6/9/2 5/10/2 29/11/2 28/12/2
f 10/13/3 6/14/3 28/12/3 26/15/3
f 21/4/2 2/16/2 52/17/2 50/18/2
f 57/19/2 23/20/2 22/21/2 58/22/2
f 19/23/4 20/24/4 39/25/4 41/26/4
f 46/27/5 30/28/5 32/29/5 44/30/5
f 43/31/3 33/32/3 31/33/3 45/34/3
f 45/34/2 31/35/2 30/36/2 46/27/2
f 14/37/4 13/38/4 54/39/4 53/40/4
f 56/41/4 24/42/4 25/43/4 55/44/4
f 44/30/4 32/45/4 33/46/4 43/31/4
f 3/47/4 15/48/4 42/49/4 51/50/4
f 12/51/3 8/52/3 48/53/3 34/54/3
f 16/55/4 4/56/4 38/57/4 37/58/4
f 5/59/5 9/60/5 27/61/5 29/11/5
f 4/62/5 1/1/5 49/63/5 38/64/5
f 11/65/4 12/66/4 34/54/4 47/67/4
f 7/68/5 11/69/5 47/67/5 35/70/5
f 1/1/2 21/4/2 50/18/2 49/71/2
f 2/16/1 21/4/1 10/72/1 9/73/1
f 3/74/1 2/16/1 9/73/1 5/75/1
f 4/62/1 8/76/1 12/2/1 1/1/1
f 11/3/1 7/77/1 6/78/1 10/72/1 21/4/1
f 20/79/1 19/80/1 6/78/1 7/77/1
f 7/77/1 8/76/1 20/79/1
f 6/78/1 19/80/1 5/75/1
f 18/81/1 20/79/1 8/76/1 16/82/1
f 17/83/1 15/84/1 5/75/1 19/80/1
f 13/38/1 18/81/1 16/82/1
f 14/37/1 15/84/1 17/83/1
f 13/38/1 14/37/1 17/83/1 18/81/1
f 2/16/3 3/74/3 51/85/3 52/86/3
f 20/87/3 18/88/3 36/8/3 39/25/3
f 13/38/5 16/55/5 37/58/5 54/39/5
f 9/89/4 10/90/4 26/15/4 27/61/4
f 55/44/3 25/91/3 23/92/3 57/19/3
f 17/93/5 19/94/5 41/26/5 40/7/5
f 58/22/5 22/95/5 24/96/5 56/41/5
f 8/97/2 7/98/2 35/70/2 48/53/2
f 15/48/3 14/37/3 53/40/3 42/49/3
f 44/30/1 43/31/1 45/34/1 46/27/1
f 56/41/1 55/44/1 57/19/1 58/22/1
f 50/99/6 42/100/6 37/101/6
f 5/75/1 15/84/1 3/74/1
f 16/82/1 8/76/1 4/62/1
f 34/54/1 48/53/1 35/70/1 47/67/1
f 29/11/1 27/61/1 26/15/1 28/12/1
f 41/26/1 39/25/1 36/8/1 40/7/1
f 38/102/6 49/103/6 50/99/6 37/101/6
f 51/104/6 42/100/6 50/99/6 52/105/6
f 54/39/6 37/101/6 42/100/6 53/40/6
f 66/106/2 62/107/2 71/108/2 69/109/2
f 63/110/4 59/111/4 74/112/4 67/113/4
f 66/114/3 65/115/3 61/116/3 62/107/3
f 59/111/5 63/117/5 64/118/5 60/119/5
f 60/119/2 64/120/2 70/121/2 72/122/2
f 65/123/4 68/124/4 73/125/4 61/116/4
f 71/108/2 62/107/2 60/119/2 72/122/2
f 74/112/4 59/111/4 61/116/4 73/125/4
f 74/112/3 72/126/3 70/127/3 67/113/3
f 74/128/1 73/129/1 71/108/1 72/122/1
f 71/130/5 73/125/5 68/124/5 69/131/5
f 60/119/6 62/107/6 61/116/6 59/111/6
