# Blender v3.0.0 OBJ File: ''
# www.blender.org
mtllib Subzero.mtl
o Plane
v 0.639549 0.737011 1.013109
v 0.639550 -0.617669 1.013109
v -0.639549 -0.617669 1.013109
v -0.639550 0.737011 1.013109
v 0.639549 0.737011 -1.013109
v -0.639550 0.737011 -1.013109
v -0.639550 -0.617669 -1.013109
v 0.639549 -0.617669 -1.013109
v 1.075449 0.133345 0.236204
v 1.075449 0.133345 0.640637
v 1.075449 -0.033992 0.640637
v 1.075449 -0.033992 0.236204
v 0.671017 0.133345 0.236204
v 0.671017 -0.033992 0.236204
v 0.671017 0.133344 0.640637
v 0.671017 -0.033992 0.640637
v 0.900809 0.226517 0.465997
v 0.900809 0.414142 0.465997
v 0.845656 0.414142 0.465997
v 0.845656 0.226517 0.465997
v 0.845656 0.414142 0.410844
v 0.845656 0.226517 0.410844
v 0.900809 0.414142 0.410844
v 0.900809 0.226517 0.410844
v 1.064982 -0.329288 0.630170
v 1.064982 0.226517 0.630170
v 0.681484 0.226517 0.630170
v 0.681484 -0.329288 0.630170
v 0.681484 0.226517 0.246671
v 0.681484 -0.329288 0.246671
v 1.064982 0.226517 0.246671
v 1.064982 -0.329288 0.246671
v 0.447800 0.133345 -0.640679
v 0.447800 0.133345 -0.236246
v 0.447800 -0.033992 -0.236247
v 0.447800 -0.033991 -0.640679
v 0.043368 0.133345 -0.640679
v 0.043368 -0.033992 -0.640679
v 0.043368 0.133345 -0.236246
v 0.043368 -0.033992 -0.236246
v 0.273160 0.226517 -0.410886
v 0.273160 0.414142 -0.410886
v 0.218007 0.414142 -0.410886
v 0.218007 0.226517 -0.410886
v 0.218007 0.414142 -0.466039
v 0.218007 0.226517 -0.466039
v 0.273160 0.414142 -0.466039
v 0.273160 0.226517 -0.466039
v 0.437333 -0.329288 -0.246714
v 0.437333 0.226517 -0.246713
v 0.053835 0.226517 -0.246713
v 0.053835 -0.329288 -0.246714
v 0.053834 0.226517 -0.630212
v 0.053835 -0.329288 -0.630212
v 0.437333 0.226517 -0.630212
v 0.437333 -0.329288 -0.630212
v 0.947224 0.366916 0.458070
v 0.947224 0.406215 0.458070
v -0.019650 0.406215 0.458070
v -0.019650 0.366916 0.458070
v -0.019650 0.366916 0.418771
v -0.019650 0.406215 0.418771
v 0.947224 0.406215 0.418771
v 0.947224 0.366916 0.418771
v 1.147913 -1.000000 1.147913
v 1.147914 -0.782842 1.147913
v -1.147913 -0.782842 1.147913
v -1.147913 -1.000000 1.147913
v -1.147913 -0.782842 -1.147913
v -1.147913 -1.000000 -1.147913
v 1.147913 -0.782842 -1.147913
v 1.147913 -1.000000 -1.147913
v 0.000000 0.441714 0.134307
v 0.000000 0.886137 0.134307
v -0.134307 0.886137 0.000000
v -0.134307 0.441714 0.000000
v 0.000000 0.886137 -0.134307
v 0.000000 0.441714 -0.134307
v 0.134307 0.886137 0.000000
v 0.134307 0.441714 0.000000
v 0.831773 0.450291 0.779280
v 0.831773 0.510064 0.779280
v 0.831773 0.510064 0.068284
v 0.831773 0.450291 0.068284
v 0.891546 0.450291 0.068284
v 0.891546 0.510064 0.068284
v 0.891546 0.510064 0.779280
v 0.891546 0.450291 0.779280
v 0.831773 0.450291 -0.779280
v 0.831773 0.450291 -0.068284
v 0.831773 0.510064 -0.068284
v 0.831773 0.510064 -0.779280
v 0.891546 0.450291 -0.068284
v 0.891546 0.450291 -0.779280
v 0.891546 0.510064 -0.779280
v 0.891546 0.510064 -0.068284
v 0.899393 -0.497011 0.803781
v 0.899393 -0.421545 0.803781
v 0.823927 -0.421545 0.803781
v 0.823927 -0.497011 0.803781
v 0.823927 -0.421545 -0.803782
v 0.823927 -0.497011 -0.803782
v 0.899393 -0.421545 -0.803782
v 0.899393 -0.497011 -0.803782
v 0.885907 0.510064 0.762000
v 0.885907 0.876745 0.762000
v 0.837412 0.876745 0.762000
v 0.837412 0.510064 0.762000
v 0.837412 0.510064 0.085564
v 0.837412 0.876745 0.085564
v 0.885907 0.876745 0.085564
v 0.885907 0.510064 0.085564
v 0.885907 0.510064 -0.762000
v 0.837412 0.510064 -0.762000
v 0.837412 0.876745 -0.762000
v 0.885907 0.876745 -0.762000
v 0.837412 0.510064 -0.085564
v 0.885907 0.510064 -0.085564
v 0.885907 0.876745 -0.085564
v 0.837412 0.876745 -0.085564
v 0.947224 -0.544842 0.085564
v 0.947224 0.876745 0.085564
v 0.776096 0.876745 0.085564
v 0.776096 -0.544842 0.085564
v 0.776096 -0.544842 -0.085564
v 0.776096 0.876745 -0.085564
v 0.947224 0.876745 -0.085564
v 0.947224 -0.544842 -0.085564
v 1.147913 0.876745 1.147913
v 1.147913 0.994697 1.147913
v -1.147913 0.994697 1.147913
v -1.147913 0.876745 1.147913
v -1.147913 0.994697 -1.147913
v -1.147913 0.876745 -1.147913
v 1.147913 0.994697 -1.147913
v 1.147913 0.876745 -1.147913
v 1.000000 -0.782842 1.000000
v 1.000000 0.876745 1.000000
v -1.000000 0.876745 1.000000
v -1.000000 -0.782842 1.000000
v -1.000000 0.876745 -1.000000
v -1.000000 -0.782842 -1.000000
v 1.000000 0.876745 -1.000000
v 1.000000 -0.782842 -1.000000
v 0.854119 -0.650842 0.868000
v 0.854119 0.876745 0.868000
v -0.762000 0.876745 0.868000
v -0.762000 -0.650842 0.868000
v 0.854119 -0.544842 -0.762000
v 0.854119 0.876745 -0.762000
v 1.000000 0.876745 -0.762000
v 1.000000 -0.544842 -0.762000
v 0.854119 -0.544842 0.762000
v 1.000000 -0.544842 0.762000
v 1.000000 0.876745 0.762000
v -0.762000 -0.650842 -0.868000
v 0.854119 -0.650842 -0.868000
v -0.762000 0.876745 -0.868000
v 0.854119 0.876745 -0.868000
v 0.854119 0.876745 0.762000
v -0.419975 0.331417 0.000000
v -0.419975 0.441714 0.000000
v -0.388006 0.441714 -0.160717
v -0.388006 0.331417 -0.160717
v -0.296967 0.441714 -0.296967
v -0.296967 0.331417 -0.296967
v -0.160718 0.441714 -0.388006
v -0.160718 0.331417 -0.388006
v 0.000000 0.441714 -0.419975
v 0.000000 0.331417 -0.419975
v 0.160717 0.441714 -0.388006
v 0.160717 0.331417 -0.388006
v 0.296967 0.441714 -0.296967
v 0.296967 0.331417 -0.296967
v 0.388006 0.441714 -0.160718
v 0.388006 0.331417 -0.160718
v 0.419975 0.441714 0.000000
v 0.419975 0.331417 0.000000
v 0.388006 0.441714 0.160718
v 0.388006 0.331417 0.160718
v 0.296967 0.441714 0.296967
v 0.296967 0.331417 0.296967
v 0.160718 0.441714 0.388006
v 0.160718 0.331417 0.388006
v 0.000000 0.441714 0.419975
v 0.000000 0.331417 0.419975
v -0.160718 0.441714 0.388006
v -0.160718 0.331416 0.388006
v -0.296967 0.441714 0.296967
v -0.296967 0.331416 0.296967
v 0.000000 0.441714 0.000000
v -0.388006 0.441714 0.160718
v -0.388006 0.331416 0.160718
v 0.000000 0.331417 0.000000
vt 0.358639 0.327150
vt 0.490057 0.327150
vt 0.490057 0.187967
vt 0.358639 0.187967
vt 0.199878 0.319385
vt 0.339062 0.319385
vt 0.339062 0.187967
vt 0.199878 0.187967
vt 0.354856 0.846712
vt 0.354856 0.888265
vt 0.337664 0.888265
vt 0.337664 0.846712
vt 0.354856 0.805160
vt 0.337664 0.805160
vt 0.354856 0.763608
vt 0.337664 0.763608
vt 0.354856 0.929817
vt 0.337664 0.929817
vt 0.674128 0.093981
vt 0.674128 0.113258
vt 0.668462 0.113258
vt 0.668462 0.093981
vt 0.691128 0.093981
vt 0.691128 0.113258
vt 0.685461 0.113258
vt 0.685461 0.093981
vt 0.679795 0.113258
vt 0.679795 0.093981
vt 0.679795 0.118925
vt 0.674128 0.118925
vt 0.318084 0.742632
vt 0.318084 0.685527
vt 0.357485 0.685527
vt 0.357485 0.742632
vt 0.199879 0.742632
vt 0.199879 0.685527
vt 0.239280 0.685527
vt 0.239280 0.742632
vt 0.278682 0.685527
vt 0.278682 0.742632
vt 0.318084 0.782034
vt 0.278682 0.782034
vt 0.278682 0.646126
vt 0.318084 0.646126
vt 0.973014 0.562808
vt 0.973014 0.521256
vt 0.990207 0.521256
vt 0.990207 0.562808
vt 0.973014 0.604361
vt 0.990207 0.604361
vt 0.973014 0.645913
vt 0.990207 0.645913
vt 0.973014 0.479704
vt 0.990207 0.479704
vt 0.091986 0.857380
vt 0.072709 0.857380
vt 0.072709 0.851714
vt 0.091986 0.851714
vt 0.091986 0.874380
vt 0.072709 0.874380
vt 0.072709 0.868713
vt 0.091986 0.868713
vt 0.072709 0.863047
vt 0.091986 0.863047
vt 0.067043 0.863047
vt 0.067043 0.857380
vt 0.781626 0.227368
vt 0.781626 0.284473
vt 0.742224 0.284473
vt 0.742224 0.227368
vt 0.899830 0.227368
vt 0.899830 0.284473
vt 0.860429 0.284473
vt 0.860429 0.227368
vt 0.821027 0.284473
vt 0.821027 0.227368
vt 0.781626 0.187967
vt 0.821027 0.187967
vt 0.821027 0.323875
vt 0.781626 0.323875
vt 0.126128 0.565329
vt 0.122090 0.565329
vt 0.122090 0.465991
vt 0.126128 0.465991
vt 0.114015 0.465991
vt 0.118052 0.465991
vt 0.118052 0.565329
vt 0.114014 0.565329
vt 0.118052 0.569367
vt 0.122090 0.569367
vt 0.130165 0.465991
vt 0.130165 0.565329
vt 0.685866 0.610620
vt 0.663554 0.610620
vt 0.663554 0.374741
vt 0.685865 0.374741
vt 0.663554 0.352430
vt 0.427675 0.374741
vt 0.427675 0.352430
vt 0.405364 0.374741
vt 0.427675 0.610620
vt 0.405364 0.610620
vt 0.427675 0.632931
vt 0.663554 0.632931
vt 0.663554 0.868810
vt 0.427675 0.868810
vt 0.840605 0.351108
vt 0.840605 0.305447
vt 0.860120 0.305447
vt 0.860120 0.351108
vt 0.879635 0.305447
vt 0.879635 0.351108
vt 0.899150 0.305447
vt 0.899150 0.351108
vt 0.918665 0.305447
vt 0.918665 0.351108
vt 0.199883 0.365249
vt 0.199883 0.359107
vt 0.272933 0.359107
vt 0.272933 0.365249
vt 0.272933 0.346825
vt 0.272933 0.352966
vt 0.199883 0.352966
vt 0.199883 0.346825
vt 0.199883 0.340684
vt 0.272933 0.340684
vt 0.292509 0.348516
vt 0.365559 0.348516
vt 0.365559 0.354657
vt 0.292509 0.354657
vt 0.365559 0.366939
vt 0.292509 0.366939
vt 0.292509 0.360798
vt 0.365559 0.360798
vt 0.292509 0.373081
vt 0.365559 0.373081
vt 0.923772 0.009788
vt 0.923772 0.017541
vt 0.916018 0.017541
vt 0.916018 0.009788
vt 0.908265 0.017541
vt 0.916018 0.182706
vt 0.908265 0.182706
vt 0.916018 0.190460
vt 0.923772 0.182706
vt 0.923772 0.190460
vt 0.931525 0.182706
vt 0.931525 0.017541
vt 0.939279 0.017541
vt 0.939279 0.182706
vt 0.309877 0.807752
vt 0.272203 0.807752
vt 0.272203 0.802769
vt 0.309877 0.802769
vt 0.309877 0.882233
vt 0.272203 0.882233
vt 0.272203 0.877250
vt 0.309877 0.877250
vt 0.047463 0.926198
vt 0.047463 0.931180
vt 0.009790 0.931180
vt 0.009790 0.926198
vt 0.047463 0.851717
vt 0.047463 0.856699
vt 0.009790 0.856699
vt 0.009790 0.851717
vt 0.217461 0.763606
vt 0.217461 0.909663
vt 0.199879 0.909663
vt 0.199879 0.763606
vt 0.252625 0.763606
vt 0.252625 0.909663
vt 0.235043 0.909663
vt 0.235043 0.763606
vt 0.953443 0.865675
vt 0.941324 0.865675
vt 0.941324 0.629796
vt 0.953443 0.629796
vt 0.941324 0.617677
vt 0.705445 0.629796
vt 0.705445 0.617677
vt 0.693327 0.629796
vt 0.705445 0.865675
vt 0.693326 0.865675
vt 0.705445 0.877794
vt 0.941324 0.877794
vt 0.705445 0.381799
vt 0.941324 0.381799
vt 0.180300 0.420761
vt 0.009790 0.420761
vt 0.009790 0.215275
vt 0.180300 0.215275
vt 0.009790 0.009790
vt 0.180300 0.009790
vt 0.180300 0.831729
vt 0.009791 0.831729
vt 0.009791 0.626245
vt 0.180300 0.626245
vt 0.385785 0.420761
vt 0.385785 0.626245
vt 0.722643 0.166738
vt 0.888686 0.166738
vt 0.888686 0.009790
vt 0.722643 0.009790
vt 0.975883 0.312423
vt 0.960895 0.312423
vt 0.960895 0.458480
vt 0.975883 0.458480
vt 0.975883 0.155844
vt 0.960895 0.155844
vt 0.009790 0.445213
vt 0.155847 0.445213
vt 0.155847 0.601792
vt 0.009791 0.601792
vt 0.722643 0.332782
vt 0.544282 0.166738
vt 0.544282 0.332782
vt 0.378238 0.166738
vt 0.544282 0.009790
vt 0.378238 0.009790
vt 0.975883 0.009786
vt 0.960895 0.009786
vt 0.199876 0.166738
vt 0.199876 0.009790
vt 0.555173 0.155847
vt 0.711752 0.155847
vt 0.555173 0.009790
vt 0.711752 0.009790
vt 0.388393 0.915506
vt 0.377061 0.915506
vt 0.377061 0.898670
vt 0.388393 0.898670
vt 0.377061 0.881834
vt 0.388393 0.881834
vt 0.377061 0.864998
vt 0.388393 0.864998
vt 0.377061 0.848162
vt 0.388393 0.848162
vt 0.377061 0.831326
vt 0.388393 0.831326
vt 0.377061 0.814490
vt 0.388393 0.814490
vt 0.377061 0.797654
vt 0.388393 0.797654
vt 0.377061 0.780818
vt 0.388393 0.780818
vt 0.377061 0.763982
vt 0.388393 0.763982
vt 0.377061 0.747146
vt 0.388393 0.747146
vt 0.377061 0.730310
vt 0.388393 0.730310
vt 0.377061 0.713474
vt 0.388393 0.713474
vt 0.377061 0.696638
vt 0.388393 0.696638
vt 0.377061 0.679802
vt 0.388393 0.679802
vt 0.016236 0.484338
vt 0.028141 0.472434
vt 0.052114 0.508311
vt 0.377061 0.662966
vt 0.388393 0.662966
vt 0.377061 0.646130
vt 0.388393 0.646130
vt 0.659393 0.043695
vt 0.659393 0.060531
vt 0.617073 0.052113
vt 0.043695 0.550631
vt 0.028141 0.544188
vt 0.094434 0.516729
vt 0.087991 0.532283
vt 0.043695 0.465991
vt 0.060531 0.465991
vt 0.016236 0.532283
vt 0.009793 0.516729
vt 0.076086 0.472434
vt 0.087991 0.484338
vt 0.009793 0.499893
vt 0.060531 0.550631
vt 0.094434 0.499893
vt 0.076086 0.544188
vt 0.608655 0.094434
vt 0.593100 0.087991
vt 0.581195 0.028141
vt 0.593100 0.016236
vt 0.641045 0.087991
vt 0.625491 0.094434
vt 0.574753 0.060531
vt 0.574753 0.043695
vt 0.625491 0.009793
vt 0.641045 0.016236
vt 0.652950 0.076086
vt 0.581195 0.076086
vt 0.652950 0.028141
vt 0.608655 0.009793
vn 0.0000 -0.0000 1.0000
vn 0.0000 0.0000 -1.0000
vn 1.0000 0.0000 0.0000
vn -1.0000 -0.0000 0.0000
vn 0.0000 1.0000 0.0000
vn 0.0000 -1.0000 -0.0000
vn -0.7071 -0.0000 0.7071
vn -0.7071 0.0000 -0.7071
vn 0.7071 0.0000 -0.7071
vn 0.7071 -0.0000 0.7071
vn -0.7462 -0.6657 -0.0000
vn -0.7462 0.6657 -0.0000
vn -0.6894 0.6657 -0.2856
vn -0.6894 -0.6657 -0.2856
vn -0.5276 0.6657 -0.5276
vn -0.5276 -0.6657 -0.5276
vn -0.2856 0.6657 -0.6894
vn -0.2856 -0.6657 -0.6894
vn 0.0000 0.6657 -0.7462
vn 0.0000 -0.6657 -0.7462
vn 0.2856 0.6657 -0.6894
vn 0.2856 -0.6657 -0.6894
vn 0.5276 0.6657 -0.5276
vn 0.5276 -0.6657 -0.5276
vn 0.6894 0.6657 -0.2856
vn 0.6894 -0.6657 -0.2856
vn 0.7462 0.6657 0.0000
vn 0.7462 -0.6657 -0.0000
vn 0.6894 0.6657 0.2856
vn 0.6894 -0.6657 0.2856
vn 0.5276 0.6657 0.5276
vn 0.5276 -0.6657 0.5276
vn 0.2856 0.6657 0.6894
vn 0.2856 -0.6657 0.6894
vn -0.0000 0.6657 0.7462
vn 0.0000 -0.6657 0.7462
vn -0.2856 0.6657 0.6894
vn -0.2856 -0.6657 0.6894
vn -0.5276 0.6657 0.5276
vn -0.5276 -0.6657 0.5276
vn -0.6894 0.6657 0.2856
vn -0.6894 -0.6657 0.2856
usemtl None.009
s off
f 1/1/1 4/2/1 3/3/1 2/4/1
f 5/5/2 8/6/2 7/7/2 6/8/2
f 9/9/3 10/10/3 11/11/3 12/12/3
f 13/13/2 9/9/2 12/12/2 14/14/2
f 15/15/4 13/13/4 14/14/4 16/16/4
f 10/10/1 15/17/1 16/18/1 11/11/1
f 17/19/1 18/20/1 19/21/1 20/22/1
f 20/23/4 19/24/4 21/25/4 22/26/4
f 22/26/2 21/25/2 23/27/2 24/28/2
f 24/28/3 23/27/3 18/20/3 17/19/3
f 21/29/5 19/30/5 18/20/5 23/27/5
f 25/31/1 26/32/1 27/33/1 28/34/1
f 28/35/4 27/36/4 29/37/4 30/38/4
f 30/38/2 29/37/2 31/39/2 32/40/2
f 32/40/3 31/39/3 26/32/3 25/31/3
f 28/41/6 30/42/6 32/40/6 25/31/6
f 29/43/5 27/44/5 26/32/5 31/39/5
f 33/45/3 34/46/3 35/47/3 36/48/3
f 37/49/2 33/45/2 36/48/2 38/50/2
f 39/51/4 37/49/4 38/50/4 40/52/4
f 34/46/1 39/53/1 40/54/1 35/47/1
f 41/55/1 42/56/1 43/57/1 44/58/1
f 44/59/4 43/60/4 45/61/4 46/62/4
f 46/62/2 45/61/2 47/63/2 48/64/2
f 48/64/3 47/63/3 42/56/3 41/55/3
f 45/65/5 43/66/5 42/56/5 47/63/5
f 49/67/1 50/68/1 51/69/1 52/70/1
f 52/71/4 51/72/4 53/73/4 54/74/4
f 54/74/2 53/73/2 55/75/2 56/76/2
f 56/76/3 55/75/3 50/68/3 49/67/3
f 52/77/6 54/78/6 56/76/6 49/67/6
f 53/79/5 51/80/5 50/68/5 55/75/5
f 57/81/1 58/82/1 59/83/1 60/84/1
f 61/85/2 62/86/2 63/87/2 64/88/2
f 64/89/3 63/87/3 58/82/3 57/90/3
f 60/84/6 61/91/6 64/92/6 57/81/6
f 62/86/5 59/83/5 58/82/5 63/87/5
f 65/93/1 66/94/1 67/95/1 68/96/1
f 68/97/4 67/95/4 69/98/4 70/99/4
f 70/100/2 69/98/2 71/101/2 72/102/2
f 72/103/3 71/101/3 66/94/3 65/104/3
f 68/105/6 70/106/6 72/103/6 65/104/6
f 69/98/5 67/95/5 66/94/5 71/101/5
f 73/107/7 74/108/7 75/109/7 76/110/7
f 76/110/8 75/109/8 77/111/8 78/112/8
f 78/112/9 77/111/9 79/113/9 80/114/9
f 80/114/10 79/113/10 74/115/10 73/116/10
f 81/117/4 82/118/4 83/119/4 84/120/4
f 85/121/3 86/122/3 87/123/3 88/124/3
f 81/125/6 84/126/6 85/121/6 88/124/6
f 83/119/5 82/118/5 87/123/5 86/122/5
f 89/127/4 90/128/4 91/129/4 92/130/4
f 93/131/3 94/132/3 95/133/3 96/134/3
f 89/135/6 94/132/6 93/131/6 90/136/6
f 91/129/5 96/134/5 95/133/5 92/130/5
f 97/137/1 98/138/1 99/139/1 100/140/1
f 100/141/4 99/139/4 101/142/4 102/143/4
f 102/144/2 101/142/2 103/145/2 104/146/2
f 104/147/3 103/145/3 98/138/3 97/148/3
f 100/149/6 102/150/6 104/147/6 97/148/6
f 101/142/5 99/139/5 98/138/5 103/145/5
f 105/151/1 106/152/1 107/153/1 108/154/1
f 109/155/2 110/156/2 111/157/2 112/158/2
f 112/158/3 111/157/3 106/152/3 105/151/3
f 113/159/2 114/160/2 115/161/2 116/162/2
f 117/163/1 118/164/1 119/165/1 120/166/1
f 118/164/3 113/159/3 116/162/3 119/165/3
f 121/167/1 122/168/1 123/169/1 124/170/1
f 125/171/2 126/172/2 127/173/2 128/174/2
f 128/174/3 127/173/3 122/168/3 121/167/3
f 129/175/1 130/176/1 131/177/1 132/178/1
f 132/179/4 131/177/4 133/180/4 134/181/4
f 134/182/2 133/180/2 135/183/2 136/184/2
f 136/185/3 135/183/3 130/176/3 129/186/3
f 132/179/6 134/181/6 136/187/6 129/188/6
f 133/180/5 131/177/5 130/176/5 135/183/5
f 137/189/1 138/190/1 139/191/1 140/192/1
f 140/192/4 139/191/4 141/193/4 142/194/4
f 142/195/2 141/196/2 143/197/2 144/198/2
f 140/199/6 142/200/6 144/198/6 137/189/6
f 145/201/2 148/202/2 147/203/2 146/204/2
f 149/205/1 152/206/1 151/207/1 150/208/1
f 153/209/5 154/210/5 152/206/5 149/205/5
f 155/211/3 138/190/3 137/189/3 154/212/3
f 152/213/3 144/198/3 143/197/3 151/214/3
f 154/212/3 137/189/3 144/198/3 152/213/3
f 148/215/5 145/201/5 157/216/5 156/217/5
f 156/218/1 157/216/1 159/219/1 158/220/1
f 154/210/2 153/209/2 160/221/2 155/222/2
f 148/223/3 156/218/3 158/220/3 147/224/3
f 145/201/3 157/216/3 149/225/3 153/226/3
f 157/216/3 159/219/3 150/227/3 149/225/3
f 146/204/3 145/201/3 153/226/3 160/228/3
s 1
f 161/229/11 162/230/12 163/231/13 164/232/14
f 164/232/14 163/231/13 165/233/15 166/234/16
f 166/234/16 165/233/15 167/235/17 168/236/18
f 168/236/18 167/235/17 169/237/19 170/238/20
f 170/238/20 169/237/19 171/239/21 172/240/22
f 172/240/22 171/239/21 173/241/23 174/242/24
f 174/242/24 173/241/23 175/243/25 176/244/26
f 176/244/26 175/243/25 177/245/27 178/246/28
f 178/246/28 177/245/27 179/247/29 180/248/30
f 180/248/30 179/247/29 181/249/31 182/250/32
f 182/250/32 181/249/31 183/251/33 184/252/34
f 184/252/34 183/251/33 185/253/35 186/254/36
f 186/254/36 185/253/35 187/255/37 188/256/38
f 188/256/38 187/255/37 189/257/39 190/258/40
f 179/259/29 177/260/27 191/261/5
f 190/258/40 189/257/39 192/262/41 193/263/42
f 193/263/42 192/262/41 162/264/12 161/265/11
f 164/266/14 166/267/16 194/268/6
f 189/269/39 187/270/37 191/261/5
f 165/271/15 163/272/13 191/261/5
f 175/273/25 173/274/23 191/261/5
f 185/275/35 183/276/33 191/261/5
f 171/277/21 169/278/19 191/261/5
f 181/279/31 179/259/29 191/261/5
f 192/280/41 189/269/39 191/261/5
f 167/281/17 165/271/15 191/261/5
f 177/260/27 175/273/25 191/261/5
f 163/272/13 162/282/12 191/261/5
f 187/270/37 185/275/35 191/261/5
f 173/274/23 171/277/21 191/261/5
f 183/276/33 181/279/31 191/261/5
f 162/282/12 192/280/41 191/261/5
f 169/278/19 167/281/17 191/261/5
f 174/283/24 176/284/26 194/268/6
f 184/285/34 186/286/36 194/268/6
f 170/287/20 172/288/22 194/268/6
f 180/289/30 182/290/32 194/268/6
f 190/291/40 193/292/42 194/268/6
f 166/267/16 168/293/18 194/268/6
f 176/284/26 178/294/28 194/268/6
f 161/295/11 164/266/14 194/268/6
f 186/286/36 188/296/38 194/268/6
f 172/288/22 174/283/24 194/268/6
f 182/290/32 184/285/34 194/268/6
f 193/292/42 161/295/11 194/268/6
f 168/293/18 170/287/20 194/268/6
f 178/294/28 180/289/30 194/268/6
f 188/296/38 190/291/40 194/268/6
