# Blender v3.0.0 OBJ File: 'Antenna.blend'
# www.blender.org
mtllib Antenna.mtl
o Cube.001
v 0.037633 0.553015 -0.251032
v 0.392053 1.587965 -0.466782
v 0.013089 0.545662 -0.326624
v 0.367510 1.580612 -0.542375
v 0.113013 0.540952 -0.274333
v 0.446825 1.536540 -0.479564
v 0.088469 0.533599 -0.349926
v 0.422281 1.529187 -0.555156
v 0.749362 2.077441 -0.630409
v 0.724818 2.070087 -0.706002
v 0.770440 1.991424 -0.719062
v 0.798420 1.999806 -0.632886
v 0.966518 2.200907 -0.723461
v 0.948110 2.195392 -0.780156
v 1.002011 2.117288 -0.800594
v 1.026555 2.124642 -0.725001
v 0.890983 1.959694 -0.738680
v 0.909391 1.965209 -0.681985
v 1.021747 2.014639 -0.786482
v 1.040155 2.020154 -0.729787
v 0.011227 0.551601 -0.284459
v 0.212668 1.116828 -0.362708
v 0.369512 1.593931 -0.502182
v 0.188124 1.109475 -0.438301
v 0.046177 0.538252 -0.352449
v 0.390293 1.553521 -0.562939
v 0.253581 1.076146 -0.456312
v 0.114875 0.535014 -0.316499
v 0.444823 1.523221 -0.519756
v 0.278125 1.083499 -0.380719
v 0.079925 0.548363 -0.248509
v 0.424041 1.563632 -0.458999
v 0.730644 2.087047 -0.667405
v 0.738448 2.032470 -0.723641
v 0.753428 1.955745 -0.662030
v 0.772820 2.042768 -0.617780
v 0.551607 1.890889 -0.632331
v 0.595220 1.825871 -0.640799
v 0.620132 1.833334 -0.564072
v 0.576151 1.898242 -0.556739
v 0.969168 2.210241 -0.756834
v 0.976508 2.170605 -0.795695
v 1.046974 2.134701 -0.774748
v 1.000000 2.177644 -0.723340
v 0.904122 2.073781 -0.781451
v 0.938493 2.084080 -0.675590
v 0.889748 2.171972 -0.686990
v 0.866255 2.164934 -0.759346
v 0.888765 1.949299 -0.705345
v 1.048184 2.016284 -0.763622
v 0.957254 1.979430 -0.769042
v 0.979695 1.986154 -0.699924
v 0.849848 1.981808 -0.736837
v 0.873709 1.988956 -0.663348
v 1.045986 2.064766 -0.727290
v 1.022493 2.057727 -0.799645
v 0.188122 1.119401 -0.397128
v 0.216250 1.091432 -0.461480
v 0.278126 1.073573 -0.421892
v 0.249998 1.101542 -0.357540
v 0.829753 1.968226 -0.688025
v 0.568927 1.857499 -0.650667
v 0.613047 1.815264 -0.602785
v 0.555751 1.906539 -0.593060
v 0.602767 1.867638 -0.546443
v 1.019389 2.187908 -0.770967
v 0.873896 2.182272 -0.723180
v 0.912948 2.136588 -0.673658
v 0.879307 2.126509 -0.777269
v 0.974572 1.967825 -0.735007
v 0.966165 2.029342 -0.682602
v 0.933745 2.019629 -0.782450
v 1.065905 2.073728 -0.774963
v 0.037633 0.553015 0.251032
v 0.392053 1.587965 0.466782
v 0.013089 0.545662 0.326624
v 0.367510 1.580612 0.542375
v 0.113013 0.540952 0.274333
v 0.446825 1.536540 0.479564
v 0.088469 0.533599 0.349926
v 0.422281 1.529187 0.555156
v 0.749362 2.077441 0.630409
v 0.724818 2.070087 0.706002
v 0.770440 1.991424 0.719062
v 0.798420 1.999806 0.632886
v 0.966518 2.200907 0.723461
v 0.948110 2.195392 0.780156
v 1.002011 2.117288 0.800594
v 1.026555 2.124642 0.725001
v 0.890983 1.959694 0.738680
v 0.909391 1.965209 0.681985
v 1.021747 2.014639 0.786482
v 1.040155 2.020154 0.729787
v 0.011227 0.551601 0.284459
v 0.212668 1.116828 0.362708
v 0.369512 1.593931 0.502182
v 0.188124 1.109475 0.438301
v 0.046177 0.538252 0.352449
v 0.390293 1.553521 0.562939
v 0.253581 1.076146 0.456312
v 0.114875 0.535014 0.316499
v 0.444823 1.523221 0.519756
v 0.278125 1.083499 0.380719
v 0.079925 0.548363 0.248509
v 0.424041 1.563632 0.458999
v 0.730644 2.087047 0.667405
v 0.738448 2.032470 0.723641
v 0.753428 1.955745 0.662030
v 0.772820 2.042768 0.617780
v 0.551607 1.890889 0.632331
v 0.595220 1.825871 0.640799
v 0.620132 1.833334 0.564072
v 0.576151 1.898242 0.556739
v 0.969168 2.210241 0.756834
v 0.976508 2.170605 0.795695
v 1.046974 2.134701 0.774748
v 1.000000 2.177644 0.723340
v 0.904122 2.073781 0.781451
v 0.938493 2.084080 0.675590
v 0.889748 2.171972 0.686990
v 0.866255 2.164934 0.759346
v 0.888765 1.949299 0.705345
v 1.048184 2.016284 0.763622
v 0.957254 1.979430 0.769042
v 0.979695 1.986154 0.699924
v 0.849848 1.981808 0.736837
v 0.873709 1.988956 0.663348
v 1.045986 2.064766 0.727290
v 1.022493 2.057727 0.799645
v 0.188122 1.119401 0.397128
v 0.216250 1.091432 0.461480
v 0.278126 1.073573 0.421892
v 0.249998 1.101542 0.357540
v 0.829753 1.968226 0.688025
v 0.568927 1.857499 0.650667
v 0.613047 1.815264 0.602785
v 0.555751 1.906539 0.593060
v 0.602767 1.867638 0.546443
v 1.019389 2.187908 0.770967
v 0.873896 2.182272 0.723180
v 0.912948 2.136588 0.673658
v 0.879307 2.126509 0.777269
v 0.974572 1.967825 0.735007
v 0.966165 2.029342 0.682602
v 0.933745 2.019629 0.782450
v 1.065905 2.073728 0.774963
vt 0.325025 0.014827
vt 0.277697 0.301290
vt 0.257203 0.298925
vt 0.304955 0.010125
vt 0.247029 0.547453
vt 0.226381 0.547748
vt 0.455270 0.701072
vt 0.424449 0.452250
vt 0.445097 0.452545
vt 0.475765 0.698708
vt 0.503023 0.989875
vt 0.523092 0.985173
vt 0.495357 0.697448
vt 0.542628 0.978239
vt 0.464555 0.455786
vt 0.483798 0.459053
vt 0.514828 0.696195
vt 0.562049 0.971339
vt 0.535178 0.693758
vt 0.581986 0.966592
vt 0.504273 0.459290
vt 0.337110 0.306239
vt 0.306205 0.540708
vt 0.285730 0.540945
vt 0.316760 0.303803
vt 0.383919 0.033407
vt 0.363981 0.028661
vt 0.297289 0.302550
vt 0.344560 0.021761
vt 0.266487 0.544212
vt 0.302402 0.837181
vt 0.318949 0.806190
vt 0.338248 0.840416
vt 0.332538 0.865878
vt 0.517017 0.193808
vt 0.500470 0.162817
vt 0.530606 0.134121
vt 0.536316 0.159582
vt 0.550388 0.124962
vt 0.559080 0.138716
vt 0.361012 0.861282
vt 0.352320 0.875037
vt 0.461189 0.280336
vt 0.480153 0.286860
vt 0.441873 0.274265
vt 0.455408 0.150609
vt 0.475378 0.157643
vt 0.302393 0.707889
vt 0.282085 0.713138
vt 0.500461 0.292109
vt 0.421441 0.271346
vt 0.243805 0.725733
vt 0.223372 0.728652
vt 0.257340 0.849389
vt 0.237350 0.854423
vt 0.435419 0.145576
vt 0.263121 0.719661
vt 0.277310 0.842355
vt 0.530694 0.039675
vt 0.506301 0.033765
vt 0.510414 0.010125
vt 0.538823 0.016325
vt 0.489528 0.036409
vt 0.484131 0.021019
vt 0.312346 0.989874
vt 0.286063 0.978980
vt 0.291460 0.963590
vt 0.308232 0.966233
vt 0.340755 0.983674
vt 0.332626 0.960324
vt 0.455958 0.061395
vt 0.473179 0.070180
vt 0.275111 0.929819
vt 0.257890 0.938604
vt 0.293820 0.923164
vt 0.318313 0.915818
vt 0.491888 0.076834
vt 0.516381 0.084181
vt 0.381647 0.900097
vt 0.363483 0.905232
vt 0.561551 0.094766
vt 0.579715 0.099902
vt 0.567953 0.064445
vt 0.581986 0.056058
vt 0.383919 0.943940
vt 0.369885 0.935554
vt 0.343497 0.910527
vt 0.356978 0.949130
vt 0.541565 0.089472
vt 0.555046 0.050869
vt 0.566582 0.029900
vt 0.368515 0.970099
vt 0.145559 0.985172
vt 0.125490 0.989874
vt 0.077737 0.701074
vt 0.098232 0.698709
vt 0.046915 0.452251
vt 0.067563 0.452546
vt 0.619234 0.298928
vt 0.639728 0.301292
vt 0.609060 0.547455
vt 0.588412 0.547750
vt 0.666986 0.010125
vt 0.687055 0.014826
vt 0.706591 0.021760
vt 0.659320 0.302552
vt 0.628518 0.544214
vt 0.678791 0.303805
vt 0.647761 0.540947
vt 0.726012 0.028661
vt 0.745950 0.033408
vt 0.699141 0.306242
vt 0.668236 0.540709
vt 0.157644 0.693760
vt 0.137295 0.696196
vt 0.106264 0.459054
vt 0.126739 0.459291
vt 0.204453 0.966591
vt 0.184515 0.971338
vt 0.165094 0.978238
vt 0.117823 0.697449
vt 0.087021 0.455786
vt 0.122936 0.162818
vt 0.153072 0.134121
vt 0.158782 0.159583
vt 0.139483 0.193809
vt 0.680980 0.806192
vt 0.700279 0.840418
vt 0.694569 0.865879
vt 0.664434 0.837183
vt 0.723043 0.861284
vt 0.714351 0.875038
vt 0.172854 0.124962
vt 0.181546 0.138717
vt 0.644116 0.713139
vt 0.625152 0.719663
vt 0.605837 0.725735
vt 0.639341 0.842357
vt 0.619371 0.849391
vt 0.102619 0.286861
vt 0.122927 0.292110
vt 0.664424 0.707891
vt 0.585404 0.728653
vt 0.043907 0.271348
vt 0.064339 0.274266
vt 0.057884 0.145576
vt 0.077874 0.150610
vt 0.599382 0.854424
vt 0.083655 0.280338
vt 0.097844 0.157643
vt 0.694657 0.960325
vt 0.702786 0.983675
vt 0.674377 0.989875
vt 0.670264 0.966235
vt 0.648094 0.978981
vt 0.653491 0.963591
vt 0.132880 0.010125
vt 0.128767 0.033765
vt 0.111994 0.036409
vt 0.106597 0.021019
vt 0.161289 0.016325
vt 0.153160 0.039675
vt 0.637142 0.929820
vt 0.619921 0.938605
vt 0.078424 0.061395
vt 0.095645 0.070180
vt 0.114354 0.076835
vt 0.138847 0.084181
vt 0.680344 0.915819
vt 0.655851 0.923166
vt 0.184017 0.094767
vt 0.202181 0.099902
vt 0.743678 0.900099
vt 0.725514 0.905234
vt 0.745950 0.943942
vt 0.731916 0.935555
vt 0.190419 0.064445
vt 0.204453 0.056059
vt 0.177512 0.050869
vt 0.164032 0.089472
vt 0.705528 0.910528
vt 0.719009 0.949131
vt 0.730546 0.970100
vt 0.189049 0.029900
vn -0.4647 0.3087 0.8299
vn -0.4375 0.3266 0.8378
vn -0.8957 0.3640 0.2554
vn -0.9057 0.3335 0.2616
vn -0.4184 0.4080 0.8114
vn -0.8498 0.4743 0.2298
vn -0.8350 0.2832 -0.4716
vn -0.8613 0.1996 -0.4672
vn -0.8777 0.1849 -0.4420
vn -0.3137 -0.0896 -0.9452
vn -0.3462 -0.0772 -0.9350
vn -0.3288 -0.0856 -0.9405
vn 0.3979 -0.3954 -0.8278
vn 0.4293 -0.3200 -0.8445
vn 0.4069 -0.2935 -0.8650
vn 0.8986 -0.3556 -0.2571
vn 0.9077 -0.3272 -0.2629
vn 0.8578 -0.4577 -0.2340
vn 0.8272 -0.2668 0.4945
vn 0.8581 -0.1916 0.4763
vn 0.8504 -0.1606 0.5009
vn 0.3012 0.0946 0.9488
vn 0.2682 0.1068 0.9574
vn 0.2860 0.0986 0.9531
vn 0.4175 -0.3824 0.8243
vn 0.5275 -0.8449 -0.0891
vn -0.0453 -0.9927 0.1113
vn 0.1952 -0.4428 0.8751
vn -0.1199 -0.5434 -0.8308
vn -0.3263 -0.5991 -0.7312
vn -0.1913 -0.7860 -0.5879
vn -0.0784 -0.9894 0.1217
vn 0.2318 -0.6592 0.7153
vn -0.3591 -0.0602 -0.9313
vn 0.3035 -0.5228 -0.7966
vn -0.7609 0.4049 -0.5070
vn -0.6519 0.5111 -0.5602
vn -0.3849 -0.0008 -0.9229
vn 0.7513 -0.6343 -0.1822
vn 0.7397 -0.3921 0.5468
vn -0.7463 0.6408 0.1800
vn -0.3446 0.5296 0.7750
vn -0.2312 0.6371 0.7353
vn -0.6029 0.7889 0.1190
vn 0.2546 0.1237 0.9591
vn 0.2255 0.1820 0.9571
vn 0.1420 0.0933 -0.9854
vn 0.0464 0.3547 -0.9338
vn 0.6748 0.6806 -0.2853
vn 0.8726 0.3696 -0.3193
vn -0.2264 0.6835 -0.6939
vn 0.1131 0.9847 -0.1325
vn 0.1819 0.8058 0.5635
vn 0.5614 0.5090 0.6524
vn 0.6838 0.2557 0.6834
vn -0.4123 0.9099 0.0454
vn -0.4965 0.6021 -0.6252
vn -0.0726 0.7291 0.6805
vn 0.2778 0.2715 0.9214
vn 0.3748 0.0548 0.9254
vn -0.3268 0.0903 -0.9408
vn -0.2382 -0.1288 -0.9626
vn 0.3771 -0.9256 -0.0324
vn 0.4869 -0.5705 0.6614
vn 0.0419 -0.7038 -0.7092
vn 0.3045 -0.5455 -0.7808
vn 0.7966 -0.5692 -0.2033
vn 0.7326 -0.4173 0.5377
vn 0.3996 -0.0909 0.9121
vn 0.7678 0.0199 0.6403
vn -0.2020 -0.2712 -0.9410
vn 0.2485 -0.1356 -0.9591
vn 0.9497 0.0314 -0.3114
vn -0.4647 0.3087 -0.8299
vn -0.9057 0.3335 -0.2616
vn -0.8957 0.3640 -0.2554
vn -0.4375 0.3266 -0.8378
vn -0.8498 0.4743 -0.2298
vn -0.4184 0.4080 -0.8114
vn -0.8613 0.1996 0.4672
vn -0.8350 0.2832 0.4716
vn -0.8777 0.1849 0.4420
vn -0.3462 -0.0772 0.9350
vn -0.3137 -0.0896 0.9452
vn -0.3288 -0.0856 0.9405
vn 0.4293 -0.3200 0.8445
vn 0.3979 -0.3954 0.8278
vn 0.4069 -0.2935 0.8650
vn 0.9077 -0.3272 0.2629
vn 0.8986 -0.3556 0.2571
vn 0.8578 -0.4577 0.2340
vn 0.8581 -0.1916 -0.4763
vn 0.8272 -0.2668 -0.4945
vn 0.8504 -0.1606 -0.5009
vn 0.2682 0.1068 -0.9574
vn 0.3012 0.0946 -0.9488
vn 0.2860 0.0986 -0.9531
vn 0.4175 -0.3824 -0.8243
vn 0.1952 -0.4428 -0.8751
vn -0.0453 -0.9927 -0.1113
vn 0.5275 -0.8449 0.0891
vn -0.3263 -0.5991 0.7312
vn -0.1199 -0.5434 0.8308
vn -0.0784 -0.9894 -0.1217
vn -0.1913 -0.7860 0.5879
vn 0.2318 -0.6592 -0.7153
vn 0.3035 -0.5228 0.7966
vn -0.3591 -0.0602 0.9313
vn -0.7609 0.4049 0.5070
vn -0.3849 -0.0008 0.9229
vn -0.6519 0.5111 0.5602
vn 0.7397 -0.3921 -0.5468
vn 0.7513 -0.6343 0.1822
vn -0.7463 0.6408 -0.1800
vn -0.3446 0.5296 -0.7750
vn -0.6029 0.7889 -0.1190
vn -0.2312 0.6371 -0.7353
vn 0.2546 0.1237 -0.9591
vn 0.2255 0.1820 -0.9571
vn 0.1420 0.0933 0.9854
vn 0.8726 0.3696 0.3193
vn 0.6748 0.6806 0.2853
vn 0.0464 0.3547 0.9338
vn 0.1131 0.9847 0.1325
vn -0.2264 0.6835 0.6939
vn 0.5614 0.5090 -0.6524
vn 0.1819 0.8058 -0.5635
vn 0.6838 0.2557 -0.6834
vn -0.4965 0.6021 0.6252
vn -0.4123 0.9099 -0.0454
vn -0.0726 0.7291 -0.6805
vn 0.2778 0.2715 -0.9214
vn 0.3748 0.0548 -0.9254
vn -0.2382 -0.1288 0.9626
vn -0.3268 0.0903 0.9408
vn 0.4869 -0.5705 -0.6614
vn 0.3771 -0.9256 0.0324
vn 0.0419 -0.7038 0.7092
vn 0.7966 -0.5692 0.2033
vn 0.3045 -0.5455 0.7808
vn 0.7326 -0.4173 -0.5377
vn 0.7678 0.0199 -0.6403
vn 0.3996 -0.0909 -0.9121
vn -0.2020 -0.2712 0.9410
vn 0.2485 -0.1356 0.9591
vn 0.9497 0.0314 0.3114
usemtl None
s 1
f 1/1/1 22/2/2 57/3/3 21/4/4
f 22/2/2 2/5/5 23/6/6 57/3/3
f 57/7/3 23/8/6 4/9/7 24/10/8
f 21/11/4 57/7/3 24/10/8 3/12/9
f 3/12/9 24/10/8 58/13/10 25/14/11
f 24/10/8 4/9/7 26/15/12 58/13/10
f 58/13/10 26/15/12 8/16/13 27/17/14
f 25/14/11 58/13/10 27/17/14 7/18/15
f 7/18/15 27/17/14 59/19/16 28/20/17
f 27/17/14 8/16/13 29/21/18 59/19/16
f 59/22/16 29/23/18 6/24/19 30/25/20
f 28/26/17 59/22/16 30/25/20 5/27/21
f 5/27/21 30/25/20 60/28/22 31/29/23
f 30/25/20 6/24/19 32/30/24 60/28/22
f 60/28/22 32/30/24 2/5/5 22/2/2
f 31/29/23 60/28/22 22/2/2 1/1/1
f 12/31/25 35/32/26 61/33/27 54/34/28
f 35/35/26 11/36/29 53/37/30 61/38/27
f 61/38/27 53/37/30 17/39/31 49/40/32
f 54/34/28 61/33/27 49/41/32 18/42/33
f 8/16/13 26/15/12 62/43/34 38/44/35
f 26/15/12 4/9/7 37/45/36 62/43/34
f 62/43/34 37/45/36 10/46/37 34/47/38
f 38/44/35 62/43/34 34/47/38 11/36/29
f 6/24/19 29/23/18 63/48/39 39/49/40
f 29/21/18 8/16/13 38/44/35 63/50/39
f 63/50/39 38/44/35 11/36/29 35/35/26
f 39/49/40 63/48/39 35/32/26 12/31/25
f 4/9/7 23/8/6 64/51/41 37/45/36
f 23/6/6 2/5/5 40/52/42 64/53/41
f 64/53/41 40/52/42 9/54/43 33/55/44
f 37/45/36 64/51/41 33/56/44 10/46/37
f 2/5/5 32/30/24 65/57/45 40/52/42
f 32/30/24 6/24/19 39/49/40 65/57/45
f 65/57/45 39/49/40 12/31/25 36/58/46
f 40/52/42 65/57/45 36/58/46 9/54/43
f 15/59/47 42/60/48 66/61/49 43/62/50
f 42/60/48 14/63/51 41/64/52 66/61/49
f 66/65/49 41/66/52 13/67/53 44/68/54
f 43/69/50 66/65/49 44/68/54 16/70/55
f 10/46/37 33/56/44 67/71/56 48/72/57
f 33/55/44 9/54/43 47/73/58 67/74/56
f 67/74/56 47/73/58 13/67/53 41/66/52
f 48/72/57 67/71/56 41/64/52 14/63/51
f 9/54/43 36/58/46 68/75/59 47/73/58
f 36/58/46 12/31/25 46/76/60 68/75/59
f 68/75/59 46/76/60 16/70/55 44/68/54
f 47/73/58 68/75/59 44/68/54 13/67/53
f 11/36/29 34/47/38 69/77/61 45/78/62
f 34/47/38 10/46/37 48/72/57 69/77/61
f 69/77/61 48/72/57 14/63/51 42/60/48
f 45/78/62 69/77/61 42/60/48 15/59/47
f 18/42/33 49/41/32 70/79/63 52/80/64
f 49/40/32 17/39/31 51/81/65 70/82/63
f 70/82/63 51/81/65 19/83/66 50/84/67
f 52/80/64 70/79/63 50/85/67 20/86/68
f 16/70/55 46/76/60 71/87/69 55/88/70
f 46/76/60 12/31/25 54/34/28 71/87/69
f 71/87/69 54/34/28 18/42/33 52/80/64
f 55/88/70 71/87/69 52/80/64 20/86/68
f 11/36/29 45/78/62 72/89/71 53/37/30
f 45/78/62 15/59/47 56/90/72 72/89/71
f 72/89/71 56/90/72 19/83/66 51/81/65
f 53/37/30 72/89/71 51/81/65 17/39/31
f 15/59/47 43/62/50 73/91/73 56/90/72
f 43/69/50 16/70/55 55/88/70 73/92/73
f 73/92/73 55/88/70 20/86/68 50/85/67
f 56/90/72 73/91/73 50/84/67 19/83/66
f 74/93/74 94/94/75 130/95/76 95/96/77
f 95/96/77 130/95/76 96/97/78 75/98/79
f 130/99/76 97/100/80 77/101/81 96/102/78
f 94/103/75 76/104/82 97/100/80 130/99/76
f 76/104/82 98/105/83 131/106/84 97/100/80
f 97/100/80 131/106/84 99/107/85 77/101/81
f 131/106/84 100/108/86 81/109/87 99/107/85
f 98/105/83 80/110/88 100/108/86 131/106/84
f 80/110/88 101/111/89 132/112/90 100/108/86
f 100/108/86 132/112/90 102/113/91 81/109/87
f 132/114/90 103/115/92 79/116/93 102/117/91
f 101/118/89 78/119/94 103/115/92 132/114/90
f 78/119/94 104/120/95 133/121/96 103/115/92
f 103/115/92 133/121/96 105/122/97 79/116/93
f 133/121/96 95/96/77 75/98/79 105/122/97
f 104/120/95 74/93/74 95/96/77 133/121/96
f 85/123/98 127/124/99 134/125/100 108/126/101
f 108/127/101 134/128/100 126/129/102 84/130/103
f 134/128/100 122/131/104 90/132/105 126/129/102
f 127/124/99 91/133/106 122/134/104 134/125/100
f 81/109/87 111/135/107 135/136/108 99/107/85
f 99/107/85 135/136/108 110/137/109 77/101/81
f 135/136/108 107/138/110 83/139/111 110/137/109
f 111/135/107 84/130/103 107/138/110 135/136/108
f 79/116/93 112/140/112 136/141/113 102/117/91
f 102/113/91 136/142/113 111/135/107 81/109/87
f 136/142/113 108/127/101 84/130/103 111/135/107
f 112/140/112 85/123/98 108/126/101 136/141/113
f 77/101/81 110/137/109 137/143/114 96/102/78
f 96/97/78 137/144/114 113/145/115 75/98/79
f 137/144/114 106/146/116 82/147/117 113/145/115
f 110/137/109 83/139/111 106/148/116 137/143/114
f 75/98/79 113/145/115 138/149/118 105/122/97
f 105/122/97 138/149/118 112/140/112 79/116/93
f 138/149/118 109/150/119 85/123/98 112/140/112
f 113/145/115 82/147/117 109/150/119 138/149/118
f 88/151/120 116/152/121 139/153/122 115/154/123
f 115/154/123 139/153/122 114/155/124 87/156/125
f 139/157/122 117/158/126 86/159/127 114/160/124
f 116/161/121 89/162/128 117/158/126 139/157/122
f 83/139/111 121/163/129 140/164/130 106/148/116
f 106/146/116 140/165/130 120/166/131 82/147/117
f 140/165/130 114/160/124 86/159/127 120/166/131
f 121/163/129 87/156/125 114/155/124 140/164/130
f 82/147/117 120/166/131 141/167/132 109/150/119
f 109/150/119 141/167/132 119/168/133 85/123/98
f 141/167/132 117/158/126 89/162/128 119/168/133
f 120/166/131 86/159/127 117/158/126 141/167/132
f 84/130/103 118/169/134 142/170/135 107/138/110
f 107/138/110 142/170/135 121/163/129 83/139/111
f 142/170/135 115/154/123 87/156/125 121/163/129
f 118/169/134 88/151/120 115/154/123 142/170/135
f 91/133/106 125/171/136 143/172/137 122/134/104
f 122/131/104 143/173/137 124/174/138 90/132/105
f 143/173/137 123/175/139 92/176/140 124/174/138
f 125/171/136 93/177/141 123/178/139 143/172/137
f 89/162/128 128/179/142 144/180/143 119/168/133
f 119/168/133 144/180/143 127/124/99 85/123/98
f 144/180/143 125/171/136 91/133/106 127/124/99
f 128/179/142 93/177/141 125/171/136 144/180/143
f 84/130/103 126/129/102 145/181/144 118/169/134
f 118/169/134 145/181/144 129/182/145 88/151/120
f 145/181/144 124/174/138 92/176/140 129/182/145
f 126/129/102 90/132/105 124/174/138 145/181/144
f 88/151/120 129/182/145 146/183/146 116/152/121
f 116/161/121 146/184/146 128/179/142 89/162/128
f 146/184/146 123/178/139 93/177/141 128/179/142
f 129/182/145 92/176/140 123/175/139 146/183/146
