# File produced by Open Asset Import Library (http://www.assimp.sf.net)
# (assimp v3.1.243586452)

mtllib hat_201.mtl

# vertex positions
v 0.870551 -1.846382 -0.742489
v 1.090130 -1.846382 -0.742489
v 1.090130 -1.846382 -0.514840
v 0.870551 -1.846382 -0.514840
v 0.870551 -1.846382 0.514840
v 0.870551 -1.500633 0.742489
v 0.870551 -1.500633 -0.742489
v 1.090130 -1.500633 -0.742489
v 0.827985 -0.623854 0.416889
v 1.090130 -0.623854 0.416889
v 1.090130 -0.623854 -0.416889
v 0.827985 -0.623854 -0.416889
v 1.090130 -2.188162 -0.514840
v 0.870551 -2.188162 -0.514840
v 0.870551 -1.078920 -0.977878
v 0.870551 -1.078921 0.977878
v 0.870551 -1.500633 -0.977878
v 1.090130 -1.500633 -0.977878
v 1.090130 -1.500633 0.742489
v 1.090130 -1.846382 0.514840
v 0.870551 -2.188162 0.514840
v 1.090130 -2.188162 0.514840
v 1.090130 -1.078920 -0.977878
v 1.090130 -1.846382 0.742489
v 0.870551 -1.846382 0.742489
v -0.260925 -0.441126 -1.086970
v 0.647639 -0.221045 -1.086970
v 1.090130 -0.221045 -1.086970
v 1.090130 -1.078920 -1.086970
v -0.260925 -1.078921 1.086970
v -0.260925 -1.078920 -1.086970
v 1.090130 -0.313198 -0.416889
v 0.827985 -0.313198 -0.416889
v 0.870551 -1.500633 0.977878
v 1.090130 -1.500633 0.977878
v 1.090130 -0.313199 0.416889
v 0.827985 -0.313199 0.416889
v 1.090130 -1.078921 0.977878
v -0.260925 -0.441126 1.086971
v 1.090130 -0.221045 -0.638430
v 1.090130 -0.221045 0.638431
v 1.090130 -0.221045 1.086971
v 1.090130 -1.078921 1.086970
v 1.090130 -0.053638 -0.638430
v 1.090130 -0.053638 0.638431
v 0.647639 -0.221045 1.086971
v 0.647639 0.669961 0.184359
v 0.647639 0.534534 -0.184359
v 0.647639 0.752116 -0.184359
v 0.647639 0.752116 0.184359
v 0.647659 -0.053638 -0.638430
v 0.647659 -0.221045 -0.638430
v 0.647659 -0.053638 0.638431
v 0.647659 -0.221045 0.638431
v 1.084290 0.534534 -0.184359
v 1.084290 0.752116 -0.184359
v -1.016567 -0.441126 -1.086970
v 0.647639 0.669961 -1.086970
v 1.084290 0.669961 -1.086970
v 1.084290 0.669961 -0.638430
v 0.647639 0.669961 -0.638430
v 1.084290 0.534534 -0.638430
v 0.647639 0.534534 -0.638430
v 1.084290 0.752098 0.184359
v 1.084290 0.669961 0.184359
v 0.647639 0.669961 1.086971
v 1.084290 0.669961 1.086971
v 1.084290 1.096575 1.086971
v -1.016567 1.096575 1.086971
v 1.084290 1.096575 -1.086970
v -1.016567 -0.441126 1.086971
v -1.016567 1.096575 -1.086970

# UV coordinates
vt 0.248767 0.546955
vt 0.248767 0.517698
vt 0.218435 0.517698
vt 0.218435 0.546955
vt 0.081239 0.546955
vt 0.050906 0.593023
vt 0.248767 0.593023
vt 0.294836 0.546955
vt 0.294836 0.517698
vt 0.341207 0.061863
vt 0.341207 0.026934
vt 0.230113 0.026934
vt 0.230113 0.061863
vt 0.042305 0.444218
vt 0.071562 0.444218
vt 0.071562 0.398678
vt 0.042305 0.398678
vt 0.280131 0.649213
vt 0.019543 0.649213
vt 0.326199 0.546955
vt 0.326199 0.517698
vt 0.448686 0.110043
vt 0.646547 0.110043
vt 0.616215 0.063975
vt 0.479018 0.063975
vt 0.218435 0.501415
vt 0.081239 0.501415
vt 0.616215 0.018436
vt 0.479018 0.018436
vt 0.071562 0.261482
vt 0.042305 0.261482
vt 0.280131 0.593023
vt 0.382389 0.546955
vt 0.382389 0.517698
vt 0.417323 0.166233
vt 0.492070 0.226867
vt 0.417322 0.110043
vt 0.603164 0.226867
vt 0.071562 0.215943
vt 0.042305 0.215943
vt 0.071562 0.185610
vt 0.042305 0.185611
vt 0.042305 0.139542
vt 0.071562 0.139542
vt 0.222770 0.251214
vt 0.343829 0.280538
vt 0.402787 0.280538
vt 0.402787 0.166233
vt 0.057820 0.960313
vt 0.208580 0.974848
vt 0.208580 0.685189
vt 0.057820 0.699724
vt 0.492070 0.268259
vt 0.195185 0.061863
vt 0.195185 0.103255
vt 0.230113 0.103255
vt 0.019543 0.593023
vt 0.042305 0.108179
vt 0.071562 0.108179
vt 0.341207 0.138184
vt 0.341207 0.103255
vt 0.230113 0.138184
vt 0.376136 0.103255
vt 0.376136 0.061863
vt 0.677911 0.166233
vt 0.677911 0.110043
vt 0.293561 0.974848
vt 0.293561 0.685189
vt 0.042305 0.051989
vt 0.071562 0.051989
vt 0.462551 0.280538
vt 0.632682 0.280538
vt 0.603164 0.268259
vt 0.692446 0.280537
vt 0.692446 0.166233
vt 0.028563 0.974848
vt 0.222770 0.166233
vt 0.462551 0.302843
vt 0.632682 0.302843
vt 0.751405 0.280537
vt 0.872463 0.251214
vt 0.866052 0.141150
vt 0.816923 0.123106
vt 0.816923 0.152097
vt 0.866052 0.152097
vt 0.720457 0.964321
vt 0.720457 0.905365
vt 0.698151 0.905365
vt 0.698151 0.964321
vt 0.890588 0.964321
vt 0.890588 0.905366
vt 0.912894 0.964321
vt 0.912894 0.905366
vt 0.598010 0.532299
vt 0.598010 0.503308
vt 0.539830 0.503309
vt 0.539830 0.532300
vt 0.872463 0.166233
vt 0.122087 0.251214
vt 0.343829 0.399257
vt 0.539832 0.670610
vt 0.598012 0.670609
vt 0.598011 0.610845
vt 0.539831 0.610846
vt 0.598011 0.592800
vt 0.539831 0.592801
vt 0.636382 0.685995
vt 0.647328 0.625494
vt 0.618337 0.625494
vt 0.618337 0.685995
vt 0.598009 0.454179
vt 0.539829 0.454180
vt 0.598009 0.443235
vt 0.539829 0.443234
vt 0.539832 0.322968
vt 0.598012 0.322969
vt 0.638387 0.964324
vt 0.638387 0.905365
vt 0.636382 0.576366
vt 0.647326 0.576366
vt 0.693225 0.456100
vt 0.636382 0.456100
vt 0.973146 0.456099
vt 0.751405 0.399257
vt 0.696658 0.141150
vt 0.756422 0.141150
vt 0.756422 0.123106
vt 0.693225 0.745759
vt 0.394244 0.974848
vt 0.599130 0.974848
vt 0.599130 0.685189
vt 0.394244 0.685189
vt 0.973146 0.251213
vt 0.973147 0.745759
vt 0.122087 0.456100
vt 0.402009 0.456100
vt 0.986318 0.022431
vt 0.986318 0.141150
vt 0.972658 0.964324
vt 0.972658 0.905366
vt 0.028563 0.685189
vt 0.696658 0.022431
vt 0.402009 0.399257
vt 0.693225 0.399257
vt 0.926553 0.022431
vt 0.926553 0.044737
vt 0.756422 0.022431
vt 0.756422 0.044737
vt 0.636382 0.745759
vt 0.028563 0.960313
vt 0.028563 0.699724
vt 0.050906 0.546955
vt 0.448686 0.063975
vt 0.646547 0.063975

# vertex normals
vn 0.000000 -1.000000 0.000000
vn -1.000000 0.000000 0.000000
vn 0.000000 0.000000 -1.000000
vn 0.000000 1.000000 0.000000
vn 1.000000 0.000000 0.000000
vn 0.000000 0.000000 1.000000
vn 1.000000 0.000100 -0.000100
vn 1.000000 0.000200 0.000100

# Mesh
g Cube.001
usemtl None
f 4/4/1 1/1/1 2/2/1
f 2/2/1 3/3/1 4/4/1
f 7/7/2 4/4/2 5/5/2
f 5/5/2 6/6/2 7/7/2
f 1/1/3 7/8/3 8/9/3
f 8/9/3 2/2/3 1/1/3
f 12/13/4 9/10/4 10/11/4
f 10/11/4 11/12/4 12/13/4
f 14/17/3 4/14/3 3/15/3
f 3/15/3 13/16/3 14/17/3
f 16/19/2 15/18/2 7/7/2
f 7/7/2 6/6/2 16/19/2
f 7/8/1 17/20/1 18/21/1
f 18/21/1 8/9/1 7/8/1
f 3/25/5 8/22/5 19/23/5
f 19/23/5 20/24/5 3/25/5
f 21/27/2 5/5/2 4/4/2
f 4/4/2 14/26/2 21/27/2
f 13/29/5 3/25/5 20/24/5
f 20/24/5 22/28/5 13/29/5
f 13/16/1 22/30/1 21/31/1
f 21/31/1 14/17/1 13/16/1
f 15/18/2 17/32/2 7/7/2
f 17/20/3 15/33/3 23/34/3
f 23/34/3 18/21/3 17/20/3
f 18/37/5 23/35/5 11/36/5
f 11/36/5 8/22/5 18/37/5
f 11/36/5 10/38/5 19/23/5
f 19/23/5 8/22/5 11/36/5
f 22/30/6 20/39/6 5/40/6
f 5/40/6 21/31/6 22/30/6
f 25/42/1 5/40/1 20/39/1
f 20/39/1 24/41/1 25/42/1
f 19/44/6 6/43/6 25/42/6
f 25/42/6 24/41/6 19/44/6
f 29/48/3 26/45/3 27/46/3
f 27/46/3 28/47/3 29/48/3
f 15/52/1 16/49/1 30/50/1
f 30/50/1 31/51/1 15/52/1
f 23/35/5 32/53/5 11/36/5
f 33/56/6 12/13/6 11/54/6
f 11/54/6 32/55/6 33/56/6
f 34/57/2 16/19/2 6/6/2
f 35/59/1 34/58/1 6/43/1
f 6/43/1 19/44/1 35/59/1
f 32/53/5 23/35/5 29/48/5
f 29/48/5 28/47/5 32/53/5
f 32/62/1 36/60/1 37/61/1
f 37/61/1 33/56/1 32/62/1
f 9/10/3 37/61/3 36/63/3
f 36/63/3 10/64/3 9/10/3
f 35/66/5 19/23/5 10/38/5
f 10/38/5 38/65/5 35/66/5
f 30/50/2 39/67/2 26/68/2
f 26/68/2 31/51/2 30/50/2
f 38/70/6 16/69/6 34/58/6
f 34/58/6 35/59/6 38/70/6
f 28/47/5 40/71/5 32/53/5
f 32/53/5 40/71/5 41/72/5
f 41/72/5 36/73/5 32/53/5
f 10/38/5 36/73/5 38/65/5
f 38/65/5 36/73/5 42/74/5
f 42/74/5 43/75/5 38/65/5
f 43/76/1 30/50/1 16/49/1
f 29/48/3 31/77/3 26/45/3
f 41/72/5 40/71/5 44/78/5
f 44/78/5 45/79/5 41/72/5
f 36/73/5 41/72/5 42/74/5
f 43/75/6 42/74/6 46/80/6
f 46/80/6 39/81/6 43/75/6
f 50/85/5 47/82/5 48/83/5
f 48/83/5 49/84/5 50/85/5
f 52/89/3 51/86/3 44/87/3
f 44/87/3 40/88/3 52/89/3
f 51/86/4 53/90/4 45/91/4
f 45/91/4 44/87/4 51/86/4
f 53/90/6 54/92/6 41/93/6
f 41/93/6 45/91/6 53/90/6
f 48/97/6 55/94/6 56/95/6
f 56/95/6 49/96/6 48/97/6
f 43/75/6 39/81/6 30/98/6
f 58/100/3 27/46/3 26/45/3
f 26/45/3 57/99/3 58/100/3
f 61/104/1 58/101/1 59/102/1
f 59/102/1 60/103/1 61/104/1
f 63/106/3 61/104/3 60/103/3
f 60/103/3 62/105/3 63/106/3
f 48/97/1 63/106/1 62/105/1
f 62/105/1 55/94/1 48/97/1
f 62/110/5 60/107/5 56/108/5
f 56/108/5 55/109/5 62/110/5
f 50/112/1 49/96/1 56/95/1
f 56/95/1 64/111/1 50/112/1
f 47/114/3 50/112/3 64/111/3
f 64/111/3 65/113/3 47/114/3
f 67/116/1 66/115/1 47/114/1
f 47/114/1 65/113/1 67/116/1
f 27/117/4 52/89/4 28/118/4
f 67/122/5 65/119/5 64/120/5
f 64/120/5 68/121/5 67/122/5
f 69/123/6 66/124/6 68/121/6
f 58/125/5 61/126/5 63/127/5
f 70/128/5 68/121/5 64/120/5
f 64/120/5 56/108/5 70/128/5
f 57/132/2 71/129/2 69/130/2
f 69/130/2 72/131/2 57/132/2
f 71/133/6 39/81/6 46/80/6
f 46/80/6 66/124/6 71/133/6
f 57/132/1 26/68/1 39/67/1
f 39/67/1 71/129/1 57/132/1
f 72/134/4 69/123/4 68/121/4
f 68/121/4 70/128/4 72/134/4
f 58/100/3 72/135/3 70/136/3
f 28/118/4 52/89/4 40/88/4
f 46/137/5 47/82/5 66/138/5
f 54/92/4 46/139/4 42/140/4
f 42/140/4 41/93/4 54/92/4
f 33/56/5 37/61/5 9/10/5
f 9/10/5 12/13/5 33/56/5
f 15/52/1 31/51/1 29/141/1
f 46/137/5 48/83/5 47/82/5
f 27/142/5 63/127/5 48/83/5
f 63/127/5 27/142/5 58/125/5
f 71/133/6 66/124/6 69/123/6
f 58/100/3 57/99/3 72/135/3
f 70/136/3 59/143/3 58/100/3
f 68/121/6 66/124/6 67/144/6
f 46/137/5 54/145/5 53/146/5
f 52/147/5 27/142/5 51/148/5
f 27/142/7 48/83/7 51/148/7
f 46/137/8 53/146/8 48/83/8
f 51/148/5 48/83/5 53/146/5
f 59/149/5 70/128/5 56/108/5
f 56/108/5 60/107/5 59/149/5
f 16/49/1 38/150/1 43/76/1
f 29/141/1 23/151/1 15/52/1
f 7/7/2 1/1/2 4/4/2
f 6/6/2 5/5/2 25/152/2
f 3/25/5 2/153/5 8/22/5
f 20/24/5 19/23/5 24/154/5
