# Blender v2.79 (sub 0) OBJ File: 'hat_136.blend'
# www.blender.org
mtllib hat_136.mtl
o Face_Cube.001
v -1.000000 -1.000000 -1.300000
v 1.000000 -1.000000 -1.300000
v 1.000000 -1.000000 1.300000
v -1.000000 -1.000000 1.299999
v -0.999999 1.000000 -1.300000
v 1.000001 1.000000 -1.299999
v 0.999999 1.000000 1.300001
v -1.000000 1.000000 1.300000
v -1.000000 0.665981 -1.300000
v 1.000000 0.665981 -1.299999
v 0.999999 0.665980 1.300000
v -1.000000 0.665980 1.300000
v 0.098622 -0.498031 1.759827
v 0.098622 0.238969 1.759827
v -0.098622 -0.498031 1.759827
v -0.098622 0.238969 1.759827
v 0.098622 -0.498031 1.281889
v 0.098622 0.238969 1.281889
v -0.098622 -0.498031 1.281889
v -0.098622 0.238969 1.281889
v 0.098622 -0.498030 -1.759828
v 0.098622 0.238970 -1.759827
v -0.098622 -0.498030 -1.759828
v -0.098622 0.238970 -1.759827
v 0.098622 -0.498030 -1.281889
v 0.098622 0.238970 -1.281889
v -0.098622 -0.498030 -1.281889
v -0.098622 0.238969 -1.281889
vt 0.727237 0.235144
vt 0.727237 0.492510
vt 0.392661 0.492510
vt 0.392661 0.235144
vt 0.325815 0.074319
vt 0.325815 0.408895
vt 0.068449 0.408895
vt 0.068449 0.074319
vt 0.368798 0.074319
vt 0.368798 0.408895
vt 0.325815 0.031336
vt 0.068449 0.031336
vt 0.025466 0.074319
vt 0.025466 0.408895
vt 0.068449 0.451878
vt 0.325815 0.451878
vt 0.727238 0.020760
vt 0.392661 0.020760
vt 0.392661 0.706894
vt 0.135295 0.706894
vt 0.135294 0.492510
vt 0.727237 0.706894
vt 0.984604 0.492510
vt 0.984604 0.706894
vt 0.617003 0.904778
vt 0.617036 0.809938
vt 0.642418 0.809947
vt 0.642385 0.904787
vt 0.703921 0.809968
vt 0.703888 0.904808
vt 0.555501 0.904757
vt 0.555533 0.809917
vt 0.616995 0.930160
vt 0.555492 0.930139
vt 0.555542 0.784535
vt 0.617045 0.784556
vt 0.832462 0.809917
vt 0.857844 0.809917
vt 0.857844 0.904757
vt 0.832462 0.904757
vt 0.919347 0.809917
vt 0.919347 0.904757
vt 0.770959 0.809917
vt 0.770959 0.904757
vt 0.832462 0.784535
vt 0.770959 0.784535
vt 0.770959 0.930139
vt 0.832462 0.930139
vn 0.0000 -1.0000 -0.0000
vn -0.0000 1.0000 0.0000
vn -1.0000 0.0000 -0.0000
vn 0.0000 0.0000 -1.0000
vn 1.0000 -0.0000 0.0000
vn -0.0000 -0.0000 1.0000
usemtl None
s off
f 1/1/1 2/2/1 3/3/1 4/4/1
f 5/5/2 8/6/2 7/7/2 6/8/2
f 5/5/3 9/9/3 12/10/3 8/6/3
f 9/11/4 5/5/4 6/8/4 10/12/4
f 10/13/5 6/8/5 7/7/5 11/14/5
f 11/15/6 7/7/6 8/6/6 12/16/6
f 9/17/3 1/1/3 4/4/3 12/18/3
f 3/3/6 11/19/6 12/20/6 4/21/6
f 2/2/5 10/22/5 11/19/5 3/3/5
f 1/23/4 9/24/4 10/22/4 2/2/4
f 13/25/6 14/26/6 16/27/6 15/28/6
f 15/28/3 16/27/3 20/29/3 19/30/3
f 17/31/5 18/32/5 14/26/5 13/25/5
f 15/33/1 19/34/1 17/31/1 13/25/1
f 20/35/2 16/36/2 14/26/2 18/32/2
f 21/37/4 23/38/4 24/39/4 22/40/4
f 23/38/3 27/41/3 28/42/3 24/39/3
f 25/43/5 21/37/5 22/40/5 26/44/5
f 23/45/1 21/37/1 25/43/1 27/46/1
f 28/47/2 26/44/2 22/40/2 24/48/2
