# Blender v2.91.2 OBJ File: ''
# www.blender.org
mtllib 71.mtl
o Cube.014_Cube.096
v -0.955494 0.000249 0.966087
v 1.125080 -0.226140 -0.483042
v -0.180991 -0.221759 1.138239
v 0.141451 -0.000110 0.966087
v -0.955494 -0.443359 0.966087
v -0.955495 0.000249 -0.966085
v 0.141450 -0.000110 -0.966085
v 1.024408 -0.105102 0.287309
v 1.024408 -0.154995 0.385231
v 1.024408 -0.429421 0.491983
v 1.024408 -0.435345 0.529385
v 1.024408 -0.351710 0.414271
v 1.024408 -0.243096 0.260082
v 1.024408 -0.290080 0.312736
v 1.024408 -0.404803 0.312736
v 1.024408 -0.536567 0.306485
v 1.024408 -0.565605 0.260082
v 1.024408 -0.573854 0.224473
v 1.024408 -0.111026 0.324712
v 1.024408 -0.128218 0.358454
v 1.024408 -0.188737 0.402423
v 1.024408 -0.226140 0.408347
v 1.024408 -0.412229 0.458241
v 1.024408 -0.385451 0.431464
v 1.024408 -0.232004 0.185001
v 1.024408 -0.234847 0.224473
v 1.024408 -0.255944 0.288341
v 1.024408 -0.272134 0.306485
v 1.024408 -0.343582 0.312736
v 1.024408 -0.518620 0.312736
v 1.024408 -0.552756 0.288341
v 1.024408 -0.576696 0.137626
v 0.400784 -0.258928 1.013817
v 0.388288 -0.180032 1.013817
v 0.437048 -0.330101 1.013817
v 0.493532 -0.386585 1.013817
v 0.564705 -0.422849 1.013817
v 0.643601 -0.435345 1.013817
v 0.113206 -0.806163 1.013817
v 0.100710 -0.727267 1.013817
v 0.149471 -0.877336 1.013817
v 0.205954 -0.933820 1.013817
v 0.277127 -0.970084 1.013817
v 0.356024 -0.982580 1.013817
v 0.100710 -0.086982 1.013817
v 0.093848 0.045463 1.013817
v 0.100710 -0.006657 1.013817
v 0.073731 0.094031 1.013817
v 0.041728 0.135738 1.013817
v 0.000022 0.167740 1.013817
v -0.048546 0.187858 1.013817
v -0.100666 0.194719 1.013817
v -0.218548 0.187858 1.013817
v -0.166428 0.194719 1.013817
v -0.267116 0.167740 1.013817
v -0.308822 0.135738 1.013817
v -0.340824 0.094031 1.013817
v -0.360942 0.045463 1.013817
v -0.367804 -0.006656 1.013817
v 1.024408 -0.435345 1.013817
v 1.024408 -0.984121 1.013817
v -1.003225 -0.086982 1.013817
v -0.448130 -0.086982 1.013817
v -0.407967 -0.076221 1.013817
v -0.378565 -0.046819 1.013817
v -1.003225 1.016870 1.013817
v 1.003225 1.016870 1.013817
v 1.003225 0.610092 1.013817
v 0.388288 0.302862 1.013817
v 0.695518 0.610092 1.013817
v 0.403325 0.397801 1.013817
v 0.446964 0.483447 1.013817
v 0.514933 0.551417 1.013817
v 0.600579 0.595055 1.013817
v 1.024408 -0.516380 0.076387
v 1.125080 -0.226140 0.483042
v -0.180992 -0.221759 -1.138239
v -0.955495 -0.443359 -0.966086
v -0.955494 0.000249 0.000000
v -0.955494 -0.443359 0.000000
v 1.024408 -0.105102 -0.287309
v 1.024408 -0.154995 -0.385231
v 1.024408 -0.429421 -0.491983
v 1.024408 -0.435345 -0.529385
v 1.024408 -0.351710 -0.414272
v 1.024408 -0.243096 -0.260082
v 1.024408 -0.290080 -0.312737
v 1.024408 -0.404803 -0.312737
v 1.024408 -0.536567 -0.306485
v 1.024408 -0.565605 -0.260082
v 1.024408 -0.573854 -0.224473
v 1.024408 -0.984121 -0.000000
v 1.024408 -0.111026 -0.324712
v 1.024408 -0.128218 -0.358454
v 1.024408 -0.188737 -0.402423
v 1.024408 -0.226140 -0.408347
v 1.024408 -0.412229 -0.458241
v 1.024408 -0.385451 -0.431464
v 1.024408 -0.232004 -0.185001
v 1.024408 -0.234847 -0.224473
v 1.024408 -0.255944 -0.288341
v 1.024408 -0.272134 -0.306485
v 1.024408 -0.343582 -0.312737
v 1.024408 -0.518620 -0.312737
v 1.024408 -0.552756 -0.288341
v 1.024408 -0.576696 -0.137626
v 0.400784 -0.258928 -1.013817
v 0.388288 -0.180032 -1.013817
v 0.437048 -0.330101 -1.013817
v 0.493532 -0.386585 -1.013817
v 0.564705 -0.422849 -1.013817
v 0.643601 -0.435345 -1.013817
v 0.113206 -0.806163 -1.013817
v 0.100710 -0.727267 -1.013817
v 0.149470 -0.877336 -1.013817
v 0.205954 -0.933820 -1.013817
v 0.277127 -0.970084 -1.013817
v 0.356023 -0.982580 -1.013817
v 0.100710 -0.086982 -1.013817
v 0.093848 0.045463 -1.013817
v 0.100710 -0.006657 -1.013817
v 0.073731 0.094031 -1.013817
v 0.041728 0.135738 -1.013817
v 0.000022 0.167740 -1.013817
v -0.048546 0.187858 -1.013817
v -0.100666 0.194719 -1.013817
v -0.218548 0.187858 -1.013817
v -0.166428 0.194719 -1.013817
v -0.267116 0.167740 -1.013817
v -0.308822 0.135738 -1.013817
v -0.340825 0.094031 -1.013817
v -0.360942 0.045463 -1.013817
v -0.367804 -0.006656 -1.013817
v 1.024408 -0.435345 -1.013817
v 1.024408 -0.984121 -1.013817
v -1.003226 -0.086982 -1.013817
v -0.448130 -0.086982 -1.013817
v -0.407967 -0.076221 -1.013817
v -0.378566 -0.046819 -1.013817
v -1.003225 1.016870 -1.013817
v 1.003225 1.016870 -1.013817
v 1.003225 0.610092 -1.013817
v 0.388288 0.302862 -1.013817
v 0.695518 0.610092 -1.013817
v 0.403325 0.397801 -1.013817
v 0.446963 0.483447 -1.013817
v 0.514933 0.551417 -1.013817
v 0.600579 0.595055 -1.013817
v 1.024408 -0.516380 -0.076387
v 1.024408 -0.435345 1.013817
v 1.024408 -0.984121 1.013817
v 1.003225 1.016870 1.013817
v 1.003225 1.016870 1.013817
v -1.003225 1.016870 1.013817
v -1.003225 1.016870 1.013817
v -1.003225 -0.086982 1.013817
v 1.003225 0.610092 1.013817
v 1.024408 -0.435345 -1.013817
v 1.024408 -0.984121 -1.013817
v -1.003225 1.016870 -1.013817
v -1.003225 1.016870 -1.013817
v 1.003225 1.016870 -1.013817
v 1.003225 1.016870 -1.013817
v -1.003226 -0.086982 -1.013817
v 1.003225 0.610092 -1.013817
vt 0.160236 0.366752
vt 0.168511 0.365662
vt 0.237864 0.383920
vt 0.464175 0.244730
vt 0.499813 0.179595
vt 0.477963 0.244279
vt 0.338856 0.179596
vt 0.458522 0.246040
vt 0.454035 0.248080
vt 0.278399 0.266721
vt 0.338856 0.179596
vt 0.338856 0.266721
vt 0.549464 0.253499
vt 0.548471 0.250650
vt 0.583860 0.266720
vt 0.577921 0.267661
vt 0.487685 0.253855
vt 0.427061 0.270391
vt 0.421704 0.267661
vt 0.450162 0.271570
vt 0.431313 0.274642
vt 0.450162 0.281289
vt 0.450162 0.253500
vt 0.434982 0.299935
vt 0.434042 0.279999
vt 0.451154 0.292632
vt 0.438652 0.311230
vt 0.435923 0.305873
vt 0.454035 0.295203
vt 0.458521 0.297243
vt 0.448261 0.318210
vt 0.442904 0.315481
vt 0.454199 0.319151
vt 0.470442 0.299003
vt 0.529184 0.299003
vt 0.545427 0.319151
vt 0.464175 0.298552
vt 0.450162 0.289783
vt 0.265873 0.268705
vt 0.208917 0.187582
vt 0.220216 0.181824
vt 0.232742 0.179840
vt 0.254573 0.274462
vt 0.199949 0.196549
vt 0.245606 0.283429
vt 0.194192 0.207849
vt 0.239848 0.294729
vt 0.192208 0.220374
vt 0.451154 0.250650
vt 0.237864 0.307255
vt 0.176222 0.362468
vt 0.182844 0.357387
vt 0.192208 0.322028
vt 0.192208 0.334780
vt 0.191118 0.343055
vt 0.335492 0.497277
vt 0.286641 0.432697
vt 0.335492 0.432697
vt 0.541104 0.246040
vt 0.660769 0.179595
vt 0.111451 0.323737
vt 0.116118 0.328405
vt 0.016948 0.322029
vt 0.117827 0.334781
vt 0.016948 0.497276
vt 0.271568 0.430309
vt 0.149798 0.366752
vt 0.257971 0.423381
vt 0.105074 0.322028
vt 0.247180 0.412590
vt 0.415766 0.266721
vt 0.338856 0.266721
vt 0.222423 0.915565
vt 0.222423 0.593654
vt 0.287004 0.593654
vt 0.287004 0.915565
vt 0.780801 0.593654
vt 0.780801 0.915565
vt 0.605552 0.915565
vt 0.605552 0.593654
vt 0.240251 0.398993
vt 0.141523 0.365662
vt 0.133812 0.362468
vt 0.118916 0.343055
vt 0.127191 0.357388
vt 0.122110 0.350766
vt 0.187924 0.350766
vt 0.839389 0.366751
vt 0.761761 0.383920
vt 0.831114 0.365662
vt 0.535451 0.244730
vt 0.521663 0.244279
vt 0.545591 0.248080
vt 0.721227 0.266720
vt 0.660769 0.266720
vt 0.660769 0.179595
vt 0.287004 0.915565
vt 0.287004 0.593654
vt 0.605552 0.593654
vt 0.605552 0.915565
vt 0.511940 0.253855
vt 0.572565 0.270390
vt 0.549464 0.271569
vt 0.568313 0.274642
vt 0.549464 0.281289
vt 0.564643 0.299934
vt 0.548471 0.292632
vt 0.565584 0.279998
vt 0.560973 0.311229
vt 0.545591 0.295203
vt 0.563703 0.305873
vt 0.541104 0.297242
vt 0.556722 0.315481
vt 0.551365 0.318210
vt 0.535451 0.298552
vt 0.549464 0.289783
vt 0.733753 0.268704
vt 0.779409 0.181823
vt 0.790709 0.187581
vt 0.766883 0.179840
vt 0.745052 0.274461
vt 0.799676 0.196548
vt 0.754020 0.283429
vt 0.805434 0.207848
vt 0.759777 0.294728
vt 0.807418 0.220374
vt 0.761761 0.307255
vt 0.816782 0.357387
vt 0.823404 0.362468
vt 0.807418 0.322027
vt 0.807418 0.334780
vt 0.808508 0.343055
vt 0.664133 0.497278
vt 0.664132 0.432697
vt 0.712985 0.432697
vt 0.888176 0.323736
vt 0.982681 0.322027
vt 0.883508 0.328404
vt 0.881800 0.334780
vt 0.728057 0.430309
vt 0.982681 0.497277
vt 0.849829 0.366751
vt 0.741655 0.423381
vt 0.894552 0.322027
vt 0.752446 0.412590
vt 0.660769 0.266720
vt 0.759374 0.398993
vt 0.858104 0.365662
vt 0.865814 0.362468
vt 0.880710 0.343055
vt 0.872436 0.357387
vt 0.877516 0.350765
vt 0.811701 0.350765
vn 0.0000 0.0000 1.0000
vn 1.0000 0.0000 0.0000
vn -1.0000 0.0000 0.0000
vn 0.0000 0.0000 -1.0000
vn 0.0000 1.0000 0.0000
usemtl None
s 1
f 52/1/1 51/2/1 69/3/1
f 18/4/2 92/5/2 32/6/2
f 61/7/2 17/8/2 31/9/2
f 38/10/1 151/11/1 60/12/1
f 17/8/2 92/5/2 18/4/2
f 104/13/2 89/14/2 84/15/2 83/16/2
f 32/6/2 92/5/2 75/17/2
f 23/18/2 10/19/2 15/20/2
f 24/21/2 23/18/2 29/22/2
f 10/19/2 30/23/2 15/20/2
f 22/24/2 12/25/2 28/26/2
f 23/18/2 15/20/2 29/22/2
f 9/27/2 21/28/2 27/29/2
f 28/26/2 27/29/2 21/28/2 22/24/2
f 13/30/2 19/31/2 20/32/2 27/29/2
f 20/32/2 9/27/2 27/29/2
f 8/33/2 25/34/2 99/35/2 81/36/2
f 8/33/2 19/31/2 13/30/2
f 8/33/2 26/37/2 25/34/2
f 13/30/2 26/37/2 8/33/2
f 24/21/2 29/22/2 14/38/2 12/25/2
f 14/38/2 28/26/2 12/25/2
f 37/39/1 42/40/1 43/41/1
f 37/39/1 44/42/1 38/10/1
f 36/43/1 41/44/1 42/40/1
f 35/45/1 39/46/1 41/44/1
f 33/47/1 40/48/1 39/46/1
f 16/49/2 61/7/2 31/9/2
f 37/39/1 36/43/1 42/40/1
f 37/39/1 43/41/1 44/42/1
f 36/43/1 35/45/1 41/44/1
f 35/45/1 33/47/1 39/46/1
f 33/47/1 34/50/1 40/48/1
f 44/42/1 151/11/1 38/10/1
f 69/3/1 50/51/1 49/52/1
f 45/53/1 40/48/1 34/50/1
f 47/54/1 45/53/1 34/50/1
f 46/55/1 47/54/1 34/50/1
f 152/56/1 70/57/1 157/58/1
f 46/55/1 34/50/1 69/3/1
f 90/59/2 92/5/2 135/60/2
f 64/61/1 65/62/1 156/63/1
f 65/62/1 59/64/1 156/63/1
f 70/57/1 154/65/1 74/66/1
f 52/1/1 69/3/1 154/65/1 54/67/1
f 74/66/1 154/65/1 73/68/1
f 63/69/1 64/61/1 156/63/1
f 73/68/1 154/65/1 72/70/1
f 61/7/2 16/49/2 11/71/2 150/72/2
f 68/73/2 165/74/2 163/75/2 153/76/2
f 164/77/3 62/78/3 155/79/3 160/80/3
f 72/70/1 154/65/1 71/81/1
f 54/67/1 154/65/1 53/82/1
f 154/65/1 55/83/1 53/82/1
f 156/63/1 59/64/1 58/84/1
f 55/83/1 154/65/1 56/85/1
f 56/85/1 154/65/1 57/86/1
f 57/86/1 156/63/1 58/84/1
f 57/86/1 154/65/1 156/63/1
f 48/87/1 46/55/1 69/3/1
f 69/3/1 49/52/1 48/87/1
f 50/51/1 69/3/1 51/2/1
f 154/65/1 69/3/1 71/81/1
f 70/57/1 152/56/1 154/65/1
f 126/88/4 143/89/4 125/90/4
f 92/5/2 91/91/2 106/92/2
f 135/60/2 105/93/2 90/59/2
f 112/94/4 134/95/4 159/96/4
f 91/91/2 92/5/2 90/59/2
f 67/97/5 162/98/5 161/99/5 66/100/5
f 106/92/2 149/101/2 92/5/2
f 97/102/2 88/103/2 83/16/2
f 98/104/2 103/105/2 97/102/2
f 83/16/2 88/103/2 104/13/2
f 96/106/2 102/107/2 85/108/2
f 97/102/2 103/105/2 88/103/2
f 82/109/2 101/110/2 95/111/2
f 102/107/2 96/106/2 95/111/2 101/110/2
f 86/112/2 101/110/2 94/113/2 93/114/2
f 94/113/2 101/110/2 82/109/2
f 11/71/2 16/49/2 30/23/2 10/19/2
f 81/36/2 86/112/2 93/114/2
f 81/36/2 99/35/2 100/115/2
f 86/112/2 81/36/2 100/115/2
f 98/104/2 85/108/2 87/116/2 103/105/2
f 87/116/2 85/108/2 102/107/2
f 111/117/4 117/118/4 116/119/4
f 111/117/4 112/94/4 118/120/4
f 110/121/4 116/119/4 115/122/4
f 109/123/4 115/122/4 113/124/4
f 107/125/4 113/124/4 114/126/4
f 89/14/2 105/93/2 135/60/2
f 111/117/4 116/119/4 110/121/4
f 111/117/4 118/120/4 117/118/4
f 110/121/4 115/122/4 109/123/4
f 109/123/4 113/124/4 107/125/4
f 107/125/4 114/126/4 108/127/4
f 118/120/4 112/94/4 159/96/4
f 143/89/4 123/128/4 124/129/4
f 119/130/4 108/127/4 114/126/4
f 121/131/4 108/127/4 119/130/4
f 120/132/4 108/127/4 121/131/4
f 141/133/4 142/134/4 144/135/4
f 120/132/4 143/89/4 108/127/4
f 149/101/2 75/17/2 92/5/2
f 138/136/4 136/137/4 139/138/4
f 139/138/4 136/137/4 133/139/4
f 144/135/4 148/140/4 140/141/4
f 126/88/4 128/142/4 140/141/4 143/89/4
f 148/140/4 147/143/4 140/141/4
f 137/144/4 136/137/4 138/136/4
f 147/143/4 146/145/4 140/141/4
f 135/60/2 158/146/2 84/15/2 89/14/2
f 146/145/4 145/147/4 140/141/4
f 128/142/4 127/148/4 140/141/4
f 140/141/4 127/148/4 129/149/4
f 136/137/4 132/150/4 133/139/4
f 129/149/4 130/151/4 140/141/4
f 130/151/4 131/152/4 140/141/4
f 131/152/4 132/150/4 136/137/4
f 131/152/4 136/137/4 140/141/4
f 122/153/4 143/89/4 120/132/4
f 143/89/4 122/153/4 123/128/4
f 124/129/4 125/90/4 143/89/4
f 140/141/4 145/147/4 143/89/4
f 144/135/4 140/141/4 141/133/4
f 92/5/2 17/8/2 61/7/2
