# Blender v3.0.0 OBJ File: ''
# www.blender.org
mtllib Multible heads.mtl
o Cube.008_Cube.001
v 1.000000 -0.200000 1.000000
v 1.000000 -1.000000 1.000000
v 0.000000 -1.000000 1.000000
v 0.000000 -0.200000 -1.000001
v 1.000000 -0.200000 -1.000001
v 1.000000 -0.200000 -0.000000
v 1.000000 -1.000000 -1.000001
v 1.000000 -1.000000 -0.000000
v -1.000000 -0.200000 -0.000000
v -1.000000 0.000000 0.000000
v -1.000000 -0.200000 -1.000001
v -1.000000 -1.000000 -1.000001
v 0.000000 -1.000000 -1.000001
v -1.000000 -0.200000 1.000000
v 0.000000 -0.200000 1.000000
v -1.000000 -1.000000 -0.000000
v 0.000000 -1.000000 -0.000000
v -1.000000 -1.000000 1.000000
v 0.000000 1.000000 0.000000
v 0.000000 0.800000 -1.000001
v 1.000000 1.000000 -1.000001
v 1.000000 0.800000 -1.000001
v 0.000000 0.000000 -1.000001
v 1.000000 0.000000 -1.000001
v -1.000000 0.800000 1.000000
v -1.000000 1.000000 1.000000
v 0.000000 1.000000 1.000000
v 0.000000 0.800000 1.000000
v 0.000000 -0.000000 1.000000
v -1.000000 -0.000000 1.000000
v -1.000000 0.800000 0.000000
v -1.000000 1.000000 0.000000
v -1.000000 1.000000 -1.000001
v -1.000000 0.800000 -1.000001
v 0.000000 1.000000 -1.000001
v -1.000000 0.000000 -1.000001
v 1.000000 1.000000 0.000000
v 1.000000 0.800000 0.000000
v 1.000000 1.000000 1.000000
v 1.000000 0.800000 1.000000
v 1.000000 0.000000 0.000000
v 1.000000 -0.000000 1.000000
vt 0.351104 0.714216
vt 0.351104 0.684437
vt 0.500000 0.684437
vt 0.500000 0.714216
vt 0.648896 0.684437
vt 0.648896 0.714216
vt 0.648896 0.982229
vt 0.500000 0.982229
vt 0.500000 0.833333
vt 0.648896 0.833333
vt 0.351104 0.833333
vt 0.619117 0.017771
vt 0.648896 0.017771
vt 0.648896 0.166667
vt 0.619117 0.166667
vt 0.648896 0.315563
vt 0.619117 0.315563
vt 0.351104 0.166667
vt 0.500000 0.166667
vt 0.500000 0.315563
vt 0.351104 0.315563
vt 0.500000 0.017771
vt 0.017771 0.047550
vt 0.017771 0.017771
vt 0.166667 0.017771
vt 0.166667 0.047550
vt 0.315563 0.017771
vt 0.315563 0.047550
vt 0.166667 0.166667
vt 0.315563 0.166667
vt 0.315563 0.315563
vt 0.166667 0.315563
vt 0.017771 0.166667
vt 0.952450 0.166667
vt 0.982229 0.166667
vt 0.982229 0.315563
vt 0.952450 0.315563
vt 0.952450 0.017771
vt 0.982229 0.017771
vt 0.833333 0.315563
vt 0.684437 0.315563
vt 0.684437 0.166667
vt 0.833333 0.166667
vt 0.833333 0.017771
vt 0.017771 0.529779
vt 0.017771 0.500000
vt 0.166667 0.500000
vt 0.166667 0.529779
vt 0.315563 0.500000
vt 0.315563 0.529779
vt 0.017771 0.351104
vt 0.166667 0.351104
vt 0.166667 0.648896
vt 0.315563 0.648896
vt 0.017771 0.648896
vt 0.833333 0.529779
vt 0.833333 0.500000
vt 0.982229 0.500000
vt 0.982229 0.529779
vt 0.684437 0.529779
vt 0.684437 0.500000
vt 0.684437 0.351104
vt 0.833333 0.351104
vt 0.684437 0.648896
vt 0.833333 0.648896
vt 0.982229 0.648896
vt 0.351104 0.529779
vt 0.351104 0.500000
vt 0.500000 0.500000
vt 0.500000 0.529779
vt 0.648896 0.500000
vt 0.648896 0.529779
vt 0.500000 0.351104
vt 0.351104 0.351104
vt 0.500000 0.648896
vt 0.648896 0.648896
vt 0.351104 0.648896
vt 0.196446 0.982229
vt 0.166667 0.982229
vt 0.166667 0.833333
vt 0.196446 0.833333
vt 0.166667 0.684437
vt 0.196446 0.684437
vt 0.017771 0.982229
vt 0.017771 0.833333
vt 0.315563 0.833333
vt 0.315563 0.684437
vt 0.315563 0.982229
vn 1.0000 0.0000 0.0000
vn 0.0000 -0.0000 1.0000
vn 0.0000 -1.0000 -0.0000
vn 0.0000 0.0000 -1.0000
vn -1.0000 0.0000 0.0000
vn 0.0000 1.0000 0.0000
usemtl None.013
s 1
f 6/1/1 41/2/1 42/3/1 1/4/1
f 1/4/2 42/3/2 29/5/2 15/6/2
f 17/7/3 8/8/3 2/9/3 3/10/3
f 2/9/2 1/4/2 15/6/2 3/10/2
f 8/11/1 6/1/1 1/4/1 2/9/1
f 4/12/4 23/13/4 24/14/4 5/15/4
f 5/15/1 24/14/1 41/16/1 6/17/1
f 13/18/3 7/19/3 8/20/3 17/21/3
f 7/19/1 5/15/1 6/17/1 8/20/1
f 13/22/4 4/12/4 5/15/4 7/19/4
f 9/23/5 10/24/5 36/25/5 11/26/5
f 11/26/4 36/25/4 23/27/4 4/28/4
f 12/29/3 13/30/3 17/31/3 16/32/3
f 12/29/4 11/26/4 4/28/4 13/30/4
f 16/33/5 9/23/5 11/26/5 12/29/5
f 14/34/5 30/35/5 10/36/5 9/37/5
f 15/38/2 29/39/2 30/35/2 14/34/2
f 16/40/3 17/41/3 3/42/3 18/43/3
f 3/44/2 15/38/2 14/34/2 18/43/2
f 18/43/5 14/34/5 9/37/5 16/40/5
f 20/45/4 35/46/4 21/47/4 22/48/4
f 22/48/1 21/47/1 37/49/1 38/50/1
f 21/47/6 35/46/6 19/51/6 37/52/6
f 24/53/1 22/48/1 38/50/1 41/54/1
f 23/55/4 20/45/4 22/48/4 24/53/4
f 25/56/5 26/57/5 32/58/5 31/59/5
f 28/60/2 27/61/2 26/57/2 25/56/2
f 19/62/6 32/63/6 26/57/6 27/61/6
f 29/64/2 28/60/2 25/56/2 30/65/2
f 30/65/5 25/56/5 31/59/5 10/66/5
f 31/67/5 32/68/5 33/69/5 34/70/5
f 34/70/4 33/69/4 35/71/4 20/72/4
f 35/73/6 33/69/6 32/68/6 19/74/6
f 36/75/4 34/70/4 20/72/4 23/76/4
f 10/77/5 31/67/5 34/70/5 36/75/5
f 38/78/1 37/79/1 39/80/1 40/81/1
f 40/81/2 39/80/2 27/82/2 28/83/2
f 37/79/6 19/84/6 27/85/6 39/80/6
f 42/86/2 40/81/2 28/83/2 29/87/2
f 41/88/1 38/78/1 40/81/1 42/86/1
