# Blender v2.79 (sub 0) OBJ File: ''
# www.blender.org
mtllib hat_98.mtl
o Banana_Beanie_Bomble_Cube.002
v -1.087190 -0.103429 -0.468514
v 0.468515 -0.103429 -1.087189
v 1.087188 -0.103429 0.468516
v -0.468516 -0.103430 1.087189
v 1.133806 -0.103429 0.000000
v 1.087188 -0.103429 -0.468514
v -1.133807 -0.103429 0.000000
v -1.087190 -0.103429 0.468516
v -0.000001 -0.103430 1.133806
v 0.468515 -0.103430 1.087189
v -0.000001 -0.103429 -1.133806
v -0.468516 -0.103429 -1.087189
v -0.468516 -1.002857 1.087189
v 0.468515 -1.002857 -1.087189
v -1.087190 -1.002857 0.468516
v -1.133807 -1.002857 0.000000
v 1.087188 -1.002857 0.468516
v -0.468516 -1.002857 -1.087189
v -0.000001 -1.002857 -1.133806
v 0.468515 -1.002857 1.087189
v -0.000001 -1.002857 1.133806
v 1.133806 -1.002857 0.000000
v 1.087188 -1.002857 -0.468515
v -1.087190 -1.002857 -0.468515
v -0.868903 0.434934 -0.374446
v 0.374446 0.434934 -0.868902
v 0.868902 0.434933 0.374447
v -0.374447 0.434933 0.868903
v 0.906159 0.434933 0.000000
v 0.868902 0.434934 -0.374446
v -0.906161 0.434933 0.000000
v -0.868903 0.434933 0.374447
v -0.000001 0.434933 0.906160
v 0.374446 0.434933 0.868903
v -0.000001 0.434934 -0.906160
v -0.374447 0.434934 -0.868902
v -0.414085 1.338395 -0.125430
v -0.017461 1.465499 -0.291062
v 0.140269 1.516046 0.125431
v -0.256355 1.388942 0.291062
v 0.152154 1.519855 0.000000
v 0.140269 1.516046 -0.125430
v -0.425970 1.334586 0.000000
v -0.414085 1.338395 0.125431
v -0.136908 1.427221 0.303543
v -0.017461 1.465499 0.291062
v -0.136908 1.427221 -0.303542
v -0.256355 1.388942 -0.291062
v -0.569038 1.938452 -0.113779
v -0.226656 2.098171 -0.264024
v -0.090497 2.161688 0.113780
v -0.432879 2.001969 0.264025
v -0.080237 2.166475 0.000000
v -0.090497 2.161688 -0.113779
v -0.579297 1.933666 0.000000
v -0.569038 1.938452 0.113780
v -0.329767 2.050070 0.275346
v -0.226656 2.098171 0.264025
v -0.329767 2.050070 -0.275345
v -0.432879 2.001969 -0.264024
v -0.645387 2.203051 -0.140248
v -0.196337 2.326438 -0.325445
v -0.017758 2.375507 0.140249
v -0.466809 2.252119 0.325446
v -0.004302 2.379204 0.000000
v -0.017758 2.375507 -0.140248
v -0.658843 2.199353 0.000000
v -0.645387 2.203051 0.140248
v -0.331573 2.289279 0.339401
v -0.196337 2.326438 0.325446
v -0.331573 2.289279 -0.339400
v -0.466809 2.252119 -0.325445
v -0.960156 -0.103429 -0.864876
v -0.864877 -0.103429 -0.960155
v 0.864876 -0.103429 -0.960155
v 0.960155 -0.103429 -0.864876
v 0.960155 -0.103429 0.864877
v 0.864876 -0.103430 0.960156
v -0.864877 -0.103430 0.960156
v -0.960156 -0.103429 0.864877
v -0.864877 -1.002857 0.960155
v -0.960156 -1.002857 0.864877
v 0.864876 -1.002857 -0.960155
v 0.960155 -1.002857 -0.864877
v 0.960155 -1.002857 0.864877
v 0.864876 -1.002857 0.960155
v -0.960156 -1.002857 -0.864877
v -0.864877 -1.002857 -0.960155
v -0.772018 0.434934 -0.676739
v -0.676740 0.434934 -0.772018
v 0.676738 0.434934 -0.772018
v 0.772017 0.434934 -0.676739
v 0.772017 0.434933 0.676739
v 0.676738 0.434933 0.772018
v -0.676740 0.434933 0.772018
v -0.772019 0.434933 0.676739
v -0.397447 1.343727 -0.179947
v -0.307695 1.372489 -0.273783
v 0.037028 1.482961 -0.272724
v 0.124118 1.510870 -0.178349
v 0.124118 1.510870 0.178349
v 0.037028 1.482961 0.272724
v -0.307695 1.372489 0.273784
v -0.397447 1.343727 0.179947
v -0.556587 1.944260 -0.156646
v -0.470416 1.984458 -0.250749
v -0.185693 2.117280 -0.249538
v -0.102447 2.156114 -0.154924
v -0.102447 2.156114 0.154924
v -0.185693 2.117280 0.249538
v -0.470416 1.984458 0.250750
v -0.556587 1.944260 0.156647
v -0.534005 2.233655 -0.303111
v -0.623713 2.209006 -0.210379
v -0.038616 2.369776 -0.207738
v -0.122265 2.346791 -0.300825
v -0.122265 2.346791 0.300826
v -0.038616 2.369776 0.207738
v -0.623713 2.209006 0.210380
v -0.534005 2.233655 0.303111
v -0.396638 1.136505 -0.146953
v -0.491543 0.849702 -0.211826
v 0.102939 1.137931 -0.351316
v 0.211826 0.849702 -0.491542
v 0.307226 1.139165 0.152541
v 0.491542 0.849702 0.211826
v -0.201221 1.136781 0.345919
v -0.211827 0.849702 0.491543
v 0.322691 1.139293 0.000000
v 0.512618 0.849702 0.000000
v 0.491542 0.849702 -0.211826
v 0.307226 1.139165 -0.152541
v -0.411120 1.136515 0.000000
v -0.512620 0.849702 0.000000
v -0.491543 0.849702 0.211826
v -0.396638 1.136505 0.146954
v -0.000001 0.849702 0.512619
v -0.050128 1.137310 0.363811
v 0.211826 0.849702 0.491543
v 0.102939 1.137931 0.351316
v -0.000001 0.849702 -0.512619
v -0.050128 1.137310 -0.363810
v -0.211827 0.849702 -0.491542
v -0.201221 1.136781 -0.345918
v -0.446778 0.849702 -0.351498
v -0.372571 1.136493 -0.222815
v -0.278164 1.136600 -0.319939
v -0.351499 0.849702 -0.446777
v 0.351498 0.849702 -0.446777
v 0.184981 1.138290 -0.326356
v 0.281146 1.138988 -0.232609
v 0.446777 0.849702 -0.351498
v 0.446777 0.849702 0.351499
v 0.281146 1.138988 0.232609
v 0.184981 1.138290 0.326356
v 0.351498 0.849702 0.446778
v -0.351499 0.849702 0.446778
v -0.278164 1.136600 0.319939
v -0.372571 1.136493 0.222815
v -0.446778 0.849702 0.351499
v -0.000017 -1.002857 -0.000018
v -0.331578 2.289277 0.000000
v 0.468515 -1.002857 1.087189
v -0.000001 -1.002857 1.133806
v 1.087188 -1.002857 0.468516
v 1.133806 -1.002857 0.000000
v -1.133807 -1.002857 0.000000
v -1.087190 -1.002857 -0.468515
v -0.468516 -1.002857 -1.087189
v -0.000001 -1.002857 -1.133806
v 1.087188 -1.002857 -0.468515
v -0.468516 -1.002857 1.087189
v 0.468515 -1.002857 -1.087189
v -1.087190 -1.002857 0.468516
v -0.080237 2.166475 0.000000
v -0.090497 2.161688 -0.113779
v -0.090497 2.161688 0.113780
v -0.196337 2.326438 -0.325445
v -0.331573 2.289279 -0.339400
v -0.658843 2.199353 0.000000
v -0.645387 2.203051 0.140248
v -0.645387 2.203051 -0.140248
v -0.466809 2.252119 -0.325445
v -0.004302 2.379204 0.000000
v -0.017758 2.375507 -0.140248
v -0.466809 2.252119 0.325446
v -0.331573 2.289279 0.339401
v -0.017758 2.375507 0.140249
v -0.196337 2.326438 0.325446
v 0.864876 -1.002857 0.960155
v 0.960155 -1.002857 0.864877
v -0.960156 -1.002857 0.864877
v -0.864877 -1.002857 0.960155
v 0.960155 -1.002857 -0.864877
v 0.864876 -1.002857 -0.960155
v -0.864877 -1.002857 -0.960155
v -0.960156 -1.002857 -0.864877
v -0.102447 2.156114 -0.154924
v -0.102447 2.156114 0.154924
v -0.623713 2.209006 -0.210379
v -0.534005 2.233655 -0.303111
v -0.038616 2.369776 0.207738
v -0.122265 2.346791 0.300826
v -0.534005 2.233655 0.303111
v -0.623713 2.209006 0.210380
v -0.122265 2.346791 -0.300825
v -0.038616 2.369776 -0.207738
vt 0.131561 0.788489
vt 0.291734 0.788561
vt 0.138116 0.854678
vt 0.838393 0.426422
vt 0.808668 0.537468
vt 0.760754 0.530470
vt 0.778992 0.413368
vt 0.366732 0.030942
vt 0.355096 0.146175
vt 0.299245 0.144878
vt 0.300519 0.027083
vt 0.598523 0.530778
vt 0.647869 0.526543
vt 0.655737 0.597968
vt 0.616848 0.599798
vt 0.096678 0.051821
vt 0.129973 0.171609
vt 0.070244 0.197902
vt 0.029836 0.071735
vt 0.497266 0.429960
vt 0.533316 0.553821
vt 0.472261 0.583054
vt 0.427668 0.451831
vt 0.233796 0.028843
vt 0.243004 0.145955
vt 0.194201 0.150136
vt 0.174726 0.035388
vt 0.710124 0.405990
vt 0.704591 0.526578
vt 0.640266 0.405989
vt 0.786936 0.604450
vt 0.748635 0.600566
vt 0.251455 0.218244
vt 0.211812 0.219584
vt 0.582198 0.534522
vt 0.600385 0.604765
vt 0.565217 0.625727
vt 0.975305 0.474051
vt 0.929662 0.594095
vt 0.871250 0.563057
vt 0.912464 0.450158
vt 0.560347 0.075537
vt 0.525581 0.194770
vt 0.466393 0.170120
vt 0.497931 0.057339
vt 0.418699 0.153319
vt 0.439105 0.241509
vt 0.403049 0.222929
vt 0.442254 0.043288
vt 0.578513 0.412402
vt 0.824264 0.542007
vt 0.836730 0.632297
vt 0.802997 0.609943
vt 0.346943 0.217884
vt 0.299294 0.217979
vt 0.158826 0.243380
vt 0.114100 0.271167
vt 0.156344 0.038641
vt 0.178092 0.153686
vt 0.702313 0.598478
vt 0.559475 0.415823
vt 0.483976 0.268192
vt 0.402956 0.149997
vt 0.386210 0.218853
vt 0.878436 0.664984
vt 0.856185 0.431365
vt 0.521673 0.657055
vt 0.424639 0.039727
vt 0.194944 0.224140
vt 0.216838 0.312841
vt 0.195038 0.322562
vt 0.659408 0.737014
vt 0.673295 0.735650
vt 0.675976 0.805208
vt 0.666685 0.805169
vt 0.770994 0.753443
vt 0.790956 0.766961
vt 0.779512 0.812341
vt 0.759354 0.809462
vt 0.759036 0.746324
vt 0.749520 0.808231
vt 0.625942 0.687870
vt 0.606999 0.699957
vt 0.625925 0.750222
vt 0.638210 0.743616
vt 0.645017 0.805954
vt 0.635132 0.806759
vt 0.698882 0.735142
vt 0.724401 0.736809
vt 0.718637 0.806140
vt 0.697311 0.805552
vt 0.754698 0.684038
vt 0.732598 0.681320
vt 0.238540 0.308354
vt 0.382285 0.368896
vt 0.405274 0.375389
vt 0.386131 0.415999
vt 0.367110 0.410040
vt 0.360903 0.307502
vt 0.336294 0.307201
vt 0.368775 0.366022
vt 0.357929 0.407576
vt 0.256426 0.364573
vt 0.271525 0.364299
vt 0.276721 0.402922
vt 0.266272 0.403828
vt 0.328734 0.363868
vt 0.343819 0.363911
vt 0.334593 0.403282
vt 0.324136 0.402544
vt 0.738195 0.738795
vt 0.727918 0.806506
vt 0.433518 0.336632
vt 0.404353 0.321086
vt 0.299752 0.306864
vt 0.263186 0.307697
vt 0.605361 0.762897
vt 0.614856 0.808768
vt 0.300134 0.363679
vt 0.300427 0.402113
vt 0.792027 0.704239
vt 0.773723 0.691417
vt 0.166061 0.338706
vt 0.700203 0.679313
vt 0.667702 0.679776
vt 0.816765 0.725066
vt 0.581286 0.719843
vt 0.195038 0.377062
vt 0.217962 0.370169
vt 0.233842 0.411120
vt 0.214905 0.417402
vt 0.382460 0.311799
vt 0.242989 0.408502
vt 0.252978 0.515581
vt 0.245992 0.516952
vt 0.645428 0.681466
vt 0.715465 0.926150
vt 0.694712 0.925326
vt 0.249298 0.557391
vt 0.237980 0.557391
vt 0.673941 0.925254
vt 0.666381 0.924811
vt 0.320335 0.511009
vt 0.301309 0.510634
vt 0.374779 0.519077
vt 0.356718 0.516032
vt 0.282291 0.511324
vt 0.327799 0.511584
vt 0.723037 0.926033
vt 0.754675 0.920896
vt 0.746930 0.922893
vt 0.227982 0.520299
vt 0.274837 0.512024
vt 0.772858 0.916384
vt 0.634990 0.918314
vt 0.617017 0.913022
vt 0.642643 0.920643
vt 0.349712 0.514777
vt 0.673941 0.925254
vt 0.694712 0.925326
vt 0.693902 0.962913
vt 0.674428 0.962667
vt 0.280349 0.555733
vt 0.269006 0.556337
vt 0.771647 0.953992
vt 0.751548 0.958910
vt 0.636477 0.956431
vt 0.616605 0.950651
vt 0.647454 0.959487
vt 0.365401 0.556328
vt 0.354086 0.556516
vt 0.715465 0.926150
vt 0.713367 0.963505
vt 0.722540 0.188322
vt 0.734758 0.175138
vt 0.765541 0.217550
vt 0.666381 0.924811
vt 0.664097 0.962483
vt 0.323016 0.555376
vt 0.301678 0.554977
vt 0.387094 0.555205
vt 0.334365 0.555791
vt 0.723037 0.926033
vt 0.723696 0.963765
vt 0.740451 0.961490
vt 0.216269 0.556630
vt 0.231455 0.367068
vt 0.745601 0.171630
vt 0.427427 0.666446
vt 0.413974 0.652980
vt 0.169489 0.924145
vt 0.156036 0.910679
vt 0.719511 0.197865
vt 0.811570 0.237235
vt 0.813487 0.217417
vt 0.717594 0.217682
vt 0.765408 0.169604
vt 0.785226 0.171520
vt 0.795079 0.174648
vt 0.808258 0.187712
vt 0.811460 0.197610
vt 0.808422 0.247151
vt 0.795316 0.260288
vt 0.785480 0.263470
vt 0.765673 0.265496
vt 0.745855 0.263580
vt 0.734994 0.260132
vt 0.722702 0.247015
vt 0.719620 0.237489
vt 0.138177 0.722305
vt 0.156149 0.666321
vt 0.169615 0.652867
vt 0.225617 0.634947
vt 0.291806 0.628392
vt 0.357989 0.635009
vt 0.445347 0.722448
vt 0.451902 0.788637
vt 0.445286 0.854820
vt 0.427314 0.910805
vt 0.413848 0.924259
vt 0.357846 0.942179
vt 0.291657 0.948733
vt 0.225474 0.942117
vn -0.0000 -1.0000 -0.0000
vn 0.8537 0.0000 -0.5208
vn 0.8302 0.2158 -0.5140
vn 0.9588 0.2002 -0.2015
vn 0.9791 0.0000 -0.2032
vn -0.9791 -0.0000 0.2032
vn -0.9588 0.2002 0.2015
vn -0.9805 0.1963 -0.0000
vn -1.0000 -0.0000 -0.0000
vn 0.8302 0.2158 0.5140
vn 0.9588 0.2002 0.2015
vn 0.8174 0.5505 0.1701
vn 0.6958 0.5807 0.4228
vn -0.2032 0.0000 -0.9791
vn -0.2015 0.2002 -0.9588
vn 0.0000 0.1963 -0.9805
vn 0.0000 0.0000 -1.0000
vn 0.2032 -0.0000 0.9791
vn 0.2015 0.2002 0.9588
vn -0.0000 0.1963 0.9805
vn 0.0000 -0.0000 1.0000
vn -0.9791 0.0000 -0.2032
vn -0.9588 0.2002 -0.2015
vn -0.8302 0.2158 -0.5140
vn -0.8537 0.0000 -0.5208
vn 1.0000 0.0000 -0.0000
vn 0.9805 0.1963 -0.0000
vn 0.9791 -0.0000 0.2032
vn 0.6958 0.5807 -0.4228
vn 0.8174 0.5505 -0.1701
vn -0.8174 0.5505 -0.1701
vn -0.6958 0.5807 -0.4228
vn 0.5140 0.2158 0.8302
vn 0.4228 0.5807 0.6958
vn 0.1701 0.5505 0.8174
vn 0.2015 0.2002 -0.9588
vn 0.2032 0.0000 -0.9791
vn -0.2015 0.2002 0.9588
vn -0.2032 -0.0000 0.9791
vn -0.5140 0.2158 0.8302
vn -0.1701 0.5505 0.8174
vn -0.4228 0.5807 0.6958
vn -0.5208 -0.0000 0.8537
vn 0.8537 -0.0000 0.5208
vn 0.5140 0.2158 -0.8302
vn 0.1701 0.5505 -0.8174
vn 0.4228 0.5807 -0.6958
vn -0.8174 0.5505 0.1701
vn -0.8400 0.5426 0.0000
vn -0.1701 0.5505 -0.8174
vn 0.0000 0.5426 -0.8400
vn -0.5208 0.0000 -0.8537
vn -0.5140 0.2158 -0.8302
vn 0.8400 0.5426 0.0000
vn 0.5208 -0.0000 0.8537
vn 0.0000 0.5426 0.8400
vn -0.8302 0.2158 0.5140
vn -0.6958 0.5807 0.4228
vn 0.5208 0.0000 -0.8537
vn -0.8537 -0.0000 0.5208
vn -0.4228 0.5807 -0.6958
vn -0.4024 0.6144 -0.6786
vn -0.1626 0.5837 -0.7955
vn 0.7389 0.4972 0.4546
vn 0.8554 0.4855 0.1803
vn 0.9071 0.3715 0.1977
vn 0.7899 0.3516 0.5023
vn 0.1702 0.3676 -0.9143
vn -0.0183 0.3327 -0.9429
vn -0.0265 0.1173 -0.9927
vn 0.1702 0.1701 -0.9706
vn 0.4491 0.4485 -0.7728
vn 0.4751 0.2658 -0.8388
vn 0.3911 0.6545 0.6470
vn 0.1621 0.6002 0.7833
vn 0.1702 0.3676 0.9143
vn 0.4491 0.4485 0.7728
vn 0.4751 0.2658 0.8388
vn 0.1702 0.1701 0.9706
vn 0.8756 0.4830 -0.0000
vn 0.8554 0.4855 -0.1803
vn 0.9071 0.3715 -0.1977
vn 0.9272 0.3745 -0.0000
vn 0.6420 0.6644 -0.3825
vn 0.7603 0.6305 -0.1561
vn -0.6840 0.5991 -0.4163
vn -0.2073 0.3097 0.9279
vn -0.0183 0.3327 0.9429
vn -0.0265 0.1173 0.9927
vn -0.2228 0.0696 0.9724
vn -0.6840 0.5991 0.4163
vn -0.8244 0.5395 0.1712
vn -0.5011 0.2905 0.8152
vn -0.5296 -0.0020 0.8482
vn -0.8386 0.2167 -0.4998
vn -0.9691 0.1466 -0.1982
vn -0.9680 -0.1523 -0.1996
vn -0.8534 -0.0998 -0.5116
vn -0.9691 0.1466 0.1982
vn -0.8386 0.2167 0.4998
vn -0.8534 -0.0998 0.5116
vn -0.9680 -0.1523 0.1996
vn 0.7389 0.4972 -0.4546
vn 0.7899 0.3516 -0.5023
vn 0.0005 0.5838 0.8119
vn -0.1626 0.5837 0.7955
vn -0.8491 0.5282 0.0000
vn -0.8244 0.5395 -0.1712
vn -0.9910 0.1336 -0.0000
vn -0.9869 -0.1615 -0.0000
vn 0.1621 0.6002 -0.7833
vn 0.3911 0.6545 -0.6470
vn 0.0005 0.5838 -0.8119
vn 0.7816 0.6238 -0.0000
vn 0.7603 0.6305 0.1561
vn -0.2073 0.3097 -0.9279
vn -0.2228 0.0696 -0.9724
vn -0.4024 0.6144 0.6786
vn -0.5296 -0.0020 -0.8482
vn -0.4915 -0.1984 -0.8480
vn -0.1749 -0.1373 -0.9750
vn 0.6420 0.6644 0.3825
vn 0.9214 0.3329 -0.2005
vn 0.9411 0.3382 -0.0000
vn -0.4302 -0.2895 -0.8550
vn -0.1103 -0.2550 -0.9606
vn 0.9214 0.3329 0.2005
vn 0.8093 0.3025 0.5035
vn -0.9435 -0.2653 0.1986
vn -0.9636 -0.2672 -0.0000
vn 0.0290 -0.1092 0.9936
vn -0.1749 -0.1373 0.9750
vn -0.9435 -0.2653 -0.1986
vn -0.8238 -0.2527 0.5074
vn 0.8093 0.3025 -0.5035
vn 0.2324 -0.0911 -0.9683
vn 0.5437 -0.0731 -0.8361
vn 0.0290 -0.1092 -0.9936
vn -0.8238 -0.2527 -0.5074
vn 0.2324 -0.0911 0.9683
vn 0.5437 -0.0731 0.8361
vn -0.4915 -0.1984 0.8480
vn 0.9284 -0.3352 0.1602
vn 0.9428 -0.3334 -0.0000
vn 0.9287 -0.3351 0.1590
vn -0.9339 -0.2903 -0.2085
vn -0.7801 -0.3099 -0.5436
vn 0.1083 -0.2600 -0.9595
vn 0.3187 -0.2850 -0.9040
vn 0.3187 -0.2850 0.9040
vn 0.1083 -0.2600 0.9595
vn 0.6310 -0.3362 0.6992
vn -0.1103 -0.2550 0.9606
vn -0.4302 -0.2895 0.8550
vn 0.9284 -0.3352 -0.1602
vn 0.9287 -0.3351 -0.1590
vn -0.2650 0.9643 -0.0000
vn 0.8398 -0.3474 0.4171
vn 0.8494 -0.3467 0.3980
vn -0.9339 -0.2903 0.2085
vn -0.9581 -0.2866 -0.0000
vn -0.7801 -0.3099 0.5436
vn 0.8398 -0.3474 -0.4171
vn 0.8494 -0.3467 -0.3980
vn 0.6310 -0.3362 -0.6992
vn -0.5011 0.2905 -0.8152
usemtl None
s 1
f 164/1/1 161/2/1 20/3/1
f 194/4/2 76/5/3 6/6/4 171/7/5
f 174/8/6 8/9/7 7/10/8 167/11/9
f 77/12/10 3/13/11 27/14/12 93/15/13
f 169/16/14 12/17/15 11/18/16 170/19/17
f 163/20/18 10/21/19 9/22/20 21/23/21
f 168/24/22 1/25/23 73/26/24 197/27/25
f 166/28/26 5/29/27 3/13/11 165/30/28
f 6/6/4 76/5/3 92/31/29 30/32/30
f 73/26/24 1/25/23 25/33/31 89/34/32
f 10/21/19 78/35/33 94/36/34 34/37/35
f 171/7/5 6/6/4 5/29/27 166/28/26
f 170/38/17 11/39/16 2/40/36 173/41/37
f 21/42/21 9/43/20 4/44/38 172/45/39
f 79/46/40 4/44/38 28/47/41 95/48/42
f 167/11/9 7/10/8 1/25/23 168/24/22
f 172/45/39 4/44/38 79/46/40 193/49/43
f 165/30/28 3/13/11 77/12/10 191/50/44
f 75/51/45 2/40/36 26/52/46 91/53/47
f 7/10/8 8/9/7 32/54/48 31/55/49
f 11/18/16 12/17/15 36/56/50 35/57/51
f 1/25/23 7/10/8 31/55/49 25/33/31
f 196/58/52 74/59/53 12/17/15 169/16/14
f 3/13/11 5/29/27 29/60/54 27/14/12
f 190/61/55 78/35/33 10/21/19 163/20/18
f 4/44/38 9/43/20 33/62/56 28/47/41
f 8/9/7 80/63/57 96/64/58 32/54/48
f 2/40/36 11/39/16 35/65/51 26/52/46
f 173/41/37 2/40/36 75/51/45 195/66/59
f 5/29/27 6/6/4 30/32/30 29/60/54
f 9/22/20 10/21/19 34/37/35 33/67/56
f 192/68/60 80/63/57 8/9/7 174/8/6
f 36/56/50 90/69/61 148/70/62 143/71/63
f 154/72/64 125/73/65 39/74/66 101/75/67
f 123/76/68 142/77/69 47/78/70 38/79/71
f 150/80/72 123/76/68 38/79/71 99/81/73
f 34/37/35 94/36/34 156/82/74 139/83/75
f 140/84/76 155/85/77 102/86/78 46/87/79
f 129/88/80 132/89/81 42/90/82 41/91/83
f 30/32/30 92/31/29 152/92/84 131/93/85
f 89/34/32 145/94/86 148/70/62 90/69/61
f 127/95/87 138/96/88 45/97/89 40/98/90
f 32/54/48 96/64/58 160/99/91 135/100/92
f 158/101/93 127/95/87 40/98/90 103/102/94
f 146/103/95 121/104/96 37/105/97 97/106/98
f 136/107/99 159/108/100 104/109/101 44/110/102
f 132/89/81 151/111/103 100/112/104 42/90/82
f 125/73/65 129/88/80 41/91/83 39/74/66
f 28/47/41 33/62/56 137/113/105 128/114/106
f 25/33/31 31/55/49 134/115/107 122/116/108
f 138/117/88 140/84/76 46/87/79 45/118/89
f 133/119/109 136/107/99 44/110/102 43/120/110
f 91/53/47 26/52/46 124/121/111 149/122/112
f 35/57/51 36/56/50 143/71/63 141/123/113
f 27/14/12 29/60/54 130/124/114 126/125/115
f 89/34/32 25/33/31 122/116/108 145/94/86
f 26/52/46 35/65/51 141/126/113 124/121/111
f 33/67/56 34/37/35 139/83/75 137/127/105
f 142/128/69 144/129/116 48/130/117 47/131/70
f 95/48/42 28/47/41 128/114/106 157/132/118
f 29/60/54 30/32/30 131/93/85 130/124/114
f 48/130/117 98/133/119 106/134/120 60/135/121
f 93/15/13 27/14/12 126/125/115 153/136/122
f 31/55/49 32/54/48 135/100/92 134/115/107
f 41/91/83 42/90/82 176/137/123 175/138/124
f 60/135/121 106/134/120 201/139/125 183/140/126
f 101/75/67 39/74/66 177/141/127 199/142/128
f 43/120/110 44/110/102 56/143/129 55/144/130
f 40/98/90 45/97/89 57/145/131 52/146/132
f 37/105/97 43/120/110 55/144/130 49/147/133
f 44/110/102 104/109/101 112/148/134 56/143/129
f 42/90/82 100/112/104 198/149/135 176/137/123
f 99/81/73 38/79/71 50/150/136 107/151/137
f 47/131/70 48/130/117 60/135/121 59/152/138
f 39/74/66 41/91/83 175/138/124 177/141/127
f 97/106/98 37/105/97 49/147/133 105/153/139
f 38/79/71 47/78/70 59/154/138 50/150/136
f 45/118/89 46/87/79 58/155/140 57/156/131
f 46/87/79 102/86/78 110/157/141 58/155/140
f 103/102/94 40/98/90 52/146/132 111/158/142
f 51/159/143 53/160/144 184/161/144 188/162/145
f 105/153/139 49/147/133 182/163/146 200/164/147
f 50/150/136 59/154/138 179/165/148 178/166/149
f 57/156/131 58/155/140 189/167/150 187/168/151
f 58/155/140 110/157/141 203/169/152 189/167/150
f 111/158/142 52/146/132 186/170/153 204/171/154
f 53/160/144 54/172/155 185/173/156 184/161/144
f 207/174/157 116/175/157 162/176/157
f 109/177/158 51/159/143 188/162/145 202/178/159
f 55/144/130 56/143/129 181/179/160 180/180/161
f 52/146/132 57/145/131 187/181/151 186/170/153
f 49/147/133 55/144/130 180/180/161 182/163/146
f 56/143/129 112/148/134 205/182/162 181/179/160
f 54/172/155 108/183/163 115/184/164 185/173/156
f 107/151/137 50/150/136 178/166/149 206/185/165
f 59/152/138 60/135/121 183/140/126 179/186/148
f 144/129/116 147/187/166 98/133/119 48/130/117
f 78/35/33 190/61/55 191/50/44 77/12/10
f 80/63/57 192/68/60 193/49/43 79/46/40
f 76/5/3 194/4/2 195/66/59 75/51/45
f 74/59/53 196/58/52 197/27/25 73/26/24
f 96/64/58 80/63/57 79/46/40 95/48/42
f 77/12/10 93/15/13 94/36/34 78/35/33
f 90/69/61 74/59/53 73/26/24 89/34/32
f 75/51/45 91/53/47 92/31/29 76/5/3
f 98/133/119 147/187/166 146/103/95 97/106/98
f 95/48/42 157/132/118 160/99/91 96/64/58
f 158/101/93 103/102/94 104/109/101 159/108/100
f 100/112/104 151/111/103 150/80/72 99/81/73
f 156/82/74 94/36/34 93/15/13 153/136/122
f 154/72/64 101/75/67 102/86/78 155/85/77
f 91/53/47 149/122/112 152/92/84 92/31/29
f 112/148/134 104/109/101 103/102/94 111/158/142
f 99/81/73 107/151/137 198/149/135 100/112/104
f 101/75/67 199/142/128 110/157/141 102/86/78
f 106/134/120 98/133/119 97/106/98 105/153/139
f 105/153/139 200/164/147 201/139/125 106/134/120
f 203/169/152 110/157/141 109/177/158 202/178/159
f 111/158/142 204/171/154 205/182/162 112/148/134
f 107/151/137 206/185/165 115/184/164 108/183/163
f 12/17/15 74/59/53 90/69/61 36/56/50
f 124/121/111 141/126/113 142/77/69 123/76/68
f 134/115/107 135/100/92 136/107/99 133/119/109
f 122/116/108 134/115/107 133/119/109 121/104/96
f 141/123/113 143/71/63 144/129/116 142/128/69
f 130/124/114 131/93/85 132/89/81 129/88/80
f 128/114/106 137/113/105 138/96/88 127/95/87
f 126/125/115 130/124/114 129/88/80 125/73/65
f 137/127/105 139/83/75 140/84/76 138/117/88
f 146/103/95 147/187/166 148/70/62 145/94/86
f 154/72/64 155/85/77 156/82/74 153/136/122
f 158/101/93 159/108/100 160/99/91 157/132/118
f 150/80/72 151/111/103 152/92/84 149/122/112
f 147/187/166 144/129/116 143/71/63 148/70/62
f 121/104/96 146/103/95 145/94/86 122/116/108
f 123/76/68 150/80/72 149/122/112 124/121/111
f 151/111/103 132/89/81 131/93/85 152/92/84
f 125/73/65 154/72/64 153/136/122 126/125/115
f 155/85/77 140/84/76 139/83/75 156/82/74
f 159/108/100 136/107/99 135/100/92 160/99/91
f 127/95/87 158/101/93 157/132/118 128/114/106
f 121/104/96 133/119/109 43/120/110 37/105/97
f 116/175/157 62/188/157 162/176/157
f 88/189/1 161/2/1 87/190/1
f 161/2/1 85/191/1 86/192/1
f 86/192/1 20/3/1 161/2/1
f 66/193/157 207/174/157 162/176/157
f 68/194/157 162/176/157 67/195/157
f 66/193/157 162/176/157 65/196/157
f 71/197/157 162/176/157 62/188/157
f 72/198/157 162/176/157 71/197/157
f 72/198/157 113/199/157 162/176/157
f 113/199/157 114/200/157 162/176/157
f 114/200/157 61/201/157 162/176/157
f 67/195/157 162/176/157 61/201/157
f 68/194/157 119/202/157 162/176/157
f 119/202/157 120/203/157 162/176/157
f 120/203/157 64/204/157 162/176/157
f 69/205/157 162/176/157 64/204/157
f 70/206/157 162/176/157 69/205/157
f 70/206/157 117/207/157 162/176/157
f 117/207/157 118/208/157 162/176/157
f 118/208/157 63/209/157 162/176/157
f 65/196/157 162/176/157 63/209/157
f 164/1/1 13/210/1 161/2/1
f 13/210/1 81/211/1 161/2/1
f 81/211/1 82/212/1 161/2/1
f 82/212/1 15/213/1 161/2/1
f 16/214/1 161/2/1 15/213/1
f 24/215/1 161/2/1 16/214/1
f 24/215/1 87/190/1 161/2/1
f 88/189/1 18/216/1 161/2/1
f 19/217/1 161/2/1 18/216/1
f 19/217/1 14/218/1 161/2/1
f 14/218/1 83/219/1 161/2/1
f 83/219/1 84/220/1 161/2/1
f 84/220/1 23/221/1 161/2/1
f 23/221/1 22/222/1 161/2/1
f 22/222/1 17/223/1 161/2/1
f 85/191/1 161/2/1 17/223/1
