# Blender v2.79 (sub 0) OBJ File: 'Pumpkin.blend'
# www.blender.org
mtllib hat_3.mtl
o Cube.002
v -0.034344 0.984305 0.034344
v -0.061756 1.278330 0.061756
v -0.034344 0.984305 -0.034344
v -0.061756 1.278330 -0.061756
v 0.034344 0.984305 0.034344
v 0.061756 1.278330 0.061756
v 0.034344 0.984305 -0.034344
v 0.061756 1.278330 -0.061756
v -0.500132 -0.000000 0.500132
v -0.500132 1.000263 0.500132
v -0.500132 -0.000000 -0.500132
v -0.500132 1.000263 -0.500132
v 0.500132 -0.000000 0.500132
v 0.500132 1.000263 0.500132
v 0.500132 -0.000000 -0.500132
v 0.500132 1.000263 -0.500132
vt 0.742830 0.468601
vt 0.726200 0.289424
vt 0.801142 0.289425
vt 0.784507 0.468601
vt 0.980319 0.272795
vt 0.801144 0.214483
vt 0.980320 0.231118
vt 0.784514 0.035306
vt 0.726201 0.214481
vt 0.742837 0.035305
vt 0.547024 0.231111
vt 0.547024 0.272788
vt 0.508203 0.021963
vt 0.508203 0.260981
vt 0.269184 0.260981
vt 0.269184 0.021963
vt 0.030166 0.739019
vt 0.030166 0.500000
vt 0.269184 0.500000
vt 0.269184 0.739019
vt 0.508203 0.500000
vt 0.508203 0.739019
vt 0.747221 0.500000
vt 0.747221 0.739019
vt 0.269184 0.978037
vt 0.508203 0.978037
vn -0.9957 -0.0928 0.0000
vn 0.0000 -0.0928 -0.9957
vn 0.9957 -0.0928 0.0000
vn 0.0000 -0.0928 0.9957
vn 0.0000 1.0000 0.0000
vn -1.0000 0.0000 0.0000
vn 0.0000 0.0000 -1.0000
vn 1.0000 0.0000 0.0000
vn 0.0000 0.0000 1.0000
vn 0.0000 -1.0000 0.0000
usemtl None
s off
f 1/1/1 2/2/1 4/3/1 3/4/1
f 3/5/2 4/3/2 8/6/2 7/7/2
f 7/8/3 8/6/3 6/9/3 5/10/3
f 5/11/4 6/9/4 2/2/4 1/12/4
f 8/6/5 4/3/5 2/2/5 6/9/5
f 9/13/6 10/14/6 12/15/6 11/16/6
f 11/17/7 12/18/7 16/19/7 15/20/7
f 15/20/8 16/19/8 14/21/8 13/22/8
f 13/22/9 14/21/9 10/23/9 9/24/9
f 11/25/10 15/20/10 13/22/10 9/26/10
f 16/19/5 12/15/5 10/14/5 14/21/5
