# Blender v2.79 (sub 0) OBJ File: ''
# www.blender.org
mtllib hat_93.mtl
o headband_Cube.040
v -1.019387 0.682670 1.019387
v -1.019387 0.682670 -1.019387
v 1.019387 0.682670 1.019387
v 1.019387 0.682670 -1.019387
v -1.233458 0.682670 0.000000
v 1.233458 0.682670 0.000000
v 0.000000 0.682670 -1.233458
v 0.000000 0.682670 1.233458
v -1.182743 0.682670 0.509693
v 1.182743 0.682670 0.509693
v 1.182743 0.682670 -0.509693
v -1.182743 0.682670 -0.509693
v 0.509693 0.682670 1.182743
v 0.509693 0.682670 -1.182743
v -0.509693 0.682670 -1.182743
v -0.509693 0.682670 1.182743
v 1.182743 0.323636 -0.509693
v 1.019387 0.323636 -1.019387
v -1.233458 0.323636 0.000000
v -1.182743 0.323636 0.509693
v 1.182743 0.323636 0.509693
v 0.000000 0.323636 1.233458
v 0.509693 0.323636 1.182743
v 1.019387 0.323636 1.019387
v -1.019387 0.323636 1.019387
v -1.182743 0.323636 -0.509693
v -1.019387 0.323636 -1.019387
v 1.233458 0.323636 0.000000
v -0.509693 0.323636 -1.182743
v -0.509693 0.323636 1.182743
v 0.000000 0.323636 -1.233458
v 0.509693 0.323636 -1.182743
v 0.000000 0.323636 -0.986766
v -0.407755 0.323636 -0.946195
v 0.407755 0.323636 -0.946195
v 0.815509 0.323636 -0.815509
v -0.407755 0.323636 0.946195
v 0.000000 0.323636 0.986766
v -0.946195 0.323636 -0.407755
v -0.986766 0.323636 0.000000
v -0.815509 0.323636 0.815509
v -0.815509 0.323636 -0.815509
v 0.986766 0.323636 0.000000
v 0.946195 0.323636 -0.407755
v 0.946195 0.323636 0.407755
v -0.946195 0.323636 0.407755
v 0.815509 0.323636 0.815509
v 0.407755 0.323636 0.946195
v -0.946195 0.682670 0.407755
v -0.815509 0.682670 0.815509
v -0.407755 0.682670 -0.946195
v -0.815509 0.682670 -0.815509
v 0.946195 0.682670 -0.407755
v 0.815509 0.682670 -0.815509
v 0.407755 0.682670 0.946195
v 0.815509 0.682670 0.815509
v -0.946195 0.682670 -0.407755
v -0.986766 0.682670 0.000000
v 0.946195 0.682670 0.407755
v 0.986766 0.682670 0.000000
v 0.407755 0.682670 -0.946195
v 0.000000 0.682670 -0.986766
v 0.000000 0.682670 0.986766
v -0.407755 0.682670 0.946195
v -1.182743 0.682670 0.509693
v -1.019387 0.682670 1.019387
v -0.509693 0.682670 -1.182743
v -1.019387 0.682670 -1.019387
v 1.182743 0.682670 -0.509693
v 1.019387 0.682670 -1.019387
v 0.509693 0.682670 1.182743
v 1.019387 0.682670 1.019387
v -1.182743 0.682670 -0.509693
v -1.233458 0.682670 0.000000
v 1.182743 0.682670 0.509693
v 1.233458 0.682670 0.000000
v 0.509693 0.682670 -1.182743
v 0.000000 0.682670 -1.233458
v 0.000000 0.682670 1.233458
v -0.509693 0.682670 1.182743
v 0.000000 0.323636 -1.233458
v -0.509693 0.323636 -1.182743
v 0.509693 0.323636 -1.182743
v 1.019387 0.323636 -1.019387
v -0.509693 0.323636 1.182743
v 0.000000 0.323636 1.233458
v -1.182743 0.323636 -0.509693
v -1.233458 0.323636 0.000000
v -1.019387 0.323636 1.019387
v -1.019387 0.323636 -1.019387
v 1.233458 0.323636 0.000000
v 1.182743 0.323636 -0.509693
v 1.182743 0.323636 0.509693
v -1.182743 0.323636 0.509693
v 1.019387 0.323636 1.019387
v 0.509693 0.323636 1.182743
v 0.000000 0.323636 -0.986766
v -0.407755 0.323636 -0.946195
v 0.407755 0.323636 -0.946195
v 0.815509 0.323636 -0.815509
v -0.407755 0.323636 0.946195
v 0.000000 0.323636 0.986766
v -0.946195 0.323636 -0.407755
v -0.986766 0.323636 0.000000
v -0.815509 0.323636 0.815509
v -0.815509 0.323636 -0.815509
v 0.986766 0.323636 0.000000
v 0.946195 0.323636 -0.407755
v 0.946195 0.323636 0.407755
v -0.946195 0.323636 0.407755
v 0.815509 0.323636 0.815509
v 0.407755 0.323636 0.946195
v -0.946195 0.682670 0.407755
v -0.815509 0.682670 0.815509
v -0.407755 0.682670 -0.946195
v -0.815509 0.682670 -0.815509
v 0.946195 0.682670 -0.407755
v 0.815509 0.682670 -0.815509
v 0.407755 0.682670 0.946195
v 0.815509 0.682670 0.815509
v -0.946195 0.682670 -0.407755
v -0.986766 0.682670 0.000000
v 0.946195 0.682670 0.407755
v 0.986766 0.682670 0.000000
v 0.407755 0.682670 -0.946195
v 0.000000 0.682670 -0.986766
v 0.000000 0.682670 0.986766
v -0.407755 0.682670 0.946195
vt 0.202209 0.724467
vt 0.103348 0.724467
vt 0.103348 0.655170
vt 0.202209 0.655170
vt 0.507680 0.619037
vt 0.408819 0.619037
vt 0.408819 0.549740
vt 0.507680 0.549740
vt 0.606542 0.619037
vt 0.606542 0.549740
vt 0.305514 0.724467
vt 0.305514 0.655170
vt 0.813151 0.724467
vt 0.709846 0.724467
vt 0.709846 0.655170
vt 0.813151 0.655170
vt 0.507680 0.724467
vt 0.408819 0.724467
vt 0.408819 0.655170
vt 0.507680 0.655170
vt 0.912012 0.724467
vt 0.912012 0.655170
vt 0.813151 0.619037
vt 0.709846 0.619037
vt 0.709846 0.549740
vt 0.813151 0.549740
vt 0.912012 0.619037
vt 0.912012 0.549740
vt 0.606542 0.724467
vt 0.606542 0.655170
vt 0.305514 0.619037
vt 0.305514 0.549740
vt 0.202209 0.619037
vt 0.103348 0.619037
vt 0.103348 0.549740
vt 0.202209 0.549740
vt 0.049963 0.450012
vt 0.019332 0.351353
vt 0.065166 0.332096
vt 0.089671 0.411023
vt 0.547901 0.454174
vt 0.516824 0.355655
vt 0.562570 0.336190
vt 0.587432 0.415005
vt 0.184214 0.769389
vt 0.263303 0.769389
vt 0.263303 0.838686
vt 0.184214 0.838686
vt 0.744461 0.496396
vt 0.646131 0.486155
vt 0.666016 0.440590
vt 0.744679 0.448782
vt 0.648228 0.029599
vt 0.746648 0.020263
vt 0.746429 0.067876
vt 0.667694 0.075345
vt 0.943207 0.062484
vt 0.974284 0.161003
vt 0.928538 0.180468
vt 0.903677 0.101653
vt 0.507488 0.257236
vt 0.517728 0.158906
vt 0.563293 0.178791
vt 0.555101 0.257454
vt 0.973381 0.357752
vt 0.941400 0.455982
vt 0.902230 0.416452
vt 0.927815 0.337868
vt 0.549709 0.060676
vt 0.588878 0.100207
vt 0.842880 0.487059
vt 0.823415 0.441313
vt 0.983621 0.259423
vt 0.936007 0.259204
vt 0.844977 0.030503
vt 0.825093 0.076068
vt 0.752057 0.885561
vt 0.831146 0.885561
vt 0.831146 0.954858
vt 0.752057 0.954858
vt 0.246330 0.493123
vt 0.148047 0.482438
vt 0.168138 0.436963
vt 0.246764 0.445511
vt 0.477669 0.158775
vt 0.486560 0.257236
vt 0.438948 0.256801
vt 0.431836 0.178033
vt 0.250673 0.017005
vt 0.348955 0.027690
vt 0.328864 0.073165
vt 0.250238 0.064617
vt 0.344790 0.484233
vt 0.325532 0.438399
vt 0.443449 0.453602
vt 0.404460 0.413894
vt 0.021127 0.154610
vt 0.053552 0.056526
vt 0.092542 0.096234
vt 0.066602 0.174701
vt 0.010442 0.252893
vt 0.058054 0.253327
vt 0.475875 0.355518
vt 0.430400 0.335427
vt 0.152212 0.025896
vt 0.171470 0.071729
vt 0.447039 0.060116
vt 0.407331 0.099105
vt 0.669413 0.885561
vt 0.669413 0.954858
vt 0.586769 0.885561
vt 0.586769 0.954858
vt 0.507680 0.885561
vt 0.507680 0.954858
vt 0.428591 0.885561
vt 0.428591 0.954858
vt 0.345947 0.885561
vt 0.345947 0.954858
vt 0.263303 0.885561
vt 0.263303 0.954858
vt 0.184214 0.885561
vt 0.184214 0.954858
vt 0.752057 0.769389
vt 0.831146 0.769389
vt 0.831146 0.838686
vt 0.752057 0.838686
vt 0.669413 0.769389
vt 0.669413 0.838686
vt 0.586769 0.769389
vt 0.586769 0.838686
vt 0.507680 0.769389
vt 0.507680 0.838686
vt 0.428591 0.769389
vt 0.428591 0.838686
vt 0.345947 0.769389
vt 0.345947 0.838686
vn -0.2032 0.0000 -0.9791
vn 0.0000 0.0000 -1.0000
vn 1.0000 0.0000 0.0000
vn 0.9791 0.0000 0.2032
vn 0.9791 0.0000 -0.2032
vn -0.7071 0.0000 -0.7071
vn -0.2032 0.0000 0.9791
vn -0.7071 0.0000 0.7071
vn -1.0000 0.0000 0.0000
vn -0.9791 0.0000 -0.2032
vn 0.0000 0.0000 1.0000
vn 0.2032 0.0000 -0.9791
vn 0.7071 0.0000 -0.7071
vn -0.9791 0.0000 0.2032
vn 0.7071 0.0000 0.7071
vn 0.2032 0.0000 0.9791
vn 0.0000 1.0000 0.0000
vn 0.0000 -1.0000 0.0000
usemtl None
s 1
f 67/1/1 78/2/2 81/3/2 82/4/1
f 76/5/3 75/6/4 93/7/4 91/8/3
f 69/9/5 76/5/3 91/8/3 92/10/5
f 68/11/6 67/1/1 82/4/1 90/12/6
f 80/13/7 66/14/8 89/15/8 85/16/7
f 74/17/9 73/18/10 87/19/10 88/20/9
f 79/21/11 80/13/7 85/16/7 86/22/11
f 77/23/12 70/24/13 84/25/13 83/26/12
f 78/27/2 77/23/12 83/26/12 81/28/2
f 73/18/10 68/11/6 90/12/6 87/19/10
f 66/14/8 65/29/14 94/30/14 89/15/8
f 70/24/13 69/9/5 92/10/5 84/25/13
f 65/29/14 74/17/9 88/20/9 94/30/14
f 75/6/4 72/31/15 95/32/15 93/7/4
f 71/33/16 79/34/11 86/35/11 96/36/16
f 72/31/15 71/33/16 96/36/16 95/32/15
f 2/37/17 12/38/17 121/39/17 116/40/17
f 25/41/18 20/42/18 110/43/18 105/44/18
f 33/45/11 99/46/7 125/47/7 126/48/11
f 22/49/18 30/50/18 101/51/18 102/52/18
f 29/53/18 31/54/18 97/55/18 98/56/18
f 18/57/18 17/58/18 108/59/18 100/60/18
f 19/61/18 26/62/18 103/63/18 104/64/18
f 20/42/18 19/61/18 104/64/18 110/43/18
f 30/50/18 25/41/18 105/44/18 101/51/18
f 21/65/18 24/66/18 111/67/18 109/68/18
f 27/69/18 29/53/18 98/56/18 106/70/18
f 23/71/18 22/49/18 102/52/18 112/72/18
f 17/58/18 28/73/18 107/74/18 108/59/18
f 24/66/18 23/71/18 112/72/18 111/67/18
f 28/73/18 21/65/18 109/68/18 107/74/18
f 31/54/18 32/75/18 35/76/18 97/55/18
f 26/62/18 27/69/18 106/70/18 103/63/18
f 32/75/18 18/57/18 100/60/18 35/76/18
f 34/77/16 33/78/11 126/79/11 51/80/16
f 7/81/17 15/82/17 115/83/17 62/84/17
f 10/85/17 6/86/17 124/87/17 123/88/17
f 8/89/17 13/90/17 119/91/17 127/92/17
f 14/93/17 7/81/17 62/84/17 61/94/17
f 4/95/17 14/93/17 61/94/17 118/96/17
f 9/97/17 1/98/17 114/99/17 113/100/17
f 15/82/17 2/37/17 116/40/17 115/83/17
f 5/101/17 9/97/17 113/100/17 122/102/17
f 11/103/17 4/95/17 118/96/17 117/104/17
f 1/98/17 16/105/17 128/106/17 114/99/17
f 3/107/17 10/85/17 123/88/17 120/108/17
f 13/90/17 3/107/17 120/108/17 119/91/17
f 6/86/17 11/103/17 117/104/17 124/87/17
f 16/105/17 8/89/17 127/92/17 128/106/17
f 12/38/17 5/101/17 122/102/17 121/39/17
f 42/109/15 34/77/16 51/80/16 52/110/15
f 39/111/4 42/109/15 52/110/15 57/112/4
f 40/113/3 39/111/4 57/112/4 58/114/3
f 46/115/5 40/113/3 58/114/3 49/116/5
f 41/117/13 46/115/5 49/116/5 50/118/13
f 37/119/12 41/117/13 50/118/13 64/120/12
f 38/121/2 37/119/12 64/120/12 63/122/2
f 48/123/1 38/124/2 63/125/2 55/126/1
f 47/127/6 48/123/1 55/126/1 56/128/6
f 45/129/10 47/127/6 56/128/6 59/130/10
f 43/131/9 45/129/10 59/130/10 60/132/9
f 44/133/14 43/131/9 60/132/9 53/134/14
f 36/135/8 44/133/14 53/134/14 54/136/8
f 99/46/7 36/135/8 54/136/8 125/47/7
