# Blender v2.79 (sub 0) OBJ File: 'beanie.blend'
# www.blender.org
mtllib hat_13.mtl
o Cube.002_Cube.003
v -0.438248 0.120417 0.438248
v -0.438248 0.460305 0.438248
v -0.438248 0.120417 -0.438248
v -0.438248 0.460305 -0.438248
v 0.438248 0.120417 0.438248
v 0.438248 0.460305 0.438248
v 0.438248 0.120417 -0.438248
v 0.438248 0.460305 -0.438248
v -0.500131 0.000000 0.500132
v -0.500131 0.137273 0.500132
v -0.500131 0.000000 -0.500132
v -0.500131 0.137273 -0.500132
v 0.500132 -0.000000 0.500132
v 0.500132 0.137272 0.500132
v 0.500132 -0.000000 -0.500132
v 0.500132 0.137272 -0.500132
v -0.335587 0.393099 0.335587
v -0.335587 0.565520 0.335587
v -0.335587 0.393099 -0.335587
v -0.335587 0.565520 -0.335587
v 0.335587 0.393099 0.335587
v 0.335587 0.565519 0.335587
v 0.335587 0.393099 -0.335587
v 0.335587 0.565519 -0.335587
vt 0.738753 0.287377
vt 0.738753 0.254829
vt 0.975922 0.254829
vt 0.975922 0.287377
vt 0.027243 0.287377
vt 0.027243 0.254829
vt 0.264413 0.254829
vt 0.264413 0.287378
vt 0.501583 0.254829
vt 0.501583 0.287378
vt 0.264413 0.524548
vt 0.501583 0.524548
vt 0.264413 0.017659
vt 0.501583 0.017659
vt 0.499983 0.560302
vt 0.499983 0.651526
vt 0.264735 0.651526
vt 0.264735 0.560302
vt 0.029487 0.977999
vt 0.029487 0.886774
vt 0.264735 0.886774
vt 0.264735 0.977999
vt 0.499983 0.886774
vt 0.499983 0.977999
vt 0.735231 0.886774
vt 0.735231 0.977999
vt 0.960786 0.729807
vt 0.891088 0.729807
vt 0.891088 0.458497
vt 0.960786 0.458497
vt 0.891088 0.388799
vt 0.619778 0.458497
vt 0.619778 0.388799
vt 0.550080 0.458497
vt 0.619778 0.729807
vt 0.550080 0.729807
vt 0.619778 0.799505
vt 0.891088 0.799505
vn -1.0000 0.0000 0.0000
vn 0.0000 0.0000 -1.0000
vn 1.0000 0.0000 0.0000
vn 0.0000 0.0000 1.0000
vn -0.0000 -1.0000 0.0000
vn 0.0000 1.0000 0.0000
usemtl None
s off
f 9/1/1 10/2/1 12/3/1 11/4/1
f 11/5/2 12/6/2 16/7/2 15/8/2
f 15/8/3 16/7/3 14/9/3 13/10/3
f 13/10/4 14/9/4 10/2/4 9/1/4
f 11/11/5 15/8/5 13/10/5 9/12/5
f 16/7/6 12/13/6 10/14/6 14/9/6
usemtl None_Untitled.003
f 1/15/1 2/16/1 4/17/1 3/18/1
f 3/19/2 4/20/2 8/21/2 7/22/2
f 7/22/3 8/21/3 6/23/3 5/24/3
f 5/24/4 6/23/4 2/25/4 1/26/4
f 8/21/6 4/17/6 2/16/6 6/23/6
usemtl None_Untitled.005
f 17/27/1 18/28/1 20/29/1 19/30/1
f 19/31/2 20/29/2 24/32/2 23/33/2
f 23/34/3 24/32/3 22/35/3 21/36/3
f 21/37/4 22/35/4 18/28/4 17/38/4
f 24/32/6 20/29/6 18/28/6 22/35/6
