# Blender v2.79 (sub 0) OBJ File: 'hat_0.blend'
# www.blender.org
mtllib hat_0.mtl
o Cube
v -0.500132 0.000001 0.500132
v -0.500132 0.667431 0.500132
v -0.500132 0.000001 -0.500132
v -0.500132 0.667431 -0.500132
v 0.500132 0.000001 0.500132
v 0.500132 0.667431 0.500132
v 0.500132 0.000001 -0.500132
v 0.500132 0.667431 -0.500132
v -0.500132 0.203751 0.500132
v -0.500132 0.203751 -0.500132
v 0.500132 0.203751 -0.500132
v 0.500132 0.203751 0.500132
v -0.924233 0.000001 -0.924233
v -0.924233 0.000001 0.924233
v -0.924233 0.203751 -0.924233
v 0.924233 0.000001 -0.924233
v 0.924233 0.203751 -0.924233
v 0.924233 0.000001 0.924233
v 0.924233 0.203751 0.924233
v -0.924233 0.203751 0.924233
vt 0.013922 0.967806
vt 0.013922 0.855854
vt 0.255428 0.855854
vt 0.255428 0.967806
vt 0.496933 0.855854
vt 0.496933 0.967806
vt 0.738439 0.855854
vt 0.738438 0.967806
vt 0.979944 0.855854
vt 0.979944 0.967806
vt 0.382900 0.825035
vt 0.146278 0.825035
vt 0.146278 0.588413
vt 0.382900 0.588413
vt 0.496933 0.614349
vt 0.738439 0.614349
vt 0.205914 0.337488
vt 0.413387 0.337488
vt 0.501353 0.425455
vt 0.117947 0.425455
vt 0.589714 0.054995
vt 0.797187 0.054996
vt 0.885153 0.142962
vt 0.501748 0.142962
vt 0.413781 0.273189
vt 0.206308 0.273189
vt 0.118342 0.185223
vt 0.501748 0.185223
vt 0.413387 0.555683
vt 0.205914 0.555683
vt 0.117947 0.467716
vt 0.501353 0.467716
vt 0.884759 0.425455
vt 0.884759 0.467716
vt 0.118342 0.142962
vt 0.885153 0.185223
vt 0.797187 0.273189
vt 0.589714 0.273189
vt 0.206309 0.054995
vt 0.413781 0.054995
vt 0.796793 0.555683
vt 0.589320 0.555683
vt 0.589320 0.337488
vt 0.796793 0.337488
vn -1.0000 0.0000 0.0000
vn 0.0000 0.0000 -1.0000
vn 1.0000 0.0000 0.0000
vn 0.0000 0.0000 1.0000
vn 0.0000 -1.0000 0.0000
vn 0.0000 1.0000 0.0000
usemtl None
s off
f 9/1/1 2/2/1 4/3/1 10/4/1
f 10/4/2 4/3/2 8/5/2 11/6/2
f 11/6/3 8/5/3 6/7/3 12/8/3
f 12/8/4 6/7/4 2/9/4 9/10/4
f 3/11/5 7/12/5 5/13/5 1/14/5
f 8/5/6 4/15/6 2/16/6 6/7/6
f 3/17/5 1/18/5 14/19/5 13/20/5
f 7/21/5 3/22/5 13/23/5 16/24/5
f 11/25/6 12/26/6 19/27/6 17/28/6
f 9/29/6 10/30/6 15/31/6 20/32/6
f 18/33/4 19/34/4 20/32/4 14/19/4
f 16/24/3 17/28/3 19/27/3 18/35/3
f 13/23/2 15/36/2 17/28/2 16/24/2
f 14/19/1 20/32/1 15/31/1 13/20/1
f 10/37/6 11/38/6 17/28/6 15/36/6
f 5/39/5 7/40/5 16/24/5 18/35/5
f 12/41/6 9/42/6 20/32/6 19/34/6
f 1/43/5 5/44/5 18/33/5 14/19/5
