# Blender v2.91.2 OBJ File: ''
# www.blender.org
mtllib hat_242.mtl
o Plane.005_Plane.009
v 1.001000 0.527676 0.986882
v 1.001000 0.620682 -1.010954
v 1.001000 0.996745 -0.993447
v 1.001000 0.903739 1.004389
v 1.018880 0.324955 0.977445
v 1.018880 0.417960 -1.020391
v 1.136443 -0.891375 0.920821
v 1.136443 -0.798370 -1.077015
v 1.136443 -0.595648 -1.067578
v 1.136443 -0.688654 0.930259
v 1.139424 -0.392927 -1.058141
v 1.139424 -0.485932 0.939696
v 1.123647 -0.190205 -1.048703
v 1.123647 -0.283210 0.949133
v 1.091844 0.012517 -1.039266
v 1.091844 -0.080489 0.958571
v 1.053766 0.215238 -1.029829
v 1.053766 0.122233 0.968008
vt 0.023019 0.799747
vt 0.976981 0.799747
vt 0.976981 0.979317
vt 0.023019 0.979317
vt 0.023019 0.702948
vt 0.976981 0.702948
vt 0.023019 0.122154
vt 0.976981 0.122154
vt 0.976981 0.218953
vt 0.023019 0.218953
vt 0.976981 0.315752
vt 0.023019 0.315752
vt 0.976981 0.412551
vt 0.023019 0.412551
vt 0.976981 0.509350
vt 0.023019 0.509350
vt 0.976981 0.606149
vt 0.023019 0.606149
vn 0.9990 0.0439 0.0020
vn 1.0000 -0.0000 0.0000
vn 0.9917 0.1286 0.0060
vn 1.0000 -0.0073 -0.0003
vn 0.9995 0.0314 0.0015
vn 0.9932 0.1161 0.0054
vn 0.9855 0.1695 0.0079
vn 0.9842 0.1767 0.0082
usemtl None.001
s 1
f 1/1/1 2/2/1 3/3/2 4/4/2
f 5/5/3 6/6/3 2/2/1 1/1/1
f 7/7/2 8/8/2 9/9/4 10/10/4
f 10/10/4 9/9/4 11/11/5 12/12/5
f 12/12/5 11/11/5 13/13/6 14/14/6
f 14/14/6 13/13/6 15/15/7 16/16/7
f 16/16/7 15/15/7 17/17/8 18/18/8
f 18/18/8 17/17/8 6/6/3 5/5/3
