# Blender v3.0.0 OBJ File: ''
# www.blender.org
mtllib Mush.mtl
o Sphere
v -0.146913 1.054898 -1.615180
v 0.952642 1.363739 -1.142105
v 1.408093 1.491665 0.000000
v 0.952642 1.363739 1.142105
v -0.146913 1.054898 1.615181
v -0.409662 1.990354 0.000000
v -1.246468 0.746057 1.142105
v -1.701918 0.618131 0.000000
v -1.246468 0.746057 -1.142105
v -0.315346 1.654563 -0.752985
v -0.212924 1.289917 -1.291625
v -0.063746 0.758801 -1.862456
v 0.197259 1.798542 -0.532441
v 0.666366 1.536890 -0.913317
v 1.204145 1.114924 -1.316955
v 0.447477 1.221849 -1.490513
v 0.409587 1.858180 0.000000
v 1.030581 1.639190 0.000000
v 1.729323 1.262435 0.000000
v 1.288070 1.457953 -0.617391
v 0.197259 1.798542 0.532441
v 0.666366 1.536890 0.913317
v 1.204145 1.114924 1.316955
v 1.288071 1.457953 0.617391
v -0.315346 1.654563 0.752985
v -0.212924 1.289917 1.291626
v -0.063746 0.758801 1.862456
v 0.447477 1.221849 1.490514
v -0.626719 1.854800 0.245626
v -0.827950 1.510583 0.532441
v -1.092215 1.042943 0.913317
v -1.331637 0.402679 1.316955
v -0.741302 0.887947 1.490514
v -1.040277 1.450945 0.000000
v -1.456429 0.940643 0.000000
v -1.856815 0.255168 0.000000
v -1.581896 0.651842 0.617391
v -0.827950 1.510583 -0.532441
v -1.092215 1.042943 -0.913317
v -1.331637 0.402679 -1.316955
v -1.581896 0.651842 -0.617391
v -0.390244 1.921221 -0.347367
v -0.153769 1.987641 -0.245625
v -0.055819 2.015154 0.000000
v -0.153770 1.987641 0.245626
v -0.390244 1.921221 0.347367
v -0.724670 1.827288 0.000000
v -0.626719 1.854800 -0.245625
v -0.741302 0.887947 -1.490513
v -1.937839 -0.225646 -0.000000
v 0.115596 0.120298 -1.937852
v 1.434814 0.490837 -1.370268
v 1.981252 0.644320 0.000000
v 1.434814 0.490837 1.370268
v 0.115596 0.120298 1.937852
v -1.203622 -0.250242 1.370268
v -1.203622 -0.250242 -1.370268
v 1.281417 0.477430 0.504910
v -0.378231 0.011271 1.218961
v -1.065691 -0.181815 -0.504910
v 1.281417 0.477430 -0.504910
v 0.593968 0.284341 1.218961
v -1.065691 -0.181814 0.504910
v -0.378231 0.011271 -1.218961
v -1.353989 -0.061667 -1.464036
v 0.055508 0.334227 -2.070460
v 1.465000 0.730123 1.464036
v 0.055508 0.334227 2.070460
v -1.353989 -0.061667 1.464036
v 1.465000 0.730123 -1.464036
v 2.048831 0.894108 0.000000
v -1.750087 -0.403715 0.000000
v 0.262396 1.423424 -1.191932
v -0.236171 1.942947 -0.372292
v 0.621642 0.951312 -1.718703
v -0.037867 1.732197 -0.695618
v 1.590926 1.223563 -0.711910
v 0.354436 1.842386 -0.288134
v 0.934601 1.612231 -0.493714
v -0.026212 2.001919 -0.154208
v 0.354436 1.842386 0.288135
v 0.934601 1.612231 0.493715
v -0.026212 2.001919 0.154209
v 1.590926 1.223563 0.711910
v 0.262396 1.423424 1.191932
v -0.236171 1.942946 0.372292
v 0.621642 0.951312 1.718704
v -0.037867 1.732197 0.695618
v -0.533097 1.859546 0.372292
v -0.749133 0.566291 1.718703
v -0.592666 1.576366 0.695618
v -0.688245 1.156409 1.191932
v -1.718418 0.294041 0.711910
v -0.984969 1.466177 0.288135
v -1.360450 0.967602 0.493714
v -0.743055 1.800574 0.154208
v -1.360450 0.967602 -0.493714
v -0.743055 1.800574 -0.154208
v -1.718418 0.294041 -0.711910
v -0.984969 1.466177 -0.288134
v -0.688245 1.156409 -1.191932
v -0.533097 1.859546 -0.372292
v -0.749133 0.566291 -1.718703
v -0.592666 1.576366 -0.695618
v -0.705323 0.121491 -1.907256
v -1.780960 -0.180622 -0.790011
v 0.815836 0.548751 1.907257
v -0.705323 0.121491 1.907256
v 0.815836 0.548751 -1.907257
v 1.891457 0.850870 -0.790011
v 1.891457 0.850870 0.790012
v -1.780960 -0.180622 0.790011
v 0.811899 0.351015 -1.769016
v 0.593968 0.284341 -1.218961
v -1.171399 -0.235716 0.000000
v -0.794850 -0.129962 -0.944200
v 0.114172 0.125362 -1.335300
v -0.794850 -0.129962 0.944199
v 0.114172 0.125362 1.335300
v 1.023195 0.380687 0.944200
v -0.599004 -0.045276 -1.769016
v 1.399725 0.486446 0.000000
v -1.596679 -0.325492 0.732750
v 0.811899 0.351015 1.769016
v 1.809557 0.631236 -0.732750
v -1.596680 -0.325492 -0.732750
v -0.599004 -0.045276 1.769016
v 1.809557 0.631236 0.732750
v 1.023195 0.380687 -0.944200
v 0.070551 0.278218 0.000000
vt 0.470513 0.789473
vt 0.433142 0.764446
vt 0.453241 0.714483
vt 0.496858 0.723206
vt 0.387824 0.701399
vt 0.388120 0.673646
vt 0.453905 0.660632
vt 0.350583 0.693951
vt 0.345859 0.682006
vt 0.498026 0.651904
vt 0.432788 0.611090
vt 0.377279 0.648096
vt 0.357864 0.628262
vt 0.395179 0.572543
vt 0.318209 0.687476
vt 0.377423 0.727131
vt 0.341628 0.703160
vt 0.544227 0.642764
vt 0.608436 0.630062
vt 0.608436 0.745521
vt 0.543235 0.732481
vt 0.509644 0.815679
vt 0.446411 0.496041
vt 0.482833 0.441656
vt 0.564475 0.523299
vt 0.509150 0.560182
vt 0.363214 0.462450
vt 0.376255 0.397249
vt 0.469797 0.586417
vt 0.420205 0.535173
vt 0.345679 0.669163
vt 0.333892 0.664057
vt 0.345215 0.552444
vt 0.332132 0.617861
vt 0.304379 0.617565
vt 0.291365 0.551780
vt 0.324684 0.655102
vt 0.312739 0.659826
vt 0.278828 0.628405
vt 0.241823 0.572897
vt 0.353939 0.508827
vt 0.282637 0.507659
vt 0.273497 0.461458
vt 0.260795 0.397248
vt 0.190915 0.496535
vt 0.154031 0.441210
vt 0.217150 0.535887
vt 0.258995 0.647821
vt 0.203275 0.610506
vt 0.299895 0.660006
vt 0.294789 0.671792
vt 0.165905 0.585479
vt 0.248593 0.673553
vt 0.285835 0.681001
vt 0.290559 0.692946
vt 0.248298 0.701306
vt 0.126774 0.559273
vt 0.072389 0.522851
vt 0.092190 0.732188
vt 0.027980 0.744890
vt 0.027981 0.629430
vt 0.093183 0.642470
vt 0.183176 0.660469
vt 0.182512 0.714320
vt 0.190005 0.878912
vt 0.153584 0.933297
vt 0.071942 0.851654
vt 0.127267 0.814770
vt 0.139560 0.651746
vt 0.138391 0.723048
vt 0.203629 0.763862
vt 0.259138 0.726857
vt 0.278553 0.746690
vt 0.241239 0.802410
vt 0.273204 0.912503
vt 0.260163 0.977705
vt 0.166619 0.788535
vt 0.216212 0.839780
vt 0.290739 0.705790
vt 0.302525 0.710895
vt 0.304286 0.757092
vt 0.291202 0.822509
vt 0.282479 0.866126
vt 0.332039 0.757387
vt 0.345053 0.823173
vt 0.311734 0.719850
vt 0.323679 0.715126
vt 0.353782 0.867294
vt 0.357589 0.746547
vt 0.394595 0.802055
vt 0.362922 0.913495
vt 0.375624 0.977705
vt 0.445503 0.878417
vt 0.482387 0.933742
vt 0.419268 0.839065
vt 0.336522 0.714946
vt 0.564029 0.852100
vt 0.535992 0.164586
vt 0.503955 0.244837
vt 0.475550 0.239757
vt 0.509576 0.147667
vt 0.506192 0.331218
vt 0.475549 0.337933
vt 0.540284 0.410619
vt 0.516606 0.427113
vt 0.769578 0.499916
vt 0.848978 0.465824
vt 0.865472 0.489502
vt 0.776293 0.530559
vt 0.908477 0.403162
vt 0.940514 0.322911
vt 0.968920 0.327991
vt 0.934892 0.420081
vt 0.586026 0.496534
vt 0.602945 0.470118
vt 0.683197 0.502154
vt 0.678117 0.530560
vt 0.841522 0.097632
vt 0.761271 0.065595
vt 0.766351 0.037189
vt 0.858442 0.071216
vt 0.674891 0.067832
vt 0.595491 0.101924
vt 0.578997 0.078246
vt 0.668175 0.037189
vt 0.904184 0.157130
vt 0.927862 0.140636
vt 0.938277 0.236530
vt 0.968920 0.229815
vt 0.846907 0.197029
vt 0.805039 0.154592
vt 0.755099 0.433842
vt 0.809079 0.408546
vt 0.689370 0.133906
vt 0.635389 0.159201
vt 0.695486 0.433440
vt 0.748983 0.134308
vt 0.597561 0.370720
vt 0.572266 0.316738
vt 0.722194 0.283937
vt 0.851517 0.366679
vt 0.871800 0.310622
vt 0.592952 0.201069
vt 0.572669 0.257126
vt 0.639428 0.413158
vt 0.872203 0.251010
vn -0.1920 0.6837 -0.7040
vn -0.2183 0.7771 -0.5903
vn -0.0006 0.8380 -0.5457
vn 0.0674 0.7564 -0.6505
vn -0.0099 0.8477 -0.5304
vn 0.1726 0.8962 -0.4086
vn 0.1835 0.8900 -0.4174
vn -0.0677 0.9001 -0.4303
vn 0.0055 0.9640 -0.2660
vn 0.2872 0.8184 -0.4978
vn 0.3071 0.9244 -0.2260
vn 0.2892 0.9317 -0.2197
vn 0.3356 0.9420 0.0000
vn 0.3500 0.9367 0.0000
vn -0.2704 0.9627 0.0000
vn -0.2207 0.7857 -0.5778
vn -0.2505 0.8920 -0.3761
vn 0.4392 0.6660 -0.6029
vn 0.7002 0.1137 -0.7048
vn 0.3876 0.0314 -0.9213
vn 0.1730 0.5908 -0.7880
vn -0.1413 0.5029 -0.8527
vn 0.6796 0.7335 0.0000
vn 0.9812 0.1927 0.0000
vn 0.9071 0.1773 -0.3816
vn 0.6175 0.7157 -0.3264
vn 0.6175 0.7157 0.3264
vn 0.9071 0.1773 0.3816
vn 0.4343 0.8595 -0.2694
vn 0.4857 0.8741 0.0000
vn 0.1750 0.9683 -0.1782
vn 0.1116 0.9937 0.0000
vn 0.3071 0.9244 0.2260
vn 0.2892 0.9317 0.2197
vn 0.1726 0.8962 0.4086
vn 0.1835 0.8900 0.4174
vn 0.1750 0.9683 0.1782
vn 0.0055 0.9640 0.2660
vn -0.0099 0.8477 0.5304
vn -0.0006 0.8380 0.5457
vn 0.4343 0.8595 0.2694
vn 0.2872 0.8184 0.4978
vn 0.4392 0.6660 0.6029
vn 0.7002 0.1137 0.7048
vn 0.1730 0.5908 0.7880
vn 0.3876 0.0314 0.9213
vn 0.0674 0.7564 0.6505
vn -0.2207 0.7857 0.5778
vn -0.2183 0.7771 0.5903
vn -0.0677 0.9001 0.4303
vn -0.2505 0.8920 0.3761
vn -0.1920 0.6837 0.7040
vn -0.4329 0.7289 0.5304
vn -0.4109 0.8037 0.4303
vn -0.5066 0.8201 0.2660
vn -0.6141 0.6753 0.4086
vn -0.1413 0.5029 0.8527
vn 0.0216 -0.0768 0.9968
vn -0.7217 0.3399 0.6029
vn -0.6570 -0.2674 0.7048
vn -0.3472 -0.1750 0.9213
vn -0.4554 0.4143 0.7880
vn -0.4358 0.7157 0.5457
vn -0.6201 0.6642 0.4174
vn -0.9622 0.2724 0.0000
vn -0.9381 -0.3464 0.0000
vn -0.8668 -0.3209 0.3816
vn -0.8998 0.2895 0.3264
vn -0.4514 0.6107 0.6505
vn -0.6713 0.5491 0.4978
vn -0.7436 0.6293 0.2260
vn -0.7320 0.6449 0.2197
vn -0.7770 0.6295 0.0000
vn -0.7866 0.6175 0.0000
vn -0.8998 0.2895 -0.3264
vn -0.8668 -0.3209 -0.3816
vn -0.8183 0.5076 0.2694
vn -0.8698 0.4934 0.0000
vn -0.6536 0.7356 0.1782
vn -0.6127 0.7903 0.0000
vn -0.7320 0.6449 -0.2197
vn -0.7436 0.6293 -0.2260
vn -0.8183 0.5076 -0.2694
vn -0.6141 0.6753 -0.4086
vn -0.6201 0.6642 -0.4174
vn -0.6536 0.7356 -0.1782
vn -0.5066 0.8201 -0.2660
vn -0.6713 0.5491 -0.4978
vn -0.4329 0.7289 -0.5304
vn -0.4358 0.7157 -0.5457
vn -0.7217 0.3399 -0.6029
vn -0.6570 -0.2674 -0.7048
vn -0.4554 0.4143 -0.7880
vn -0.3472 -0.1750 -0.9213
vn -0.4514 0.6107 -0.6505
vn -0.4109 0.8037 -0.4303
vn 0.0216 -0.0768 -0.9968
vn 0.2336 -0.8316 -0.5038
vn 0.0426 -0.8791 -0.4747
vn -0.1093 -0.9280 -0.3562
vn -0.2251 -0.9543 -0.1966
vn -0.1093 -0.9280 0.3562
vn 0.0426 -0.8791 0.4747
vn 0.2336 -0.8316 0.5038
vn 0.4213 -0.7727 0.4747
vn -0.2514 -0.9679 0.0000
vn -0.2251 -0.9543 0.1966
vn 0.7186 -0.6954 0.0000
vn 0.6890 -0.6975 -0.1966
vn 0.5765 -0.7353 -0.3562
vn 0.4213 -0.7727 -0.4747
vn 0.6890 -0.6975 0.1966
vn 0.5765 -0.7353 0.3562
vn 0.2337 -0.9722 -0.0157
vn 0.2165 -0.9763 0.0000
vn 0.3078 -0.9506 -0.0393
vn 0.2853 -0.9577 -0.0379
vn 0.2321 -0.9719 0.0393
vn 0.2551 -0.9662 0.0378
vn 0.3066 -0.9517 -0.0157
vn 0.2337 -0.9722 0.0157
vn 0.3066 -0.9517 0.0157
vn 0.3078 -0.9506 0.0393
vn 0.2705 -0.9627 0.0000
vn 0.2700 -0.9612 -0.0556
vn 0.2551 -0.9662 -0.0378
vn 0.2700 -0.9612 0.0556
vn 0.2853 -0.9577 0.0379
vn 0.3235 -0.9462 0.0000
vn 0.2321 -0.9719 -0.0393
usemtl None
s 1
f 1/1/1 11/2/2 73/3/3 16/4/4
f 73/3/3 76/5/5 13/6/6 14/7/7
f 76/5/5 74/8/8 43/9/9 13/6/6
f 16/4/4 73/3/3 14/7/7 2/10/10
f 79/11/11 78/12/12 17/13/13 18/14/14
f 6/15/15 43/9/9 74/8/8
f 10/16/16 42/17/17 74/8/8 76/5/5
f 15/18/18 70/19/19 109/20/20 75/21/21
f 12/22/22 1/1/1 16/4/4 75/21/21
f 75/21/21 16/4/4 2/10/10 15/18/18
f 19/23/23 71/24/24 110/25/25 77/26/26
f 84/27/27 111/28/28 71/24/24 19/23/23
f 15/18/18 2/10/10 20/29/29 77/26/26
f 77/26/26 20/29/29 3/30/30 19/23/23
f 77/26/26 110/25/25 70/19/19 15/18/18
f 13/6/6 43/9/9 80/31/31 78/12/12
f 78/12/12 80/31/31 44/32/32 17/13/13
f 82/33/33 81/34/34 21/35/35 22/36/36
f 14/7/7 13/6/6 78/12/12 79/11/11
f 2/10/10 14/7/7 79/11/11 20/29/29
f 20/29/29 79/11/11 18/14/14 3/30/30
f 6/15/15 44/32/32 80/31/31
f 17/13/13 44/32/32 83/37/37 81/34/34
f 81/34/34 83/37/37 45/38/38 21/35/35
f 21/35/35 88/39/39 85/40/40 22/36/36
f 18/14/14 17/13/13 81/34/34 82/33/33
f 3/30/30 18/14/14 82/33/33 24/41/41
f 24/41/41 82/33/33 22/36/36 4/42/42
f 6/15/15 45/38/38 83/37/37
f 23/43/43 67/44/44 111/28/28 84/27/27
f 19/23/23 3/30/30 24/41/41 84/27/27
f 84/27/27 24/41/41 4/42/42 23/43/43
f 87/45/45 107/46/46 67/44/44 23/43/43
f 4/42/42 22/36/36 85/40/40 28/47/47
f 85/40/40 88/39/39 25/48/48 26/49/49
f 88/39/39 86/50/50 46/51/51 25/48/48
f 28/47/47 85/40/40 26/49/49 5/52/52
f 91/53/53 89/54/54 29/55/55 30/56/56
f 6/15/15 46/51/51 86/50/50
f 21/35/35 45/38/38 86/50/50 88/39/39
f 27/57/57 68/58/58 107/46/46 87/45/45
f 23/43/43 4/42/42 28/47/47 87/45/45
f 87/45/45 28/47/47 5/52/52 27/57/57
f 32/59/59 69/60/60 108/61/61 90/62/62
f 92/63/63 91/53/53 30/56/56 31/64/64
f 6/15/15 89/54/54 46/51/51
f 25/48/48 46/51/51 89/54/54 91/53/53
f 36/65/65 50/66/66 112/67/67 93/68/68
f 27/57/57 5/52/52 33/69/69 90/62/62
f 90/62/62 33/69/69 7/70/70 32/59/59
f 90/62/62 108/61/61 68/58/58 27/57/57
f 95/71/71 94/72/72 34/73/73 35/74/74
f 26/49/49 25/48/48 91/53/53 92/63/63
f 5/52/52 26/49/49 92/63/63 33/69/69
f 33/69/69 92/63/63 31/64/64 7/70/70
f 99/75/75 106/76/76 50/66/66 36/65/65
f 32/59/59 7/70/70 37/77/77 93/68/68
f 93/68/68 37/77/77 8/78/78 36/65/65
f 93/68/68 112/67/67 69/60/60 32/59/59
f 29/55/55 96/79/79 94/72/72 30/56/56
f 94/72/72 96/79/79 47/80/80 34/73/73
f 34/73/73 100/81/81 97/82/82 35/74/74
f 31/64/64 30/56/56 94/72/72 95/71/71
f 7/70/70 31/64/64 95/71/71 37/77/77
f 37/77/77 95/71/71 35/74/74 8/78/78
f 6/15/15 47/80/80 96/79/79
f 8/78/78 35/74/74 97/82/82 41/83/83
f 97/82/82 100/81/81 38/84/84 39/85/85
f 100/81/81 98/86/86 48/87/87 38/84/84
f 41/83/83 97/82/82 39/85/85 9/88/88
f 38/84/84 104/89/89 101/90/90 39/85/85
f 6/15/15 48/87/87 98/86/86
f 34/73/73 47/80/80 98/86/86 100/81/81
f 40/91/91 65/92/92 106/76/76 99/75/75
f 36/65/65 8/78/78 41/83/83 99/75/75
f 99/75/75 41/83/83 9/88/88 40/91/91
f 103/93/93 105/94/94 65/92/92 40/91/91
f 9/88/88 39/85/85 101/90/90 49/95/95
f 101/90/90 104/89/89 10/16/16 11/2/2
f 104/89/89 102/96/96 42/17/17 10/16/16
f 49/95/95 101/90/90 11/2/2 1/1/1
f 6/15/15 102/96/96 48/87/87
f 38/84/84 48/87/87 102/96/96 104/89/89
f 12/22/22 66/97/97 105/94/94 103/93/93
f 40/91/91 9/88/88 49/95/95 103/93/93
f 103/93/93 49/95/95 1/1/1 12/22/22
f 51/98/98 121/99/99 105/100/94 66/101/97
f 121/99/99 57/102/100 65/103/92 105/100/94
f 57/102/100 126/104/101 106/105/76 65/103/92
f 56/106/102 127/107/103 108/108/61 69/109/60
f 55/110/104 124/111/105 107/112/46 68/113/58
f 127/107/103 55/110/104 68/113/58 108/108/61
f 50/114/66 72/115/106 123/116/107 112/117/67
f 53/118/108 125/119/109 110/120/25 71/121/24
f 52/122/110 113/123/111 109/124/20 70/125/19
f 125/119/109 52/122/110 70/125/19 110/120/25
f 128/126/112 53/118/108 71/121/24 111/127/28
f 124/111/105 54/128/113 67/129/44 107/112/46
f 54/128/113 128/126/112 111/127/28 67/129/44
f 123/116/107 56/106/102 69/109/60 112/117/67
f 126/104/101 72/115/106 50/114/66 106/105/76
f 53/118/108 128/126/112 58/130/114 122/131/115
f 127/107/103 56/106/102 118/132/116 59/133/117
f 113/123/111 52/122/110 129/134/118 114/135/119
f 56/106/102 123/116/107 63/136/120 118/132/116
f 52/122/110 125/119/109 61/137/121 129/134/118
f 60/138/122 116/139/123 130/140/124
f 124/111/105 55/110/104 119/141/125 62/142/126
f 121/99/99 51/98/98 117/143/127 64/144/128
f 55/110/104 127/107/103 59/133/117 119/141/125
f 126/104/101 57/102/100 116/139/123 60/138/122
f 115/145/129 60/138/122 130/140/124
f 116/139/123 64/144/128 130/140/124
f 51/98/98 113/123/111 114/135/119 117/143/127
f 114/135/119 129/134/118 130/140/124
f 128/126/112 54/128/113 120/146/130 58/130/114
f 63/136/120 115/145/129 130/140/124
f 57/102/100 121/99/99 64/144/128 116/139/123
f 59/133/117 118/132/116 130/140/124
f 54/128/113 124/111/105 62/142/126 120/146/130
f 64/144/128 117/143/127 130/140/124
f 123/116/107 72/115/106 115/145/129 63/136/120
f 125/119/109 53/118/108 122/131/115 61/137/121
f 113/123/111 51/98/98 66/101/97 109/124/20
f 117/143/127 114/135/119 130/140/124
f 61/137/121 122/131/115 130/140/124
f 62/142/126 119/141/125 130/140/124
f 118/132/116 63/136/120 130/140/124
f 129/134/118 61/137/121 130/140/124
f 120/146/130 62/142/126 130/140/124
f 58/130/114 120/146/130 130/140/124
f 119/141/125 59/133/117 130/140/124
f 122/131/115 58/130/114 130/140/124
f 72/115/106 126/104/101 60/138/122 115/145/129
f 83/37/37 44/32/32 6/15/15
f 86/50/50 45/38/38 6/15/15
f 96/79/79 29/55/55 6/15/15
f 89/54/54 6/15/15 29/55/55
f 98/86/86 47/80/80 6/15/15
f 102/96/96 6/15/15 42/17/17
f 80/31/31 43/9/9 6/15/15
f 74/8/8 42/17/17 6/15/15
f 10/16/16 76/5/5 73/3/3 11/2/2
f 75/21/21 109/20/20 66/97/97 12/22/22
