# Blender v3.0.0 OBJ File: ''
# www.blender.org
mtllib Texture missing error.mtl
o Cube.006_Cube.012
v -0.035796 2.815846 -1.512830
v -0.035796 2.235610 -1.811072
v -0.035796 2.517605 -1.811072
v -0.035796 2.815846 -2.391308
v -0.035796 1.937369 -1.512831
v -0.035796 1.937369 -1.811072
v -0.035796 2.517605 -2.093066
v -0.035796 1.355973 -1.512831
v -0.035796 1.355973 -1.811072
v -0.035796 2.235610 -2.093066
v -0.035796 2.082428 -2.391308
v -0.035796 2.082428 -2.246249
v -0.035796 1.937369 -2.246249
v -0.035796 1.937369 -2.093066
v -0.035796 1.355973 -2.093066
v -0.035796 1.937369 -2.391308
v -0.035796 1.355973 -2.391308
v -0.035796 2.815846 -0.497418
v -0.035796 2.517605 -0.795660
v -0.035796 2.517605 -1.077654
v -0.035796 1.355973 -1.375896
v -0.035796 1.655374 -0.795660
v -0.035796 1.355973 -0.497418
v -0.035796 2.815846 -1.375896
v -0.035796 1.655374 -1.077654
v -0.035797 2.815846 2.403760
v -0.035797 2.235610 2.105519
v -0.035797 2.517605 2.105519
v -0.035797 2.815846 1.670342
v -0.035797 2.517605 1.670342
v -0.035797 1.937369 2.105519
v -0.035797 2.235610 1.670342
v -0.035797 1.937369 1.670342
v -0.035797 1.655374 2.105519
v -0.035797 1.355972 2.403760
v -0.035797 1.655374 1.670342
v -0.035797 1.355972 1.670342
v -0.035797 2.815846 0.517994
v -0.035797 2.235610 0.219753
v -0.035797 2.517605 0.219753
v -0.035797 2.815846 -0.360483
v -0.035797 1.937369 0.517994
v -0.035797 1.937369 0.219753
v -0.035797 2.517605 -0.062242
v -0.035797 1.355973 0.517994
v -0.035797 1.355973 0.219753
v -0.035797 2.235610 -0.062242
v -0.035797 2.082428 -0.360483
v -0.035797 2.082428 -0.215424
v -0.035797 1.937369 -0.215424
v -0.035797 1.937369 -0.062242
v -0.035797 1.355973 -0.062242
v -0.035797 1.937369 -0.360483
v -0.035797 1.355973 -0.360483
v -0.035797 2.815846 1.533406
v -0.035797 2.235610 1.235165
v -0.035797 2.517605 1.235165
v -0.035797 2.815846 0.654929
v -0.035797 1.937369 1.533406
v -0.035797 1.937369 1.235165
v -0.035797 2.517605 0.953171
v -0.035797 1.355972 1.533406
v -0.035797 1.355973 1.235165
v -0.035797 2.235610 0.953171
v -0.035797 2.082428 0.654929
v -0.035797 2.082428 0.799988
v -0.035797 1.937369 0.799988
v -0.035797 1.937369 0.953171
v -0.035797 1.355973 0.953171
v -0.035797 1.937369 0.654929
v -0.035797 1.355973 0.654929
v 0.307185 2.517605 -1.811072
v 0.307185 2.815846 -1.512830
v 0.307185 2.235610 -1.811072
v 0.307185 1.937369 -1.512831
v 0.307185 2.517605 -2.093066
v 0.307185 2.815846 -2.391308
v 0.307185 1.937369 -1.811072
v 0.307185 1.355973 -1.811072
v 0.307185 1.355973 -1.512831
v 0.307185 1.355973 -2.391308
v 0.307185 1.937369 -2.246249
v 0.307185 2.235610 -2.093066
v 0.307185 2.082428 -2.246249
v 0.307185 2.082428 -2.391308
v 0.307185 1.937369 -2.093066
v 0.307185 1.355973 -2.093066
v 0.307185 1.937369 -2.391308
v 0.307185 1.355973 -0.497418
v 0.307184 2.815846 -0.497418
v 0.307185 1.655374 -1.077654
v 0.307185 1.655374 -0.795660
v 0.307185 1.355973 -1.375896
v 0.307185 2.815846 -1.375896
v 0.307185 2.517605 -0.795660
v 0.307185 2.517605 -1.077654
v 0.307184 2.815846 2.403760
v 0.307184 2.235610 2.105519
v 0.307184 1.937369 2.105519
v 0.307184 1.355972 2.403760
v 0.307184 2.517605 2.105519
v 0.307184 2.815846 1.670342
v 0.307184 2.517605 1.670342
v 0.307184 1.937369 1.670342
v 0.307184 2.235610 1.670342
v 0.307184 1.655374 2.105519
v 0.307184 1.355972 1.670342
v 0.307184 1.655374 1.670342
v 0.307184 2.517605 0.219753
v 0.307184 2.815846 0.517994
v 0.307184 2.235610 0.219753
v 0.307184 1.937369 0.517994
v 0.307184 2.517605 -0.062242
v 0.307184 2.815846 -0.360483
v 0.307184 1.937369 0.219753
v 0.307184 1.355973 0.219753
v 0.307184 1.355973 0.517994
v 0.307184 1.355973 -0.360483
v 0.307184 1.937369 -0.215424
v 0.307184 2.235610 -0.062242
v 0.307184 2.082428 -0.215424
v 0.307184 2.082428 -0.360483
v 0.307184 1.937369 -0.062242
v 0.307184 1.355973 -0.062242
v 0.307184 1.937369 -0.360483
v 0.307184 2.517605 1.235165
v 0.307184 2.815846 1.533406
v 0.307184 2.235610 1.235165
v 0.307184 1.937369 1.533406
v 0.307184 2.517605 0.953171
v 0.307184 2.815846 0.654929
v 0.307184 1.937369 1.235165
v 0.307184 1.355973 1.235165
v 0.307184 1.355972 1.533406
v 0.307184 1.355973 0.654929
v 0.307184 1.937369 0.799988
v 0.307184 2.235610 0.953171
v 0.307184 2.082428 0.799988
v 0.307184 2.082428 0.654929
v 0.307184 1.937369 0.953171
v 0.307184 1.355973 0.953171
v 0.307184 1.937369 0.654929
v -1.000000 -1.000000 1.000000
v -1.000000 1.000000 1.000000
v -1.000000 -1.000000 -1.000000
v -1.000000 1.000000 -1.000000
v 1.000000 -1.000000 1.000000
v 1.000000 1.000000 1.000000
v 1.000000 -1.000000 -1.000000
v 1.000000 1.000000 -1.000000
vt 0.771527 0.113839
vt 0.771527 0.097479
vt 0.788804 0.080202
vt 0.755166 0.097479
vt 0.755166 0.080202
vt 0.755166 0.048397
vt 0.788804 0.048397
vt 0.689593 0.113839
vt 0.689593 0.080202
vt 0.689593 0.048397
vt 0.689593 0.014759
vt 0.755166 0.014759
vt 0.820609 0.080202
vt 0.820609 0.048397
vt 0.854247 0.014759
vt 0.854246 0.113839
vt 0.755166 0.113839
vt 0.529064 0.080203
vt 0.626311 0.080203
vt 0.660080 0.113840
vt 0.495426 0.113840
vt 0.495426 0.014760
vt 0.529063 0.048397
vt 0.660080 0.014760
vt 0.626311 0.048398
vt 0.896930 0.833985
vt 0.896930 0.802180
vt 0.930568 0.768411
vt 0.896930 0.899428
vt 0.896930 0.867623
vt 0.930567 0.933065
vt 0.847848 0.867623
vt 0.847848 0.833985
vt 0.847848 0.802180
vt 0.847848 0.768411
vt 0.847848 0.933065
vt 0.847848 0.899428
vt 0.723100 0.579581
vt 0.706739 0.579581
vt 0.689462 0.562304
vt 0.706739 0.595942
vt 0.689462 0.595942
vt 0.657657 0.595942
vt 0.657657 0.562304
vt 0.723100 0.661515
vt 0.689462 0.661515
vt 0.657657 0.661515
vt 0.624020 0.661515
vt 0.624020 0.595942
vt 0.689462 0.530499
vt 0.657657 0.530499
vt 0.624020 0.496862
vt 0.723100 0.496862
vt 0.723100 0.595942
vt 0.113836 0.579584
vt 0.097476 0.579584
vt 0.080199 0.562307
vt 0.097476 0.595945
vt 0.080199 0.595945
vt 0.048394 0.595945
vt 0.048394 0.562307
vt 0.113836 0.661518
vt 0.080199 0.661518
vt 0.048394 0.661518
vt 0.014756 0.661518
vt 0.014756 0.595945
vt 0.080199 0.530502
vt 0.048394 0.530502
vt 0.014756 0.496864
vt 0.113836 0.496864
vt 0.113836 0.595945
vt 0.594504 0.578795
vt 0.560866 0.596072
vt 0.578143 0.578795
vt 0.560866 0.562434
vt 0.578143 0.562434
vt 0.529061 0.596072
vt 0.529061 0.562434
vt 0.594504 0.496861
vt 0.560866 0.496861
vt 0.495423 0.562434
vt 0.495423 0.496861
vt 0.529061 0.496861
vt 0.560866 0.627877
vt 0.594504 0.661515
vt 0.495423 0.661515
vt 0.529061 0.627877
vt 0.594504 0.562434
vt 0.786245 0.627876
vt 0.752608 0.661514
vt 0.752608 0.496860
vt 0.786245 0.530629
vt 0.818050 0.627876
vt 0.851688 0.661514
vt 0.818050 0.530629
vt 0.851688 0.496860
vt 0.769252 0.757246
vt 0.735614 0.691673
vt 0.769252 0.725441
vt 0.769252 0.822689
vt 0.735614 0.856327
vt 0.769252 0.790884
vt 0.818334 0.757246
vt 0.818334 0.790884
vt 0.818334 0.691673
vt 0.818334 0.725441
vt 0.818334 0.822689
vt 0.818334 0.856327
vt 0.980282 0.655535
vt 0.946644 0.672812
vt 0.963921 0.655535
vt 0.946644 0.639174
vt 0.963921 0.639174
vt 0.914839 0.672812
vt 0.914839 0.639174
vt 0.980282 0.573601
vt 0.946644 0.573601
vt 0.881202 0.639174
vt 0.881202 0.573601
vt 0.914839 0.573601
vt 0.946644 0.704617
vt 0.980282 0.738254
vt 0.881202 0.738255
vt 0.914839 0.704617
vt 0.980282 0.639174
vt 0.014756 0.097474
vt 0.048394 0.080197
vt 0.031117 0.097474
vt 0.048394 0.113835
vt 0.031117 0.113835
vt 0.080199 0.080197
vt 0.080199 0.113835
vt 0.014756 0.179408
vt 0.048394 0.179408
vt 0.113836 0.113835
vt 0.113836 0.179408
vt 0.080199 0.179408
vt 0.048394 0.048392
vt 0.014756 0.014755
vt 0.113836 0.014755
vt 0.080199 0.048392
vt 0.014756 0.113835
vt 0.475864 0.828745
vt 0.410291 0.828745
vt 0.410291 0.790062
vt 0.475864 0.790062
vt 0.326916 0.858935
vt 0.343277 0.858935
vt 0.343277 0.897619
vt 0.326916 0.897619
vt 0.589342 0.966491
vt 0.540260 0.966491
vt 0.540260 0.927808
vt 0.589342 0.927808
vt 0.211345 0.858935
vt 0.244982 0.858935
vt 0.244982 0.897619
vt 0.211345 0.897619
vt 0.393930 0.828745
vt 0.393930 0.790062
vt 0.393930 0.759874
vt 0.377569 0.759874
vt 0.377569 0.721190
vt 0.393930 0.721190
vt 0.145771 0.858935
vt 0.145771 0.897619
vt 0.143348 0.592273
vt 0.143348 0.560468
vt 0.182032 0.560468
vt 0.182032 0.592273
vt 0.509502 0.759874
vt 0.475864 0.759874
vt 0.475864 0.721190
vt 0.509502 0.721190
vt 0.606880 0.828745
vt 0.575075 0.828745
vt 0.575075 0.790062
vt 0.606880 0.790062
vt 0.143348 0.528663
vt 0.182032 0.528663
vt 0.575075 0.759874
vt 0.575075 0.721190
vt 0.310556 0.858935
vt 0.310556 0.897619
vt 0.946561 0.179412
vt 0.946561 0.014758
vt 0.985245 0.014758
vt 0.985245 0.179412
vt 0.179409 0.828745
vt 0.080328 0.828745
vt 0.080328 0.790062
vt 0.179409 0.790062
vt 0.592669 0.144631
vt 0.624474 0.144631
vt 0.624474 0.183315
vt 0.592669 0.183315
vt 0.143348 0.496858
vt 0.182032 0.496858
vt 0.410290 0.759874
vt 0.410290 0.721190
vt 0.946561 0.443146
vt 0.946561 0.278492
vt 0.985245 0.278492
vt 0.985245 0.443146
vt 0.182038 0.046567
vt 0.182038 0.078372
vt 0.143354 0.078372
vt 0.143354 0.046567
vt 0.721722 0.144631
vt 0.721722 0.183315
vt 0.113966 0.858935
vt 0.113966 0.897619
vt 0.182038 0.110177
vt 0.143354 0.110177
vt 0.946561 0.542226
vt 0.985245 0.542226
vt 0.706092 0.828745
vt 0.672454 0.828745
vt 0.672454 0.790062
vt 0.706091 0.790062
vt 0.814844 0.144628
vt 0.846649 0.144628
vt 0.846649 0.183311
vt 0.814844 0.183311
vt 0.541438 0.858936
vt 0.640518 0.858936
vt 0.640518 0.897619
vt 0.541438 0.897619
vt 0.014755 0.828745
vt 0.014755 0.790062
vt 0.606880 0.759874
vt 0.606880 0.721190
vt 0.878454 0.144628
vt 0.878454 0.183311
vt 0.182038 0.141982
vt 0.143354 0.141983
vt 0.753527 0.144631
vt 0.753527 0.183315
vt 0.179409 0.759874
vt 0.080328 0.759874
vt 0.080328 0.721190
vt 0.179409 0.721190
vt 0.495421 0.144631
vt 0.495421 0.183315
vt 0.910259 0.144628
vt 0.910259 0.183311
vt 0.014755 0.858935
vt 0.048392 0.858935
vt 0.048392 0.897619
vt 0.014755 0.897619
vt 0.278489 0.828745
vt 0.278489 0.790062
vt 0.706091 0.858936
vt 0.706091 0.897619
vt 0.376654 0.966491
vt 0.344849 0.966491
vt 0.344849 0.927808
vt 0.376654 0.927808
vt 0.706092 0.759874
vt 0.672454 0.759874
vt 0.672454 0.721190
vt 0.706092 0.721190
vt 0.295767 0.966491
vt 0.262129 0.966491
vt 0.262129 0.927808
vt 0.295767 0.927808
vt 0.377569 0.828745
vt 0.361208 0.828745
vt 0.361208 0.790062
vt 0.377569 0.790062
vt 0.014755 0.759874
vt 0.014755 0.721190
vt 0.143348 0.624078
vt 0.182032 0.624078
vt 0.179409 0.966491
vt 0.179409 0.927808
vt 0.442357 0.858936
vt 0.442357 0.897619
vt 0.014755 0.966491
vt 0.014755 0.927808
vt 0.278489 0.759874
vt 0.278489 0.721190
vt 0.359638 0.858935
vt 0.359638 0.897619
vt 0.459373 0.966491
vt 0.425736 0.966491
vt 0.425736 0.927808
vt 0.459373 0.927808
vt 0.182038 0.014762
vt 0.143354 0.014762
vt 0.508455 0.966491
vt 0.508455 0.927808
vt 0.361208 0.759874
vt 0.361208 0.721190
vt 0.509502 0.828745
vt 0.509502 0.790062
vt 0.783039 0.144628
vt 0.783039 0.183311
vt 0.705830 0.966491
vt 0.623111 0.966491
vt 0.623111 0.927808
vt 0.705830 0.927808
vt 0.917051 0.465907
vt 0.691478 0.465907
vt 0.691478 0.240334
vt 0.917051 0.240334
vt 0.240333 0.014762
vt 0.465906 0.014762
vt 0.465906 0.240334
vt 0.240333 0.240334
vt 0.465906 0.465907
vt 0.240333 0.465907
vt 0.465906 0.691480
vt 0.240333 0.691480
vt 0.014760 0.240334
vt 0.014760 0.465907
vn -1.0000 -0.0000 -0.0000
vn 1.0000 0.0000 0.0000
vn 0.0000 0.0000 -1.0000
vn 0.0000 1.0000 0.0000
vn 0.0000 -1.0000 0.0000
vn -0.0000 -0.0000 1.0000
usemtl None
s off
f 11/1/1 12/2/1 10/3/1
f 12/2/1 13/4/1 14/5/1 10/3/1
f 14/5/1 6/6/1 2/7/1 10/3/1
f 17/8/1 15/9/1 13/4/1
f 6/6/1 9/10/1 8/11/1 5/12/1
f 7/13/1 3/14/1 1/15/1 4/16/1
f 4/16/1 11/1/1 10/3/1 7/13/1
f 2/7/1 6/6/1 5/12/1
f 13/4/1 16/17/1 17/8/1
f 5/12/1 1/15/1 3/14/1 2/7/1
f 15/9/1 14/5/1 13/4/1
f 19/18/1 22/19/1 23/20/1 18/21/1
f 18/21/1 24/22/1 20/23/1 19/18/1
f 24/22/1 21/24/1 25/25/1 20/23/1
f 31/26/1 34/27/1 35/28/1
f 28/29/1 27/30/1 26/31/1
f 27/30/1 31/26/1 35/28/1 26/31/1
f 27/30/1 32/32/1 33/33/1 31/26/1
f 34/27/1 36/34/1 37/35/1 35/28/1
f 26/31/1 29/36/1 30/37/1 28/29/1
f 22/19/1 25/25/1 21/24/1 23/20/1
f 48/38/1 49/39/1 47/40/1
f 49/39/1 50/41/1 51/42/1 47/40/1
f 51/42/1 43/43/1 39/44/1 47/40/1
f 54/45/1 52/46/1 50/41/1
f 43/43/1 46/47/1 45/48/1 42/49/1
f 44/50/1 40/51/1 38/52/1 41/53/1
f 41/53/1 48/38/1 47/40/1 44/50/1
f 39/44/1 43/43/1 42/49/1
f 50/41/1 53/54/1 54/45/1
f 42/49/1 38/52/1 40/51/1 39/44/1
f 52/46/1 51/42/1 50/41/1
f 65/55/1 66/56/1 64/57/1
f 66/56/1 67/58/1 68/59/1 64/57/1
f 68/59/1 60/60/1 56/61/1 64/57/1
f 71/62/1 69/63/1 67/58/1
f 60/60/1 63/64/1 62/65/1 59/66/1
f 61/67/1 57/68/1 55/69/1 58/70/1
f 58/70/1 65/55/1 64/57/1 61/67/1
f 56/61/1 60/60/1 59/66/1
f 67/58/1 70/71/1 71/62/1
f 59/66/1 55/69/1 57/68/1 56/61/1
f 69/63/1 68/59/1 67/58/1
f 85/72/2 83/73/2 84/74/2
f 84/74/2 83/73/2 86/75/2 82/76/2
f 86/75/2 83/73/2 74/77/2 78/78/2
f 81/79/2 82/76/2 87/80/2
f 78/78/2 75/81/2 80/82/2 79/83/2
f 76/84/2 77/85/2 73/86/2 72/87/2
f 77/85/2 76/84/2 83/73/2 85/72/2
f 74/77/2 75/81/2 78/78/2
f 82/76/2 81/79/2 88/88/2
f 75/81/2 74/77/2 72/87/2 73/86/2
f 87/80/2 82/76/2 86/75/2
f 95/89/2 90/90/2 89/91/2 92/92/2
f 90/90/2 95/89/2 96/93/2 94/94/2
f 94/94/2 96/93/2 91/95/2 93/96/2
f 99/97/2 100/98/2 106/99/2
f 101/100/2 97/101/2 98/102/2
f 98/102/2 97/101/2 100/98/2 99/97/2
f 98/102/2 99/97/2 104/103/2 105/104/2
f 106/99/2 100/98/2 107/105/2 108/106/2
f 97/101/2 101/100/2 103/107/2 102/108/2
f 92/92/2 89/91/2 93/96/2 91/95/2
f 122/109/2 120/110/2 121/111/2
f 121/111/2 120/110/2 123/112/2 119/113/2
f 123/112/2 120/110/2 111/114/2 115/115/2
f 118/116/2 119/113/2 124/117/2
f 115/115/2 112/118/2 117/119/2 116/120/2
f 113/121/2 114/122/2 110/123/2 109/124/2
f 114/122/2 113/121/2 120/110/2 122/109/2
f 111/114/2 112/118/2 115/115/2
f 119/113/2 118/116/2 125/125/2
f 112/118/2 111/114/2 109/124/2 110/123/2
f 124/117/2 119/113/2 123/112/2
f 139/126/2 137/127/2 138/128/2
f 138/128/2 137/127/2 140/129/2 136/130/2
f 140/129/2 137/127/2 128/131/2 132/132/2
f 135/133/2 136/130/2 141/134/2
f 132/132/2 129/135/2 134/136/2 133/137/2
f 130/138/2 131/139/2 127/140/2 126/141/2
f 131/139/2 130/138/2 137/127/2 139/126/2
f 128/131/2 129/135/2 132/132/2
f 136/130/2 135/133/2 142/142/2
f 129/135/2 128/131/2 126/141/2 127/140/2
f 141/134/2 136/130/2 140/129/2
f 17/143/3 16/144/3 88/145/3 81/146/3
f 50/147/3 49/148/3 121/149/3 119/150/3
f 36/151/4 34/152/4 106/153/4 108/154/4
f 52/155/5 54/156/5 118/157/5 124/158/5
f 16/144/4 13/159/4 82/160/4 88/145/4
f 67/161/3 66/162/3 138/163/3 136/164/3
f 51/165/6 52/155/6 124/158/6 123/166/6
f 10/167/4 2/168/4 74/169/4 83/170/4
f 69/171/5 71/172/5 135/173/5 141/174/5
f 6/175/5 14/176/5 86/177/5 78/178/5
f 2/168/3 3/179/3 72/180/3 74/169/3
f 68/181/6 69/171/6 141/174/6 140/182/6
f 54/156/3 53/183/3 125/184/3 118/157/3
f 18/185/6 23/186/6 89/187/6 90/188/6
f 1/189/6 5/190/6 75/191/6 73/192/6
f 25/193/4 22/194/4 92/195/4 91/196/4
f 3/179/5 7/197/5 76/198/5 72/180/5
f 71/172/3 70/199/3 142/200/3 135/173/3
f 53/183/4 50/147/4 119/150/4 125/184/4
f 21/201/3 24/202/3 94/203/3 93/204/3
f 47/205/4 39/206/4 111/207/4 120/208/4
f 22/194/3 19/209/3 95/210/3 92/195/3
f 70/199/4 67/161/4 136/164/4 142/200/4
f 43/211/5 51/165/5 123/166/5 115/212/5
f 39/206/3 40/213/3 109/214/3 111/207/3
f 23/215/5 21/201/5 93/204/5 89/216/5
f 8/217/5 9/218/5 79/219/5 80/220/5
f 64/221/4 56/222/4 128/223/4 137/224/4
f 38/225/6 42/226/6 112/227/6 110/228/6
f 24/202/4 18/185/4 90/188/4 94/203/4
f 5/190/6 8/229/6 80/230/6 75/191/6
f 60/231/5 68/181/5 140/182/5 132/232/5
f 56/222/3 57/233/3 126/234/3 128/223/3
f 40/213/5 44/235/5 113/236/5 109/214/5
f 19/209/5 20/237/5 96/238/5 95/210/5
f 9/218/3 6/175/3 78/178/3 79/219/3
f 55/239/6 59/240/6 129/241/6 127/242/6
f 20/243/6 25/193/6 91/196/6 96/244/6
f 57/233/5 61/245/5 130/246/5 126/234/5
f 45/247/5 46/248/5 116/249/5 117/250/5
f 4/251/4 1/189/4 73/192/4 77/252/4
f 42/226/6 45/253/6 117/254/6 112/227/6
f 27/255/3 28/256/3 101/257/3 98/258/3
f 62/259/5 63/260/5 133/261/5 134/262/5
f 46/248/3 43/211/3 115/212/3 116/249/3
f 30/263/3 29/264/3 102/265/3 103/266/3
f 12/267/5 11/268/5 85/269/5 84/270/5
f 59/240/6 62/271/6 134/272/6 129/241/6
f 28/256/5 30/263/5 103/266/5 101/257/5
f 7/273/6 10/167/6 83/170/6 76/274/6
f 63/260/3 60/231/3 132/232/3 133/261/3
f 29/264/4 26/275/4 97/276/4 102/265/4
f 41/277/4 38/225/4 110/228/4 114/278/4
f 26/275/6 35/279/6 100/280/6 97/276/6
f 11/268/3 4/251/3 77/252/3 85/269/3
f 58/281/4 55/239/4 127/242/4 131/282/4
f 49/148/5 48/283/5 122/284/5 121/149/5
f 33/285/3 32/286/3 105/287/3 104/288/3
f 44/289/6 47/205/6 120/208/6 113/290/6
f 31/291/5 33/285/5 104/288/5 99/292/5
f 13/159/3 12/267/3 84/270/3 82/160/3
f 66/162/5 65/293/5 139/294/5 138/163/5
f 32/286/4 27/255/4 98/258/4 105/287/4
f 15/295/5 17/143/5 81/146/5 87/296/5
f 61/297/6 64/221/6 137/224/6 130/298/6
f 48/283/3 41/277/3 114/278/3 122/284/3
f 34/152/3 31/291/3 99/292/3 106/153/3
f 14/176/6 15/295/6 87/296/6 86/177/6
f 35/299/5 37/300/5 107/301/5 100/302/5
f 65/293/3 58/281/3 131/282/3 139/294/3
f 37/300/3 36/151/3 108/154/3 107/301/3
f 143/303/1 144/304/1 146/305/1 145/306/1
f 145/307/3 146/308/3 150/309/3 149/310/3
f 149/310/2 150/309/2 148/311/2 147/312/2
f 147/312/6 148/311/6 144/313/6 143/314/6
f 145/315/5 149/310/5 147/312/5 143/316/5
f 150/309/4 146/305/4 144/304/4 148/311/4
