# Blender v3.0.0 OBJ File: 'Kanji.blend'
# www.blender.org
mtllib site.mtl
o Cylinder.005_Cylinder.002
v 0.342626 3.121424 0.000001
v 0.200647 3.643335 0.000000
v 0.296723 3.121424 0.171313
v -0.851801 1.033783 1.153035
v 0.100324 3.643335 -0.173764
v 0.000001 3.643336 0.000001
v 0.100324 3.643335 0.173766
v 0.173766 3.643335 0.100323
v -0.788551 1.033783 0.455270
v -1.153034 1.033783 0.851802
v 0.851801 0.806161 1.153035
v -0.000000 0.806162 0.000001
v -0.173764 3.643335 0.100325
v -0.200645 3.643335 0.000001
v -0.455270 1.033783 0.788550
v -1.153034 1.033783 -0.851800
v 1.153033 1.033783 -0.851801
v 0.910539 1.033783 0.000000
v -0.851801 1.033783 -1.153033
v -0.000000 1.033783 -0.910538
v 1.153033 0.806161 -0.851801
v 1.153034 1.033783 0.851801
v 0.455269 1.033783 0.788550
v -0.851801 0.806162 -1.153033
v 0.851801 1.033783 -1.153033
v 0.851801 0.806161 -1.153033
v -0.455270 1.033783 -0.788550
v 0.455269 1.033783 -0.788550
v 0.788550 1.033783 -0.455269
v 1.064805 1.033783 -1.064804
v 0.851801 1.033783 1.153035
v 0.171313 3.121425 0.296723
v 0.000001 3.643335 0.200647
v 0.000001 3.121425 0.342625
v -0.100321 3.643335 0.173766
v -0.171311 3.121425 0.296722
v -0.296721 3.121425 0.171314
v 0.296723 3.121424 -0.171311
v 0.173766 3.643335 -0.100321
v 0.171313 3.121425 -0.296722
v 0.000001 3.121425 -0.342624
v 0.000001 3.643335 -0.200645
v -0.171311 3.121425 -0.296721
v -0.100321 3.643335 -0.173764
v -0.665594 1.555694 -0.384279
v -0.384280 1.555694 -0.665593
v -0.788551 1.033783 -0.455269
v -0.342624 3.121425 0.000001
v -0.173764 3.643335 -0.100321
v -0.296721 3.121425 -0.171311
v -0.910539 1.033783 0.000001
v -0.768561 1.555694 0.000001
v -0.626582 2.077604 0.000001
v -0.542636 2.077604 -0.313290
v -0.484603 2.599514 0.000001
v -0.419679 2.599514 -0.242300
v -0.665594 1.555694 0.384280
v -0.542636 2.077604 0.313292
v -0.419679 2.599514 0.242303
v -0.242301 2.599514 -0.419678
v -0.313291 2.077604 -0.542636
v -0.000000 1.555694 -0.768560
v -0.000000 2.077604 -0.626582
v -0.000000 2.599514 -0.484602
v 0.384280 1.555694 -0.665593
v 0.313291 2.077604 -0.542636
v 0.242301 2.599514 -0.419678
v 0.665593 1.555693 -0.384280
v 0.542636 2.077604 -0.313291
v 0.419679 2.599514 -0.242300
v 0.768560 1.555693 0.000000
v 0.626582 2.077604 0.000000
v 0.484603 2.599514 0.000000
v -0.384280 1.555694 0.665594
v -0.313291 2.077604 0.542636
v -0.242301 2.599514 0.419679
v -0.000000 1.033783 0.910539
v -0.000000 1.555694 0.768560
v -0.000000 2.077604 0.626583
v -0.000000 2.599514 0.484603
v 0.384280 1.555694 0.665594
v 0.313291 2.077604 0.542636
v 0.242301 2.599514 0.419679
v 0.788550 1.033783 0.455269
v 0.665593 1.555693 0.384280
v 0.542636 2.077604 0.313291
v 0.419679 2.599514 0.242301
v -1.064806 1.033783 -1.064804
v -1.064805 1.033783 1.064806
v -1.064805 0.806162 1.064806
v 1.064805 1.033783 1.064806
v 1.064805 0.806161 1.064806
v -0.851801 0.806162 1.153035
v 1.064805 0.806161 -1.064804
v 1.153034 0.806161 0.851801
v -1.153034 0.806163 0.851802
v -1.153034 0.806163 -0.851800
v -1.064806 0.806162 -1.064804
v 0.100324 3.643335 0.173766
v 0.173766 3.643335 0.100323
v -1.153034 1.033783 0.851802
v -1.153034 1.033783 -0.851800
v 1.153033 1.033783 -0.851801
v 1.064805 1.033783 -1.064804
v 1.064805 1.033783 -1.064804
v -0.173764 3.643335 0.100325
v -0.200645 3.643335 0.000001
v 0.200647 3.643335 0.000000
v 0.173766 3.643335 -0.100321
v 0.000001 3.643335 -0.200645
v -0.100321 3.643335 -0.173764
v -0.788551 1.033783 0.455270
v -0.455270 1.033783 0.788550
v -0.000000 1.033783 -0.910538
v -0.455270 1.033783 -0.788550
v 0.455269 1.033783 -0.788550
v 0.788550 1.033783 -0.455269
v 0.000001 3.643335 0.200647
v -0.100321 3.643335 0.173766
v -0.851801 0.806162 -1.153033
v 0.851801 0.806161 -1.153033
v 0.910539 1.033783 0.000000
v -0.173764 3.643335 -0.100321
v -0.788551 1.033783 -0.455269
v -0.910539 1.033783 0.000001
v 0.851801 0.806161 1.153035
v -0.851801 0.806162 1.153035
v -1.153034 0.806163 0.851802
v -1.153034 0.806163 -0.851800
v -1.064806 0.806162 -1.064804
v -1.064806 0.806162 -1.064804
v 0.100324 3.643335 -0.173764
v -1.064805 1.033783 1.064806
v -1.064805 1.033783 1.064806
v 1.153033 0.806161 -0.851801
v 1.153034 0.806161 0.851801
v 0.455269 1.033783 0.788550
v 0.788550 1.033783 0.455269
v -0.851801 1.033783 -1.153033
v 0.851801 1.033783 -1.153033
v -0.000000 1.033783 0.910539
v -1.064806 1.033783 -1.064804
v -1.064806 1.033783 -1.064804
v 1.064805 0.806161 1.064806
v 1.064805 0.806161 1.064806
v 1.064805 1.033783 1.064806
v 1.064805 1.033783 1.064806
v 1.064805 0.806161 -1.064804
v 1.064805 0.806161 -1.064804
v -1.064805 0.806162 1.064806
v -1.064805 0.806162 1.064806
v 0.851801 1.033783 1.153035
v -0.851801 1.033783 1.153035
v 1.153034 1.033783 0.851801
vt 0.647326 0.111265
vt 0.647326 0.053363
vt 0.697783 0.053363
vt 0.697783 0.111265
vt 0.266882 0.533237
vt 0.291250 0.533237
vt 0.291250 0.715611
vt 0.266882 0.715611
vt 0.583075 0.459337
vt 0.573446 0.464896
vt 0.567887 0.444148
vt 0.573446 0.423401
vt 0.583075 0.428960
vt 0.588635 0.438589
vt 0.330268 0.807423
vt 0.317209 0.856161
vt 0.291250 0.764974
vt 0.300695 0.742171
vt 0.029458 0.742171
vt 0.052260 0.732726
vt 0.143447 0.856161
vt 0.552698 0.428960
vt 0.562328 0.423401
vt 0.547139 0.438589
vt 0.562328 0.464896
vt 0.552699 0.459337
vt 0.588635 0.449708
vt 0.547139 0.449708
vt 0.365947 0.771745
vt 0.291250 0.947348
vt 0.538119 0.947348
vt 0.512160 0.856161
vt 0.538119 0.764974
vt 0.323497 0.979596
vt 0.414684 0.953636
vt 0.505872 0.979596
vt 0.266883 0.301501
vt 0.291250 0.301501
vt 0.291250 0.483874
vt 0.266882 0.483874
vt 0.463422 0.771745
vt 0.528674 0.742171
vt 0.499100 0.807423
vt 0.266882 0.764974
vt 0.291250 0.764974
vt 0.291250 0.947348
vt 0.266882 0.947348
vt 0.266883 0.069767
vt 0.291250 0.069767
vt 0.291250 0.252139
vt 0.266883 0.252139
vt 0.330268 0.904898
vt 0.365947 0.940577
vt 0.300695 0.970150
vt 0.463422 0.940577
vt 0.499100 0.904898
vt 0.528674 0.970150
vt 0.414684 0.758686
vt 0.505872 0.732726
vt 0.323497 0.732726
vt 0.750872 0.053363
vt 0.750872 0.111265
vt 0.801329 0.053363
vt 0.801329 0.111265
vt 0.851786 0.053363
vt 0.851786 0.111265
vt 0.904876 0.053363
vt 0.904876 0.111265
vt 0.596869 0.111265
vt 0.596869 0.053363
vt 0.543780 0.111265
vt 0.543780 0.053363
vt 0.493323 0.111265
vt 0.493323 0.053363
vt 0.442866 0.111265
vt 0.442866 0.053363
vt 0.389776 0.284971
vt 0.442866 0.284971
vt 0.442866 0.342874
vt 0.389776 0.342874
vt 0.955332 0.053363
vt 0.955332 0.111265
vt 0.339320 0.111265
vt 0.339320 0.053363
vt 0.389776 0.053363
vt 0.389776 0.111265
vt 0.339320 0.342874
vt 0.339320 0.284971
vt 0.339320 0.227069
vt 0.389776 0.227069
vt 0.339320 0.169167
vt 0.389776 0.169167
vt 0.904876 0.342874
vt 0.904876 0.284971
vt 0.955332 0.284971
vt 0.955332 0.342874
vt 0.904876 0.227069
vt 0.955332 0.227069
vt 0.904876 0.169167
vt 0.955332 0.169167
vt 0.442866 0.169167
vt 0.442866 0.227069
vt 0.493323 0.284971
vt 0.493323 0.342874
vt 0.493323 0.227069
vt 0.493323 0.169167
vt 0.543780 0.284971
vt 0.543780 0.342874
vt 0.543780 0.227069
vt 0.543780 0.169167
vt 0.596869 0.284971
vt 0.596869 0.342874
vt 0.596869 0.227069
vt 0.596869 0.169167
vt 0.647326 0.284971
vt 0.647326 0.342874
vt 0.647326 0.227069
vt 0.647326 0.169167
vt 0.851786 0.342874
vt 0.851786 0.284971
vt 0.851786 0.227069
vt 0.851786 0.169167
vt 0.801329 0.342874
vt 0.801329 0.284971
vt 0.801329 0.227069
vt 0.801329 0.169167
vt 0.750872 0.342874
vt 0.750872 0.284971
vt 0.750872 0.227069
vt 0.750872 0.169167
vt 0.697783 0.342874
vt 0.697783 0.284971
vt 0.697783 0.227069
vt 0.697783 0.169167
vt 0.266883 0.020404
vt 0.291250 0.020404
vt 0.291250 0.045086
vt 0.266883 0.045085
vt 0.266883 0.045085
vt 0.291250 0.045086
vt 0.266882 0.740292
vt 0.291250 0.740292
vt 0.291250 0.740292
vt 0.266882 0.740292
vt 0.266882 0.508556
vt 0.291250 0.508556
vt 0.291250 0.508556
vt 0.266882 0.508556
vt 0.266883 0.276820
vt 0.291250 0.276820
vt 0.291250 0.276820
vt 0.266883 0.276820
vt 0.234635 0.732726
vt 0.234635 0.979596
vt 0.052260 0.979596
vt 0.257437 0.742171
vt 0.029458 0.970150
vt 0.020013 0.947348
vt 0.020013 0.764974
vt 0.266882 0.764974
vt 0.266882 0.947348
vt 0.257437 0.970150
vn 0.9649 0.2625 0.0000
vn 0.8356 0.2625 0.4824
vn 0.1951 0.0000 0.9808
vn -0.1951 0.0000 0.9808
vn 0.0000 1.0000 0.0000
vn 0.0000 -1.0000 0.0000
vn 0.9808 0.0000 -0.1951
vn 0.9808 0.0000 0.1951
vn -0.9808 0.0000 0.1951
vn -0.9808 0.0000 -0.1951
vn -0.1951 0.0000 -0.9808
vn 0.1951 0.0000 -0.9808
vn 0.4825 0.2625 0.8356
vn 0.4824 0.2625 0.8356
vn 0.0000 0.2625 0.9649
vn -0.4824 0.2625 0.8357
vn -0.8356 0.2625 0.4825
vn 0.8356 0.2625 -0.4824
vn 0.4825 0.2625 -0.8356
vn 0.0000 0.2625 -0.9649
vn -0.4824 0.2625 -0.8356
vn -0.8356 0.2625 -0.4824
vn -0.9649 0.2625 0.0000
vn -0.8356 0.2625 0.4824
vn 0.4824 0.2625 -0.8356
vn -0.4824 0.2625 0.8356
vn -0.9239 0.0000 -0.3827
vn -0.3827 0.0000 -0.9239
vn -0.9239 0.0000 0.3827
vn -0.3827 0.0000 0.9239
vn 0.3827 0.0000 0.9239
vn 0.9239 0.0000 0.3827
vn 0.9239 0.0000 -0.3827
vn 0.3827 0.0000 -0.9239
usemtl Default_OBJ
s 1
f 1/1/1 108/2/1 8/3/2 3/4/2
f 11/5/3 152/6/3 153/7/4 93/8/4
f 39/9/5 132/10/5 6/11/5
f 33/12/5 99/13/5 6/11/5
f 99/13/5 100/14/5 6/11/5
f 112/15/5 51/16/5 101/17/5 133/18/5
f 144/19/6 126/20/6 12/21/6
f 106/22/5 35/23/5 6/11/5
f 107/24/5 106/22/5 6/11/5
f 132/10/5 42/25/5 6/11/5
f 42/25/5 111/26/5 6/11/5
f 100/14/5 2/27/5 6/11/5
f 49/28/5 107/24/5 6/11/5
f 35/23/5 33/12/5 6/11/5
f 111/26/5 49/28/5 6/11/5
f 2/27/5 39/9/5 6/11/5
f 133/18/5 113/29/5 112/15/5
f 101/17/5 51/16/5 102/30/5
f 103/31/5 122/32/5 154/33/5
f 139/34/5 114/35/5 25/36/5
f 135/37/7 17/38/7 22/39/8 95/40/8
f 137/41/5 146/42/5 84/43/5
f 96/44/9 10/45/9 16/46/10 97/47/10
f 120/48/11 19/49/11 140/50/12 121/51/12
f 47/52/5 115/53/5 142/54/5
f 116/55/5 117/56/5 104/57/5
f 117/56/5 122/32/5 103/31/5 104/57/5
f 114/35/5 139/34/5 142/54/5 115/53/5
f 116/55/5 104/57/5 25/36/5 114/35/5
f 77/58/5 31/59/5 146/42/5 137/41/5
f 84/43/5 146/42/5 154/33/5 122/32/5
f 47/52/5 142/54/5 102/30/5 51/16/5
f 113/29/5 133/18/5 4/60/5 77/58/5
f 3/4/2 8/3/2 7/61/13 32/62/14
f 32/62/14 7/61/13 118/63/15 34/64/15
f 34/64/15 118/63/15 119/65/16 36/66/16
f 36/66/16 119/65/16 13/67/17 37/68/17
f 38/69/18 109/70/18 108/2/1 1/1/1
f 40/71/19 5/72/19 109/70/18 38/69/18
f 41/73/20 110/74/20 5/72/19 40/71/19
f 43/75/21 44/76/21 110/74/20 41/73/20
f 45/77/22 46/78/21 27/79/21 124/80/22
f 37/68/17 13/67/17 14/81/23 48/82/23
f 48/83/23 14/84/23 123/85/22 50/86/22
f 125/87/23 52/88/23 45/77/22 124/80/22
f 52/88/23 53/89/23 54/90/22 45/77/22
f 53/89/23 55/91/23 56/92/22 54/90/22
f 55/91/23 48/83/23 50/86/22 56/92/22
f 9/93/24 57/94/24 52/95/23 125/96/23
f 57/94/24 58/97/24 53/98/23 52/95/23
f 58/97/24 59/99/24 55/100/23 53/98/23
f 59/99/24 37/68/17 48/82/23 55/100/23
f 123/85/22 44/76/21 43/75/21 50/86/22
f 50/86/22 43/75/21 60/101/21 56/92/22
f 56/92/22 60/101/21 61/102/21 54/90/22
f 54/90/22 61/102/21 46/78/21 45/77/22
f 27/79/21 46/78/21 62/103/20 20/104/20
f 46/78/21 61/102/21 63/105/20 62/103/20
f 61/102/21 60/101/21 64/106/20 63/105/20
f 60/101/21 43/75/21 41/73/20 64/106/20
f 20/104/20 62/103/20 65/107/25 28/108/25
f 62/103/20 63/105/20 66/109/25 65/107/25
f 63/105/20 64/106/20 67/110/25 66/109/25
f 64/106/20 41/73/20 40/71/19 67/110/25
f 28/108/25 65/107/25 68/111/18 29/112/18
f 65/107/25 66/109/25 69/113/18 68/111/18
f 66/109/25 67/110/25 70/114/18 69/113/18
f 67/110/25 40/71/19 38/69/18 70/114/18
f 29/112/18 68/111/18 71/115/1 18/116/1
f 68/111/18 69/113/18 72/117/1 71/115/1
f 69/113/18 70/114/18 73/118/1 72/117/1
f 70/114/18 38/69/18 1/1/1 73/118/1
f 15/119/26 74/120/26 57/94/24 9/93/24
f 74/120/26 75/121/26 58/97/24 57/94/24
f 75/121/26 76/122/26 59/99/24 58/97/24
f 76/122/26 36/66/16 37/68/17 59/99/24
f 141/123/15 78/124/15 74/120/26 15/119/26
f 78/124/15 79/125/15 75/121/26 74/120/26
f 79/125/15 80/126/15 76/122/26 75/121/26
f 80/126/15 34/64/15 36/66/16 76/122/26
f 23/127/14 81/128/14 78/124/15 141/123/15
f 81/128/14 82/129/14 79/125/15 78/124/15
f 82/129/14 83/130/14 80/126/15 79/125/15
f 83/130/14 32/62/14 34/64/15 80/126/15
f 138/131/2 85/132/2 81/128/14 23/127/14
f 85/132/2 86/133/2 82/129/14 81/128/14
f 86/133/2 87/134/2 83/130/14 82/129/14
f 87/134/2 3/4/2 32/62/14 83/130/14
f 18/116/1 71/115/1 85/132/2 138/131/2
f 71/115/1 72/117/1 86/133/2 85/132/2
f 72/117/1 73/118/1 87/134/2 86/133/2
f 73/118/1 1/1/1 3/4/2 87/134/2
f 97/135/10 16/136/10 143/137/27 131/138/27
f 98/139/28 88/140/28 19/49/11 120/48/11
f 10/45/9 96/44/9 90/141/29 134/142/29
f 89/143/30 150/144/30 93/8/4 153/7/4
f 152/6/3 11/5/3 145/145/31 147/146/31
f 91/147/32 92/148/32 95/40/8 22/39/8
f 17/38/7 135/37/7 149/149/33 105/150/33
f 30/151/34 94/152/34 121/51/12 140/50/12
f 77/58/5 4/60/5 31/59/5
f 126/20/6 127/153/6 12/21/6
f 24/154/6 26/155/6 12/21/6
f 127/153/6 151/156/6 12/21/6
f 26/155/6 148/157/6 12/21/6
f 21/158/6 136/159/6 12/21/6
f 136/159/6 144/19/6 12/21/6
f 128/160/6 129/161/6 12/21/6
f 151/156/6 128/160/6 12/21/6
f 148/157/6 21/158/6 12/21/6
f 130/162/6 24/154/6 12/21/6
f 129/161/6 130/162/6 12/21/6
