# Blender v3.0.0 OBJ File: ''
# www.blender.org
mtllib hat_391.mtl
o Cube_Cube.002
v -1.023003 0.964926 1.175353
v -1.069143 0.744898 -1.021368
v -1.025333 0.595003 1.136071
v 1.016901 0.697690 -1.104537
v 1.129532 0.479713 0.972472
v 0.958246 0.355724 -1.097391
v -1.069143 0.744898 -1.021368
v 1.016901 0.697690 -1.104537
v 0.958246 0.355724 -1.097391
v -1.021772 1.177769 -1.012573
v 1.221337 0.848861 0.949284
v 1.016901 0.697690 -1.104537
v -1.034655 -0.884691 0.978942
v 0.723625 -1.012140 -1.068804
v 0.762310 -0.996882 1.065223
v -1.023003 0.964926 1.175353
v 1.129532 0.479713 0.972472
v 1.221337 0.848861 0.949284
v -1.025333 0.595003 1.136071
v 0.762310 -0.996882 1.065223
v 1.129532 0.479713 0.972472
v -1.069143 0.744898 -1.021368
v 0.723625 -1.012140 -1.068804
v -1.258630 -0.986588 -1.056545
v 0.958246 0.355724 -1.097391
v 0.762310 -0.996882 1.065223
v 0.723625 -1.012140 -1.068804
v -1.034655 -0.884691 0.978942
v -1.069143 0.744898 -1.021368
v -1.258630 -0.986588 -1.056545
v -1.021772 1.177769 -1.012573
v 1.221337 0.848861 0.949284
v -1.021772 1.177769 -1.012573
v -1.023003 0.964926 1.175353
v -1.258630 -0.986588 -1.056545
v -1.025333 0.595003 1.136071
v -1.034655 -0.884691 0.978942
v 0.958246 0.355724 -1.097391
v 1.129532 0.479713 0.972472
v -1.025333 0.595003 1.136071
vt 0.921822 0.365150
vt 0.951916 0.085088
vt 0.969044 0.360476
vt 0.629312 0.099927
vt 0.585106 0.363021
vt 0.585106 0.097619
vt 0.886665 0.031197
vt 0.629312 0.099927
vt 0.624319 0.055942
vt 0.896365 0.085902
vt 0.633711 0.363873
vt 0.629312 0.099927
vt 0.516903 0.482290
vt 0.323739 0.767745
vt 0.287505 0.497902
vt 0.921822 0.365150
vt 0.643012 0.411587
vt 0.633711 0.363873
vt 0.513612 0.292506
vt 0.287505 0.497902
vt 0.238102 0.309833
vt 0.580242 0.959501
vt 0.323739 0.767745
vt 0.574784 0.737339
vt 0.317148 0.944691
vt 0.051784 0.754759
vt 0.323739 0.767745
vt 0.835895 0.752197
vt 0.580242 0.959501
vt 0.574784 0.737339
vt 0.896365 0.085902
vt 0.633711 0.363873
vt 0.896365 0.085902
vt 0.921822 0.365150
vt 0.574784 0.737339
vt 0.919064 0.412523
vt 0.516903 0.482290
vt 0.317148 0.944691
vt 0.051784 0.949209
vt 0.855541 0.940990
vn -0.9997 0.0174 0.0193
vn -0.9952 0.0977 0.0111
vn -0.9998 0.0041 0.0206
vn 0.9813 -0.1785 -0.0719
vn 0.9683 -0.2374 -0.0774
vn 0.9829 -0.1701 -0.0711
vn -0.0394 0.0207 -0.9990
vn -0.0400 -0.0091 -0.9992
vn -0.0401 -0.0140 -0.9991
vn 0.1394 0.9902 0.0067
vn 0.1415 0.9899 0.0042
vn 0.2242 0.9700 -0.0937
vn -0.0390 -0.9988 0.0287
vn -0.0356 -0.9989 0.0316
vn -0.0627 -0.9980 0.0083
vn 0.0733 -0.0899 0.9932
vn 0.0991 0.0235 0.9948
vn 0.1020 0.0371 0.9941
vn 0.0042 -0.0397 0.9992
vn 0.0278 -0.0133 0.9995
vn 0.0779 0.0432 0.9960
vn -0.0194 0.0072 -0.9998
vn -0.0251 0.0014 -0.9997
vn -0.0059 0.0210 -0.9998
vn 0.9793 -0.1992 -0.0358
vn 0.9751 -0.2165 -0.0471
vn 0.9854 -0.1694 -0.0167
vn -0.9973 0.0477 0.0561
vn -0.9954 0.0653 0.0703
vn -0.9890 0.1061 0.1035
vn -0.9940 0.1086 0.0100
vn 0.9663 -0.2452 -0.0781
vn -0.0393 0.0246 -0.9989
vn 0.0611 0.9934 0.0967
vn -0.0126 -0.9986 0.0514
vn 0.0697 -0.1058 0.9919
vn -0.0542 -0.1051 0.9930
vn -0.0402 -0.0140 -0.9991
vn 0.9674 -0.2447 -0.0654
usemtl None.002
s 1
f 1/1/1 2/2/2 3/3/3
f 4/4/4 5/5/5 6/6/6
f 7/7/7 8/8/8 9/9/9
f 10/10/10 11/11/11 12/12/12
f 13/13/13 14/14/14 15/15/15
f 16/16/16 17/17/17 18/18/18
f 19/19/19 20/20/20 21/21/21
f 22/22/22 23/23/23 24/24/24
f 25/25/25 26/26/26 27/27/27
f 28/28/28 29/29/29 30/30/30
f 1/1/1 31/31/31 2/2/2
f 4/4/4 32/32/32 5/5/5
f 7/7/7 33/33/33 8/8/8
f 10/10/10 34/34/34 11/11/11
f 13/13/13 35/35/35 14/14/14
f 16/16/16 36/36/36 17/17/17
f 19/19/19 37/37/37 20/20/20
f 22/22/22 38/38/38 23/23/23
f 25/25/25 39/39/39 26/26/26
f 28/28/28 40/40/3 29/29/29
