# Blender v2.79 (sub 0) OBJ File: ''
# www.blender.org
mtllib hat_54.mtl
o Cube.004_Cube.005
v 0.900591 2.868255 0.900591
v 0.900591 2.868256 -0.900591
v -0.900591 2.868255 -0.900591
v -0.900591 2.868255 0.900591
v 0.499871 -1.024448 -0.803222
v 0.499871 0.000001 -0.803220
v 0.234764 0.000001 -0.803220
v 0.234764 -1.024447 -0.803222
v 0.499871 -1.024448 0.803219
v 0.499871 -1.024448 -0.803222
v 0.234764 -1.024447 -0.803222
v 0.234764 -1.024447 0.803219
v 0.234764 -1.024447 -0.803222
v 0.234764 -1.124845 -1.023622
v 0.234764 -1.184604 -0.963864
v 0.234764 -1.206476 0.882230
v 0.234764 -1.206475 -0.882232
v 0.499871 -1.206475 -0.882232
v 0.499871 -1.206476 0.882230
v 0.499871 -1.124845 1.023620
v 0.499871 -1.024448 0.803219
v 0.499871 -1.043213 1.045493
v 0.499871 -0.000000 1.045494
v 0.499871 -0.000000 0.803219
v 0.499871 -1.024448 -0.803222
v 0.499871 -1.124845 -1.023622
v 0.499871 -1.043213 -1.045496
v 1.155524 -0.000000 1.155523
v 0.499871 -0.000000 1.045494
v 0.499871 -0.000000 0.803219
v 0.234764 0.000001 -0.803220
v -1.155523 0.000000 -1.155524
v 0.234764 0.000001 -1.045494
v -1.121369 2.740789 -1.121369
v 1.121369 2.740789 -1.121369
v 1.155524 2.613322 -1.155524
v -1.155523 2.613322 -1.155524
v 0.234764 -1.206475 -0.882232
v -1.028057 2.834102 -1.028058
v 1.028057 2.834102 -1.028058
v 1.028057 2.834102 -1.028058
v -1.028057 2.834102 -1.028058
v 1.121369 2.740789 1.121369
v -1.121369 2.740788 1.121369
v -1.155523 2.613322 1.155524
v 1.155524 2.613322 1.155524
v 1.028057 2.834102 1.028058
v -1.028057 2.834102 1.028058
v -1.028057 2.834102 1.028058
v 1.028057 2.834102 1.028058
v 0.234764 -0.000000 0.803219
v 0.499871 0.000001 -0.803220
v -1.155523 -0.000000 1.155524
v 1.155524 -0.000000 1.155523
v 0.234764 -1.043213 -1.045496
v 0.234764 0.000001 -0.803220
v 0.234764 0.000001 -1.045494
v 1.155524 0.000001 -1.155524
v -1.155523 0.000000 -1.155524
v 0.499871 -1.184604 -0.963864
v 1.155524 0.000001 -1.155524
v 0.499871 0.000001 -1.045494
v 1.028057 2.834102 -1.028058
v 1.028057 2.834102 1.028058
v 1.121369 2.740789 1.121369
v 1.121369 2.740789 -1.121369
v 1.155524 2.613322 1.155524
v 1.155524 2.613322 -1.155524
v 0.499871 -1.024448 0.803219
v 0.234764 -1.024447 0.803219
v 0.234764 -0.000000 0.803219
v 0.499871 -0.000000 0.803219
v 1.155524 -0.000000 1.155523
v 1.155524 0.000001 -1.155524
v -1.155523 -0.000000 1.155524
v 0.234764 -0.000000 1.045494
v 0.234764 -1.043213 1.045493
v 0.499871 -1.043213 1.045493
v 0.499871 -0.000000 1.045494
v 0.234764 -0.000000 1.045494
v 0.499871 -1.206476 0.882230
v 0.499871 -1.184604 0.963861
v -1.155523 2.613322 -1.155524
v -1.155523 2.613322 1.155524
v -1.121369 2.740788 1.121369
v -1.121369 2.740789 -1.121369
v -1.028057 2.834102 1.028058
v -1.028057 2.834102 -1.028058
v -1.155523 0.000000 -1.155524
v -1.155523 -0.000000 1.155524
v 0.499871 0.000001 -1.045494
v 0.499871 -1.043213 -1.045496
v 0.234764 -1.043213 -1.045496
v 0.234764 0.000001 -1.045494
v 0.499871 0.000001 -1.045494
v 0.499871 0.000001 -0.803220
v 0.499871 -1.206475 -0.882232
v 0.499871 -1.184604 0.963861
v 0.234764 -1.184604 0.963861
v 0.234764 -1.184604 0.963861
v 0.499871 -1.184604 0.963861
v 0.499871 -1.124845 1.023620
v 0.234764 -1.124845 1.023620
v 0.499871 -1.124845 -1.023622
v 0.234764 -1.124845 -1.023622
v 0.499871 -1.184604 -0.963864
v 0.234764 -1.184604 -0.963864
v 0.234764 -1.184604 -0.963864
v 0.499871 -1.184604 -0.963864
v 0.234764 -1.206476 0.882230
v 0.234764 -1.024447 0.803219
v 0.234764 -1.184604 0.963861
v 0.234764 -1.124845 1.023620
v 0.234764 -1.043213 1.045493
v 0.234764 -0.000000 1.045494
v 0.234764 -0.000000 0.803219
vt 0.286246 0.427599
vt 0.473497 0.427599
vt 0.473497 0.614849
vt 0.286246 0.614849
vt 0.835770 0.778667
vt 0.942272 0.778667
vt 0.942272 0.806228
vt 0.835771 0.806227
vt 0.668765 0.778667
vt 0.835770 0.778667
vt 0.835771 0.806227
vt 0.668765 0.806228
vt 0.372651 0.760508
vt 0.395564 0.770945
vt 0.389351 0.777157
vt 0.197432 0.779431
vt 0.380865 0.779431
vt 0.380865 0.806992
vt 0.197432 0.806992
vt 0.182733 0.815478
vt 0.205646 0.825916
vt 0.180459 0.823965
vt 0.180459 0.932417
vt 0.205646 0.932417
vt 0.372651 0.825916
vt 0.395564 0.815478
vt 0.397838 0.823965
vt 0.594037 0.481791
vt 0.662198 0.493229
vt 0.662198 0.518416
vt 0.689759 0.685421
vt 0.834293 0.722047
vt 0.689759 0.710608
vt 0.736706 0.400161
vt 0.503551 0.400161
vt 0.500000 0.386442
vt 0.740256 0.386442
vt 0.380865 0.779431
vt 0.727005 0.413880
vt 0.513251 0.413879
vt 0.713753 0.427599
vt 0.526503 0.427599
vt 0.513251 0.413879
vt 0.727005 0.413880
vt 0.256193 0.400161
vt 0.023038 0.400161
vt 0.019488 0.386442
vt 0.259744 0.386442
vt 0.246492 0.413880
vt 0.032739 0.413880
vt 0.233241 0.427599
vt 0.045990 0.427599
vt 0.032739 0.413880
vt 0.246492 0.413880
vt 0.689759 0.518416
vt 0.662198 0.685421
vt 0.019488 0.114761
vt 0.259744 0.114762
vt 0.397838 0.762459
vt 0.372651 0.654007
vt 0.397838 0.654006
vt 0.500000 0.114761
vt 0.740256 0.114762
vt 0.389351 0.809266
vt 0.594037 0.722046
vt 0.662198 0.710608
vt 0.272995 0.413880
vt 0.486748 0.413880
vt 0.486748 0.413880
vt 0.272995 0.413880
vt 0.263295 0.400161
vt 0.496449 0.400161
vt 0.259744 0.386442
vt 0.500000 0.386442
vt 0.668765 0.778667
vt 0.668765 0.806228
vt 0.562264 0.806228
vt 0.562264 0.778667
vt 0.259744 0.114762
vt 0.500000 0.114761
vt 0.834293 0.481790
vt 0.062622 0.779432
vt 0.171074 0.779432
vt 0.171074 0.806992
vt 0.062622 0.806992
vt 0.689759 0.493229
vt 0.197432 0.806992
vt 0.188946 0.809266
vt 0.740256 0.386442
vt 0.980512 0.386442
vt 0.976962 0.400161
vt 0.743807 0.400161
vt 0.967261 0.413880
vt 0.753508 0.413880
vt 0.954010 0.427599
vt 0.766759 0.427599
vt 0.753508 0.413880
vt 0.967261 0.413880
vt 0.740256 0.114762
vt 0.980512 0.114761
vt 0.515674 0.806992
vt 0.407222 0.806992
vt 0.407222 0.779431
vt 0.515675 0.779431
vt 0.397838 0.932417
vt 0.372651 0.932417
vt 0.380865 0.806992
vt 0.188646 0.806992
vt 0.188646 0.779431
vt 0.188646 0.779431
vt 0.188646 0.806992
vt 0.179860 0.806992
vt 0.179860 0.779432
vt 0.398437 0.806992
vt 0.398437 0.779432
vt 0.389651 0.806992
vt 0.389651 0.779431
vt 0.389651 0.779431
vt 0.389651 0.806992
vt 0.197432 0.779431
vt 0.205646 0.760508
vt 0.188946 0.777158
vt 0.182733 0.770945
vt 0.180459 0.762459
vt 0.180459 0.654007
vt 0.205645 0.654006
vn 0.0984 0.9903 0.0984
vn 0.0984 0.9903 -0.0984
vn -0.0984 0.9903 -0.0984
vn -0.0984 0.9903 0.0984
vn -0.0000 -0.0000 1.0000
vn 0.0000 1.0000 0.0000
vn -1.0000 0.0000 0.0000
vn 0.0000 -0.9914 0.1305
vn 0.0000 -0.9914 -0.1305
vn 1.0000 0.0000 0.0000
vn -0.0000 -1.0000 -0.0000
vn 0.0000 0.4260 -0.9047
vn 0.0000 0.1191 -0.9929
vn 0.0000 0.7071 -0.7071
vn 0.1316 0.9825 -0.1316
vn -0.1316 0.9825 -0.1316
vn -0.0000 0.4260 0.9047
vn 0.0000 0.1191 0.9929
vn -0.0000 0.7071 0.7071
vn -0.1316 0.9825 0.1316
vn 0.1316 0.9825 0.1316
vn 0.0000 0.0000 -1.0000
vn 0.7071 0.7071 0.0000
vn 0.9047 0.4260 -0.0000
vn 0.9929 0.1191 -0.0000
vn 0.0000 -0.1305 0.9914
vn -0.9929 0.1191 0.0000
vn -0.9047 0.4260 0.0000
vn -0.7071 0.7071 0.0000
vn 0.0000 -0.1305 -0.9914
vn 0.0000 -0.9659 0.2588
vn 0.0000 -0.7071 0.7071
vn 0.0000 -0.5000 0.8660
vn 0.0000 -0.5000 -0.8660
vn 0.0000 -0.7071 -0.7071
vn 0.0000 -0.9659 -0.2588
usemtl Material.007
s 1
f 1/1/1 2/2/2 3/3/3 4/4/4
f 5/5/5 6/6/5 7/7/5 8/8/5
f 9/9/6 10/10/6 11/11/6 12/12/6
f 13/13/7 14/14/7 15/15/7
f 16/16/8 17/17/9 18/18/9 19/19/8
f 20/20/10 21/21/10 22/22/10
f 23/23/10 22/22/10 21/21/10 24/24/10
f 25/25/10 26/26/10 27/27/10
f 28/28/11 29/29/11 30/30/11
f 31/31/11 32/32/11 33/33/11
f 34/34/12 35/35/12 36/36/13 37/37/13
f 15/15/7 38/38/7 13/13/7
f 39/39/14 40/40/14 35/35/12 34/34/12
f 3/41/3 2/42/2 41/43/15 42/44/16
f 43/45/17 44/46/17 45/47/18 46/48/18
f 47/49/19 48/50/19 44/46/17 43/45/17
f 1/51/1 4/52/4 49/53/20 50/54/21
f 51/55/11 31/31/11 52/56/11 30/30/11
f 46/48/18 45/47/18 53/57/5 54/58/5
f 55/59/7 13/13/7 56/60/7 57/61/7
f 37/37/13 36/36/13 58/62/22 59/63/22
f 25/25/10 60/64/10 26/26/10
f 61/65/11 62/66/11 33/33/11 32/32/11
f 2/2/2 1/1/1 50/67/21 41/68/15
f 63/69/23 64/70/23 65/71/24 66/72/24
f 66/72/24 65/71/24 67/73/25 68/74/25
f 69/75/22 70/76/22 71/77/22 72/78/22
f 68/74/25 67/73/25 73/79/10 74/80/10
f 75/81/11 32/32/11 31/31/11 51/55/11
f 76/82/5 77/83/26 78/84/26 79/85/5
f 75/81/11 80/86/11 29/29/11 28/28/11
f 81/87/10 21/21/10 82/88/10
f 83/89/27 84/90/27 85/91/28 86/92/28
f 51/55/11 80/86/11 75/81/11
f 86/92/28 85/91/28 87/93/29 88/94/29
f 61/65/11 52/56/11 62/66/11
f 4/95/4 3/96/3 42/97/16 49/98/20
f 89/99/7 90/100/7 84/90/27 83/89/27
f 30/30/11 52/56/11 61/65/11 28/28/11
f 91/101/22 92/102/30 93/103/30 94/104/22
f 27/27/10 95/105/10 96/106/10 25/25/10
f 21/21/10 81/87/10 97/107/10 25/25/10
f 60/64/10 25/25/10 97/107/10
f 14/14/7 13/13/7 55/59/7
f 82/88/10 21/21/10 20/20/10
f 16/16/8 19/19/8 98/108/31 99/109/31
f 100/110/32 101/111/32 102/112/33 103/113/33
f 103/113/33 102/112/33 78/84/26 77/83/26
f 93/103/30 92/102/30 104/114/34 105/115/34
f 105/115/34 104/114/34 106/116/35 107/117/35
f 108/118/36 109/119/36 18/18/9 17/17/9
f 38/38/7 110/120/7 111/121/7 13/13/7
f 111/121/7 110/120/7 112/122/7
f 112/122/7 113/123/7 111/121/7
f 111/121/7 113/123/7 114/124/7
f 114/124/7 115/125/7 116/126/7 111/121/7
