# Blender v3.0.0 OBJ File: 'Kanji.blend'
# www.blender.org
mtllib Sandstorm.mtl
o Cube.003_Cube.015
v -0.780585 0.775308 -0.803521
v -0.780585 -0.780248 -0.803521
v -0.780585 -0.780248 -1.003520
v -0.780585 0.775308 -1.003521
v 0.997193 -1.002470 0.996479
v 0.997193 -1.002470 -1.003521
v 0.997193 -0.780248 -0.781298
v 0.997193 -0.780248 0.774257
v 0.774972 -0.802470 0.774257
v 0.774972 -0.802470 -0.781298
v 0.774972 -1.002470 -0.781298
v 0.774972 -1.002470 0.774257
v 0.774971 0.997530 -0.781298
v -0.780585 0.997530 -0.781298
v -0.780585 0.797530 -0.781298
v 0.774971 0.797530 -0.781298
v -0.780585 0.997530 0.774257
v -1.002806 0.997530 0.996479
v 0.997194 0.997530 0.996479
v 0.774971 0.997530 0.774257
v -1.002807 -0.780248 -0.781298
v -0.802807 -0.780248 -0.781298
v -0.802807 0.775308 -0.781298
v -1.002807 0.775308 -0.781298
v -1.002806 0.997530 -1.003521
v -1.002807 -1.002470 -1.003521
v -0.780585 0.797530 0.774257
v 0.997194 0.997530 -1.003521
v 0.774971 0.775308 0.996479
v 0.774972 -0.780248 0.996479
v -0.780585 -1.002470 -0.781298
v -0.780585 -0.802470 -0.781298
v -0.780585 -0.802470 0.774257
v -0.780585 -1.002470 0.774257
v -1.002807 -1.002470 0.996479
v 0.774971 0.797530 0.774257
v -0.780585 0.775308 0.996479
v -0.780585 0.775308 0.796479
v 0.774971 0.775308 0.796479
v 0.774971 0.775308 -1.003521
v 0.774972 -0.780248 -1.003520
v 0.774972 -0.780248 -0.803521
v 0.774971 0.775308 -0.803521
v -0.780585 -0.780248 0.996479
v 0.797193 -0.780248 0.774257
v 0.797193 0.775308 0.774257
v 0.997194 0.775308 0.774257
v -0.780585 -0.780248 0.796479
v 0.774972 -0.780248 0.796479
v -0.802807 0.775308 0.774257
v -1.002806 0.775308 0.774257
v 0.797193 -0.780248 -0.781298
v 0.797193 0.775308 -0.781298
v 0.997194 0.775308 -0.781298
v -1.002807 -0.780248 0.774257
v -0.802807 -0.780248 0.774257
v 0.944810 -0.806813 -0.807863
v 0.944810 0.789620 0.788569
v 0.944810 0.597695 0.810528
v 0.944810 -0.816519 -0.603685
v 0.781086 0.475525 0.688359
v 0.781086 -0.694350 -0.481515
v 0.944810 0.811579 0.596644
v 0.944810 -0.602635 -0.817570
v 0.781086 -0.480465 -0.695400
v 0.781086 0.689410 0.474474
v 0.801535 -0.806812 -0.951136
v 0.597358 -0.816519 -0.951136
v -0.816856 0.597695 -0.951137
v -0.794897 0.789620 -0.951136
v 0.811242 -0.602634 -0.951136
v -0.602971 0.811579 -0.951136
v -0.480801 0.689410 -0.787413
v 0.689072 -0.480465 -0.787413
v 0.475189 -0.694349 -0.787413
v -0.694686 0.475525 -0.787413
v -0.950422 -0.806812 0.800822
v -0.950423 0.789620 -0.795611
v -0.950423 0.597694 -0.817569
v -0.950422 -0.816519 0.596644
v -0.786700 0.475525 -0.695400
v -0.786699 -0.694350 0.474474
v -0.950423 0.811579 -0.603685
v -0.950422 -0.602634 0.810529
v -0.786699 -0.480465 0.688359
v -0.786700 0.689409 -0.481515
v -0.807149 -0.806812 0.944095
v -0.602971 -0.816519 0.944095
v 0.811242 0.597695 0.944095
v 0.789283 0.789621 0.944095
v -0.816856 -0.602634 0.944095
v 0.597358 0.811579 0.944095
v 0.475188 0.689410 0.780372
v -0.694686 -0.480465 0.780372
v -0.480802 -0.694349 0.780372
v 0.689073 0.475525 0.780372
v 0.801536 0.945146 -0.807863
v 0.597358 0.945146 -0.817569
v -0.816856 0.945146 0.596644
v -0.794897 0.945146 0.788569
v 0.811242 0.945146 -0.603685
v -0.602971 0.945146 0.810529
v -0.480802 0.781423 0.688359
v 0.689073 0.781423 -0.481515
v 0.475188 0.781423 -0.695400
v -0.694686 0.781423 0.474474
v -0.807149 -0.950086 -0.807862
v -0.602971 -0.950086 -0.817569
v 0.811242 -0.950085 0.596644
v 0.789284 -0.950085 0.788570
v -0.816856 -0.950086 -0.603685
v 0.597358 -0.950085 0.810529
v 0.475189 -0.786362 0.688359
v -0.694686 -0.786362 -0.481515
v -0.480802 -0.786363 -0.695400
v 0.689072 -0.786362 0.474474
v 0.899193 -0.822469 -0.807120
v 0.899193 0.817529 -0.807120
v 0.899193 0.817530 0.800079
v 0.899193 -0.822469 0.800079
v 0.800793 0.817530 0.898479
v -0.806406 0.817530 0.898479
v -0.806406 -0.822469 0.898479
v 0.800793 -0.822469 0.898479
v -0.806406 -0.822469 -0.905520
v -0.806406 0.817530 -0.905520
v 0.800793 0.817530 -0.905520
v 0.800793 -0.822469 -0.905520
v -0.806406 0.899530 0.816479
v 0.800793 0.899529 0.816479
v 0.800793 0.899530 -0.823520
v -0.806406 0.899530 -0.823520
v -0.904806 -0.822469 -0.807120
v -0.904806 -0.822469 0.800079
v -0.904806 0.817529 0.800079
v -0.904806 0.817529 -0.807120
v 0.800793 -0.917785 0.816479
v -0.806406 -0.917786 0.816479
v -0.806406 -0.917785 -0.823520
v 0.800793 -0.917785 -0.823520
vt 0.675422 0.078655
vt 0.525155 0.078655
vt 0.525155 0.059335
vt 0.675422 0.059335
vt 0.255283 0.152708
vt 0.448484 0.152708
vt 0.427017 0.174175
vt 0.276750 0.174175
vt 0.825689 0.097975
vt 0.675422 0.097975
vt 0.675422 0.078655
vt 0.825689 0.078655
vt 0.675422 0.136616
vt 0.525154 0.136616
vt 0.525154 0.117296
vt 0.675422 0.117296
vt 0.276750 0.517644
vt 0.255283 0.539110
vt 0.255283 0.345909
vt 0.276750 0.367376
vt 0.975958 0.020695
vt 0.975958 0.040015
vt 0.825690 0.040015
vt 0.825690 0.020695
vt 0.448484 0.539110
vt 0.469951 0.517644
vt 0.620219 0.517644
vt 0.641685 0.539110
vt 0.374887 0.136616
vt 0.374887 0.117296
vt 0.448484 0.345909
vt 0.427017 0.517644
vt 0.427017 0.367376
vt 0.233816 0.367376
vt 0.083548 0.367376
vt 0.062082 0.345909
vt 0.525154 0.078655
vt 0.525154 0.097975
vt 0.374887 0.097976
vt 0.374887 0.078655
vt 0.813420 0.517643
vt 0.813420 0.367376
vt 0.834886 0.345910
vt 0.834887 0.539110
vt 0.825689 0.117296
vt 0.825689 0.136616
vt 0.675422 0.117296
vt 0.525155 0.117296
vt 0.525155 0.097975
vt 0.675422 0.097975
vt 0.825689 0.059335
vt 0.975958 0.059335
vt 0.975958 0.078655
vt 0.825689 0.078655
vt 0.469951 0.367376
vt 0.062082 0.539111
vt 0.083549 0.517644
vt 0.233816 0.517644
vt 0.374888 0.059335
vt 0.374888 0.040015
vt 0.525156 0.040015
vt 0.525156 0.059336
vt 0.374887 0.117296
vt 0.374887 0.097975
vt 0.825689 0.117296
vt 0.825689 0.097975
vt 0.675423 0.040015
vt 0.675423 0.020695
vt 0.825690 0.059335
vt 0.825690 0.040015
vt 0.975957 0.040015
vt 0.975957 0.059335
vt 0.675423 0.040015
vt 0.675423 0.059335
vt 0.663152 0.517644
vt 0.276750 0.560577
vt 0.276750 0.710844
vt 0.255283 0.732311
vt 0.427017 0.710844
vt 0.448484 0.732311
vt 0.427017 0.324443
vt 0.276750 0.324443
vt 0.525156 0.020695
vt 0.525156 0.040015
vt 0.374889 0.040015
vt 0.374889 0.020695
vt 0.975957 0.097975
vt 0.975957 0.117296
vt 0.641685 0.345910
vt 0.663152 0.367376
vt 0.620219 0.367376
vt 0.427017 0.560577
vt 0.975957 0.117296
vt 0.975957 0.136616
vt 0.374888 0.078655
vt 0.374888 0.059335
vt 0.975957 0.078655
vt 0.975957 0.097975
vt 0.247042 0.955583
vt 0.465137 0.955583
vt 0.453527 0.970193
vt 0.260326 0.970193
vt 0.436837 0.986009
vt 0.277016 0.986009
vt 0.453527 0.940973
vt 0.260326 0.940973
vt 0.277016 0.925157
vt 0.436837 0.925157
vt 0.247041 0.833881
vt 0.260325 0.819271
vt 0.453527 0.819271
vt 0.465136 0.833881
vt 0.260325 0.848490
vt 0.453526 0.848491
vt 0.436836 0.864306
vt 0.277015 0.864306
vt 0.277015 0.803455
vt 0.436837 0.803456
vt 0.027273 0.894732
vt 0.245367 0.894732
vt 0.233757 0.909342
vt 0.040557 0.909342
vt 0.217068 0.925157
vt 0.057247 0.925157
vt 0.233758 0.880122
vt 0.040556 0.880122
vt 0.057247 0.864306
vt 0.217067 0.864306
vt 0.247041 0.833881
vt 0.233758 0.848490
vt 0.040556 0.848490
vt 0.028946 0.833880
vt 0.233758 0.819271
vt 0.040556 0.819271
vt 0.057246 0.803455
vt 0.217068 0.803455
vt 0.217067 0.864306
vt 0.057245 0.864305
vt 0.247042 0.894732
vt 0.260325 0.880122
vt 0.453526 0.880122
vt 0.465136 0.894732
vt 0.260325 0.909342
vt 0.453527 0.909342
vt 0.436837 0.925157
vt 0.277015 0.925157
vt 0.277015 0.864306
vt 0.436836 0.864306
vt 0.247041 0.955583
vt 0.233757 0.970192
vt 0.040556 0.970193
vt 0.028946 0.955583
vt 0.233757 0.940973
vt 0.040556 0.940973
vt 0.057246 0.925157
vt 0.217068 0.925157
vt 0.217067 0.986008
vt 0.057246 0.986008
vt 0.974604 0.733979
vt 0.816179 0.733979
vt 0.816179 0.889236
vt 0.974604 0.889235
vt 0.657754 0.733979
vt 0.657754 0.889236
vt 0.499329 0.889236
vt 0.499329 0.733979
vt 0.657754 0.578723
vt 0.816179 0.578723
vt 0.816179 0.733979
vt 0.657754 0.733979
vt 0.816179 0.733979
vt 0.816179 0.889236
vt 0.657754 0.889236
vt 0.657754 0.733979
vt 0.499329 0.578723
vt 0.499329 0.733979
vt 0.657754 0.733979
vt 0.657754 0.578723
vt 0.816179 0.733980
vt 0.816179 0.578723
vt 0.974603 0.578723
vt 0.974603 0.733980
vn 1.0000 0.0000 0.0000
vn -1.0000 0.0000 0.0000
vn 0.0000 -0.0000 1.0000
vn -0.0000 1.0000 0.0000
vn 0.0000 -0.0000 -1.0000
vn 0.0000 -1.0000 -0.0000
vn 0.0000 -0.7071 0.7071
vn 0.0000 0.7071 -0.7071
vn 0.7071 0.7071 0.0000
vn -0.7071 -0.7071 0.0000
vn -0.0000 -0.7071 -0.7071
vn 0.0000 0.7071 0.7071
vn -0.7071 0.7071 0.0000
vn 0.7071 -0.7071 -0.0000
vn 0.7071 -0.0000 0.7071
vn -0.7071 0.0000 -0.7071
vn -0.7071 0.0000 0.7071
vn 0.7071 0.0000 -0.7071
usemtl Material.002
s 1
f 1/1/1 2/2/1 3/3/1 4/4/1
f 5/5/1 6/6/1 7/7/1 8/8/1
f 9/9/2 10/10/2 11/11/2 12/12/2
f 13/13/3 14/14/3 15/15/3 16/16/3
f 17/17/4 18/18/4 19/19/4 20/20/4
f 21/21/3 22/22/3 23/23/3 24/24/3
f 25/25/5 4/26/5 3/27/5 26/28/5
f 14/14/1 17/29/1 27/30/1 15/15/1
f 28/31/4 25/25/4 14/32/4 13/33/4
f 29/34/3 30/35/3 5/36/3 19/19/3
f 18/18/4 17/17/4 14/32/4 25/25/4
f 31/37/1 32/38/1 33/39/1 34/40/1
f 34/41/6 12/42/6 5/43/6 35/44/6
f 31/37/3 11/11/3 10/10/3 32/38/3
f 13/13/2 16/16/2 36/45/2 20/46/2
f 29/47/6 37/48/6 38/49/6 39/50/6
f 40/51/2 41/52/2 42/53/2 43/54/2
f 25/25/5 28/31/5 40/55/5 4/26/5
f 18/18/3 35/56/3 44/57/3 37/58/3
f 8/59/5 45/60/5 46/61/5 47/62/5
f 44/63/1 48/64/1 38/49/1 37/48/1
f 35/56/3 5/36/3 30/35/3 44/57/3
f 30/65/2 29/47/2 39/50/2 49/66/2
f 23/23/6 50/67/6 51/68/6 24/24/6
f 7/69/4 52/70/4 45/71/4 8/72/4
f 46/61/6 53/73/6 54/74/6 47/62/6
f 31/75/6 34/41/6 35/44/6 26/28/6
f 51/76/2 55/77/2 35/78/2 18/18/2
f 21/79/2 26/80/2 35/78/2 55/77/2
f 37/58/3 29/34/3 19/19/3 18/18/3
f 19/19/4 28/31/4 13/33/4 20/20/4
f 7/69/3 54/74/3 53/73/3 52/70/3
f 54/81/1 7/7/1 6/6/1 28/31/1
f 54/81/1 28/31/1 19/19/1 47/82/1
f 19/19/1 5/5/1 8/8/1 47/82/1
f 55/83/4 56/84/4 22/85/4 21/86/4
f 4/4/6 40/51/6 43/54/6 1/1/6
f 49/66/4 48/87/4 44/88/4 30/65/4
f 6/89/6 11/90/6 31/75/6 26/28/6
f 11/90/6 6/89/6 5/43/6 12/42/6
f 41/91/5 40/55/5 28/31/5 6/89/5
f 3/27/5 41/91/5 6/89/5 26/28/5
f 21/79/2 24/92/2 25/25/2 26/80/2
f 36/45/5 27/93/5 17/94/5 20/46/5
f 55/83/5 51/68/5 50/67/5 56/84/5
f 2/2/4 42/95/4 41/96/4 3/3/4
f 18/18/2 25/25/2 24/92/2 51/76/2
f 34/97/5 33/98/5 9/9/5 12/12/5
f 57/99/1 58/100/1 59/101/1 60/102/1
f 60/102/7 59/101/7 61/103/7 62/104/7
f 63/105/8 64/106/8 65/107/8 66/108/8
f 64/106/1 63/105/1 58/100/1 57/99/1
f 67/109/5 68/110/5 69/111/5 70/112/5
f 71/113/9 72/114/9 73/115/9 74/116/9
f 69/111/10 68/110/10 75/117/10 76/118/10
f 71/113/5 67/109/5 70/112/5 72/114/5
f 77/119/2 78/120/2 79/121/2 80/122/2
f 80/122/11 79/121/11 81/123/11 82/124/11
f 83/125/12 84/126/12 85/127/12 86/128/12
f 84/126/2 83/125/2 78/120/2 77/119/2
f 87/129/3 88/130/3 89/131/3 90/132/3
f 91/133/13 92/134/13 93/135/13 94/136/13
f 89/131/14 88/130/14 95/137/14 96/138/14
f 91/133/3 87/129/3 90/132/3 92/134/3
f 97/139/4 98/140/4 99/141/4 100/142/4
f 101/143/15 102/144/15 103/145/15 104/146/15
f 99/141/16 98/140/16 105/147/16 106/148/16
f 101/143/4 97/139/4 100/142/4 102/144/4
f 107/149/6 108/150/6 109/151/6 110/152/6
f 111/153/17 112/154/17 113/155/17 114/156/17
f 109/151/18 108/150/18 115/157/18 116/158/18
f 111/153/6 107/149/6 110/152/6 112/154/6
f 117/159/1 118/160/1 119/161/1 120/162/1
f 121/163/3 122/164/3 123/165/3 124/166/3
f 125/167/5 126/168/5 127/169/5 128/170/5
f 129/171/4 130/172/4 131/173/4 132/174/4
f 133/175/2 134/176/2 135/177/2 136/178/2
f 137/179/6 138/180/6 139/181/6 140/182/6
