# Blender v2.79 (sub 0) OBJ File: 'hat_1.blend'
# www.blender.org
mtllib hat_1.mtl
o Cube
v -0.500132 0.000001 0.500132
v -0.500132 1.077102 0.500132
v -0.500132 0.000001 -0.500132
v -0.500132 1.077102 -0.500132
v 0.500132 0.000001 0.500132
v 0.500132 1.077102 0.500132
v 0.500132 0.000001 -0.500132
v 0.500132 1.077102 -0.500132
v -0.500132 0.185765 0.500132
v -0.500132 0.185765 -0.500132
v 0.500132 0.185765 -0.500132
v 0.500132 0.185765 0.500132
v -0.774296 0.000001 -0.774296
v -0.774296 0.000001 0.774296
v -0.774296 0.185765 -0.774296
v 0.774296 0.000001 -0.774296
v 0.774296 0.185765 -0.774296
v 0.774296 0.000001 0.774296
v 0.774296 0.185765 0.774296
v -0.774296 0.185765 0.774296
vt 0.736316 0.984677
vt 0.736316 0.771262
vt 0.975811 0.771262
vt 0.975811 0.984677
vt 0.017831 0.984677
vt 0.017831 0.771262
vt 0.257326 0.771262
vt 0.257326 0.984677
vt 0.496821 0.771262
vt 0.496821 0.984677
vt 0.222731 0.705510
vt 0.017032 0.705510
vt 0.017032 0.499810
vt 0.222732 0.499810
vt 0.257326 0.531767
vt 0.496821 0.531767
vt 0.196044 0.060866
vt 0.447611 0.060866
vt 0.516564 0.129818
vt 0.127091 0.129818
vt 0.591455 0.283030
vt 0.843020 0.283030
vt 0.911972 0.351982
vt 0.522503 0.351981
vt 0.453550 0.467653
vt 0.201984 0.467653
vt 0.133032 0.398701
vt 0.522503 0.398701
vt 0.447611 0.245491
vt 0.196044 0.245491
vt 0.127091 0.176538
vt 0.516564 0.176538
vt 0.906035 0.129819
vt 0.906035 0.176538
vt 0.133032 0.351981
vt 0.911972 0.398701
vt 0.843019 0.467653
vt 0.591454 0.467653
vt 0.201984 0.283029
vt 0.453550 0.283029
vt 0.837083 0.245491
vt 0.585516 0.245491
vt 0.585516 0.060866
vt 0.837083 0.060866
vn -1.0000 0.0000 0.0000
vn 0.0000 0.0000 -1.0000
vn 1.0000 0.0000 0.0000
vn 0.0000 0.0000 1.0000
vn 0.0000 -1.0000 0.0000
vn 0.0000 1.0000 0.0000
usemtl None
s off
f 9/1/1 2/2/1 4/3/1 10/4/1
f 10/5/2 4/6/2 8/7/2 11/8/2
f 11/8/3 8/7/3 6/9/3 12/10/3
f 12/10/4 6/9/4 2/2/4 9/1/4
f 3/11/5 7/12/5 5/13/5 1/14/5
f 8/7/6 4/15/6 2/16/6 6/9/6
f 3/17/5 1/18/5 14/19/5 13/20/5
f 7/21/5 3/22/5 13/23/5 16/24/5
f 11/25/6 12/26/6 19/27/6 17/28/6
f 9/29/6 10/30/6 15/31/6 20/32/6
f 18/33/4 19/34/4 20/32/4 14/19/4
f 16/24/3 17/28/3 19/27/3 18/35/3
f 13/23/2 15/36/2 17/28/2 16/24/2
f 14/19/1 20/32/1 15/31/1 13/20/1
f 10/37/6 11/38/6 17/28/6 15/36/6
f 5/39/5 7/40/5 16/24/5 18/35/5
f 12/41/6 9/42/6 20/32/6 19/34/6
f 1/43/5 5/44/5 18/33/5 14/19/5
