# Blender v2.79 (sub 0) OBJ File: 'ninja.blend'
# www.blender.org
mtllib hat_15.mtl
o Cube
v 0.295736 0.564527 0.284485
v 0.295736 0.687044 0.284485
v 0.295736 0.564527 0.161968
v 0.295736 0.687044 0.161968
v 0.447462 0.564527 0.284485
v 0.447462 0.687044 0.284485
v 0.447462 0.564527 0.161968
v 0.447462 0.687044 0.161968
v -0.500131 -0.000000 0.500132
v -0.500131 1.000263 0.500132
v -0.500131 -0.000000 -0.500132
v -0.500131 1.000263 -0.500132
v 0.500132 -0.000000 0.500132
v 0.500132 1.000263 0.500132
v 0.500132 -0.000000 -0.500132
v 0.500132 1.000263 -0.500132
v 0.500132 1.000263 -0.300079
v 0.500132 1.000263 0.300079
v 0.500132 0.774937 -0.407622
v 0.500132 0.774937 0.407622
v 0.500132 0.486032 -0.407622
v 0.500132 0.486032 0.407622
v 0.353182 0.774937 -0.407622
v 0.353182 0.774937 0.407622
v 0.353182 0.486032 -0.407622
v 0.353182 0.486032 0.407622
v 0.295736 0.564527 -0.284485
v 0.295736 0.687044 -0.284485
v 0.295736 0.564527 -0.161968
v 0.295736 0.687044 -0.161968
v 0.447462 0.564527 -0.284485
v 0.447462 0.687044 -0.284485
v 0.447462 0.564527 -0.161968
v 0.447462 0.687044 -0.161968
v 0.402209 0.774937 0.407622
v 0.402209 0.774937 -0.407622
v 0.402209 0.486032 0.407622
v 0.402209 0.486032 -0.407622
vt 0.705545 0.566324
vt 0.810080 0.566324
vt 0.810080 0.695779
vt 0.705545 0.695779
vt 0.810080 0.800314
vt 0.705545 0.800314
vt 0.810080 0.929770
vt 0.705545 0.929770
vt 0.576089 0.695779
vt 0.576089 0.800314
vt 0.939536 0.695780
vt 0.939535 0.800314
vt 0.506187 0.745556
vt 0.506187 0.988832
vt 0.262911 0.988832
vt 0.262911 0.745556
vt 0.457532 0.502280
vt 0.483687 0.447478
vt 0.506187 0.502280
vt 0.285410 0.377213
vt 0.262911 0.259005
vt 0.506187 0.259004
vt 0.483687 0.377213
vt 0.262911 0.502280
vt 0.019635 0.502280
vt 0.019635 0.259005
vt 0.749463 0.259004
vt 0.749463 0.502280
vt 0.947791 0.083081
vt 0.947791 0.176059
vt 0.900498 0.176059
vt 0.900498 0.083081
vt 0.285410 0.447478
vt 0.262911 0.015729
vt 0.506187 0.015729
vt 0.311566 0.502280
vt 0.638131 0.176059
vt 0.638131 0.083081
vt 0.900498 0.223351
vt 0.638131 0.223351
vt 0.590838 0.176059
vt 0.590838 0.083081
vt 0.638131 0.035789
vt 0.900498 0.035789
vt 0.705545 0.566324
vt 0.705545 0.695779
vt 0.810080 0.695779
vt 0.810080 0.566324
vt 0.705545 0.800314
vt 0.810080 0.800314
vt 0.705545 0.929770
vt 0.810080 0.929770
vt 0.576089 0.695779
vt 0.576089 0.800314
vt 0.939535 0.800314
vt 0.939536 0.695780
vt 0.947791 0.083081
vt 0.900498 0.083081
vt 0.900498 0.176059
vt 0.947791 0.176059
vt 0.638131 0.083081
vt 0.638131 0.176059
vt 0.900498 0.223351
vt 0.638131 0.223351
vt 0.590838 0.176059
vt 0.590838 0.083081
vt 0.638131 0.035789
vt 0.900498 0.035789
vn 0.0000 0.0000 -1.0000
vn 1.0000 0.0000 0.0000
vn 0.0000 0.0000 1.0000
vn 0.0000 -1.0000 0.0000
vn 0.0000 1.0000 0.0000
vn -1.0000 0.0000 0.0000
usemtl None
s off
f 3/1/1 4/2/1 8/3/1 7/4/1
f 7/4/2 8/3/2 6/5/2 5/6/2
f 5/6/3 6/5/3 2/7/3 1/8/3
f 3/9/4 7/4/4 5/6/4 1/10/4
f 8/3/5 4/11/5 2/12/5 6/5/5
f 12/13/6 11/14/6 9/15/6 10/16/6
f 17/17/2 19/18/2 16/19/2
f 22/20/2 13/21/2 15/22/2 21/23/2
f 16/19/5 12/13/5 17/17/5
f 16/19/2 19/18/2 21/23/2 15/22/2
f 13/21/3 14/24/3 10/25/3 9/26/3
f 11/27/1 12/28/1 16/19/1 15/22/1
f 21/29/3 19/30/3 23/31/3 25/32/3
f 14/24/2 13/21/2 22/20/2 20/33/2
f 15/22/4 13/21/4 9/34/4 11/35/4
f 10/16/5 18/36/5 17/17/5 12/13/5
f 19/18/2 17/17/2 18/36/2 20/33/2
f 10/16/5 14/24/5 18/36/5
f 18/36/2 14/24/2 20/33/2
f 25/32/2 23/31/2 24/37/2 26/38/2
f 19/39/4 20/40/4 24/37/4 23/31/4
f 20/41/1 22/42/1 26/38/1 24/37/1
f 22/43/5 21/44/5 25/32/5 26/38/5
f 29/45/3 33/46/3 34/47/3 30/48/3
f 33/46/2 31/49/2 32/50/2 34/47/2
f 31/49/1 27/51/1 28/52/1 32/50/1
f 29/53/4 27/54/4 31/49/4 33/46/4
f 34/47/5 32/50/5 28/55/5 30/56/5
f 22/57/1 37/58/1 35/59/1 20/60/1
f 37/58/2 38/61/2 36/62/2 35/59/2
f 20/63/4 35/59/4 36/62/4 19/64/4
f 19/65/3 36/62/3 38/61/3 21/66/3
f 21/67/5 38/61/5 37/58/5 22/68/5
