# Blender v2.79 (sub 0) OBJ File: ''
# www.blender.org
mtllib 24.mtl
o Cube_Cube.003_Cube_Cube.005
v 1.054098 0.970084 -1.054096
v 1.054097 0.970084 1.054097
v 1.079350 0.944831 1.079350
v 1.079351 0.944831 -1.079350
v -1.103832 0.885729 1.103831
v -1.103831 0.885729 -1.103832
v -1.054097 0.970085 1.054097
v -1.079350 0.944831 1.079350
v 1.018682 0.984754 -1.018680
v 1.018681 0.984754 1.018681
v -1.079350 0.944831 -1.079351
v -1.054096 0.970085 -1.054097
v -1.018681 0.984755 -1.018681
v -1.018681 0.984755 1.018681
v 1.103831 0.885728 1.103832
v 1.103832 0.885728 -1.103831
v -0.969355 0.994565 0.969355
v 0.969355 0.994566 0.969355
v 0.969356 0.994566 -0.969355
v -0.969355 0.994565 -0.969356
v -1.103832 0.183815 1.103831
v -1.103831 0.183815 -1.103832
v 1.103831 0.183815 1.103832
v 1.103832 0.183815 -1.103831
v 1.289646 0.183815 1.877074
v 1.563841 0.183815 1.763499
v 1.763498 0.183815 1.563842
v 1.877073 0.183815 1.289647
v 1.877073 -0.000000 1.289647
v 1.763498 -0.000000 1.563842
v 1.563841 -0.000000 1.763499
v 1.289646 -0.000000 1.877074
v -1.289647 -0.000000 1.877073
v -1.563842 -0.000000 1.763497
v -1.763498 -0.000000 1.563841
v -1.877074 -0.000000 1.289646
v -1.877073 -0.000000 -1.289647
v -1.763497 -0.000000 -1.563842
v -1.563841 -0.000000 -1.763499
v -1.289646 -0.000000 -1.877074
v 1.289648 -0.000000 -1.877073
v 1.563842 -0.000000 -1.763497
v 1.763499 -0.000000 -1.563841
v 1.877074 -0.000000 -1.289646
v -1.877074 0.183815 1.289646
v -1.763498 0.183815 1.563841
v -1.563842 0.183815 1.763497
v -1.289647 0.183815 1.877073
v -1.289646 0.183815 -1.877074
v -1.563841 0.183815 -1.763499
v -1.763497 0.183815 -1.563842
v -1.877073 0.183815 -1.289647
v 1.877074 0.183815 -1.289646
v 1.763499 0.183815 -1.563841
v 1.563842 0.183815 -1.763497
v 1.289648 0.183815 -1.877073
vt 0.964398 0.142042
vt 0.964399 0.390514
vt 0.885399 0.390514
vt 0.885398 0.142042
vt 0.545585 0.390640
vt 0.545587 0.142171
vt 0.624586 0.142172
vt 0.624584 0.390641
vt 0.645944 0.157296
vt 0.645946 0.375389
vt 0.640288 0.380938
vt 0.640286 0.151747
vt 0.864039 0.375387
vt 0.864037 0.157294
vt 0.869694 0.151745
vt 0.869697 0.380936
vt 0.874009 0.384920
vt 0.874007 0.147761
vt 0.878198 0.144797
vt 0.878199 0.387759
vt 0.631786 0.144927
vt 0.631785 0.387885
vt 0.635976 0.384922
vt 0.635975 0.147764
vt 0.065786 0.200769
vt 0.065785 0.491171
vt 0.045090 0.491171
vt 0.045090 0.200769
vt 0.630692 0.056934
vt 0.879163 0.056934
vt 0.879163 0.135934
vt 0.630692 0.135934
vt 0.640397 0.381046
vt 0.869588 0.381044
vt 0.873572 0.385357
vt 0.636414 0.385358
vt 0.640395 0.151638
vt 0.869586 0.151636
vt 0.876407 0.143134
vt 0.633448 0.143135
vt 0.879291 0.396747
vt 0.630821 0.396747
vt 0.633576 0.389547
vt 0.876535 0.389548
vt 0.636411 0.147326
vt 0.873570 0.147324
vt 0.879290 0.475747
vt 0.630821 0.475746
vt 0.453198 0.933545
vt 0.401405 0.859273
vt 0.475677 0.911066
vt 0.045089 0.880194
vt 0.045089 0.589792
vt 0.065785 0.589792
vt 0.065784 0.880194
vt 0.131923 0.946332
vt 0.152844 0.859273
vt 0.422326 0.946332
vt 0.078572 0.911066
vt 0.101051 0.933545
vt 0.101051 0.536439
vt 0.152844 0.610712
vt 0.078572 0.558919
vt 0.488465 0.524584
vt 0.509161 0.524584
vt 0.509161 0.556375
vt 0.488465 0.556375
vt 0.509161 0.167348
vt 0.488465 0.167348
vt 0.488465 0.135558
vt 0.509161 0.135558
vt 0.065785 0.556377
vt 0.045089 0.556377
vt 0.045089 0.524586
vt 0.065785 0.524586
vt 0.065786 0.167354
vt 0.045090 0.167354
vt 0.045090 0.135563
vt 0.065786 0.135563
vt 0.401405 0.610712
vt 0.131923 0.523652
vt 0.422326 0.523652
vt 0.065784 0.589791
vt 0.065784 0.880194
vt 0.509161 0.200764
vt 0.509161 0.491169
vt 0.488465 0.491169
vt 0.488465 0.200764
vt 0.475677 0.558919
vt 0.488465 0.589791
vt 0.509161 0.589791
vt 0.509161 0.880194
vt 0.488465 0.880194
vt 0.453198 0.536440
vt 0.896574 0.933546
vt 0.544427 0.933545
vt 0.521948 0.911066
vt 0.919053 0.911066
vt 0.488465 0.102142
vt 0.509161 0.102142
vt 0.045090 0.102148
vt 0.065786 0.102148
vt 0.931841 0.589791
vt 0.521948 0.558919
vt 0.919053 0.558919
vt 0.544428 0.536440
vt 0.896574 0.536439
vt 0.575299 0.523652
vt 0.865702 0.523652
vt 0.931841 0.880194
vt 0.865702 0.946333
vt 0.575299 0.946333
vn 0.0000 0.0000 -1.0000
vn 0.0000 0.1693 -0.9856
vn -0.0000 0.0000 1.0000
vn -0.0000 0.1693 0.9856
vn 0.0737 0.9945 0.0737
vn -0.0737 0.9945 0.0737
vn 0.0000 0.9419 0.3360
vn 0.1729 0.9696 0.1729
vn -0.0737 0.9945 -0.0737
vn 0.0737 0.9945 -0.0737
vn 0.1729 0.9696 -0.1729
vn 0.0000 0.9419 -0.3360
vn 0.0000 0.7784 -0.6278
vn 0.0000 0.4983 -0.8670
vn -0.0000 0.4983 0.8670
vn 0.0000 0.7784 0.6278
vn 0.1951 0.0000 -0.9808
vn -0.1951 0.0000 -0.9808
vn 1.0000 0.0000 0.0000
vn 0.9856 0.1693 0.0000
vn -0.3360 0.9419 -0.0000
vn -0.6278 0.7784 -0.0000
vn 0.8670 0.4983 0.0000
vn -0.9856 0.1693 -0.0000
vn -0.8670 0.4983 -0.0000
vn 0.6278 0.7784 0.0000
vn -1.0000 0.0000 -0.0000
vn 0.0000 1.0000 -0.0000
vn -0.9808 0.0000 0.1951
vn -0.9808 0.0000 -0.1951
vn 0.5556 0.0000 0.8315
vn 0.8315 0.0000 0.5556
vn -0.5556 0.0000 0.8315
vn -0.8315 0.0000 0.5556
vn -0.8315 0.0000 -0.5556
vn -0.5556 0.0000 -0.8315
vn 0.5556 0.0000 -0.8315
vn 0.8315 0.0000 -0.5556
vn -0.1951 0.0000 0.9808
vn 0.1951 0.0000 0.9808
vn 0.9808 0.0000 0.1951
vn 0.9808 0.0000 -0.1951
vn 0.0000 -1.0000 -0.0000
usemtl Material.012
s 1
f 24/1/1 22/2/1 6/3/2 16/4/2
f 21/5/3 23/6/3 15/7/4 5/8/4
f 18/9/5 17/10/6 14/11/7 10/12/8
f 20/13/9 19/14/10 9/15/11 13/16/12
f 12/17/13 1/18/13 4/19/14 11/20/14
f 5/8/4 15/7/4 3/21/15 8/22/15
f 16/4/2 6/3/2 11/20/14 4/19/14
f 10/12/8 14/11/7 7/23/16 2/24/16
f 13/16/12 9/15/11 1/18/13 12/17/13
f 2/24/16 7/23/16 8/22/15 3/21/15
f 18/9/5 19/14/10 20/13/9 17/10/6
f 41/25/17 40/26/18 49/27/18 56/28/17
f 23/29/19 24/30/19 16/31/20 15/32/20
f 14/33/21 13/34/21 12/35/22 7/36/22
f 19/14/10 18/9/5 10/37/8 9/38/11
f 17/10/6 20/13/9 13/34/21 14/33/21
f 15/32/20 16/31/20 4/39/23 3/40/23
f 6/41/24 5/42/24 8/43/25 11/44/25
f 11/44/25 8/43/25 7/36/22 12/35/22
f 9/38/11 10/37/8 2/45/26 1/46/26
f 1/46/26 2/45/26 3/40/23 4/39/23
f 5/42/24 6/41/24 22/47/27 21/48/27
f 55/49/28 24/50/28 54/51/28
f 45/52/29 52/53/30 37/54/30 36/55/29
f 49/56/28 22/57/28 24/50/28 56/58/28
f 51/59/28 22/57/28 50/60/28
f 47/61/28 21/62/28 46/63/28
f 26/64/31 31/65/31 30/66/32 27/67/32
f 34/68/33 47/69/33 46/70/34 35/71/34
f 38/72/35 51/73/35 50/74/36 39/75/36
f 42/76/37 55/77/37 54/78/38 43/79/38
f 23/80/28 21/62/28 48/81/28 25/82/28
f 45/83/28 21/62/28 22/57/28 52/84/28
f 33/85/39 32/86/40 25/87/40 48/88/39
f 27/89/28 28/90/28 23/80/28
f 29/91/41 44/92/42 53/93/42 28/90/41
f 46/63/28 21/62/28 45/83/28
f 25/82/28 26/94/28 23/80/28
f 39/95/43 42/96/43 43/97/43 38/98/43
f 26/94/28 27/89/28 23/80/28
f 50/60/28 22/57/28 49/56/28
f 52/84/28 22/57/28 51/59/28
f 54/51/28 24/50/28 53/93/28
f 56/58/28 24/50/28 55/49/28
f 25/87/40 32/86/40 31/65/31 26/64/31
f 29/91/41 28/90/41 27/67/32 30/66/32
f 33/85/39 48/88/39 47/69/33 34/68/33
f 45/99/29 36/100/29 35/71/34 46/70/34
f 37/54/30 52/53/30 51/73/35 38/72/35
f 49/27/18 40/26/18 39/75/36 50/74/36
f 41/25/17 56/28/17 55/77/37 42/76/37
f 53/101/42 44/102/42 43/79/38 54/78/38
f 53/93/28 24/50/28 23/80/28 28/90/28
f 48/81/28 21/62/28 47/61/28
f 36/103/43 29/91/43 30/104/43 35/105/43
f 35/105/43 30/104/43 31/106/43 34/107/43
f 34/107/43 31/106/43 32/108/43 33/109/43
f 37/110/43 44/92/43 29/91/43 36/103/43
f 38/98/43 43/97/43 44/92/43 37/110/43
f 42/96/43 39/95/43 40/111/43 41/112/43
