# Blender v2.79 (sub 0) OBJ File: 'afro.blend'
# www.blender.org
mtllib hat_6.mtl
o Cube.000
v -0.666896 1.444272 0.666896
v -0.666896 1.444272 -0.666896
v 0.666896 0.373981 0.666896
v 0.666896 1.444272 0.666896
v 0.666896 0.373981 -0.666896
v 0.666896 1.444272 -0.666896
v 0.399853 0.373981 -0.666896
v 0.399853 0.373981 0.666896
v -0.666896 0.000001 -0.666896
v -0.666896 0.000001 0.666896
v 0.399853 0.000001 -0.666896
v 0.399853 0.000001 0.666896
vt 0.728870 0.597094
vt 0.775030 0.412089
vt 0.959422 0.347445
vt 0.959422 0.597094
vt 0.728870 0.412089
vt 0.498319 0.597094
vt 0.498319 0.412089
vt 0.728870 0.365930
vt 0.498319 0.365930
vt 0.037215 0.597094
vt 0.037215 0.347445
vt 0.267767 0.347445
vt 0.267767 0.597094
vt 0.498319 0.301286
vt 0.728870 0.301286
vt 0.775030 0.347445
vt 0.452159 0.347445
vt 0.452159 0.412089
vt 0.037215 0.163053
vt 0.267767 0.163053
vt 0.728871 0.827646
vt 0.498319 0.827646
vn 0.0000 0.0000 -1.0000
vn 1.0000 0.0000 0.0000
vn 0.0000 -1.0000 0.0000
vn -1.0000 0.0000 0.0000
vn 0.0000 0.0000 1.0000
vn 0.0000 1.0000 0.0000
usemtl None
s off
f 6/1/1 7/2/1 9/3/1 2/4/1
f 5/5/2 6/1/2 4/6/2 3/7/2
f 7/8/3 5/5/3 3/7/3 8/9/3
f 2/10/4 9/11/4 10/12/4 1/13/4
f 7/8/2 8/9/2 12/14/2 11/15/2
f 7/2/1 11/16/1 9/3/1
f 10/12/5 12/17/5 8/18/5
f 9/11/3 11/19/3 12/20/3 10/12/3
f 6/1/1 5/5/1 7/2/1
f 1/13/5 10/12/5 8/18/5 4/6/5
f 8/18/5 3/7/5 4/6/5
f 6/1/6 2/21/6 1/22/6 4/6/6
