# Blender v2.79 (sub 0) OBJ File: '26_Drinker.blend'
# www.blender.org
mtllib hat_26.mtl
o Cube.004
v -0.051995 -0.407234 0.712843
v -0.051995 0.735088 0.712843
v -0.051995 -0.407234 0.608854
v 0.051995 -0.407234 0.712843
v 0.051995 0.735088 0.712843
v 0.051995 -0.407234 0.608854
v -0.051995 0.633994 0.608854
v 0.051995 0.633994 0.608854
v -0.051995 -0.407234 -0.712843
v -0.051995 0.735088 -0.712843
v -0.051995 -0.407234 -0.608854
v 0.051995 -0.407234 -0.712843
v 0.051995 0.735088 -0.712843
v 0.051995 -0.407234 -0.608854
v -0.051995 0.633994 -0.608854
v 0.051995 0.633994 -0.608854
v -0.134454 -0.102998 0.795302
v -0.134454 0.445314 0.795302
v -0.134454 -0.102998 0.526395
v -0.134454 0.445314 0.526395
v 0.134454 -0.102998 0.795302
v 0.134454 0.445314 0.795302
v 0.134454 -0.102998 0.526395
v 0.134454 0.445314 0.526395
v -0.134454 -0.102998 -0.795302
v -0.134454 0.445314 -0.795302
v -0.134454 -0.102998 -0.526395
v -0.134454 0.445314 -0.526395
v 0.134454 -0.102998 -0.795302
v 0.134454 0.445314 -0.795302
v 0.134454 -0.102998 -0.526395
v 0.134454 0.445314 -0.526395
v -0.546218 0.000002 0.546219
v -0.546218 0.253098 0.546219
v -0.546218 0.000002 -0.546219
v -0.546218 0.253098 -0.546219
v 0.546218 0.000001 0.546219
v 0.546218 0.253098 0.546219
v 0.546218 0.000001 -0.546219
v 0.546218 0.253098 -0.546219
v 0.327731 0.253098 0.327731
v -0.327731 0.253098 0.327731
v 0.327731 0.253098 -0.327731
v -0.327731 0.253098 -0.327731
v 0.327731 0.000001 -0.327731
v -0.327731 0.000002 -0.327731
v 0.327731 0.000001 0.327731
v -0.327731 0.000002 0.327731
vt 0.068360 0.961353
vt 0.068360 0.936859
vt 0.092854 0.936859
vt 0.092854 0.961353
vt 0.043866 0.936859
vt 0.043866 0.691607
vt 0.068360 0.667795
vt 0.092854 0.062919
vt 0.117348 0.062919
vt 0.117348 0.308175
vt 0.092854 0.331987
vt 0.019372 0.936859
vt 0.019372 0.691607
vt 0.068359 0.331987
vt 0.044548 0.643301
vt 0.044547 0.356481
vt 0.020054 0.643301
vt 0.020053 0.356481
vt 0.092854 0.667795
vt 0.068359 0.062919
vt 0.043865 0.308175
vt 0.043865 0.062919
vt 0.068359 0.038425
vt 0.092854 0.038425
vt 0.117348 0.691607
vt 0.117348 0.936859
vt 0.019371 0.062919
vt 0.019371 0.308175
vt 0.116666 0.643301
vt 0.116666 0.356481
vt 0.236112 0.431084
vt 0.444286 0.431084
vt 0.444286 0.533178
vt 0.236112 0.533178
vt 0.444286 0.635272
vt 0.236112 0.635272
vt 0.444286 0.839461
vt 0.236112 0.839461
vt 0.236112 0.737367
vt 0.444286 0.737367
vt 0.546380 0.635272
vt 0.546380 0.737367
vt 0.134018 0.737367
vt 0.134018 0.635272
vt 0.776028 0.560419
vt 0.776028 0.662514
vt 0.567854 0.662514
vt 0.567854 0.560419
vt 0.567854 0.764608
vt 0.776028 0.764608
vt 0.567854 0.968797
vt 0.567854 0.866703
vt 0.776028 0.866702
vt 0.776028 0.968797
vt 0.465760 0.866703
vt 0.465760 0.764608
vt 0.878122 0.764608
vt 0.878122 0.866702
vt 0.553064 0.165070
vt 0.495091 0.107096
vt 0.784959 0.107096
vt 0.726985 0.165070
vt 0.852116 0.107096
vt 0.852116 0.396964
vt 0.784959 0.396964
vt 0.553064 0.338991
vt 0.495091 0.396964
vt 0.138066 0.107096
vt 0.196039 0.165070
vt 0.196039 0.338991
vt 0.138066 0.396964
vt 0.975543 0.243347
vt 0.897375 0.243347
vt 0.897375 0.040911
vt 0.975543 0.040911
vt 0.369960 0.165070
vt 0.427934 0.107096
vt 0.427934 0.396964
vt 0.369960 0.338991
vt 0.495091 0.039939
vt 0.784959 0.039939
vt 0.726985 0.338991
vt 0.784959 0.464121
vt 0.495091 0.464121
vt 0.897375 0.648220
vt 0.975543 0.648220
vt 0.975543 0.850657
vt 0.897375 0.850657
vt 0.897375 0.445784
vt 0.975543 0.445784
vn 0.0000 -1.0000 0.0000
vn 1.0000 0.0000 0.0000
vn -1.0000 0.0000 0.0000
vn 0.0000 0.0000 -1.0000
vn 0.0000 0.0000 1.0000
vn 0.0000 1.0000 0.0000
usemtl None
s off
f 6/1/1 4/2/1 1/3/1 3/4/1
f 4/2/2 6/5/2 8/6/2 5/7/2
f 9/8/3 11/9/3 15/10/3 10/11/3
f 3/12/4 7/13/4 8/6/4 6/5/4
f 13/14/2 5/7/2 8/15/2 16/16/2
f 8/15/1 7/17/1 15/18/1 16/16/1
f 4/2/5 5/7/5 2/19/5 1/3/5
f 12/20/2 13/14/2 16/21/2 14/22/2
f 14/23/1 11/24/1 9/8/1 12/20/1
f 1/3/3 2/19/3 7/25/3 3/26/3
f 10/11/6 2/19/6 5/7/6 13/14/6
f 11/27/5 14/22/5 16/21/5 15/28/5
f 7/29/3 2/19/3 10/11/3 15/30/3
f 12/20/4 9/8/4 10/11/4 13/14/4
f 20/31/3 19/32/3 17/33/3 18/34/3
f 21/35/5 22/36/5 18/34/5 17/33/5
f 19/37/4 20/38/4 24/39/4 23/40/4
f 23/40/1 21/35/1 17/41/1 19/42/1
f 22/36/2 21/35/2 23/40/2 24/39/2
f 22/36/6 24/39/6 20/43/6 18/44/6
f 28/45/3 26/46/3 25/47/3 27/48/3
f 29/49/4 25/47/4 26/46/4 30/50/4
f 27/51/5 31/52/5 32/53/5 28/54/5
f 31/52/1 27/55/1 25/56/1 29/49/1
f 30/50/2 32/53/2 31/52/2 29/49/2
f 30/50/6 26/57/6 28/58/6 32/53/6
f 43/59/6 40/60/6 36/61/6 44/62/6
f 36/61/3 35/63/3 33/64/3 34/65/3
f 43/59/6 41/66/6 38/67/6 40/60/6
f 35/68/1 46/69/1 48/70/1 33/71/1
f 46/72/2 44/73/2 42/74/2 48/75/2
f 45/76/1 39/77/1 37/78/1 47/79/1
f 48/70/1 47/79/1 37/78/1 33/71/1
f 39/80/4 35/81/4 36/61/4 40/60/4
f 34/65/6 38/67/6 41/66/6 42/82/6
f 35/68/1 39/77/1 45/76/1 46/69/1
f 38/67/5 34/65/5 33/83/5 37/84/5
f 36/61/6 34/65/6 42/82/6 44/62/6
f 37/78/2 39/77/2 40/60/2 38/67/2
f 41/85/4 47/86/4 48/87/4 42/88/4
f 41/85/3 43/89/3 45/90/3 47/86/3
f 43/89/5 44/73/5 46/72/5 45/90/5
