# Blender v2.79 (sub 0) OBJ File: 'hat_198.blend'
# www.blender.org
mtllib hat_198.mtl
o Plane
v 0.000000 -0.705066 3.049956
v 0.000000 -0.705066 1.075771
v 0.000000 0.705065 3.049956
v 0.000000 0.705065 1.075772
v -0.000000 -0.705065 -3.049956
v -0.000000 -0.705065 -1.075772
v -0.000000 0.705066 -3.049956
v -0.000000 0.705066 -1.075771
vt 0.157821 0.009778
vt 0.830444 0.009778
vt 0.830444 0.490222
vt 0.157822 0.490222
vt 0.830444 0.509778
vt 0.830444 0.990222
vt 0.157821 0.990222
vt 0.157822 0.509778
vn 1.0000 0.0000 -0.0000
usemtl None
s off
f 1/1/1 2/2/1 4/3/1 3/4/1
f 5/5/1 7/6/1 8/7/1 6/8/1
