# Blender v2.91.2 OBJ File: ''
# www.blender.org
mtllib hat_245.mtl
o Cube.004_Cube.004
v -0.253759 -1.102630 0.987745
v -0.253759 -0.100364 0.987746
v -0.022901 -0.100364 0.987746
v -0.022901 -1.102630 0.987745
v -0.022901 -0.100364 1.094704
v -0.022901 -1.102630 1.094704
v -0.253759 -0.100364 1.094704
v -0.253759 -1.102630 1.094704
v -0.253759 -1.102630 -0.987746
v -0.022901 -1.102630 -0.987746
v -0.022901 -0.100363 -0.987746
v -0.253759 -0.100363 -0.987746
v -0.022901 -1.102630 -1.094704
v -0.022901 -0.100363 -1.094704
v -0.253759 -1.102630 -1.094704
v -0.253759 -0.100363 -1.094704
v 1.115820 0.510950 -1.115820
v 1.115820 1.115820 -1.115820
v 1.115820 1.115820 1.115820
v 1.115820 0.510950 1.115820
v -1.115820 1.115820 -1.115820
v -1.115820 1.115820 1.115820
v 0.000000 0.510950 -1.115820
v 0.000000 0.510950 1.115820
v -1.115820 -0.113271 -1.115820
v 0.000000 -0.113271 -1.115820
v 0.000000 -0.113271 -0.915820
v -0.915820 -0.113271 -0.915820
v -1.115820 -0.113271 1.115820
v 0.000000 -0.113271 1.115820
v -0.915820 -0.113271 0.915820
v 0.000000 -0.113271 0.915820
v 0.000000 0.510950 0.915820
v 0.915820 0.510950 0.915820
v -0.915820 1.022741 -0.915820
v -0.915820 1.022741 0.915820
v 0.915820 0.510950 -0.915820
v 0.915820 1.022741 0.915820
v 0.915820 1.022741 -0.915820
v 0.000000 0.510950 -0.915820
v 1.028430 1.808191 -1.308007
v 1.028430 4.424208 -1.308005
v 1.849555 4.416102 -1.299900
v 1.849555 1.816298 -1.299902
v 1.849555 4.416102 1.299906
v 1.849555 4.151657 1.035461
v 1.849555 4.151657 -1.035456
v 1.028430 1.808191 1.308009
v 1.028430 4.424208 1.308011
v -1.248758 4.156308 1.040111
v -1.248758 2.076091 1.040110
v -1.248758 4.156308 -1.040105
v -1.248758 2.076093 -1.040107
v 0.353281 4.026648 0.910449
v 0.353281 4.026648 -0.910446
v 1.849555 2.080741 -1.035457
v 1.849555 1.816296 1.299902
v 1.849555 2.080740 1.035460
v 0.353281 3.454416 0.338220
v 0.353281 3.454416 -0.338214
v 0.353281 2.205753 -0.910447
v 0.353281 2.205752 0.910448
v 0.353281 2.777982 0.338218
v 1.647909 2.672831 0.443370
v 1.647909 3.559570 0.443371
v 0.353281 2.777982 -0.338215
v 1.647909 2.672831 -0.443369
v 1.647909 3.559570 -0.443368
v -0.402315 1.115821 -0.402315
v -0.402315 2.089438 -0.402314
v 0.402315 2.089438 -0.402314
v 0.402315 1.115821 -0.402315
v 0.402315 2.089438 0.402315
v 0.402315 1.115821 0.402315
v -0.402315 2.089438 0.402315
v -0.402315 1.115821 0.402315
vt 0.185701 0.070681
vt 0.185701 0.209011
vt 0.159484 0.209011
vt 0.159484 0.070681
vt 0.147337 0.209011
vt 0.147337 0.070681
vt 0.121119 0.209011
vt 0.121120 0.070681
vt 0.108973 0.209011
vt 0.108973 0.070681
vt 0.147337 0.058535
vt 0.121120 0.058535
vt 0.257730 0.072798
vt 0.283947 0.072798
vt 0.283947 0.211127
vt 0.257730 0.211127
vt 0.296094 0.072798
vt 0.296094 0.211127
vt 0.322311 0.072798
vt 0.322311 0.211127
vt 0.334458 0.072798
vt 0.334458 0.211127
vt 0.296094 0.060651
vt 0.322311 0.060651
vt 0.490374 0.530025
vt 0.421681 0.530025
vt 0.421682 0.276588
vt 0.490374 0.276588
vt 0.168245 0.530025
vt 0.168245 0.276588
vt 0.421681 0.783462
vt 0.490374 0.656744
vt 0.421682 0.023152
vt 0.490374 0.149870
vt 0.056324 0.732640
vt 0.176280 0.732640
vt 0.176280 0.754141
vt 0.077825 0.754141
vt 0.561264 0.656744
vt 0.561264 0.783462
vt 0.028662 0.530025
vt 0.028663 0.276588
vt 0.176280 0.972551
vt 0.056325 0.972551
vt 0.077826 0.951050
vt 0.176280 0.951050
vt 0.363343 0.972551
vt 0.243387 0.972551
vt 0.243387 0.951050
vt 0.341842 0.951050
vt 0.561264 0.023152
vt 0.561264 0.149870
vt 0.851235 0.624878
vt 0.639282 0.624878
vt 0.639282 0.493421
vt 0.851235 0.493421
vt 0.639282 0.222246
vt 0.851235 0.222246
vt 0.851235 0.281469
vt 0.639282 0.281469
vt 0.243387 0.732640
vt 0.243387 0.754141
vt 0.363343 0.732640
vt 0.341842 0.754140
vt 0.910458 0.387445
vt 0.580059 0.387445
vt 0.507825 0.493421
vt 0.507825 0.387445
vt 0.982691 0.493421
vt 0.982691 0.387445
vt 0.910458 0.281469
vt 0.580059 0.281469
vt 0.568103 0.930950
vt 0.703227 0.930950
vt 0.703227 0.972472
vt 0.568103 0.972472
vt 0.748254 0.182435
vt 0.616749 0.182435
vt 0.630126 0.169059
vt 0.734878 0.169059
vt 0.962237 0.930950
vt 0.837313 0.930950
vt 0.837313 0.814864
vt 0.962237 0.814864
vt 0.837313 0.707798
vt 0.703227 0.814864
vt 0.703227 0.707798
vt 0.443178 0.930950
vt 0.443178 0.814864
vt 0.568103 0.814864
vt 0.307496 0.593191
vt 0.402885 0.593191
vt 0.402885 0.667318
vt 0.307496 0.667318
vt 0.748254 0.050930
vt 0.734878 0.064306
vt 0.616749 0.050930
vt 0.630126 0.064306
vt 0.882172 0.532621
vt 0.974278 0.532621
vt 0.945333 0.561566
vt 0.911117 0.561566
vt 0.209407 0.593191
vt 0.209407 0.667318
vt 0.015929 0.593191
vt 0.111317 0.593191
vt 0.111317 0.667318
vt 0.015929 0.667318
vt 0.802684 0.071450
vt 0.802684 0.034881
vt 0.866894 0.034881
vt 0.866894 0.071450
vt 0.882172 0.624727
vt 0.911117 0.595782
vt 0.974278 0.624727
vt 0.945333 0.595782
vt 0.916983 0.110856
vt 0.866894 0.110856
vt 0.916983 0.071450
vt 0.802684 0.190451
vt 0.802684 0.152072
vt 0.866894 0.152072
vt 0.866894 0.190451
vt 0.802684 0.110856
vt 0.837313 0.972472
vt 0.443178 0.972472
vt 0.962237 0.972472
vt 0.982943 0.295692
vt 0.933695 0.295692
vt 0.933695 0.254992
vt 0.982943 0.254992
vt 0.933695 0.214292
vt 0.982943 0.214292
vt 0.933695 0.173592
vt 0.982943 0.173592
vt 0.933695 0.132892
vt 0.982943 0.132892
vn 0.0000 0.0000 -1.0000
vn 1.0000 -0.0000 0.0000
vn 0.0000 -0.0000 1.0000
vn -1.0000 -0.0000 0.0000
vn 0.0000 -1.0000 0.0000
vn 0.0000 1.0000 0.0000
vn 0.0099 0.0000 -1.0000
vn -0.1168 -0.0000 0.9932
vn -0.1168 -0.9932 -0.0000
vn -0.1168 0.9932 0.0000
vn 0.0833 -0.9965 0.0000
vn 0.0833 -0.0000 0.9965
vn 0.0833 0.0000 -0.9965
vn 0.0833 0.9965 0.0000
vn -0.0810 -0.0000 0.9967
vn -0.0810 -0.9967 0.0000
vn -0.0810 0.9967 0.0000
vn -0.0810 0.0000 -0.9967
vn 0.0099 1.0000 0.0000
vn 0.0099 -1.0000 -0.0000
vn 0.0099 -0.0000 1.0000
vn -0.1168 0.0000 -0.9932
usemtl None.001
s 1
f 1/1/1 2/2/1 3/3/1 4/4/1
f 4/4/2 3/3/2 5/5/2 6/6/2
f 6/6/3 5/5/3 7/7/3 8/8/3
f 8/8/4 7/7/4 2/9/4 1/10/4
f 4/11/5 6/6/5 8/8/5 1/12/5
f 9/13/3 10/14/3 11/15/3 12/16/3
f 10/14/2 13/17/2 14/18/2 11/15/2
f 13/17/1 15/19/1 16/20/1 14/18/1
f 15/19/4 9/21/4 12/22/4 16/20/4
f 10/23/5 9/24/5 15/19/5 13/17/5
f 17/25/2 18/26/2 19/27/2 20/28/2
f 19/27/6 18/26/6 21/29/6 22/30/6
f 21/31/1 18/26/1 17/25/1 23/32/1
f 22/33/3 24/34/3 20/28/3 19/27/3
f 25/35/5 26/36/5 27/37/5 28/38/5
f 23/32/1 26/39/1 25/40/1 21/31/1
f 21/29/4 25/41/4 29/42/4 22/30/4
f 30/43/5 29/44/5 31/45/5 32/46/5
f 20/47/5 24/48/5 33/49/5 34/50/5
f 24/34/3 22/33/3 29/51/3 30/52/3
f 31/53/2 28/54/2 35/55/2 36/56/2
f 37/57/4 34/58/4 38/59/4 39/60/4
f 26/36/2 23/61/2 40/62/2 27/37/2
f 23/61/5 17/63/5 37/64/5 40/62/5
f 24/48/2 30/43/2 32/46/2 33/49/2
f 29/44/5 25/35/5 28/38/5 31/45/5
f 17/63/5 20/47/5 34/50/5 37/64/5
f 36/56/1 38/59/1 33/65/1
f 38/59/5 36/56/5 35/55/5 39/60/5
f 35/55/3 40/66/3 39/60/3
f 28/67/3 27/68/3 40/66/3 35/55/3
f 31/69/1 36/56/1 33/65/1 32/70/1
f 33/65/1 38/59/1 34/71/1
f 39/60/3 40/66/3 37/72/3
f 41/73/7 42/74/7 43/75/7 44/76/7
f 43/77/2 45/78/2 46/79/2 47/80/2
f 48/81/8 49/82/8 50/83/8 51/84/8
f 51/85/4 50/83/4 52/86/4 53/87/4
f 41/73/9 48/88/9 51/89/9 53/90/9
f 49/82/10 42/74/10 52/86/10 50/83/10
f 47/91/11 46/92/11 54/93/11 55/94/11
f 44/95/2 43/77/2 47/80/2 56/96/2
f 45/78/2 57/97/2 58/98/2 46/79/2
f 57/97/2 44/95/2 56/96/2 58/98/2
f 55/99/2 54/100/2 59/101/2 60/102/2
f 56/103/12 47/91/12 55/94/12 61/104/12
f 46/105/13 58/106/13 62/107/13 54/108/13
f 58/106/14 56/103/14 61/104/14 62/107/14
f 59/109/15 63/110/15 64/111/15 65/112/15
f 61/113/2 55/99/2 60/102/2 66/114/2
f 54/100/2 62/115/2 63/116/2 59/101/2
f 62/115/2 61/113/2 66/114/2 63/116/2
f 67/117/2 68/118/2 65/112/2 64/119/2
f 63/120/16 66/121/16 67/122/16 64/123/16
f 60/124/17 59/109/17 65/112/17 68/118/17
f 66/121/18 60/124/18 68/118/18 67/122/18
f 45/125/19 43/75/19 42/74/19 49/82/19
f 44/76/20 57/126/20 48/88/20 41/73/20
f 57/127/21 45/125/21 49/82/21 48/81/21
f 53/90/22 52/86/22 42/74/22 41/73/22
f 69/128/1 70/129/1 71/130/1 72/131/1
f 72/131/2 71/130/2 73/132/2 74/133/2
f 74/133/3 73/132/3 75/134/3 76/135/3
f 76/135/4 75/134/4 70/136/4 69/137/4
