# Blender v3.0.0 OBJ File: ''
# www.blender.org
mtllib hat_258.mtl
o hat_203.002
v 1.076853 -1.028871 1.076852
v 1.076853 0.672197 1.076853
v -1.076852 0.672197 1.076853
v -1.076853 -1.028871 1.076852
v -1.076853 0.672198 -1.076852
v -1.076853 -1.028869 -1.076853
v 1.076853 0.672198 -1.076852
v 1.076852 -1.028870 -1.076853
v 1.160460 -0.118912 0.761694
v 1.160460 0.314441 0.761694
v 1.050167 0.314441 0.761694
v 1.050167 -0.118912 0.761694
v 1.050167 -0.118912 0.328340
v 1.050167 0.314441 0.328340
v 1.160460 0.314441 0.328340
v 1.160460 -0.118912 0.328340
v 1.160460 -0.118911 -0.761694
v 1.050167 -0.118911 -0.761694
v 1.050167 0.314442 -0.761694
v 1.160460 0.314442 -0.761694
v 1.050167 -0.118911 -0.328341
v 1.160460 -0.118911 -0.328341
v 1.160460 0.314442 -0.328340
v 1.050167 0.314442 -0.328340
v 1.058282 -0.233708 0.150254
v 1.058282 -0.528140 0.150254
v 2.734299 -0.380923 0.003037
v 1.058282 -0.528140 -0.144179
v 1.058282 -0.233707 -0.144179
v -1.106905 1.166111 0.934472
v 0.242935 1.919271 0.764767
v -0.595144 2.276808 0.543446
v -1.438052 1.658368 0.447351
v -1.438052 1.658370 -0.447349
v -1.106905 1.166113 -0.934470
v 1.248706 0.785844 1.239199
v -1.229690 0.785844 1.239199
v -1.229690 0.373496 1.239199
v 1.248706 0.373495 1.239199
v -1.370929 2.394339 0.252907
v -1.370929 2.394339 -0.252904
v -2.085172 1.747805 -0.076299
v -2.085172 1.747805 0.076301
v -1.229690 0.785848 -1.239197
v -1.139683 0.785844 1.149193
v -1.139683 0.785848 -1.149191
v -0.595144 2.276808 -0.543443
v -1.539943 1.708573 -0.388871
v 1.248706 0.785847 -1.239197
v 1.248706 0.373496 -1.239197
v -1.229690 0.373497 -1.239197
v 1.158700 0.785846 -1.149191
v 1.158700 0.923549 -1.149191
v 1.158700 0.923548 1.149193
v 1.158700 0.785844 1.149193
v -1.989882 1.640137 0.076301
v -1.539943 1.708573 0.388874
v 0.242935 1.919272 -0.764765
v -1.989882 1.640137 -0.076299
v -2.243332 1.216067 -0.238447
v -2.243332 1.216067 0.238449
v -2.552052 1.579553 0.238449
v -2.552052 1.579553 -0.238447
v -1.879845 1.524788 -0.238447
v -2.188566 1.888274 -0.238447
v -1.879846 1.524788 0.238449
v -2.188566 1.888274 0.238449
vt 0.183986 0.250392
vt 0.021303 0.250392
vt 0.021303 0.044421
vt 0.183986 0.044421
vt 0.183986 0.868306
vt 0.021303 0.868305
vt 0.021303 0.662334
vt 0.183986 0.662334
vt 0.021303 0.456363
vt 0.183986 0.456363
vt 0.389957 0.250392
vt 0.389957 0.456363
vt 0.279337 0.518330
vt 0.237893 0.518330
vt 0.237893 0.507782
vt 0.279337 0.507782
vt 0.279337 0.570322
vt 0.237893 0.570322
vt 0.237893 0.559774
vt 0.279337 0.559774
vt 0.289885 0.518330
vt 0.289885 0.559774
vt 0.227345 0.559774
vt 0.227345 0.518330
vt 0.381155 0.559774
vt 0.381155 0.570322
vt 0.339711 0.570322
vt 0.339711 0.559774
vt 0.381155 0.507782
vt 0.381155 0.518330
vt 0.339711 0.518330
vt 0.339711 0.507782
vt 0.391703 0.559774
vt 0.391703 0.518330
vt 0.329163 0.518330
vt 0.329163 0.559774
vt 0.948117 0.382394
vt 0.950572 0.410445
vt 0.789052 0.410445
vt 0.949098 0.313342
vt 0.949097 0.341500
vt 0.788193 0.327419
vt 0.948117 0.449723
vt 0.950572 0.477774
vt 0.789052 0.477774
vt 0.951666 0.227109
vt 0.954328 0.255142
vt 0.792813 0.256339
vt 0.822883 0.738982
vt 0.894636 0.608721
vt 0.934956 0.688818
vt 0.885999 0.776476
vt 0.733384 0.208300
vt 0.676646 0.254886
vt 0.676646 0.076148
vt 0.733384 0.122735
vt 0.495351 0.947019
vt 0.258327 0.947019
vt 0.258327 0.907584
vt 0.495351 0.907584
vt 0.296141 0.143284
vt 0.296141 0.191657
vt 0.204005 0.174767
vt 0.204005 0.160173
vt 0.429236 0.540528
vt 0.429236 0.303507
vt 0.437844 0.312115
vt 0.437844 0.531920
vt 0.651905 0.699100
vt 0.565933 0.750962
vt 0.555584 0.744468
vt 0.574619 0.678368
vt 0.732374 0.947019
vt 0.732374 0.907584
vt 0.969397 0.907584
vt 0.969397 0.947019
vt 0.600866 0.277374
vt 0.587696 0.277374
vt 0.587696 0.057566
vt 0.600866 0.057566
vt 0.021303 0.947019
vt 0.021303 0.907584
vt 0.666261 0.303506
vt 0.657653 0.312114
vt 0.657653 0.531920
vt 0.666261 0.540529
vt 0.818816 0.856008
vt 0.599009 0.856668
vt 0.602018 0.814895
vt 0.819103 0.842842
vt 0.371180 0.115498
vt 0.371180 0.219443
vt 0.898602 0.839103
vt 0.892810 0.786620
vt 0.958234 0.765376
vt 0.910510 0.845978
vt 0.458320 0.240609
vt 0.458320 0.094331
vt 0.502935 0.740443
vt 0.495664 0.728772
vt 0.778362 0.522859
vt 0.791522 0.522364
vt 0.781162 0.742649
vt 0.731134 0.741100
vt 0.226111 0.846127
vt 0.226111 0.609104
vt 0.463134 0.609104
vt 0.463134 0.846127
vt 0.640144 0.275421
vt 0.640144 0.055613
vt 0.744247 0.128327
vt 0.744247 0.202707
vt 0.787772 0.172814
vt 0.787772 0.158220
vt 0.919806 0.162920
vt 0.874198 0.162920
vt 0.874198 0.117311
vt 0.919806 0.117312
vt 0.965414 0.071703
vt 0.965414 0.117312
vt 0.919806 0.071703
vt 0.874198 0.026095
vt 0.919806 0.026095
vt 0.874198 0.071703
vt 0.828589 0.117312
vt 0.828589 0.071703
vt 0.782981 0.117312
vt 0.782981 0.071703
vn 0.0000 -0.0000 1.0000
vn -1.0000 0.0000 0.0000
vn 0.0000 0.0000 -1.0000
vn 1.0000 -0.0000 -0.0000
vn -0.0000 -1.0000 -0.0000
vn 0.0000 1.0000 0.0000
vn 0.0875 -0.0000 0.9962
vn 0.0875 -0.9962 0.0000
vn 0.0875 0.9962 0.0000
vn 0.0875 0.0000 -0.9962
vn -0.2307 0.4160 0.8796
vn -0.8297 -0.5582 -0.0000
vn -0.6711 0.7414 0.0000
vn -0.3110 0.2692 -0.9115
vn -0.0230 0.3841 -0.9230
vn 0.1498 0.9887 0.0000
vn -0.4778 0.1913 0.8574
vn -0.3110 0.2692 0.9115
vn -0.3108 0.2692 0.9116
vn 0.3924 0.9198 0.0000
vn -0.4778 0.1913 -0.8574
vn -0.0230 0.3841 0.9230
vn 0.7360 0.6769 0.0000
vn -0.2307 0.4160 -0.8796
vn -0.0562 0.3142 0.9477
vn -0.0562 0.3142 -0.9477
vn -0.9963 0.0859 0.0000
vn -0.4420 -0.8970 -0.0000
vn 0.1504 -0.9886 -0.0000
vn -0.7622 -0.6474 0.0000
vn 0.7622 0.6474 0.0000
vn 0.6474 -0.7622 0.0000
vn -0.6474 0.7622 0.0000
usemtl None.005
s off
f 1/1/1 2/2/1 3/3/1 4/4/1
f 4/5/2 3/6/2 5/7/2 6/8/2
f 6/8/3 5/7/3 7/9/3 8/10/3
f 8/10/4 7/9/4 2/2/4 1/1/4
f 4/11/5 6/12/5 8/10/5 1/1/5
f 9/13/1 10/14/1 11/15/1 12/16/1
f 13/17/3 14/18/3 15/19/3 16/20/3
f 16/20/4 15/19/4 10/14/4 9/13/4
f 12/21/5 13/22/5 16/20/5 9/13/5
f 14/23/6 11/24/6 10/14/6 15/19/6
f 17/25/3 18/26/3 19/27/3 20/28/3
f 21/29/1 22/30/1 23/31/1 24/32/1
f 22/30/4 17/25/4 20/28/4 23/31/4
f 18/33/5 17/25/5 22/30/5 21/34/5
f 24/35/6 23/31/6 20/28/6 19/36/6
f 25/37/7 26/38/7 27/39/7
f 26/40/8 28/41/8 27/42/8
f 29/43/9 25/44/9 27/45/9
f 28/46/10 29/47/10 27/48/10
s 1
f 30/49/11 31/50/11 32/51/11
f 32/51/11 33/52/11 30/49/11
f 34/53/12 35/54/12 30/55/12
f 30/55/12 33/56/12 34/53/12
f 36/57/1 37/58/1 38/59/1
f 38/59/1 39/60/1 36/57/1
f 40/61/13 41/62/13 42/63/13
f 42/63/13 43/64/13 40/61/13
f 44/65/6 37/66/6 45/67/6
f 45/67/6 46/68/6 44/65/6
f 47/69/14 34/70/14 48/71/14
f 48/71/14 41/72/14 47/69/14
f 49/73/3 50/74/3 51/75/3
f 51/75/3 44/76/3 49/73/3
f 52/77/4 53/78/4 54/79/4
f 54/79/4 55/80/4 52/77/4
f 37/58/2 44/81/2 51/82/2
f 51/82/2 38/59/2 37/58/2
f 45/67/6 37/66/6 36/83/6
f 36/83/6 55/84/6 45/67/6
f 52/85/6 55/84/6 36/83/6
f 36/83/6 49/86/6 52/85/6
f 49/86/6 44/65/6 46/68/6
f 46/68/6 52/85/6 49/86/6
f 52/87/15 46/88/15 35/89/15
f 35/89/15 53/90/15 52/87/15
f 32/91/16 47/92/16 41/62/16
f 41/62/16 40/61/16 32/91/16
f 56/93/17 57/94/17 40/95/17
f 40/95/17 43/96/17 56/93/17
f 33/52/18 32/51/18 40/95/19
f 40/95/19 57/94/18 33/52/18
f 58/97/20 47/92/20 32/91/20
f 32/91/20 31/98/20 58/97/20
f 41/72/21 48/71/21 59/99/21
f 59/99/21 42/100/21 41/72/21
f 55/101/22 54/102/22 30/49/22
f 30/49/22 45/103/22 55/101/22
f 54/79/23 53/78/23 58/97/23
f 58/97/23 31/98/23 54/79/23
f 36/57/4 39/60/4 50/74/4
f 50/74/4 49/73/4 36/57/4
f 58/104/24 35/89/24 34/70/24
f 34/70/24 47/69/24 58/104/24
f 39/105/5 38/106/5 51/107/5
f 51/107/5 50/108/5 39/105/5
f 30/49/25 54/102/25 31/50/25
f 35/89/26 58/104/26 53/90/26
f 46/109/27 45/110/27 30/55/27
f 30/55/27 35/54/27 46/109/27
f 34/53/28 33/56/28 57/111/28
f 57/111/28 48/112/28 34/53/28
f 59/113/29 48/112/29 57/111/29
f 57/111/29 56/114/29 59/113/29
f 60/115/30 61/116/30 62/117/30
f 62/117/30 63/118/30 60/115/30
f 64/119/3 60/120/3 63/118/3
f 63/118/3 65/121/3 64/119/3
f 66/122/31 64/123/31 65/121/31
f 65/121/31 67/124/31 66/122/31
f 61/125/1 66/126/1 67/124/1
f 67/124/1 62/117/1 61/125/1
f 61/125/32 60/127/32 64/128/32
f 64/128/32 66/126/32 61/125/32
f 67/124/33 65/121/33 63/118/33
f 63/118/33 62/117/33 67/124/33
