# Blender v3.0.0 OBJ File: ''
# www.blender.org
mtllib 22.mtl
o Cube.003_Cube.005
v 1.447423 1.439462 -0.936213
v 1.714621 1.954464 -0.936213
v 1.104681 1.954464 -0.936213
v 1.104681 1.439462 -0.936213
v 1.385742 -0.290333 -0.936213
v 1.447423 1.439462 -1.006137
v 1.385742 -0.290333 -1.006137
v 1.776302 -0.290333 -1.006137
v 1.714621 1.954464 -1.006137
v 1.776302 -0.290333 -0.936213
v 1.104681 1.954464 -1.006137
v 1.104681 1.439462 -1.006137
v 2.366271 0.833775 -0.252802
v 2.421584 0.855281 -0.252802
v 2.428423 0.802561 -0.252802
v 2.396264 0.789883 -0.252802
v 2.478995 0.790423 0.320789
v 2.478995 0.790423 -0.232925
v 2.519402 0.747727 -0.213047
v 2.519402 0.747728 0.300913
v 2.396262 0.789883 0.340667
v 2.428421 0.802563 0.340667
v 2.421584 0.855281 0.340667
v 2.366270 0.833775 0.340667
v 2.562024 0.615671 0.043933
v 2.613673 0.628257 0.043933
v 2.602991 0.666549 0.192299
v 2.551343 0.653965 0.192299
v 2.565083 0.774917 0.300913
v 2.506979 0.835623 0.320789
v 2.551341 0.653965 -0.104435
v 2.602991 0.666549 -0.104435
v 2.565083 0.774917 -0.213047
v 2.506979 0.835623 -0.232925
v 2.316082 0.590940 -0.252802
v 2.332693 0.682902 -0.252802
v 2.332693 0.682901 0.340667
v 2.316082 0.590938 0.340667
v 2.368777 0.762429 -0.252802
v 2.368776 0.762429 0.340667
v 2.263201 0.596376 0.340667
v 2.281533 0.697344 0.340667
v 2.281533 0.697345 -0.252802
v 2.263201 0.596378 -0.252802
v 2.325959 0.793938 0.340667
v 2.325961 0.793938 -0.252802
v 2.159075 -1.003231 0.986013
v 2.159075 -0.017220 0.986013
v -2.159075 -0.017220 0.986013
v -2.159075 -1.003231 0.986013
v -2.159075 -1.003231 -0.986013
v 2.159075 -1.003231 -0.986013
v -2.159075 -0.017220 -0.986013
v 2.159075 -0.017220 -0.986013
v -2.159075 0.968793 0.000000
v 2.159075 0.968792 -0.000000
v 2.159075 0.836691 -0.493006
v -2.159075 0.836692 -0.493006
v 2.159075 0.475786 -0.853912
v -2.159075 0.475787 -0.853912
v -2.159075 0.836692 0.493006
v 2.159075 0.836691 0.493006
v -2.159075 0.475787 0.853912
v 2.159075 0.475786 0.853912
v -2.159075 -0.165437 0.000000
v 2.324865 -0.756602 1.039754
v 2.324863 0.126857 -0.000000
v 2.324865 -0.026978 1.039754
v 2.324865 0.492898 0.900453
v 2.324865 0.873475 0.519876
v 2.324865 1.012774 -0.000000
v 2.324865 0.873475 -0.519876
v 2.324865 0.492898 -0.900453
v 2.324865 -0.026978 -1.039754
v 2.324865 -0.756602 -1.039754
v 2.125771 -0.756602 1.039754
v 2.125771 -0.026978 1.039754
v 2.125771 0.126857 -0.000000
v 2.125771 0.492898 0.900453
v 2.125771 0.873475 0.519876
v 2.125771 1.012774 -0.000000
v 2.125771 0.873475 -0.519876
v 2.125771 0.492898 -0.900453
v 2.125771 -0.026978 -1.039754
v 2.125771 -0.756602 -1.039754
v 1.954333 -0.756602 1.039754
v 1.954333 -1.014229 1.039754
v 2.324865 -1.014229 1.039754
v 2.324865 -1.014229 -1.039754
v 1.954333 -1.014229 -1.039754
v 1.954333 -0.756602 -1.039754
v 1.958786 -0.893836 1.064326
v 1.958786 -0.893836 -1.064326
v 1.970352 -0.937004 -1.064326
v 1.970352 -0.937004 1.064326
v 2.001954 -0.968606 -1.064326
v 2.001954 -0.968606 1.064326
v 2.045121 -0.980172 -1.064326
v 2.045121 -0.980172 1.064326
v 2.088289 -0.968606 -1.064326
v 2.088289 -0.968606 1.064326
v 2.119891 -0.937004 -1.064326
v 2.119891 -0.937004 1.064326
v 2.131457 -0.893836 -1.064326
v 2.131457 -0.893836 1.064326
v 2.119891 -0.850669 -1.064326
v 2.119891 -0.850669 1.064326
v 2.088289 -0.819067 -1.064326
v 2.088289 -0.819067 1.064326
v 2.045121 -0.807501 -1.064326
v 2.045121 -0.807501 1.064326
v 2.001954 -0.819067 -1.064326
v 2.001954 -0.819067 1.064326
v 2.045121 -0.893836 1.064326
v 1.970352 -0.850669 -1.064326
v 1.970352 -0.850669 1.064326
v 2.045121 -0.893836 -1.064326
v 1.498304 -0.177383 -0.941040
v 1.498304 -0.177383 -1.045882
v 1.509872 -0.220552 -1.045882
v 1.509872 -0.220552 -0.941040
v 1.541474 -0.252152 -1.045882
v 1.541474 -0.252152 -0.941040
v 1.584642 -0.263720 -1.045882
v 1.584642 -0.263720 -0.941040
v 1.627809 -0.252152 -1.045882
v 1.627809 -0.252152 -0.941040
v 1.659411 -0.220552 -1.045882
v 1.659411 -0.220552 -0.941040
v 1.670977 -0.177383 -1.045882
v 1.670977 -0.177383 -0.941040
v 1.659411 -0.134215 -1.045882
v 1.659411 -0.134215 -0.941040
v 1.627809 -0.102613 -1.045882
v 1.627809 -0.102613 -0.941040
v 1.584642 -0.091047 -1.045882
v 1.584642 -0.091047 -0.941040
v 1.541474 -0.102613 -1.045882
v 1.541474 -0.102613 -0.941040
v 1.509872 -0.134215 -1.045882
v 1.509872 -0.134215 -0.941040
v 1.584642 -0.177383 -1.045882
vt 0.922423 0.754530
vt 0.892838 0.700438
vt 0.957638 0.699019
vt 0.958836 0.753733
vt 0.963659 0.974036
vt 0.959633 0.790146
vt 0.967062 0.789983
vt 0.971088 0.973873
vt 0.884075 0.939026
vt 0.885408 0.700396
vt 0.891506 0.939067
vt 0.885770 0.635582
vt 0.893200 0.635623
vt 0.932999 0.938159
vt 0.933162 0.945588
vt 0.891669 0.946496
vt 0.855221 0.754155
vt 0.818820 0.752951
vt 0.820628 0.698254
vt 0.966265 0.753570
vt 0.965067 0.698856
vt 0.842595 0.937654
vt 0.441991 0.982610
vt 0.434340 0.982573
vt 0.436013 0.975927
vt 0.440470 0.975927
vt 0.557037 0.912327
vt 0.485652 0.912327
vt 0.488214 0.904748
vt 0.554474 0.904748
vt 0.440470 0.875708
vt 0.436013 0.875708
vt 0.434340 0.869062
vt 0.441991 0.869025
vt 0.404525 0.901796
vt 0.404525 0.909447
vt 0.328014 0.909447
vt 0.328014 0.901796
vt 0.425554 0.925818
vt 0.418701 0.925818
vt 0.418870 0.906016
vt 0.425723 0.906016
vt 0.420157 0.885682
vt 0.426862 0.887099
vt 0.430106 0.879786
vt 0.424732 0.875533
vt 0.425723 0.945619
vt 0.418870 0.945619
vt 0.426862 0.964536
vt 0.420157 0.965954
vt 0.424732 0.976102
vt 0.430106 0.971849
vt 0.483089 0.923488
vt 0.483089 0.919032
vt 0.559600 0.919032
vt 0.559600 0.923488
vt 0.502217 0.891978
vt 0.540472 0.891978
vt 0.521344 0.886853
vt 0.330577 0.920744
vt 0.401962 0.920744
vt 0.399399 0.931578
vt 0.333139 0.931577
vt 0.385397 0.946378
vt 0.347141 0.946378
vt 0.366269 0.951504
vt 0.483089 0.951803
vt 0.483089 0.939756
vt 0.559600 0.939756
vt 0.559600 0.951803
vt 0.483089 0.928497
vt 0.559600 0.928497
vt 0.404525 0.867553
vt 0.404525 0.880782
vt 0.328014 0.880783
vt 0.328014 0.867553
vt 0.404525 0.894489
vt 0.328014 0.894490
vt 0.459495 0.895776
vt 0.453153 0.885532
vt 0.458606 0.881380
vt 0.465580 0.892623
vt 0.445064 0.877700
vt 0.448709 0.871897
vt 0.465580 0.959012
vt 0.458606 0.970255
vt 0.453153 0.966103
vt 0.459495 0.955859
vt 0.448709 0.979739
vt 0.445064 0.973935
vt 0.013790 0.015909
vt 0.137760 0.015909
vt 0.137760 0.558823
vt 0.013790 0.558823
vt 0.255795 0.854116
vt 0.255795 0.606177
vt 0.798709 0.606177
vt 0.798709 0.854116
vt 0.646759 0.558823
vt 0.522789 0.558823
vt 0.522789 0.015910
vt 0.646759 0.015910
vt 0.330274 0.558823
vt 0.330275 0.015909
vt 0.394446 0.015910
vt 0.394446 0.558823
vt 0.458618 0.015910
vt 0.458618 0.558823
vt 0.266103 0.558823
vt 0.266103 0.015909
vt 0.201931 0.558823
vt 0.201932 0.015909
vt 0.131825 0.854116
vt 0.150461 0.730147
vt 0.069841 0.837507
vt 0.024465 0.792131
vt 0.007856 0.730146
vt 0.024465 0.668162
vt 0.069841 0.622786
vt 0.131826 0.606177
vt 0.671499 0.370925
vt 0.803758 0.483303
vt 0.671499 0.463734
vt 0.689219 0.529864
vt 0.737629 0.578274
vt 0.803758 0.595993
vt 0.869887 0.578274
vt 0.918298 0.529864
vt 0.936017 0.463734
vt 0.936017 0.370925
vt 0.671499 0.236444
vt 0.671499 0.143635
vt 0.803758 0.124067
vt 0.689219 0.077506
vt 0.737629 0.029096
vt 0.803758 0.011376
vt 0.869887 0.029096
vt 0.918298 0.077506
vt 0.936017 0.143635
vt 0.936017 0.236444
vt 0.978685 0.415727
vt 0.978685 0.484189
vt 0.953359 0.484189
vt 0.953359 0.415727
vt 0.978685 0.141878
vt 0.978685 0.210340
vt 0.953360 0.210340
vt 0.953360 0.141878
vt 0.978685 0.552651
vt 0.953359 0.552651
vt 0.953360 0.049069
vt 0.931552 0.049069
vt 0.931553 0.016298
vt 0.978685 0.016298
vt 0.978685 0.049069
vt 0.978685 0.278802
vt 0.978685 0.347264
vt 0.953359 0.347264
vt 0.953360 0.278802
vt 0.978685 0.645460
vt 0.953360 0.645460
vt 0.978685 0.678231
vt 0.931553 0.678231
vt 0.931552 0.645460
vt 0.936017 0.258251
vt 0.671499 0.258251
vt 0.671499 0.338154
vt 0.936017 0.338154
vt 0.936017 0.291022
vt 0.671499 0.291022
vt 0.307635 0.941868
vt 0.025213 0.941869
vt 0.025213 0.935939
vt 0.307635 0.935939
vt 0.025213 0.930010
vt 0.307635 0.930010
vt 0.025213 0.924081
vt 0.307635 0.924080
vt 0.025213 0.918151
vt 0.307635 0.918151
vt 0.025213 0.912222
vt 0.307635 0.912222
vt 0.025213 0.906292
vt 0.307635 0.906292
vt 0.025213 0.900363
vt 0.307635 0.900363
vt 0.025213 0.894433
vt 0.307635 0.894434
vt 0.025213 0.888504
vt 0.307635 0.888505
vt 0.025213 0.882574
vt 0.307635 0.882575
vt 0.673174 0.888703
vt 0.678309 0.891667
vt 0.670209 0.899767
vt 0.025213 0.876645
vt 0.307635 0.876646
vt 0.025213 0.870715
vt 0.307635 0.870717
vt 0.613306 0.945742
vt 0.616270 0.940607
vt 0.624370 0.948706
vt 0.621405 0.937642
vt 0.627334 0.937642
vt 0.632470 0.940607
vt 0.635434 0.945742
vt 0.635434 0.951671
vt 0.632470 0.956806
vt 0.627334 0.959771
vt 0.621405 0.959771
vt 0.616270 0.956806
vt 0.613306 0.951671
vt 0.681274 0.896802
vt 0.681274 0.902732
vt 0.678309 0.907867
vt 0.673174 0.910831
vt 0.667244 0.910831
vt 0.662109 0.907867
vt 0.659145 0.902732
vt 0.659145 0.896802
vt 0.662109 0.891667
vt 0.667244 0.888703
vt 0.587088 0.949557
vt 0.573179 0.949557
vt 0.573179 0.943628
vt 0.587088 0.943628
vt 0.573179 0.937698
vt 0.587088 0.937698
vt 0.573179 0.931769
vt 0.587088 0.931769
vt 0.573179 0.925840
vt 0.587088 0.925840
vt 0.573179 0.919910
vt 0.587088 0.919910
vt 0.573179 0.913981
vt 0.587088 0.913981
vt 0.573179 0.908051
vt 0.587088 0.908051
vt 0.573179 0.902122
vt 0.587088 0.902122
vt 0.573179 0.896192
vt 0.587088 0.896192
vt 0.573179 0.890263
vt 0.587088 0.890263
vt 0.573179 0.884333
vt 0.587088 0.884333
vt 0.573179 0.878404
vt 0.587088 0.878404
vt 0.633884 0.889826
vt 0.633884 0.895756
vt 0.622820 0.892791
vt 0.630920 0.900891
vt 0.625785 0.903856
vt 0.619855 0.903856
vt 0.614720 0.900891
vt 0.611755 0.895756
vt 0.611755 0.889826
vt 0.614720 0.884691
vt 0.619855 0.881727
vt 0.625785 0.881727
vt 0.630920 0.884691
vn 0.0000 0.0000 1.0000
vn -0.9994 0.0356 0.0000
vn 0.9996 0.0275 0.0000
vn 0.0000 1.0000 0.0000
vn 0.0000 -1.0000 0.0000
vn -0.0000 0.0000 -1.0000
vn -1.0000 0.0000 0.0000
vn 0.1296 -0.0280 -0.9912
vn 0.1385 -0.0299 -0.9899
vn -0.4438 -0.8961 0.0000
vn -0.8029 -0.5961 0.0000
vn 0.1385 -0.0299 0.9899
vn 0.1296 -0.0280 0.9912
vn -0.5440 0.8391 -0.0000
vn -0.0956 0.9954 -0.0000
vn 0.2367 -0.9716 0.0000
vn 0.2577 -0.8320 0.4913
vn 0.2587 -0.8252 0.5022
vn 0.2390 -0.4490 0.8610
vn 0.2370 -0.4375 0.8674
vn 0.2291 -0.1240 0.9655
vn 0.2274 -0.1268 0.9655
vn 0.2587 -0.8252 -0.5022
vn 0.2577 -0.8320 -0.4913
vn 0.2370 -0.4375 -0.8674
vn 0.2390 -0.4490 -0.8610
vn 0.2274 -0.1268 -0.9655
vn 0.2291 -0.1240 -0.9655
vn 0.5482 -0.8364 0.0000
vn 0.1112 -0.9938 0.0000
vn -0.9484 -0.3172 0.0000
vn -0.9632 -0.2687 0.0000
vn 0.4559 0.8901 0.0000
vn 0.4559 0.8900 0.0000
vn 0.8069 0.5906 0.0000
vn 0.9460 0.3240 0.0000
vn 0.9632 0.2687 0.0000
vn 0.9841 -0.1778 -0.0000
vn 0.9546 -0.2977 0.0000
vn 0.8220 -0.5696 0.0000
vn -0.9839 0.1786 0.0000
vn -0.9537 0.3006 -0.0000
vn -0.8190 0.5738 -0.0000
vn 0.0000 0.1305 0.9914
vn -0.0000 0.1305 -0.9914
vn 0.0000 0.8660 -0.5000
vn 0.0000 0.5000 -0.8660
vn 0.0000 0.8660 0.5000
vn 0.0000 0.5000 0.8660
vn 1.0000 0.0000 -0.0000
vn -0.8660 -0.5000 0.0000
vn -0.5000 -0.8660 0.0000
vn 0.5000 -0.8660 0.0000
vn 0.8660 -0.5000 0.0000
vn 0.8660 0.5000 0.0000
vn 0.5000 0.8660 0.0000
vn -0.5000 0.8660 0.0000
vn -0.8660 0.5000 0.0000
usemtl Material.001
s off
f 1/1/1 2/2/1 3/3/1 4/4/1
f 5/5/2 1/6/2 6/7/2 7/8/2
f 8/9/3 9/10/3 2/2/3 10/11/3
f 9/10/4 11/12/4 3/13/4 2/2/4
f 5/14/5 7/15/5 8/16/5 10/11/5
f 9/10/6 6/17/6 12/18/6 11/19/6
f 12/20/7 4/4/7 3/3/7 11/21/7
f 6/7/5 1/6/5 4/4/5 12/20/5
f 10/11/1 2/2/1 1/1/1 5/14/1
f 6/17/6 9/10/6 8/9/6 7/22/6
s 1
f 13/23/6 14/24/8 15/25/9 16/26/6
f 17/27/10 18/28/10 19/29/11 20/30/11
f 21/31/1 22/32/12 23/33/13 24/34/1
f 24/35/14 23/36/15 14/37/15 13/38/14
f 25/39/16 26/40/16 27/41/17 28/42/18
f 28/42/18 27/41/17 29/43/19 20/44/20
f 17/45/21 30/46/22 23/33/13 22/32/12
f 26/40/16 25/39/16 31/47/23 32/48/24
f 32/48/24 31/47/23 19/49/25 33/50/26
f 34/51/27 18/52/28 15/25/9 14/24/8
f 16/53/29 15/54/30 22/55/30 21/56/29
f 20/30/11 19/29/11 31/57/31 28/58/31
f 28/58/31 31/57/31 25/59/32
f 34/60/33 30/61/34 29/62/35 33/63/35
f 33/63/35 29/62/35 27/64/36 32/65/36
f 32/65/36 27/64/36 26/66/37
f 35/67/38 36/68/39 37/69/39 38/70/38
f 36/68/39 39/71/40 40/72/40 37/69/39
f 41/73/41 42/74/42 43/75/42 44/76/41
f 42/74/42 45/77/43 46/78/43 43/75/42
f 38/79/1 37/80/1 42/81/1 41/82/1
f 37/80/1 40/83/1 45/84/1 42/81/1
f 44/85/6 43/86/6 36/87/6 35/88/6
f 43/86/6 46/89/6 39/90/6 36/87/6
f 14/37/15 23/36/15 30/61/34 34/60/33
f 33/50/26 19/49/25 18/52/28 34/51/27
f 20/44/20 29/43/19 30/46/22 17/45/21
f 22/55/30 15/54/30 18/28/10 17/27/10
f 39/71/40 16/53/29 21/56/29 40/72/40
f 45/77/43 24/35/14 13/38/14 46/78/43
f 40/83/1 21/31/1 24/34/1 45/84/1
f 46/89/6 13/23/6 16/26/6 39/90/6
f 47/91/1 48/92/44 49/93/44 50/94/1
f 50/95/5 51/96/5 52/97/5 47/98/5
f 51/99/6 53/100/45 54/101/45 52/102/6
f 55/103/4 56/104/4 57/105/46 58/106/46
f 58/106/46 57/105/46 59/107/47 60/108/47
f 60/108/47 59/107/47 54/101/45 53/100/45
f 56/104/4 55/103/4 61/109/48 62/110/48
f 62/110/48 61/109/48 63/111/49 64/112/49
f 64/112/49 63/111/49 49/93/44 48/92/44
f 50/95/7 49/113/7 65/114/7
f 49/113/7 63/115/7 65/114/7
f 63/115/7 61/116/7 65/114/7
f 61/116/7 55/117/7 65/114/7
f 55/117/7 58/118/7 65/114/7
f 58/118/7 60/119/7 65/114/7
f 60/119/7 53/120/7 65/114/7
f 53/120/7 51/96/7 65/114/7
f 51/96/7 50/95/7 65/114/7
f 66/121/50 67/122/50 68/123/50
f 68/123/50 67/122/50 69/124/50
f 69/124/50 67/122/50 70/125/50
f 70/125/50 67/122/50 71/126/50
f 71/126/50 67/122/50 72/127/50
f 72/127/50 67/122/50 73/128/50
f 73/128/50 67/122/50 74/129/50
f 74/129/50 67/122/50 75/130/50
f 75/130/50 67/122/50 66/121/50
f 76/131/7 77/132/7 78/133/7
f 77/132/7 79/134/7 78/133/7
f 79/134/7 80/135/7 78/133/7
f 80/135/7 81/136/7 78/133/7
f 81/136/7 82/137/7 78/133/7
f 82/137/7 83/138/7 78/133/7
f 83/138/7 84/139/7 78/133/7
f 84/139/7 85/140/7 78/133/7
f 85/140/7 76/131/7 78/133/7
f 72/141/46 73/142/47 83/143/47 82/144/46
f 68/145/44 69/146/49 79/147/49 77/148/44
f 73/142/47 74/149/45 84/150/45 83/143/47
f 76/151/1 86/152/1 87/153/1 88/154/1
f 66/155/1 68/145/44 77/148/44 76/151/1
f 70/156/48 71/157/4 81/158/4 80/159/48
f 71/157/4 72/141/46 82/144/46 81/158/4
f 74/149/45 75/160/6 85/161/6 84/150/45
f 69/146/49 70/156/48 80/159/48 79/147/49
f 89/162/6 90/163/6 91/164/6 85/161/6
f 76/131/4 85/140/4 91/165/4 86/166/4
f 75/130/50 66/121/50 88/167/50 89/168/50
f 86/166/7 91/165/7 90/169/7 87/170/7
f 88/154/1 66/155/1 76/151/1
f 85/161/6 75/160/6 89/162/6
f 88/167/5 87/170/5 90/169/5 89/168/5
f 92/171/7 93/172/7 94/173/51 95/174/51
f 95/174/51 94/173/51 96/175/52 97/176/52
f 97/176/52 96/175/52 98/177/5 99/178/5
f 99/178/5 98/177/5 100/179/53 101/180/53
f 101/180/53 100/179/53 102/181/54 103/182/54
f 103/182/54 102/181/54 104/183/50 105/184/50
f 105/184/50 104/183/50 106/185/55 107/186/55
f 107/186/55 106/185/55 108/187/56 109/188/56
f 109/188/56 108/187/56 110/189/4 111/190/4
f 111/190/4 110/189/4 112/191/57 113/192/57
f 92/193/1 95/194/1 114/195/1
f 113/192/57 112/191/57 115/196/58 116/197/58
f 116/197/58 115/196/58 93/198/7 92/199/7
f 94/200/6 93/201/6 117/202/6
f 93/201/6 115/203/6 117/202/6
f 115/203/6 112/204/6 117/202/6
f 112/204/6 110/205/6 117/202/6
f 110/205/6 108/206/6 117/202/6
f 108/206/6 106/207/6 117/202/6
f 106/207/6 104/208/6 117/202/6
f 104/208/6 102/209/6 117/202/6
f 102/209/6 100/210/6 117/202/6
f 100/210/6 98/211/6 117/202/6
f 98/211/6 96/212/6 117/202/6
f 96/212/6 94/200/6 117/202/6
f 95/194/1 97/213/1 114/195/1
f 97/213/1 99/214/1 114/195/1
f 99/214/1 101/215/1 114/195/1
f 101/215/1 103/216/1 114/195/1
f 103/216/1 105/217/1 114/195/1
f 105/217/1 107/218/1 114/195/1
f 107/218/1 109/219/1 114/195/1
f 109/219/1 111/220/1 114/195/1
f 111/220/1 113/221/1 114/195/1
f 113/221/1 116/222/1 114/195/1
f 116/222/1 92/193/1 114/195/1
f 118/223/7 119/224/7 120/225/51 121/226/51
f 121/226/51 120/225/51 122/227/52 123/228/52
f 123/228/52 122/227/52 124/229/5 125/230/5
f 125/230/5 124/229/5 126/231/53 127/232/53
f 127/232/53 126/231/53 128/233/54 129/234/54
f 129/234/54 128/233/54 130/235/50 131/236/50
f 131/236/50 130/235/50 132/237/55 133/238/55
f 133/238/55 132/237/55 134/239/56 135/240/56
f 135/240/56 134/239/56 136/241/4 137/242/4
f 137/242/4 136/241/4 138/243/57 139/244/57
f 139/244/57 138/243/57 140/245/58 141/246/58
f 141/246/58 140/245/58 119/247/7 118/248/7
f 120/249/6 119/250/6 142/251/6
f 119/250/6 140/252/6 142/251/6
f 140/252/6 138/253/6 142/251/6
f 138/253/6 136/254/6 142/251/6
f 136/254/6 134/255/6 142/251/6
f 134/255/6 132/256/6 142/251/6
f 132/256/6 130/257/6 142/251/6
f 130/257/6 128/258/6 142/251/6
f 128/258/6 126/259/6 142/251/6
f 126/259/6 124/260/6 142/251/6
f 124/260/6 122/261/6 142/251/6
f 122/261/6 120/249/6 142/251/6
