# Blender v2.79 (sub 0) OBJ File: 'hat_154.blend'
# www.blender.org
mtllib hat_154.mtl
o Cone
v -0.000000 0.351065 -2.271515
v 0.869271 0.351065 -2.098606
v 1.606203 0.351065 -1.606203
v 2.098605 0.351065 -0.869271
v 2.271514 0.351065 0.000000
v 2.098605 0.351065 0.869271
v 1.606203 0.351065 1.606203
v 0.869271 0.351065 2.098606
v 0.000000 0.351065 2.271515
v -0.869271 0.351065 2.098606
v -1.606203 0.351065 1.606204
v -2.098606 0.351065 0.869271
v -2.271515 0.351065 -0.000000
v -2.098606 0.351065 -0.869271
v -1.606203 0.351065 -1.606204
v -0.869270 0.351065 -2.098606
v 0.114409 1.989591 0.000000
v 0.044122 1.989591 0.105191
v -0.079958 1.989591 0.080509
v -0.104640 1.989591 -0.043571
v 0.044122 1.989591 -0.105191
v 0.081060 1.989591 0.080510
v -0.043020 1.989591 0.105191
v -0.113306 1.989591 0.000000
v -0.043020 1.989591 -0.105191
v 0.105742 1.989591 -0.043571
v 0.081060 1.989591 -0.080510
v 0.105742 1.989591 0.043571
v 0.000551 1.989591 0.113857
v -0.104640 1.989591 0.043571
v -0.079958 1.989591 -0.080509
v 0.000551 1.989591 -0.113857
v -0.102577 2.379478 -0.189860
v -0.043567 2.176708 -0.012419
v 0.074348 2.448360 -0.000000
v -0.034871 2.405838 0.175408
v -0.227681 2.330772 0.134251
v -0.266033 2.315840 -0.072656
v -0.034871 2.405838 -0.175408
v 0.022528 2.428185 0.134251
v -0.170283 2.353118 0.175408
v -0.279501 2.310597 -0.000000
v -0.170283 2.353118 -0.175408
v 0.060880 2.443117 -0.072657
v 0.022528 2.428185 -0.134252
v 0.060880 2.443117 0.072656
v -0.102577 2.379478 0.189860
v -0.266034 2.315840 0.072656
v -0.227681 2.330772 -0.134251
v -0.108263 2.072015 -0.038874
v 0.085145 2.072015 0.000000
v -0.085702 2.072015 -0.071477
v 0.077710 2.072015 0.037662
v -0.052400 2.072015 -0.092773
v 0.056466 2.072015 0.069784
v -0.013713 2.072015 -0.099732
v -0.108263 2.072015 0.038874
v 0.024450 2.072015 0.091590
v 0.024450 2.072015 -0.091590
v -0.116253 2.072015 -0.000000
v -0.013713 2.072015 0.099732
v 0.056466 2.072015 -0.069784
v -0.085702 2.072015 0.071477
v -0.052400 2.072015 0.092773
v 0.077710 2.072015 -0.037662
v -0.125076 2.002575 -0.050665
v -0.130696 2.050689 -0.051410
v -0.130816 2.025270 -0.053794
v 0.118460 2.001858 0.049974
v 0.116150 2.049686 0.050170
v 0.127640 2.024766 0.052835
v -0.052928 2.002272 -0.121655
v -0.056936 2.050278 -0.123023
v -0.053996 2.025060 -0.129009
v -0.125076 2.002575 0.050665
v -0.130696 2.050689 0.051410
v -0.130816 2.025270 0.053794
v 0.047807 2.001984 0.120987
v 0.045133 2.049866 0.121819
v 0.052908 2.024856 0.128076
v 0.047807 2.001984 -0.120987
v 0.045133 2.049866 -0.121819
v 0.052907 2.024856 -0.128076
v -0.096060 2.002442 0.093396
v -0.100957 2.050514 0.094634
v -0.099895 2.025180 0.099115
v -0.052928 2.002271 0.121655
v -0.056936 2.050278 0.123023
v -0.053996 2.025060 0.129009
v 0.118460 2.001858 -0.049974
v 0.116150 2.049686 -0.050170
v 0.127640 2.024766 -0.052835
v -0.005626 2.050047 0.132466
v -0.002412 2.002110 0.131281
v -0.000335 2.024945 0.139096
v 0.087802 2.049749 0.092906
v 0.090203 2.001902 0.092435
v 0.097776 2.024797 0.097778
v 0.126076 2.049666 0.000000
v 0.128370 2.001844 0.000000
v 0.138107 2.024756 0.000000
v 0.087802 2.049749 -0.092906
v 0.090203 2.001902 -0.092435
v 0.097776 2.024797 -0.097778
v -0.005626 2.050047 -0.132466
v -0.002412 2.002110 -0.131281
v -0.000335 2.024945 -0.139096
v -0.100957 2.050514 -0.094634
v -0.096060 2.002442 -0.093396
v -0.099895 2.025180 -0.099115
v -0.141210 2.050753 -0.000000
v -0.135309 2.002626 0.000000
v -0.141730 2.025303 -0.000000
v -0.000000 0.283299 -2.162177
v 0.827429 0.283299 -1.997591
v 1.528890 0.283299 -1.528890
v 1.997591 0.283299 -0.827429
v 2.162176 0.283299 0.000000
v 1.997591 0.283299 0.827429
v 1.528890 0.283299 1.528890
v 0.827429 0.283299 1.997591
v 0.000000 0.283299 2.162177
v -0.827429 0.283299 1.997591
v -1.528889 0.283299 1.528890
v -1.997591 0.283299 0.827430
v -2.162177 0.283299 -0.000000
v -1.997591 0.283299 -0.827430
v -1.528889 0.283299 -1.528890
v -0.827428 0.283299 -1.997591
v 0.000027 1.658056 0.000027
v -0.137170 -1.098715 1.094136
v -0.137170 1.008952 1.094136
v -0.137170 -1.098715 -1.094136
v -0.137170 1.008952 -1.094136
v 0.137170 -1.098715 1.094136
v 0.137170 1.008952 1.094136
v 0.137170 -1.098715 -1.094136
v 0.137170 1.008952 -1.094136
v -0.137170 -0.998715 0.994136
v -0.137170 1.041773 0.994136
v -0.137170 1.041773 -0.994136
v -0.137170 -0.998715 -0.994136
v 0.137170 1.041773 -0.994136
v 0.137170 -0.998715 -0.994136
v 0.137170 1.041773 0.994136
v 0.137170 -0.998715 0.994136
v -0.000000 0.351065 -2.271515
v 0.869271 0.351065 -2.098606
v 1.606203 0.351065 -1.606203
v 2.098605 0.351065 -0.869271
v 2.271514 0.351065 0.000000
v 2.098605 0.351065 0.869271
v 1.606203 0.351065 1.606203
v 0.869271 0.351065 2.098606
v 0.000000 0.351065 2.271515
v -0.869271 0.351065 2.098606
v -1.606203 0.351065 1.606204
v -2.098606 0.351065 0.869271
v -2.271515 0.351065 -0.000000
v -2.098606 0.351065 -0.869271
v -1.606203 0.351065 -1.606204
v -0.869270 0.351065 -2.098606
v 0.044122 1.989591 -0.105191
v 0.081060 1.989591 -0.080510
v 0.105742 1.989591 -0.043571
v 0.114409 1.989591 0.000000
v 0.081060 1.989591 0.080510
v 0.105742 1.989591 0.043571
v 0.000551 1.989591 0.113857
v 0.044122 1.989591 0.105191
v -0.079958 1.989591 0.080509
v -0.043020 1.989591 0.105191
v -0.113306 1.989591 0.000000
v -0.104640 1.989591 0.043571
v -0.104640 1.989591 -0.043571
v -0.079958 1.989591 -0.080509
v -0.043020 1.989591 -0.105191
v 0.000551 1.989591 -0.113857
v -0.034871 2.405838 -0.175408
v 0.022528 2.428185 -0.134252
v 0.060880 2.443117 -0.072657
v 0.074348 2.448360 -0.000000
v 0.022528 2.428185 0.134251
v 0.060880 2.443117 0.072656
v -0.102577 2.379478 0.189860
v -0.034871 2.405838 0.175408
v -0.227681 2.330772 0.134251
v -0.170283 2.353118 0.175408
v -0.279501 2.310597 -0.000000
v -0.266034 2.315840 0.072656
v -0.266033 2.315840 -0.072656
v -0.227681 2.330772 -0.134251
v -0.170283 2.353118 -0.175408
v -0.102577 2.379478 -0.189860
v -0.085702 2.072015 -0.071477
v -0.052400 2.072015 -0.092773
v -0.108263 2.072015 -0.038874
v -0.013713 2.072015 -0.099732
v -0.116253 2.072015 -0.000000
v -0.108263 2.072015 0.038874
v 0.077710 2.072015 -0.037662
v 0.085145 2.072015 0.000000
v 0.056466 2.072015 0.069784
v 0.077710 2.072015 0.037662
v -0.013713 2.072015 0.099732
v 0.024450 2.072015 0.091590
v -0.085702 2.072015 0.071477
v -0.052400 2.072015 0.092773
v 0.024450 2.072015 -0.091590
v 0.056466 2.072015 -0.069784
v -0.130696 2.050689 0.051410
v -0.141210 2.050753 -0.000000
v -0.130696 2.050689 -0.051410
v 0.138107 2.024756 0.000000
v 0.127640 2.024766 -0.052835
v 0.127640 2.024766 0.052835
v -0.000000 0.283299 -2.162177
v 0.827429 0.283299 -1.997591
v 1.528890 0.283299 -1.528890
v 1.997591 0.283299 -0.827429
v 2.162176 0.283299 0.000000
v 1.997591 0.283299 0.827429
v 1.528890 0.283299 1.528890
v 0.827429 0.283299 1.997591
v 0.000000 0.283299 2.162177
v -0.827429 0.283299 1.997591
v -1.528889 0.283299 1.528890
v -1.997591 0.283299 0.827430
v -2.162177 0.283299 -0.000000
v -1.997591 0.283299 -0.827430
v -1.528889 0.283299 -1.528890
v -0.827428 0.283299 -1.997591
v -0.137170 -0.998715 0.994136
v -0.137170 -0.998715 0.994136
v -0.137170 1.041773 0.994136
v -0.137170 1.041773 -0.994136
v -0.137170 -0.998715 -0.994136
v -0.137170 -0.998715 -0.994136
v 0.137170 -0.998715 -0.994136
v 0.137170 -0.998715 -0.994136
v 0.137170 1.041773 -0.994136
v 0.137170 1.041773 0.994136
v 0.137170 -0.998715 0.994136
v 0.137170 -0.998715 0.994136
v -0.137170 -1.098715 1.094136
v -0.137170 -1.098715 1.094136
v -0.137170 1.008952 1.094136
v -0.137170 1.008952 -1.094136
v -0.137170 -1.098715 -1.094136
v -0.137170 -1.098715 -1.094136
v 0.137170 1.008952 -1.094136
v 0.137170 -1.098715 -1.094136
v 0.137170 -1.098715 -1.094136
v 0.137170 1.008952 1.094136
v 0.137170 -1.098715 1.094136
v 0.137170 -1.098715 1.094136
vt 0.964367 0.610901
vt 0.940479 0.610901
vt 0.940479 0.433228
vt 0.964367 0.433228
vt 0.940479 0.784026
vt 0.964367 0.784026
vt 0.964367 0.961699
vt 0.940479 0.961699
vt 0.964367 0.610901
vt 0.964367 0.784026
vt 0.940479 0.784026
vt 0.940479 0.610901
vt 0.219154 0.290985
vt 0.210447 0.299692
vt 0.210447 0.116171
vt 0.219154 0.113313
vt 0.392280 0.113313
vt 0.400988 0.116171
vt 0.400987 0.299693
vt 0.392280 0.290985
vt 0.392280 0.332288
vt 0.400987 0.323581
vt 0.400987 0.507102
vt 0.392280 0.509960
vt 0.219154 0.509960
vt 0.210446 0.507102
vt 0.210447 0.323580
vt 0.219154 0.332288
vt 0.400987 0.299693
vt 0.400987 0.323581
vt 0.210447 0.323580
vt 0.210447 0.299692
vt 0.210447 0.299692
vt 0.210447 0.323580
vt 0.026925 0.323580
vt 0.026925 0.299692
vt 0.400987 0.299693
vt 0.584509 0.299693
vt 0.584509 0.323581
vt 0.400987 0.323581
vt 0.457371 0.805403
vt 0.249037 0.760900
vt 0.249021 0.757156
vt 0.458115 0.718618
vt 0.247584 0.753721
vt 0.425301 0.637983
vt 0.244956 0.751114
vt 0.363701 0.576037
vt 0.241548 0.749718
vt 0.282531 0.542603
vt 0.237878 0.749717
vt 0.194777 0.542603
vt 0.234466 0.751149
vt 0.114305 0.576282
vt 0.231810 0.753761
vt 0.053183 0.638289
vt 0.230348 0.757201
vt 0.020683 0.718913
vt 0.230310 0.760950
vt 0.021611 0.805680
vt 0.231711 0.764437
vt 0.055584 0.885295
vt 0.234345 0.767115
vt 0.117021 0.945778
vt 0.237829 0.768573
vt 0.196316 0.978266
vt 0.241598 0.768549
vt 0.281992 0.978364
vt 0.245051 0.767070
vt 0.361808 0.945843
vt 0.247662 0.764380
vt 0.423475 0.885184
vt 0.954718 0.327855
vt 0.899540 0.382949
vt 0.893204 0.373506
vt 0.945258 0.321557
vt 0.706928 0.458821
vt 0.706769 0.466747
vt 0.686929 0.463854
vt 0.776823 0.461951
vt 0.780860 0.461951
vt 0.780860 0.465666
vt 0.776823 0.465666
vt 0.784919 0.455325
vt 0.789053 0.455325
vt 0.789053 0.457412
vt 0.784919 0.457412
vt 0.780860 0.455325
vt 0.780860 0.457412
vt 0.814115 0.461951
vt 0.818267 0.461951
vt 0.818267 0.465666
vt 0.814115 0.465666
vt 0.793184 0.455325
vt 0.797338 0.455325
vt 0.797338 0.457412
vt 0.793184 0.457412
vt 0.822397 0.461951
vt 0.826529 0.461951
vt 0.826529 0.465666
vt 0.822397 0.465666
vt 0.801529 0.455325
vt 0.805727 0.455325
vt 0.805727 0.457412
vt 0.801529 0.457412
vt 0.809925 0.455325
vt 0.814115 0.455325
vt 0.814115 0.457412
vt 0.809925 0.457412
vt 0.784919 0.461951
vt 0.784919 0.465666
vt 0.772698 0.461951
vt 0.772698 0.465666
vt 0.818267 0.455325
vt 0.822397 0.455325
vt 0.822397 0.457412
vt 0.818267 0.457412
vt 0.826529 0.455325
vt 0.830586 0.455325
vt 0.830586 0.457412
vt 0.826529 0.457412
vt 0.797338 0.461951
vt 0.801529 0.461951
vt 0.801529 0.465666
vt 0.797338 0.465666
vt 0.834621 0.455325
vt 0.838743 0.455325
vt 0.838743 0.457412
vt 0.834621 0.457412
vt 0.789053 0.461951
vt 0.793184 0.461951
vt 0.793184 0.465666
vt 0.789053 0.465666
vt 0.698406 0.445621
vt 0.704009 0.451386
vt 0.682887 0.442474
vt 0.690971 0.442474
vt 0.669849 0.451385
vt 0.675452 0.445621
vt 0.667089 0.466747
vt 0.666930 0.458821
vt 0.675837 0.479404
vt 0.670234 0.473957
vt 0.690812 0.482326
vt 0.683046 0.482326
vt 0.703624 0.473958
vt 0.698021 0.479404
vt 0.584166 0.450210
vt 0.588384 0.450210
vt 0.588384 0.474768
vt 0.584166 0.474768
vt 0.592280 0.450210
vt 0.592280 0.474768
vt 0.579714 0.450210
vt 0.579714 0.474768
vt 0.525473 0.450210
vt 0.528944 0.450210
vt 0.528944 0.474768
vt 0.525473 0.474768
vt 0.560612 0.450210
vt 0.565501 0.450210
vt 0.565501 0.474768
vt 0.560612 0.474768
vt 0.550881 0.450210
vt 0.555722 0.450210
vt 0.555722 0.474768
vt 0.550881 0.474768
vt 0.541509 0.450210
vt 0.546131 0.450210
vt 0.546131 0.474768
vt 0.541509 0.474768
vt 0.532840 0.450210
vt 0.537058 0.450210
vt 0.537058 0.474768
vt 0.532840 0.474768
vt 0.595750 0.450210
vt 0.595750 0.474768
vt 0.570342 0.450210
vt 0.575092 0.450210
vt 0.575092 0.474768
vt 0.570342 0.474768
vt 0.776823 0.455325
vt 0.776823 0.457412
vt 0.772698 0.455325
vt 0.772698 0.457412
vt 0.834621 0.461951
vt 0.838743 0.461951
vt 0.838743 0.465666
vt 0.834621 0.465666
vt 0.830586 0.461951
vt 0.830586 0.465666
vt 0.809925 0.461951
vt 0.809925 0.465666
vt 0.805727 0.461951
vt 0.805727 0.465666
vt 0.776823 0.461951
vt 0.772698 0.461951
vt 0.772698 0.459608
vt 0.776823 0.459608
vt 0.780860 0.459608
vt 0.834621 0.461951
vt 0.830586 0.459608
vt 0.834621 0.459608
vt 0.838743 0.461951
vt 0.838743 0.459608
vt 0.822397 0.459608
vt 0.826529 0.459608
vt 0.814115 0.459608
vt 0.818267 0.459608
vt 0.805727 0.459608
vt 0.809925 0.459608
vt 0.809925 0.459608
vt 0.805727 0.459608
vt 0.797338 0.459608
vt 0.801529 0.459608
vt 0.801529 0.459608
vt 0.789053 0.459608
vt 0.793184 0.459608
vt 0.784919 0.459608
vt 0.501336 0.773536
vt 0.702913 0.733442
vt 0.532024 0.847624
vt 0.677378 0.383033
vt 0.622237 0.327992
vt 0.631657 0.321651
vt 0.683657 0.373560
vt 0.622483 0.106619
vt 0.677792 0.051969
vt 0.684046 0.061423
vt 0.631900 0.112934
vt 0.899583 0.051514
vt 0.954725 0.106278
vt 0.945332 0.112620
vt 0.893356 0.060981
vt 0.827457 0.412782
vt 0.825209 0.401632
vt 0.984582 0.178073
vt 0.984582 0.255900
vt 0.973443 0.253707
vt 0.973465 0.180319
vt 0.592433 0.256094
vt 0.603553 0.253853
vt 0.749862 0.022864
vt 0.752096 0.033971
vt 0.749444 0.412810
vt 0.751626 0.401649
vt 0.592516 0.178334
vt 0.603637 0.180537
vt 0.827589 0.022191
vt 0.825490 0.033330
vt 0.501336 0.693343
vt 0.588729 0.904329
vt 0.662817 0.935017
vt 0.817099 0.562549
vt 0.743010 0.531861
vt 0.532024 0.619254
vt 0.588729 0.562549
vt 0.662817 0.531861
vt 0.873804 0.619254
vt 0.904492 0.693343
vt 0.904492 0.773536
vt 0.873803 0.847624
vt 0.817098 0.904329
vt 0.743010 0.935017
vn 0.0000 0.0000 1.0000
vn 0.0000 0.0000 -1.0000
vn 0.0000 1.0000 0.0000
vn -1.0000 0.0000 0.0000
vn 1.0000 0.0000 0.0000
vn 0.0000 -1.0000 0.0000
vn 0.0000 0.7964 -0.6048
vn 0.2315 0.7964 -0.5588
vn 0.2314 0.7964 -0.5588
vn 0.4277 0.7963 -0.4277
vn 0.5588 0.7963 -0.2315
vn 0.6049 0.7963 0.0000
vn 0.5588 0.7963 0.2315
vn 0.4277 0.7963 0.4277
vn 0.2315 0.7964 0.5588
vn 0.2314 0.7964 0.5588
vn 0.0000 0.7964 0.6048
vn -0.2314 0.7964 0.5587
vn -0.4276 0.7964 0.4276
vn -0.5586 0.7964 0.2314
vn -0.6047 0.7964 0.0000
vn -0.5586 0.7964 -0.2314
vn -0.4276 0.7964 -0.4276
vn -0.2314 0.7964 -0.5587
vn 0.3725 -0.8500 -0.3725
vn 0.4867 -0.8500 -0.2016
vn -0.7342 0.4424 0.5149
vn -0.5130 0.5104 0.6901
vn -0.3162 0.9481 0.0329
vn -0.5864 0.7679 0.2577
vn -0.6227 0.4592 0.6335
vn -0.4399 0.7839 0.4381
vn -0.5925 0.7672 0.2453
vn -0.2021 -0.8309 0.5184
vn 0.0130 -0.8111 0.5848
vn -0.0056 -0.5795 0.8149
vn -0.3142 -0.5821 0.7500
vn -0.3701 -0.8466 0.3824
vn -0.5744 -0.5846 0.5729
vn 0.5411 0.6418 -0.5433
vn 0.3039 0.6066 -0.7346
vn 0.1957 0.8502 -0.4888
vn 0.3506 0.8654 -0.3580
vn 0.2463 -0.7897 0.5619
vn 0.4578 -0.7703 0.4438
vn 0.5741 -0.5753 0.5825
vn 0.3063 -0.5772 0.7570
vn 0.0025 0.5603 -0.8282
vn -0.3240 0.5083 -0.7978
vn -0.2294 0.8064 -0.5450
vn -0.0054 0.8298 -0.5580
vn 0.6061 -0.7566 0.2451
vn 0.6594 -0.7517 0.0000
vn 0.8192 -0.5735 0.0000
vn 0.7552 -0.5740 0.3165
vn 0.6061 -0.7566 -0.2451
vn 0.4578 -0.7703 -0.4438
vn 0.5742 -0.5753 -0.5825
vn 0.7552 -0.5740 -0.3165
vn -0.3240 0.5083 0.7978
vn -0.2294 0.8064 0.5450
vn -0.6486 0.7611 0.0000
vn 0.2463 -0.7897 -0.5619
vn 0.0130 -0.8111 -0.5848
vn -0.0056 -0.5795 -0.8149
vn 0.3063 -0.5772 -0.7570
vn -0.2021 -0.8309 -0.5184
vn -0.3701 -0.8466 -0.3824
vn -0.5744 -0.5846 -0.5729
vn -0.3142 -0.5821 -0.7500
vn 0.5411 0.6418 0.5433
vn 0.6908 0.6635 0.2874
vn 0.4467 0.8746 0.1883
vn 0.3506 0.8654 0.3580
vn -0.4749 -0.8566 -0.2018
vn -0.5102 -0.8600 0.0000
vn -0.8093 -0.5874 0.0000
vn -0.7482 -0.5866 -0.3099
vn 0.0025 0.5603 0.8282
vn 0.3039 0.6066 0.7346
vn 0.1957 0.8502 0.4888
vn -0.0054 0.8298 0.5580
vn -0.9172 0.3983 -0.0033
vn -0.8737 0.4038 0.2711
vn -0.7225 0.4801 -0.4975
vn -0.8637 0.4251 -0.2707
vn -0.2562 0.6442 -0.7206
vn -0.5115 0.5563 -0.6549
vn 0.2496 0.8073 -0.5347
vn 0.0103 0.7323 -0.6808
vn 0.4934 0.8698 -0.0039
vn 0.4218 0.8564 -0.2977
vn 0.2876 0.7815 0.5536
vn 0.4469 0.8435 0.2977
vn -0.2394 0.5990 0.7641
vn 0.0440 0.6948 0.7178
vn -0.2552 -0.3685 -0.8939
vn -0.5575 -0.4699 -0.6843
vn -0.5675 -0.4734 -0.6737
vn -0.2724 -0.3743 -0.8864
vn -0.7571 -0.5387 -0.3695
vn -0.7600 -0.5397 -0.3621
vn 0.1021 -0.2520 -0.9623
vn 0.0818 -0.2587 -0.9625
vn -0.8265 -0.5629 0.0000
vn -0.7571 -0.5387 0.3695
vn -0.7600 -0.5397 0.3621
vn 0.9996 0.0280 0.0000
vn 0.9344 0.0081 -0.3562
vn 0.9315 0.0073 -0.3636
vn 0.7454 -0.0497 0.6648
vn 0.9344 0.0081 0.3562
vn 0.9315 0.0073 0.3636
vn 0.7354 -0.0529 0.6756
vn 0.1021 -0.2520 0.9623
vn 0.4545 -0.1402 0.8797
vn 0.4372 -0.1457 0.8875
vn 0.0818 -0.2587 0.9625
vn -0.5575 -0.4699 0.6843
vn -0.2552 -0.3685 0.8939
vn -0.2724 -0.3743 0.8864
vn -0.5675 -0.4734 0.6737
vn 0.7454 -0.0497 -0.6648
vn 0.4545 -0.1402 -0.8797
vn 0.4372 -0.1457 -0.8875
vn 0.7354 -0.0529 -0.6756
vn -0.4749 -0.8566 0.2018
vn -0.7482 -0.5866 0.3099
vn -0.5864 0.7679 -0.2577
vn -0.5925 0.7672 -0.2453
vn -0.6227 0.4592 -0.6335
vn -0.4399 0.7839 -0.4381
vn 0.6908 0.6635 -0.2874
vn 0.4467 0.8746 -0.1883
vn 0.7417 0.6707 0.0000
vn 0.4791 0.8777 0.0000
vn -0.9242 0.0411 0.3797
vn -0.9997 0.0221 0.0000
vn -0.9923 -0.1237 0.0000
vn -0.9123 -0.1149 0.3930
vn -0.6872 -0.0918 0.7206
vn -0.9242 0.0411 -0.3797
vn -0.6872 -0.0918 -0.7206
vn -0.9123 -0.1149 -0.3930
vn 0.0260 -0.0321 -0.9991
vn -0.3565 -0.0617 -0.9322
vn 0.7176 0.0094 -0.6964
vn 0.4023 -0.0078 -0.9154
vn 0.9006 0.4346 0.0000
vn 0.8404 0.4234 -0.3382
vn 0.8541 -0.3861 -0.3485
vn 0.9202 -0.3913 0.0000
vn 0.7176 0.0094 0.6964
vn 0.8404 0.4234 0.3382
vn 0.8541 -0.3861 0.3485
vn 0.0260 -0.0321 0.9991
vn 0.4023 -0.0078 0.9154
vn -0.3565 -0.0617 0.9322
vn 0.2053 -0.8439 -0.4957
vn 0.0000 -0.8438 -0.5365
vn 0.3725 -0.8500 0.3725
vn 0.2016 -0.8500 0.4867
vn -0.3725 -0.8500 0.3725
vn -0.4867 -0.8500 0.2016
vn -0.3725 -0.8500 -0.3725
vn -0.2016 -0.8500 -0.4867
vn 0.5268 -0.8500 0.0000
vn 0.0000 -0.8500 -0.5268
vn 0.2016 -0.8500 -0.4867
vn 0.0000 -0.8500 0.5268
vn -0.5268 -0.8500 0.0000
vn 0.4867 -0.8500 0.2016
vn -0.2016 -0.8500 0.4867
vn -0.4867 -0.8500 -0.2016
vn 0.3794 -0.8439 -0.3794
vn -0.2053 -0.8438 -0.4957
vn -0.3794 -0.8438 -0.3794
vn 0.2053 -0.8439 0.4957
vn 0.3794 -0.8439 0.3794
vn 0.4957 -0.8439 -0.2053
vn 0.5365 -0.8439 0.0000
vn 0.4957 -0.8439 0.2053
vn 0.0000 -0.8439 0.5365
vn -0.2053 -0.8439 0.4957
vn -0.3794 -0.8439 0.3794
vn -0.4957 -0.8438 0.2053
vn -0.5365 -0.8438 0.0000
vn -0.4957 -0.8438 -0.2053
usemtl None
s off
f 237/1/1 239/2/1 241/3/1 236/4/1
f 243/5/2 233/6/2 235/7/2 242/8/2
f 238/9/3 234/10/3 244/11/3 240/12/3
f 139/13/4 245/14/4 247/15/4 140/16/4
f 141/17/4 248/18/4 249/19/4 142/20/4
f 144/21/5 252/22/5 138/23/5 143/24/5
f 145/25/5 254/26/5 255/27/5 146/28/5
f 142/20/4 249/19/4 245/14/4 139/13/4
f 146/28/5 255/27/5 252/22/5 144/21/5
f 250/29/6 253/30/6 256/31/6 246/32/6
f 131/33/1 135/34/1 136/35/1 132/36/1
f 133/37/2 134/38/2 251/39/2 137/40/2
s 1
f 147/41/7 178/42/7 163/43/8 148/44/9
f 148/44/9 163/43/8 164/45/10 149/46/10
f 149/46/10 164/45/10 165/47/11 150/48/11
f 150/48/11 165/47/11 166/49/12 151/50/12
f 151/50/12 166/49/12 168/51/13 152/52/13
f 152/52/13 168/51/13 167/53/14 153/54/14
f 153/54/14 167/53/14 170/55/15 154/56/16
f 154/56/16 170/55/15 169/57/17 155/58/17
f 155/58/17 169/57/17 172/59/18 156/60/18
f 156/60/18 172/59/18 171/61/19 157/62/19
f 157/62/19 171/61/19 174/63/20 158/64/20
f 158/64/20 174/63/20 173/65/21 159/66/21
f 159/66/21 173/65/21 175/67/22 160/68/22
f 160/68/22 175/67/22 176/69/23 161/70/23
f 161/70/23 176/69/23 177/71/24 162/72/24
f 162/72/24 177/71/24 178/42/7 147/41/7
f 3/73/25 4/74/26 220/75/26 219/76/25
f 45/77/27 179/78/28 34/79/29
f 76/80/30 85/81/31 63/82/32 57/83/33
f 23/84/34 29/85/35 94/86/36 87/87/37
f 19/88/38 23/84/34 87/87/37 84/89/39
f 102/90/40 82/91/41 59/92/42 62/93/43
f 18/94/44 22/95/45 97/96/46 78/97/47
f 105/98/48 73/99/49 54/100/50 56/101/51
f 28/102/52 17/103/53 100/104/54 69/105/55
f 26/106/56 27/107/57 103/108/58 90/109/59
f 85/81/31 88/110/60 64/111/61 63/82/32
f 212/112/62 76/80/30 57/83/33 60/113/62
f 21/114/63 32/115/64 106/116/65 81/117/66
f 25/118/67 31/119/68 109/120/69 72/121/70
f 96/122/71 70/123/72 53/124/73 55/125/74
f 20/126/75 24/127/76 112/128/77 66/129/78
f 93/130/79 79/131/80 58/132/81 61/133/82
f 35/134/83 181/135/84 34/79/29
f 40/136/85 184/137/86 34/79/29
f 47/138/87 186/139/88 34/79/29
f 187/140/89 188/141/90 34/79/29
f 42/142/91 190/143/92 34/79/29
f 49/144/93 191/145/94 34/79/29
f 33/146/95 193/147/96 34/79/29
f 179/78/28 33/146/95 34/79/29
f 181/135/84 45/77/27 34/79/29
f 184/137/86 35/134/83 34/79/29
f 186/139/88 40/136/85 34/79/29
f 188/141/90 47/138/87 34/79/29
f 190/143/92 187/140/89 34/79/29
f 191/145/94 42/142/91 34/79/29
f 193/147/96 49/144/93 34/79/29
f 196/148/97 195/149/98 192/150/99 43/151/100
f 195/149/98 197/152/101 38/153/102 192/150/99
f 198/154/103 196/148/97 43/151/100 194/155/104
f 199/156/105 200/157/106 48/158/107 189/159/105
f 202/160/108 201/161/109 44/162/110 182/163/108
f 203/164/111 204/165/112 46/166/113 183/167/114
f 205/168/115 206/169/116 36/170/117 185/171/118
f 207/172/119 208/173/120 41/174/121 37/175/122
f 200/157/106 207/172/119 37/175/122 48/158/107
f 197/152/101 199/176/105 189/177/105 38/153/102
f 210/178/123 209/179/124 39/180/125 180/181/126
f 209/179/124 198/154/103 194/155/104 39/180/125
f 201/161/109 210/178/123 180/181/126 44/162/110
f 204/165/112 202/160/108 182/163/108 46/166/113
f 206/169/116 203/164/111 183/167/114 36/170/117
f 208/173/120 205/168/115 185/171/118 41/174/121
f 30/182/127 19/88/38 84/89/39 75/183/128
f 24/184/76 30/182/127 75/183/128 112/185/77
f 67/186/129 212/187/62 60/188/62 50/189/130
f 31/119/68 20/126/75 66/129/78 109/120/69
f 73/99/49 108/190/131 52/191/132 54/100/50
f 82/91/41 105/98/48 56/101/51 59/92/42
f 32/115/64 25/118/67 72/121/70 106/116/65
f 27/107/57 21/114/63 81/117/66 103/108/58
f 91/192/133 102/90/40 62/93/43 65/193/134
f 17/103/53 26/106/56 90/109/59 100/104/54
f 70/123/72 99/194/135 51/195/136 53/124/73
f 22/95/45 28/102/52 69/105/55 97/96/46
f 79/131/80 96/122/71 55/125/74 58/132/81
f 29/85/35 18/94/44 78/97/47 94/86/36
f 88/110/60 93/130/79 61/133/82 64/111/61
f 99/194/135 91/192/133 65/193/134 51/195/136
f 211/196/137 111/197/138 113/198/139 77/199/140
f 77/199/140 113/198/139 112/185/77 75/183/128
f 85/81/31 211/196/137 77/199/140 86/200/141
f 86/200/141 77/199/140 75/183/128 84/89/39
f 213/201/142 108/190/131 110/202/143 68/203/144
f 68/203/144 110/202/143 109/120/69 66/129/78
f 111/204/138 213/201/142 68/203/144 113/205/139
f 113/205/139 68/203/144 66/129/78 112/128/77
f 73/99/49 105/98/48 107/206/145 74/207/146
f 74/207/146 107/206/145 106/116/65 72/121/70
f 82/91/41 102/90/40 104/208/147 83/209/148
f 83/209/148 104/208/147 103/108/58 81/117/66
f 108/190/131 73/99/49 74/207/146 110/202/143
f 110/202/143 74/207/146 72/121/70 109/120/69
f 105/98/48 82/91/41 83/209/148 107/206/145
f 107/206/145 83/209/148 81/117/66 106/116/65
f 91/192/133 99/194/135 214/210/149 215/211/150
f 92/212/151 101/213/152 100/104/54 90/109/59
f 102/90/40 91/192/133 215/211/150 104/208/147
f 104/208/147 92/212/151 90/109/59 103/108/58
f 70/123/72 96/122/71 98/214/153 216/215/154
f 71/216/155 98/214/153 97/96/46 69/105/55
f 99/194/135 70/123/72 216/215/154 214/210/149
f 101/213/152 71/216/155 69/105/55 100/104/54
f 79/131/80 93/130/79 95/217/156 80/218/157
f 80/218/157 95/217/156 94/86/36 78/97/47
f 96/122/71 79/131/80 80/218/157 98/214/153
f 98/214/153 80/218/157 78/97/47 97/96/46
f 88/110/60 85/81/31 86/200/141 89/219/158
f 89/219/158 86/200/141 84/89/39 87/87/37
f 93/130/79 88/110/60 89/219/158 95/217/156
f 95/217/156 89/219/158 87/87/37 94/86/36
f 108/190/131 67/186/129 50/189/130 52/191/132
f 226/220/159 130/221/6 122/222/160
f 7/223/161 8/224/162 224/225/162 223/226/161
f 11/227/163 12/228/164 228/229/164 227/230/163
f 15/231/165 16/232/166 232/233/166 231/234/165
f 4/74/26 5/235/167 221/236/167 220/75/26
f 1/237/168 2/238/169 218/239/169 217/240/168
f 8/224/162 9/241/170 225/242/170 224/225/162
f 16/232/166 1/237/168 217/240/168 232/233/166
f 12/228/164 13/243/171 229/244/171 228/229/164
f 5/235/167 6/245/172 222/246/172 221/236/167
f 9/241/170 10/247/173 123/248/173 225/242/170
f 13/243/171 14/249/174 230/250/174 229/244/171
f 2/238/169 3/73/25 219/76/25 218/239/169
f 6/245/172 7/223/161 223/226/161 222/246/172
f 10/247/173 11/227/163 227/230/163 123/248/173
f 14/249/174 15/231/165 231/234/165 230/250/174
f 124/251/175 130/221/6 226/220/159
f 122/222/160 130/221/6 121/252/176
f 121/252/176 130/221/6 120/253/177
f 129/254/178 130/221/6 128/255/179
f 125/256/180 130/221/6 124/251/175
f 126/257/181 130/221/6 125/256/180
f 127/258/182 130/221/6 126/257/181
f 128/255/179 130/221/6 127/258/182
f 129/254/178 114/259/183 130/221/6
f 115/260/184 130/221/6 114/259/183
f 116/261/185 130/221/6 115/260/184
f 117/262/186 130/221/6 116/261/185
f 118/263/187 130/221/6 117/262/186
f 119/264/188 130/221/6 118/263/187
f 120/253/177 130/221/6 119/264/188
