# Blender v3.0.0 OBJ File: 'Freshen_Up.blend'
# www.blender.org
mtllib Freshen_Up.mtl
o Cube_Cube.001
v 1.121914 0.354275 0.050420
v 1.152432 0.205415 0.096311
v 1.131181 0.319466 0.065136
v 1.067204 0.352442 -0.052016
v 1.048404 0.201928 -0.098465
v 1.060682 0.317104 -0.066863
v 1.132269 0.403208 0.073455
v 1.071064 0.953562 0.000322
v 1.091232 0.896111 0.033719
v 1.053050 0.400553 -0.074870
v 1.093731 0.857676 0.035508
v 1.108130 0.819112 0.059536
v 1.055442 0.894912 -0.033292
v 1.156748 0.217743 0.105306
v 1.055953 0.856410 -0.035225
v 1.155703 0.209093 0.102702
v 1.148018 0.320031 0.096659
v 1.153214 0.308021 0.105475
v 1.151495 0.316579 0.102902
v 1.116141 0.755356 0.069729
v 1.044608 0.816983 -0.059399
v 1.043136 0.213935 -0.107415
v 1.044855 0.205378 -0.104843
v 1.043846 0.316540 -0.098386
v 1.039602 0.304214 -0.107247
v 1.121235 0.371620 0.050453
v 1.116135 0.744240 0.068884
v 1.040647 0.312864 -0.104642
v 1.041603 0.752858 -0.069830
v 1.066525 0.369786 -0.051984
v 1.126043 0.385453 0.060480
v 1.042478 0.741772 -0.069026
v 1.124744 0.681542 0.080275
v 1.060648 0.383262 -0.061961
v 1.125422 0.401322 0.060510
v 1.125062 0.673401 0.080260
v 1.038794 0.678661 -0.080652
v 1.060027 0.399130 -0.061931
v 1.127615 0.407308 0.065060
v 1.039112 0.670521 -0.080667
v 1.146495 0.642630 0.118025
v 1.057371 0.404954 -0.066459
v 1.148965 0.430933 0.106754
v 1.147202 0.624562 0.117991
v 1.020142 0.638396 -0.118550
v 1.034230 0.427088 -0.108068
v 1.151265 0.496460 0.115974
v 1.020849 0.620328 -0.118583
v 1.166678 0.559765 0.149545
v 1.026813 0.492289 -0.117044
v 1.153204 0.502910 0.120083
v 1.166970 0.552326 0.149532
v 1.006490 0.554397 -0.150381
v 1.149142 0.417825 0.106102
v 1.136574 0.400456 0.081298
v 1.146645 0.409181 0.100785
v 1.141098 0.400350 0.089749
v 1.144021 0.402883 0.095405
v 1.154562 0.425761 0.116832
v 1.156702 0.486714 0.125408
v 1.160993 0.424194 0.128739
v 1.162785 0.475234 0.135920
v 1.167813 0.428589 0.141821
v 1.169069 0.464362 0.146854
v 1.173500 0.439695 0.153289
v 1.173296 0.452496 0.153867
v 1.157568 0.503037 0.128252
v 1.169507 0.545896 0.153793
v 1.162448 0.504137 0.137459
v 1.172329 0.539610 0.158599
v 1.166465 0.505312 0.145059
v 1.173388 0.530165 0.159870
v 1.171302 0.509501 0.154418
v 1.172975 0.515506 0.157997
v 1.154492 0.615972 0.130978
v 1.169884 0.564765 0.155915
v 1.161348 0.607118 0.143132
v 1.172055 0.571494 0.160480
v 1.168492 0.592617 0.155403
v 1.171585 0.582326 0.160414
v 1.122062 0.729380 0.078853
v 1.128963 0.683168 0.088286
v 1.128109 0.719223 0.089397
v 1.132417 0.690725 0.095313
v 1.132705 0.709174 0.097236
v 1.134076 0.700108 0.099119
v 1.113125 0.811730 0.068323
v 1.120144 0.755869 0.077253
v 1.118562 0.803091 0.077839
v 1.124425 0.756426 0.085300
v 1.122801 0.793815 0.085069
v 1.127019 0.760245 0.090436
v 1.127215 0.781998 0.092435
v 1.128593 0.771026 0.094189
v 1.099417 0.848814 0.045475
v 1.105101 0.833592 0.054959
v 1.094093 0.885476 0.038270
v 1.095083 0.870252 0.038979
v 1.079824 0.924792 0.014541
v 1.024374 0.498593 -0.121129
v 1.006781 0.546957 -0.150395
v 1.035078 0.414002 -0.107465
v 1.048971 0.397520 -0.082724
v 1.038244 0.405548 -0.102179
v 1.044468 0.397112 -0.091175
v 1.041354 0.399442 -0.096823
v 1.029052 0.421555 -0.118165
v 1.022152 0.482205 -0.126515
v 1.022761 0.419561 -0.130079
v 1.016983 0.470348 -0.137070
v 1.015615 0.423488 -0.143145
v 1.011565 0.459084 -0.148046
v 1.009074 0.434185 -0.154573
v 1.008277 0.446966 -0.155103
v 1.020012 0.498427 -0.129298
v 1.004753 0.540375 -0.154681
v 1.015059 0.499197 -0.138502
v 1.002430 0.533916 -0.159511
v 1.010960 0.500100 -0.146098
v 1.002112 0.524425 -0.160817
v 1.005808 0.503955 -0.155442
v 1.003670 0.509832 -0.158999
v 1.014250 0.611272 -0.131603
v 1.002902 0.559169 -0.156732
v 1.008105 0.601982 -0.143791
v 1.000210 0.565735 -0.161273
v 1.002112 0.587041 -0.156117
v 0.999832 0.576570 -0.161167
v 1.037727 0.726554 -0.079051
v 1.034459 0.680001 -0.088657
v 1.032491 0.716018 -0.089634
v 1.030422 0.687306 -0.095657
v 1.028692 0.705688 -0.097512
v 1.028034 0.696554 -0.099428
v 1.040203 0.809286 -0.068213
v 1.037570 0.753101 -0.077353
v 1.035456 0.800306 -0.077763
v 1.033257 0.753371 -0.085398
v 1.031953 0.790770 -0.085028
v 1.030371 0.757006 -0.090520
v 1.028475 0.778689 -0.092438
v 1.027958 0.767653 -0.094234
v 1.050975 0.847191 -0.045225
v 1.046497 0.831628 -0.054767
v 1.053420 0.884113 -0.037884
v 1.053622 0.868862 -0.038649
v 1.064577 0.924281 -0.014006
v -0.983456 0.934839 0.974518
v 0.983934 0.934798 0.974684
v -0.986512 0.922153 0.979980
v 0.987186 0.922121 0.980011
v -0.996844 0.915278 0.995822
v 0.997628 0.915283 0.995655
v -1.008262 0.920842 1.011713
v 1.008998 0.920806 1.011559
v -1.012793 0.934843 1.017948
v 1.013519 0.934809 1.017861
v -1.008273 0.948842 1.011713
v 1.008986 0.948820 1.011659
v -0.996860 0.954405 0.995822
v 0.997497 0.954399 0.995899
v -0.986526 0.947529 0.979979
v 0.987003 0.947556 0.980206
v -0.983456 0.934839 -0.974518
v 0.983934 0.934799 -0.974684
v -0.986512 0.922153 -0.979980
v 0.987186 0.922121 -0.980011
v -0.996844 0.915278 -0.995822
v 0.997628 0.915283 -0.995655
v -1.008263 0.920842 -1.011713
v 1.008998 0.920806 -1.011559
v -1.012793 0.934843 -1.017948
v 1.013519 0.934809 -1.017861
v -1.008273 0.948842 -1.011713
v 1.008986 0.948820 -1.011659
v -0.996860 0.954405 -0.995822
v 0.997497 0.954399 -0.995899
v -0.986526 0.947529 -0.979980
v 0.987003 0.947556 -0.980206
v 1.071625 0.879329 -0.000000
v 1.062963 0.913022 -0.000000
v 1.080084 0.913222 -0.000000
v 1.059068 0.898823 -0.000000
v 1.062982 0.884516 -0.000000
v 1.080230 0.884552 -0.000000
v 1.071367 0.918253 -0.000000
v 1.084126 0.898855 -0.000000
vt 0.432247 0.100568
vt 0.507922 0.077011
vt 0.507922 0.222714
vt 0.432247 0.199310
vt 0.388622 0.104187
vt 0.397637 0.111660
vt 0.397637 0.188288
vt 0.388622 0.195779
vt 0.409090 0.111648
vt 0.409090 0.188276
vt 0.051126 0.125259
vt 0.076525 0.123841
vt 0.076525 0.176754
vt 0.051126 0.175387
vt 0.378144 0.104197
vt 0.378145 0.195790
vt 0.102272 0.105787
vt 0.102272 0.194757
vt 0.144490 0.098030
vt 0.151819 0.098640
vt 0.151819 0.201803
vt 0.144490 0.202428
vt 0.374246 0.100805
vt 0.374246 0.199189
vt 0.359139 0.069663
vt 0.359139 0.230362
vt 0.315982 0.062901
vt 0.315982 0.237211
vt 0.193353 0.089989
vt 0.193353 0.210371
vt 0.198728 0.089983
vt 0.219492 0.061668
vt 0.219492 0.238638
vt 0.198728 0.210365
vt 0.311771 0.059840
vt 0.311772 0.240280
vt 0.279491 0.037912
vt 0.279491 0.262273
vt 0.231421 0.061656
vt 0.231421 0.238626
vt 0.274579 0.037917
vt 0.274579 0.262278
vt 0.367786 0.070124
vt 0.377052 0.094517
vt 0.373431 0.074084
vt 0.378962 0.088644
vt 0.377526 0.078096
vt 0.379131 0.082322
vt 0.322528 0.055824
vt 0.362673 0.062114
vt 0.330232 0.047936
vt 0.363849 0.053203
vt 0.337540 0.039734
vt 0.361101 0.043426
vt 0.345458 0.034463
vt 0.353903 0.034869
vt 0.283786 0.034711
vt 0.311784 0.053730
vt 0.287994 0.031103
vt 0.311167 0.046844
vt 0.294245 0.030132
vt 0.310481 0.041161
vt 0.303902 0.031503
vt 0.307825 0.034169
vt 0.237247 0.051923
vt 0.271353 0.033163
vt 0.243237 0.042813
vt 0.266963 0.029762
vt 0.252956 0.033603
vt 0.259810 0.029833
vt 0.161749 0.091151
vt 0.192374 0.083999
vt 0.168580 0.083243
vt 0.187467 0.078758
vt 0.175308 0.077357
vt 0.181317 0.075930
vt 0.107250 0.099198
vt 0.144240 0.092403
vt 0.113067 0.092061
vt 0.143967 0.086384
vt 0.119277 0.086633
vt 0.141506 0.082549
vt 0.127167 0.081099
vt 0.134432 0.079764
vt 0.082494 0.116367
vt 0.092657 0.109241
vt 0.058201 0.121832
vt 0.068262 0.121271
vt 0.377052 0.205472
vt 0.367787 0.229883
vt 0.378962 0.211341
vt 0.373432 0.225912
vt 0.379132 0.217663
vt 0.377527 0.221892
vt 0.362674 0.237904
vt 0.322528 0.244275
vt 0.363850 0.246812
vt 0.330233 0.252147
vt 0.361102 0.256595
vt 0.337541 0.260334
vt 0.353904 0.265167
vt 0.345459 0.265589
vt 0.311785 0.246391
vt 0.283787 0.265466
vt 0.311167 0.253278
vt 0.287995 0.269066
vt 0.310481 0.258962
vt 0.294246 0.270024
vt 0.307826 0.265960
vt 0.303903 0.268633
vt 0.271353 0.267040
vt 0.237247 0.248348
vt 0.266963 0.270450
vt 0.243237 0.257446
vt 0.259811 0.270393
vt 0.252956 0.266636
vt 0.192374 0.216362
vt 0.161749 0.209272
vt 0.187467 0.221614
vt 0.168580 0.217167
vt 0.181317 0.224453
vt 0.175308 0.223039
vt 0.144240 0.208056
vt 0.107250 0.201335
vt 0.143967 0.214075
vt 0.113067 0.208460
vt 0.141506 0.217914
vt 0.119277 0.213875
vt 0.134432 0.220715
vt 0.127167 0.219394
vt 0.092657 0.191322
vt 0.082494 0.184216
vt 0.068262 0.179341
vt 0.058201 0.178799
vt 0.031961 0.139665
vt 0.031961 0.161020
vt 0.012797 0.150362
vt 0.505569 0.072238
vt 0.434600 0.072309
vt 0.440281 0.070367
vt 0.499888 0.070307
vt 0.432247 0.076987
vt 0.505569 0.227492
vt 0.499888 0.229435
vt 0.440281 0.229495
vt 0.434600 0.227563
vt 0.432247 0.222891
vt 0.021334 0.705899
vt 0.026408 0.705873
vt 0.107956 0.969995
vt 0.104749 0.978013
vt 0.527046 0.281520
vt 0.522545 0.281504
vt 0.550810 0.018780
vt 0.554941 0.026003
vt 0.517263 0.281484
vt 0.546517 0.010500
vt 0.530989 0.281535
vt 0.558886 0.033096
vt 0.030811 0.705851
vt 0.110783 0.962714
vt 0.036391 0.705824
vt 0.113708 0.956345
vt 0.015361 0.705929
vt 0.101339 0.985321
vt 0.536074 0.281553
vt 0.562680 0.039214
vt 0.514442 0.503808
vt 0.513683 0.901056
vt 0.507437 0.894514
vt 0.507534 0.510761
vt 0.973694 0.500115
vt 0.973883 0.076051
vt 0.981702 0.067817
vt 0.980806 0.508190
vt 0.989300 0.060833
vt 0.989300 0.515551
vt 0.968138 0.493497
vt 0.967889 0.082808
vt 0.502255 0.888602
vt 0.501936 0.516994
vt 0.494869 0.881853
vt 0.495905 0.523580
vt 0.960098 0.485739
vt 0.961357 0.090060
vt 0.521692 0.496714
vt 0.521692 0.908153
vt 0.101957 0.432387
vt 0.105263 0.440386
vt 0.548860 0.544811
vt 0.544470 0.552924
vt 0.098455 0.425107
vt 0.553070 0.537722
vt 0.557095 0.530751
vt 0.560965 0.524752
vt 0.108178 0.447650
vt 0.111183 0.453997
vn 0.8813 0.0354 -0.4713
vn 0.7777 0.6286 0.0000
vn 0.0032 1.0000 0.0000
vn 0.1294 0.9905 0.0467
vn 0.5161 0.6917 0.5051
vn -0.0319 -0.9995 0.0000
vn 0.7581 -0.6521 0.0000
vn 0.5144 -0.6836 0.5177
vn 0.1107 -0.9908 0.0773
vn 1.0000 -0.0069 0.0000
vn 0.6714 0.0052 0.7411
vn -0.7893 -0.6140 0.0000
vn -0.4203 -0.8270 -0.3734
vn -0.7872 0.6167 0.0000
vn -0.3924 0.8287 -0.3991
vn -1.0000 -0.0075 0.0000
vn -0.7210 0.0038 -0.6929
vn -0.5247 0.6972 -0.4884
vn -0.5247 0.6972 0.4884
vn -0.1226 0.9910 0.0529
vn -0.1226 0.9910 -0.0529
vn -0.1225 -0.9911 -0.0519
vn -0.1225 -0.9911 0.0519
vn -0.5242 -0.6985 0.4870
vn -0.5242 -0.6985 -0.4870
vn -0.6885 -0.0012 0.7252
vn -0.6885 -0.0013 -0.7252
vn 0.4328 -0.8267 0.3594
vn 0.4328 -0.8267 -0.3594
vn 0.4325 0.8273 -0.3584
vn 0.4325 0.8273 0.3584
vn 0.7582 0.0021 -0.6520
vn 0.7582 0.0021 0.6520
vn 0.5161 0.6917 -0.5051
vn 0.1294 0.9905 -0.0467
vn 0.5144 -0.6836 -0.5177
vn 0.6714 0.0052 -0.7411
vn 0.1107 -0.9908 -0.0773
vn -0.4203 -0.8270 0.3734
vn -0.7210 0.0038 0.6929
vn -0.3924 0.8287 0.3991
usemtl None
s off
f 3/1/1 2/2/1 5/3/1 6/4/1
f 31/5/1 26/6/1 30/7/1 34/8/1
f 26/6/1 1/9/1 4/10/1 30/7/1
f 1/9/1 3/1/1 6/4/1 4/10/1
f 9/11/1 11/12/1 15/13/1 13/14/1
f 35/15/1 31/5/1 34/8/1 38/16/1
f 11/12/1 12/17/1 21/18/1 15/13/1
f 20/19/1 27/20/1 32/21/1 29/22/1
f 12/17/1 20/19/1 29/22/1 21/18/1
f 39/23/1 35/15/1 38/16/1 42/24/1
f 43/25/1 39/23/1 42/24/1 46/26/1
f 47/27/1 43/25/1 46/26/1 50/28/1
f 27/20/1 33/29/1 37/30/1 32/21/1
f 36/31/1 41/32/1 45/33/1 40/34/1
f 51/35/1 47/27/1 50/28/1 100/36/1
f 33/29/1 36/31/1 40/34/1 37/30/1
f 52/37/1 51/35/1 100/36/1 101/38/1
f 41/32/1 44/39/1 48/40/1 45/33/1
f 44/39/1 49/41/1 53/42/1 48/40/1
f 43/25/1 54/43/1 7/44/1 39/23/1
f 54/43/1 56/45/1 55/46/1 7/44/1
f 56/45/1 58/47/1 57/48/1 55/46/1
f 47/27/1 60/49/1 59/50/1 43/25/1
f 60/49/1 62/51/1 61/52/1 59/50/1
f 62/51/1 64/53/1 63/54/1 61/52/1
f 64/53/1 66/55/1 65/56/1 63/54/1
f 52/37/1 68/57/1 67/58/1 51/35/1
f 68/57/1 70/59/1 69/60/1 67/58/1
f 70/59/1 72/61/1 71/62/1 69/60/1
f 72/61/1 74/63/1 73/64/1 71/62/1
f 44/39/1 75/65/1 76/66/1 49/41/1
f 75/65/1 77/67/1 78/68/1 76/66/1
f 77/67/1 79/69/1 80/70/1 78/68/1
f 27/20/1 81/71/1 82/72/1 33/29/1
f 81/71/1 83/73/1 84/74/1 82/72/1
f 83/73/1 85/75/1 86/76/1 84/74/1
f 12/17/1 87/77/1 88/78/1 20/19/1
f 87/77/1 89/79/1 90/80/1 88/78/1
f 89/79/1 91/81/1 92/82/1 90/80/1
f 91/81/1 93/83/1 94/84/1 92/82/1
f 11/12/1 95/85/1 96/86/1 12/17/1
f 9/11/1 97/87/1 98/88/1 11/12/1
f 46/26/1 42/24/1 10/89/1 102/90/1
f 102/90/1 10/89/1 103/91/1 104/92/1
f 104/92/1 103/91/1 105/93/1 106/94/1
f 50/28/1 46/26/1 107/95/1 108/96/1
f 108/96/1 107/95/1 109/97/1 110/98/1
f 110/98/1 109/97/1 111/99/1 112/100/1
f 112/100/1 111/99/1 113/101/1 114/102/1
f 101/38/1 100/36/1 115/103/1 116/104/1
f 116/104/1 115/103/1 117/105/1 118/106/1
f 118/106/1 117/105/1 119/107/1 120/108/1
f 120/108/1 119/107/1 121/109/1 122/110/1
f 48/40/1 53/42/1 124/111/1 123/112/1
f 123/112/1 124/111/1 126/113/1 125/114/1
f 125/114/1 126/113/1 128/115/1 127/116/1
f 32/21/1 37/30/1 130/117/1 129/118/1
f 129/118/1 130/117/1 132/119/1 131/120/1
f 131/120/1 132/119/1 134/121/1 133/122/1
f 21/18/1 29/22/1 136/123/1 135/124/1
f 135/124/1 136/123/1 138/125/1 137/126/1
f 137/126/1 138/125/1 140/127/1 139/128/1
f 139/128/1 140/127/1 142/129/1 141/130/1
f 15/13/1 21/18/1 144/131/1 143/132/1
f 13/14/1 15/13/1 146/133/1 145/134/1
f 49/41/1 52/37/1 101/38/1 53/42/1
f 99/135/1 9/11/1 13/14/1 147/136/1
f 147/136/1 8/137/1 99/135/1
f 16/138/1 19/139/1 18/140/1 14/141/1
f 2/2/1 17/142/1 19/139/1 16/138/1
f 2/2/1 3/1/1 17/142/1
f 23/143/1 22/144/1 25/145/1 28/146/1
f 5/3/1 23/143/1 28/146/1 24/147/1
f 5/3/1 24/147/1 6/4/1
s 1
f 182/148/2 186/149/3 161/150/4 159/151/5
f 180/152/6 185/153/7 155/154/8 153/155/9
f 185/153/7 187/156/10 157/157/11 155/154/8
f 184/158/12 180/152/6 153/155/9 151/159/13
f 186/149/3 181/160/14 163/161/15 161/150/4
f 181/160/14 183/162/16 149/163/17 163/161/15
f 187/164/10 182/148/2 159/151/5 157/165/11
f 183/166/16 184/158/12 151/159/13 149/167/17
f 174/168/18 158/169/19 160/170/20 176/171/21
f 168/172/22 152/173/23 154/174/24 170/175/25
f 170/175/25 154/174/24 156/176/26 172/177/27
f 166/178/28 150/179/29 152/173/23 168/172/22
f 176/171/21 160/170/20 162/180/30 178/181/31
f 178/181/31 162/180/30 148/182/32 164/183/33
f 164/184/33 148/185/32 150/179/29 166/178/28
f 172/186/27 156/187/26 158/169/19 174/168/18
f 175/188/34 174/168/18 176/171/21 177/189/35
f 171/190/36 170/175/25 172/177/27 173/191/37
f 173/192/37 172/186/27 174/168/18 175/188/34
f 169/193/38 168/172/22 170/175/25 171/190/36
f 167/194/39 166/178/28 168/172/22 169/193/38
f 165/195/40 164/184/33 166/178/28 167/194/39
f 179/196/41 178/181/31 164/183/33 165/197/40
f 161/150/4 163/161/15 162/180/30 160/170/20
f 159/151/5 161/150/4 160/170/20 158/169/19
f 157/165/11 159/151/5 158/169/19 156/187/26
f 155/154/8 157/157/11 156/176/26 154/174/24
f 153/155/9 155/154/8 154/174/24 152/173/23
f 151/159/13 153/155/9 152/173/23 150/179/29
f 149/167/17 151/159/13 150/179/29 148/185/32
f 163/161/15 149/163/17 148/182/32 162/180/30
f 177/189/35 176/171/21 178/181/31 179/196/41
f 165/195/40 167/194/39 184/158/12 183/166/16
f 173/192/37 175/188/34 182/148/2 187/164/10
f 179/196/41 165/197/40 183/162/16 181/160/14
f 177/189/35 179/196/41 181/160/14 186/149/3
f 167/194/39 169/193/38 180/152/6 184/158/12
f 171/190/36 173/191/37 187/156/10 185/153/7
f 169/193/38 171/190/36 185/153/7 180/152/6
f 175/188/34 177/189/35 186/149/3 182/148/2
