# Blender v3.0.0 OBJ File: ''
# www.blender.org
mtllib 45.mtl
o Hat_3_Cube.029
v 0.768069 -0.482795 0.944685
v 0.768069 -0.098092 0.944685
v -0.957617 -0.098092 0.944686
v -0.957617 -0.482795 0.944686
v -0.957618 -0.098092 -0.944687
v -0.957618 -0.482795 -0.944687
v 0.768069 -0.098092 -0.944687
v 0.768069 -0.482795 -0.944688
v -1.048771 -0.482795 1.035839
v 0.768069 -0.482795 1.035839
v 0.768069 -0.098092 1.035839
v -1.048772 -0.098092 1.035839
v -1.048771 -0.482795 -1.035841
v -1.048772 -0.098092 -1.035841
v 0.768069 -0.482795 -1.035841
v 0.768069 -0.098092 -1.035841
v 0.828191 0.630767 1.035839
v 0.828191 0.630767 -1.035841
v -1.048772 0.630767 -1.035841
v -1.048772 0.630767 1.035839
v 0.828191 1.015471 -1.035841
v 0.828191 1.015471 1.035839
v -1.048772 1.015470 1.035839
v -1.048772 1.015471 -1.035841
v 1.063162 -1.117029 1.087271
v 1.063162 1.078796 1.087271
v 0.755701 1.078796 1.087271
v 0.755701 -1.117029 1.087271
v 1.063162 1.078797 -1.087273
v 1.063162 -0.178571 0.978544
v 1.063162 -0.178571 -0.978546
v 0.755701 -1.117029 -1.087273
v 1.063162 -1.117029 -1.087273
v 0.755700 1.078797 -1.087273
v 1.110298 -0.294482 0.814906
v 1.110298 -0.294482 -0.814908
v 1.063162 -0.949993 0.978544
v 1.063162 -0.949993 -0.978547
v 1.110298 -0.834081 -0.814908
v 1.110298 -0.834082 0.814906
v 0.534395 0.773253 1.100321
v 0.534395 0.858699 1.100321
v 0.448950 0.858699 1.100321
v 0.448950 0.773253 1.100321
v 0.406227 0.901421 1.037293
v 0.406227 0.730532 1.037293
v 0.577117 0.730532 1.037293
v 0.577117 0.901421 1.037293
v -0.692582 0.773253 1.100320
v -0.692582 0.858698 1.100320
v -0.778026 0.858698 1.100320
v -0.778026 0.773253 1.100320
v -0.820749 0.901421 1.037291
v -0.820749 0.730532 1.037291
v -0.649859 0.730532 1.037291
v -0.649859 0.901421 1.037291
v 0.125403 0.773253 1.100320
v 0.125403 0.858699 1.100320
v 0.039958 0.858699 1.100320
v 0.039958 0.773253 1.100320
v -0.002765 0.901421 1.037291
v -0.002765 0.730532 1.037291
v 0.168125 0.730532 1.037291
v 0.168125 0.901421 1.037291
v -0.283590 0.773253 1.100320
v -0.283590 0.858699 1.100320
v -0.369034 0.858699 1.100320
v -0.369034 0.773253 1.100320
v -0.411757 0.901421 1.037291
v -0.411757 0.730532 1.037291
v -0.240867 0.730532 1.037291
v -0.240867 0.901421 1.037291
v 0.534394 0.773254 -1.100321
v 0.448950 0.773254 -1.100321
v 0.448950 0.858699 -1.100321
v 0.534394 0.858699 -1.100321
v 0.406227 0.730532 -1.037293
v 0.406227 0.901421 -1.037293
v 0.577117 0.730532 -1.037293
v 0.577117 0.901422 -1.037293
v -0.692582 0.773254 -1.100319
v -0.778027 0.773254 -1.100319
v -0.778027 0.858699 -1.100319
v -0.692582 0.858699 -1.100319
v -0.820749 0.730532 -1.037291
v -0.820749 0.901421 -1.037291
v -0.649859 0.730532 -1.037291
v -0.649859 0.901421 -1.037291
v 0.125402 0.773254 -1.100319
v 0.039958 0.773254 -1.100319
v 0.039958 0.858699 -1.100319
v 0.125402 0.858699 -1.100319
v -0.002765 0.730532 -1.037291
v -0.002765 0.901421 -1.037291
v 0.168125 0.730532 -1.037291
v 0.168125 0.901421 -1.037291
v -0.283590 0.773254 -1.100319
v -0.369034 0.773254 -1.100319
v -0.369034 0.858699 -1.100319
v -0.283590 0.858699 -1.100319
v -0.411757 0.730532 -1.037291
v -0.411757 0.901421 -1.037291
v -0.240867 0.730532 -1.037291
v -0.240867 0.901421 -1.037291
v 1.171335 -0.779960 0.718934
v 1.171335 -0.707164 0.718934
v 1.096475 -0.670766 0.755332
v 1.096475 -0.816359 0.755332
v 1.096475 -0.816359 0.609739
v 1.096475 -0.670766 0.609739
v 1.171335 -0.707164 0.646138
v 1.171335 -0.779960 0.646138
v 1.171335 -0.427966 0.718935
v 1.171335 -0.355169 0.718935
v 1.096475 -0.318771 0.755333
v 1.096475 -0.464364 0.755333
v 1.096475 -0.464364 0.609740
v 1.096475 -0.318771 0.609740
v 1.171335 -0.355169 0.646139
v 1.171335 -0.427966 0.646139
v 1.171335 -0.779960 -0.718932
v 1.096475 -0.816358 -0.755330
v 1.096475 -0.670766 -0.755330
v 1.171335 -0.707164 -0.718932
v 1.096475 -0.816358 -0.609737
v 1.171335 -0.779960 -0.646136
v 1.171335 -0.707164 -0.646136
v 1.096475 -0.670766 -0.609737
v 1.171335 -0.427965 -0.718933
v 1.096475 -0.464364 -0.755331
v 1.096475 -0.318770 -0.755331
v 1.171335 -0.355169 -0.718933
v 1.096475 -0.464364 -0.609738
v 1.171335 -0.427965 -0.646137
v 1.171335 -0.355169 -0.646137
v 1.096475 -0.318770 -0.609738
v 1.213330 0.050292 -0.815480
v 1.213330 0.727811 -0.815480
v 1.213330 0.647515 -0.738721
v 1.213330 0.130588 -0.738721
v 1.213330 0.727810 0.815477
v 1.213330 0.050292 0.815477
v 1.213330 0.130588 0.738719
v 1.213330 0.647515 0.738719
v 1.169072 0.130588 0.738719
v 1.169071 0.647515 0.738719
v 1.063162 0.754752 -0.890316
v 1.063162 0.754752 0.890314
v 1.169072 0.130588 -0.738721
v 1.169071 0.647515 -0.738721
v 1.063162 -0.047270 0.890314
v 1.063162 -0.047270 -0.890316
vt 0.970246 0.713791
vt 0.970247 0.486345
vt 0.919543 0.486345
vt 0.919542 0.713791
vt 0.970247 0.237325
vt 0.919543 0.237325
vt 0.970246 0.009879
vt 0.919542 0.009879
vt 0.638752 0.460478
vt 0.626737 0.460478
vt 0.626737 0.699949
vt 0.638752 0.687934
vt 0.638750 0.762665
vt 0.626737 0.750651
vt 0.626737 0.990108
vt 0.638750 0.990108
vt 0.899779 0.699947
vt 0.887764 0.687934
vt 0.887764 0.762665
vt 0.899779 0.750650
vt 0.899779 0.460491
vt 0.887764 0.460491
vt 0.887764 0.990121
vt 0.899779 0.990121
vt 0.576034 0.750651
vt 0.576034 0.990108
vt 0.950485 0.990121
vt 0.950485 0.750650
vt 0.061499 0.681466
vt 0.308884 0.681466
vt 0.308884 0.408418
vt 0.061499 0.408418
vt 0.606972 0.408418
vt 0.359587 0.408418
vt 0.359587 0.681466
vt 0.606972 0.681466
vt 0.359587 0.732170
vt 0.606972 0.732170
vt 0.606972 0.357715
vt 0.359587 0.357715
vt 0.050405 0.337018
vt 0.339816 0.337018
vt 0.339816 0.377541
vt 0.050405 0.377541
vt 0.339816 0.050412
vt 0.174093 0.322688
vt 0.174095 0.064743
vt 0.009882 0.337018
vt 0.009882 0.050412
vt 0.050404 0.050412
vt 0.669751 0.337018
vt 0.380340 0.337018
vt 0.380338 0.050412
vt 0.669749 0.050412
vt 0.050405 0.009888
vt 0.339816 0.009888
vt 0.793597 0.286915
vt 0.793597 0.545862
vt 0.776986 0.523348
vt 0.777113 0.309598
vt 0.072420 0.322688
vt 0.072420 0.064743
vt 0.706125 0.309114
vt 0.705997 0.522864
vt 0.689514 0.286599
vt 0.689514 0.545547
vt 0.639326 0.370321
vt 0.650589 0.370321
vt 0.650589 0.381582
vt 0.639326 0.381582
vt 0.656220 0.391618
vt 0.633697 0.391618
vt 0.633697 0.360285
vt 0.656220 0.360285
vt 0.629291 0.387213
vt 0.629291 0.364690
vt 0.660624 0.387213
vt 0.660624 0.364690
vt 0.134887 0.715528
vt 0.146148 0.715528
vt 0.146148 0.726789
vt 0.134887 0.726789
vt 0.151780 0.736824
vt 0.129256 0.736824
vt 0.129256 0.705492
vt 0.151780 0.705492
vt 0.124852 0.732420
vt 0.124852 0.709896
vt 0.156184 0.732420
vt 0.156184 0.709896
vt 0.022530 0.715517
vt 0.033791 0.715517
vt 0.033791 0.726778
vt 0.022530 0.726778
vt 0.039422 0.736814
vt 0.016899 0.736814
vt 0.016899 0.705481
vt 0.039422 0.705481
vt 0.012494 0.732409
vt 0.012494 0.709886
vt 0.043827 0.732409
vt 0.043827 0.709886
vt 0.104792 0.220871
vt 0.104792 0.209610
vt 0.116053 0.209610
vt 0.116053 0.220871
vt 0.126089 0.203979
vt 0.126089 0.226502
vt 0.094757 0.226502
vt 0.094757 0.203979
vt 0.121684 0.230906
vt 0.099161 0.230906
vt 0.121684 0.199574
vt 0.099161 0.199574
vt 0.116055 0.098935
vt 0.116055 0.110196
vt 0.104794 0.110196
vt 0.104794 0.098935
vt 0.121686 0.120232
vt 0.099162 0.120232
vt 0.121686 0.088899
vt 0.099162 0.088899
vt 0.126090 0.093304
vt 0.126090 0.115827
vt 0.094757 0.115827
vt 0.094757 0.093304
vt 0.078731 0.715528
vt 0.089994 0.715528
vt 0.089994 0.726789
vt 0.078731 0.726789
vt 0.100029 0.709896
vt 0.100029 0.732420
vt 0.068696 0.709896
vt 0.068696 0.732420
vt 0.073100 0.705492
vt 0.095624 0.705492
vt 0.095624 0.736824
vt 0.073100 0.736824
vt 0.117716 0.165533
vt 0.106455 0.165533
vt 0.106455 0.154272
vt 0.117716 0.154272
vt 0.096420 0.171164
vt 0.096420 0.148640
vt 0.127752 0.171164
vt 0.127752 0.148640
vt 0.123348 0.175568
vt 0.100824 0.175568
vt 0.100824 0.144236
vt 0.123348 0.144236
vt 0.106456 0.276207
vt 0.106456 0.264946
vt 0.117718 0.264946
vt 0.117718 0.276207
vt 0.100826 0.254911
vt 0.123349 0.254911
vt 0.100826 0.286243
vt 0.123349 0.286243
vt 0.096420 0.281839
vt 0.096420 0.259315
vt 0.127754 0.259315
vt 0.127754 0.281839
vt 0.888431 0.083149
vt 0.888431 0.073554
vt 0.899402 0.068757
vt 0.899402 0.087946
vt 0.867865 0.087946
vt 0.867865 0.068757
vt 0.878836 0.073554
vt 0.878836 0.083149
vt 0.893229 0.094120
vt 0.874039 0.094120
vt 0.874039 0.062583
vt 0.893228 0.062583
vt 0.888424 0.188545
vt 0.888424 0.178951
vt 0.899395 0.174154
vt 0.899395 0.193342
vt 0.867859 0.193342
vt 0.867859 0.174154
vt 0.878830 0.178951
vt 0.878830 0.188545
vt 0.893221 0.199516
vt 0.874033 0.199516
vt 0.874033 0.167980
vt 0.893221 0.167980
vt 0.888431 0.030454
vt 0.893228 0.041425
vt 0.874039 0.041425
vt 0.878836 0.030454
vt 0.893228 0.009888
vt 0.888431 0.020859
vt 0.878836 0.020859
vt 0.874039 0.009888
vt 0.899402 0.035252
vt 0.899402 0.016062
vt 0.867865 0.016062
vt 0.867865 0.035251
vt 0.878836 0.135844
vt 0.867865 0.140641
vt 0.867865 0.121452
vt 0.878836 0.126249
vt 0.899402 0.140641
vt 0.888431 0.135844
vt 0.888431 0.126249
vt 0.899402 0.121452
vt 0.874039 0.146815
vt 0.893228 0.146815
vt 0.893228 0.115278
vt 0.874039 0.115278
vt 0.713111 0.031996
vt 0.802407 0.031995
vt 0.791825 0.042112
vt 0.723695 0.042112
vt 0.802408 0.246957
vt 0.713111 0.246957
vt 0.723693 0.236841
vt 0.791826 0.236840
vt 0.842273 0.535593
vt 0.842273 0.467461
vt 0.848106 0.467461
vt 0.848106 0.535593
vt 0.822515 0.022132
vt 0.822517 0.256820
vt 0.853252 0.565878
vt 0.853252 0.634010
vt 0.658525 0.634010
vt 0.658525 0.565878
vt 0.805959 0.269071
vt 0.700253 0.269071
vt 0.689508 0.256820
vt 0.689508 0.022133
vt 0.842273 0.272735
vt 0.842273 0.204602
vt 0.848106 0.204602
vt 0.848106 0.272735
vt 0.842273 0.009879
vt 0.848106 0.009879
vt 0.805958 0.009881
vt 0.700252 0.009883
vn -0.0000 0.0000 -1.0000
vn 1.0000 0.0000 -0.0000
vn 0.0000 -0.0000 1.0000
vn -0.0000 -1.0000 0.0000
vn -0.0000 1.0000 0.0000
vn -1.0000 -0.0000 -0.0000
vn 0.9263 0.3767 0.0000
vn 0.9609 0.0000 -0.2768
vn 0.9263 -0.3767 -0.0000
vn 0.9609 -0.0000 0.2768
vn -0.8278 0.0000 0.5611
vn 0.8278 0.0000 0.5611
vn 0.0000 -0.8278 0.5611
vn 0.0000 0.8278 0.5611
vn -0.8278 0.0000 -0.5611
vn 0.8278 0.0000 -0.5611
vn 0.0000 -0.8278 -0.5611
vn -0.0000 0.8278 -0.5611
vn 0.4373 0.0000 0.8993
vn 0.4373 0.0000 -0.8993
vn 0.4373 -0.8993 0.0000
vn 0.4373 0.8993 0.0000
vn 0.1766 0.9843 0.0000
vn 0.4460 -0.0000 0.8950
vn 0.5448 -0.8386 -0.0000
vn 0.4460 0.0000 -0.8950
usemtl None.014
s 1
f 1/1/1 4/2/1 3/3/1 2/4/1
f 4/2/2 6/5/2 5/6/2 3/3/2
f 6/5/3 8/7/3 7/8/3 5/6/3
f 1/9/4 10/10/4 9/11/4 4/12/4
f 3/13/5 12/14/5 11/15/5 2/16/5
f 4/12/4 9/11/4 13/17/4 6/18/4
f 5/19/5 14/20/5 12/14/5 3/13/5
f 6/18/4 13/17/4 15/21/4 8/22/4
f 7/23/5 16/24/5 14/20/5 5/19/5
f 9/25/3 10/26/3 11/15/3 12/14/3
f 15/27/1 13/28/1 14/20/1 16/24/1
f 13/17/6 9/11/6 12/14/6 14/20/6
f 17/29/4 20/30/4 19/31/4 18/32/4
f 21/33/5 24/34/5 23/35/5 22/36/5
f 20/37/3 17/38/3 22/36/3 23/35/3
f 18/39/1 19/40/1 24/34/1 21/33/1
f 19/31/6 20/30/6 23/35/6 24/34/6
f 25/41/3 26/42/3 27/43/3 28/44/3
f 29/45/2 26/42/2 30/46/2 31/47/2
f 28/48/4 32/49/4 33/50/4 25/41/4
f 28/51/6 27/52/6 34/53/6 32/54/6
f 32/55/1 34/56/1 29/45/1 33/50/1
f 34/53/5 27/52/5 26/42/5 29/45/5
f 31/57/7 30/58/7 35/59/7 36/60/7
f 26/42/2 25/41/2 37/61/2 30/46/2
f 25/41/2 33/50/2 38/62/2 37/61/2
f 33/50/2 29/45/2 31/47/2 38/62/2
f 39/63/2 36/60/2 35/59/2 40/64/2
f 38/65/8 31/57/8 36/60/8 39/63/8
f 37/66/9 38/65/9 39/63/9 40/64/9
f 30/58/10 37/66/10 40/64/10 35/59/10
f 41/67/3 42/68/3 43/69/3 44/70/3
f 44/70/11 43/69/11 45/71/11 46/72/11
f 47/73/12 48/74/12 42/68/12 41/67/12
f 44/70/13 46/75/13 47/76/13 41/67/13
f 45/77/14 43/69/14 42/68/14 48/78/14
f 49/79/3 50/80/3 51/81/3 52/82/3
f 52/82/11 51/81/11 53/83/11 54/84/11
f 55/85/12 56/86/12 50/80/12 49/79/12
f 52/82/13 54/87/13 55/88/13 49/79/13
f 53/89/14 51/81/14 50/80/14 56/90/14
f 57/91/3 58/92/3 59/93/3 60/94/3
f 60/94/11 59/93/11 61/95/11 62/96/11
f 63/97/12 64/98/12 58/92/12 57/91/12
f 60/94/13 62/99/13 63/100/13 57/91/13
f 61/101/14 59/93/14 58/92/14 64/102/14
f 65/103/3 66/104/3 67/105/3 68/106/3
f 68/106/11 67/105/11 69/107/11 70/108/11
f 71/109/12 72/110/12 66/104/12 65/103/12
f 68/106/13 70/111/13 71/112/13 65/103/13
f 69/113/14 67/105/14 66/104/14 72/114/14
f 73/115/1 74/116/1 75/117/1 76/118/1
f 74/116/15 77/119/15 78/120/15 75/117/15
f 79/121/16 73/115/16 76/118/16 80/122/16
f 74/116/17 73/115/17 79/123/17 77/124/17
f 78/125/18 80/126/18 76/118/18 75/117/18
f 81/127/1 82/128/1 83/129/1 84/130/1
f 82/128/15 85/131/15 86/132/15 83/129/15
f 87/133/16 81/127/16 84/130/16 88/134/16
f 82/128/17 81/127/17 87/135/17 85/136/17
f 86/137/18 88/138/18 84/130/18 83/129/18
f 89/139/1 90/140/1 91/141/1 92/142/1
f 90/140/15 93/143/15 94/144/15 91/141/15
f 95/145/16 89/139/16 92/142/16 96/146/16
f 90/140/17 89/139/17 95/147/17 93/148/17
f 94/149/18 96/150/18 92/142/18 91/141/18
f 97/151/1 98/152/1 99/153/1 100/154/1
f 98/152/15 101/155/15 102/156/15 99/153/15
f 103/157/16 97/151/16 100/154/16 104/158/16
f 98/152/17 97/151/17 103/159/17 101/160/17
f 102/161/18 104/162/18 100/154/18 99/153/18
f 105/163/19 106/164/19 107/165/19 108/166/19
f 109/167/20 110/168/20 111/169/20 112/170/20
f 112/170/2 111/169/2 106/164/2 105/163/2
f 108/171/21 109/172/21 112/170/21 105/163/21
f 110/173/22 107/174/22 106/164/22 111/169/22
f 113/175/19 114/176/19 115/177/19 116/178/19
f 117/179/20 118/180/20 119/181/20 120/182/20
f 120/182/2 119/181/2 114/176/2 113/175/2
f 116/183/21 117/184/21 120/182/21 113/175/21
f 118/185/22 115/186/22 114/176/22 119/181/22
f 121/187/20 122/188/20 123/189/20 124/190/20
f 125/191/19 126/192/19 127/193/19 128/194/19
f 126/192/2 121/187/2 124/190/2 127/193/2
f 122/195/21 121/187/21 126/192/21 125/196/21
f 128/197/22 127/193/22 124/190/22 123/198/22
f 129/199/20 130/200/20 131/201/20 132/202/20
f 133/203/19 134/204/19 135/205/19 136/206/19
f 134/204/2 129/199/2 132/202/2 135/205/2
f 130/207/21 129/199/21 134/204/21 133/208/21
f 136/209/22 135/205/22 132/202/22 131/210/22
f 137/211/2 138/212/2 139/213/2 140/214/2
f 141/215/2 142/216/2 143/217/2 144/218/2
f 144/219/1 143/220/1 145/221/1 146/222/1
f 141/215/23 138/212/23 147/223/23 148/224/23
f 149/225/2 150/226/2 146/227/2 145/228/2
f 142/216/24 141/215/24 148/229/24 151/230/24
f 137/211/25 142/216/25 151/231/25 152/232/25
f 140/233/3 139/234/3 150/235/3 149/236/3
f 139/234/4 144/237/4 146/238/4 150/235/4
f 142/216/2 137/211/2 140/214/2 143/217/2
f 143/220/5 140/233/5 149/236/5 145/221/5
f 138/212/2 141/215/2 144/218/2 139/213/2
f 147/239/26 138/212/26 137/211/26 152/240/26
