# Blender v2.79 (sub 0) OBJ File: '24_Fish.blend'
# www.blender.org
mtllib hat_24.mtl
o Cube.002_Cube.004
v -0.540771 0.000002 0.545941
v -0.540771 0.997875 0.545941
v 0.540771 0.000002 0.545941
v 0.540771 0.997875 0.545941
v 0.540771 0.000002 0.388847
v 0.540771 0.678479 0.388847
v -0.392969 0.000002 0.388847
v -0.392969 0.678479 0.388847
v -0.540771 0.000002 -0.545941
v -0.540771 0.997875 -0.545941
v 0.540771 0.000002 -0.545941
v 0.540771 0.997875 -0.545941
v 0.540771 0.000002 -0.388847
v 0.540771 0.678479 -0.388847
v -0.392969 0.000002 -0.388847
v -0.392969 0.678479 -0.388847
v 0.006116 0.000002 0.545941
v 0.006116 0.000002 0.388847
v 0.006116 0.000002 -0.545941
v 0.006116 0.000002 -0.388847
v 0.164323 0.000002 0.545941
v 0.164323 0.000002 -0.545941
v 0.164323 0.000002 0.388847
v 0.164323 0.000002 -0.388847
v 0.164323 -0.202747 0.388847
v 0.006116 -0.202747 0.388847
v 0.164323 -0.202747 -0.388847
v 0.006116 -0.202747 -0.388847
v 0.006116 -0.202747 -0.545941
v 0.006116 -0.202747 0.545941
v 0.164323 -0.202747 0.545941
v 0.164323 -0.202747 -0.545941
v 0.540771 0.678479 -0.082936
v 0.540771 0.678479 0.082936
v 0.540771 0.997875 0.082936
v 0.540771 0.997875 -0.082936
v -0.540771 0.997875 0.082936
v -0.540771 0.997875 -0.082936
v -0.540771 0.000002 0.082936
v -0.540771 0.000002 -0.082936
v 0.623933 0.678479 -0.082936
v 0.623933 0.678479 0.082936
v 0.623933 1.058674 0.082936
v 0.623933 1.058674 -0.082936
v -0.620605 1.058674 0.082936
v -0.620605 1.058674 -0.082936
v -0.620605 0.000002 0.082936
v -0.620605 0.000002 -0.082936
v 0.549938 1.043535 0.057604
v 0.549938 1.043535 -0.057604
v -0.607245 0.079070 0.057604
v -0.607245 0.079070 -0.057604
v 0.342515 1.043535 0.057604
v 0.135092 1.043535 0.057604
v -0.072332 1.043535 0.057604
v -0.279755 1.043535 0.057604
v -0.487178 1.043535 0.057604
v 0.342515 1.043535 -0.057604
v 0.135092 1.043535 -0.057604
v -0.072332 1.043535 -0.057604
v -0.279755 1.043535 -0.057604
v -0.487178 1.043535 -0.057604
v -0.607245 0.961297 0.057604
v -0.607245 0.784851 0.057604
v -0.607245 0.608406 0.057604
v -0.607245 0.431961 0.057604
v -0.607245 0.255516 0.057604
v -0.607245 0.961297 -0.057604
v -0.607245 0.784851 -0.057604
v -0.607245 0.608406 -0.057604
v -0.607245 0.431961 -0.057604
v -0.607245 0.255516 -0.057604
v -0.781570 0.079070 0.057604
v -0.781570 0.079070 -0.057604
v -0.781570 0.255516 0.057604
v -0.781570 0.255516 -0.057604
v -0.781570 0.961297 0.057604
v -0.781570 0.784851 0.057604
v -0.781570 0.608406 0.057604
v -0.781570 0.431961 0.057604
v -0.781570 0.961297 -0.057604
v -0.781570 0.784851 -0.057604
v -0.781570 0.608406 -0.057604
v -0.781570 0.431961 -0.057604
v 0.549938 1.248810 0.057604
v 0.549938 1.248810 -0.057604
v 0.342515 1.248810 0.057604
v 0.135092 1.248810 0.057604
v -0.072332 1.248810 0.057604
v -0.279755 1.248810 0.057604
v -0.487178 1.248810 0.057604
v 0.342515 1.248810 -0.057604
v 0.135092 1.248810 -0.057604
v -0.072332 1.248810 -0.057604
v -0.279755 1.248810 -0.057604
v -0.487178 1.248810 -0.057604
vt 0.250824 0.268079
vt 0.250824 0.360524
vt 0.051586 0.360524
vt 0.051586 0.268078
vt 0.118184 0.607047
vt 0.068675 0.607047
vt 0.068675 0.568415
vt 0.118184 0.568415
vt 0.962858 0.679118
vt 0.962858 0.761464
vt 0.711512 0.761464
vt 0.528878 0.761464
vt 0.528878 0.552122
vt 0.711512 0.552122
vt 0.036902 0.892838
vt 0.018143 0.892838
vt 0.018143 0.853864
vt 0.036902 0.853864
vt 0.962858 0.552122
vt 0.962858 0.634468
vt 0.667418 0.853863
vt 0.578084 0.853863
vt 0.592369 0.834322
vt 0.667418 0.834323
vt 0.250824 0.486086
vt 0.051586 0.486086
vt 0.051586 0.393642
vt 0.250824 0.393642
vt 0.156544 0.656556
vt 0.118184 0.656556
vt 0.156544 0.607047
vt 0.466767 0.393642
vt 0.466767 0.486086
vt 0.466768 0.037475
vt 0.466768 0.068840
vt 0.391606 0.068840
vt 0.391606 0.037475
vt 0.466767 0.716690
vt 0.391605 0.716690
vt 0.391605 0.685324
vt 0.466767 0.685324
vt 0.156544 0.568415
vt 0.156830 0.720237
vt 0.156830 0.758597
vt 0.118197 0.758597
vt 0.118197 0.720237
vt 0.068688 0.758597
vt 0.068688 0.720237
vt 0.206338 0.720237
vt 0.206338 0.758597
vt 0.118184 0.518906
vt 0.156544 0.518906
vt 0.360017 0.068840
vt 0.466768 0.268079
vt 0.466768 0.360524
vt 0.036902 0.911597
vt 0.285656 0.892838
vt 0.271370 0.911597
vt 0.667418 0.892838
vt 0.578084 0.892838
vt 0.285656 0.853863
vt 0.036902 0.835105
vt 0.271370 0.835105
vt 0.304415 0.839578
vt 0.558543 0.839577
vt 0.304415 0.907124
vt 0.558543 0.907124
vt 0.667418 0.912378
vt 0.592369 0.912378
vt 0.530540 0.299444
vt 0.530540 0.360524
vt 0.530538 0.393642
vt 0.530538 0.454721
vt 0.962858 0.369488
vt 0.861525 0.369488
vt 0.666007 0.268078
vt 0.666007 0.299444
vt 0.666005 0.454721
vt 0.666005 0.486086
vt 0.711512 0.369488
vt 0.818938 0.369488
vt 0.156830 0.808106
vt 0.118197 0.808106
vt 0.686958 0.853863
vt 0.686958 0.892838
vt 0.250825 0.068840
vt 0.206053 0.568415
vt 0.206053 0.607047
vt 0.818938 0.944098
vt 0.711512 0.944098
vt 0.962858 0.944098
vt 0.861525 0.944098
vt 0.118197 0.670728
vt 0.156830 0.670728
vt 0.360017 0.685324
vt 0.250824 0.685324
vt 0.022076 0.454721
vt 0.360017 0.716690
vt 0.280335 0.716690
vt 0.360017 0.037475
vt 0.280335 0.037475
vt 0.022076 0.299444
vt 0.670864 0.236553
vt 0.588364 0.236553
vt 0.588364 0.154907
vt 0.670864 0.154907
vt 0.752509 0.109085
vt 0.752509 0.154907
vt 0.670863 0.154907
vt 0.670864 0.109085
vt 0.588364 0.027438
vt 0.670864 0.027439
vt 0.588363 0.109084
vt 0.821361 0.137410
vt 0.891540 0.137410
vt 0.891540 0.206745
vt 0.821361 0.206745
vt 0.752026 0.252568
vt 0.752026 0.206746
vt 0.821361 0.206746
vt 0.821361 0.252568
vt 0.891540 0.321904
vt 0.821361 0.321904
vt 0.891540 0.252568
vt 0.891540 0.252568
vt 0.821361 0.252568
vt 0.891540 0.252568
vt 0.821361 0.252568
vt 0.821361 0.206746
vt 0.891540 0.206746
vt 0.891540 0.206746
vt 0.891540 0.321904
vt 0.821361 0.321904
vt 0.960876 0.206745
vt 0.960876 0.252568
vt 0.752026 0.252568
vt 0.752026 0.206745
vt 0.960876 0.206746
vt 0.960876 0.252568
vt 0.891540 0.321904
vt 0.821361 0.321904
vt 0.960876 0.206745
vt 0.960876 0.252568
vt 0.821361 0.137410
vt 0.891540 0.137410
vt 0.821361 0.137410
vt 0.891540 0.137410
vt 0.752025 0.252568
vt 0.752025 0.206746
vt 0.588364 0.109085
vt 0.670864 0.109085
vt 0.588363 0.154906
vt 0.588363 0.109085
vt 0.670864 0.109085
vt 0.670864 0.154907
vt 0.588363 0.154907
vt 0.506718 0.154907
vt 0.506718 0.109085
vt 0.588363 0.027439
vt 0.670864 0.027439
vt 0.670863 0.236553
vt 0.588363 0.236552
vt 0.752509 0.109085
vt 0.752509 0.154907
vt 0.752509 0.109085
vt 0.752509 0.154907
vt 0.506718 0.154906
vt 0.506718 0.109083
vt 0.588364 0.027439
vt 0.670864 0.027439
vt 0.670864 0.236553
vt 0.588363 0.236553
vt 0.506718 0.154907
vt 0.506718 0.109085
vn -1.0000 0.0000 0.0000
vn 0.0000 0.0000 1.0000
vn 0.0000 -1.0000 0.0000
vn 1.0000 0.0000 0.0000
vn 0.0000 1.0000 0.0000
vn -0.0000 0.0000 -1.0000
usemtl None
s off
f 2/1/1 37/2/1 39/3/1 1/4/1
f 27/5/2 24/6/2 20/7/2 28/8/2
f 34/9/3 6/10/3 8/11/3
f 7/12/4 15/13/4 16/14/4 8/11/4
f 48/15/3 40/16/3 39/17/3 47/18/3
f 16/14/3 14/19/3 33/20/3
f 42/21/2 43/22/2 35/23/2 34/24/2
f 10/25/1 9/26/1 40/27/1 38/28/1
f 22/29/4 24/30/4 27/5/4 32/31/4
f 38/28/5 36/32/5 12/33/5 10/25/5
f 5/34/3 3/35/3 21/36/3 23/37/3
f 13/38/3 24/39/3 22/40/3 11/41/3
f 27/5/3 28/8/3 29/42/3 32/31/3
f 25/43/3 31/44/3 30/45/3 26/46/3
f 17/47/1 18/48/1 26/46/1 30/45/1
f 23/49/4 21/50/4 31/44/4 25/43/4
f 20/51/1 19/52/1 29/42/1 28/8/1
f 2/1/2 17/53/2 21/36/2 4/54/2
f 4/54/5 35/55/5 37/2/5 2/1/5
f 40/56/6 48/15/6 46/57/6 38/58/6
f 12/33/6 11/41/6 22/40/6
f 43/22/4 42/21/4 41/59/4 44/60/4
f 45/61/1 46/57/1 48/15/1 47/18/1
f 44/60/5 46/57/5 45/61/5 43/22/5
f 39/62/2 37/63/2 45/61/2 47/18/2
f 37/64/2 35/65/2 43/22/2 45/61/2
f 38/66/6 46/57/6 44/60/6 36/67/6
f 41/59/6 33/68/6 36/69/6 44/60/6
f 4/54/4 6/70/4 34/71/4 35/55/4
f 36/32/4 33/72/4 14/73/4 12/33/4
f 13/74/2 14/19/2 24/75/2
f 3/76/4 5/77/4 6/70/4 4/54/4
f 12/33/4 14/73/4 13/78/4 11/79/4
f 16/14/2 15/80/2 20/81/2
f 31/44/2 21/82/2 17/83/2 30/45/2
f 24/75/2 14/19/2 16/14/2 20/81/2
f 21/36/2 3/35/2 4/54/2
f 42/21/3 34/84/3 33/85/3 41/59/3
f 2/1/2 1/86/2 17/53/2
f 29/42/6 19/87/6 22/88/6 32/31/6
f 18/89/6 7/90/6 8/11/6
f 34/9/3 8/11/3 16/14/3 33/20/3
f 6/10/6 5/91/6 23/92/6
f 26/46/6 18/93/6 23/94/6 25/43/6
f 23/92/6 18/89/6 8/11/6 6/10/6
f 10/25/6 12/33/6 22/40/6 19/95/6
f 10/25/6 19/95/6 9/96/6
f 9/26/3 15/97/3 40/27/3
f 20/98/3 15/99/3 9/96/3 19/95/3
f 18/100/3 17/53/3 1/86/3 7/101/3
f 39/3/3 7/102/3 1/4/3
f 15/97/3 7/102/3 39/3/3 40/27/3
f 50/103/6 58/104/6 92/105/6 86/106/6
f 56/107/4 61/108/4 95/109/4 90/110/4
f 57/111/2 56/112/2 90/110/2 91/113/2
f 51/114/2 67/115/2 75/116/2 73/117/2
f 69/118/3 64/119/3 78/120/3 82/121/3
f 68/122/6 69/123/6 82/121/6 81/124/6
f 73/117/1 75/116/1 76/125/1 74/126/1
f 80/127/1 79/128/1 83/129/1 84/130/1
f 78/120/1 77/131/1 81/124/1 82/121/1
f 66/132/2 65/133/2 79/128/2 80/127/2
f 67/134/5 72/135/5 76/125/5 75/116/5
f 52/136/3 51/137/3 73/117/3 74/126/3
f 63/138/5 68/139/5 81/124/5 77/131/5
f 72/140/6 52/141/6 74/126/6 76/125/6
f 71/142/3 66/143/3 80/127/3 84/130/3
f 64/144/2 63/145/2 77/131/2 78/120/2
f 70/146/6 71/147/6 84/130/6 83/129/6
f 65/148/5 70/149/5 83/129/5 79/128/5
f 87/150/5 85/151/5 86/106/5 92/105/5
f 91/113/5 90/110/5 95/109/5 96/152/5
f 89/153/5 88/154/5 93/155/5 94/156/5
f 60/157/1 55/158/1 89/153/1 94/156/1
f 55/159/2 54/160/2 88/154/2 89/153/2
f 61/161/6 62/162/6 96/152/6 95/109/6
f 49/163/4 50/164/4 86/106/4 85/151/4
f 54/165/4 59/166/4 93/155/4 88/154/4
f 62/167/1 57/168/1 91/113/1 96/152/1
f 53/169/2 49/170/2 85/151/2 87/150/2
f 59/171/6 60/172/6 94/156/6 93/155/6
f 58/173/1 53/174/1 87/150/1 92/105/1
