# Blender v2.91.2 OBJ File: 'shoe_8.blend'
# www.blender.org
mtllib shoe_8.mtl
o Monkey_Shoes_L
v 1.608197 0.035935 0.240380
v 1.624152 0.035663 0.000000
v 1.624152 0.069263 0.000000
v 1.608197 0.069755 0.240380
v 1.344209 0.431061 0.177916
v 1.291376 0.422836 0.318092
v 1.332108 0.387559 0.341659
v 1.428304 0.376716 0.181233
v 1.492459 0.312873 0.197048
v 1.373543 0.328857 0.380854
v 1.418013 0.233431 0.424039
v 1.551586 0.219068 0.217544
v 0.829012 0.468294 0.650515
v 0.831170 0.336742 0.709810
v 1.108186 0.286553 0.640629
v 1.096232 0.398738 0.571386
v 1.086781 0.468670 0.497881
v 0.830090 0.551338 0.578196
v 1.082544 0.511627 0.416304
v 1.091969 0.561950 0.220370
v 1.452506 0.137160 0.457924
v 1.594044 0.127347 0.234671
v 1.121570 0.001829 -0.707740
v 1.464015 0.001829 -0.469219
v 1.464015 0.001829 0.000000
v 1.121570 0.001829 0.000000
v 0.623063 0.001829 -0.747757
v 0.835945 0.001829 -0.760267
v 0.835945 0.001829 0.000000
v 0.623063 0.001829 0.000000
v 0.648150 0.725378 -0.337387
v 0.648150 0.730364 0.000000
v 0.867873 0.668660 0.000000
v 0.863487 0.661343 -0.268586
v -0.882963 0.067105 -0.439162
v -0.770854 0.065703 -0.618167
v -0.722783 0.001829 -0.608129
v -0.856758 0.001829 -0.438236
v -0.035254 0.118935 0.771488
v -0.496637 0.118465 0.739253
v -0.475404 0.062709 0.738334
v -0.024640 0.062966 0.772088
v -0.709981 0.122202 0.669302
v 0.471598 0.123713 0.773731
v 1.464010 0.039340 -0.469219
v 1.464015 0.001829 -0.469219
v 1.121570 0.001829 -0.707740
v 1.121517 0.051536 -0.707740
v 0.836498 0.602746 0.502585
v 0.834100 0.203711 0.751447
v 0.835339 0.116229 0.764017
v 1.121460 0.098056 0.707740
v 1.118107 0.172774 0.690962
v 0.629553 0.065976 0.759899
v 0.473659 0.065572 0.767673
v 0.475885 0.001829 0.760179
v 0.623063 0.001829 0.747757
v 0.648150 0.218511 0.771815
v 0.648150 0.362603 0.754436
v 0.648150 0.507172 0.696997
v 0.648150 0.124454 0.769896
v 1.091969 0.561950 -0.220370
v 1.093882 0.568303 0.000000
v 1.351149 0.433101 0.000000
v 1.344209 0.431061 -0.177916
v 0.835661 0.061487 0.762320
v 1.121517 0.051536 0.707740
v 1.438760 0.376870 0.000000
v 0.863487 0.661343 0.268586
v 0.648150 0.725378 0.337387
v 0.648150 0.679206 0.484793
v 1.505916 0.311869 0.000000
v 0.648150 0.602658 0.602946
v 0.000000 0.001829 0.767086
v -0.419539 0.001828 0.723434
v 0.829012 0.468294 -0.650515
v 0.648150 0.507172 -0.696997
v 0.648150 0.602658 -0.602946
v 0.830090 0.551338 -0.578195
v 1.464010 0.039339 0.469219
v 1.464015 0.001829 0.469219
v 1.608197 0.001829 0.240380
v -0.874913 0.001828 0.000000
v -0.856758 0.001828 0.438236
v -0.882963 0.067104 0.439162
v -0.897821 0.067296 0.000000
v 1.464007 0.075925 0.469219
v 1.624152 0.001829 0.000000
v -0.629487 0.001828 0.654516
v -0.687116 0.064747 0.668897
v 1.121570 0.001829 0.707740
v 0.835945 0.001829 0.760266
v -0.856758 0.001829 -0.438236
v -0.722783 0.001829 -0.608129
v -0.722783 0.001829 0.000000
v -0.874913 0.001828 0.000000
v -0.419539 0.001829 -0.723434
v -0.419539 0.001829 0.000000
v -0.629487 0.001829 0.000000
v -0.629487 0.001829 -0.654516
v 0.629553 0.065976 -0.759900
v 0.835660 0.061487 -0.762320
v 0.835945 0.001829 -0.760267
v 0.623063 0.001829 -0.747757
v -0.770854 0.065703 0.618167
v -0.722783 0.001828 0.608129
v 1.594044 0.127347 -0.234672
v 1.551586 0.219068 -0.217544
v 1.566642 0.217936 0.000000
v 1.609774 0.126568 0.000000
v 1.118107 0.172774 -0.690962
v 0.834100 0.203711 -0.751447
v 0.831170 0.336742 -0.709810
v 1.108186 0.286553 -0.640629
v 1.492459 0.312873 -0.197048
v 1.452506 0.137160 -0.457924
v 1.418013 0.233431 -0.424040
v 1.608197 0.001829 -0.240381
v 1.624152 0.001829 0.000000
v 0.835945 0.001829 0.760266
v 0.623063 0.001829 0.747757
v -0.898826 0.126523 0.436594
v -0.791725 0.123954 0.617375
v 1.373543 0.328858 -0.380854
v 1.332108 0.387559 -0.341659
v 1.428304 0.376716 -0.181233
v 0.836498 0.602746 -0.502585
v 1.082544 0.511627 -0.416304
v 1.086781 0.468670 -0.497881
v 1.096232 0.398738 -0.571387
v 1.291376 0.422836 -0.318092
v 0.835339 0.116229 -0.764017
v 1.121460 0.098056 -0.707740
v -0.024640 0.062966 -0.772088
v 0.473658 0.065572 -0.767673
v 0.475885 0.001829 -0.760180
v 0.000000 0.001829 -0.767086
v -0.035254 0.118936 -0.771488
v -0.475404 0.062709 -0.738334
v -0.496637 0.118465 -0.739253
v -0.709981 0.122202 -0.669302
v 0.648150 0.679206 -0.484793
v 0.648150 0.218512 -0.771815
v 0.648150 0.362604 -0.754436
v -0.898826 0.126523 -0.436594
v -0.912918 0.126874 0.000000
v -0.629487 0.001828 0.654516
v -0.419539 0.001828 0.723434
v 0.648150 0.124454 -0.769896
v 0.475885 0.001829 0.000000
v 0.475885 0.001829 -0.760180
v 0.000000 0.001829 0.767086
v 0.000000 0.001829 0.000000
v 0.475885 0.001829 0.760179
v 0.471598 0.123713 -0.773732
v 1.464007 0.075925 -0.469219
v -0.419539 0.001829 -0.723434
v -0.722783 0.001828 0.608129
v -0.856758 0.001828 0.438236
v 1.608197 0.035935 -0.240381
v 1.608197 0.001829 -0.240381
v -0.687116 0.064748 -0.668897
v -0.629487 0.001829 -0.654516
v 1.608197 0.069755 -0.240381
v -0.791725 0.123954 -0.617375
v 1.121570 0.001829 0.707740
v 0.000000 0.001829 -0.767086
v 1.464015 0.001829 0.469219
v 1.608197 0.001829 0.240380
v 1.010138 0.594218 -0.143654
v 1.035712 0.582754 -0.140894
v 1.060303 0.571730 -0.132719
v 1.082966 0.561571 -0.119444
v 1.102830 0.552666 -0.101579
v 1.119132 0.545359 -0.079810
v 1.131246 0.539928 -0.054974
v 1.138705 0.536584 -0.028025
v 1.141224 0.535455 0.000000
v 1.138705 0.536584 0.028026
v 1.131246 0.539928 0.054974
v 1.119132 0.545359 0.079810
v 1.102830 0.552666 0.101579
v 1.082966 0.561571 0.119444
v 1.060303 0.571730 0.132719
v 1.035712 0.582754 0.140894
v 1.010138 0.594218 0.143654
v 0.984565 0.605682 0.140894
v 0.959974 0.616706 0.132719
v 0.937311 0.626865 0.119444
v 0.917447 0.635770 0.101579
v 0.901145 0.643077 0.079810
v 0.889031 0.648508 0.054974
v 0.881571 0.651852 0.028026
v 0.879053 0.652981 -0.000000
v 0.881572 0.651852 -0.028026
v 0.889031 0.648508 -0.054974
v 0.901145 0.643077 -0.079810
v 0.917447 0.635769 -0.101579
v 0.937311 0.626865 -0.119444
v 0.959974 0.616705 -0.132719
v 0.984565 0.605682 -0.140894
v 1.201468 0.990818 0.000000
v -0.035254 0.118935 0.771488
v -0.496637 0.118465 0.739253
v 0.471598 0.123713 0.773731
v -0.856758 0.001828 0.438236
v -0.709981 0.122202 0.669302
v -0.791725 0.123954 0.617375
v -0.496637 0.118465 -0.739253
v -0.709981 0.122202 -0.669302
v 0.648150 0.124454 -0.769896
v 0.648150 0.124454 -0.769896
v 0.471598 0.123713 -0.773732
v 0.648150 0.507172 -0.696997
v 0.648150 0.602658 -0.602946
v 0.648150 0.362604 -0.754436
v -0.898826 0.126523 -0.436594
v -0.912918 0.126874 0.000000
v -0.856758 0.001829 -0.438236
v -0.898826 0.126523 0.436594
v 0.648150 0.679206 -0.484793
v 0.648150 0.218511 0.771815
v 0.648150 0.362603 0.754436
v 0.648150 0.124454 0.769896
v 0.648150 0.124454 0.769896
v 0.648150 0.725378 0.337387
v 0.648150 0.679206 0.484793
v 0.648150 0.218512 -0.771815
v 0.648150 0.725378 -0.337387
v 0.648150 0.730364 0.000000
v 0.648150 0.507172 0.696997
v 0.648150 0.602658 0.602946
v -0.035254 0.118936 -0.771488
v -0.791725 0.123954 -0.617375
vt 0.969996 0.920341
vt 0.969996 0.986954
vt 0.962191 0.986954
vt 0.962191 0.920341
vt 0.472672 0.766091
vt 0.434776 0.775905
vt 0.428618 0.761727
vt 0.472058 0.740252
vt 0.467469 0.716995
vt 0.417046 0.743506
vt 0.401367 0.717417
vt 0.460174 0.688404
vt 0.321437 0.884557
vt 0.286613 0.861533
vt 0.328448 0.790956
vt 0.357278 0.813025
vt 0.381360 0.826718
vt 0.349832 0.897923
vt 0.405113 0.834766
vt 0.459717 0.841028
vt 0.386469 0.691761
vt 0.452788 0.661564
vt 0.424415 0.566958
vt 0.358849 0.662747
vt 0.228340 0.663812
vt 0.227563 0.568564
vt 0.434415 0.428211
vt 0.438377 0.487394
vt 0.226915 0.489119
vt 0.226432 0.429908
vt 0.622758 0.971948
vt 0.520754 0.978029
vt 0.520151 0.910528
vt 0.596713 0.908163
vt 0.925716 0.861105
vt 0.925716 0.800253
vt 0.937803 0.800253
vt 0.937803 0.861105
vt 0.962191 0.428613
vt 0.962191 0.301100
vt 0.969996 0.301100
vt 0.969996 0.428613
vt 0.925716 0.153226
vt 0.937803 0.153226
vt 0.937803 0.254749
vt 0.925716 0.254749
vt 0.374811 0.904938
vt 0.254165 0.836833
vt 0.233989 0.820256
vt 0.286451 0.752538
vt 0.302208 0.767953
vt 0.969996 0.615782
vt 0.969996 0.569943
vt 0.979117 0.569943
vt 0.979117 0.615782
vt 0.223342 0.883140
vt 0.257663 0.909609
vt 0.296871 0.934653
vt 0.201359 0.865669
vt 0.579334 0.839960
vt 0.519537 0.841753
vt 0.518849 0.764760
vt 0.565042 0.765266
vt 0.962191 0.754305
vt 0.962191 0.673612
vt 0.969996 0.673612
vt 0.969996 0.754305
vt 0.518608 0.737742
vt 0.443559 0.909531
vt 0.418657 0.973771
vt 0.373328 0.964121
vt 0.518391 0.713466
vt 0.979117 0.428613
vt 0.979117 0.301100
vt 0.962191 0.615782
vt 0.718369 0.881012
vt 0.743826 0.930661
vt 0.707559 0.947461
vt 0.690217 0.894883
vt 0.962191 0.569943
vt 0.969996 0.855829
vt 0.979117 0.855829
vt 0.979117 0.920341
vt 0.979117 0.022488
vt 0.979117 0.147950
vt 0.969996 0.147950
vt 0.969996 0.022488
vt 0.377549 0.676069
vt 0.979117 0.986954
vt 0.979117 0.237328
vt 0.969996 0.237328
vt 0.962191 0.237328
vt 0.979117 0.754305
vt 0.979117 0.673612
vt 0.344966 0.017314
vt 0.392525 0.054192
vt 0.223379 0.055572
vt 0.223034 0.013258
vt 0.425284 0.138276
vt 0.224067 0.139917
vt 0.223590 0.081522
vt 0.405638 0.080037
vt 0.925716 0.393273
vt 0.925716 0.335443
vt 0.937803 0.335443
vt 0.937803 0.393273
vt 0.962191 0.855829
vt 0.969996 0.208801
vt 0.979117 0.208801
vt 0.583056 0.660401
vt 0.576150 0.687368
vt 0.518125 0.683652
vt 0.517875 0.655645
vt 0.735513 0.764083
vt 0.784778 0.832094
vt 0.752776 0.857370
vt 0.709688 0.787551
vt 0.569368 0.716085
vt 0.448519 0.645315
vt 0.649905 0.689408
vt 0.635467 0.715327
vt 0.295527 0.703369
vt 0.228703 0.708353
vt 0.015453 0.490844
vt 0.018450 0.431604
vt 0.979117 0.147950
vt 0.962191 0.208801
vt 0.962191 0.147950
vt 0.620256 0.741691
vt 0.609011 0.760116
vt 0.565194 0.739420
vt 0.665367 0.902343
vt 0.633818 0.832723
vt 0.657423 0.824253
vt 0.681257 0.810131
vt 0.603108 0.774401
vt 0.915372 0.335443
vt 0.915372 0.254749
vt 0.925716 0.580441
vt 0.925716 0.439111
vt 0.937803 0.439111
vt 0.937803 0.580441
vt 0.915372 0.580441
vt 0.925716 0.707954
vt 0.915372 0.707954
vt 0.667908 0.961490
vt 0.816423 0.877843
vt 0.782580 0.904922
vt 0.915372 0.986567
vt 0.915372 0.861105
vt 0.925716 0.986567
vt 0.041542 0.083007
vt 0.022849 0.141558
vt 0.915372 0.393273
vt 0.226098 0.388972
vt 0.437536 0.387247
vt 0.011660 0.258348
vt 0.225019 0.256608
vt 0.014661 0.390696
vt 0.915372 0.439111
vt 0.750992 0.748389
vt 0.804655 0.815159
vt 0.915372 0.153226
vt 0.937803 0.707954
vt 0.658542 0.673559
vt 0.937803 0.861105
vt 0.937803 0.986567
vt 0.054233 0.056952
vt 0.101183 0.019302
vt 0.925716 0.088713
vt 0.937803 0.088713
vt 0.915372 0.771727
vt 0.925716 0.771727
vt 0.838091 0.859982
vt 0.333432 0.950802
vt 0.937803 0.771727
vt 0.915372 0.088713
vt 0.587035 0.644078
vt 0.915372 0.800253
vt 0.517722 0.638527
vt 0.030711 0.570169
vt 0.438377 0.254868
vt 0.459029 0.232302
vt 0.889407 0.230397
vt 0.889407 0.371370
vt 0.460277 0.373270
vt 0.097831 0.664876
vt 0.797331 0.611981
vt 0.675928 0.616439
vt 0.554481 0.613056
vt 0.962191 0.022488
vt 0.504070 0.583483
vt 0.847477 0.581963
vt 0.925716 0.022100
vt 0.937803 0.022100
vt 0.489528 0.560807
vt 0.861818 0.559159
vt 0.469810 0.501549
vt 0.881010 0.499729
vt 0.915372 0.022100
vt 0.161807 0.704460
vt 0.888123 0.181298
vt 0.459879 0.183194
vt 0.459879 0.183194
vt 0.459229 0.157038
vt 0.888541 0.155136
vt 0.888123 0.181298
vt 0.463885 0.116942
vt 0.883530 0.115083
vt 0.867377 0.074947
vt 0.479682 0.076664
vt 0.841102 0.048506
vt 0.505722 0.049991
vt 0.538488 0.028556
vt 0.808147 0.027362
vt 0.579427 0.015533
vt 0.767093 0.014702
vt 0.656241 0.013258
vt 0.109262 0.898683
vt 0.109262 0.805463
vt 0.127448 0.896892
vt 0.144935 0.891587
vt 0.161052 0.882973
vt 0.175178 0.871380
vt 0.186771 0.857253
vt 0.195386 0.841137
vt 0.200690 0.823650
vt 0.202482 0.805463
vt 0.200690 0.787277
vt 0.195386 0.769790
vt 0.186771 0.753673
vt 0.175178 0.739547
vt 0.161052 0.727954
vt 0.144935 0.719339
vt 0.127448 0.714034
vt 0.109262 0.712243
vt 0.091075 0.714034
vt 0.073588 0.719339
vt 0.057471 0.727954
vt 0.043345 0.739547
vt 0.031752 0.753673
vt 0.023138 0.769790
vt 0.017833 0.787277
vt 0.016042 0.805463
vt 0.017833 0.823650
vt 0.023138 0.841137
vt 0.031752 0.857254
vt 0.043345 0.871380
vt 0.057472 0.882973
vt 0.073588 0.891587
vt 0.091076 0.896892
vn 0.9510 0.0000 0.3091
vn 1.0000 0.0000 0.0000
vn 0.9925 0.1221 0.0000
vn 0.9437 0.1249 0.3064
vn 0.5073 0.8514 0.1329
vn 0.4999 0.8162 0.2897
vn 0.5581 0.7371 0.3810
vn 0.6161 0.7697 0.1672
vn 0.7465 0.6274 0.2214
vn 0.6234 0.6018 0.4991
vn 0.6624 0.4763 0.5781
vn 0.8304 0.4939 0.2579
vn 0.3283 0.5376 0.7766
vn 0.2675 0.3481 0.8985
vn 0.4295 0.4330 0.7924
vn 0.4554 0.5709 0.6831
vn 0.4641 0.7197 0.5164
vn 0.3486 0.7207 0.5992
vn 0.4567 0.8237 0.3359
vn 0.4438 0.8856 0.1367
vn 0.6947 0.3325 0.6378
vn 0.8941 0.3450 0.2857
vn 0.0000 -1.0000 0.0000
vn 0.3218 0.9318 -0.1679
vn 0.2808 0.9597 0.0000
vn 0.3439 0.9390 0.0000
vn 0.3643 0.9206 -0.1406
vn -0.8999 -0.3332 -0.2814
vn -0.6520 -0.3482 -0.6735
vn -0.5479 -0.4919 -0.6766
vn -0.7261 -0.4609 -0.5102
vn -0.0391 -0.0341 0.9986
vn -0.2204 -0.0909 0.9712
vn -0.1992 -0.2300 0.9526
vn -0.0399 -0.1042 0.9937
vn 0.7232 0.0002 -0.6906
vn 0.3865 -0.0089 -0.9222
vn 0.3876 -0.0084 -0.9218
vn 0.3687 0.8378 0.4025
vn 0.1845 0.2002 0.9622
vn 0.1206 0.0305 0.9922
vn 0.3932 0.0982 0.9142
vn 0.4062 0.2928 0.8656
vn 0.0174 -0.1288 0.9915
vn 0.0287 -0.1101 0.9935
vn 0.0396 -0.1261 0.9912
vn 0.0179 -0.1343 0.9908
vn 0.1361 0.1367 0.9812
vn 0.2432 0.2962 0.9236
vn 0.2973 0.5228 0.7989
vn 0.0369 -0.0582 0.9976
vn 0.4438 0.8856 -0.1367
vn 0.4351 0.9004 0.0000
vn 0.5041 0.8636 0.0000
vn 0.5073 0.8514 -0.1329
vn 0.0860 -0.0627 0.9943
vn 0.3876 -0.0084 0.9218
vn 0.6247 0.7808 0.0000
vn 0.3643 0.9206 0.1406
vn 0.3218 0.9318 0.1679
vn 0.3238 0.8636 0.3864
vn 0.7760 0.6308 0.0000
vn -0.0256 -0.1426 0.9894
vn -0.1453 -0.2903 0.9458
vn 0.3283 0.5376 -0.7766
vn 0.2973 0.5228 -0.7989
vn 0.2931 0.7303 -0.6170
vn 0.3486 0.7207 -0.5992
vn 0.0185 -0.0936 0.9954
vn 0.7232 0.0002 0.6906
vn -0.9360 -0.3518 0.0000
vn -0.9355 -0.3516 0.0351
vn -0.8999 -0.3332 0.2814
vn -0.9534 -0.3016 0.0000
vn 0.7212 0.1193 0.6823
vn -0.3250 -0.4702 0.8205
vn -0.3923 -0.3223 0.8615
vn -0.4418 -0.1710 0.8806
vn 0.3865 -0.0089 0.9222
vn 0.0746 -0.0652 0.9951
vn 0.0174 -0.1288 -0.9915
vn 0.0860 -0.0627 -0.9943
vn 0.0746 -0.0652 -0.9951
vn 0.0179 -0.1343 -0.9908
vn -0.6520 -0.3482 0.6735
vn -0.5479 -0.4919 0.6766
vn 0.8940 0.3450 -0.2857
vn 0.8304 0.4939 -0.2579
vn 0.8746 0.4848 0.0000
vn 0.9418 0.3361 0.0000
vn 0.4062 0.2928 -0.8656
vn 0.1845 0.2002 -0.9622
vn 0.2675 0.3481 -0.8985
vn 0.4295 0.4330 -0.7924
vn 0.7465 0.6274 -0.2214
vn 0.6947 0.3325 -0.6378
vn 0.6624 0.4763 -0.5781
vn -0.7261 -0.4609 0.5103
vn -0.7188 -0.2292 0.6564
vn -0.9319 -0.2558 0.2569
vn 0.6234 0.6018 -0.4991
vn 0.5581 0.7371 -0.3810
vn 0.6161 0.7697 -0.1672
vn 0.3687 0.8379 -0.4025
vn 0.4567 0.8237 -0.3359
vn 0.4641 0.7197 -0.5164
vn 0.4554 0.5710 -0.6831
vn 0.4999 0.8162 -0.2897
vn 0.1207 0.0305 -0.9922
vn 0.3932 0.0982 -0.9142
vn -0.0399 -0.1042 -0.9937
vn 0.0287 -0.1101 -0.9935
vn 0.0396 -0.1261 -0.9912
vn -0.0256 -0.1426 -0.9894
vn -0.0391 -0.0341 -0.9986
vn -0.1992 -0.2300 -0.9526
vn -0.2204 -0.0909 -0.9712
vn 0.3238 0.8636 -0.3864
vn 0.1361 0.1367 -0.9812
vn 0.2432 0.2962 -0.9236
vn -0.9679 -0.2511 0.0000
vn -0.9319 -0.2558 -0.2569
vn 0.0369 -0.0582 -0.9976
vn 0.0185 -0.0936 -0.9954
vn 0.7212 0.1193 -0.6823
vn -0.1453 -0.2903 -0.9458
vn -0.9355 -0.3516 -0.0351
vn 0.9510 0.0000 -0.3091
vn -0.4418 -0.1710 -0.8806
vn -0.3923 -0.3224 -0.8615
vn 0.2931 0.7303 0.6170
vn -0.3250 -0.4703 -0.8205
vn 0.9436 0.1249 -0.3064
vn -0.7188 -0.2292 -0.6564
vn -0.0068 1.0000 0.0000
vn -0.0053 1.0000 0.0000
vn 0.0240 0.9997 0.0000
vn 0.0249 0.9997 0.0000
vn 0.0219 0.9998 0.0000
vn 0.0189 0.9998 0.0000
vn 0.0070 1.0000 0.0000
vn -0.0042 1.0000 0.0000
vn -1.0000 0.0000 0.0000
vn 0.1255 0.2838 -0.9506
vn 0.4321 0.9018 0.0000
vn 0.2931 0.2034 -0.9341
vn 0.4549 0.1259 -0.8816
vn 0.6045 0.0542 -0.7947
vn 0.7361 -0.0088 -0.6768
vn 0.8443 -0.0606 -0.5324
vn 0.9249 -0.0993 -0.3670
vn 0.9745 -0.1231 -0.1872
vn 0.9913 -0.1311 0.0000
vn 0.9745 -0.1231 0.1872
vn 0.9249 -0.0993 0.3670
vn 0.8443 -0.0606 0.5324
vn 0.7361 -0.0088 0.6768
vn 0.6045 0.0542 0.7947
vn 0.4549 0.1259 0.8816
vn 0.2931 0.2034 0.9341
vn 0.1255 0.2838 0.9506
vn -0.0414 0.3638 0.9305
vn -0.2014 0.4404 0.8749
vn -0.3483 0.5107 0.7860
vn -0.4766 0.5722 0.6674
vn -0.5816 0.6225 0.5237
vn -0.6594 0.6597 0.3604
vn -0.7073 0.6827 0.1836
vn -0.7234 0.6904 0.0000
vn -0.7073 0.6827 -0.1836
vn -0.6594 0.6597 -0.3604
vn -0.5816 0.6225 -0.5237
vn -0.4766 0.5722 -0.6674
vn -0.3483 0.5107 -0.7860
vn -0.2014 0.4404 -0.8749
vn -0.0414 0.3638 -0.9305
usemtl None
s 1
f 1/1/1 2/2/2 3/3/3 4/4/4
f 5/5/5 6/6/6 7/7/7 8/8/8
f 9/9/9 10/10/10 11/11/11 12/12/12
f 8/8/8 7/7/7 10/10/10 9/9/9
f 13/13/13 14/14/14 15/15/15 16/16/16
f 13/13/13 16/16/16 17/17/17 18/18/18
f 19/19/19 6/6/6 5/5/5 20/20/20
f 12/12/12 11/11/11 21/21/21 22/22/22
f 23/23/23 24/24/23 25/25/23 26/26/23
f 27/27/23 28/28/23 29/29/23 30/30/23
f 229/31/24 230/32/25 33/33/26 34/34/27
f 15/15/15 11/11/11 10/10/10 16/16/16
f 35/35/28 36/36/29 37/37/30 219/38/31
f 203/39/32 204/40/33 41/41/34 42/42/35
f 45/43/36 46/44/36 47/45/37 48/46/38
f 6/6/6 19/19/19 17/17/17 7/7/7
f 49/47/39 18/18/18 17/17/17 19/19/19
f 50/48/40 51/49/41 52/50/42 53/51/43
f 54/52/44 55/53/45 56/54/46 57/55/47
f 222/56/48 50/48/40 14/14/14 223/57/49
f 231/58/50 223/57/49 14/14/14 13/13/13
f 222/56/48 224/59/51 51/49/41 50/48/40
f 62/60/52 63/61/53 64/62/54 65/63/55
f 52/64/42 51/65/41 66/66/56 67/67/57
f 5/5/5 8/8/8 68/68/58 64/62/54
f 49/47/39 69/69/59 226/70/60 227/71/61
f 68/68/58 8/8/8 9/9/9 72/72/62
f 74/73/63 42/42/35 41/41/34 75/74/64
f 69/69/59 49/47/39 19/19/19 20/20/20
f 51/65/41 224/75/51 54/52/44 66/66/56
f 76/76/65 214/77/66 215/78/67 79/79/68
f 205/80/69 203/39/32 42/42/35 55/53/45
f 10/10/10 7/7/7 17/17/17 16/16/16
f 80/81/70 81/82/70 82/83/1 1/1/1
f 83/84/71 206/85/72 85/86/73 86/87/74
f 53/51/43 52/50/42 87/88/75 21/21/21
f 82/83/1 88/89/2 2/2/2 1/1/1
f 89/90/76 75/74/64 41/41/34 90/91/77
f 207/92/78 90/91/77 41/41/34 204/40/33
f 91/93/79 67/67/57 66/66/56 92/94/80
f 93/95/23 94/96/23 95/97/23 96/98/23
f 97/99/23 98/100/23 99/101/23 100/102/23
f 101/103/81 102/104/82 103/105/83 104/106/84
f 87/107/75 52/64/42 67/67/57 80/81/70
f 89/90/76 90/91/77 105/108/85 106/109/86
f 107/110/87 108/111/88 109/112/89 110/113/90
f 205/80/69 55/53/45 54/52/44 224/75/51
f 34/34/27 33/33/26 63/61/53 62/60/52
f 56/54/46 55/53/45 42/42/35 74/73/63
f 111/114/91 112/115/92 113/116/93 114/117/94
f 115/118/95 72/72/62 109/112/89 108/111/88
f 22/22/22 21/21/21 87/88/75 4/119/4
f 1/1/1 4/4/4 87/107/75 80/81/70
f 107/110/87 116/120/96 117/121/97 108/111/88
f 91/93/79 81/82/70 80/81/70 67/67/57
f 25/25/23 24/24/23 118/122/23 119/123/23
f 30/30/23 29/29/23 120/124/23 121/125/23
f 85/86/73 84/126/98 106/109/86 105/108/85
f 85/86/73 105/108/85 208/127/99 220/128/100
f 207/92/78 208/127/99 105/108/85 90/91/77
f 115/118/95 108/111/88 117/121/97 124/129/101
f 115/118/95 124/129/101 125/130/102 126/131/103
f 127/132/104 128/133/105 129/134/106 79/79/68
f 114/117/94 113/116/93 76/76/65 130/135/107
f 65/63/55 126/131/103 125/130/102 131/136/108
f 65/63/55 131/136/108 128/133/105 62/60/52
f 130/135/107 76/76/65 79/79/68 129/134/106
f 48/46/38 102/104/82 132/137/109 133/138/110
f 116/120/96 111/114/91 114/117/94 117/121/97
f 134/139/111 135/140/112 136/141/113 137/142/114
f 233/143/115 134/139/111 139/144/116 209/145/117
f 130/135/107 124/129/101 117/121/97 114/117/94
f 229/31/24 34/34/27 127/132/104 221/146/118
f 94/96/23 100/102/23 99/101/23 95/97/23
f 127/132/104 79/79/68 215/78/67 221/146/118
f 112/115/92 228/147/119 216/148/120 113/116/93
f 218/149/121 217/150/122 35/35/28 86/151/74
f 101/103/81 104/106/84 136/141/113 135/140/112
f 113/116/93 216/148/120 214/77/66 76/76/65
f 130/135/107 129/134/106 125/130/102 124/129/101
f 147/152/23 99/101/23 98/100/23 148/153/23
f 128/133/105 127/132/104 34/34/27 62/60/52
f 102/104/82 101/103/81 211/154/123 132/137/109
f 27/27/23 30/30/23 150/155/23 151/156/23
f 152/157/23 153/158/23 150/155/23 154/159/23
f 213/160/124 135/140/112 134/139/111 233/143/115
f 111/114/91 133/161/110 132/162/109 112/115/92
f 103/105/83 102/104/82 48/46/38 47/45/37
f 45/43/36 48/46/38 133/138/110 156/163/125
f 125/130/102 129/134/106 128/133/105 131/136/108
f 157/164/126 139/144/116 134/139/111 137/142/114
f 116/120/96 156/165/125 133/161/110 111/114/91
f 35/35/28 38/166/127 83/167/71 86/151/74
f 96/98/23 95/97/23 158/168/23 159/169/23
f 160/170/128 161/171/128 46/44/36 45/43/36
f 210/172/129 209/145/117 139/144/116 162/173/130
f 112/115/92 132/162/109 211/174/123 228/147/119
f 49/47/39 227/71/61 232/175/131 18/18/18
f 213/160/124 211/154/123 101/103/81 135/140/112
f 37/37/30 36/36/29 162/173/130 163/176/132
f 160/170/128 45/43/36 156/163/125 164/177/133
f 110/113/90 109/112/89 12/12/12 22/22/22
f 164/178/133 156/165/125 116/120/96 107/110/87
f 162/173/130 139/144/116 157/164/126 163/176/132
f 35/35/28 217/150/122 234/179/134 36/36/29
f 210/172/129 162/173/130 36/36/29 234/179/134
f 231/58/50 13/13/13 18/18/18 232/175/131
f 107/110/87 110/113/90 3/180/3 164/178/133
f 64/62/54 68/68/58 126/131/103 65/63/55
f 26/26/23 166/181/23 120/124/23 29/29/23
f 98/100/23 97/99/23 167/182/23 153/158/23
f 151/156/23 150/155/23 153/158/23 167/182/23
f 44/183/135 155/184/135 138/185/136 39/186/136
f 30/30/23 121/125/23 154/159/23 150/155/23
f 95/97/23 99/101/23 147/152/23 158/168/23
f 168/187/23 166/181/23 26/26/23 25/25/23
f 145/188/137 146/189/138 122/190/137
f 220/128/100 218/191/121 86/87/74 85/86/73
f 123/192/139 165/193/139 145/188/137 122/190/137
f 2/194/2 88/195/2 161/171/128 160/170/128
f 72/72/62 9/9/9 12/12/12 109/112/89
f 33/33/26 69/69/59 20/20/20 63/61/53
f 53/51/43 21/21/21 11/11/11 15/15/15
f 98/100/23 153/158/23 152/157/23 148/153/23
f 23/23/23 26/26/23 29/29/23 28/28/23
f 63/61/53 20/20/20 5/5/5 64/62/54
f 126/131/103 68/68/58 72/72/62 115/118/95
f 230/32/25 226/70/60 69/69/59 33/33/26
f 123/192/139 43/196/140 141/197/140 165/193/139
f 141/197/140 43/196/140 40/198/141 140/199/141
f 2/194/2 160/170/128 164/177/133 3/200/3
f 50/48/40 53/51/43 15/15/15 14/14/14
f 40/198/141 39/186/136 138/185/136 140/199/141
f 110/113/90 22/22/22 4/119/4 3/180/3
f 66/66/56 54/52/44 57/55/47 92/94/80
f 168/187/23 25/25/23 119/123/23 169/201/23
f 212/202/142 155/184/135 44/183/135 225/203/142
f 61/204/143 58/205/143 143/206/143 149/207/143
f 59/208/143 144/209/143 143/206/143 58/205/143
f 77/210/143 144/209/143 59/208/143 60/211/143
f 78/212/143 77/210/143 60/211/143 73/213/143
f 78/212/143 73/213/143 71/214/143 142/215/143
f 71/214/143 70/216/143 31/217/143 142/215/143
f 31/217/143 70/216/143 32/218/143
f 170/219/144 202/220/145 171/221/146
f 171/221/146 202/220/145 172/222/147
f 172/222/147 202/220/145 173/223/148
f 173/223/148 202/220/145 174/224/149
f 174/224/149 202/220/145 175/225/150
f 175/225/150 202/220/145 176/226/151
f 176/226/151 202/220/145 177/227/152
f 177/227/152 202/220/145 178/228/153
f 178/228/153 202/220/145 179/229/154
f 179/229/154 202/220/145 180/230/155
f 180/230/155 202/220/145 181/231/156
f 181/231/156 202/220/145 182/232/157
f 182/232/157 202/220/145 183/233/158
f 183/233/158 202/220/145 184/234/159
f 184/234/159 202/220/145 185/235/160
f 185/235/160 202/220/145 186/236/161
f 186/236/161 202/220/145 187/237/162
f 187/237/162 202/220/145 188/238/163
f 188/238/163 202/220/145 189/239/164
f 189/239/164 202/220/145 190/240/165
f 190/240/165 202/220/145 191/241/166
f 191/241/166 202/220/145 192/242/167
f 192/242/167 202/220/145 193/243/168
f 193/243/168 202/220/145 194/244/169
f 194/244/169 202/220/145 195/245/170
f 195/245/170 202/220/145 196/246/171
f 196/246/171 202/220/145 197/247/172
f 197/247/172 202/220/145 198/248/173
f 198/248/173 202/220/145 199/249/174
f 199/249/174 202/220/145 200/250/175
f 200/250/175 202/220/145 201/251/176
f 201/251/176 202/220/145 170/219/144
