# Blender v3.0.0 OBJ File: ''
# www.blender.org
mtllib 2.mtl
o Shoe_1_Cube.013
v 1.884982 2.023771 -0.837439
v 1.870459 2.023771 0.838312
v 1.871936 1.819924 0.667859
v 1.883504 1.819924 -0.666987
v 1.424078 0.013468 -0.845459
v 1.424079 2.030019 -0.845457
v 1.884981 0.019718 -0.837442
v 1.409467 2.030019 0.840743
v 0.552579 1.823508 0.789962
v 1.409466 0.013468 0.840741
v 0.552579 0.001829 0.789961
v 0.564198 0.001830 -0.813528
v 0.564199 1.823509 -0.813526
v 1.032685 1.723560 0.582191
v 1.042856 1.723560 -0.591500
v 0.564210 0.433616 -0.815036
v 1.883504 0.223563 -0.666988
v 1.870459 0.019715 0.838309
v 1.871936 0.223562 0.667858
v 1.035881 1.282456 0.255442
v 1.039659 1.282456 -0.265972
v 1.042856 0.319928 -0.591501
v 1.032685 0.319928 0.582189
v 1.035881 0.761029 0.255440
v 1.762047 0.679974 0.341761
v 1.762047 1.363515 0.341762
v 1.039659 0.761029 -0.265973
v 1.767000 0.679974 -0.341762
v 1.767000 1.363515 -0.341761
v 0.552589 0.433615 0.788453
v -0.925299 0.433617 -0.825831
v -0.925299 0.001830 -0.825831
v -0.936920 0.001829 0.777658
v -0.936920 0.433615 0.777658
v 0.521879 0.170628 0.743886
v -0.903767 1.219556 0.743886
v -0.903767 1.219556 -0.779756
v 0.521879 0.170628 -0.779756
v -0.398356 1.313658 -0.779756
v -0.128164 1.114862 -0.779756
v -0.128164 1.114862 0.743886
v -0.398356 1.313658 0.743886
v 0.591190 1.114862 0.743886
v 0.591190 1.313658 0.743886
v 0.591190 1.313658 -0.779756
v 0.591190 1.114862 -0.779756
v 0.744305 0.472937 -0.779756
v -0.903767 1.516274 0.743886
v -0.903767 1.516274 -0.779756
v -0.673740 1.516273 0.743886
v -0.673740 1.516273 -0.779756
v 0.744305 0.472937 0.743886
vt 0.174759 0.375417
vt 0.170503 0.172924
vt 0.195567 0.193003
vt 0.198958 0.354302
vt 0.418841 0.426013
vt 0.175175 0.431134
vt 0.416915 0.370328
vt 0.168577 0.117236
vt 0.191351 0.012989
vt 0.412244 0.112114
vt 0.472629 0.369643
vt 0.468347 0.165887
vt 0.572056 0.168948
vt 0.576403 0.362702
vt 0.114783 0.173318
vt 0.119066 0.377074
vt 0.012146 0.374561
vt 0.008341 0.180796
vt 0.841409 0.299179
vt 0.841409 0.157322
vt 0.944030 0.157322
vt 0.944030 0.299179
vt 0.422433 0.529957
vt 0.370258 0.531045
vt 0.391851 0.350248
vt 0.412660 0.167834
vt 0.388461 0.188949
vt 0.806876 0.926095
vt 0.665018 0.926095
vt 0.704511 0.872784
vt 0.767531 0.872784
vt 0.841409 0.448310
vt 0.944030 0.448310
vt 0.841409 0.590167
vt 0.944030 0.590167
vt 0.841409 0.008191
vt 0.944030 0.008191
vt 0.394934 0.829333
vt 0.394934 0.916182
vt 0.350597 0.916182
vt 0.350597 0.829333
vt 0.806876 0.756453
vt 0.767531 0.809764
vt 0.665019 0.756453
vt 0.704511 0.809764
vt 0.394934 0.577259
vt 0.394934 0.659872
vt 0.350597 0.659872
vt 0.350597 0.577259
vt 0.394934 0.746720
vt 0.350597 0.746720
vt 0.267985 0.746720
vt 0.267985 0.829333
vt 0.202314 0.534583
vt 0.359296 0.009450
vt 0.411471 0.008363
vt 0.639628 0.515380
vt 0.807610 0.515198
vt 0.807610 0.709000
vt 0.639628 0.709183
vt 0.772825 0.060376
vt 0.592799 0.060376
vt 0.592799 0.008190
vt 0.772825 0.008190
vt 0.773022 0.500166
vt 0.592995 0.500166
vt 0.592799 0.306364
vt 0.772825 0.306364
vt 0.825011 0.254178
vt 0.772825 0.254178
vt 0.825011 0.060376
vt 0.592799 0.254178
vt 0.623240 0.517366
vt 0.623240 0.731281
vt 0.439093 0.731281
vt 0.439093 0.517366
vt 0.016442 0.863626
vt 0.230357 0.863626
vt 0.187896 0.908987
vt 0.147354 0.908987
vt 0.961871 0.952816
vt 0.916510 0.821903
vt 0.916510 0.781361
vt 0.961871 0.738900
vt 0.864986 0.891932
vt 0.845633 0.877693
vt 0.091564 0.979864
vt 0.077325 0.960511
vt 0.016442 0.908987
vt 0.623240 0.767142
vt 0.439093 0.767142
vt 0.916510 0.740041
vt 0.229217 0.908987
vt 0.251610 0.892512
vt 0.932986 0.717648
vt 0.439093 0.794943
vt 0.623240 0.794943
vt 0.916510 0.952816
vt 0.623240 0.836264
vt 0.439093 0.836264
vt 0.021872 0.567964
vt 0.152784 0.567964
vt 0.152784 0.752111
vt 0.021872 0.752111
vt 0.239725 0.567964
vt 0.239725 0.752111
vt 0.623240 0.955860
vt 0.439093 0.955860
vn 1.0000 -0.0000 0.0087
vn 0.0174 0.0000 -0.9998
vn -0.0592 -0.0000 0.9982
vn -0.0597 -0.0003 0.9982
vn -0.0601 0.0006 0.9982
vn 0.0140 -0.9999 0.0009
vn 0.0136 -0.9999 0.0001
vn 0.0069 -1.0000 0.0001
vn -0.2339 0.9723 -0.0019
vn 0.1140 -0.9935 0.0010
vn -0.0372 -0.0011 -0.9993
vn -0.0371 -0.0035 -0.9993
vn -0.0345 -0.0028 -0.9994
vn 1.0000 -0.0000 0.0089
vn 1.0000 -0.0000 0.0091
vn 0.0894 -0.0000 0.9960
vn 0.1140 0.9935 0.0010
vn 0.1015 0.0000 -0.9948
vn -0.1180 -0.0000 0.9930
vn -0.1108 -0.9938 -0.0008
vn -0.1108 0.9938 -0.0008
vn 1.0000 0.0000 0.0072
vn 0.0136 0.9999 0.0001
vn -0.1036 0.0000 -0.9946
vn 0.0053 -0.0000 1.0000
vn -0.0371 0.0000 -0.9993
vn -0.0365 0.0003 -0.9993
vn -0.0609 0.0003 0.9981
vn -0.0592 0.0035 0.9982
vn -1.0000 0.0000 -0.0072
vn 0.0093 -0.0022 -1.0000
vn 0.0062 -0.0013 -1.0000
vn 0.0000 -1.0000 -0.0000
vn -0.0062 0.0013 1.0000
vn -0.0081 0.0022 1.0000
vn -0.0078 0.0017 1.0000
vn -0.0093 0.0022 1.0000
vn 0.0000 1.0000 0.0000
vn -0.5926 -0.8055 -0.0000
vn 0.0000 0.0000 -1.0000
vn 0.0000 -0.0000 1.0000
vn -1.0000 0.0000 0.0000
vn 0.5926 0.8055 0.0000
usemtl None.022
s 1
f 1/1/1 2/2/1 3/3/1 4/4/1
f 5/5/2 6/6/2 1/1/2 7/7/2
f 8/8/3 9/9/4 10/10/5
f 5/11/6 10/12/7 11/13/8 12/14/8
f 8/15/9 6/16/9 13/17/9 9/18/9
f 4/19/10 3/20/10 14/21/10 15/22/10
f 5/5/11 12/23/12 16/24/13
f 7/7/1 1/1/1 4/4/1 17/25/1
f 18/26/1 7/7/1 17/25/1 19/27/1
f 15/28/14 14/29/14 20/30/15 21/31/15
f 2/2/1 18/26/1 19/27/1 3/3/1
f 17/32/16 4/19/16 15/22/16 22/33/16
f 19/34/17 17/32/17 22/33/17 23/35/17
f 3/20/18 19/36/18 23/37/18 14/21/18
f 20/38/19 24/39/19 25/40/19 26/41/19
f 22/42/14 15/28/14 21/31/15 27/43/15
f 23/44/14 22/42/14 27/43/15 24/45/15
f 14/29/14 23/44/14 24/45/15 20/30/15
f 24/46/20 27/47/20 28/48/20 25/49/20
f 21/50/21 20/38/21 26/41/21 29/51/21
f 28/52/22 29/51/22 26/41/22 25/53/22
f 2/2/23 1/1/23 6/16/23 8/15/23
f 7/7/7 18/26/7 10/12/7 5/11/6
f 27/47/24 21/50/24 29/51/24 28/48/24
f 18/26/25 2/2/25 8/8/25 10/10/25
f 6/6/26 5/5/11 13/54/27
f 13/54/27 5/5/11 16/24/13
f 30/55/28 11/56/29 10/10/5
f 13/57/30 16/58/30 30/59/30 9/60/30
f 31/61/31 16/62/32 12/63/31 32/64/32
f 32/65/33 12/66/8 11/67/8 33/68/33
f 33/69/30 34/70/30 31/61/30 32/71/30
f 10/10/5 9/9/4 30/55/28
f 33/68/34 11/67/35 30/72/36 34/70/37
f 34/70/38 30/72/38 16/62/38 31/61/38
f 35/73/39 36/74/39 37/75/39 38/76/39
f 38/77/40 37/78/40 39/79/40 40/80/40
f 35/81/41 41/82/41 42/83/41 36/84/41
f 43/85/41 44/86/41 42/83/41 41/82/41
f 40/80/40 39/79/40 45/87/40 46/88/40
f 38/77/40 40/80/40 47/89/40
f 48/90/42 49/91/42 37/75/42 36/74/42
f 42/83/41 50/92/41 36/84/41
f 51/93/40 37/78/40 49/94/40
f 36/84/41 50/92/41 48/95/41
f 51/96/38 49/91/38 48/90/38 50/97/38
f 52/98/41 41/82/41 35/81/41
f 39/79/40 37/78/40 51/93/40
f 42/99/43 39/100/43 51/96/43 50/97/43
f 47/101/43 40/102/43 41/103/43 52/104/43
f 41/103/33 40/102/33 46/105/33 43/106/33
f 42/99/38 44/107/38 45/108/38 39/100/38
