# Blender v2.91.2 OBJ File: 'shoe_7.blend'
# www.blender.org
mtllib shoe_7.mtl
o Cube_Cube.001
v 1.800944 0.589388 0.394144
v 1.800944 0.744378 0.394144
v 1.800944 0.744378 0.654682
v 1.800944 0.589388 0.654682
v 1.758676 0.744378 0.654682
v 1.758676 0.589388 0.654682
v 1.758676 0.589388 0.394144
v 1.758676 0.744378 0.394144
v 1.800944 0.589388 -0.394144
v 1.800944 0.589388 -0.654682
v 1.800944 0.744378 -0.654682
v 1.800944 0.744378 -0.394144
v 1.758676 0.589388 -0.654682
v 1.758676 0.744378 -0.654682
v 1.758676 0.589388 -0.394144
v 1.758676 0.744378 -0.394144
v 1.800944 0.548941 0.394144
v 1.800944 0.548940 0.654682
v 1.800944 0.393951 0.654682
v 1.800944 0.393951 0.394144
v 1.758676 0.548940 0.654682
v 1.758676 0.393951 0.654682
v 1.758676 0.548941 0.394144
v 1.758676 0.393951 0.394144
v 1.800944 0.548941 -0.394144
v 1.800944 0.393951 -0.394144
v 1.800944 0.393951 -0.654682
v 1.800944 0.548941 -0.654682
v 1.758676 0.393951 -0.654682
v 1.758676 0.548941 -0.654682
v 1.758676 0.548941 -0.394144
v 1.758676 0.393951 -0.394144
v -1.745897 0.182525 0.279008
v -1.745897 0.740544 0.279008
v -1.986436 0.740544 0.279008
v -1.986436 0.182525 0.279008
v -1.986436 0.740544 -0.279008
v -1.986436 0.182525 -0.279008
v -1.745897 0.740544 -0.279008
v -1.745897 0.182525 -0.279008
v -0.875739 0.000000 -0.918046
v -0.875739 0.576821 -0.918046
v -0.875739 0.576821 -0.684788
v -0.875739 0.000000 -0.684788
v -1.452557 0.576821 -0.684788
v -1.452557 0.000000 -0.684788
v -1.452557 0.576821 -0.918046
v -1.452557 0.000000 -0.918046
v 0.875738 0.000000 -0.918046
v 0.875738 0.000000 -0.684788
v 0.875738 0.576821 -0.684788
v 0.875738 0.576821 -0.918046
v 1.452558 0.000000 -0.684788
v 1.452558 0.576821 -0.684788
v 1.452558 0.000000 -0.918046
v 1.452558 0.576821 -0.918046
v -0.875739 -0.000000 0.918046
v -0.875739 -0.000000 0.684788
v -0.875739 0.576820 0.684789
v -0.875739 0.576820 0.918047
v -1.452557 -0.000000 0.684788
v -1.452557 0.576820 0.684789
v -1.452557 -0.000000 0.918046
v -1.452557 0.576820 0.918047
v 0.875738 -0.000000 0.918046
v 0.875738 0.576820 0.918047
v 0.875738 0.576820 0.684789
v 0.875738 -0.000000 0.684788
v 1.452558 0.576820 0.684789
v 1.452558 -0.000000 0.684788
v 1.452558 0.576820 0.918047
v 1.452558 -0.000000 0.918046
v 0.790094 0.901842 -0.797803
v 0.790094 0.901842 -0.966797
v 0.790094 0.862740 -0.797803
v 0.850583 0.901842 -0.966797
v 0.850583 0.901842 -0.797803
v 0.850583 0.862740 -0.797803
v 0.850583 0.802251 -0.737315
v 0.790094 0.802251 -0.737315
v 0.790094 0.802251 -0.797803
v 0.850583 0.802251 -0.797803
v 0.790094 0.862740 -0.737315
v 0.850583 0.862740 -0.737315
v 0.850583 0.775438 -0.797803
v 0.850583 0.775438 -0.966797
v 0.790094 0.775438 -0.966797
v 0.790094 0.775438 -0.797803
v 0.790094 0.901842 0.797804
v 0.790094 0.862740 0.797804
v 0.790094 0.901842 0.966797
v 0.850583 0.901842 0.966797
v 0.850583 0.862740 0.797804
v 0.850583 0.901842 0.797804
v 0.850583 0.802251 0.737315
v 0.850583 0.802251 0.797804
v 0.790094 0.802251 0.797804
v 0.790094 0.802251 0.737315
v 0.790094 0.862740 0.737315
v 0.850583 0.862740 0.737315
v 0.850583 0.775438 0.966797
v 0.850583 0.775438 0.797804
v 0.790094 0.775438 0.966797
v 0.790094 0.775438 0.797804
v -1.899636 0.170992 -0.503461
v -1.899636 0.170992 -0.634207
v -1.899636 -0.023555 -0.634207
v -1.899636 -0.023555 -0.503461
v -1.768890 0.170992 -0.634207
v -1.768890 -0.023555 -0.634207
v -1.768890 0.170992 -0.503461
v -1.768890 -0.023555 -0.503461
v -1.899636 0.170992 0.503461
v -1.899636 -0.023555 0.503461
v -1.899636 -0.023555 0.634207
v -1.899636 0.170992 0.634207
v -1.768890 -0.023555 0.634207
v -1.768890 0.170992 0.634207
v -1.768890 -0.023555 0.503461
v -1.768890 0.170992 0.503461
v 0.750685 0.111006 -0.696647
v 0.750685 0.111006 -0.807707
v -0.750271 0.111006 -0.807707
v -0.750271 0.111006 -0.696647
v 0.845748 0.609204 0.807707
v 0.845748 0.000762 0.807707
v 0.845748 0.111006 0.696647
v 0.845748 0.609204 0.696647
v 1.486006 0.609204 0.807707
v 1.486006 0.609204 0.696647
v 1.486006 0.111006 0.696647
v 1.486006 0.000762 0.807707
v 1.581069 0.671778 0.696647
v 1.581069 0.671778 0.807707
v 1.581069 0.111006 0.807707
v 1.581069 0.111006 0.696647
v -0.845335 0.609204 0.807707
v -0.845335 0.000762 0.807707
v -0.750271 0.111006 0.807707
v -0.750271 0.671778 0.807707
v -1.485166 0.609204 0.807707
v -1.580229 0.671778 0.807707
v 1.486006 0.000762 -0.807707
v 1.899783 0.000762 -0.807707
v 1.899783 0.000762 0.807707
v -1.580229 0.111006 -0.807707
v -1.580229 0.671778 -0.807707
v -1.485166 0.609204 -0.807707
v -1.485166 0.000762 -0.807707
v -1.877952 0.000762 -0.807707
v -1.877952 0.111006 -0.807707
v 0.750685 0.671778 0.696647
v 0.750685 0.671778 0.807707
v 1.581069 0.671778 -0.807707
v 1.581069 0.111006 -0.807707
v 1.486006 0.609204 -0.807707
v -1.580229 0.111006 -0.696647
v 1.486006 0.111006 -0.696647
v 1.486006 0.609204 -0.696647
v -1.877952 0.000762 0.807707
v -1.485166 0.000762 0.807707
v -1.580229 0.111006 0.807707
v -1.877952 0.111006 0.807707
v -0.750271 0.671778 0.696647
v -1.580229 0.671778 0.696647
v 0.845748 0.000762 -0.807707
v 0.845748 0.111006 -0.696647
v -0.845335 0.000762 -0.807707
v -1.580229 0.111006 0.696647
v -0.750271 0.671778 -0.696647
v -0.750271 0.671778 -0.807707
v -1.485168 0.609204 -0.696647
v -1.485168 0.111006 -0.696647
v 0.750685 0.671778 -0.696647
v 0.750685 0.671778 -0.807707
v 1.736614 0.111006 -0.807707
v 1.736614 0.111006 -0.696647
v 1.736614 0.310641 -0.807707
v -0.845335 0.609204 -0.807707
v -0.845335 0.609204 -0.696647
v 0.845748 0.609204 -0.807707
v 1.736614 0.111006 0.807707
v 1.736614 0.111006 0.696647
v 1.736614 0.310641 0.807707
v 1.899783 0.310641 0.807707
v 1.899783 0.310641 -0.807707
v -0.845335 0.111006 -0.696647
v -1.485168 0.111006 0.696647
v 0.750685 0.111006 0.807707
v -0.845335 0.111006 0.696647
v 1.581069 0.111006 -0.696647
v 0.845748 0.609204 -0.696647
v -1.485168 0.609204 0.696647
v -0.845335 0.609204 0.696647
v 0.750685 0.111006 0.696647
v -0.750271 0.111006 0.696647
v -1.580229 0.671778 -0.696647
v 1.581069 0.671778 -0.696647
v 0.934317 0.797905 -0.740728
v 1.766523 0.797905 -0.740728
v 1.766523 0.044981 -0.740728
v -1.119049 0.797905 0.740728
v -1.787040 0.044981 0.740728
v 1.766523 0.044981 0.740728
v 0.934317 0.797905 0.740728
v -1.787040 0.797905 0.740728
v -1.787040 0.797905 -0.740728
v -1.787040 0.044981 -0.740728
v -1.119049 0.797905 -0.740728
v 1.766523 0.797905 0.740728
v -0.718534 1.217891 -0.740728
v -0.718534 1.217891 0.740728
v 0.738497 1.217891 0.740728
v 0.738497 1.217891 -0.740728
vt 0.430219 0.688732
vt 0.430219 0.668381
vt 0.464429 0.668381
vt 0.464429 0.688732
vt 0.469979 0.668381
vt 0.469979 0.688732
vt 0.424669 0.688732
vt 0.424669 0.668381
vt 0.464429 0.694282
vt 0.430219 0.694282
vt 0.464429 0.662831
vt 0.430219 0.662831
vt 0.414504 0.688731
vt 0.380294 0.688732
vt 0.380294 0.668381
vt 0.414504 0.668380
vt 0.374744 0.688732
vt 0.374744 0.668381
vt 0.420055 0.688732
vt 0.420055 0.668380
vt 0.414504 0.694282
vt 0.380294 0.694282
vt 0.380294 0.662830
vt 0.414504 0.662830
vt 0.430219 0.631700
vt 0.464429 0.631700
vt 0.464429 0.652052
vt 0.430219 0.652052
vt 0.469979 0.631700
vt 0.469979 0.652052
vt 0.424669 0.631700
vt 0.424669 0.652052
vt 0.430219 0.626150
vt 0.464429 0.626150
vt 0.464429 0.657602
vt 0.430219 0.657602
vt 0.414504 0.631700
vt 0.414504 0.652051
vt 0.380294 0.652051
vt 0.380294 0.631700
vt 0.374744 0.652051
vt 0.374744 0.631700
vt 0.420055 0.631700
vt 0.420055 0.652051
vt 0.380294 0.626150
vt 0.414504 0.626150
vt 0.380294 0.657601
vt 0.414504 0.657601
vt 0.331736 0.614564
vt 0.331736 0.687835
vt 0.300152 0.687835
vt 0.300152 0.614564
vt 0.226881 0.687835
vt 0.226881 0.614564
vt 0.195297 0.687835
vt 0.195297 0.614564
vt 0.226881 0.582980
vt 0.300152 0.582980
vt 0.300152 0.719419
vt 0.226881 0.719419
vt 0.539382 0.956079
vt 0.539382 0.880339
vt 0.570010 0.880339
vt 0.570010 0.956079
vt 0.539383 0.773971
vt 0.539382 0.849711
vt 0.463642 0.849711
vt 0.463642 0.773971
vt 0.433014 0.956079
vt 0.433014 0.880339
vt 0.463642 0.880339
vt 0.463642 0.956079
vt 0.539382 0.986707
vt 0.463642 0.986707
vt 0.189651 0.956079
vt 0.159023 0.956079
vt 0.159023 0.880339
vt 0.189651 0.880339
vt 0.189651 0.773971
vt 0.265391 0.773971
vt 0.265391 0.849711
vt 0.189651 0.849711
vt 0.296019 0.956079
vt 0.265391 0.956079
vt 0.265391 0.880339
vt 0.296019 0.880339
vt 0.189651 0.986707
vt 0.265391 0.986707
vt 0.326647 0.956079
vt 0.296019 0.956079
vt 0.296019 0.880339
vt 0.326647 0.880339
vt 0.326647 0.773971
vt 0.402387 0.773971
vt 0.402387 0.849711
vt 0.326647 0.849711
vt 0.433014 0.956079
vt 0.402387 0.956079
vt 0.402387 0.880339
vt 0.433014 0.880339
vt 0.326647 0.986707
vt 0.402387 0.986707
vt 0.128395 0.956079
vt 0.128395 0.880339
vt 0.159023 0.880339
vt 0.159023 0.956079
vt 0.128395 0.773971
vt 0.128395 0.849711
vt 0.052655 0.849711
vt 0.052655 0.773971
vt 0.022027 0.956079
vt 0.022027 0.880339
vt 0.052655 0.880339
vt 0.052655 0.956079
vt 0.128395 0.986707
vt 0.052655 0.986707
vt 0.127935 0.635642
vt 0.094921 0.635642
vt 0.127935 0.628003
vt 0.094921 0.647458
vt 0.127935 0.647458
vt 0.127935 0.655097
vt 0.020160 0.647458
vt 0.020160 0.635642
vt 0.031976 0.635642
vt 0.031976 0.647458
vt 0.147390 0.635642
vt 0.147390 0.647458
vt 0.135574 0.647458
vt 0.135574 0.635642
vt 0.139751 0.628003
vt 0.127935 0.616186
vt 0.139751 0.616186
vt 0.127935 0.666914
vt 0.127935 0.672152
vt 0.094921 0.672152
vt 0.094921 0.610948
vt 0.127935 0.610948
vt 0.037214 0.647458
vt 0.037214 0.635642
vt 0.070228 0.635642
vt 0.070228 0.647458
vt 0.139751 0.666914
vt 0.139751 0.655097
vt 0.127935 0.726508
vt 0.127935 0.734147
vt 0.094921 0.726508
vt 0.094921 0.714692
vt 0.127935 0.707053
vt 0.127935 0.714692
vt 0.020160 0.714692
vt 0.031976 0.714692
vt 0.031976 0.726508
vt 0.020160 0.726508
vt 0.147390 0.726508
vt 0.135574 0.726508
vt 0.135574 0.714692
vt 0.147390 0.714692
vt 0.139751 0.734147
vt 0.139751 0.745963
vt 0.127935 0.745963
vt 0.127935 0.695236
vt 0.094921 0.689998
vt 0.127935 0.689998
vt 0.094921 0.751201
vt 0.127935 0.751201
vt 0.037214 0.714692
vt 0.070228 0.714692
vt 0.070228 0.726508
vt 0.037214 0.726508
vt 0.139751 0.695236
vt 0.139751 0.707053
vt 0.650143 0.802946
vt 0.667311 0.802946
vt 0.667311 0.828491
vt 0.650143 0.828491
vt 0.684479 0.802946
vt 0.684479 0.828491
vt 0.667311 0.871204
vt 0.650143 0.871204
vt 0.650143 0.845659
vt 0.667311 0.845659
vt 0.632975 0.802946
vt 0.632975 0.828491
vt 0.650143 0.785778
vt 0.667311 0.785778
vt 0.592430 0.802946
vt 0.592430 0.828491
vt 0.575262 0.828491
vt 0.575262 0.802946
vt 0.558094 0.828491
vt 0.558094 0.802946
vt 0.575262 0.871204
vt 0.575262 0.845659
vt 0.592430 0.845659
vt 0.592430 0.871204
vt 0.609598 0.802946
vt 0.609598 0.828491
vt 0.575262 0.785779
vt 0.592430 0.785779
vt 0.704180 0.423075
vt 0.718763 0.423076
vt 0.718763 0.620160
vt 0.704180 0.620160
vt 0.945352 0.346819
vt 0.945352 0.410593
vt 0.930769 0.396118
vt 0.930769 0.346819
vt 0.945352 0.221353
vt 0.930769 0.221353
vt 0.930769 0.172054
vt 0.945352 0.157579
vt 0.972417 0.229569
vt 0.957834 0.229569
vt 0.957834 0.172054
vt 0.972417 0.172054
vt 0.945352 0.696417
vt 0.945352 0.632642
vt 0.957834 0.647118
vt 0.957834 0.704633
vt 0.949618 0.801130
vt 0.949618 0.717116
vt 0.957835 0.813612
vt 0.733238 0.157579
vt 0.733238 0.103247
vt 0.945352 0.103247
vt 0.720756 0.871128
vt 0.720756 0.813613
vt 0.733238 0.821829
vt 0.733238 0.885603
vt 0.733238 0.937178
vt 0.733238 0.951653
vt 0.694145 0.951653
vt 0.681663 0.937178
vt 0.972417 0.338603
vt 0.957834 0.338603
vt 0.720756 0.229569
vt 0.720756 0.172054
vt 0.733238 0.221353
vt 0.747821 0.990746
vt 0.733238 0.990746
vt 0.747821 0.172054
vt 0.747821 0.221353
vt 0.945351 0.937178
vt 0.996926 0.937178
vt 0.984444 0.951654
vt 0.945351 0.951654
vt 0.949618 0.326121
vt 0.949618 0.242052
vt 0.972417 0.704633
vt 0.972418 0.813612
vt 0.733239 0.410593
vt 0.747821 0.396118
vt 0.733238 0.632642
vt 0.972418 0.871128
vt 0.957835 0.871128
vt 0.706173 0.704635
vt 0.706173 0.647121
vt 0.720756 0.647121
vt 0.720756 0.704635
vt 0.747821 0.821829
vt 0.747821 0.871128
vt 0.706173 0.396118
vt 0.706173 0.338603
vt 0.720756 0.338603
vt 0.720756 0.396118
vt 0.945351 0.885603
vt 0.733238 0.014920
vt 0.747821 0.014920
vt 0.733238 0.041133
vt 0.728972 0.801131
vt 0.728972 0.717118
vt 0.743555 0.717118
vt 0.743555 0.801131
vt 0.935035 0.326121
vt 0.935035 0.242052
vt 0.728972 0.242051
vt 0.728972 0.326121
vt 0.974410 0.145096
vt 0.959827 0.145096
vt 0.959827 0.124673
vt 0.974410 0.124672
vt 0.945352 0.821829
vt 0.945351 0.041134
vt 0.945351 0.062559
vt 0.733238 0.062559
vt 0.733238 0.696419
vt 0.747821 0.647121
vt 0.747821 0.696419
vt 0.930769 0.871128
vt 0.959827 0.423076
vt 0.959827 0.620160
vt 0.930769 0.647118
vt 0.718763 0.145096
vt 0.704180 0.145096
vt 0.704180 0.124672
vt 0.718763 0.124673
vt 0.743555 0.242051
vt 0.743555 0.326121
vt 0.945351 0.990746
vt 0.930768 0.990746
vt 0.935035 0.801130
vt 0.935035 0.717116
vt 0.930769 0.821829
vt 0.733238 0.346819
vt 0.747821 0.346819
vt 0.957834 0.396118
vt 0.972417 0.396118
vt 0.972417 0.647118
vt 0.706173 0.871128
vt 0.706173 0.813613
vt 0.971565 0.041134
vt 0.986040 0.062559
vt 0.930769 0.696417
vt 0.706173 0.229569
vt 0.706173 0.172054
vt 0.692549 0.062559
vt 0.707025 0.041133
vt 0.974410 0.423076
vt 0.974410 0.620160
vt 0.413621 0.266034
vt 0.413677 0.152159
vt 0.505247 0.152204
vt 0.111219 0.498174
vt 0.019606 0.584150
vt 0.019817 0.151967
vt 0.111332 0.265886
vt 0.685211 0.584474
vt 0.685166 0.676045
vt 0.504992 0.675957
vt 0.505037 0.584386
vt 0.111177 0.584194
vt 0.413466 0.584342
vt 0.413508 0.498321
vt 0.685124 0.762066
vt 0.504950 0.761978
vt 0.111387 0.152012
vt 0.352474 0.449581
vt 0.172300 0.449493
vt 0.172378 0.289732
vt 0.352552 0.289819
vt 0.172410 0.224194
vt 0.352584 0.224281
vt 0.352436 0.527688
vt 0.172262 0.527600
vt 0.172466 0.110319
vt 0.352639 0.110407
vt 0.172510 0.018749
vt 0.352684 0.018837
vt 0.930768 0.014920
vt 0.945351 0.014920
vt 0.685421 0.152292
vn 1.0000 0.0000 0.0000
vn 0.0000 0.0000 1.0000
vn 0.0000 0.0000 -1.0000
vn 0.0000 -1.0000 -0.0000
vn 0.0000 1.0000 0.0000
vn -1.0000 -0.0000 0.0000
vn 0.9063 0.4226 0.0000
vn -0.7237 0.6901 0.0000
usemtl Material.002
s 1
f 1/1/1 2/2/1 3/3/1 4/4/1
f 4/4/2 3/3/2 5/5/2 6/6/2
f 7/7/3 8/8/3 2/2/3 1/1/3
f 4/4/4 6/9/4 7/10/4 1/1/4
f 5/11/5 3/3/5 2/2/5 8/12/5
f 9/13/1 10/14/1 11/15/1 12/16/1
f 10/14/3 13/17/3 14/18/3 11/15/3
f 15/19/2 9/13/2 12/16/2 16/20/2
f 10/14/4 9/13/4 15/21/4 13/22/4
f 14/23/5 16/24/5 12/16/5 11/15/5
f 17/25/1 18/26/1 19/27/1 20/28/1
f 18/26/2 21/29/2 22/30/2 19/27/2
f 23/31/3 17/25/3 20/28/3 24/32/3
f 18/26/5 17/25/5 23/33/5 21/34/5
f 22/35/4 24/36/4 20/28/4 19/27/4
f 25/37/1 26/38/1 27/39/1 28/40/1
f 28/40/3 27/39/3 29/41/3 30/42/3
f 31/43/2 32/44/2 26/38/2 25/37/2
f 28/40/5 30/45/5 31/46/5 25/37/5
f 29/47/4 27/39/4 26/38/4 32/48/4
f 33/49/2 34/50/2 35/51/2 36/52/2
f 36/52/6 35/51/6 37/53/6 38/54/6
f 38/54/3 37/53/3 39/55/3 40/56/3
f 36/52/4 38/54/4 40/57/4 33/58/4
f 37/53/5 35/51/5 34/59/5 39/60/5
f 41/61/1 42/62/1 43/63/1 44/64/1
f 44/65/2 43/66/2 45/67/2 46/68/2
f 46/69/6 45/70/6 47/71/6 48/72/6
f 48/72/3 47/71/3 42/62/3 41/61/3
f 44/73/4 46/74/4 48/72/4 41/61/4
f 45/67/5 43/66/5 42/62/5 47/71/5
f 49/75/6 50/76/6 51/77/6 52/78/6
f 50/79/2 53/80/2 54/81/2 51/82/2
f 53/83/1 55/84/1 56/85/1 54/86/1
f 55/84/3 49/75/3 52/78/3 56/85/3
f 50/87/4 49/75/4 55/84/4 53/88/4
f 54/81/5 56/85/5 52/78/5 51/82/5
f 57/89/1 58/90/1 59/91/1 60/92/1
f 58/93/3 61/94/3 62/95/3 59/96/3
f 61/97/6 63/98/6 64/99/6 62/100/6
f 63/98/2 57/89/2 60/92/2 64/99/2
f 58/101/4 57/89/4 63/98/4 61/102/4
f 62/95/5 64/99/5 60/92/5 59/96/5
f 65/103/6 66/104/6 67/105/6 68/106/6
f 68/107/3 67/108/3 69/109/3 70/110/3
f 70/111/1 69/112/1 71/113/1 72/114/1
f 72/114/2 71/113/2 66/104/2 65/103/2
f 68/115/4 70/116/4 72/114/4 65/103/4
f 69/109/5 67/108/5 66/104/5 71/113/5
f 73/117/6 74/118/6 75/119/6
f 76/120/1 77/121/1 78/122/1
f 79/123/4 80/124/4 81/125/4 82/126/4
f 83/127/5 84/128/5 78/129/5 75/130/5
f 83/131/6 75/119/6 81/132/6 80/133/6
f 82/134/1 85/135/1 86/136/1
f 87/137/6 88/138/6 81/132/6
f 73/117/5 77/121/5 76/120/5 74/118/5
f 87/137/6 81/132/6 75/119/6 74/118/6
f 75/130/2 78/129/2 77/121/2 73/117/2
f 85/139/4 88/140/4 87/141/4 86/142/4
f 79/143/1 82/134/1 78/122/1 84/144/1
f 82/126/2 81/125/2 88/140/2 85/139/2
f 74/118/3 76/120/3 86/142/3 87/141/3
f 78/122/1 82/134/1 86/136/1 76/120/1
f 89/145/6 90/146/6 91/147/6
f 92/148/1 93/149/1 94/150/1
f 95/151/4 96/152/4 97/153/4 98/154/4
f 99/155/5 90/156/5 93/157/5 100/158/5
f 99/159/6 98/160/6 97/161/6 90/146/6
f 96/162/1 101/163/1 102/164/1
f 103/165/6 97/161/6 104/166/6
f 89/145/5 91/147/5 92/148/5 94/150/5
f 103/165/6 91/147/6 90/146/6 97/161/6
f 90/156/3 89/145/3 94/150/3 93/157/3
f 102/167/4 101/168/4 103/169/4 104/170/4
f 95/171/1 100/172/1 93/149/1 96/162/1
f 96/152/3 102/167/3 104/170/3 97/153/3
f 91/147/2 103/169/2 101/168/2 92/148/2
f 93/149/1 92/148/1 101/163/1 96/162/1
f 105/173/6 106/174/6 107/175/6 108/176/6
f 106/174/3 109/177/3 110/178/3 107/175/3
f 109/179/1 111/180/1 112/181/1 110/182/1
f 111/183/2 105/173/2 108/176/2 112/184/2
f 106/174/5 105/173/5 111/185/5 109/186/5
f 110/182/4 112/181/4 108/176/4 107/175/4
f 113/187/6 114/188/6 115/189/6 116/190/6
f 116/190/2 115/189/2 117/191/2 118/192/2
f 118/193/1 117/194/1 119/195/1 120/196/1
f 120/197/3 119/198/3 114/188/3 113/187/3
f 116/190/5 118/199/5 120/200/5 113/187/5
f 117/194/4 115/189/4 114/188/4 119/195/4
f 121/201/5 122/202/5 123/203/5 124/204/5
f 125/205/1 126/206/1 127/207/1 128/208/1
f 129/209/6 130/210/6 131/211/6 132/212/6
f 133/213/1 134/214/1 135/215/1 136/216/1
f 137/217/2 138/218/2 139/219/2 140/220/2
f 141/221/2 137/222/2 140/220/2 142/223/2
f 143/224/4 144/225/4 145/226/4 132/212/4
f 146/227/3 147/228/3 148/229/3 149/230/3
f 150/231/3 151/232/3 146/233/3 149/234/3
f 152/235/5 153/236/5 134/214/5 133/213/5
f 154/237/3 155/238/3 143/224/3 156/239/3
f 157/240/5 146/241/5 151/232/5
f 156/239/6 143/224/6 158/242/6 159/243/6
f 160/244/2 161/245/2 162/246/2 163/247/2
f 134/214/2 153/236/2 125/248/2 129/249/2
f 164/250/5 165/251/5 142/223/5 140/220/5
f 127/207/1 126/206/1 166/252/1 167/253/1
f 138/218/4 168/254/4 166/252/4 126/206/4
f 158/242/6 143/224/6 132/212/6 131/211/6
f 165/251/6 169/255/6 162/256/6 142/223/6
f 170/257/1 124/258/1 123/259/1 171/260/1
f 148/229/1 172/261/1 173/262/1 149/230/1
f 121/263/6 174/264/6 175/265/6 122/266/6
f 150/231/4 149/230/4 161/267/4 160/244/4
f 176/268/6 177/269/6 178/270/6
f 148/271/3 147/228/3 171/260/3 179/272/3
f 180/273/4 172/274/4 148/271/4 179/272/4
f 128/275/4 130/276/4 129/249/4 125/248/4
f 175/265/3 154/237/3 156/277/3 181/278/3
f 136/279/5 135/280/5 182/281/5 183/282/5
f 142/223/2 162/256/2 161/267/2 141/283/2
f 178/270/5 184/284/5 185/285/5 186/286/5
f 179/287/6 168/254/6 187/288/6 180/289/6
f 188/290/1 161/267/1 149/230/1 173/262/1
f 138/218/2 126/206/2 189/291/2 139/292/2
f 182/281/2 135/280/2 132/212/2 145/226/2
f 166/252/3 168/254/3 123/203/3 122/202/3
f 187/288/6 168/254/6 138/218/6 190/293/6
f 155/294/5 191/295/5 177/296/5 176/297/5
f 181/278/4 156/277/4 159/298/4 192/299/4
f 163/247/5 162/300/5 169/301/5
f 137/222/4 141/221/4 193/302/4 194/303/4
f 169/301/5 157/240/5 151/232/5 163/247/5
f 141/283/1 161/267/1 188/290/1 193/304/1
f 181/305/1 192/306/1 167/253/1 166/252/1
f 189/307/6 153/236/6 152/235/6 195/308/6
f 140/220/1 139/219/1 196/309/1 164/250/1
f 147/228/6 146/227/6 157/310/6 197/311/6
f 185/285/2 184/284/2 182/312/2 145/313/2
f 122/266/3 175/265/3 181/305/3 166/252/3
f 163/247/6 151/232/6 150/231/6 160/244/6
f 171/260/5 147/228/5 197/311/5 170/257/5
f 135/215/2 134/214/2 129/209/2 132/212/2
f 144/225/1 186/286/1 185/285/1 145/226/1
f 168/254/3 179/287/3 171/260/3 123/259/3
f 137/217/6 194/314/6 190/293/6 138/218/6
f 175/265/5 174/264/5 198/315/5 154/237/5
f 126/206/2 125/205/2 153/236/2 189/307/2
f 154/237/1 198/315/1 191/316/1 155/238/1
f 186/286/3 144/317/3 176/318/3 178/270/3
f 176/297/3 144/225/3 143/224/3 155/294/3
f 189/291/5 195/319/5 196/320/5 139/292/5
f 199/321/3 200/322/3 201/323/3
f 202/324/2 203/325/2 204/326/2 205/327/2
f 203/328/6 206/329/6 207/330/6 208/331/6
f 206/332/2 203/325/2 202/324/2
f 208/331/3 207/333/3 209/334/3
f 207/330/5 206/329/5 202/335/5 209/336/5
f 204/326/2 210/337/2 205/327/2
f 211/338/5 212/339/5 213/340/5 214/341/5
f 205/342/7 199/343/7 214/341/7 213/340/7
f 209/344/8 202/345/8 212/339/8 211/338/8
f 209/334/3 199/321/3 201/323/3 208/331/3
f 199/343/5 205/342/5 210/346/5 200/347/5
f 213/340/2 212/339/2 202/324/2 205/327/2
f 214/341/3 199/321/3 209/334/3 211/338/3
f 210/346/1 204/348/1 201/349/1 200/347/1
f 184/284/6 183/350/6 182/351/6
f 177/269/6 183/350/6 184/284/6 178/270/6
f 201/323/4 204/352/4 203/328/4 208/331/4
