# Blender v3.0.0 OBJ File: ''
# www.blender.org
mtllib shoe.mtl
o Shoes_Plane.006
v -1.133148 0.362506 0.914360
v -0.767449 0.585781 -0.642627
v 1.408749 0.362509 0.914361
v 0.517806 0.585781 -0.642627
v -1.133148 0.712417 0.844759
v -0.767449 0.585781 0.642629
v 1.408749 0.712420 0.844759
v 0.517806 0.585781 0.642629
v -1.133149 1.009056 0.646551
v 1.408748 1.009059 0.646551
v -1.133149 1.207264 0.349911
v 1.408748 1.207267 0.349911
v -1.133149 1.276865 0.000000
v 1.408748 1.276869 0.000000
v -1.133149 1.207264 -0.349910
v 1.408748 1.207267 -0.349910
v -1.133148 1.009056 -0.646550
v 1.408748 1.009060 -0.646550
v -1.133148 0.712416 -0.844759
v 1.408749 0.712420 -0.844759
v -1.133148 0.362506 -0.914360
v 1.408749 0.362509 -0.914360
v 1.408749 0.789253 1.030250
v 1.408750 0.362509 1.115135
v 1.408748 1.151027 0.788520
v 1.408748 1.392759 0.426744
v 1.408748 1.477642 0.000000
v 1.408748 1.392759 -0.426743
v 1.408748 1.151028 -0.788519
v 1.408749 0.789253 -1.030250
v 1.408749 0.362509 -1.115134
v 2.949529 0.362510 0.000000
v 2.522274 0.671735 0.000000
v 2.522274 0.480845 0.285686
v 2.522274 0.076825 0.118335
v 2.522275 0.053287 0.000000
v 2.522274 0.244175 -0.285686
v 2.522274 0.581165 -0.218654
v 2.522274 0.648196 -0.118335
v 2.522274 0.581165 0.218655
v 2.522274 0.480845 -0.285686
v 2.522274 0.143856 -0.218655
v 2.522274 0.244175 0.285686
v 2.522274 0.648196 0.118335
v 2.522274 0.362510 -0.309224
v 2.522274 0.076825 -0.118335
v 2.522274 0.362510 0.309225
v 2.522274 0.143856 0.218655
v 2.151100 0.583648 -0.533874
v 1.779925 0.686450 -0.782062
v 2.151099 0.141372 0.533874
v 1.779925 0.000686 0.756750
v 2.151100 0.362510 -0.577861
v 1.779924 0.362510 -0.846498
v 2.151100 0.583648 0.533874
v 1.779925 0.686450 0.782062
v 2.151099 0.141373 -0.533874
v 2.151100 0.771119 0.408610
v 1.779925 0.961074 0.598564
v 2.151099 0.896384 0.221138
v 1.779924 1.144571 0.323941
v 2.151099 0.940371 0.000000
v 1.779924 1.209007 0.000000
v 2.151099 0.896384 -0.221138
v 1.779924 1.144571 -0.323940
v 1.779924 0.961073 -0.598564
v 2.151100 0.771119 -0.408609
v 1.779924 0.362509 0.846498
v 2.151100 0.362510 0.577861
v -1.133148 0.362507 0.000000
v 0.517805 1.207266 0.349911
v -0.767449 1.207265 0.349911
v 0.517805 1.276868 0.000000
v -0.767449 1.276866 0.000000
v 0.517805 1.207265 -0.349910
v -0.767449 1.207265 -0.349910
v -0.767449 1.009056 -0.646550
v 1.408750 0.000687 -1.043163
v 1.779925 0.000686 -0.756750
v 2.408409 0.000687 -0.149872
v 1.408750 0.000687 -0.836799
v 2.242520 0.000687 -0.361823
v -1.133147 0.000686 -0.836801
v 2.449598 0.000686 0.000000
v 1.408750 0.000686 1.043164
v 2.408408 0.000687 0.149872
v 1.408750 0.000686 0.836799
v 2.242521 0.000687 0.361823
v -1.133148 0.000686 0.836801
v 0.517805 0.712419 -0.844759
v 0.517805 0.362508 -0.914360
v 0.517805 0.000687 -0.836800
v 0.517805 1.009058 -0.646550
v 0.517804 0.000686 0.836800
v 0.517804 1.009058 0.646551
v 0.517804 0.362508 0.914360
v 0.517804 0.712418 0.844759
v -0.767449 0.712417 -0.844759
v -0.767450 0.362507 -0.914360
v -0.767450 0.000686 -0.836801
v -0.767451 0.000686 0.836801
v -0.767450 0.362506 0.914360
v -0.767450 1.009057 0.646551
v -0.767450 0.712417 0.844759
v -1.133148 0.362506 0.914360
v -1.133148 0.712417 0.844759
v 1.408749 0.362509 0.914361
v 1.408749 0.712420 0.844759
v -1.133149 1.009056 0.646551
v 1.408748 1.009059 0.646551
v -1.133149 1.207264 0.349911
v -1.133149 1.276865 0.000000
v -1.133149 1.207264 -0.349910
v -1.133148 1.009056 -0.646550
v -1.133148 0.712416 -0.844759
v -1.133148 0.362506 -0.914360
v 1.408749 0.789253 1.030250
v 1.408748 1.151027 0.788520
v 1.408748 1.392759 0.426744
v 1.408748 1.477642 0.000000
v 1.408748 1.392759 -0.426743
v 1.408748 1.151028 -0.788519
v 1.408749 0.789253 -1.030250
v -0.767449 1.207265 0.349911
v -0.767449 1.276866 0.000000
v -0.767449 1.207265 -0.349910
v -0.767449 1.009056 -0.646550
v -0.767449 1.009056 -0.646550
v 1.408749 0.362509 -1.115134
v 1.408750 0.000687 -1.043163
v 1.408750 0.000687 -1.043163
v -1.133147 0.000686 -0.836801
v -1.133147 0.000686 -0.836801
v -1.133148 0.000686 0.836801
v -1.133148 0.000686 0.836801
v -0.767449 0.585781 0.642629
v -0.767449 0.585781 0.642629
v 0.517806 0.585781 0.642629
v 0.517806 0.585781 0.642629
v -0.767449 0.585781 -0.642627
v -0.767449 0.585781 -0.642627
v -0.767450 0.000686 -0.836801
v 0.517806 0.585781 -0.642627
v 0.517806 0.585781 -0.642627
v 1.408748 1.207267 0.349911
v 1.408748 1.276869 0.000000
v 1.408748 1.207267 -0.349910
v 0.517805 1.207266 0.349911
v 0.517805 1.276868 0.000000
v 1.408748 1.009060 -0.646550
v 1.408749 0.712420 -0.844759
v 1.408749 0.362509 -0.914360
v 1.408750 0.000687 -0.836799
v 1.408750 0.000687 -0.836799
v 0.517805 1.207265 -0.349910
v 1.408750 0.362509 1.115135
v 1.408750 0.000686 1.043164
v 1.408750 0.000686 1.043164
v 1.408750 0.000686 0.836799
v 1.408750 0.000686 0.836799
v -0.767451 0.000686 0.836801
v 0.517805 0.000687 -0.836800
v 0.517804 0.000686 0.836800
v -0.767450 1.009057 0.646551
v -0.767450 1.009057 0.646551
v 0.517804 1.009058 0.646551
v 0.517804 1.009058 0.646551
v 0.517805 1.009058 -0.646550
v 0.517805 1.009058 -0.646550
vt 0.213838 0.480169
vt 0.140463 0.490771
vt 0.213837 0.452837
vt 0.213838 0.701830
vt 0.213838 0.729163
vt 0.140463 0.691228
vt 0.389962 0.480169
vt 0.389961 0.701830
vt 0.947012 0.364941
vt 0.947013 0.619013
vt 0.776786 0.619013
vt 0.776786 0.364942
vt 0.776786 0.364942
vt 0.776786 0.619013
vt 0.731277 0.619013
vt 0.731277 0.364942
vt 0.947013 0.619013
vt 0.947012 0.364941
vt 0.992521 0.364942
vt 0.992521 0.619013
vt 0.861899 0.693310
vt 0.947013 0.619013
vt 0.908244 0.685827
vt 0.947532 0.319436
vt 0.947012 0.364941
vt 0.908243 0.298127
vt 0.049016 0.638922
vt 0.016223 0.610850
vt 0.016223 0.571150
vt 0.049016 0.543078
vt 0.008081 0.591000
vt 0.776786 0.619013
vt 0.815555 0.298127
vt 0.776786 0.364942
vt 0.776266 0.319436
vt 0.644033 0.480168
vt 0.644033 0.701830
vt 0.947532 0.664518
vt 0.815555 0.685828
vt 0.776266 0.664519
vt 0.716325 0.480168
vt 0.716325 0.701830
vt 0.861899 0.290644
vt 0.007476 0.047708
vt 0.079768 0.047708
vt 0.079768 0.086439
vt 0.007476 0.086439
vt 0.079768 0.127746
vt 0.007476 0.127746
vt 0.079768 0.172441
vt 0.007476 0.172441
vt 0.509963 0.172441
vt 0.509963 0.219386
vt 0.333840 0.219386
vt 0.333840 0.172441
vt 0.079768 0.219386
vt 0.007476 0.219386
vt 0.509963 0.266330
vt 0.333840 0.266330
vt 0.079768 0.266330
vt 0.007476 0.266330
vt 0.509963 0.311026
vt 0.333840 0.311026
vt 0.007476 0.311025
vt 0.079768 0.311025
vt 0.079768 0.352332
vt 0.007476 0.352332
vt 0.079768 0.391063
vt 0.007476 0.391063
vt 0.946859 0.718049
vt 0.946859 0.691457
vt 0.985757 0.700990
vt 0.985757 0.728322
vt 0.144768 0.711714
vt 0.144768 0.933376
vt 0.105869 0.822545
vt 0.751723 0.009812
vt 0.781147 0.027165
vt 0.717228 0.052570
vt 0.709120 0.046590
vt 0.877349 0.924786
vt 0.909240 0.951038
vt 0.900980 0.975605
vt 0.862086 0.943589
vt 0.909240 0.727268
vt 0.877349 0.753520
vt 0.862087 0.734716
vt 0.900980 0.702700
vt 0.856040 0.792808
vt 0.848558 0.839153
vt 0.826973 0.839153
vt 0.836099 0.782632
vt 0.856040 0.885497
vt 0.836098 0.895673
vt 0.946858 0.960256
vt 0.946858 0.986848
vt 0.687990 0.147646
vt 0.694520 0.092457
vt 0.702760 0.091904
vt 0.712913 0.143362
vt 0.697982 0.044357
vt 0.704065 0.020640
vt 0.710328 0.088662
vt 0.736624 0.132627
vt 0.686022 0.048025
vt 0.676870 0.032723
vt 0.716764 0.083528
vt 0.757299 0.116814
vt 0.677133 0.056827
vt 0.653360 0.050968
vt 0.721149 0.076530
vt 0.772862 0.096882
vt 0.673832 0.067697
vt 0.621276 0.087835
vt 0.722936 0.068503
vt 0.782314 0.074711
vt 0.675266 0.077669
vt 0.622647 0.121967
vt 0.721828 0.060208
vt 0.785340 0.051509
vt 0.679819 0.085334
vt 0.642112 0.137177
vt 0.663985 0.145486
vt 0.686603 0.090235
vt 0.569604 0.302821
vt 0.605426 0.213453
vt 0.644338 0.225004
vt 0.624977 0.317967
vt 0.700459 0.072163
vt 0.686980 0.226556
vt 0.687397 0.320352
vt 0.965579 0.017462
vt 0.965579 0.065981
vt 0.869896 0.055268
vt 0.865945 0.007484
vt 0.526857 0.279871
vt 0.565195 0.187369
vt 0.952730 0.121931
vt 0.861667 0.095015
vt 0.925305 0.178055
vt 0.842864 0.133319
vt 0.881916 0.231948
vt 0.813625 0.168570
vt 0.823451 0.277792
vt 0.775390 0.197439
vt 0.755404 0.307617
vt 0.731868 0.217470
vt 0.068251 0.710660
vt 0.036360 0.736912
vt 0.105869 0.701442
vt 0.509963 0.391063
vt 0.509963 0.431295
vt 0.333840 0.431295
vt 0.333840 0.391063
vt 0.007568 0.822545
vt 0.015051 0.868890
vt 0.985757 0.977316
vt 0.985757 0.949983
vt 0.015051 0.776201
vt 0.105869 0.943649
vt 0.068251 0.934430
vt 0.036360 0.908178
vt 0.509964 0.047708
vt 0.333840 0.047708
vt 0.333840 0.007476
vt 0.509964 0.007476
vt 0.079768 0.431295
vt 0.333840 0.352332
vt 0.509963 0.352332
vt 0.079768 0.007476
vt 0.333840 0.086439
vt 0.509964 0.086440
vt 0.333840 0.127746
vt 0.509963 0.127746
vt 0.007476 0.431295
vt 0.007476 0.007476
vn -0.0000 -1.0000 0.0000
vn -0.0000 1.0000 0.0000
vn -0.0000 0.0093 -1.0000
vn 0.0000 0.0093 1.0000
vn 1.0000 0.0000 -0.0000
vn -1.0000 -0.0000 0.0000
vn 0.0000 -0.0074 1.0000
vn 0.0000 0.3827 0.9239
vn 0.0000 0.6588 0.7523
vn 0.0000 0.7071 0.7071
vn 0.0000 0.9239 0.3827
vn 0.0000 0.9239 -0.3827
vn 0.0000 0.7071 -0.7071
vn 0.0000 0.6588 -0.7523
vn 0.0000 0.3827 -0.9239
vn 0.0000 -0.0074 -1.0000
vn 0.3527 -0.8515 -0.3879
vn 0.5823 -0.3123 -0.7506
vn 0.5863 -0.3100 -0.7484
vn 0.5863 -0.5728 -0.5728
vn 0.5863 0.5728 0.5728
vn 0.5863 0.7484 0.3100
vn 0.5863 -0.7484 -0.3100
vn 0.3483 -0.9124 -0.2147
vn 0.5863 0.8101 0.0000
vn 0.5863 -0.8101 0.0000
vn 0.3541 -0.9352 0.0000
vn 0.5863 0.7484 -0.3100
vn 0.5863 -0.7484 0.3100
vn 0.3483 -0.9124 0.2147
vn 0.5863 0.5728 -0.5728
vn 0.5863 -0.5728 0.5728
vn 0.3527 -0.8515 0.3879
vn 0.5863 0.3100 -0.7484
vn 0.5863 -0.3100 0.7484
vn 0.5823 -0.3123 0.7506
vn 0.5863 0.0000 -0.8101
vn 0.5837 -0.0068 -0.8119
vn 0.5863 0.0000 0.8101
vn 0.5837 -0.0068 0.8119
vn 0.5863 0.3100 0.7484
vn 0.5925 -0.0087 0.8055
vn 0.5875 -0.0105 0.8091
vn 0.5894 -0.1762 -0.7884
vn 0.5925 -0.0087 -0.8055
vn 0.5875 -0.0105 -0.8091
vn 0.3766 -0.7736 -0.5096
vn 0.5894 -0.1762 0.7884
vn 0.3766 -0.7736 0.5096
vn 0.0000 -0.2096 -0.9778
vn 0.0000 -0.2096 0.9778
usemtl None
s off
f 159/1/1 52/2/1 157/3/1
f 153/4/1 131/5/1 79/6/1
f 153/4/1 159/1/1 163/7/1 92/8/1
f 143/9/2 140/10/2 136/11/2 138/12/2
f 8/13/3 6/14/3 164/15/3 167/16/3
f 141/17/4 4/18/4 169/19/4 128/20/4
f 74/21/5 2/22/5 76/23/5
f 93/24/6 144/25/6 75/26/6
f 82/27/1 80/28/1 86/29/1 88/30/1
f 79/6/1 52/2/1 159/1/1 153/4/1
f 86/29/1 80/28/1 84/31/1
f 88/30/1 52/2/1 79/6/1 82/27/1
f 2/22/5 74/21/5 137/32/5
f 71/33/6 139/34/6 95/35/6
f 92/8/1 163/7/1 161/36/1 100/37/1
f 76/23/5 2/22/5 77/38/5
f 137/32/5 72/39/5 103/40/5
f 100/37/1 161/36/1 135/41/1 83/42/1
f 137/32/5 74/21/5 72/39/5
f 73/43/6 139/34/6 71/33/6
f 139/34/6 73/43/6 144/25/6
f 75/26/6 144/25/6 73/43/6
s 1
f 105/44/7 102/45/7 104/46/8 106/47/8
f 106/47/8 104/46/8 165/48/9 109/49/10
f 124/50/11 111/51/11 109/49/10 165/48/9
f 12/52/11 146/53/2 149/54/2 148/55/11
f 125/56/2 112/57/2 111/51/11 124/50/11
f 149/54/2 146/53/2 147/58/12 155/59/12
f 126/60/12 113/61/12 112/57/2 125/56/2
f 150/62/13 168/63/14 155/59/12 147/58/12
f 17/64/13 127/65/14 98/66/15 115/67/15
f 115/67/15 98/66/15 99/68/16 116/69/16
f 22/70/6 31/71/6 130/72/6 154/73/6
f 132/74/6 134/75/6 70/76/6
f 82/77/17 57/78/18 37/79/19 42/80/20
f 110/81/6 108/82/6 117/83/6 118/84/6
f 20/85/6 18/86/6 122/87/6 123/88/6
f 16/89/6 14/90/6 120/91/6 121/92/6
f 145/93/6 110/81/6 118/84/6 119/94/6
f 22/70/6 20/85/6 123/88/6 31/71/6
f 108/82/6 3/95/6 156/96/6 117/83/6
f 18/86/6 16/89/6 121/92/6 122/87/6
f 14/90/6 145/93/6 119/94/6 120/91/6
f 58/97/21 40/98/21 44/99/22 60/100/22
f 82/77/17 42/80/20 46/101/23 80/102/24
f 60/100/22 44/99/22 33/103/25 62/104/25
f 80/102/24 46/101/23 36/105/26 84/106/27
f 62/104/25 33/103/25 39/107/28 64/108/28
f 84/106/27 36/105/26 35/109/29 86/110/30
f 64/108/28 39/107/28 38/111/31 67/112/31
f 86/110/30 35/109/29 48/113/32 88/114/33
f 67/112/31 38/111/31 41/115/34 49/116/34
f 88/114/33 48/113/32 43/117/35 51/118/36
f 49/116/34 41/115/34 45/119/37 53/120/38
f 51/118/36 43/117/35 47/121/39 69/122/40
f 53/120/38 45/119/37 37/79/19 57/78/18
f 55/123/41 34/124/41 40/98/21 58/97/21
f 69/122/40 47/121/39 34/124/41 55/123/41
f 24/125/42 68/126/43 56/127/41 23/128/41
f 42/80/20 32/129/5 46/101/23
f 46/101/23 32/129/5 36/105/26
f 32/129/5 35/109/29 36/105/26
f 32/129/5 48/113/32 35/109/29
f 32/129/5 43/117/35 48/113/32
f 47/121/39 43/117/35 32/129/5
f 40/98/21 34/124/41 32/129/5
f 37/79/19 32/129/5 42/80/20
f 44/99/22 40/98/21 32/129/5
f 33/103/25 44/99/22 32/129/5
f 39/107/28 33/103/25 32/129/5
f 38/111/31 39/107/28 32/129/5
f 41/115/34 38/111/31 32/129/5
f 41/115/34 32/129/5 45/119/37
f 45/119/37 32/129/5 37/79/19
f 34/124/41 47/121/39 32/129/5
f 68/126/43 69/122/40 55/123/41 56/127/41
f 23/128/41 56/127/41 59/130/21 25/131/21
f 56/127/41 55/123/41 58/97/21 59/130/21
f 78/132/44 129/133/45 54/134/46 79/135/47
f 54/134/46 53/120/38 57/78/18 79/135/47
f 158/136/48 52/137/49 68/126/43 24/125/42
f 52/137/49 51/118/36 69/122/40 68/126/43
f 30/138/34 50/139/34 54/134/46 129/133/45
f 50/139/34 49/116/34 53/120/38 54/134/46
f 51/118/36 52/137/49 88/114/33
f 29/140/31 66/141/31 50/139/34 30/138/34
f 66/141/31 67/112/31 49/116/34 50/139/34
f 28/142/28 65/143/28 66/141/31 29/140/31
f 65/143/28 64/108/28 67/112/31 66/141/31
f 27/144/25 63/145/25 65/143/28 28/142/28
f 63/145/25 62/104/25 64/108/28 65/143/28
f 26/146/22 61/147/22 63/145/25 27/144/25
f 61/147/22 60/100/22 62/104/25 63/145/25
f 25/131/21 59/130/21 61/147/22 26/146/22
f 59/130/21 58/97/21 60/100/22 61/147/22
f 79/135/47 57/78/18 82/77/17
f 19/148/6 70/76/6 114/149/6
f 70/76/6 21/150/6 132/74/6
f 152/151/16 81/152/50 162/153/50 91/154/16
f 13/155/6 70/76/6 11/156/6
f 85/157/6 156/96/6 3/95/6 160/158/6
f 15/159/6 114/149/6 70/76/6
f 70/76/6 134/75/6 1/160/6
f 70/76/6 1/160/6 5/161/6
f 19/148/6 21/150/6 70/76/6
f 11/156/6 70/76/6 9/162/6
f 15/159/6 70/76/6 13/155/6
f 9/162/6 70/76/6 5/161/6
f 107/163/7 96/164/7 94/165/51 87/166/51
f 91/154/16 162/153/50 142/167/50 99/68/16
f 90/168/15 168/63/14 150/62/13 151/169/15
f 91/154/16 90/168/15 151/169/15 152/151/16
f 94/165/51 96/164/7 102/45/7 101/170/51
f 97/171/8 96/164/7 107/163/7 7/172/8
f 166/173/9 97/171/8 7/172/8 10/174/10
f 166/173/9 10/174/10 12/52/11 148/55/11
f 127/65/14 17/64/13 113/61/12 126/60/12
f 98/66/15 127/65/14 168/63/14 90/168/15
f 99/68/16 142/167/50 133/175/50 116/69/16
f 99/68/16 98/66/15 90/168/15 91/154/16
f 104/46/8 102/45/7 96/164/7 97/171/8
f 165/48/9 104/46/8 97/171/8 166/173/9
f 101/170/51 102/45/7 105/44/7 89/176/51
