# Blender v3.0.0 OBJ File: ''
# www.blender.org
mtllib shoe_0.mtl
o Cube.001_Cube.002
v 0.237147 -0.000516 0.064431
v -0.005841 0.222068 0.073768
v 0.045692 0.269756 0.000000
v 0.331663 -0.000516 -0.000000
v 0.944536 -0.000516 0.092338
v 0.776808 -0.000516 0.046704
v 0.288396 0.494384 0.053471
v 0.379845 0.579014 0.105719
v 1.347843 -0.000516 -0.085063
v 1.308915 -0.000516 -0.224552
v 0.578514 0.762885 -0.257092
v 0.599738 0.782525 -0.097391
v 0.170186 0.384974 0.703687
v 0.559998 -0.000516 0.614621
v 0.706891 -0.000516 0.604348
v 0.250276 0.459099 0.691925
v 1.308915 -0.000516 0.224552
v 0.578514 0.762884 0.257092
v 0.501429 0.691549 0.420202
v 1.167535 -0.000516 0.367016
v 0.161534 -0.000516 0.154454
v -0.047067 0.183908 0.176836
v 0.094626 0.315048 0.680435
v 0.421414 -0.000516 0.594313
v 0.016986 0.243194 0.607063
v 0.279014 -0.000516 0.530227
v 0.880629 -0.000516 0.553397
v 0.345001 0.546769 0.633591
v 1.029368 -0.000516 0.475854
v 0.426098 0.621823 0.544810
v -0.023720 0.205513 0.559820
v 0.204353 -0.000516 0.488964
v 0.124679 -0.000516 0.244781
v -0.067160 0.165312 0.280253
v 0.116696 -0.000516 -0.369706
v -0.071513 0.161286 -0.423281
v -0.054375 0.177151 -0.502346
v 0.148132 -0.000516 -0.438764
v 0.112565 -0.000516 0.319122
v -0.073766 0.159197 0.365365
v -0.054375 0.177151 0.502346
v 0.148132 -0.000516 0.438764
v 0.116696 -0.000516 0.369706
v -0.071513 0.161286 0.423281
v 0.599738 0.782525 0.097391
v 1.347843 -0.000516 0.085063
v 1.340733 -0.000516 0.062488
v 0.595862 0.778941 0.071544
v 1.324406 -0.000516 0.057102
v 0.586960 0.770706 0.065377
v 1.141801 -0.000516 0.111220
v 0.487400 0.678561 0.127338
v 0.379845 0.579014 -0.105719
v 0.944536 -0.000516 -0.092338
v 1.141801 -0.000516 -0.111220
v 0.487400 0.678561 -0.127337
v 0.714570 -0.000516 -0.000000
v 0.254462 0.462972 0.000000
v 0.237147 -0.000516 -0.064431
v -0.005841 0.222068 -0.073768
v 0.288396 0.494384 -0.053471
v 0.776808 -0.000516 -0.046704
v 0.170186 0.384974 -0.703687
v 0.250276 0.459099 -0.691925
v 0.706891 -0.000516 -0.604348
v 0.559998 -0.000516 -0.614621
v 1.167535 -0.000516 -0.367016
v 0.501429 0.691549 -0.420201
v 0.161534 -0.000516 -0.154454
v -0.047067 0.183908 -0.176836
v 0.421414 -0.000516 -0.594313
v 0.094626 0.315048 -0.680435
v 0.279014 -0.000516 -0.530227
v 0.016986 0.243194 -0.607063
v 0.345001 0.546769 -0.633591
v 0.880629 -0.000516 -0.553397
v 1.029368 -0.000516 -0.475854
v 0.426098 0.621824 -0.544810
v 0.204353 -0.000516 -0.488964
v -0.023720 0.205514 -0.559820
v -0.067160 0.165312 -0.280253
v 0.124679 -0.000516 -0.244781
v -0.073766 0.159197 -0.365365
v 0.112565 -0.000516 -0.319122
v 0.595862 0.778941 -0.071543
v 1.340733 -0.000516 -0.062488
v 0.586960 0.770706 -0.065377
v 1.324406 -0.000516 -0.057102
v -0.280527 0.884939 -0.713328
v -0.586604 0.832636 -0.616033
v -0.713328 1.674899 -0.713328
v 0.713328 1.674899 -0.713328
v 0.400793 1.001499 -0.713328
v -0.150491 0.101099 -0.316887
v -0.055538 0.173353 -0.597213
v 0.173700 0.347789 -0.713328
v 0.294435 0.428234 -0.713328
v 0.574761 0.641544 -0.548235
v 0.690877 0.729902 -0.239712
v 0.690877 0.729902 0.239712
v 0.574761 0.641544 0.548235
v 0.294435 0.428233 0.713328
v 0.173700 0.347789 0.713328
v -0.055538 0.173353 0.597213
v -0.150491 0.101099 0.316887
v 0.400793 1.001498 0.713328
v 0.713328 1.674899 0.713328
v -0.713328 1.674899 0.713328
v -0.280527 0.884939 0.713328
v -0.010901 0.539349 0.713328
v -0.266222 0.379798 0.597213
v 0.621716 1.038954 0.621716
v 0.713328 1.054521 0.400459
v -0.266222 0.379799 -0.597213
v -0.341668 0.285415 -0.316887
v 0.713328 1.054522 -0.400458
v -0.341668 0.285415 0.316887
v 0.307524 0.657037 0.713328
v -0.010901 0.539349 -0.713328
v 0.581496 0.709727 0.562926
v 0.696427 0.784014 0.266269
v 0.581496 0.709727 -0.562926
v 0.696427 0.784014 -0.266269
v 0.307524 0.657037 -0.713328
v -0.713328 0.810970 -0.381181
v -0.586604 0.832636 0.616033
v 0.621716 1.038955 -0.621715
v -0.713328 0.810970 0.381182
v -0.529156 0.678127 0.602726
v -0.673201 0.654031 0.335719
v -0.182610 0.736805 0.713328
v -0.529156 0.678127 -0.602726
v -0.182610 0.736804 -0.713328
v -0.673201 0.654031 -0.335719
v 0.599786 0.872072 0.594348
v 0.338720 0.825723 0.713328
v 0.707014 0.892655 0.319660
v 0.599786 0.872072 -0.594347
v 0.707014 0.892655 -0.319660
v 0.338720 0.825723 -0.713328
v -0.687816 0.338987 0.000000
v -0.687816 0.421135 0.137859
v -0.786595 0.457528 0.112562
v -0.808795 0.421135 0.000000
v -0.687816 0.619458 0.194963
v -0.808795 0.619458 0.137859
v -0.858907 0.619458 0.000000
v -0.687816 0.817781 0.137859
v -0.786595 0.781388 0.112562
v -0.687816 0.899928 0.000000
v -0.808795 0.817781 0.000000
v -0.786595 0.457528 -0.112561
v -0.687816 0.421135 -0.137859
v -0.808795 0.619458 -0.137859
v -0.687816 0.619458 -0.194963
v -0.687816 0.817781 -0.137859
v -0.786595 0.781388 -0.112561
v -0.566836 0.421135 0.000000
v -0.589037 0.457528 0.112562
v -0.516724 0.619458 0.000000
v -0.566836 0.619458 0.137859
v -0.589037 0.781388 0.112562
v -0.566836 0.817781 0.000000
v -0.589037 0.457528 -0.112561
v -0.566836 0.619458 -0.137859
v -0.589037 0.781388 -0.112561
vt 0.656055 0.911599
vt 0.729997 0.936725
vt 0.720492 0.958899
vt 0.633211 0.926175
vt 0.593052 0.454170
vt 0.620255 0.423257
vt 0.784949 0.420021
vt 0.784751 0.452027
vt 0.265246 0.855588
vt 0.271846 0.821878
vt 0.522497 0.815916
vt 0.522133 0.854410
vt 0.783130 0.748843
vt 0.652372 0.734191
vt 0.630385 0.707110
vt 0.784455 0.722875
vt 0.533625 0.565596
vt 0.783961 0.571548
vt 0.784487 0.617503
vt 0.556827 0.607098
vt 0.676910 0.893140
vt 0.740620 0.911026
vt 0.780571 0.773715
vt 0.671765 0.761115
vt 0.775266 0.803748
vt 0.689137 0.793774
vt 0.603198 0.673935
vt 0.784949 0.689325
vt 0.579338 0.642160
vt 0.784865 0.655746
vt 0.771922 0.820681
vt 0.697698 0.812079
vt 0.690674 0.874576
vt 0.749946 0.887462
vt 0.440701 0.539934
vt 0.500337 0.531514
vt 0.506340 0.550124
vt 0.441150 0.557926
vt 0.698823 0.858702
vt 0.757163 0.868515
vt 0.767826 0.837006
vt 0.702718 0.829215
vt 0.702270 0.847184
vt 0.761830 0.855593
vt 0.783596 0.533102
vt 0.527033 0.531928
vt 0.528160 0.526437
vt 0.783576 0.526853
vt 0.530849 0.522030
vt 0.783637 0.522441
vt 0.560898 0.488374
vt 0.784337 0.487118
vt 0.523286 0.935252
vt 0.332203 0.933133
vt 0.300150 0.899041
vt 0.522869 0.900274
vt 0.630201 0.407736
vt 0.784849 0.403274
vt 0.394427 0.475438
vt 0.371554 0.460843
vt 0.458945 0.428077
vt 0.468462 0.450279
vt 0.523486 0.967155
vt 0.359321 0.963944
vt 0.521664 0.638398
vt 0.522991 0.664399
vt 0.368726 0.680185
vt 0.390742 0.653070
vt 0.295076 0.780323
vt 0.523023 0.769904
vt 0.415309 0.493920
vt 0.479099 0.476010
vt 0.410158 0.626112
vt 0.519102 0.613495
vt 0.427552 0.593411
vt 0.513789 0.583424
vt 0.523486 0.697991
vt 0.341506 0.713401
vt 0.317615 0.745217
vt 0.523402 0.731612
vt 0.436124 0.575082
vt 0.510441 0.566469
vt 0.488437 0.499604
vt 0.429091 0.512507
vt 0.495664 0.518575
vt 0.437249 0.528401
vt 0.522112 0.860668
vt 0.266374 0.861086
vt 0.522169 0.865065
vt 0.270195 0.865497
vt 0.523387 0.983848
vt 0.369236 0.979414
vt 0.435042 0.393402
vt 0.419874 0.283974
vt 0.459682 0.273144
vt 0.435042 0.130715
vt 0.476277 0.118623
vt 0.459682 0.250974
vt 0.511140 0.116184
vt 0.474454 0.262059
vt 0.544032 0.121004
vt 0.577829 0.136215
vt 0.565333 0.262059
vt 0.595549 0.146008
vt 0.614459 0.203962
vt 0.608893 0.157923
vt 0.616354 0.174313
vt 0.617334 0.186318
vt 0.605712 0.225401
vt 0.587766 0.246767
vt 0.587766 0.277351
vt 0.577829 0.387903
vt 0.605712 0.298717
vt 0.614459 0.320155
vt 0.617334 0.337799
vt 0.595549 0.378110
vt 0.616354 0.349805
vt 0.608893 0.366195
vt 0.544032 0.403113
vt 0.511140 0.407933
vt 0.476277 0.405495
vt 0.399740 0.374998
vt 0.366947 0.349166
vt 0.333392 0.315354
vt 0.373055 0.288456
vt 0.324153 0.282248
vt 0.329716 0.275611
vt 0.325841 0.276890
vt 0.366947 0.174951
vt 0.399740 0.149120
vt 0.419874 0.240144
vt 0.324153 0.241870
vt 0.333392 0.208764
vt 0.329715 0.248506
vt 0.373055 0.235662
vt 0.325840 0.247228
vt 0.145918 0.584633
vt 0.159349 0.630320
vt 0.036113 0.668855
vt 0.009524 0.442022
vt 0.119714 0.481163
vt 0.969917 0.429751
vt 0.951424 0.473266
vt 0.906730 0.491313
vt 0.884214 0.491280
vt 0.829548 0.465655
vt 0.806904 0.417774
vt 0.806904 0.343370
vt 0.829548 0.295488
vt 0.884214 0.269863
vt 0.906730 0.269831
vt 0.951424 0.287877
vt 0.969917 0.331393
vt 0.157938 0.212465
vt 0.041074 0.219498
vt 0.126012 0.009524
vt 0.213196 0.119251
vt 0.267808 0.214597
vt 0.249158 0.177102
vt 0.288709 0.146013
vt 0.309298 0.187699
vt 0.139713 0.246031
vt 0.130250 0.282437
vt 0.223887 0.582028
vt 0.256779 0.549717
vt 0.288323 0.587737
vt 0.256525 0.615231
vt 0.112739 0.406475
vt 0.332260 0.125216
vt 0.351610 0.163157
vt 0.214373 0.217956
vt 0.249362 0.228251
vt 0.196349 0.540904
vt 0.225340 0.510864
vt 0.200635 0.265954
vt 0.190271 0.262117
vt 0.177281 0.314329
vt 0.169384 0.309042
vt 0.175665 0.441986
vt 0.164625 0.442741
vt 0.157708 0.391817
vt 0.166768 0.388935
vt 0.211729 0.492261
vt 0.175111 0.491965
vt 0.175521 0.665375
vt 0.239679 0.077361
vt 0.317324 0.695322
vt 0.351610 0.668994
vt 0.111649 0.443988
vt 0.234227 0.762673
vt 0.138660 0.873785
vt 0.258396 0.093751
vt 0.289814 0.058884
vt 0.266427 0.045409
vt 0.229354 0.141585
vt 0.180621 0.620269
vt 0.167307 0.568321
vt 0.199049 0.659002
vt 0.165421 0.253707
vt 0.187453 0.213329
vt 0.153589 0.298479
vt 0.138421 0.443818
vt 0.139572 0.397560
vt 0.148076 0.488632
vt 0.252017 0.743659
vt 0.639483 0.247682
vt 0.639483 0.026273
vt 0.860892 0.026273
vt 0.860892 0.247682
vt 0.853559 0.531179
vt 0.872778 0.576574
vt 0.851061 0.594144
vt 0.816102 0.573596
vt 0.891707 0.621285
vt 0.862776 0.633534
vt 0.816102 0.653294
vt 0.910636 0.665997
vt 0.882905 0.669361
vt 0.929855 0.711392
vt 0.873327 0.708764
vt 0.838419 0.768986
vt 0.894946 0.771613
vt 0.885368 0.811017
vt 0.857638 0.814381
vt 0.952172 0.827084
vt 0.905497 0.846844
vt 0.876567 0.859093
vt 0.914715 0.949199
vt 0.895496 0.903804
vt 0.917213 0.886234
vt 0.952172 0.906782
vt 0.910086 0.533806
vt 0.900508 0.573209
vt 0.967312 0.589277
vt 0.920638 0.609037
vt 0.932353 0.648427
vt 0.967312 0.668975
vt 0.835921 0.831951
vt 0.800962 0.811403
vt 0.847636 0.871341
vt 0.800962 0.891101
vt 0.858187 0.946572
vt 0.867765 0.907169
vn -0.5324 -0.5570 -0.6374
vn -0.5554 -0.5811 -0.5949
vn -0.4935 -0.5164 -0.6998
vn 0.1388 0.1570 -0.9778
vn 0.3470 0.3555 -0.8679
vn 0.4051 0.4109 -0.8167
vn 0.1797 0.1960 -0.9640
vn 0.7235 0.6902 0.0115
vn 0.6891 0.6436 -0.3332
vn 0.6752 0.6265 -0.3893
vn 0.7235 0.6902 0.0101
vn 0.0165 -0.2087 0.9778
vn 0.0692 -0.1475 0.9866
vn 0.2773 0.1041 0.9551
vn 0.2227 0.0360 0.9742
vn 0.6891 0.6436 0.3332
vn 0.6752 0.6265 0.3893
vn 0.5898 0.5196 0.6182
vn 0.5987 0.5334 0.5976
vn -0.6265 -0.6629 -0.4099
vn -0.6364 -0.6769 -0.3698
vn -0.1977 -0.4416 0.8752
vn -0.1531 -0.3953 0.9057
vn -0.3259 -0.5795 0.7470
vn -0.3195 -0.5695 0.7573
vn 0.4353 0.3075 0.8462
vn 0.3973 0.2573 0.8809
vn 0.5427 0.4515 0.7083
vn 0.5195 0.4197 0.7443
vn -0.3984 -0.6569 0.6401
vn -0.3863 -0.6466 0.6578
vn -0.6607 -0.7235 -0.2002
vn -0.6615 -0.7289 -0.1764
vn -0.6170 -0.7699 -0.1627
vn -0.6130 -0.7699 -0.1774
vn -0.5176 -0.7389 -0.4314
vn -0.5149 -0.7375 -0.4370
vn -0.6554 -0.7543 -0.0372
vn -0.6530 -0.7572 -0.0173
vn -0.5176 -0.7389 0.4314
vn -0.5149 -0.7375 0.4370
vn -0.6170 -0.7699 0.1627
vn -0.6130 -0.7699 0.1774
vn 0.7235 0.6902 -0.0101
vn 0.7235 0.6902 -0.0115
vn 0.6325 0.6101 -0.4771
vn 0.5650 0.5471 -0.6176
vn 0.1599 0.1649 -0.9733
vn 0.0077 0.0208 -0.9998
vn -0.1971 -0.1709 -0.9654
vn -0.1000 -0.0754 -0.9921
vn 0.1797 0.1960 0.9640
vn 0.1388 0.1570 0.9778
vn -0.1971 -0.1709 0.9654
vn -0.1000 -0.0754 0.9921
vn 0.5257 0.5250 -0.6693
vn -0.5324 -0.5570 0.6374
vn -0.4935 -0.5164 0.6998
vn -0.5554 -0.5811 0.5949
vn 0.4051 0.4109 0.8167
vn 0.3470 0.3555 0.8679
vn 0.0165 -0.2087 -0.9778
vn 0.2227 0.0360 -0.9742
vn 0.2773 0.1041 -0.9551
vn 0.0692 -0.1475 -0.9866
vn 0.5987 0.5334 -0.5976
vn 0.5898 0.5196 -0.6182
vn -0.6265 -0.6629 0.4099
vn -0.6364 -0.6769 0.3698
vn -0.1531 -0.3953 -0.9057
vn -0.1977 -0.4416 -0.8752
vn -0.3195 -0.5695 -0.7573
vn -0.3259 -0.5795 -0.7470
vn 0.3973 0.2573 -0.8809
vn 0.4353 0.3075 -0.8462
vn 0.5427 0.4515 -0.7083
vn 0.5195 0.4197 -0.7443
vn -0.3863 -0.6466 -0.6578
vn -0.3984 -0.6569 -0.6401
vn -0.6615 -0.7289 0.1764
vn -0.6607 -0.7235 0.2002
vn -0.6530 -0.7572 0.0173
vn -0.6554 -0.7543 0.0372
vn 0.5650 0.5471 0.6176
vn 0.6325 0.6101 0.4771
vn 0.0077 0.0208 0.9998
vn 0.1599 0.1649 0.9733
vn 0.5257 0.5250 0.6693
vn -0.0000 -1.0000 -0.0000
vn -0.1417 -0.0879 -0.9860
vn -0.6146 -0.2331 -0.7536
vn -0.7053 -0.0497 -0.7072
vn 0.7063 -0.0569 -0.7056
vn 0.2067 -0.0891 -0.9743
vn 0.5973 -0.8020 -0.0000
vn 0.2067 -0.0891 0.9743
vn 0.7063 -0.0569 0.7056
vn -0.7053 -0.0497 0.7072
vn -0.1417 -0.0879 0.9860
vn -0.1224 -0.1216 0.9850
vn -0.1365 -0.1309 0.9820
vn -0.5040 -0.4850 0.7147
vn -0.4781 -0.4863 0.7314
vn 0.7101 -0.1993 0.6754
vn 0.9778 -0.1040 0.1819
vn -0.5040 -0.4850 -0.7147
vn -0.4781 -0.4863 -0.7314
vn -0.6810 -0.7035 -0.2033
vn -0.7039 -0.6816 -0.1998
vn 0.9778 -0.1040 -0.1819
vn -0.7039 -0.6816 0.1998
vn -0.6810 -0.7035 0.2033
vn 0.2490 -0.0539 0.9670
vn 0.1604 -0.0237 0.9868
vn -0.1365 -0.1309 -0.9820
vn -0.1224 -0.1216 -0.9850
vn 0.7345 -0.1339 0.6653
vn 0.7573 -0.1689 0.6309
vn 0.9815 -0.1428 0.1275
vn 0.9758 -0.1505 0.1589
vn 0.7345 -0.1339 -0.6653
vn 0.7573 -0.1689 -0.6309
vn 0.9758 -0.1505 -0.1589
vn 0.9815 -0.1428 -0.1275
vn 0.1604 -0.0237 -0.9868
vn 0.2490 -0.0539 -0.9670
vn -0.9524 -0.1935 -0.2355
vn -0.6146 -0.2331 0.7536
vn 0.7101 -0.1993 -0.6754
vn -0.9524 -0.1935 0.2355
vn -0.5715 -0.3922 0.7208
vn -0.8532 -0.4796 0.2048
vn -0.1408 -0.1162 0.9832
vn -0.5715 -0.3922 -0.7208
vn -0.1408 -0.1162 -0.9832
vn -0.8532 -0.4796 -0.2048
vn 0.7270 -0.1941 0.6586
vn 0.2209 -0.0789 0.9721
vn 0.9767 -0.1308 0.1703
vn 0.7270 -0.1941 -0.6586
vn 0.9767 -0.1308 -0.1703
vn 0.2209 -0.0789 -0.9721
vn 0.0000 1.0000 0.0000
vn 0.0000 -0.6390 0.7692
vn -0.6638 -0.4434 0.6023
vn -0.7932 -0.6090 -0.0000
vn 0.0000 0.0000 1.0000
vn -0.7326 0.0000 0.6806
vn -1.0000 0.0000 0.0000
vn 0.0000 0.6390 0.7692
vn -0.6638 0.4434 0.6023
vn -0.7932 0.6090 -0.0000
vn -0.6638 -0.4434 -0.6023
vn 0.0000 -0.6390 -0.7692
vn -0.7326 0.0000 -0.6806
vn 0.0000 0.0000 -1.0000
vn 0.0000 0.6390 -0.7692
vn -0.6638 0.4434 -0.6023
vn 0.7932 -0.6090 -0.0000
vn 0.6638 -0.4434 0.6023
vn 1.0000 0.0000 -0.0000
vn 0.7326 0.0000 0.6806
vn 0.6638 0.4434 0.6023
vn 0.7932 0.6090 0.0000
vn 0.6638 -0.4434 -0.6023
vn 0.7326 0.0000 -0.6806
vn 0.6638 0.4434 -0.6023
usemtl None.002
s 1
f 1/1/1 2/2/2 3/3/3 4/4/3
f 5/5/4 6/6/5 7/7/6 8/8/7
f 9/9/8 10/10/9 11/11/10 12/12/11
f 13/13/12 14/14/13 15/15/14 16/16/15
f 17/17/16 18/18/17 19/19/18 20/20/19
f 21/21/20 22/22/21 2/2/2 1/1/1
f 14/14/13 13/13/12 23/23/22 24/24/23
f 24/24/23 23/23/22 25/25/24 26/26/25
f 16/16/15 15/15/14 27/27/26 28/28/27
f 29/29/28 30/30/29 28/28/27 27/27/26
f 20/20/19 19/19/18 30/30/29 29/29/28
f 26/26/25 25/25/24 31/31/30 32/32/31
f 22/22/21 21/21/20 33/33/32 34/34/33
f 35/35/34 36/36/35 37/37/36 38/38/37
f 34/34/33 33/33/32 39/39/38 40/40/39
f 32/32/31 31/31/30 41/41/40 42/42/41
f 40/40/39 39/39/38 43/43/42 44/44/43
f 45/45/44 46/46/45 47/47/46 48/48/47
f 48/48/47 47/47/46 49/49/48 50/50/49
f 51/51/50 52/52/51 50/50/49 49/49/48
f 53/53/52 54/54/53 55/55/54 56/56/55
f 7/7/6 6/6/5 57/57/56 58/58/56
f 59/59/57 4/60/58 3/61/58 60/62/59
f 53/53/52 61/63/60 62/64/61 54/54/53
f 63/65/62 64/66/63 65/67/64 66/68/65
f 10/10/9 67/69/66 68/70/67 11/11/10
f 69/71/68 59/59/57 60/62/59 70/72/69
f 66/68/65 71/73/70 72/74/71 63/65/62
f 71/73/70 73/75/72 74/76/73 72/74/71
f 64/66/63 75/77/74 76/78/75 65/67/64
f 77/79/76 76/78/75 75/77/74 78/80/77
f 67/69/66 77/79/76 78/80/77 68/70/67
f 73/75/72 79/81/78 80/82/79 74/76/73
f 70/72/69 81/83/80 82/84/81 69/71/68
f 81/83/80 83/85/82 84/86/83 82/84/81
f 79/81/78 38/38/37 37/37/36 80/82/79
f 83/85/82 36/36/35 35/35/34 84/86/83
f 12/12/11 85/87/84 86/88/85 9/9/8
f 85/87/84 87/89/86 88/90/87 86/88/85
f 55/55/54 88/90/87 87/89/86 56/56/55
f 61/63/60 58/91/88 57/92/88 62/64/61
f 51/51/50 5/5/4 8/8/7 52/52/51
f 46/46/45 45/45/44 18/18/17 17/17/16
f 44/44/43 43/43/42 42/42/41 41/41/40
f 76/93/89 54/94/89 62/95/89
f 27/96/89 15/97/89 6/98/89
f 15/97/89 14/99/89 6/98/89
f 6/98/89 14/99/89 57/100/89
f 14/99/89 24/101/89 57/100/89
f 24/101/89 26/102/89 4/103/89
f 26/102/89 32/104/89 33/105/89
f 32/104/89 42/106/89 43/107/89
f 39/108/89 32/104/89 43/107/89
f 39/108/89 33/105/89 32/104/89
f 33/105/89 21/109/89 26/102/89
f 21/109/89 1/110/89 26/102/89
f 1/110/89 4/103/89 26/102/89
f 4/103/89 59/111/89 73/112/89
f 59/111/89 69/113/89 73/112/89
f 69/113/89 82/114/89 73/112/89
f 82/114/89 84/115/89 79/116/89
f 73/112/89 82/114/89 79/116/89
f 84/115/89 35/117/89 79/116/89
f 35/117/89 38/118/89 79/116/89
f 73/112/89 71/119/89 4/103/89
f 71/119/89 66/120/89 57/100/89
f 57/100/89 66/120/89 62/95/89
f 66/120/89 65/121/89 62/95/89
f 65/121/89 76/93/89 62/95/89
f 76/93/89 77/122/89 54/94/89
f 77/122/89 67/123/89 54/94/89
f 67/123/89 10/124/89 55/125/89
f 10/124/89 9/126/89 88/127/89
f 55/125/89 10/124/89 88/127/89
f 9/126/89 86/128/89 88/127/89
f 24/101/89 4/103/89 57/100/89
f 20/129/89 29/130/89 5/131/89
f 29/130/89 27/96/89 5/131/89
f 46/132/89 17/133/89 49/134/89
f 17/133/89 20/129/89 51/135/89
f 49/134/89 47/136/89 46/132/89
f 51/135/89 49/134/89 17/133/89
f 51/135/89 20/129/89 5/131/89
f 57/100/89 4/103/89 71/119/89
f 67/123/89 55/125/89 54/94/89
f 6/98/89 5/131/89 27/96/89
f 89/137/90 90/138/91 91/139/92
f 89/137/90 91/139/92 92/140/93 93/141/94
f 94/142/95 95/143/95 96/144/95 97/145/95 98/146/95 99/147/95 100/148/95 101/149/95 102/150/95 103/151/95 104/152/95 105/153/95
f 106/154/96 107/155/97 108/156/98 109/157/99
f 103/158/100 110/159/101 111/160/102 104/161/103
f 112/162/104 113/163/105 107/155/97
f 114/164/106 95/165/107 94/166/108 115/167/109
f 116/168/110 92/140/93 107/155/97 113/163/105
f 104/161/103 111/160/102 117/169/111 105/170/112
f 118/171/113 110/159/101 103/158/100 102/172/114
f 119/173/115 96/174/116 95/165/107 114/164/106
f 118/171/113 102/172/114 101/175/117 120/176/118
f 120/176/118 101/175/117 100/177/119 121/178/120
f 98/179/121 122/180/122 123/181/123 99/182/124
f 97/183/125 124/184/126 122/180/122 98/179/121
f 119/173/115 124/184/126 97/183/125 96/174/116
f 90/138/91 125/185/127 91/139/92
f 126/186/128 109/157/99 108/156/98
f 117/187/111 115/167/109 94/166/108 105/188/112
f 106/154/96 112/162/104 107/155/97
f 123/181/123 121/178/120 100/177/119 99/182/124
f 127/189/129 93/141/94 92/140/93
f 116/168/110 127/189/129 92/140/93
f 128/190/130 108/191/98 91/139/92 125/185/127
f 117/169/111 111/160/102 129/192/131 130/193/132
f 130/193/132 129/192/131 126/186/128 128/194/130
f 111/160/102 110/159/101 131/195/133 129/192/131
f 129/192/131 131/195/133 109/157/99 126/186/128
f 119/173/115 114/164/106 132/196/134 133/197/135
f 133/197/135 132/196/134 90/138/91 89/137/90
f 114/164/106 115/167/109 134/198/136 132/196/134
f 132/196/134 134/198/136 125/185/127 90/138/91
f 118/171/113 120/176/118 135/199/137 136/200/138
f 136/200/138 135/199/137 112/162/104 106/154/96
f 120/176/118 121/178/120 137/201/139 135/199/137
f 135/199/137 137/201/139 113/163/105 112/162/104
f 123/181/123 122/180/122 138/202/140 139/203/141
f 139/203/141 138/202/140 127/189/129 116/168/110
f 122/180/122 124/184/126 140/204/142 138/202/140
f 138/202/140 140/204/142 93/141/94 127/189/129
f 128/190/130 125/185/127 134/198/136 130/205/132
f 130/205/132 134/198/136 115/167/109 117/187/111
f 110/159/101 118/171/113 136/200/138 131/195/133
f 131/195/133 136/200/138 106/154/96 109/157/99
f 124/184/126 119/173/115 133/197/135 140/204/142
f 140/204/142 133/197/135 89/137/90 93/141/94
f 116/168/110 113/163/105 137/201/139 139/203/141
f 139/203/141 137/201/139 121/178/120 123/181/123
f 128/194/130 126/186/128 108/156/98
f 107/206/143 92/207/143 91/208/143 108/209/143
f 141/210/89 142/211/144 143/212/145 144/213/146
f 145/214/147 146/215/148 143/212/145 142/211/144
f 147/216/149 144/213/146 143/212/145 146/215/148
f 145/214/147 148/217/150 149/218/151 146/215/148
f 150/219/143 151/220/152 149/218/151 148/217/150
f 147/216/149 146/215/148 149/218/151 151/220/152
f 141/221/89 144/222/146 152/223/153 153/224/154
f 147/225/149 154/226/155 152/223/153 144/222/146
f 155/227/156 153/224/154 152/223/153 154/226/155
f 150/228/143 156/229/157 157/230/158 151/231/152
f 155/227/156 154/226/155 157/230/158 156/229/157
f 147/225/149 151/231/152 157/230/158 154/226/155
f 141/210/89 158/232/159 159/233/160 142/211/144
f 160/234/161 161/235/162 159/233/160 158/232/159
f 145/214/147 142/211/144 159/233/160 161/235/162
f 150/219/143 148/217/150 162/236/163 163/237/164
f 145/214/147 161/235/162 162/236/163 148/217/150
f 160/234/161 163/237/164 162/236/163 161/235/162
f 141/221/89 153/224/154 164/238/165 158/239/159
f 155/227/156 165/240/166 164/238/165 153/224/154
f 160/241/161 158/239/159 164/238/165 165/240/166
f 150/228/143 163/242/164 166/243/167 156/229/157
f 160/241/161 165/240/166 166/243/167 163/242/164
f 155/227/156 156/229/157 166/243/167 165/240/166
