# Blender v3.0.0 OBJ File: ''
# www.blender.org
mtllib 5.mtl
o Shoe_4_Cube.120
v 0.691292 0.009248 0.786691
v 0.691292 1.085235 0.786691
v -0.882090 0.009248 0.786691
v -0.882090 1.085235 0.786691
v 1.775720 0.009248 0.786691
v 1.775720 1.582630 0.786691
v 1.775720 0.383408 0.611320
v 1.775720 1.407259 0.611320
v 1.596104 0.383408 0.611320
v 1.596104 1.407259 0.611320
v 1.035281 0.009248 0.786691
v 1.035281 1.582630 0.786691
v 1.685346 0.679619 0.315109
v 1.685346 1.111049 0.315109
v -0.705544 0.129982 0.786690
v 0.514746 0.129982 0.786690
v 0.514746 0.964501 0.786690
v -0.705544 0.964501 0.786690
v -0.705544 0.129982 0.724713
v 0.514746 0.129982 0.724713
v 0.514746 0.964501 0.724713
v -0.705544 0.964501 0.724713
v 0.691292 0.009248 -0.786691
v 0.691292 1.085235 -0.786691
v -0.882090 0.009248 -0.786691
v -0.882090 1.085235 -0.786691
v 1.775720 0.009248 -0.786691
v 1.775720 1.582630 -0.786691
v 1.775720 0.383408 -0.611320
v 1.775720 1.407259 -0.611320
v 1.596104 0.383408 -0.611320
v 1.596104 1.407259 -0.611320
v 1.035281 0.009248 -0.786691
v 1.035281 1.582630 -0.786691
v 1.685346 0.679619 -0.315109
v 1.685346 1.111049 -0.315109
v -0.705544 0.129982 -0.786690
v 0.514746 0.129982 -0.786690
v 0.514746 0.964501 -0.786690
v -0.705544 0.964501 -0.786690
v -0.705544 0.129982 -0.724713
v 0.514746 0.129982 -0.724713
v 0.514746 0.964501 -0.724713
v -0.705544 0.964501 -0.724713
v 1.813368 0.135955 0.558599
v 1.813368 0.256702 0.558599
v 1.767344 0.135955 0.558599
v 1.767344 0.256702 0.558599
v 1.813368 0.135955 0.437852
v 1.813368 0.256702 0.437852
v 1.767344 0.135955 0.437852
v 1.767344 0.256702 0.437852
v 1.813368 0.135955 0.308205
v 1.813368 0.256702 0.308205
v 1.767344 0.135955 0.308205
v 1.767344 0.256702 0.308205
v 1.813368 0.135955 0.187458
v 1.813368 0.256702 0.187458
v 1.767344 0.135955 0.187458
v 1.767344 0.256702 0.187458
v 1.813368 0.135955 0.035601
v 1.813368 0.256702 0.035601
v 1.767344 0.135955 0.035601
v 1.767344 0.256702 0.035601
v 1.813368 0.135955 -0.224833
v 1.813368 0.256702 -0.224833
v 1.767344 0.135955 -0.224833
v 1.767344 0.256702 -0.224833
v 1.575251 1.510738 0.472467
v 1.475114 1.510738 0.472467
v 1.475114 1.510738 0.372330
v 1.575251 1.510738 0.372330
v 1.575251 2.693523 0.472467
v 1.475114 2.693523 0.472467
v 1.475114 2.693523 0.372330
v 1.575251 2.693523 0.372330
v 1.545599 2.693523 0.442815
v 1.504765 2.693523 0.442815
v 1.504765 2.693523 0.401982
v 1.545599 2.693523 0.401982
v 1.545599 3.906362 0.442815
v 1.504765 3.906362 0.442815
v 1.504765 3.906362 0.401982
v 1.545599 3.906362 0.401982
v 1.559733 3.906363 0.456949
v 1.490631 3.906363 0.456949
v 1.490631 3.906363 0.387848
v 1.559733 3.906363 0.387848
v 1.559733 3.958138 0.456949
v 1.490631 3.958138 0.456949
v 1.490631 3.958138 0.387848
v 1.559733 3.958138 0.387848
v -0.339457 0.380338 0.767119
v 0.148659 0.380338 0.767119
v 0.148659 0.714145 0.767119
v -0.339457 0.714145 0.767119
v -0.339457 0.380338 -0.767122
v 0.148659 0.380338 -0.767122
v 0.148659 0.714145 -0.767122
v -0.339457 0.714145 -0.767122
v -0.882090 0.009248 0.786691
v -0.882090 0.009248 0.786691
v 0.691292 0.009248 0.786691
v 0.691292 1.085235 0.786691
v -0.882090 1.085235 0.786691
v -0.882090 1.085235 0.786691
v 1.775720 0.009248 0.786691
v 1.775720 0.009248 0.786691
v 1.775720 1.582630 0.786691
v 1.775720 1.582630 0.786691
v 1.035281 0.009248 0.786691
v 1.035281 1.582630 0.786691
v 1.775720 0.383408 0.611320
v 1.775720 0.383408 0.611320
v 1.775720 1.407259 0.611320
v 1.775720 1.407259 0.611320
v 1.596104 0.383408 0.611320
v 1.596104 0.383408 0.611320
v 1.596104 1.407259 0.611320
v 1.596104 1.407259 0.611320
v -0.705544 0.129982 0.786690
v -0.705544 0.129982 0.786690
v 0.514746 0.129982 0.786690
v 0.514746 0.129982 0.786690
v 0.514746 0.964501 0.786690
v 0.514746 0.964501 0.786690
v -0.705544 0.964501 0.786690
v -0.705544 0.964501 0.786690
v -0.705544 0.129982 0.724713
v -0.705544 0.129982 0.724713
v 0.514746 0.129982 0.724713
v 0.514746 0.129982 0.724713
v 0.514746 0.964501 0.724713
v 0.514746 0.964501 0.724713
v -0.705544 0.964501 0.724713
v -0.705544 0.964501 0.724713
v -0.882090 0.009248 -0.786691
v -0.882090 0.009248 -0.786691
v 0.691292 0.009248 -0.786691
v 0.691292 1.085235 -0.786691
v -0.882090 1.085235 -0.786691
v -0.882090 1.085235 -0.786691
v 1.775720 0.009248 -0.786691
v 1.775720 0.009248 -0.786691
v 1.775720 1.582630 -0.786691
v 1.775720 1.582630 -0.786691
v 1.035281 0.009248 -0.786691
v 1.035281 1.582630 -0.786691
v 1.775720 0.383408 -0.611320
v 1.775720 0.383408 -0.611320
v 1.775720 1.407259 -0.611320
v 1.775720 1.407259 -0.611320
v 1.596104 0.383408 -0.611320
v 1.596104 0.383408 -0.611320
v 1.596104 1.407259 -0.611320
v 1.596104 1.407259 -0.611320
v -0.705544 0.129982 -0.786690
v -0.705544 0.129982 -0.786690
v 0.514746 0.129982 -0.786690
v 0.514746 0.129982 -0.786690
v 0.514746 0.964501 -0.786690
v 0.514746 0.964501 -0.786690
v -0.705544 0.964501 -0.786690
v -0.705544 0.964501 -0.786690
v -0.705544 0.129982 -0.724713
v -0.705544 0.129982 -0.724713
v 0.514746 0.129982 -0.724713
v 0.514746 0.129982 -0.724713
v 0.514746 0.964501 -0.724713
v 0.514746 0.964501 -0.724713
v -0.705544 0.964501 -0.724713
v -0.705544 0.964501 -0.724713
v 1.767344 0.135955 0.558599
v 1.813368 0.135955 0.558599
v 1.813368 0.135955 0.558599
v 1.813368 0.256702 0.558599
v 1.813368 0.256702 0.558599
v 1.767344 0.256702 0.558599
v 1.813368 0.135955 0.437852
v 1.813368 0.135955 0.437852
v 1.767344 0.135955 0.437852
v 1.767344 0.256702 0.437852
v 1.813368 0.256702 0.437852
v 1.813368 0.256702 0.437852
v 1.767344 0.135955 0.308205
v 1.813368 0.135955 0.308205
v 1.813368 0.135955 0.308205
v 1.813368 0.256702 0.308205
v 1.813368 0.256702 0.308205
v 1.767344 0.256702 0.308205
v 1.813368 0.135955 0.187458
v 1.813368 0.135955 0.187458
v 1.767344 0.135955 0.187458
v 1.767344 0.256702 0.187458
v 1.813368 0.256702 0.187458
v 1.813368 0.256702 0.187458
v 1.767344 0.135955 0.035601
v 1.813368 0.135955 0.035601
v 1.813368 0.135955 0.035601
v 1.813368 0.256702 0.035601
v 1.813368 0.256702 0.035601
v 1.767344 0.256702 0.035601
v 1.813368 0.135955 -0.224833
v 1.813368 0.135955 -0.224833
v 1.767344 0.135955 -0.224833
v 1.767344 0.256702 -0.224833
v 1.813368 0.256702 -0.224833
v 1.813368 0.256702 -0.224833
v 1.575251 2.693523 0.472467
v 1.575251 2.693523 0.472467
v 1.475114 2.693523 0.472467
v 1.475114 2.693523 0.472467
v 1.475114 2.693523 0.372330
v 1.475114 2.693523 0.372330
v 1.575251 2.693523 0.372330
v 1.575251 2.693523 0.372330
v 1.475114 1.510738 0.372330
v 1.575251 1.510738 0.372330
v 1.575251 1.510738 0.472467
v 1.475114 1.510738 0.472467
v 1.545599 2.693523 0.442815
v 1.545599 2.693523 0.442815
v 1.504765 2.693523 0.442815
v 1.504765 2.693523 0.442815
v 1.504765 2.693523 0.401982
v 1.504765 2.693523 0.401982
v 1.545599 2.693523 0.401982
v 1.545599 2.693523 0.401982
v 1.545599 3.906362 0.442815
v 1.545599 3.906362 0.442815
v 1.504765 3.906362 0.442815
v 1.504765 3.906362 0.442815
v 1.504765 3.906362 0.401982
v 1.504765 3.906362 0.401982
v 1.545599 3.906362 0.401982
v 1.545599 3.906362 0.401982
v 1.559733 3.906363 0.456949
v 1.559733 3.906363 0.456949
v 1.490631 3.906363 0.456949
v 1.490631 3.906363 0.456949
v 1.490631 3.906363 0.387848
v 1.490631 3.906363 0.387848
v 1.559733 3.906363 0.387848
v 1.559733 3.906363 0.387848
v 1.559733 3.958138 0.456949
v 1.559733 3.958138 0.456949
v 1.490631 3.958138 0.456949
v 1.490631 3.958138 0.456949
v 1.490631 3.958138 0.387848
v 1.490631 3.958138 0.387848
v 1.559733 3.958138 0.387848
v 1.559733 3.958138 0.387848
vt 0.768467 0.589234
vt 0.768467 0.609610
vt 0.760700 0.609610
vt 0.760700 0.589234
vt 0.796610 0.589234
vt 0.796610 0.609610
vt 0.788843 0.609610
vt 0.788843 0.589234
vt 0.788843 0.589234
vt 0.788843 0.609610
vt 0.768467 0.609610
vt 0.768467 0.589234
vt 0.768467 0.581467
vt 0.788843 0.581467
vt 0.788843 0.589234
vt 0.768467 0.589234
vt 0.788843 0.617377
vt 0.768467 0.617377
vt 0.768467 0.609610
vt 0.788843 0.609610
vt 0.921017 0.162904
vt 0.900640 0.162904
vt 0.900640 0.155137
vt 0.921017 0.155137
vt 0.921017 0.191047
vt 0.900640 0.191047
vt 0.900640 0.183281
vt 0.921017 0.183281
vt 0.921017 0.183281
vt 0.900640 0.183281
vt 0.900640 0.162904
vt 0.921017 0.162904
vt 0.928783 0.162904
vt 0.928783 0.183281
vt 0.921017 0.183281
vt 0.921017 0.162904
vt 0.892874 0.183281
vt 0.892874 0.162904
vt 0.900640 0.162904
vt 0.900640 0.183281
vt 0.603114 0.248676
vt 0.623491 0.248676
vt 0.623491 0.256442
vt 0.603114 0.256442
vt 0.603114 0.196960
vt 0.623491 0.196960
vt 0.623491 0.204726
vt 0.603114 0.204726
vt 0.603114 0.204726
vt 0.623491 0.204726
vt 0.623491 0.248676
vt 0.603114 0.248676
vt 0.595348 0.248676
vt 0.595348 0.204726
vt 0.603114 0.204726
vt 0.603114 0.248676
vt 0.631258 0.204726
vt 0.631258 0.248676
vt 0.623491 0.248676
vt 0.623491 0.204726
vt 0.577029 0.499929
vt 0.593928 0.499929
vt 0.593928 0.699529
vt 0.577029 0.699529
vt 0.560131 0.716427
vt 0.560131 0.699529
vt 0.565135 0.704532
vt 0.565135 0.711423
vt 0.543232 0.499929
vt 0.560131 0.499929
vt 0.560131 0.699529
vt 0.543232 0.699529
vt 0.560131 0.499929
vt 0.577029 0.499929
vt 0.577029 0.699529
vt 0.560131 0.699529
vt 0.593928 0.499929
vt 0.610827 0.499929
vt 0.610827 0.699529
vt 0.593928 0.699529
vt 0.900266 0.245794
vt 0.907156 0.245794
vt 0.907156 0.450461
vt 0.900265 0.450461
vt 0.577029 0.699529
vt 0.572026 0.704532
vt 0.577029 0.716427
vt 0.572026 0.711423
vt 0.843285 0.602404
vt 0.843286 0.595513
vt 0.845671 0.593128
vt 0.845671 0.604789
vt 0.914047 0.245794
vt 0.920937 0.245794
vt 0.920939 0.450461
vt 0.914048 0.450461
vt 0.907156 0.245794
vt 0.914047 0.245794
vt 0.914048 0.450461
vt 0.907156 0.450461
vt 0.893375 0.245794
vt 0.900266 0.245794
vt 0.900265 0.450461
vt 0.893374 0.450461
vt 0.834009 0.604789
vt 0.834009 0.616450
vt 0.825272 0.616450
vt 0.825272 0.604789
vt 0.836394 0.602404
vt 0.834009 0.604789
vt 0.836395 0.595513
vt 0.834009 0.593128
vt 0.813611 0.604789
vt 0.813611 0.593128
vt 0.825272 0.593128
vt 0.825272 0.604789
vt 0.834009 0.581467
vt 0.834009 0.593128
vt 0.825272 0.593128
vt 0.825272 0.581467
vt 0.834009 0.593128
vt 0.834009 0.604789
vt 0.825272 0.604789
vt 0.825272 0.593128
vt 0.834009 0.616450
vt 0.834009 0.628111
vt 0.825272 0.628111
vt 0.825272 0.616450
vt 0.312828 0.494044
vt 0.494405 0.494044
vt 0.474031 0.523836
vt 0.333202 0.523837
vt 0.312825 0.475394
vt 0.312825 0.209880
vt 0.578339 0.209880
vt 0.578339 0.475394
vt 0.295822 0.473970
vt 0.030308 0.473970
vt 0.030308 0.208455
vt 0.295822 0.208455
vt 0.916267 0.523632
vt 0.709941 0.523632
vt 0.680347 0.494038
vt 0.945861 0.494038
vt 0.228891 0.817608
vt 0.494405 0.817608
vt 0.494405 0.942560
vt 0.228891 0.942560
vt 0.945861 0.759552
vt 0.916267 0.696411
vt 0.959675 0.785087
vt 0.959675 0.612308
vt 0.989986 0.612308
vt 0.989986 0.785087
vt 0.959675 0.405983
vt 0.989986 0.405983
vt 0.989986 0.612308
vt 0.959675 0.612308
vt 0.312828 0.759558
vt 0.494405 0.759558
vt 0.989986 0.026878
vt 0.989986 0.233204
vt 0.959675 0.233204
vt 0.959675 0.026878
vt 0.312825 0.151830
vt 0.578339 0.151830
vt 0.206286 0.928262
vt 0.030309 0.928163
vt 0.081965 0.876585
vt 0.154791 0.876523
vt 0.082027 0.770082
vt 0.154737 0.770164
vt 0.295822 0.576025
vt 0.030308 0.576025
vt 0.030336 0.718604
vt 0.680347 0.759552
vt 0.709941 0.696411
vt 0.295822 0.700977
vt 0.030308 0.700977
vt 0.312825 0.026878
vt 0.578339 0.026878
vt 0.030308 0.026878
vt 0.295822 0.026878
vt 0.295822 0.208455
vt 0.030308 0.208455
vt 0.662000 0.944559
vt 0.661986 0.738797
vt 0.651459 0.738802
vt 0.651550 0.944560
vt 0.333202 0.729765
vt 0.474031 0.729765
vt 0.510658 0.944605
vt 0.651550 0.944560
vt 0.609061 0.882722
vt 0.553027 0.882686
vt 0.662000 0.596013
vt 0.661938 0.384201
vt 0.651149 0.384207
vt 0.651319 0.596018
vt 0.661986 0.738797
vt 0.662000 0.596013
vt 0.651319 0.596018
vt 0.651459 0.738802
vt 0.661938 0.384201
vt 0.661880 0.238508
vt 0.651060 0.238512
vt 0.651149 0.384207
vt 0.679292 0.475388
vt 0.699666 0.445595
vt 0.840495 0.445595
vt 0.860869 0.475388
vt 0.595355 0.151824
vt 0.595355 0.026872
vt 0.860869 0.026872
vt 0.860869 0.151824
vt 0.959675 0.233204
vt 0.989986 0.233204
vt 0.989986 0.405983
vt 0.959675 0.405983
vt 0.679292 0.209873
vt 0.860869 0.209873
vt 0.206286 0.718556
vt 0.970987 0.976292
vt 0.970983 0.965801
vt 0.764435 0.965801
vt 0.764432 0.976292
vt 0.840495 0.239666
vt 0.699666 0.239666
vt 0.623177 0.976239
vt 0.623180 0.965748
vt 0.416629 0.965672
vt 0.416625 0.976162
vt 0.764432 0.976292
vt 0.764435 0.965801
vt 0.623180 0.965748
vt 0.623177 0.976239
vt 0.416625 0.976162
vt 0.416629 0.965672
vt 0.275374 0.965619
vt 0.275370 0.976110
vt 0.609092 0.800726
vt 0.553058 0.800692
vt 0.651459 0.738802
vt 0.510567 0.738859
vt 0.908898 0.866995
vt 0.826590 0.866928
vt 0.826529 0.923176
vt 0.908840 0.923244
vt 0.764452 0.824369
vt 0.764435 0.965801
vt 0.970983 0.965801
vt 0.970987 0.824369
vn 0.0000 0.0000 1.0000
vn 0.0000 0.0000 -1.0000
vn 1.0000 0.0000 0.0000
vn 0.0000 -1.0000 0.0000
vn 0.0000 1.0000 0.0000
vn -1.0000 0.0000 0.0000
vn -0.0001 -1.0000 0.0000
vn 0.0000 -1.0000 -0.0001
vn 0.0000 -1.0000 0.0001
vn 0.0001 -1.0000 0.0000
vn -0.4643 0.8856 0.0000
vn 0.9780 0.1473 0.1473
vn 0.9780 -0.1473 0.1473
vn 0.9878 -0.1101 0.1101
vn 0.9878 0.1101 0.1101
vn 0.9878 -0.1101 -0.1101
vn 0.9878 0.1101 -0.1101
vn 0.9780 -0.1473 -0.1473
vn 0.0713 -0.0644 0.9954
vn 0.0713 0.0644 0.9954
vn 0.0399 0.0678 0.9969
vn 0.0399 -0.0678 0.9969
vn 0.9780 0.1473 -0.1473
vn -0.0399 0.0678 0.9969
vn -0.0399 -0.0678 0.9969
vn -0.0713 0.0644 0.9954
vn -0.0713 -0.0644 0.9954
vn 0.0399 -0.0678 -0.9969
vn -0.0399 -0.0678 -0.9969
vn -0.0399 0.0678 -0.9969
vn 0.0399 0.0678 -0.9969
vn -0.0713 -0.0644 -0.9954
vn -0.0713 0.0644 -0.9954
vn 0.0713 0.0644 -0.9954
vn 0.0713 -0.0644 -0.9954
usemtl None
s off
f 174/1/1 176/2/1 178/3/1 173/4/1
f 51/5/2 52/6/2 183/7/2 179/8/2
f 180/9/3 184/10/3 177/11/3 175/12/3
f 47/13/4 181/14/4 49/15/4 45/16/4
f 182/17/5 48/18/5 46/19/5 50/20/5
f 186/21/1 188/22/1 190/23/1 185/24/1
f 59/25/2 60/26/2 195/27/2 191/28/2
f 192/29/3 196/30/3 189/31/3 187/32/3
f 55/33/4 193/34/4 57/35/4 53/36/4
f 194/37/5 56/38/5 54/39/5 58/40/5
f 198/41/1 200/42/1 202/43/1 197/44/1
f 67/45/2 68/46/2 207/47/2 203/48/2
f 204/49/3 208/50/3 201/51/3 199/52/3
f 63/53/4 205/54/4 65/55/4 61/56/4
f 206/57/5 64/58/5 62/59/5 66/60/5
f 218/61/2 71/62/2 214/63/2 215/64/2
f 211/65/5 209/66/5 221/67/5 223/68/5
f 220/69/1 219/70/1 73/71/1 74/72/1
f 69/73/3 72/74/3 216/75/3 210/76/3
f 217/77/6 70/78/6 212/79/6 213/80/6
f 222/81/3 228/82/3 236/83/3 230/84/3
f 209/66/5 76/85/5 227/86/5 221/67/5
f 75/87/5 211/65/5 223/68/5 225/88/5
f 76/85/5 75/87/5 225/88/5 227/86/5
f 233/89/7 232/90/7 239/91/7 241/92/7
f 226/93/6 224/94/6 82/95/6 83/96/6
f 80/97/2 79/98/2 234/99/2 235/100/2
f 78/101/1 77/102/1 229/103/1 231/104/1
f 243/105/2 242/106/2 250/107/2 251/108/2
f 84/109/8 233/89/8 241/92/8 244/110/8
f 232/90/9 81/111/9 237/112/9 239/91/9
f 81/111/10 84/109/10 244/110/10 237/112/10
f 249/113/5 247/114/5 245/115/5 252/116/5
f 240/117/1 238/118/1 246/119/1 248/120/1
f 85/121/3 88/122/3 92/123/3 89/124/3
f 87/125/6 86/126/6 90/127/6 91/128/6
s 1
f 106/129/1 102/130/1 121/131/1 128/132/1
f 137/133/4 139/134/4 103/135/4 101/136/4
f 2/137/11 24/138/11 141/139/5 105/140/5
f 115/141/3 151/142/3 146/143/3 110/144/3
f 112/145/1 111/146/1 107/147/1 109/148/1
f 110/144/3 108/149/3 113/150/3 115/141/3
f 116/151/2 114/152/2 117/153/2 119/154/2
f 150/155/5 154/156/5 9/157/5 7/158/5
f 104/159/1 1/160/1 111/146/1 112/145/1
f 10/161/4 156/162/4 152/163/4 8/164/4
f 139/134/4 147/165/4 11/166/4 103/135/4
f 120/167/12 118/168/13 13/169/14 14/170/15
f 13/169/14 35/171/16 36/172/17 14/170/15
f 12/173/11 148/174/11 24/138/11 2/137/11
f 31/175/18 35/171/16 13/169/14 118/168/13
f 144/176/3 149/177/3 113/150/3 108/149/3
f 6/178/5 28/179/5 148/174/11 12/173/11
f 147/165/4 27/180/4 5/181/4 11/166/4
f 138/182/6 3/183/6 4/184/6 142/185/6
f 126/186/4 127/187/4 135/188/4 134/189/4
f 1/160/1 104/159/1 125/190/1 123/191/1
f 104/159/1 106/129/1 128/132/1 125/190/1
f 102/130/1 1/160/1 123/191/1 121/131/1
f 132/192/19 133/193/20 95/194/21 94/195/22
f 122/196/5 124/197/5 131/198/5 129/199/5
f 18/200/3 15/201/3 130/202/3 136/203/3
f 16/204/6 17/205/6 21/206/6 20/207/6
f 26/208/2 164/209/2 157/210/2 25/211/2
f 34/212/2 145/213/2 143/214/2 33/215/2
f 146/143/3 151/142/3 149/177/3 144/176/3
f 30/216/1 155/217/1 153/218/1 29/219/1
f 140/220/2 34/212/2 33/215/2 23/221/2
f 32/222/23 36/172/17 35/171/16 31/175/18
f 162/223/4 170/224/4 171/225/4 163/226/4
f 23/221/2 159/227/2 161/228/2 140/220/2
f 140/220/2 161/228/2 164/209/2 26/208/2
f 25/211/2 157/210/2 159/227/2 23/221/2
f 158/229/5 165/230/5 167/231/5 160/232/5
f 40/233/3 172/234/3 166/235/3 37/236/3
f 38/237/6 168/238/6 169/239/6 39/240/6
f 14/170/15 36/172/17 32/222/23 120/167/12
f 94/195/22 95/194/21 96/241/24 93/242/25
f 133/193/20 22/243/26 96/241/24 95/194/21
f 19/244/27 132/192/19 94/195/22 93/242/25
f 22/243/26 19/244/27 93/242/25 96/241/24
f 98/245/28 97/246/29 100/247/30 99/248/31
f 41/249/32 44/250/33 100/247/30 97/246/29
f 43/251/34 42/252/35 98/245/28 99/248/31
f 44/250/33 43/251/34 99/248/31 100/247/30
f 42/252/35 41/249/32 97/246/29 98/245/28
