# Blender v2.92.0 OBJ File: ''
# www.blender.org
mtllib rotated.mtl
o Cube.001
v 1.094437 0.833845 -1.074595
v 1.094437 0.833845 1.074595
v 1.174786 0.682722 1.074595
v 1.174786 0.682722 -1.074595
v -1.191607 0.550271 1.074595
v -1.005578 0.508360 1.074595
v -0.991384 0.614523 1.074595
v -1.174786 0.682722 1.074595
v 1.003091 -1.085951 -1.074595
v 1.003091 -1.085951 1.074595
v 0.980051 -1.178070 1.074595
v 0.980051 -1.178070 -1.074595
v -0.917103 -1.245505 -1.074595
v -0.980051 -1.178070 -1.074595
v -0.827050 -1.034343 -1.074595
v -0.773929 -1.093934 -1.074595
v 1.170005 0.449727 -1.074595
v 1.104342 0.357363 -1.074595
v 0.931937 0.353741 -1.074595
v 0.987349 0.427772 -1.074595
v 1.104342 0.357363 1.074595
v 0.931937 0.353741 1.074595
v 0.846493 0.300248 1.074595
v 1.003091 0.290625 1.074595
v -1.003091 -1.085951 -1.074595
v -0.846493 -0.952940 -1.074595
v 1.191607 0.550271 1.074595
v 1.005578 0.508360 1.074595
v 0.987349 0.427772 1.074595
v 1.170005 0.449727 1.074595
v 0.526352 1.007509 1.074595
v 0.799636 0.958405 1.074595
v 0.799636 0.958405 -1.074595
v 0.526352 1.007509 -1.074595
v -1.170005 0.449727 1.074595
v -0.987349 0.427772 1.074595
v 0.952871 0.903794 -1.074595
v 0.952871 0.903794 1.074595
v -0.444180 0.874847 -1.074595
v -0.213689 0.898954 -1.074595
v -0.213689 0.898954 -1.049674
v -0.444180 0.874847 -1.049674
v -1.094437 0.833845 -1.074595
v -0.952871 0.903794 -1.074595
v -0.804113 0.791717 -1.074595
v -0.923579 0.723464 -1.074595
v -1.094437 0.833845 1.074595
v -0.952871 0.903794 1.074595
v 0.831114 -1.270188 -1.074595
v 0.831114 -1.270188 1.074595
v -0.831114 -1.270188 1.074595
v -0.831114 -1.270188 -1.074595
v 0.917103 -1.245505 -1.074595
v 0.917103 -1.245505 1.074595
v 0.773929 -1.093934 1.074595
v 0.701364 -1.115746 1.074595
v -1.191607 0.550271 -1.074595
v -1.174786 0.682722 -1.074595
v -0.991384 0.614523 -1.074595
v -1.005578 0.508360 -1.074595
v 1.003091 0.290625 -1.074595
v 0.846493 -0.952940 -1.074595
v 0.846493 0.300248 -1.074595
v 0.773929 -1.093934 -1.074595
v 0.827050 -1.034343 -1.074595
v -1.003091 -1.085951 1.074595
v -1.003091 0.290625 1.074595
v -1.003091 0.290625 -1.074595
v 1.191607 0.550271 -1.074595
v 1.005578 0.508360 -1.074595
v 0.991384 0.614523 -1.074595
v -0.917103 -1.245505 1.074595
v -0.773929 -1.093934 1.074595
v -0.827050 -1.034343 1.074595
v -0.980051 -1.178070 1.074595
v -0.701364 -1.115746 1.074595
v -1.104342 0.357363 -1.074595
v -1.170005 0.449727 -1.074595
v -0.987349 0.427772 -1.074595
v -0.931937 0.353741 -1.074595
v -0.846493 -0.952940 1.074595
v -0.846493 0.300248 1.074595
v 0.923579 0.723464 1.074595
v 0.991384 0.614523 1.074595
v -1.005578 0.508360 1.049674
v -0.987349 0.427772 1.049674
v 0.987349 0.427772 1.049674
v 1.005578 0.508360 1.049674
v -0.526352 1.007509 1.074595
v -0.526352 1.007509 -1.074595
v -0.799636 0.958405 -1.074595
v -0.799636 0.958405 1.074595
v 0.066942 1.042271 1.074595
v 0.253221 1.037586 1.074595
v 0.253221 1.037586 -1.074595
v 0.066942 1.042271 -1.074595
v -0.923579 0.723464 1.074595
v -0.923579 0.723464 1.049674
v -0.804113 0.791717 1.049674
v -0.804113 0.791717 1.074595
v -0.674800 0.835488 -1.074595
v 0.056491 0.912994 1.074595
v 0.056491 0.912994 1.049674
v 0.213689 0.898954 1.049674
v 0.213689 0.898954 1.074595
v 0.444180 0.874847 -1.074595
v 0.213689 0.898954 -1.074595
v -0.701364 -1.115746 -1.074595
v -0.674800 0.835488 1.049674
v -0.674800 0.835488 1.074595
v -0.444180 0.874847 1.074595
v -0.213689 0.898954 1.074595
v -0.253221 1.037586 1.074595
v 0.674800 0.835488 -1.074595
v 0.804113 0.791717 -1.074595
v 0.804113 0.791717 -1.049674
v 0.674800 0.835488 -1.049674
v -0.674800 0.835488 -1.049674
v 1.005578 0.508360 -1.049674
v 0.991384 0.614523 -1.049674
v -1.005578 0.508360 -1.049674
v -0.987349 0.427772 -1.049674
v -0.991384 0.614523 -1.049674
v -0.253221 1.037586 -1.074595
v -0.066942 1.042271 -1.074595
v -0.056491 0.912994 -1.074595
v 0.923579 0.723464 -1.074595
v 0.056491 0.912994 -1.074595
v -0.846493 0.300248 -1.074595
v 0.701364 -1.115746 -1.074595
v -0.827050 -1.034343 -1.049674
v -0.773929 -1.093935 -1.049674
v -0.804113 0.791717 -1.049674
v -0.923579 0.723464 -1.049674
v -0.846493 -0.952940 -1.049674
v 0.701364 -1.115746 -1.049674
v 0.773929 -1.093935 -1.049674
v 0.846493 -0.952940 -1.049674
v 0.846493 0.300248 -1.049674
v 0.827050 -1.034343 -1.049674
v -0.701364 -1.115746 -1.049674
v -0.931937 0.353741 -1.049674
v 0.931937 0.353741 -1.049674
v -0.846493 0.300248 -1.049674
v 0.444180 0.874847 -1.049674
v 0.987349 0.427772 -1.049674
v 0.923579 0.723464 -1.049674
v 0.213689 0.898954 -1.049674
v -0.056491 0.912994 -1.049674
v 0.056491 0.912994 -1.049674
v -1.104342 0.357363 1.074595
v 0.931937 0.353741 1.049674
v -0.066942 1.042271 1.074595
v 0.991384 0.614523 1.049674
v -0.444180 0.874847 1.049674
v -0.213689 0.898954 1.049674
v 0.701364 -1.115746 1.049674
v -0.701364 -1.115746 1.049674
v 0.444180 0.874847 1.074595
v 0.674800 0.835488 1.074595
v 0.804113 0.791717 1.074595
v -0.931937 0.353741 1.074595
v -0.056491 0.912994 1.074595
v 0.674800 0.835488 1.049674
v 0.444180 0.874847 1.049674
v -0.773929 -1.093935 1.049674
v -0.827050 -1.034343 1.049674
v -0.991384 0.614523 1.049674
v -0.846493 -0.952940 1.049674
v 0.846493 -0.952940 1.074595
v 0.827050 -1.034343 1.074595
v -0.931937 0.353741 1.049674
v -0.846493 0.300248 1.049674
v 0.846493 0.300248 1.049674
v 0.773929 -1.093935 1.049674
v -0.056491 0.912994 1.049674
v 0.846493 -0.952940 1.049674
v 0.827050 -1.034343 1.049674
v 0.804113 0.791717 1.049674
v 0.923579 0.723464 1.049674
vt 0.488929 0.831211
vt 0.259523 0.828349
vt 0.259751 0.810080
vt 0.489157 0.812942
vt 0.070955 0.365011
vt 0.075181 0.384924
vt 0.063830 0.386298
vt 0.056794 0.366630
vt 0.491617 0.615736
vt 0.262211 0.612874
vt 0.262337 0.602738
vt 0.491744 0.605600
vt 0.496948 0.399631
vt 0.504230 0.393002
vt 0.519368 0.409525
vt 0.512936 0.415115
vt 0.675120 0.624668
vt 0.665348 0.617536
vt 0.665191 0.599129
vt 0.673019 0.605142
vt 0.088489 0.610340
vt 0.089105 0.591942
vt 0.094929 0.582893
vt 0.095748 0.599621
vt 0.514094 0.390665
vt 0.528083 0.407557
vt 0.067782 0.619398
vt 0.072503 0.599597
vt 0.081129 0.597758
vt 0.078543 0.617226
vt 0.258726 0.892206
vt 0.259096 0.862569
vt 0.488503 0.865430
vt 0.488133 0.895068
vt 0.081658 0.367451
vt 0.083759 0.386977
vt 0.488719 0.848066
vt 0.259313 0.845204
vt 0.747233 0.294359
vt 0.747237 0.269610
vt 0.759380 0.269612
vt 0.759376 0.294361
vt 0.719136 0.383471
vt 0.726414 0.398675
vt 0.714253 0.414404
vt 0.707126 0.401561
vt 0.497255 0.163770
vt 0.267849 0.160908
vt 0.268059 0.144053
vt 0.497466 0.146915
vt 0.491986 0.586204
vt 0.262579 0.583342
vt 0.264792 0.405915
vt 0.494199 0.408777
vt 0.491866 0.595753
vt 0.262460 0.592892
vt 0.259830 0.592488
vt 0.243842 0.577004
vt 0.246267 0.569287
vt 0.688996 0.372721
vt 0.703112 0.374693
vt 0.695588 0.394179
vt 0.684275 0.392522
vt 0.658359 0.606640
vt 0.511422 0.604807
vt 0.525828 0.588268
vt 0.659595 0.589937
vt 0.501620 0.602225
vt 0.494506 0.595416
vt 0.510875 0.580335
vt 0.517165 0.586084
vt 0.265161 0.376383
vt 0.266994 0.229446
vt 0.496400 0.232308
vt 0.494567 0.379245
vt 0.489335 0.798690
vt 0.259928 0.795829
vt 0.260065 0.784852
vt 0.489472 0.787713
vt 0.699984 0.625489
vt 0.685823 0.627108
vt 0.681597 0.607195
vt 0.692948 0.605821
vt 0.262272 0.396704
vt 0.245903 0.411784
vt 0.239613 0.406035
vt 0.255158 0.389895
vt 0.248134 0.419559
vt 0.668289 0.381779
vt 0.678235 0.374893
vt 0.675649 0.394361
vt 0.667673 0.400177
vt 0.245356 0.387313
vt 0.230950 0.403851
vt 0.097183 0.402182
vt 0.098419 0.385479
vt 0.037642 0.608648
vt 0.049652 0.590558
vt 0.061190 0.597940
vt 0.053666 0.617426
vt 0.494441 0.389381
vt 0.265034 0.386519
vt 0.496850 0.196291
vt 0.267443 0.193429
vt 0.267621 0.179177
vt 0.497027 0.182039
vt 0.802614 0.640814
vt 0.811220 0.642762
vt 0.811186 0.853645
vt 0.802580 0.855590
vt 0.268646 0.097051
vt 0.498052 0.099913
vt 0.497682 0.129551
vt 0.268276 0.126689
vt 0.258112 0.941427
vt 0.258360 0.921537
vt 0.487767 0.924398
vt 0.487519 0.944288
vt 0.494318 0.399228
vt 0.264912 0.396366
vt 0.489784 0.762673
vt 0.260378 0.759811
vt 0.747259 0.646302
vt 0.759402 0.646304
vt 0.759400 0.660997
vt 0.747257 0.660995
vt 0.732039 0.415104
vt 0.718753 0.428265
vt 0.747241 0.754225
vt 0.759384 0.754227
vt 0.759381 0.771080
vt 0.747238 0.771078
vt 0.739089 0.527592
vt 0.735515 0.556706
vt 0.721464 0.547759
vt 0.724344 0.523188
vt 0.510511 0.422832
vt 0.759397 0.675576
vt 0.747254 0.675574
vt 0.496713 0.207268
vt 0.267306 0.204406
vt 0.021263 0.435413
vt 0.035314 0.444360
vt 0.032434 0.468931
vt 0.017689 0.464527
vt 0.747252 0.174104
vt 0.747254 0.159525
vt 0.759397 0.159527
vt 0.759395 0.174106
vt 0.747229 0.319343
vt 0.759372 0.319345
vt 0.747259 0.131129
vt 0.747261 0.119691
vt 0.759404 0.119693
vt 0.759402 0.131131
vt 0.747219 0.382580
vt 0.747220 0.373756
vt 0.759363 0.373758
vt 0.759362 0.382581
vt 0.747222 0.362318
vt 0.759365 0.362320
vt 0.739764 0.473534
vt 0.740016 0.493424
vt 0.726202 0.494368
vt 0.724913 0.477569
vt 0.736917 0.444340
vt 0.722647 0.452935
vt 0.716222 0.617113
vt 0.704667 0.598729
vt 0.739837 0.507715
vt 0.726052 0.506427
vt 0.661030 0.392498
vt 0.661849 0.409226
vt 0.508644 0.572560
vt 0.729910 0.585812
vt 0.716956 0.572323
vt 0.723877 0.602095
vt 0.712112 0.586068
vt 0.988478 0.328280
vt 0.988478 0.336730
vt 0.976442 0.336730
vt 0.976442 0.328280
vt 0.747227 0.333922
vt 0.759369 0.333924
vt 0.747224 0.348615
vt 0.759367 0.348617
vt 0.988478 0.345589
vt 0.976442 0.345589
vt 0.988478 0.163766
vt 0.988478 0.171786
vt 0.976442 0.171786
vt 0.976442 0.163766
vt 0.988478 0.013811
vt 0.988478 0.146458
vt 0.976442 0.146458
vt 0.976442 0.013811
vt 0.988478 0.155316
vt 0.976442 0.155316
vt 0.988478 0.320260
vt 0.976442 0.320260
vt 0.973691 0.329408
vt 0.973716 0.164112
vt 0.767649 0.318789
vt 0.767671 0.174667
vt 0.772348 0.160858
vt 0.772321 0.332600
vt 0.819091 0.346258
vt 0.819121 0.147215
vt 0.824833 0.156340
vt 0.824805 0.337134
vt 0.763450 0.294160
vt 0.763464 0.199294
vt 0.802578 0.354120
vt 0.802611 0.139348
vt 0.811217 0.141296
vt 0.811184 0.352174
vt 0.967326 0.335080
vt 0.967353 0.158438
vt 0.958633 0.337155
vt 0.958661 0.156361
vt 0.779608 0.345359
vt 0.779639 0.148101
vt 0.791274 0.140862
vt 0.791241 0.352602
vt 0.760886 0.223907
vt 0.760879 0.269545
vt 0.759382 0.252758
vt 0.759384 0.240693
vt 0.747262 0.110868
vt 0.759405 0.110870
vt 0.747257 0.144832
vt 0.759400 0.144834
vt 0.747217 0.392455
vt 0.759360 0.392457
vt 0.747248 0.199089
vt 0.759391 0.199090
vt 0.747239 0.252756
vt 0.747244 0.223837
vt 0.759387 0.223839
vt 0.747216 0.403220
vt 0.759358 0.403222
vt 0.747264 0.100992
vt 0.759407 0.100994
vt 0.988478 0.478234
vt 0.976442 0.478234
vt 0.747241 0.240691
vt 0.747265 0.090227
vt 0.759408 0.090229
vt 0.269012 0.067721
vt 0.498418 0.070583
vt 0.496562 0.219364
vt 0.267155 0.216502
vt 0.747219 0.884046
vt 0.759362 0.884048
vt 0.759360 0.893923
vt 0.747218 0.893921
vt 0.487341 0.958579
vt 0.257934 0.955718
vt 0.747223 0.863785
vt 0.759365 0.863787
vt 0.759363 0.875224
vt 0.747221 0.875222
vt 0.260216 0.772755
vt 0.489623 0.775617
vt 0.759393 0.700559
vt 0.747250 0.700557
vt 0.040556 0.375006
vt 0.052111 0.393390
vt 0.044666 0.406052
vt 0.032901 0.390024
vt 0.759389 0.725308
vt 0.747246 0.725305
vt 0.988502 0.821739
vt 0.976472 0.821739
vt 0.976472 0.673337
vt 0.988502 0.673337
vt 0.019861 0.547779
vt 0.034131 0.539185
vt 0.038025 0.563854
vt 0.024739 0.577015
vt 0.030364 0.593444
vt 0.042525 0.577715
vt 0.091430 0.374583
vt 0.091587 0.392990
vt 0.016941 0.484404
vt 0.030726 0.485692
vt 0.030575 0.497752
vt 0.016762 0.498695
vt 0.763466 0.700760
vt 0.767674 0.676133
vt 0.767650 0.820259
vt 0.763451 0.795629
vt 0.747265 0.612338
vt 0.759408 0.612340
vt 0.759406 0.621163
vt 0.747264 0.621161
vt 0.988502 0.665320
vt 0.976472 0.665320
vt 0.976472 0.656874
vt 0.988502 0.656874
vt 0.747262 0.632599
vt 0.759404 0.632601
vt 0.031865 0.514550
vt 0.017014 0.518585
vt 0.026868 0.406308
vt 0.039822 0.419796
vt 0.976472 0.648020
vt 0.988502 0.648020
vt 0.242684 0.601454
vt 0.228695 0.584562
vt 0.237410 0.582595
vt 0.252548 0.599118
vt 0.819125 0.648681
vt 0.824836 0.657807
vt 0.824807 0.838605
vt 0.819093 0.847729
vt 0.747268 0.591698
vt 0.759411 0.591700
vt 0.759409 0.602465
vt 0.747267 0.602463
vt 0.973724 0.665580
vt 0.973696 0.830880
vt 0.759386 0.742161
vt 0.747243 0.742159
vt 0.988502 0.847056
vt 0.976472 0.847056
vt 0.976472 0.838202
vt 0.988502 0.838202
vt 0.976472 0.829756
vt 0.988502 0.829756
vt 0.747228 0.835389
vt 0.759370 0.835391
vt 0.759368 0.850084
vt 0.747225 0.850081
vt 0.759377 0.795828
vt 0.747234 0.795826
vt 0.759358 0.904688
vt 0.747216 0.904686
vt 0.772351 0.662324
vt 0.772322 0.834071
vt 0.967360 0.659906
vt 0.967332 0.836552
vt 0.976472 0.515437
vt 0.988502 0.515437
vt 0.779641 0.649567
vt 0.791277 0.642328
vt 0.791242 0.854073
vt 0.779609 0.846830
vt 0.760880 0.771014
vt 0.760888 0.725375
vt 0.958668 0.657828
vt 0.958638 0.838627
vt 0.988502 0.979638
vt 0.976472 0.979638
vt 0.759373 0.820812
vt 0.747230 0.820810
vt 0.269260 0.047831
vt 0.498666 0.050693
vn 0.6965 0.7175 -0.0000
vn 0.9531 0.3027 -0.0000
vn 0.0000 0.0000 1.0000
vn 0.9925 -0.1222 -0.0000
vn 0.8785 -0.4777 -0.0000
vn 0.0000 0.0000 -1.0000
vn 0.1432 0.9897 0.0000
vn 0.2571 0.9664 0.0000
vn 0.3900 0.9208 -0.0000
vn 0.1362 -0.9907 -0.0000
vn 0.0965 -0.9953 0.0000
vn -0.6965 0.7175 0.0000
vn -0.3900 0.9208 0.0000
vn 0.1393 -0.9902 -0.0000
vn -0.1393 -0.9902 -0.0000
vn 0.5224 -0.8527 -0.0000
vn -0.9925 -0.1222 0.0000
vn -1.0000 0.0000 0.0000
vn 0.9991 -0.0426 -0.0000
vn 0.9152 -0.4030 -0.0000
vn -0.8785 -0.4777 0.0000
vn -0.9991 -0.0426 0.0000
vn -0.9531 0.3027 0.0000
vn -0.1432 0.9897 0.0000
vn -0.2571 0.9664 0.0000
vn 0.0126 0.9999 -0.0000
vn 0.0674 0.9977 -0.0000
vn -0.5224 -0.8527 0.0000
vn 1.0000 -0.0000 -0.0000
vn 0.6937 -0.7203 0.0000
vn 0.4102 -0.9120 0.0000
vn -0.0445 -0.9990 -0.0000
vn -0.0965 -0.9953 0.0000
vn 0.2452 -0.9695 0.0000
vn -0.9152 -0.4030 0.0000
vn -0.2452 -0.9695 0.0000
vn -0.4102 -0.9120 0.0000
vn -0.9411 -0.3380 0.0000
vn -0.9990 0.0448 0.0000
vn 0.9079 0.4191 0.0000
vn 0.9990 0.0448 0.0000
vn 0.9411 -0.3380 0.0000
vn 0.5374 0.8433 0.0000
vn 0.8864 0.4629 0.0000
vn 0.9931 0.1170 0.0000
vn -0.5374 0.8433 0.0000
vn -0.1455 0.9894 0.0000
vn -0.8748 0.4844 0.0000
vn -0.9931 0.1170 0.0000
vn -0.8864 0.4629 0.0000
vn 0.1455 0.9894 0.0000
vn -0.9079 0.4191 0.0000
vn -0.6937 -0.7203 0.0000
vn 0.6771 0.7359 0.0000
vn -0.1362 -0.9907 0.0000
vn 0.0445 -0.9990 0.0000
vn 0.8748 0.4844 0.0000
vn -0.6771 0.7359 0.0000
vn -0.0674 0.9977 -0.0000
vn -0.6945 -0.7195 0.0000
vn -0.0126 0.9999 -0.0000
vn 0.6945 -0.7195 -0.0000
vn 0.5503 -0.8349 -0.0000
vn -0.5503 -0.8349 0.0000
usemtl Material.001
s 1
f 1/1/1 2/2/1 3/3/2 4/4/2
f 5/5/3 6/6/3 7/7/3 8/8/3
f 9/9/4 10/10/4 11/11/5 12/12/5
f 13/13/6 14/14/6 15/15/6 16/16/6
f 17/17/6 18/18/6 19/19/6 20/20/6
f 21/21/3 22/22/3 23/23/3 24/24/3
f 14/14/6 25/25/6 26/26/6 15/15/6
f 27/27/3 28/28/3 29/29/3 30/30/3
f 31/31/7 32/32/8 33/33/8 34/34/7
f 35/35/3 36/36/3 6/6/3 5/5/3
f 37/37/9 38/38/9 2/2/1 1/1/1
f 39/39/10 40/40/11 41/41/11 42/42/10
f 43/43/6 44/44/6 45/45/6 46/46/6
f 43/47/12 47/48/12 48/49/13 44/50/13
f 49/51/14 50/52/14 51/53/15 52/54/15
f 53/55/16 54/56/16 50/52/14 49/51/14
f 12/12/5 11/11/5 54/56/16 53/55/16
f 54/57/3 55/58/3 56/59/3 50/52/3
f 57/60/6 58/61/6 59/62/6 60/63/6
f 61/64/6 9/65/6 62/66/6 63/67/6
f 12/68/6 53/69/6 64/70/6 65/71/6
f 66/72/17 67/73/18 68/74/18 25/75/17
f 69/76/19 27/77/19 30/78/20 17/79/20
f 4/80/6 69/81/6 70/82/6 71/83/6
f 72/84/3 73/85/3 74/86/3 75/87/3
f 50/52/3 56/59/3 76/88/3 51/53/3
f 77/89/6 78/90/6 79/91/6 80/92/6
f 66/93/3 81/94/3 82/95/3 67/96/3
f 2/97/3 83/98/3 84/99/3 3/100/3
f 14/101/21 75/102/21 66/72/17 25/75/17
f 57/103/22 5/104/22 8/105/23 58/106/23
f 85/107/3 86/108/3 87/109/3 88/110/3
f 89/111/24 90/112/24 91/113/25 92/114/25
f 93/115/26 94/116/27 95/117/27 96/118/26
f 13/119/28 72/120/28 75/102/21 14/101/21
f 10/10/4 9/9/4 61/121/29 24/122/29
f 52/54/15 51/53/15 72/120/28 13/119/28
f 97/123/30 98/124/30 99/125/31 100/126/31
f 44/44/6 91/127/6 101/128/6 45/45/6
f 102/129/32 103/130/32 104/131/33 105/132/33
f 95/133/6 34/134/6 106/135/6 107/136/6
f 52/54/6 13/13/6 16/16/6 108/137/6
f 100/126/31 99/125/31 109/138/34 110/139/34
f 78/140/35 35/141/35 5/104/22 57/103/22
f 89/142/3 111/143/3 112/144/3 113/145/3
f 114/146/36 115/147/37 116/148/37 117/149/36
f 58/106/23 8/105/23 47/48/12 43/47/12
f 101/150/34 39/39/10 42/42/10 118/151/34
f 71/152/38 70/153/39 119/154/39 120/155/38
f 79/156/40 60/157/41 121/158/41 122/159/40
f 60/157/41 59/160/42 123/161/42 121/158/41
f 9/65/6 12/68/6 65/71/6 62/66/6
f 78/90/6 57/60/6 60/63/6 79/91/6
f 124/162/6 125/163/6 126/164/6 40/165/6
f 91/127/6 90/166/6 39/167/6 101/128/6
f 1/168/6 4/80/6 71/83/6 127/169/6
f 125/163/6 96/170/6 128/171/6 126/164/6
f 68/172/6 77/89/6 80/92/6 129/173/6
f 58/61/6 43/43/6 46/46/6 59/62/6
f 69/81/6 17/17/6 20/20/6 70/82/6
f 49/51/6 52/54/6 108/137/6 130/174/6
f 96/170/6 95/133/6 107/136/6 128/171/6
f 34/134/6 33/175/6 114/176/6 106/135/6
f 37/177/6 1/168/6 127/169/6 115/178/6
f 18/18/6 61/64/6 63/67/6 19/19/6
f 25/25/6 68/172/6 129/173/6 26/26/6
f 90/166/6 124/162/6 40/165/6 39/167/6
f 33/175/6 37/177/6 115/178/6 114/176/6
f 53/69/6 49/51/6 130/174/6 64/70/6
f 16/179/43 15/180/44 131/181/44 132/182/43
f 45/183/31 101/150/34 118/151/34 133/184/31
f 59/160/42 46/185/30 134/186/30 123/161/42
f 15/180/44 26/187/45 135/188/45 131/181/44
f 64/189/46 130/190/47 136/191/47 137/192/46
f 63/193/48 62/194/49 138/195/49 139/196/48
f 65/197/50 64/189/46 137/192/46 140/198/50
f 108/199/51 16/179/43 132/182/43 141/200/51
f 132/201/6 137/202/6 136/191/6 141/200/6
f 118/203/6 117/204/6 116/205/6 133/206/6
f 142/207/6 143/208/6 139/209/6 144/210/6
f 42/211/6 145/212/6 117/204/6 118/203/6
f 121/213/6 119/214/6 146/215/6 122/216/6
f 131/217/6 140/218/6 137/202/6 132/201/6
f 135/219/6 138/220/6 140/218/6 131/217/6
f 134/221/6 147/222/6 120/223/6 123/224/6
f 122/216/6 146/215/6 143/208/6 142/207/6
f 123/224/6 120/223/6 119/214/6 121/213/6
f 148/225/6 145/212/6 42/211/6 41/226/6
f 133/206/6 116/205/6 147/222/6 134/221/6
f 144/210/6 139/209/6 138/220/6 135/219/6
f 41/226/6 149/227/6 150/228/6 148/225/6
f 62/194/49 65/197/50 140/198/50 138/195/49
f 70/153/39 20/229/52 146/230/52 119/154/39
f 115/147/37 127/231/53 147/232/53 116/148/37
f 80/233/54 79/156/40 122/159/40 142/234/54
f 106/235/55 114/146/36 117/149/36 145/236/55
f 127/231/53 71/152/38 120/155/38 147/232/53
f 40/40/11 126/237/56 149/227/56 41/41/11
f 107/238/33 106/235/55 145/236/55 148/239/33
f 129/240/57 80/233/54 142/234/54 144/241/57
f 20/229/52 19/242/58 143/243/58 146/230/52
f 26/187/45 129/244/57 144/245/57 135/188/45
f 128/246/32 107/238/33 148/239/33 150/228/32
f 126/237/56 128/246/32 150/228/32 149/227/56
f 46/185/30 45/183/31 133/184/31 134/186/30
f 19/242/58 63/247/48 139/248/48 143/243/58
f 130/190/47 108/199/51 141/200/51 136/191/47
f 113/249/59 124/250/59 90/112/24 89/111/24
f 77/251/60 151/252/60 35/141/35 78/140/35
f 29/253/52 87/254/52 152/255/58 22/256/58
f 51/53/3 76/88/3 73/85/3 72/84/3
f 92/114/25 91/113/25 44/50/13 48/49/13
f 125/257/61 153/258/61 93/115/26 96/118/26
f 84/259/38 154/260/38 88/261/39 28/262/39
f 94/116/27 31/31/7 34/34/7 95/117/27
f 17/79/20 30/78/20 21/263/62 18/264/62
f 32/32/8 38/38/9 37/37/9 33/33/8
f 4/4/2 3/3/2 27/77/19 69/76/19
f 110/139/34 109/138/34 155/265/10 111/266/10
f 47/267/3 97/268/3 100/269/3 48/270/3
f 111/266/10 155/265/10 156/271/11 112/272/11
f 56/273/47 157/274/47 158/275/51 76/276/51
f 31/277/3 159/278/3 160/279/3 32/280/3
f 30/30/3 29/29/3 22/22/3 21/21/3
f 38/281/3 161/282/3 83/98/3 2/97/3
f 151/283/3 162/284/3 36/36/3 35/35/3
f 153/285/3 163/286/3 102/287/3 93/288/3
f 18/264/62 21/263/62 24/122/63 61/121/63
f 68/74/64 67/73/64 151/252/60 77/251/60
f 155/289/3 109/290/3 164/291/3 165/292/3
f 36/293/40 86/294/40 85/295/41 6/296/41
f 73/297/43 166/298/43 167/299/44 74/300/44
f 7/301/42 168/302/42 98/124/30 97/123/30
f 113/145/3 112/144/3 163/286/3 153/285/3
f 93/288/3 102/287/3 105/303/3 94/304/3
f 67/96/3 82/95/3 162/284/3 151/283/3
f 92/305/3 110/306/3 111/143/3 89/142/3
f 6/296/41 85/295/41 168/302/42 7/301/42
f 8/8/3 7/7/3 97/268/3 47/267/3
f 74/300/44 167/299/44 169/307/45 81/308/45
f 32/280/3 160/279/3 161/282/3 38/281/3
f 10/309/3 170/310/3 171/311/3 11/312/3
f 172/313/3 173/314/3 174/315/3 152/316/3
f 82/317/57 173/318/57 172/319/54 162/320/54
f 166/321/3 158/275/3 157/274/3 175/322/3
f 112/272/11 156/271/11 176/323/56 163/324/56
f 76/276/51 158/275/51 166/298/43 73/297/43
f 170/325/49 177/326/49 178/327/50 171/328/50
f 171/328/50 178/327/50 175/329/46 55/330/46
f 162/320/54 172/319/54 86/294/40 36/293/40
f 161/331/37 179/332/37 180/333/53 83/334/53
f 105/132/33 104/131/33 165/335/55 159/336/55
f 22/256/58 152/255/58 174/337/48 23/338/48
f 163/324/56 176/323/56 103/130/32 102/129/32
f 109/290/3 99/339/3 179/340/3 164/291/3
f 83/334/53 180/333/53 154/260/38 84/259/38
f 167/341/3 166/321/3 175/322/3 178/342/3
f 81/308/45 169/307/45 173/343/57 82/344/57
f 98/345/3 168/346/3 154/347/3 180/348/3
f 55/330/46 175/329/46 157/274/47 56/273/47
f 168/346/3 85/107/3 88/110/3 154/347/3
f 86/108/3 172/313/3 152/316/3 87/109/3
f 104/349/3 156/350/3 155/289/3 165/292/3
f 169/351/3 167/341/3 178/342/3 177/352/3
f 99/339/3 98/345/3 180/348/3 179/340/3
f 173/314/3 169/351/3 177/352/3 174/315/3
f 156/350/3 104/349/3 103/130/3 176/323/3
f 23/353/48 174/354/48 177/326/49 170/325/49
f 28/262/39 88/261/39 87/254/52 29/253/52
f 159/336/55 165/335/55 164/355/36 160/356/36
f 160/356/36 164/355/36 179/332/37 161/331/37
f 94/304/3 105/303/3 159/278/3 31/277/3
f 48/270/3 100/269/3 110/306/3 92/305/3
f 3/100/3 84/99/3 28/28/3 27/27/3
f 11/312/3 171/311/3 55/58/3 54/57/3
f 24/24/3 23/23/3 170/310/3 10/309/3
f 75/87/3 74/86/3 81/94/3 66/93/3
f 153/357/61 125/358/61 124/250/59 113/249/59
