# Blender v3.0.0 OBJ File: 'Bunny_Waist_1.blend'
# www.blender.org
mtllib Bunny_Waist_1.mtl
o Sphere
v -0.300158 0.123002 -0.063221
v -0.309253 0.124626 -0.079850
v -0.322648 0.123373 -0.080322
v -0.342459 0.123002 -0.076053
v -0.355822 0.123354 -0.084411
v -0.373170 0.123289 -0.079791
v -0.388849 0.124011 -0.070499
v -0.400117 0.122983 -0.055438
v -0.411227 0.122983 -0.041899
v -0.422407 0.123439 -0.035235
v -0.430679 0.123492 -0.015668
v -0.300158 0.098775 -0.058402
v -0.313322 0.091416 -0.064439
v -0.321510 0.090628 -0.077373
v -0.338277 0.089996 -0.078899
v -0.351930 0.086132 -0.080758
v -0.369888 0.092934 -0.073713
v -0.387110 0.095356 -0.065878
v -0.406460 0.093027 -0.062358
v -0.421153 0.104196 -0.046760
v -0.416993 0.111075 -0.029104
v -0.425998 0.117318 -0.013637
v -0.300158 0.078236 -0.044679
v -0.313322 0.073261 -0.049654
v -0.322117 0.064690 -0.057929
v -0.341237 0.052661 -0.070680
v -0.360935 0.054033 -0.069308
v -0.371166 0.066740 -0.055643
v -0.389941 0.069752 -0.047049
v -0.414102 0.070623 -0.044268
v -0.425880 0.083129 -0.039931
v -0.416993 0.100549 -0.022070
v -0.431546 0.108376 -0.013278
v -0.300158 0.064513 -0.024140
v -0.313322 0.058012 -0.026833
v -0.322117 0.047212 -0.036467
v -0.342331 0.052374 -0.029277
v -0.355823 0.046262 -0.032319
v -0.371171 0.049572 -0.029854
v -0.387854 0.047219 -0.022292
v -0.409877 0.064240 -0.024756
v -0.405463 0.083769 -0.018206
v -0.429532 0.091417 -0.013499
v -0.426100 0.106369 -0.006467
v -0.300158 0.059694 0.000087
v -0.306211 0.045158 0.000873
v -0.321539 0.024375 0.000716
v -0.338783 0.038223 0.000120
v -0.355763 0.046051 -0.002063
v -0.371597 0.052648 0.000089
v -0.388177 0.050879 0.004517
v -0.401728 0.058989 0.002682
v -0.405463 0.079991 0.000788
v -0.418011 0.092795 0.001654
v -0.434543 0.101759 0.001332
v -0.300158 0.064513 0.024314
v -0.313322 0.058012 0.027007
v -0.328074 0.041901 0.039710
v -0.342459 0.052658 0.029225
v -0.357324 0.050873 0.025430
v -0.371106 0.051121 0.030850
v -0.386579 0.054355 0.036161
v -0.402865 0.058478 0.036310
v -0.421153 0.076934 0.019057
v -0.416993 0.093515 0.013290
v -0.430792 0.104970 0.008429
v -0.300158 0.078236 0.044853
v -0.305204 0.053756 0.055313
v -0.328074 0.060592 0.062661
v -0.339894 0.068653 0.055070
v -0.355055 0.062909 0.061196
v -0.371166 0.066740 0.056649
v -0.386579 0.070457 0.060260
v -0.398613 0.081098 0.043267
v -0.405768 0.093091 0.029998
v -0.429532 0.098938 0.024315
v -0.425998 0.112499 0.010590
v -0.300158 0.098775 0.058576
v -0.301398 0.080682 0.077245
v -0.329945 0.078470 0.084896
v -0.342459 0.093865 0.070431
v -0.359001 0.092664 0.077999
v -0.374484 0.094699 0.074409
v -0.384761 0.098775 0.058576
v -0.412048 0.095126 0.068377
v -0.410663 0.105045 0.043573
v -0.429532 0.110195 0.031836
v -0.430792 0.115474 0.018933
v -0.300158 0.123002 0.063395
v -0.296224 0.118084 0.085367
v -0.327605 0.123002 0.074764
v -0.338277 0.122886 0.086447
v -0.357314 0.123002 0.074764
v -0.371106 0.123492 0.079207
v -0.397643 0.123335 0.085372
v -0.396299 0.123002 0.053926
v -0.409737 0.122886 0.048251
v -0.412804 0.123002 0.029225
v -0.436715 0.123439 0.020062
v -0.432454 0.122287 0.000633
v -0.300158 0.147229 0.058576
v -0.301398 0.160294 0.077639
v -0.329945 0.158331 0.084896
v -0.338277 0.155775 0.079905
v -0.352304 0.155518 0.079285
v -0.371646 0.149967 0.065185
v -0.388655 0.149756 0.065374
v -0.412633 0.151379 0.066677
v -0.409157 0.141519 0.044393
v -0.434465 0.140208 0.042887
v -0.426100 0.129141 0.016305
v -0.300158 0.167768 0.044853
v -0.304366 0.183956 0.055685
v -0.329176 0.180701 0.052569
v -0.346605 0.181914 0.053783
v -0.363452 0.186356 0.062661
v -0.371597 0.172743 0.049828
v -0.384761 0.167768 0.044853
v -0.396299 0.161072 0.038157
v -0.405768 0.152914 0.029998
v -0.434956 0.150877 0.027897
v -0.430792 0.136625 0.014726
v -0.300158 0.181491 0.024314
v -0.312417 0.194998 0.022197
v -0.327378 0.192527 0.028426
v -0.342488 0.198529 0.031282
v -0.358692 0.195840 0.032108
v -0.371347 0.195227 0.030506
v -0.387158 0.196958 0.031843
v -0.396299 0.172743 0.020690
v -0.410314 0.163923 0.017361
v -0.421181 0.153956 0.014178
v -0.436715 0.140689 0.008536
v -0.300158 0.186310 0.000087
v -0.312417 0.201281 -0.009389
v -0.322185 0.206509 0.000835
v -0.340671 0.200208 0.001802
v -0.357487 0.200638 0.003086
v -0.371560 0.194841 0.000511
v -0.386025 0.194346 0.000503
v -0.398613 0.183447 0.000873
v -0.405827 0.165330 0.000084
v -0.428613 0.158944 -0.000250
v -0.430679 0.140033 0.000873
v -0.300158 0.181491 -0.024140
v -0.306211 0.195863 -0.029104
v -0.327605 0.191995 -0.028491
v -0.342459 0.193347 -0.029051
v -0.357314 0.191995 -0.028491
v -0.374771 0.194734 -0.029732
v -0.391242 0.191616 -0.027636
v -0.398613 0.178883 -0.022070
v -0.421153 0.170013 -0.019498
v -0.416993 0.153469 -0.011544
v -0.431687 0.139816 -0.006990
v -0.300158 0.167768 -0.044679
v -0.313322 0.172743 -0.049654
v -0.322031 0.180738 -0.053639
v -0.338549 0.179866 -0.053325
v -0.354525 0.184076 -0.054190
v -0.374541 0.180302 -0.053075
v -0.391087 0.176988 -0.049443
v -0.398613 0.165886 -0.041521
v -0.418928 0.164636 -0.041877
v -0.421591 0.153159 -0.028851
v -0.430792 0.136625 -0.012722
v -0.300158 0.147229 -0.058402
v -0.308445 0.163141 -0.079716
v -0.321510 0.155143 -0.077373
v -0.337712 0.155920 -0.073236
v -0.354773 0.154322 -0.071260
v -0.371628 0.153268 -0.071396
v -0.388034 0.154655 -0.067926
v -0.396299 0.143606 -0.049654
v -0.421153 0.142751 -0.046760
v -0.429532 0.136752 -0.032277
v -0.438157 0.130976 -0.018172
vt 0.456348 0.562369
vt 0.403649 0.584213
vt 0.397919 0.562797
vt 0.151054 0.637184
vt 0.114967 0.632833
vt 0.118142 0.558643
vt 0.148329 0.555256
vt 0.193964 0.636345
vt 0.187503 0.566730
vt 0.236347 0.631796
vt 0.227323 0.566960
vt 0.279018 0.618715
vt 0.263639 0.555419
vt 0.319354 0.603351
vt 0.304170 0.560739
vt 0.036570 0.618257
vt 0.000090 0.592300
vt 0.017650 0.537085
vt 0.055220 0.535040
vt 0.351161 0.602120
vt 0.345701 0.564340
vt 0.068513 0.623916
vt 0.083591 0.552333
vt 0.351569 0.533003
vt 0.397555 0.535704
vt 0.094546 0.483189
vt 0.137963 0.495097
vt 0.164083 0.499940
vt 0.198578 0.504235
vt 0.237375 0.503478
vt 0.278385 0.512318
vt 0.300329 0.525861
vt 0.026148 0.478319
vt 0.061254 0.481038
vt 0.249648 0.438925
vt 0.292013 0.475603
vt 0.336233 0.486676
vt 0.026700 0.419234
vt 0.061995 0.416579
vt 0.378208 0.509019
vt 0.099767 0.423229
vt 0.412229 0.516779
vt 0.148174 0.422805
vt 0.178549 0.436129
vt 0.211684 0.441794
vt 0.109657 0.322452
vt 0.157342 0.347217
vt 0.438309 0.495947
vt 0.196894 0.369784
vt 0.237682 0.377551
vt 0.280644 0.387455
vt 0.313646 0.411415
vt 0.355943 0.445669
vt 0.017365 0.361046
vt 0.050258 0.343096
vt 0.393986 0.472390
vt 0.431530 0.337105
vt 0.439625 0.291576
vt 0.522496 0.303794
vt 0.510608 0.339469
vt 0.426910 0.398766
vt 0.482930 0.392394
vt 0.514385 0.030664
vt 0.545706 0.000090
vt 0.604621 0.036237
vt 0.585699 0.072556
vt 0.442882 0.443955
vt 0.476797 0.437914
vt 0.465866 0.084108
vt 0.570408 0.139252
vt 0.463301 0.496151
vt 0.458453 0.145715
vt 0.541092 0.186011
vt 0.441678 0.195423
vt 0.515399 0.221243
vt 0.437166 0.243303
vt 0.518544 0.261660
vt 0.479440 0.516655
vt 0.619943 0.211068
vt 0.606103 0.248441
vt 0.590109 0.286205
vt 0.587928 0.323563
vt 0.560080 0.373906
vt 0.531703 0.419260
vt 0.668033 0.063638
vt 0.636107 0.119379
vt 0.505577 0.476996
vt 0.635405 0.171669
vt 0.602394 0.410716
vt 0.574875 0.450551
vt 0.734953 0.077858
vt 0.706294 0.134970
vt 0.531263 0.496083
vt 0.687439 0.190792
vt 0.505152 0.521043
vt 0.694353 0.243478
vt 0.675404 0.289294
vt 0.661645 0.326322
vt 0.638016 0.374505
vt 0.783777 0.270940
vt 0.749269 0.318459
vt 0.734462 0.355081
vt 0.732478 0.428630
vt 0.648208 0.451591
vt 0.620867 0.479601
vt 0.802317 0.077299
vt 0.801369 0.139626
vt 0.582631 0.517358
vt 0.785608 0.230518
vt 0.518287 0.543964
vt 0.617293 0.616759
vt 0.644107 0.633360
vt 0.614972 0.680882
vt 0.587142 0.655817
vt 0.802317 0.889191
vt 0.782369 0.934776
vt 0.728593 0.934640
vt 0.715637 0.890444
vt 0.576849 0.591453
vt 0.548797 0.631818
vt 0.774168 0.819327
vt 0.705143 0.841077
vt 0.516560 0.581465
vt 0.763715 0.789234
vt 0.699878 0.822669
vt 0.738386 0.746669
vt 0.686723 0.797076
vt 0.728167 0.716233
vt 0.663146 0.744067
vt 0.712775 0.657475
vt 0.646570 0.706903
vt 0.622463 0.803923
vt 0.606745 0.772669
vt 0.591223 0.744083
vt 0.572028 0.715077
vt 0.552561 0.686559
vt 0.674647 0.944850
vt 0.659639 0.908006
vt 0.532606 0.638779
vt 0.638679 0.865757
vt 0.509003 0.606553
vt 0.626949 0.835637
vt 0.514755 0.698749
vt 0.503643 0.662177
vt 0.591037 0.928298
vt 0.589957 0.892074
vt 0.487702 0.614451
vt 0.578439 0.860580
vt 0.570225 0.828276
vt 0.556979 0.806384
vt 0.544453 0.780829
vt 0.527515 0.735145
vt 0.620547 0.957568
vt 0.498364 0.823705
vt 0.490157 0.795168
vt 0.482165 0.758992
vt 0.477506 0.715225
vt 0.572071 0.985064
vt 0.528872 0.963971
vt 0.460708 0.663554
vt 0.533070 0.930649
vt 0.468009 0.620862
vt 0.523703 0.888586
vt 0.512710 0.852691
vt 0.346461 0.956716
vt 0.310206 0.956752
vt 0.271436 0.933792
vt 0.295078 0.897481
vt 0.480303 0.670053
vt 0.436650 0.679120
vt 0.447513 0.625858
vt 0.373668 0.917591
vt 0.315385 0.870020
vt 0.400263 0.885484
vt 0.335600 0.842467
vt 0.412439 0.849251
vt 0.354957 0.809595
vt 0.429283 0.816141
vt 0.373444 0.780702
vt 0.444305 0.777282
vt 0.392209 0.751366
vt 0.455767 0.727850
vt 0.406909 0.703895
vt 0.285309 0.999910
vt 0.246486 0.958005
vt 0.307478 0.779426
vt 0.329913 0.751257
vt 0.346843 0.722055
vt 0.371437 0.692889
vt 0.198236 0.920366
vt 0.219159 0.887464
vt 0.395704 0.670345
vt 0.238743 0.867144
vt 0.431075 0.622561
vt 0.260419 0.838876
vt 0.285209 0.814148
vt 0.383658 0.631029
vt 0.412242 0.607214
vt 0.179687 0.824610
vt 0.205131 0.798409
vt 0.227675 0.767375
vt 0.251698 0.738312
vt 0.281527 0.718588
vt 0.310991 0.681641
vt 0.357102 0.656424
vt 0.138165 0.892070
vt 0.170262 0.849229
vt 0.244124 0.660677
vt 0.284163 0.637530
vt 0.323935 0.618947
vt 0.082623 0.855538
vt 0.106935 0.810485
vt 0.355190 0.606846
vt 0.121644 0.782449
vt 0.151662 0.742629
vt 0.172375 0.710872
vt 0.206069 0.683135
vn -0.9955 -0.0940 -0.0035
vn -0.7485 -0.6119 -0.2556
vn -0.8612 -0.2225 -0.4569
vn -0.0005 0.1021 -0.9948
vn 0.0788 0.0941 -0.9924
vn 0.2128 -0.1560 -0.9645
vn -0.1550 -0.1930 -0.9689
vn -0.3340 0.0370 -0.9418
vn -0.4779 -0.2716 -0.8353
vn -0.5827 0.0569 -0.8107
vn -0.4144 -0.3063 -0.8570
vn -0.6405 0.1508 -0.7530
vn -0.4834 -0.1880 -0.8549
vn -0.6898 0.0472 -0.7224
vn -0.8864 0.1715 -0.4300
vn 0.5667 -0.1079 -0.8168
vn 0.8300 -0.1377 -0.5405
vn 0.6453 -0.3757 -0.6652
vn 0.6666 -0.3728 -0.6455
vn -0.8037 -0.3373 -0.4901
vn -0.9614 -0.0546 -0.2695
vn 0.0436 -0.0306 -0.9986
vn 0.4308 -0.2638 -0.8630
vn -0.9703 -0.1043 -0.2179
vn -0.9217 -0.0873 -0.3779
vn 0.6111 -0.5985 -0.5181
vn 0.2228 -0.7364 -0.6388
vn -0.3176 -0.7058 -0.6332
vn -0.5445 -0.5852 -0.6008
vn -0.2769 -0.6895 -0.6692
vn -0.6552 -0.6238 -0.4261
vn -0.9626 -0.2368 -0.1316
vn 0.4999 -0.6283 -0.5960
vn 0.6844 -0.5259 -0.5050
vn -0.2410 -0.9554 -0.1706
vn -0.7888 -0.6146 0.0104
vn -0.8611 -0.4633 0.2095
vn 0.5981 -0.6904 -0.4070
vn 0.7197 -0.5798 -0.3819
vn -0.8295 -0.5520 -0.0851
vn 0.4185 -0.8115 -0.4078
vn -0.9310 -0.3078 -0.1962
vn -0.0628 -0.9605 -0.2710
vn -0.1968 -0.9698 -0.1440
vn -0.3131 -0.9227 -0.2250
vn 0.1885 -0.9816 -0.0291
vn -0.4225 -0.9057 -0.0335
vn -0.9283 -0.3690 0.0468
vn -0.1913 -0.9809 0.0345
vn -0.0841 -0.9942 0.0665
vn -0.2288 -0.9714 0.0631
vn -0.7322 -0.6809 -0.0134
vn -0.8762 -0.4736 -0.0894
vn 0.7589 -0.6512 -0.0063
vn 0.8109 -0.5849 0.0162
vn -0.7203 -0.6936 0.0060
vn -0.2816 -0.8861 0.3682
vn -0.7247 -0.5800 0.3719
vn -0.9207 -0.3765 0.1028
vn 0.8052 -0.5760 0.1405
vn 0.7321 -0.6387 0.2365
vn -0.8539 -0.5180 0.0498
vn -0.1249 -0.8983 0.4211
vn -0.8794 -0.3425 0.3306
vn -0.3287 -0.8674 0.3735
vn -0.1089 -0.9579 0.2658
vn -0.0963 -0.9617 0.2564
vn -0.9508 -0.2845 0.1228
vn -0.2933 -0.7191 0.6299
vn 0.0890 -0.7391 0.6676
vn -0.2187 -0.7101 0.6692
vn -0.3779 -0.5236 0.7635
vn -0.7396 -0.3616 0.5675
vn -0.8012 -0.3796 0.4626
vn 0.9598 -0.2804 0.0123
vn 0.6410 -0.7119 0.2868
vn -0.8433 -0.4769 0.2478
vn -0.3115 -0.7642 0.5647
vn -0.7779 -0.2484 0.5771
vn -0.8950 -0.1256 0.4281
vn 0.9956 -0.0830 -0.0430
vn 0.6720 -0.3124 0.6713
vn -0.8270 -0.0939 0.5542
vn -0.2882 -0.3836 0.8774
vn -0.9722 -0.2011 0.1197
vn -0.1248 -0.3143 0.9411
vn -0.0081 -0.3150 0.9490
vn -0.2588 -0.3469 0.9015
vn -0.4012 -0.3815 0.8327
vn -0.0714 -0.0573 0.9958
vn -0.1839 0.0013 0.9829
vn -0.1069 0.0530 0.9928
vn -0.4173 -0.0276 0.9083
vn -0.8119 -0.0328 0.5829
vn -0.8069 -0.0149 0.5904
vn 0.9961 0.0080 -0.0881
vn 0.7108 -0.0072 0.7033
vn -0.7123 -0.0696 0.6984
vn 0.0113 -0.0280 0.9995
vn -0.9618 0.0352 0.2715
vn -0.8173 0.3633 0.4472
vn -0.8284 0.2171 0.5164
vn 0.9960 0.0876 -0.0150
vn 0.6218 0.3786 0.6856
vn -0.7440 0.0593 0.6655
vn 0.0255 0.3977 0.9171
vn -0.9606 -0.1327 0.2443
vn 0.0259 0.4022 0.9152
vn -0.2580 0.3303 0.9079
vn -0.3268 0.4262 0.8435
vn -0.2701 0.6119 0.7433
vn -0.3217 0.6833 0.6554
vn -0.4995 0.5320 0.6837
vn -0.4039 0.6321 0.6613
vn -0.6967 0.6258 0.3507
vn -0.5575 0.7450 0.3663
vn 0.9579 0.2775 0.0734
vn 0.5387 0.7408 0.4013
vn -0.8093 0.5307 0.2517
vn 0.0012 0.8292 0.5589
vn -0.9739 -0.1777 0.1411
vn 0.1563 0.7899 0.5929
vn -0.5709 0.7550 0.3226
vn -0.6008 0.7756 0.1935
vn 0.4834 0.8344 0.2646
vn 0.0835 0.9196 0.3837
vn -0.9823 0.1873 -0.0058
vn 0.0963 0.9345 0.3426
vn -0.2007 0.9393 0.2783
vn -0.2904 0.8968 0.3337
vn -0.4841 0.7650 0.4247
vn -0.8101 0.4942 0.3154
vn 0.8278 0.5514 0.1030
vn -0.0956 0.9944 -0.0444
vn -0.4544 0.8908 0.0009
vn -0.7797 0.6166 0.1091
vn -0.6724 0.7181 0.1796
vn 0.7747 0.6266 0.0844
vn 0.4029 0.9087 -0.1090
vn -0.7896 0.6119 -0.0461
vn 0.0870 0.9945 0.0577
vn -0.9343 0.2629 -0.2407
vn -0.0573 0.9972 -0.0480
vn -0.1105 0.9930 -0.0403
vn 0.5036 0.7656 -0.4003
vn -0.0149 0.9004 -0.4349
vn -0.8824 0.4639 -0.0787
vn -0.9415 0.2940 -0.1643
vn -0.0172 0.9380 -0.3461
vn -0.0164 0.9553 -0.2953
vn -0.1229 0.9491 -0.2898
vn -0.5466 0.8018 -0.2415
vn -0.6992 0.7050 -0.1188
vn -0.7929 0.6085 -0.0327
vn 0.8147 0.5057 -0.2838
vn -0.1468 0.7234 -0.6746
vn -0.6138 0.5531 -0.5632
vn -0.6385 0.4845 -0.5979
vn -0.5907 0.5430 -0.5969
vn 0.7788 0.4848 -0.3980
vn 0.4811 0.7062 -0.5195
vn -0.9557 0.2908 -0.0458
vn 0.0357 0.8003 -0.5985
vn -0.8701 0.4874 0.0730
vn 0.0028 0.7762 -0.6305
vn 0.0017 0.7753 -0.6315
vn -0.9183 0.0171 -0.3955
vn -0.9944 -0.0008 -0.1051
vn -0.1075 0.3827 -0.9176
vn -0.0447 0.4174 -0.9076
vn -0.0008 0.4196 -0.9077
vn -0.1995 0.3984 -0.8952
vn -0.5898 0.3190 -0.7418
vn -0.6497 0.1528 -0.7447
vn -0.6363 0.0829 -0.7669
vn 0.9024 0.2412 -0.3569
vn 0.4884 0.5181 -0.7021
usemtl None
s 1
f 100/1/1 11/2/2 22/3/3
f 5/4/4 4/5/5 15/6/6 16/7/7
f 6/8/8 5/4/4 16/7/7 17/9/9
f 7/10/10 6/8/8 17/9/9 18/11/11
f 8/12/12 7/10/10 18/11/11 19/13/13
f 9/14/14 8/12/12 19/13/13 20/15/15
f 2/16/16 1/17/17 12/18/18 13/19/19
f 10/20/20 9/14/14 20/15/15 21/21/21
f 3/22/22 2/16/16 13/19/19 14/23/23
f 11/2/2 10/20/20 21/21/21 22/3/3
f 4/5/5 3/22/22 14/23/23 15/6/6
f 22/3/3 21/21/21 32/24/24 33/25/25
f 15/6/6 14/23/23 25/26/26 26/27/27
f 100/1/1 22/3/3 33/25/25
f 16/7/7 15/6/6 26/27/27 27/28/28
f 17/9/9 16/7/7 27/28/28 28/29/29
f 18/11/11 17/9/9 28/29/29 29/30/30
f 19/13/13 18/11/11 29/30/30 30/31/31
f 20/15/15 19/13/13 30/31/31 31/32/32
f 13/19/19 12/18/18 23/33/33 24/34/34
f 21/21/21 20/15/15 31/32/32 32/24/24
f 14/23/23 13/19/19 24/34/34 25/26/26
f 30/31/31 29/30/30 40/35/35 41/36/36
f 31/32/32 30/31/31 41/36/36 42/37/37
f 24/34/34 23/33/33 34/38/38 35/39/39
f 32/24/24 31/32/32 42/37/37 43/40/40
f 25/26/26 24/34/34 35/39/39 36/41/41
f 33/25/25 32/24/24 43/40/40 44/42/42
f 26/27/27 25/26/26 36/41/41 37/43/43
f 100/1/1 33/25/25 44/42/42
f 27/28/28 26/27/27 37/43/43 38/44/44
f 28/29/29 27/28/28 38/44/44 39/45/45
f 29/30/30 28/29/29 39/45/45 40/35/35
f 37/43/43 36/41/41 47/46/46 48/47/47
f 100/1/1 44/42/42 55/48/48
f 38/44/44 37/43/43 48/47/47 49/49/49
f 39/45/45 38/44/44 49/49/49 50/50/50
f 40/35/35 39/45/45 50/50/50 51/51/51
f 41/36/36 40/35/35 51/51/51 52/52/52
f 42/37/37 41/36/36 52/52/52 53/53/53
f 35/39/39 34/38/38 45/54/54 46/55/55
f 43/40/40 42/37/37 53/53/53 54/56/56
f 36/41/41 35/39/39 46/55/55 47/46/46
f 44/42/42 43/40/40 54/56/56 55/48/48
f 52/57/52 51/58/51 62/59/57 63/60/58
f 53/61/53 52/57/52 63/60/58 64/62/59
f 46/63/55 45/64/54 56/65/60 57/66/61
f 54/67/56 53/61/53 64/62/59 65/68/62
f 47/69/46 46/63/55 57/66/61 58/70/63
f 55/48/48 54/67/56 65/68/62 66/71/64
f 48/72/47 47/69/46 58/70/63 59/73/65
f 100/1/1 55/48/48 66/71/64
f 49/74/49 48/72/47 59/73/65 60/75/66
f 50/76/50 49/74/49 60/75/66 61/77/67
f 51/58/51 50/76/50 61/77/67 62/59/57
f 100/1/1 66/71/64 77/78/68
f 60/75/66 59/73/65 70/79/69 71/80/70
f 61/77/67 60/75/66 71/80/70 72/81/71
f 62/59/57 61/77/67 72/81/71 73/82/72
f 63/60/58 62/59/57 73/82/72 74/83/73
f 64/62/59 63/60/58 74/83/73 75/84/74
f 57/66/61 56/65/60 67/85/75 68/86/76
f 65/68/62 64/62/59 75/84/74 76/87/77
f 58/70/63 57/66/61 68/86/76 69/88/78
f 66/71/64 65/68/62 76/87/77 77/78/68
f 59/73/65 58/70/63 69/88/78 70/79/69
f 75/84/74 74/83/73 85/89/79 86/90/80
f 68/86/76 67/85/75 78/91/81 79/92/82
f 76/87/77 75/84/74 86/90/80 87/93/83
f 69/88/78 68/86/76 79/92/82 80/94/84
f 77/78/68 76/87/77 87/93/83 88/95/85
f 70/79/69 69/88/78 80/94/84 81/96/86
f 100/1/1 77/78/68 88/95/85
f 71/80/70 70/79/69 81/96/86 82/97/87
f 72/81/71 71/80/70 82/97/87 83/98/88
f 73/82/72 72/81/71 83/98/88 84/99/89
f 74/83/73 73/82/72 84/99/89 85/89/79
f 82/97/87 81/96/86 92/100/90 93/101/91
f 83/98/88 82/97/87 93/101/91 94/102/92
f 84/99/89 83/98/88 94/102/92 95/103/93
f 85/89/79 84/99/89 95/103/93 96/104/94
f 86/90/80 85/89/79 96/104/94 97/105/95
f 79/92/82 78/91/81 89/106/96 90/107/97
f 87/93/83 86/90/80 97/105/95 98/108/98
f 80/94/84 79/92/82 90/107/97 91/109/99
f 88/95/85 87/93/83 98/108/98 99/110/100
f 81/96/86 80/94/84 91/109/99 92/100/90
f 100/1/1 88/95/85 99/110/100
f 97/111/95 96/112/94 108/113/101 109/114/102
f 90/115/97 89/116/96 101/117/103 102/118/104
f 98/119/98 97/111/95 109/114/102 110/120/105
f 91/121/99 90/115/97 102/118/104 103/122/106
f 99/110/100 98/119/98 110/120/105 111/123/107
f 92/124/90 91/121/99 103/122/106 104/125/108
f 100/1/1 99/110/100 111/123/107
f 93/126/91 92/124/90 104/125/108 105/127/109
f 94/128/92 93/126/91 105/127/109 106/129/110
f 95/130/93 94/128/92 106/129/110 107/131/111
f 96/112/94 95/130/93 107/131/111 108/113/101
f 106/129/110 105/127/109 116/132/112 117/133/113
f 107/131/111 106/129/110 117/133/113 118/134/114
f 108/113/101 107/131/111 118/134/114 119/135/115
f 109/114/102 108/113/101 119/135/115 120/136/116
f 102/118/104 101/117/103 112/137/117 113/138/118
f 110/120/105 109/114/102 120/136/116 121/139/119
f 103/122/106 102/118/104 113/138/118 114/140/120
f 111/123/107 110/120/105 121/139/119 122/141/121
f 104/125/108 103/122/106 114/140/120 115/142/122
f 100/1/1 111/123/107 122/141/121
f 105/127/109 104/125/108 115/142/122 116/132/112
f 121/139/119 120/136/116 131/143/123 132/144/124
f 114/140/120 113/138/118 124/145/125 125/146/126
f 122/141/121 121/139/119 132/144/124 133/147/127
f 115/142/122 114/140/120 125/146/126 126/148/128
f 100/1/1 122/141/121 133/147/127
f 116/132/112 115/142/122 126/148/128 127/149/129
f 117/133/113 116/132/112 127/149/129 128/150/130
f 118/134/114 117/133/113 128/150/130 129/151/131
f 119/135/115 118/134/114 129/151/131 130/152/132
f 120/136/116 119/135/115 130/152/132 131/143/123
f 113/138/118 112/137/117 123/153/133 124/145/125
f 129/151/131 128/150/130 139/154/134 140/155/135
f 130/152/132 129/151/131 140/155/135 141/156/136
f 131/143/123 130/152/132 141/156/136 142/157/137
f 124/145/125 123/153/133 134/158/138 135/159/139
f 132/144/124 131/143/123 142/157/137 143/160/140
f 125/146/126 124/145/125 135/159/139 136/161/141
f 133/147/127 132/144/124 143/160/140 144/162/142
f 126/148/128 125/146/126 136/161/141 137/163/143
f 100/1/1 133/147/127 144/162/142
f 127/149/129 126/148/128 137/163/143 138/164/144
f 128/150/130 127/149/129 138/164/144 139/154/134
f 136/165/141 135/166/139 146/167/145 147/168/146
f 144/162/142 143/169/140 154/170/147 155/171/148
f 137/172/143 136/165/141 147/168/146 148/173/149
f 100/1/1 144/162/142 155/171/148
f 138/174/144 137/172/143 148/173/149 149/175/150
f 139/176/134 138/174/144 149/175/150 150/177/151
f 140/178/135 139/176/134 150/177/151 151/179/152
f 141/180/136 140/178/135 151/179/152 152/181/153
f 142/182/137 141/180/136 152/181/153 153/183/154
f 135/166/139 134/184/138 145/185/155 146/167/145
f 143/169/140 142/182/137 153/183/154 154/170/147
f 151/179/152 150/177/151 161/186/156 162/187/157
f 152/181/153 151/179/152 162/187/157 163/188/158
f 153/183/154 152/181/153 163/188/158 164/189/159
f 146/167/145 145/185/155 156/190/160 157/191/161
f 154/170/147 153/183/154 164/189/159 165/192/162
f 147/168/146 146/167/145 157/191/161 158/193/163
f 155/171/148 154/170/147 165/192/162 166/194/164
f 148/173/149 147/168/146 158/193/163 159/195/165
f 100/1/1 155/171/148 166/194/164
f 149/175/150 148/173/149 159/195/165 160/196/166
f 150/177/151 149/175/150 160/196/166 161/186/156
f 166/194/164 165/192/162 176/197/167 177/198/168
f 159/195/165 158/193/163 169/199/169 170/200/170
f 100/1/1 166/194/164 177/198/168
f 160/196/166 159/195/165 170/200/170 171/201/171
f 161/186/156 160/196/166 171/201/171 172/202/172
f 162/187/157 161/186/156 172/202/172 173/203/173
f 163/188/158 162/187/157 173/203/173 174/204/174
f 164/189/159 163/188/158 174/204/174 175/205/175
f 157/191/161 156/190/160 167/206/176 168/207/177
f 165/192/162 164/189/159 175/205/175 176/197/167
f 158/193/163 157/191/161 168/207/177 169/199/169
f 174/204/174 173/203/173 7/208/10 8/209/12
f 175/205/175 174/204/174 8/209/12 9/210/14
f 168/207/177 167/206/176 1/211/17 2/212/16
f 176/197/167 175/205/175 9/210/14 10/213/20
f 169/199/169 168/207/177 2/212/16 3/214/22
f 177/198/168 176/197/167 10/213/20 11/2/2
f 170/200/170 169/199/169 3/214/22 4/215/5
f 100/1/1 177/198/168 11/2/2
f 171/201/171 170/200/170 4/215/5 5/216/4
f 172/202/172 171/201/171 5/216/4 6/217/8
f 173/203/173 172/202/172 6/217/8 7/208/10
