# Blender v3.0.0 OBJ File: ''
# www.blender.org
mtllib 2.mtl
o Waist_1_Cube.036
v 0.146647 0.057233 0.175921
v 0.146647 0.138690 0.175921
v 0.124878 0.057233 0.175921
v 0.124878 0.138690 0.175921
v 0.146647 0.138690 0.154152
v 0.124878 0.138690 0.154152
v 0.124878 0.074357 0.154152
v 0.146647 0.074357 0.154152
v 0.146647 0.057233 0.100861
v 0.124878 0.057233 0.100861
v 0.146647 0.074357 0.100861
v 0.124878 0.074357 0.100861
v 0.146647 0.057233 0.082800
v 0.146647 0.138690 0.082800
v 0.124878 0.057233 0.082800
v 0.124878 0.138690 0.082800
v 0.124878 0.121566 0.061032
v 0.124878 0.074357 0.061032
v 0.146647 0.121566 0.061032
v 0.146647 0.074357 0.061032
v 0.146647 0.057233 0.007740
v 0.146647 0.138690 0.007740
v 0.124878 0.057233 0.007740
v 0.124878 0.138690 0.007740
v 0.124878 0.121566 0.029508
v 0.124878 0.074357 0.029508
v 0.146647 0.121566 0.029508
v 0.146647 0.074357 0.029508
v 0.146647 0.057233 -0.010320
v 0.146647 0.138690 -0.010320
v 0.124878 0.057233 -0.010320
v 0.124878 0.138690 -0.010320
v 0.146647 0.138690 -0.032088
v 0.124878 0.138690 -0.032088
v 0.124878 0.074357 -0.032088
v 0.146647 0.074357 -0.032088
v 0.146647 0.057233 -0.085380
v 0.146647 0.138690 -0.085380
v 0.124878 0.057233 -0.085380
v 0.124878 0.138690 -0.085380
v 0.146647 0.138690 -0.063612
v 0.124878 0.138690 -0.063612
v 0.124878 0.074357 -0.063612
v 0.146647 0.074357 -0.063612
v 0.146647 0.057233 -0.103441
v 0.146647 0.138690 -0.103441
v 0.124878 0.057233 -0.103441
v 0.124878 0.138690 -0.103441
v 0.124878 0.121566 -0.125209
v 0.124878 0.074357 -0.125209
v 0.146647 0.121566 -0.125209
v 0.146647 0.074357 -0.125209
v 0.124878 0.057233 -0.178501
v 0.146647 0.138690 -0.156732
v 0.124878 0.138690 -0.156732
v 0.146647 0.121566 -0.178501
v 0.124878 0.121566 -0.178501
v 0.124878 0.121566 -0.156732
v 0.124878 0.074357 -0.156732
v 0.146647 0.121566 -0.156732
v 0.146647 0.074357 -0.156732
v 0.146647 0.057233 -0.178501
v 0.121596 0.075509 0.253739
v 0.121596 0.119754 0.253739
v -0.121596 0.075509 0.253739
v -0.121596 0.119754 0.253739
v 0.121596 0.075509 -0.253739
v 0.121596 0.119754 -0.253739
v -0.121596 0.075509 -0.253739
v -0.121596 0.119754 -0.253739
v -0.137708 0.074837 0.268433
v 0.137709 0.074837 0.268433
v 0.137709 0.120427 0.268433
v -0.137708 0.120427 0.268433
v -0.137709 0.074837 -0.268433
v -0.137709 0.120427 -0.268433
v 0.137709 0.074837 -0.268433
v 0.137709 0.120427 -0.268433
v 0.047037 0.022959 0.300731
v 0.047037 0.172098 0.300731
v -0.040917 0.022959 0.300731
v -0.040917 0.172098 0.300731
v 0.047037 0.022959 0.258612
v 0.047037 0.172098 0.258612
v -0.040917 0.022959 0.258612
v -0.040917 0.172098 0.258612
v -0.025740 0.040383 0.300731
v 0.031861 0.040383 0.300731
v 0.031861 0.105125 0.300731
v -0.025740 0.105125 0.300731
v -0.025740 0.040383 0.327142
v 0.031861 0.040383 0.327142
v 0.031861 0.105125 0.327142
v -0.025740 0.105125 0.327142
v 0.047037 0.022959 -0.300732
v 0.047037 0.172098 -0.300732
v -0.040917 0.022959 -0.300732
v -0.040917 0.172098 -0.300732
v 0.047037 0.022959 -0.258612
v 0.047037 0.172098 -0.258612
v -0.040917 0.022959 -0.258612
v -0.040917 0.172098 -0.258612
v -0.025740 0.040383 -0.300732
v 0.031861 0.040383 -0.300732
v 0.031861 0.105125 -0.300732
v -0.025740 0.105125 -0.300732
v -0.025740 0.040383 -0.327142
v 0.031861 0.040383 -0.327142
v 0.031861 0.105125 -0.327142
v -0.025740 0.105125 -0.327142
v 0.027906 0.099632 0.320035
v 0.015013 0.099632 0.320035
v 0.015013 0.099632 0.307142
v 0.027906 0.099632 0.307142
v 0.027906 0.271407 0.320035
v 0.015013 0.271407 0.320035
v 0.015013 0.271407 0.307142
v 0.027906 0.271407 0.307142
v 0.024088 0.271407 0.316217
v 0.018831 0.271407 0.316217
v 0.018831 0.271407 0.310960
v 0.024088 0.271407 0.310960
v 0.024088 0.447546 0.316217
v 0.018831 0.447546 0.316217
v 0.018831 0.447546 0.310960
v 0.024088 0.447546 0.310960
v 0.025908 0.447546 0.318037
v 0.017011 0.447546 0.318037
v 0.017011 0.447546 0.309140
v 0.025908 0.447546 0.309140
v 0.025908 0.455065 0.318037
v 0.017011 0.455065 0.318037
v 0.017011 0.455065 0.309140
v 0.025908 0.455065 0.309140
vt 0.810476 0.215244
vt 0.810476 0.290365
vt 0.785057 0.290365
vt 0.785057 0.215244
vt 0.785057 0.189826
vt 0.810476 0.189826
vt 0.611474 0.500470
vt 0.611474 0.562698
vt 0.591478 0.588116
vt 0.591478 0.500470
vt 0.841091 0.897825
vt 0.928738 0.897825
vt 0.903320 0.917820
vt 0.841091 0.917820
vt 0.810476 0.094710
vt 0.785057 0.094710
vt 0.810476 0.007063
vt 0.785057 0.007063
vt 0.686595 0.562698
vt 0.686595 0.588116
vt 0.785057 0.352593
vt 0.810476 0.352593
vt 0.810476 0.372589
vt 0.785057 0.372589
vt 0.735903 0.546615
vt 0.710485 0.526619
vt 0.710484 0.471494
vt 0.735903 0.451498
vt 0.482249 0.131008
vt 0.482249 0.094198
vt 0.507667 0.094198
vt 0.507667 0.131008
vt 0.155482 0.488450
vt 0.180900 0.468455
vt 0.180900 0.563571
vt 0.155482 0.543575
vt 0.482249 0.039073
vt 0.507667 0.039073
vt 0.093254 0.563571
vt 0.118672 0.543575
vt 0.094704 0.754705
vt 0.189820 0.754705
vt 0.189820 0.780123
vt 0.094704 0.780123
vt 0.507667 0.186133
vt 0.507667 0.222943
vt 0.482249 0.222943
vt 0.482249 0.186133
vt 0.673675 0.526619
vt 0.648256 0.546615
vt 0.277467 0.780123
vt 0.277467 0.754705
vt 0.673675 0.471494
vt 0.648256 0.451498
vt 0.093254 0.468455
vt 0.118672 0.488450
vt 0.007058 0.754705
vt 0.007058 0.780123
vt 0.372583 0.780123
vt 0.372583 0.754705
vt 0.928738 0.992941
vt 0.903320 0.992941
vt 0.195024 0.468449
vt 0.220442 0.488444
vt 0.220442 0.563565
vt 0.195024 0.563565
vt 0.257252 0.488444
vt 0.282670 0.468449
vt 0.282670 0.563565
vt 0.257252 0.563565
vt 0.314644 0.893112
vt 0.239523 0.893112
vt 0.239523 0.867693
vt 0.314644 0.867693
vt 0.340062 0.867693
vt 0.340062 0.893112
vt 0.482243 0.588116
vt 0.502239 0.562697
vt 0.577360 0.562697
vt 0.577360 0.588116
vt 0.202713 0.867693
vt 0.202713 0.893112
vt 0.435178 0.893112
vt 0.435178 0.867693
vt 0.482243 0.500469
vt 0.577360 0.500469
vt 0.577360 0.525887
vt 0.502239 0.525887
vt 0.007058 0.893112
vt 0.007058 0.867693
vt 0.102174 0.867693
vt 0.102174 0.893112
vt 0.127592 0.893112
vt 0.127592 0.867693
vt 0.522825 0.893112
vt 0.522825 0.867693
vt 0.725197 0.913850
vt 0.637550 0.913850
vt 0.662969 0.893855
vt 0.699779 0.893855
vt 0.185195 0.619113
vt 0.222005 0.619113
vt 0.222005 0.644531
vt 0.185195 0.644531
vt 0.697437 0.284069
vt 0.697437 0.221841
vt 0.722856 0.221841
vt 0.722856 0.284069
vt 0.662969 0.838730
vt 0.637550 0.818734
vt 0.699779 0.818734
vt 0.699779 0.838730
vt 0.739322 0.818729
vt 0.764741 0.838725
vt 0.764741 0.893850
vt 0.739322 0.913846
vt 0.277130 0.619113
vt 0.277130 0.644531
vt 0.801551 0.893850
vt 0.801551 0.913846
vt 0.722856 0.126724
vt 0.697437 0.126724
vt 0.130070 0.644531
vt 0.093260 0.644531
vt 0.093260 0.619113
vt 0.130070 0.619113
vt 0.826969 0.893850
vt 0.725197 0.838730
vt 0.697437 0.039078
vt 0.722856 0.039078
vt 0.826969 0.818729
vt 0.801551 0.838725
vt 0.697437 0.391530
vt 0.697437 0.316410
vt 0.722856 0.316409
vt 0.722856 0.391530
vt 0.060298 0.740438
vt 0.060300 0.687198
vt 0.381933 0.687207
vt 0.381932 0.740447
vt 0.435168 0.687207
vt 0.381932 0.060312
vt 0.435168 0.060312
vt 0.381934 0.007072
vt 0.060298 0.060303
vt 0.060299 0.007063
vt 0.007063 0.060303
vt 0.007064 0.687199
vt 0.449292 0.007063
vt 0.770934 0.007072
vt 0.752103 0.024250
vt 0.468125 0.024241
vt 0.079131 0.670020
vt 0.363101 0.670030
vt 0.770934 0.633981
vt 0.752101 0.616803
vt 0.363102 0.077490
vt 0.449294 0.633972
vt 0.468125 0.616793
vt 0.079130 0.077481
vt 0.978345 0.883608
vt 0.926681 0.883608
vt 0.926681 0.291036
vt 0.978346 0.291036
vt 0.860887 0.599635
vt 0.912551 0.599635
vt 0.912551 0.883608
vt 0.860887 0.883608
vt 0.926681 0.007063
vt 0.978346 0.007063
vt 0.860887 0.007063
vt 0.912551 0.007063
vt 0.531430 0.262409
vt 0.634132 0.262409
vt 0.616411 0.340613
vt 0.549151 0.340613
vt 0.634132 0.436556
vt 0.683315 0.262409
vt 0.683315 0.436556
vt 0.634132 0.039080
vt 0.634132 0.213227
vt 0.531430 0.213227
vt 0.531430 0.039080
vt 0.482248 0.436556
vt 0.482248 0.262409
vt 0.531430 0.436556
vt 0.634132 0.485738
vt 0.531430 0.485738
vt 0.191358 0.301928
vt 0.191357 0.377526
vt 0.160518 0.377526
vt 0.160518 0.301927
vt 0.549151 0.416211
vt 0.616411 0.416211
vt 0.160518 0.159069
vt 0.160518 0.234667
vt 0.093258 0.234667
vt 0.093258 0.159069
vt 0.191358 0.159069
vt 0.191358 0.234667
vt 0.191358 0.091808
vt 0.160518 0.091808
vt 0.623435 0.803005
vt 0.545232 0.785284
vt 0.545232 0.718024
vt 0.623435 0.700303
vt 0.449288 0.700303
vt 0.449288 0.651121
vt 0.623435 0.651121
vt 0.846765 0.700303
vt 0.846765 0.803005
vt 0.672617 0.803005
vt 0.672617 0.700303
vt 0.449288 0.852187
vt 0.449288 0.803005
vt 0.623435 0.852187
vt 0.400106 0.803005
vt 0.400106 0.700303
vt 0.303574 0.167406
vt 0.272735 0.167406
vt 0.272735 0.091808
vt 0.303574 0.091808
vt 0.469633 0.718024
vt 0.469633 0.785284
vt 0.272734 0.310265
vt 0.205474 0.310265
vt 0.205474 0.234666
vt 0.272734 0.234667
vt 0.303574 0.310265
vt 0.303574 0.234667
vt 0.303574 0.377525
vt 0.272734 0.377525
vt 0.308888 0.423231
vt 0.308888 0.438286
vt 0.108309 0.438286
vt 0.108309 0.423231
vt 0.093255 0.408177
vt 0.108309 0.408177
vt 0.103851 0.412635
vt 0.097713 0.412635
vt 0.308888 0.393122
vt 0.308888 0.408177
vt 0.108309 0.393122
vt 0.308888 0.453340
vt 0.108309 0.453340
vt 0.298940 0.585703
vt 0.298940 0.591842
vt 0.093262 0.591841
vt 0.093262 0.585703
vt 0.103851 0.418773
vt 0.093255 0.423231
vt 0.097713 0.418773
vt 0.122928 0.126182
vt 0.127269 0.121841
vt 0.130274 0.121841
vt 0.122928 0.129187
vt 0.298940 0.597980
vt 0.298940 0.604119
vt 0.093262 0.604118
vt 0.093262 0.597980
vt 0.298940 0.579564
vt 0.093262 0.579564
vt 0.115582 0.121841
vt 0.108236 0.129187
vt 0.102028 0.122979
vt 0.109374 0.115633
vt 0.118587 0.121841
vt 0.122928 0.117500
vt 0.122928 0.114496
vt 0.102028 0.108287
vt 0.109374 0.100941
vt 0.116719 0.108287
vt 0.130274 0.107150
vt 0.124065 0.100941
vt 0.095819 0.102079
vt 0.103165 0.094733
vn 0.0000 0.0000 -1.0000
vn 0.0000 1.0000 -0.0000
vn 1.0000 0.0000 -0.0000
vn -1.0000 0.0000 0.0000
vn 0.0000 0.0000 1.0000
vn 0.0000 -1.0000 0.0000
vn 0.0000 0.7860 -0.6183
vn 0.0000 -0.9990 -0.0457
vn 0.0000 0.9990 -0.0457
vn 0.0417 -0.9991 -0.0000
vn 0.0417 0.9991 -0.0000
vn 0.0000 -0.9990 0.0457
vn 0.0000 0.9990 0.0457
vn -0.0417 -0.9991 -0.0000
vn -0.0417 0.9991 -0.0000
vn 0.0000 -1.0000 -0.0001
vn 0.0000 -1.0000 0.0001
usemtl None
s off
f 5/1/1 8/2/1 7/3/1 6/4/1
f 6/4/2 4/5/2 2/6/2 5/1/2
f 11/7/3 8/8/3 1/9/3 9/10/3
f 10/11/4 3/12/4 7/13/4 12/14/4
f 1/15/5 2/6/5 4/5/5 3/16/5
f 9/17/6 1/15/6 3/16/6 10/18/6
f 1/9/3 8/8/3 5/19/3 2/20/3
f 12/21/2 7/3/2 8/2/2 11/22/2
f 9/23/1 10/24/1 12/21/1 11/22/1
f 13/25/3 20/26/3 19/27/3 14/28/3
f 26/29/2 18/30/2 20/31/2 28/32/2
f 18/33/4 15/34/4 16/35/4 17/36/4
f 18/30/1 17/37/1 19/38/1 20/31/1
f 17/36/4 16/35/4 24/39/4 25/40/4
f 13/41/5 14/42/5 16/43/5 15/44/5
f 27/45/6 19/46/6 17/47/6 25/48/6
f 28/49/3 20/26/3 13/25/3 21/50/3
f 24/51/2 16/43/2 14/42/2 22/52/2
f 14/28/3 19/27/3 27/53/3 22/54/3
f 23/55/4 15/34/4 18/33/4 26/56/4
f 21/50/3 22/54/3 27/53/3 28/49/3
f 26/29/5 28/32/5 27/45/5 25/48/5
f 21/57/6 13/41/6 15/44/6 23/58/6
f 23/55/4 26/56/4 25/40/4 24/39/4
f 23/59/1 24/51/1 22/52/1 21/60/1
f 7/13/4 3/12/4 4/61/4 6/62/4
f 39/63/4 43/64/4 42/65/4 40/66/4
f 35/67/4 31/68/4 32/69/4 34/70/4
f 33/71/1 36/72/1 35/73/1 34/74/1
f 34/74/2 32/75/2 30/76/2 33/71/2
f 29/77/3 36/78/3 33/79/3 30/80/3
f 43/81/2 35/73/2 36/72/2 44/82/2
f 29/83/5 30/76/5 32/75/5 31/84/5
f 37/85/3 38/86/3 41/87/3 44/88/3
f 37/89/1 39/90/1 40/91/1 38/92/1
f 41/93/5 42/94/5 43/81/5 44/82/5
f 42/94/2 41/93/2 38/92/2 40/91/2
f 44/88/3 36/78/3 29/77/3 37/85/3
f 37/95/6 29/83/6 31/84/6 39/96/6
f 43/64/4 39/63/4 31/68/4 35/67/4
f 53/97/4 47/98/4 50/99/4 59/100/4
f 59/101/2 50/102/2 52/103/2 61/104/2
f 55/105/2 48/106/2 46/107/2 54/108/2
f 49/109/4 48/110/4 55/111/4 58/112/4
f 45/113/3 52/114/3 51/115/3 46/116/3
f 50/102/1 49/117/1 51/118/1 52/103/1
f 46/116/3 51/115/3 60/119/3 54/120/3
f 50/99/4 47/98/4 48/110/4 49/109/4
f 45/121/5 46/107/5 48/106/5 47/122/5
f 60/123/6 51/124/6 49/125/6 58/126/6
f 60/119/3 56/127/3 54/120/3
f 53/97/4 59/100/4 58/112/4 57/128/4
f 59/101/5 61/104/5 60/123/5 58/126/5
f 45/121/6 47/122/6 53/129/6 62/130/6
f 62/131/3 56/127/3 60/119/3 61/132/3
f 61/132/3 52/114/3 45/113/3 62/131/3
f 53/133/1 57/134/1 56/135/1 62/136/1
f 58/112/4 55/111/4 57/128/4
f 55/105/7 54/108/7 56/135/7 57/134/7
f 72/137/5 73/138/5 74/139/5 71/140/5
f 71/141/4 74/139/4 76/142/4 75/143/4
f 75/144/1 76/142/1 78/145/1 77/146/1
f 77/147/3 78/145/3 73/138/3 72/148/3
f 72/149/8 71/150/8 65/151/8 63/152/8
f 74/139/9 73/138/9 64/153/9 66/154/9
f 71/150/10 75/155/10 69/156/10 65/151/10
f 76/142/11 74/139/11 66/154/11 70/157/11
f 75/155/12 77/158/12 67/159/12 69/156/12
f 78/145/13 76/142/13 70/157/13 68/160/13
f 77/158/14 72/149/14 63/152/14 67/159/14
f 73/138/15 78/145/15 68/160/15 64/153/15
f 69/161/3 70/162/3 66/163/3 65/164/3
f 67/165/5 68/166/5 70/167/5 69/168/5
f 65/164/1 66/163/1 64/169/1 63/170/1
f 63/171/4 64/172/4 68/166/4 67/165/4
f 80/173/5 82/174/5 90/175/5 89/176/5
f 81/177/4 82/174/4 86/178/4 85/179/4
f 85/180/1 86/181/1 84/182/1 83/183/1
f 83/184/3 84/185/3 80/173/3 79/186/3
f 81/177/6 85/187/6 83/188/6 79/186/6
f 86/181/2 82/174/2 80/173/2 84/182/2
f 90/189/4 87/190/4 91/191/4 94/192/4
f 81/177/5 79/186/5 88/193/5 87/194/5
f 82/174/5 81/177/5 87/194/5 90/175/5
f 79/186/5 80/173/5 89/176/5 88/193/5
f 92/195/5 93/196/5 94/197/5 91/198/5
f 88/199/3 89/200/3 93/196/3 92/195/3
f 89/200/2 90/189/2 94/192/2 93/196/2
f 87/201/6 88/199/6 92/195/6 91/202/6
f 96/203/1 105/204/1 106/205/1 98/206/1
f 97/207/4 101/208/4 102/209/4 98/206/4
f 101/210/5 99/211/5 100/212/5 102/213/5
f 99/214/3 95/215/3 96/203/3 100/216/3
f 97/207/6 95/215/6 99/217/6 101/218/6
f 102/213/2 100/212/2 96/203/2 98/206/2
f 106/219/4 110/220/4 107/221/4 103/222/4
f 97/207/1 103/223/1 104/224/1 95/215/1
f 98/206/1 106/205/1 103/223/1 97/207/1
f 95/215/1 104/224/1 105/204/1 96/203/1
f 108/225/1 107/226/1 110/227/1 109/228/1
f 104/229/3 108/225/3 109/228/3 105/230/3
f 105/230/2 109/228/2 110/220/2 106/219/2
f 103/231/6 107/232/6 108/225/6 104/229/6
f 114/233/1 113/234/1 117/235/1 118/236/1
f 116/237/2 115/238/2 119/239/2 120/240/2
f 112/241/5 111/242/5 115/238/5 116/243/5
f 111/242/3 114/233/3 118/236/3 115/238/3
f 113/234/4 112/244/4 116/245/4 117/235/4
f 119/246/3 122/247/3 126/248/3 123/249/3
f 115/238/2 118/236/2 122/250/2 119/239/2
f 117/251/2 116/237/2 120/240/2 121/252/2
f 118/236/2 117/251/2 121/252/2 122/250/2
f 125/253/6 124/254/6 128/255/6 129/256/6
f 121/257/4 120/258/4 124/259/4 125/260/4
f 122/247/1 121/257/1 125/260/1 126/248/1
f 120/261/5 119/246/5 123/249/5 124/262/5
f 130/263/1 129/264/1 133/265/1 134/266/1
f 126/267/16 125/253/16 129/256/16 130/263/16
f 124/254/17 123/268/17 127/269/17 128/255/17
f 123/268/6 126/267/6 130/263/6 127/269/6
f 133/270/2 132/271/2 131/272/2 134/266/2
f 128/273/5 127/269/5 131/272/5 132/274/5
f 127/269/3 130/263/3 134/266/3 131/272/3
f 129/275/4 128/276/4 132/271/4 133/270/4
