# Blender v3.1.2 OBJ File: 'waist.blend'
# www.blender.org
mtllib waist.mtl
o Waist_nodes[0]_meshes[0].001
v -0.128516 0.144252 0.257031
v -0.128516 0.059002 0.257031
v 0.128516 0.144252 0.257031
v 0.128516 0.059002 0.257031
v -0.142073 0.144252 0.270589
v -0.142073 0.059002 0.270589
v 0.142073 0.144252 0.270589
v 0.142073 0.059002 0.270589
v 0.085244 0.059002 0.270589
v -0.085244 0.127146 0.270589
v 0.085244 0.127146 0.270589
v -0.085244 0.059002 0.270589
v -0.061953 0.127146 0.308249
v 0.061953 0.127146 0.308249
v 0.085244 -0.016668 0.270589
v -0.085244 -0.016668 0.270589
v -0.061953 -0.016668 0.308249
v 0.061953 -0.016668 0.308249
v -0.128516 0.144252 -0.257031
v -0.128516 0.059002 -0.257031
v 0.128516 0.144252 -0.257031
v 0.128516 0.059002 -0.257031
v -0.142073 0.144252 -0.270589
v -0.142073 0.059002 -0.270589
v 0.142073 0.144252 -0.270589
v 0.142073 0.059002 -0.270589
v 0.085244 0.059002 -0.270589
v -0.085244 0.127146 -0.270589
v 0.085244 0.127146 -0.270589
v -0.085244 0.059002 -0.270589
v -0.061953 0.127146 -0.308249
v 0.061953 0.127146 -0.308249
v 0.085244 -0.016668 -0.270589
v -0.085244 -0.016668 -0.270589
v -0.061953 -0.016668 -0.308249
v 0.061953 -0.016668 -0.308249
v 0.153845 0.041250 0.113104
v 0.153845 0.173976 0.125605
v 0.153845 0.041250 -0.113104
v 0.153845 0.161476 -0.113104
v 0.124800 0.028749 -0.125605
v 0.124800 0.173976 -0.125605
v 0.153845 0.028749 0.125605
v 0.153845 0.161476 0.113104
v 0.124800 0.173976 0.125605
v 0.124800 0.028749 0.125605
v 0.153845 0.173976 -0.125605
v 0.153845 0.028749 -0.125605
v 0.143058 0.041250 0.113104
v 0.143058 0.161476 0.113104
v 0.143058 0.161476 -0.113104
v 0.143058 0.041250 -0.113104
v 0.142503 0.071422 0.081158
v 0.152095 0.071422 0.081158
v 0.142503 0.050322 0.101667
v 0.152095 0.050322 0.101667
v 0.152095 0.152404 0.061115
v 0.142503 0.152404 0.061115
v 0.142503 0.152404 0.040605
v 0.152095 0.152404 0.040605
v 0.142503 0.071422 0.061115
v 0.152095 0.071422 0.061115
v 0.142503 0.050322 0.040605
v 0.152095 0.050322 0.040605
v 0.142503 0.101891 0.101667
v 0.152095 0.101891 0.101667
v 0.152095 0.101891 0.081158
v 0.142503 0.101891 0.081158
v 0.152095 0.132361 0.010021
v 0.142503 0.132361 0.010021
v 0.142503 0.152403 0.030531
v 0.152095 0.152403 0.030531
v 0.142503 0.071422 0.010021
v 0.152095 0.071422 0.010021
v 0.142503 0.050322 0.030531
v 0.152095 0.050322 0.030531
v 0.152095 0.132361 -0.010021
v 0.142503 0.132361 -0.010021
v 0.142503 0.152403 -0.030531
v 0.152095 0.152403 -0.030531
v 0.142503 0.071422 -0.010021
v 0.152095 0.071422 -0.010021
v 0.142503 0.050322 -0.030531
v 0.152095 0.050322 -0.030531
v 0.152095 0.132361 -0.061795
v 0.142503 0.132361 -0.061795
v 0.142503 0.152404 -0.041285
v 0.152095 0.152404 -0.041285
v 0.142503 0.071422 -0.061795
v 0.152095 0.071422 -0.061795
v 0.142503 0.050322 -0.041285
v 0.152095 0.050322 -0.041285
v 0.152095 0.112048 -0.061795
v 0.152095 0.091735 -0.061795
v 0.142503 0.091735 -0.061795
v 0.142503 0.112048 -0.061795
v 0.142503 0.132361 -0.101667
v 0.152095 0.132361 -0.101667
v 0.152095 0.152404 -0.101667
v 0.142503 0.152404 -0.101667
v 0.142503 0.071422 -0.101667
v 0.152095 0.071422 -0.101667
v 0.142503 0.050322 -0.101667
v 0.152095 0.050322 -0.101667
v 0.152095 0.112048 -0.101667
v 0.152095 0.091735 -0.101667
v 0.142503 0.091735 -0.101667
v 0.142503 0.112048 -0.101667
v -0.010021 0.025976 0.306811
v -0.010021 0.025976 0.311093
v -0.030531 0.004876 0.306811
v -0.030531 0.004876 0.311093
v 0.010021 0.106958 0.311093
v 0.010021 0.106958 0.306811
v 0.030531 0.106958 0.306811
v 0.030531 0.106958 0.311093
v 0.010021 0.025976 0.306811
v 0.010021 0.025976 0.311093
v 0.030531 0.004876 0.306811
v 0.030531 0.004876 0.311093
v -0.030531 0.056445 0.306811
v -0.030531 0.056445 0.311093
v -0.010021 0.056445 0.311093
v -0.010021 0.056445 0.306811
v -0.010021 0.025976 -0.306811
v -0.010021 0.025976 -0.311092
v -0.030531 0.004876 -0.306811
v -0.030531 0.004876 -0.311092
v 0.010021 0.025976 -0.306811
v 0.010021 0.025976 -0.311092
v 0.030531 0.004876 -0.306811
v 0.030531 0.004876 -0.311092
v -0.030531 0.106958 -0.306811
v -0.030531 0.106958 -0.311092
v -0.010021 0.106958 -0.311092
v -0.010021 0.106958 -0.306811
v 0.030531 0.056446 -0.306811
v 0.010021 0.056445 -0.306811
v 0.030531 0.056446 -0.311092
v 0.010021 0.056445 -0.311092
v -0.029764 0.147859 0.303266
v -0.029764 0.229764 0.303266
v -0.057458 0.147859 0.303266
v -0.057458 0.229764 0.303266
v -0.029764 0.147859 0.275572
v -0.029764 0.229764 0.275572
v -0.057458 0.147859 0.275572
v -0.057458 0.229764 0.275572
v -0.050122 0.147859 0.295930
v -0.037100 0.147859 0.295930
v -0.050122 0.147859 0.282908
v -0.037100 0.147859 0.282908
v -0.050122 0.125773 0.295930
v -0.037101 0.125773 0.295930
v -0.050122 0.125773 0.282908
v -0.037100 0.125773 0.282908
v 0.026106 0.125336 0.299293
v 0.005270 0.189609 0.299293
v 0.007320 0.119245 0.299293
v -0.013517 0.183519 0.299293
v 0.026106 0.125336 0.279545
v 0.005270 0.189609 0.279545
v 0.007320 0.119245 0.279545
v -0.013517 0.183519 0.279545
v 0.041370 0.125336 0.299293
v 0.062207 0.189609 0.299293
v 0.060156 0.119245 0.299293
v 0.080993 0.183519 0.299293
v 0.041370 0.125336 0.279545
v 0.062207 0.189609 0.279545
v 0.060156 0.119245 0.279545
v 0.080993 0.183519 0.279545
v 0.070753 0.136541 -0.283089
v 0.070753 0.192948 -0.283089
v 0.070753 0.136541 -0.294633
v 0.039235 0.181666 -0.294633
v 0.039235 0.181666 -0.283089
v 0.059210 0.181666 -0.283089
v 0.039235 0.147822 -0.294633
v 0.070753 0.192948 -0.294633
v 0.059210 0.147822 -0.283089
v 0.059210 0.181666 -0.294633
v 0.045943 0.136541 -0.294633
v 0.059210 0.147822 -0.294633
v 0.045943 0.136541 -0.283089
v 0.039235 0.147822 -0.283089
v 0.045943 0.125158 -0.294633
v 0.045943 0.125158 -0.283089
v -0.003269 0.136541 -0.283089
v -0.003269 0.136541 -0.294633
v -0.003269 0.192948 -0.294633
v 0.028250 0.181666 -0.294633
v 0.028250 0.181666 -0.283089
v 0.008275 0.181666 -0.283089
v 0.028250 0.147822 -0.294633
v 0.008275 0.147822 -0.283089
v 0.008275 0.181666 -0.294633
v -0.003269 0.192948 -0.283089
v 0.021541 0.136541 -0.294633
v 0.008275 0.147822 -0.294633
v 0.021541 0.136541 -0.283089
v 0.028250 0.147822 -0.283089
v 0.021541 0.125158 -0.294633
v 0.021541 0.125158 -0.283089
v -0.032953 0.125281 -0.281732
v -0.032953 0.217870 -0.281731
v -0.047212 0.125281 -0.281732
v -0.047212 0.217870 -0.281731
v -0.032953 0.125281 -0.295991
v -0.032953 0.217870 -0.295991
v -0.047212 0.125281 -0.295991
v -0.047212 0.217870 -0.295991
v -0.139923 0.076015 0.177264
v -0.139923 0.128643 0.177264
v -0.148566 0.076015 0.177264
v -0.148566 0.128643 0.177264
v -0.139923 0.076015 0.124636
v -0.139923 0.128643 0.124636
v -0.148566 0.076015 0.124636
v -0.148566 0.128643 0.124636
v -0.139923 0.076015 -0.177264
v -0.139923 0.128643 -0.177264
v -0.148566 0.076015 -0.177264
v -0.148566 0.128643 -0.177264
v -0.139923 0.076015 -0.124636
v -0.139923 0.128643 -0.124636
v -0.148566 0.076015 -0.124636
v -0.148566 0.128643 -0.124636
v -0.032953 0.196219 -0.281731
v -0.047212 0.196219 -0.281731
v -0.047212 0.196219 -0.295991
v -0.032953 0.196219 -0.295991
v -0.032953 0.203099 -0.281731
v -0.047212 0.203099 -0.281731
v -0.047212 0.203099 -0.295991
v -0.032953 0.203099 -0.295991
vt 0.141723 0.319046
vt 0.141723 0.031337
vt 0.189435 0.031337
vt 0.189435 0.319046
vt 0.189435 0.894464
vt 0.141723 0.894464
vt 0.141723 0.750610
vt 0.189435 0.750610
vt 0.554994 0.412073
vt 0.252109 0.412073
vt 0.259697 0.404485
vt 0.547405 0.404485
vt 0.031337 0.796137
vt 0.079050 0.796137
vt 0.069476 0.827943
vt 0.031337 0.827943
vt 0.554994 0.284848
vt 0.547406 0.260630
vt 0.554994 0.253042
vt 0.512672 0.618664
vt 0.487890 0.618664
vt 0.487890 0.580526
vt 0.606803 0.580526
vt 0.606803 0.618665
vt 0.582020 0.618665
vt 0.512672 0.538175
vt 0.554993 0.380266
vt 0.582020 0.538175
vt 0.554994 0.031337
vt 0.554994 0.190368
vt 0.547406 0.182780
vt 0.547405 0.038925
vt 0.606803 0.538175
vt 0.595055 0.639742
vt 0.499637 0.639742
vt 0.499637 0.474746
vt 0.595055 0.474746
vt 0.595055 0.517097
vt 0.499637 0.517097
vt 0.079050 0.955168
vt 0.069476 0.923362
vt 0.252109 0.190367
vt 0.259697 0.182779
vt 0.259697 0.260631
vt 0.252109 0.253043
vt 0.487890 0.538175
vt 0.031337 0.955168
vt 0.031337 0.923362
vt 0.031337 0.493250
vt 0.079049 0.493250
vt 0.259697 0.038925
vt 0.252110 0.031337
vt 0.079049 0.031337
vt 0.079049 0.334220
vt 0.031337 0.334220
vt 0.031337 0.031337
vt 0.189435 0.462901
vt 0.141723 0.462901
vt 0.031337 0.461444
vt 0.069476 0.461444
vt 0.252109 0.284849
vt 0.711797 0.175255
vt 0.736580 0.137116
vt 0.736580 0.175255
vt 0.617667 0.137116
vt 0.642450 0.175255
vt 0.617667 0.175255
vt 0.711797 0.094765
vt 0.252109 0.380267
vt 0.642450 0.094765
vt 0.617667 0.094765
vt 0.629414 0.196333
vt 0.724833 0.196333
vt 0.724833 0.031337
vt 0.724833 0.073688
vt 0.629414 0.073688
vt 0.629414 0.031337
vt 0.069476 0.366026
vt 0.736580 0.094765
vt 0.031337 0.366026
vt 0.268365 0.491002
vt 0.268364 0.572283
vt 0.252109 0.572283
vt 0.252109 0.491002
vt 0.425216 0.491003
vt 0.425216 0.572283
vt 0.408961 0.572283
vt 0.408961 0.491003
vt 0.799254 0.225224
vt 0.799254 0.098623
vt 0.805291 0.098623
vt 0.805291 0.225224
vt 0.268365 0.474746
vt 0.408961 0.474747
vt 0.408961 0.588538
vt 0.268364 0.588538
vt 0.275361 0.497999
vt 0.275361 0.565286
vt 0.268365 0.669819
vt 0.408961 0.669819
vt 0.401964 0.565286
vt 0.401964 0.497999
vt 0.684954 0.385609
vt 0.617667 0.385609
vt 0.617667 0.259006
vt 0.684954 0.259006
vt 0.799254 0.292512
vt 0.805291 0.292512
vt 0.799254 0.031337
vt 0.805291 0.031337
vt 0.799253 0.419116
vt 0.805291 0.419116
vt 0.280380 0.732492
vt 0.280380 0.737861
vt 0.263326 0.737861
vt 0.263326 0.732492
vt 0.799253 0.872725
vt 0.810732 0.884534
vt 0.810732 0.901587
vt 0.799253 0.901587
vt 0.291858 0.732492
vt 0.320721 0.732492
vt 0.320721 0.737861
vt 0.291858 0.737861
vt 0.354896 0.737861
vt 0.354896 0.732492
vt 0.423507 0.737860
vt 0.412028 0.737860
vt 0.412028 0.732492
vt 0.423507 0.732492
vt 0.252109 0.732492
vt 0.252109 0.737861
vt 0.833429 0.872725
vt 0.833429 0.929858
vt 0.821950 0.929858
vt 0.821950 0.884534
vt 0.468830 0.732492
vt 0.468830 0.737861
vt 0.929393 0.515895
vt 0.934761 0.515895
vt 0.934761 0.527113
vt 0.929393 0.527113
vt 0.934761 0.561219
vt 0.929393 0.561219
vt 0.715391 0.831233
vt 0.726609 0.842712
vt 0.669476 0.842712
vt 0.681285 0.831233
vt 0.929393 0.572436
vt 0.934761 0.572436
vt 0.715391 0.820016
vt 0.726609 0.808537
vt 0.929393 0.481789
vt 0.934761 0.481789
vt 0.669476 0.808537
vt 0.681285 0.820016
vt 0.873333 0.122644
vt 0.867964 0.122644
vt 0.867964 0.065512
vt 0.873333 0.065512
vt 0.873333 0.031337
vt 0.867964 0.031337
vt 0.873333 0.156819
vt 0.867964 0.156819
vt 0.873333 0.213952
vt 0.867964 0.213952
vt 0.674845 0.677945
vt 0.674845 0.711739
vt 0.669476 0.711739
vt 0.669476 0.677945
vt 0.918418 0.895311
vt 0.929896 0.872725
vt 0.929896 0.929858
vt 0.918418 0.906680
vt 0.674845 0.486115
vt 0.669476 0.486115
vt 0.669476 0.474746
vt 0.674845 0.474746
vt 0.918418 0.918049
vt 0.896102 0.929858
vt 0.896102 0.918049
vt 0.669476 0.553484
vt 0.674845 0.553484
vt 0.674845 0.575800
vt 0.669476 0.575800
vt 0.918418 0.883943
vt 0.896102 0.883943
vt 0.896102 0.872725
vt 0.669476 0.542116
vt 0.674845 0.542116
vt 0.669476 0.519800
vt 0.674845 0.519800
vt 0.674845 0.620813
vt 0.669476 0.620813
vt 0.674845 0.723548
vt 0.674845 0.745864
vt 0.669476 0.745864
vt 0.669476 0.723548
vt 0.669476 0.587018
vt 0.674845 0.587018
vt 0.669476 0.508431
vt 0.674845 0.508431
vt 0.896102 0.906680
vt 0.896102 0.895311
vt 0.866720 0.623993
vt 0.864323 0.623993
vt 0.864323 0.606941
vt 0.866720 0.606941
vt 0.606803 0.819439
vt 0.594994 0.830917
vt 0.577941 0.830917
vt 0.577941 0.819439
vt 0.866719 0.635472
vt 0.866719 0.664335
vt 0.864323 0.664335
vt 0.864323 0.635472
vt 0.864323 0.698510
vt 0.866719 0.698510
vt 0.864323 0.550400
vt 0.864323 0.538921
vt 0.866720 0.538921
vt 0.866720 0.550400
vt 0.866719 0.595723
vt 0.864323 0.595723
vt 0.864323 0.481789
vt 0.866719 0.481789
vt 0.606803 0.853614
vt 0.594994 0.842135
vt 0.549670 0.853614
vt 0.549670 0.842135
vt 0.801650 0.550400
vt 0.801650 0.595724
vt 0.799253 0.595724
vt 0.799253 0.550400
vt 0.902139 0.276625
vt 0.902139 0.333758
vt 0.890661 0.333758
vt 0.890661 0.288434
vt 0.801650 0.538922
vt 0.799253 0.538922
vt 0.799253 0.481789
vt 0.801650 0.481789
vt 0.799253 0.664335
vt 0.801650 0.664335
vt 0.801650 0.698511
vt 0.799254 0.698511
vt 0.801650 0.606942
vt 0.799253 0.606942
vt 0.867964 0.276625
vt 0.879443 0.288434
vt 0.879443 0.305487
vt 0.867964 0.305487
vt 0.799253 0.635473
vt 0.801650 0.635473
vt 0.801650 0.623994
vt 0.799253 0.623994
vt 0.267608 0.816033
vt 0.313449 0.816034
vt 0.313449 0.831533
vt 0.267608 0.831533
vt 0.313449 0.847033
vt 0.267608 0.847033
vt 0.313449 0.862533
vt 0.267608 0.862533
vt 0.267608 0.800534
vt 0.313449 0.800534
vt 0.252109 0.831533
vt 0.252109 0.816033
vt 0.256215 0.820139
vt 0.256215 0.827427
vt 0.328949 0.831533
vt 0.328949 0.816034
vt 0.252109 0.932494
vt 0.252109 0.925206
vt 0.264469 0.925206
vt 0.264469 0.932494
vt 0.263502 0.820139
vt 0.263502 0.827427
vt 0.252109 0.947070
vt 0.252109 0.939782
vt 0.264469 0.939782
vt 0.264469 0.947070
vt 0.252109 0.954358
vt 0.264469 0.954358
vt 0.402675 0.849402
vt 0.402675 0.811587
vt 0.413728 0.811587
vt 0.413728 0.849402
vt 0.424780 0.811587
vt 0.424780 0.849402
vt 0.435833 0.811587
vt 0.435833 0.849402
vt 0.391622 0.849402
vt 0.391622 0.811587
vt 0.413728 0.800534
vt 0.402675 0.800534
vt 0.832412 0.810052
vt 0.821359 0.810052
vt 0.821359 0.772237
vt 0.832412 0.772237
vt 0.810306 0.810052
vt 0.810306 0.772237
vt 0.799253 0.810052
vt 0.799254 0.772237
vt 0.843465 0.810052
vt 0.843465 0.772237
vt 0.821359 0.761184
vt 0.832412 0.761184
vt 0.568773 0.750305
vt 0.575087 0.743844
vt 0.594028 0.743844
vt 0.600342 0.750305
vt 0.594028 0.732665
vt 0.426590 0.937331
vt 0.433050 0.943645
vt 0.415410 0.937331
vt 0.433050 0.912075
vt 0.426590 0.918389
vt 0.415410 0.918389
vt 0.419165 0.912075
vt 0.935854 0.646289
vt 0.929393 0.646289
vt 0.929393 0.635109
vt 0.935854 0.635109
vt 0.600342 0.756765
vt 0.568773 0.756765
vt 0.606803 0.708876
vt 0.606803 0.750305
vt 0.600342 0.708876
vt 0.929393 0.665231
vt 0.935853 0.665231
vt 0.935854 0.676410
vt 0.929393 0.676410
vt 0.562312 0.750305
vt 0.562312 0.736419
vt 0.568773 0.736419
vt 0.409262 0.937331
vt 0.409262 0.918389
vt 0.405508 0.912075
vt 0.594028 0.726516
vt 0.575086 0.726516
vt 0.575086 0.732665
vt 0.568773 0.722762
vt 0.391622 0.943645
vt 0.936006 0.139590
vt 0.936006 0.125932
vt 0.942377 0.125932
vt 0.942377 0.139590
vt 0.942377 0.159707
vt 0.936006 0.159707
vt 0.936006 0.146050
vt 0.942377 0.146050
vt 0.568773 0.708876
vt 0.594028 0.715337
vt 0.575086 0.715337
vt 0.935854 0.695352
vt 0.929393 0.695352
vt 0.398082 0.918389
vt 0.391622 0.912075
vt 0.398082 0.937331
vt 0.879144 0.402892
vt 0.867964 0.402892
vt 0.867964 0.396431
vt 0.879144 0.396431
vt 0.568773 0.702416
vt 0.600342 0.702416
vt 0.898086 0.396431
vt 0.909265 0.396431
vt 0.909265 0.402892
vt 0.898086 0.402892
vt 0.562312 0.722762
vt 0.562312 0.708876
vt 0.942377 0.166168
vt 0.936006 0.166168
vt 0.928207 0.402892
vt 0.928207 0.396431
vt 0.952254 0.063259
vt 0.943987 0.063259
vt 0.943987 0.055278
vt 0.952254 0.055278
vt 0.943987 0.047298
vt 0.952254 0.047298
vt 0.943987 0.039317
vt 0.952254 0.039317
vt 0.943987 0.031337
vt 0.952254 0.031337
vt 0.936006 0.047298
vt 0.936006 0.039317
vt 0.906138 0.795475
vt 0.906138 0.766021
vt 0.910975 0.766021
vt 0.910975 0.795475
vt 0.940430 0.766021
vt 0.940430 0.795475
vt 0.945267 0.766021
vt 0.945267 0.795475
vt 0.940430 0.800313
vt 0.910975 0.800313
vt 0.910975 0.761184
vt 0.940430 0.761184
vt 0.674313 0.944514
vt 0.674313 0.939677
vt 0.703768 0.939677
vt 0.703768 0.944514
vt 0.674313 0.910222
vt 0.703768 0.910222
vt 0.674313 0.905385
vt 0.703768 0.905385
vt 0.669476 0.939677
vt 0.669476 0.910222
vt 0.708605 0.910222
vt 0.708605 0.939677
vt 0.557651 0.916287
vt 0.557651 0.955989
vt 0.549670 0.955989
vt 0.549670 0.916287
vt 0.565631 0.916287
vt 0.565631 0.955989
vt 0.573612 0.916287
vt 0.573612 0.955989
vt 0.581593 0.916287
vt 0.581593 0.955989
vt 0.968663 0.284606
vt 0.964813 0.284606
vt 0.964813 0.276625
vt 0.968663 0.276625
vt 0.968663 0.292586
vt 0.964813 0.292586
vt 0.968663 0.300567
vt 0.964813 0.300567
vt 0.968663 0.308548
vt 0.964813 0.308548
vn 1.0000 0.0000 -0.0000
vn -0.0000 0.0000 -1.0000
vn 0.0000 -1.0000 -0.0000
vn 0.0000 0.0000 1.0000
vn -0.8505 -0.0000 0.5260
vn 0.8505 0.0000 0.5260
vn 0.0000 1.0000 0.0000
vn -1.0000 0.0000 0.0000
vn -0.8505 -0.0000 -0.5260
vn 0.8505 0.0000 -0.5260
vn -0.9513 -0.3084 0.0000
vn 0.9513 0.3084 0.0000
vn -0.3084 0.9513 0.0000
vn 0.9513 -0.3084 0.0000
vn -0.9513 0.3084 0.0000
vn 0.3084 0.9513 0.0000
usemtl Shoes.004
s off
f 19/1/1 1/2/1 2/3/1 20/4/1
f 2/5/2 1/6/2 3/7/2 4/8/2
f 6/9/3 24/10/3 20/11/3 2/12/3
f 8/13/4 7/14/4 11/15/4 9/16/4
f 9/17/3 4/18/3 8/19/3
f 13/20/5 10/21/5 12/22/5
f 9/23/6 11/24/6 14/25/6
f 17/26/5 13/20/5 12/22/5
f 2/12/3 12/27/3 6/9/3
f 13/20/4 17/26/4 18/28/4 14/25/4
f 5/29/7 7/30/7 3/31/7 1/32/7
f 9/23/6 18/28/6 15/33/6
f 11/34/7 10/35/7 13/20/7 14/25/7
f 12/36/2 9/37/2 15/38/2 16/39/2
f 5/40/4 10/41/4 11/15/4 7/14/4
f 14/25/6 18/28/6 9/23/6
f 16/39/3 15/38/3 18/28/3 17/26/3
f 7/30/7 25/42/7 21/43/7 3/31/7
f 22/44/3 26/45/3 8/19/3 4/18/3
f 12/22/5 16/46/5 17/26/5
f 5/40/4 6/47/4 12/48/4 10/41/4
f 4/18/3 9/17/3 12/27/3 2/12/3
f 8/13/1 26/49/1 25/50/1 7/14/1
f 19/51/7 23/52/7 5/29/7 1/32/7
f 5/53/8 23/54/8 24/55/8 6/56/8
f 20/4/4 22/57/4 21/58/4 19/1/4
f 26/49/2 27/59/2 29/60/2 25/50/2
f 27/61/3 26/45/3 22/44/3
f 31/62/9 30/63/9 28/64/9
f 27/65/10 32/66/10 29/67/10
f 35/68/9 30/63/9 31/62/9
f 20/11/3 24/10/3 30/69/3
f 31/62/2 32/66/2 36/70/2 35/68/2
f 23/52/7 19/51/7 21/43/7 25/42/7
f 27/65/10 33/71/10 36/70/10
f 29/72/7 32/66/7 31/62/7 28/73/7
f 30/74/4 34/75/4 33/76/4 27/77/4
f 23/54/2 25/50/2 29/60/2 28/78/2
f 32/66/10 27/65/10 36/70/10
f 34/75/3 35/68/3 36/70/3 33/76/3
f 30/63/9 35/68/9 34/79/9
f 23/54/2 28/78/2 30/80/2 24/55/2
f 22/44/3 20/11/3 30/69/3 27/61/3
f 3/7/8 21/58/8 22/57/8 4/8/8
f 43/81/4 38/82/4 45/83/4 46/84/4
f 41/85/2 42/86/2 47/87/2 48/88/2
f 40/89/3 44/90/3 50/91/3 51/92/3
f 46/93/3 41/94/3 48/88/3 43/81/3
f 42/95/7 45/96/7 38/82/7 47/87/7
f 38/82/1 43/81/1 37/97/1 44/98/1
f 46/99/8 45/96/8 42/95/8 41/100/8
f 48/88/1 47/87/1 40/101/1 39/102/1
f 43/81/1 48/88/1 39/102/1 37/97/1
f 47/87/1 38/82/1 44/98/1 40/101/1
f 52/103/1 51/104/1 50/105/1 49/106/1
f 39/107/4 40/89/4 51/92/4 52/108/4
f 44/90/2 37/109/2 49/110/2 50/91/2
f 37/111/7 39/107/7 52/108/7 49/112/7
f 68/113/2 67/114/2 54/115/2 53/116/2
f 56/117/1 54/118/1 67/119/1 66/120/1
f 65/121/4 55/122/4 56/123/4 66/124/4
f 66/124/7 67/114/7 68/113/7 65/121/7
f 64/125/3 56/123/3 55/122/3 63/126/3
f 57/127/7 60/128/7 59/129/7 58/130/7
f 59/129/2 60/128/2 64/125/2 63/126/2
f 61/131/7 53/116/7 54/115/7 62/132/7
f 64/133/1 60/134/1 57/135/1 62/136/1
f 54/118/1 56/117/1 64/133/1 62/136/1
f 57/127/4 58/130/4 61/137/4 62/138/4
f 78/139/3 77/140/3 69/141/3 70/142/3
f 70/142/2 69/141/2 74/143/2 73/144/2
f 69/145/1 72/146/1 76/147/1 74/148/1
f 81/149/7 73/144/7 74/143/7 82/150/7
f 72/146/1 69/145/1 77/151/1 80/152/1
f 78/139/4 81/153/4 82/154/4 77/140/4
f 74/148/1 76/147/1 84/155/1 82/156/1
f 72/157/4 71/158/4 75/159/4 76/160/4
f 84/161/3 76/160/3 75/159/3 83/162/3
f 80/152/1 77/151/1 82/156/1 84/155/1
f 72/157/7 80/163/7 79/164/7 71/158/7
f 79/164/2 80/163/2 84/165/2 83/166/2
f 91/167/3 103/168/3 104/169/3 92/170/3
f 93/171/1 88/172/1 92/173/1 94/174/1
f 95/175/2 94/176/2 90/177/2 89/178/2
f 90/179/1 92/173/1 104/180/1 102/181/1
f 85/182/3 86/183/3 97/184/3 98/185/3
f 88/172/1 85/186/1 98/187/1 99/188/1
f 94/174/1 92/173/1 90/179/1
f 85/186/1 88/172/1 93/171/1
f 86/183/2 85/182/2 93/189/2 96/190/2
f 96/190/7 93/189/7 105/191/7 108/192/7
f 87/193/4 91/167/4 92/170/4 88/194/4
f 101/195/7 89/196/7 90/197/7 102/198/7
f 88/194/7 99/199/7 100/200/7 87/193/7
f 97/184/2 100/200/2 99/199/2 98/185/2
f 101/195/2 102/198/2 104/169/2 103/168/2
f 108/192/2 105/191/2 106/201/2 107/202/2
f 94/176/3 95/175/3 107/202/3 106/201/3
f 93/171/1 94/174/1 106/203/1 105/204/1
f 124/205/1 123/206/1 110/207/1 109/208/1
f 112/209/4 110/210/4 123/211/4 122/212/4
f 121/213/8 111/214/8 112/215/8 122/216/8
f 122/216/7 123/206/7 124/205/7 121/213/7
f 120/217/3 112/215/3 111/214/3 119/218/3
f 113/219/7 116/220/7 115/221/7 114/222/7
f 117/223/7 109/208/7 110/207/7 118/224/7
f 120/225/1 119/226/1 115/221/1 116/220/1
f 110/210/4 112/209/4 120/227/4 118/228/4
f 120/227/4 116/229/4 113/230/4 118/228/4
f 136/231/1 125/232/1 126/233/1 135/234/1
f 128/235/2 134/236/2 135/237/2 126/238/2
f 133/239/8 134/240/8 128/241/8 127/242/8
f 134/240/7 133/239/7 136/231/7 135/234/7
f 132/243/3 131/244/3 127/245/3 128/246/3
f 129/247/7 130/248/7 126/233/7 125/232/7
f 132/249/2 130/250/2 140/251/2 139/252/2
f 126/238/2 130/250/2 132/249/2 128/235/2
f 139/253/1 137/254/1 131/244/1 132/243/1
f 138/255/8 140/256/8 130/248/8 129/247/8
f 137/254/7 139/253/7 140/256/7 138/255/7
f 114/222/8 117/223/8 118/224/8 113/219/8
f 141/257/4 142/258/4 144/259/4 143/260/4
f 143/260/8 144/259/8 148/261/8 147/262/8
f 147/262/2 148/261/2 146/263/2 145/264/2
f 145/265/1 146/266/1 142/258/1 141/257/1
f 147/267/3 145/268/3 152/269/3 151/270/3
f 148/271/7 144/259/7 142/258/7 146/272/7
f 151/273/2 152/274/2 156/275/2 155/276/2
f 145/268/3 141/257/3 150/277/3 152/269/3
f 143/260/3 147/267/3 151/270/3 149/278/3
f 141/257/3 143/260/3 149/278/3 150/277/3
f 150/279/4 149/280/4 153/281/4 154/282/4
f 152/283/1 150/279/1 154/282/1 156/284/1
f 149/280/8 151/273/8 155/276/8 153/281/8
f 157/285/4 158/286/4 160/287/4 159/288/4
f 159/288/11 160/287/11 164/289/11 163/290/11
f 163/290/2 164/289/2 162/291/2 161/292/2
f 161/293/12 162/294/12 158/286/12 157/285/12
f 164/295/13 160/287/13 158/286/13 162/296/13
f 165/297/4 167/298/4 168/299/4 166/300/4
f 167/298/14 171/301/14 172/302/14 168/299/14
f 171/301/2 169/303/2 170/304/2 172/302/2
f 169/305/15 165/297/15 166/300/15 170/306/15
f 172/307/16 170/308/16 166/300/16 168/299/16
f 175/309/2 184/310/2 182/311/2 180/312/2
f 182/311/2 176/313/2 180/312/2
f 178/314/4 174/315/4 177/316/4
f 173/317/4 174/315/4 178/314/4 181/318/4
f 181/318/4 186/319/4 185/320/4 173/317/4
f 182/321/3 178/322/3 177/323/3 176/324/3
f 175/309/1 180/312/1 174/325/1 173/326/1
f 198/327/7 174/328/7 180/312/7 191/329/7
f 181/330/7 184/331/7 179/332/7 186/333/7
f 173/334/3 185/335/3 183/336/3 175/309/3
f 181/330/8 178/322/8 182/321/8 184/331/8
f 193/337/4 202/338/4 186/319/4 177/316/4
f 201/339/4 185/320/4 186/319/4 202/338/4
f 191/329/2 180/312/2 176/313/2 192/340/2
f 195/341/2 179/342/2 183/336/2 199/343/2
f 193/337/4 177/316/4 174/315/4 198/344/4
f 195/341/2 192/340/2 176/313/2 179/342/2
f 187/345/2 203/346/2 199/347/2 183/348/2
f 201/349/4 204/350/4 188/351/4 185/352/4
f 183/348/1 185/352/1 188/351/1 187/345/1
f 190/353/2 191/329/2 197/354/2 200/355/2
f 176/356/1 177/357/1 186/333/1 179/332/1
f 200/355/2 195/341/2 199/343/2 190/353/2
f 197/354/2 191/329/2 192/340/2
f 196/358/4 189/359/4 201/339/4 202/338/4
f 189/359/4 196/358/4 194/360/4 198/344/4
f 198/344/4 194/360/4 193/337/4
f 197/361/3 192/362/3 193/363/3 194/364/3
f 190/353/8 189/365/8 198/366/8 191/329/8
f 196/367/7 202/368/7 195/369/7 200/370/7
f 190/353/3 199/343/3 201/371/3 189/372/3
f 196/367/1 200/370/1 197/361/1 194/364/1
f 199/373/8 203/374/8 204/350/8 201/349/8
f 192/375/8 195/369/8 202/368/8 193/376/8
f 184/310/2 175/309/2 183/336/2 179/342/2
f 233/377/4 206/378/4 208/379/4 234/380/4
f 234/380/8 208/379/8 212/381/8 235/382/8
f 235/382/2 212/381/2 210/383/2 236/384/2
f 236/384/1 210/383/1 206/385/1 233/386/1
f 212/381/7 208/387/7 206/388/7 210/383/7
f 213/389/4 214/390/4 216/391/4 215/392/4
f 215/392/8 216/391/8 220/393/8 219/394/8
f 219/394/2 220/393/2 218/395/2 217/396/2
f 215/392/3 219/394/3 217/397/3 213/398/3
f 220/393/7 216/391/7 214/399/7 218/400/7
f 221/401/2 223/402/2 224/403/2 222/404/2
f 223/402/8 227/405/8 228/406/8 224/403/8
f 227/405/4 225/407/4 226/408/4 228/406/4
f 223/402/3 221/409/3 225/410/3 227/405/3
f 228/406/7 226/411/7 222/412/7 224/403/7
f 209/413/1 232/414/1 229/415/1 205/416/1
f 211/417/2 231/418/2 232/414/2 209/413/2
f 207/419/8 230/420/8 231/418/8 211/417/8
f 205/421/4 229/422/4 230/420/4 207/419/4
f 232/423/1 236/424/1 233/425/1 229/426/1
f 231/427/2 235/428/2 236/424/2 232/423/2
f 230/429/8 234/430/8 235/428/8 231/427/8
f 229/431/4 233/432/4 234/430/4 230/429/4
