# Blender v3.0.0 OBJ File: ''
# www.blender.org
mtllib waist_15.mtl
o Cylinder
v -0.146660 0.145377 0.000403
v -0.104159 0.111260 0.000403
v -0.106102 0.108938 -0.010898
v -0.148478 0.142956 -0.010898
v -0.111413 0.102594 -0.019171
v -0.153447 0.136341 -0.019171
v -0.118668 0.093929 -0.022199
v -0.160235 0.127305 -0.022199
v -0.125922 0.085263 -0.019171
v -0.167023 0.118270 -0.019171
v -0.131233 0.078920 -0.010898
v -0.171992 0.111655 -0.010898
v -0.133177 0.076598 0.000403
v -0.173810 0.109234 0.000403
v -0.131233 0.078920 0.011704
v -0.171992 0.111655 0.011704
v -0.125922 0.085263 0.019977
v -0.167023 0.118270 0.019977
v -0.118668 0.093929 0.023006
v -0.160235 0.127305 0.023006
v -0.111413 0.102594 0.019977
v -0.153447 0.136341 0.019977
v -0.106102 0.108938 0.011704
v -0.148478 0.142956 0.011704
v -0.737419 0.138017 0.019977
v -0.731055 0.143303 0.011704
v -0.760041 0.206003 0.018897
v -0.789769 0.225560 0.032435
v -0.696003 0.110381 0.011704
v -0.694314 0.112895 0.000403
v -0.728726 0.145238 0.000403
v -0.654487 0.093517 0.011704
v -0.653996 0.096505 0.000403
v -0.608587 0.095495 0.011704
v -0.609225 0.098455 0.000403
v -0.561598 0.111456 0.011704
v -0.562809 0.114232 0.000403
v -0.514859 0.134519 0.011704
v -0.516275 0.137196 0.000403
v -0.467455 0.159826 0.011704
v -0.468853 0.162512 0.000403
v -0.417690 0.183670 0.011704
v -0.418865 0.186461 0.000403
v -0.363777 0.201723 0.011704
v -0.364464 0.204672 0.000403
v -0.305579 0.207851 0.011704
v -0.305487 0.210878 0.000403
v -0.247583 0.197706 0.011704
v -0.246661 0.200591 0.000403
v -0.195007 0.174123 0.011704
v -0.193503 0.176751 0.000403
v -0.700616 0.103513 0.019977
v -0.655830 0.085353 0.019977
v -0.606845 0.087407 0.019977
v -0.558292 0.103873 0.019977
v -0.510992 0.127206 0.019977
v -0.463636 0.152488 0.019977
v -0.414479 0.176045 0.019977
v -0.361898 0.193667 0.019977
v -0.305828 0.199582 0.019977
v -0.250102 0.189826 0.019977
v -0.199118 0.166943 0.019977
v -0.746111 0.130795 0.023006
v -0.706917 0.094132 0.023006
v -0.657663 0.074202 0.023006
v -0.604464 0.076359 0.023006
v -0.553775 0.093513 0.023006
v -0.505708 0.117216 0.023006
v -0.458419 0.142463 0.023006
v -0.410094 0.165629 0.023006
v -0.359331 0.182661 0.023006
v -0.306169 0.188286 0.023006
v -0.253543 0.179062 0.023006
v -0.204733 0.157136 0.023006
v -0.754804 0.123573 0.019977
v -0.713218 0.084750 0.019977
v -0.659497 0.063050 0.019977
v -0.602084 0.065312 0.019977
v -0.549259 0.083154 0.019977
v -0.500425 0.107225 0.019977
v -0.453201 0.132438 0.019977
v -0.405709 0.155213 0.019977
v -0.356764 0.171655 0.019977
v -0.306509 0.176990 0.019977
v -0.256985 0.168297 0.019977
v -0.210348 0.147328 0.019977
v -0.761168 0.118286 0.011704
v -0.717831 0.077883 0.011704
v -0.660840 0.054887 0.011704
v -0.600341 0.057224 0.011704
v -0.545953 0.075570 0.011704
v -0.496557 0.099912 0.011704
v -0.449382 0.125099 0.011704
v -0.402499 0.147589 0.011704
v -0.354885 0.163598 0.011704
v -0.306759 0.168720 0.011704
v -0.259504 0.160417 0.011704
v -0.214459 0.140149 0.011704
v -0.763497 0.116351 0.000403
v -0.719519 0.075369 0.000403
v -0.661331 0.051899 0.000403
v -0.599704 0.054264 0.000403
v -0.544742 0.072794 0.000403
v -0.495142 0.097235 0.000403
v -0.447984 0.122413 0.000403
v -0.401324 0.144798 0.000403
v -0.354197 0.160649 0.000403
v -0.306850 0.165694 0.000403
v -0.260426 0.157533 0.000403
v -0.215964 0.137521 0.000403
v -0.761168 0.118286 -0.010898
v -0.717831 0.077883 -0.010898
v -0.660840 0.054887 -0.010898
v -0.600341 0.057224 -0.010898
v -0.545953 0.075570 -0.010898
v -0.496557 0.099912 -0.010898
v -0.449382 0.125099 -0.010898
v -0.402499 0.147589 -0.010898
v -0.354885 0.163598 -0.010898
v -0.306759 0.168720 -0.010898
v -0.259504 0.160417 -0.010898
v -0.214459 0.140149 -0.010898
v -0.754804 0.123573 -0.019171
v -0.713218 0.084750 -0.019171
v -0.659497 0.063050 -0.019171
v -0.602084 0.065312 -0.019171
v -0.549259 0.083154 -0.019171
v -0.500425 0.107225 -0.019171
v -0.453201 0.132438 -0.019171
v -0.405709 0.155213 -0.019171
v -0.356764 0.171655 -0.019171
v -0.306509 0.176990 -0.019171
v -0.256985 0.168297 -0.019171
v -0.210348 0.147328 -0.019171
v -0.746111 0.130795 -0.022199
v -0.706917 0.094132 -0.022199
v -0.657663 0.074202 -0.022199
v -0.604464 0.076359 -0.022199
v -0.553775 0.093513 -0.022199
v -0.505708 0.117216 -0.022199
v -0.458419 0.142463 -0.022199
v -0.410094 0.165629 -0.022199
v -0.359331 0.182661 -0.022199
v -0.306169 0.188286 -0.022199
v -0.253543 0.179062 -0.022199
v -0.204733 0.157136 -0.022199
v -0.737419 0.138017 -0.019171
v -0.700616 0.103513 -0.019171
v -0.655830 0.085353 -0.019171
v -0.606845 0.087407 -0.019171
v -0.558292 0.103873 -0.019171
v -0.510992 0.127206 -0.019171
v -0.463636 0.152488 -0.019171
v -0.414479 0.176045 -0.019171
v -0.361898 0.193667 -0.019171
v -0.305828 0.199582 -0.019171
v -0.250102 0.189826 -0.019171
v -0.199118 0.166943 -0.019171
v -0.731055 0.143303 -0.010898
v -0.696003 0.110381 -0.010898
v -0.654487 0.093517 -0.010898
v -0.608587 0.095495 -0.010898
v -0.561598 0.111456 -0.010898
v -0.514860 0.134519 -0.010898
v -0.467455 0.159826 -0.010898
v -0.417690 0.183670 -0.010898
v -0.363777 0.201723 -0.010898
v -0.305579 0.207851 -0.010898
v -0.247583 0.197706 -0.010898
v -0.195007 0.174123 -0.010898
v -0.764510 0.221335 0.000403
v -0.779956 0.235181 0.000403
v -0.779396 0.210362 -0.031628
v -0.760041 0.206003 -0.018090
v -0.791508 0.195327 0.037390
v -0.811436 0.191742 0.032435
v -0.822597 0.184095 0.018897
v -0.828060 0.183315 0.000403
v -0.820743 0.181380 -0.018090
v -0.801719 0.177504 -0.031628
v -0.796694 0.202925 -0.036584
v -0.782031 0.210512 0.018897
v -0.795875 0.201724 0.032435
v -0.804813 0.182037 0.018897
v -0.818889 0.178663 0.000403
v -0.812332 0.193053 -0.018090
v -0.807239 0.218374 -0.031628
v -0.797502 0.204108 -0.018090
v -0.817003 0.199897 0.000403
v -0.815773 0.230878 0.000403
v -0.783474 0.213985 0.000403
v -0.776885 0.205689 -0.018090
v -0.805913 0.216432 0.018897
vt 0.073923 0.164770
vt 0.000086 0.164770
vt 0.000331 0.148354
vt 0.074030 0.149301
vt 0.000924 0.131995
vt 0.074387 0.133747
vt 0.001743 0.115700
vt 0.074941 0.118020
vt 0.002635 0.099455
vt 0.075605 0.102070
vt 0.003457 0.083233
vt 0.076280 0.085909
vt 0.004131 0.066906
vt 0.076871 0.069527
vt 0.076871 0.260013
vt 0.004131 0.262633
vt 0.003457 0.246307
vt 0.076280 0.243631
vt 0.002635 0.230085
vt 0.075605 0.227470
vt 0.001743 0.213840
vt 0.074941 0.211520
vt 0.000924 0.197545
vt 0.074387 0.195793
vt 0.000331 0.181186
vt 0.074030 0.180239
vt 0.233898 0.682070
vt 0.230377 0.698471
vt 0.131335 0.688180
vt 0.089415 0.653215
vt 0.981985 0.181018
vt 0.905933 0.185269
vt 0.905239 0.164770
vt 0.981151 0.164770
vt 0.824577 0.186326
vt 0.824610 0.164770
vt 0.741277 0.185167
vt 0.741757 0.164770
vt 0.658490 0.183217
vt 0.658807 0.164770
vt 0.579289 0.181812
vt 0.579480 0.164770
vt 0.503412 0.180813
vt 0.503545 0.164770
vt 0.430033 0.179986
vt 0.430134 0.164770
vt 0.358388 0.179272
vt 0.358441 0.164770
vt 0.287380 0.178852
vt 0.287402 0.164770
vt 0.216618 0.179001
vt 0.216606 0.164770
vt 0.145888 0.179516
vt 0.145814 0.164770
vt 0.984627 0.197097
vt 0.907440 0.204926
vt 0.824473 0.207175
vt 0.740184 0.204913
vt 0.657670 0.201377
vt 0.578757 0.198769
vt 0.503006 0.196892
vt 0.429669 0.195331
vt 0.358100 0.193984
vt 0.287308 0.193295
vt 0.216804 0.193465
vt 0.146200 0.194430
vt 0.988511 0.213110
vt 0.909401 0.223418
vt 0.824343 0.226773
vt 0.738751 0.223698
vt 0.656517 0.219097
vt 0.577974 0.215602
vt 0.502389 0.213053
vt 0.429090 0.210933
vt 0.357602 0.209119
vt 0.287190 0.208310
vt 0.217151 0.208396
vt 0.146714 0.209679
vt 0.992851 0.229256
vt 0.911430 0.240942
vt 0.824246 0.245205
vt 0.737304 0.241594
vt 0.655240 0.236366
vt 0.577058 0.232302
vt 0.501651 0.229320
vt 0.428392 0.226867
vt 0.356991 0.224819
vt 0.287045 0.224033
vt 0.217579 0.223962
vt 0.147337 0.225371
vt 0.996853 0.245717
vt 0.913301 0.257955
vt 0.824220 0.262883
vt 0.736055 0.258911
vt 0.654003 0.253292
vt 0.576120 0.248890
vt 0.500892 0.245685
vt 0.427690 0.243116
vt 0.356401 0.241070
vt 0.286895 0.240409
vt 0.217970 0.240151
vt 0.147946 0.241488
vt 0.999914 0.262529
vt 0.915008 0.274915
vt 0.824270 0.279848
vt 0.735022 0.275943
vt 0.652866 0.270019
vt 0.575235 0.265427
vt 0.500198 0.262173
vt 0.427103 0.259677
vt 0.355986 0.257797
vt 0.286766 0.257107
vt 0.218180 0.256857
vt 0.148411 0.257997
vt 0.996853 0.083823
vt 0.913301 0.071586
vt 0.915008 0.054625
vt 0.999914 0.067011
vt 0.824220 0.066658
vt 0.824270 0.049693
vt 0.736054 0.070630
vt 0.735022 0.053597
vt 0.654003 0.076249
vt 0.652866 0.059522
vt 0.576120 0.080651
vt 0.575235 0.064114
vt 0.500892 0.083856
vt 0.500198 0.067368
vt 0.427690 0.086425
vt 0.427103 0.069863
vt 0.356401 0.088470
vt 0.355986 0.071744
vt 0.286895 0.089131
vt 0.286766 0.072434
vt 0.217970 0.089389
vt 0.218180 0.072683
vt 0.147946 0.088052
vt 0.148411 0.071543
vt 0.992851 0.100284
vt 0.911430 0.088599
vt 0.824246 0.084335
vt 0.737304 0.087947
vt 0.655240 0.093174
vt 0.577058 0.097238
vt 0.501651 0.100220
vt 0.428392 0.102673
vt 0.356991 0.104721
vt 0.287045 0.105507
vt 0.217579 0.105579
vt 0.147337 0.104169
vt 0.988511 0.116431
vt 0.909401 0.106123
vt 0.824343 0.102767
vt 0.738751 0.105843
vt 0.656517 0.110444
vt 0.577974 0.113938
vt 0.502389 0.116487
vt 0.429090 0.118607
vt 0.357602 0.120422
vt 0.287191 0.121230
vt 0.217151 0.121144
vt 0.146714 0.119861
vt 0.984627 0.132443
vt 0.907440 0.124615
vt 0.824473 0.122365
vt 0.740184 0.124627
vt 0.657670 0.128164
vt 0.578757 0.130771
vt 0.503007 0.132648
vt 0.429669 0.134209
vt 0.358100 0.135556
vt 0.287308 0.136245
vt 0.216804 0.136075
vt 0.146200 0.135110
vt 0.981985 0.148522
vt 0.905933 0.144272
vt 0.824577 0.143215
vt 0.741277 0.144374
vt 0.658490 0.146323
vt 0.579289 0.147729
vt 0.503412 0.148728
vt 0.430033 0.149554
vt 0.358388 0.150268
vt 0.287380 0.150689
vt 0.216618 0.150539
vt 0.145888 0.150025
vt 0.111892 0.714729
vt 0.083797 0.714615
vt 0.230241 0.731949
vt 0.233629 0.748379
vt 0.114641 0.771674
vt 0.131119 0.741435
vt 0.239115 0.666126
vt 0.128812 0.633628
vt 0.245791 0.650737
vt 0.126351 0.603841
vt 0.253430 0.635802
vt 0.137238 0.578651
vt 0.261753 0.621237
vt 0.147249 0.552855
vt 0.253181 0.794620
vt 0.261753 0.809040
vt 0.148455 0.879401
vt 0.142037 0.851480
vt 0.245373 0.779773
vt 0.148698 0.818203
vt 0.238822 0.764330
vt 0.115782 0.799567
vt 0.229209 0.715206
vt 0.536451 0.676756
vt 0.495106 0.677913
vt 0.485098 0.639666
vt 0.432912 0.650309
vt 0.444653 0.661144
vt 0.414585 0.673137
vt 0.418870 0.689369
vt 0.401271 0.688731
vt 0.407381 0.710626
vt 0.395242 0.710432
vt 0.403795 0.733020
vt 0.423247 0.739204
vt 0.401605 0.765776
vt 0.439029 0.760119
vt 0.432983 0.772884
vt 0.456609 0.774705
vt 0.449718 0.745251
vt 0.431084 0.714648
vt 0.451898 0.713897
vt 0.499115 0.724916
vt 0.472641 0.764454
vt 0.485421 0.783192
vt 0.453501 0.696341
vt 0.536451 0.742740
vn 0.5915 0.8063 0.0000
vn 0.6260 0.7798 -0.0000
vn 0.5429 0.6762 -0.4980
vn 0.5136 0.7004 -0.4957
vn 0.3153 0.3928 -0.8639
vn 0.3000 0.4090 -0.8618
vn 0.0030 0.0038 -1.0000
vn 0.0056 0.0077 -1.0000
vn -0.3109 -0.3872 -0.8680
vn -0.2920 -0.3971 -0.8701
vn -0.5415 -0.6743 -0.5021
vn -0.5118 -0.6959 -0.5038
vn -0.6262 -0.7797 0.0000
vn -0.5922 -0.8058 0.0000
vn -0.5416 -0.6743 0.5019
vn -0.5118 -0.6957 0.5041
vn -0.3109 -0.3871 0.8680
vn -0.2920 -0.3971 0.8701
vn 0.0031 0.0038 1.0000
vn 0.0056 0.0078 1.0000
vn 0.3154 0.3927 0.8639
vn 0.3001 0.4091 0.8617
vn 0.5429 0.6762 0.4980
vn 0.5136 0.7003 0.4958
vn 0.4722 0.1404 0.8702
vn 0.7713 0.3191 0.5507
vn 0.7230 0.3623 0.5882
vn 0.4013 0.3154 0.8599
vn 0.5894 0.6277 0.5085
vn 0.4658 0.7176 0.5177
vn 0.5452 0.8383 -0.0000
vn 0.6847 0.7288 -0.0000
vn 0.1436 0.8412 0.5213
vn 0.1679 0.9858 0.0000
vn -0.1621 0.8428 0.5132
vn -0.1896 0.9819 0.0000
vn -0.3313 0.7963 0.5061
vn -0.3844 0.9232 0.0000
vn -0.3954 0.7696 0.5014
vn -0.4572 0.8894 0.0000
vn -0.3915 0.7738 0.4979
vn -0.4517 0.8922 0.0000
vn -0.3259 0.8061 0.4940
vn -0.3747 0.9271 0.0000
vn -0.1841 0.8523 0.4896
vn -0.2110 0.9775 -0.0000
vn 0.0301 0.8729 0.4870
vn 0.0344 0.9994 0.0000
vn 0.2548 0.8347 0.4882
vn 0.2920 0.9564 0.0000
vn 0.4212 0.7620 0.4919
vn 0.4836 0.8753 -0.0000
vn 0.3298 0.3517 0.8761
vn 0.2549 0.3940 0.8830
vn 0.0783 0.4571 0.8860
vn -0.0894 0.4681 0.8791
vn -0.1878 0.4518 0.8721
vn -0.2273 0.4425 0.8675
vn -0.2274 0.4495 0.8639
vn -0.1914 0.4731 0.8600
vn -0.1094 0.5062 0.8555
vn 0.0180 0.5220 0.8528
vn 0.1520 0.4976 0.8540
vn 0.2487 0.4498 0.8578
vn -0.0197 -0.0212 0.9996
vn -0.0206 -0.0344 0.9992
vn -0.0084 -0.0452 0.9989
vn 0.0046 -0.0313 0.9995
vn 0.0053 -0.0137 0.9999
vn 0.0016 -0.0033 1.0000
vn -0.0021 0.0043 1.0000
vn -0.0049 0.0128 0.9999
vn -0.0047 0.0235 0.9997
vn 0.0011 0.0305 0.9995
vn 0.0076 0.0263 0.9996
vn 0.0087 0.0164 0.9998
vn -0.3584 -0.3840 0.8509
vn -0.2833 -0.4475 0.8482
vn -0.0921 -0.5251 0.8460
vn 0.0934 -0.5155 0.8518
vn 0.1947 -0.4727 0.8594
vn 0.2295 -0.4473 0.8645
vn 0.2244 -0.4428 0.8681
vn 0.1846 -0.4537 0.8718
vn 0.1035 -0.4706 0.8763
vn -0.0160 -0.4762 0.8792
vn -0.1414 -0.4579 0.8777
vn -0.2363 -0.4247 0.8739
vn -0.5969 -0.6401 0.4837
vn -0.4683 -0.7401 0.4827
vn -0.1516 -0.8636 0.4808
vn 0.1554 -0.8601 0.4858
vn 0.3311 -0.8044 0.4933
vn 0.3957 -0.7711 0.4988
vn 0.3910 -0.7714 0.5020
vn 0.3253 -0.7990 0.5058
vn 0.1851 -0.8398 0.5104
vn -0.0287 -0.8575 0.5136
vn -0.2538 -0.8207 0.5120
vn -0.4191 -0.7525 0.5080
vn -0.6818 -0.7315 -0.0000
vn -0.5345 -0.8452 -0.0000
vn -0.1729 -0.9849 -0.0000
vn 0.1775 -0.9841 -0.0000
vn 0.3804 -0.9248 -0.0000
vn 0.4566 -0.8897 0.0000
vn 0.4518 -0.8921 0.0000
vn 0.3772 -0.9261 -0.0000
vn 0.2155 -0.9765 -0.0000
vn -0.0334 -0.9994 -0.0000
vn -0.2957 -0.9553 0.0000
vn -0.4868 -0.8735 0.0000
vn -0.5969 -0.6401 -0.4837
vn -0.4683 -0.7401 -0.4827
vn -0.1516 -0.8636 -0.4808
vn 0.1554 -0.8601 -0.4858
vn 0.3311 -0.8044 -0.4933
vn 0.3957 -0.7714 -0.4983
vn 0.3910 -0.7714 -0.5020
vn 0.3254 -0.7989 -0.5058
vn 0.1851 -0.8398 -0.5104
vn -0.0287 -0.8575 -0.5136
vn -0.2538 -0.8207 -0.5120
vn -0.4191 -0.7525 -0.5080
vn -0.3584 -0.3840 -0.8509
vn -0.2833 -0.4475 -0.8482
vn -0.0921 -0.5251 -0.8460
vn 0.0934 -0.5155 -0.8518
vn 0.1947 -0.4727 -0.8595
vn 0.2295 -0.4472 -0.8645
vn 0.2244 -0.4428 -0.8681
vn 0.1846 -0.4537 -0.8718
vn 0.1035 -0.4707 -0.8762
vn -0.0160 -0.4763 -0.8791
vn -0.1414 -0.4579 -0.8777
vn -0.2363 -0.4247 -0.8739
vn -0.0197 -0.0212 -0.9996
vn -0.0206 -0.0344 -0.9992
vn -0.0084 -0.0452 -0.9989
vn 0.0046 -0.0313 -0.9995
vn 0.0053 -0.0138 -0.9999
vn 0.0016 -0.0033 -1.0000
vn -0.0021 0.0043 -1.0000
vn -0.0049 0.0128 -0.9999
vn -0.0047 0.0235 -0.9997
vn 0.0012 0.0305 -0.9995
vn 0.0076 0.0263 -0.9996
vn 0.0087 0.0164 -0.9998
vn 0.3298 0.3517 -0.8761
vn 0.2549 0.3940 -0.8831
vn 0.0783 0.4570 -0.8860
vn -0.0894 0.4681 -0.8791
vn -0.1878 0.4518 -0.8721
vn -0.2273 0.4425 -0.8675
vn -0.2274 0.4494 -0.8639
vn -0.1914 0.4731 -0.8600
vn -0.1094 0.5062 -0.8555
vn 0.0180 0.5220 -0.8527
vn 0.1520 0.4976 -0.8540
vn 0.2487 0.4498 -0.8578
vn 0.5894 0.6277 -0.5085
vn 0.4658 0.7177 -0.5177
vn 0.1436 0.8412 -0.5213
vn -0.1621 0.8428 -0.5132
vn -0.3313 0.7963 -0.5061
vn -0.3953 0.7699 -0.5010
vn -0.3915 0.7738 -0.4980
vn -0.3259 0.8060 -0.4940
vn -0.1841 0.8523 -0.4896
vn 0.0301 0.8728 -0.4871
vn 0.2548 0.8347 -0.4882
vn 0.4212 0.7620 -0.4918
vn 0.8544 0.5196 -0.0000
vn -0.3120 0.9484 -0.0570
vn 0.8038 0.3315 -0.4940
vn 0.4524 0.1059 -0.8855
vn 0.4415 0.3081 -0.8427
vn 0.7458 0.3882 -0.5413
vn 0.1273 -0.1148 0.9852
vn 0.1543 -0.0725 0.9854
vn -0.3363 -0.4358 0.8349
vn -0.4743 -0.3543 0.8059
vn -0.6146 -0.6253 0.4808
vn -0.6774 -0.5416 0.4978
vn -0.7177 -0.6963 0.0112
vn -0.7335 -0.6792 0.0243
vn -0.6312 -0.6489 -0.4249
vn -0.7509 -0.5379 -0.3832
vn -0.2945 -0.4320 -0.8524
vn -0.3334 -0.3891 -0.8587
vn 0.1313 -0.1143 -0.9847
vn 0.0879 -0.0380 -0.9954
vn 0.9096 0.4154 -0.0000
vn -0.0086 0.9623 0.2719
vn -0.7931 0.4748 0.3814
vn -0.8658 0.3689 0.3381
vn -0.6732 0.7337 0.0919
vn -0.8719 0.2767 -0.4040
vn -0.5724 0.8166 -0.0744
vn -0.3486 0.8434 -0.4089
vn -0.9756 0.2133 0.0527
vn -0.5472 0.8366 -0.0259
vn 0.0016 0.9794 -0.2019
vn -0.0734 0.9112 -0.4053
vn -0.5581 0.6152 0.5569
usemtl None.007
s 1
f 1/1/1 2/2/2 3/3/3 4/4/4
f 4/4/4 3/3/3 5/5/5 6/6/6
f 6/6/6 5/5/5 7/7/7 8/8/8
f 8/8/8 7/7/7 9/9/9 10/10/10
f 10/10/10 9/9/9 11/11/11 12/12/12
f 12/12/12 11/11/11 13/13/13 14/14/14
f 14/15/14 13/16/13 15/17/15 16/18/16
f 16/18/16 15/17/15 17/19/17 18/20/18
f 18/20/18 17/19/17 19/21/19 20/22/20
f 20/22/20 19/21/19 21/23/21 22/24/22
f 22/24/22 21/23/21 23/25/23 24/26/24
f 24/26/24 23/25/23 2/2/2 1/1/1
f 25/27/25 26/28/26 27/29/27 28/30/28
f 26/31/29 29/32/30 30/33/31 31/34/32
f 29/32/30 32/35/33 33/36/34 30/33/31
f 32/35/33 34/37/35 35/38/36 33/36/34
f 34/37/35 36/39/37 37/40/38 35/38/36
f 36/39/37 38/41/39 39/42/40 37/40/38
f 38/41/39 40/43/41 41/44/42 39/42/40
f 40/43/41 42/45/43 43/46/44 41/44/42
f 42/45/43 44/47/45 45/48/46 43/46/44
f 44/47/45 46/49/47 47/50/48 45/48/46
f 46/49/47 48/51/49 49/52/50 47/50/48
f 48/51/49 50/53/51 51/54/52 49/52/50
f 50/53/51 24/26/24 1/1/1 51/54/52
f 25/55/53 52/56/54 29/32/30 26/31/29
f 52/56/54 53/57/55 32/35/33 29/32/30
f 53/57/55 54/58/56 34/37/35 32/35/33
f 54/58/56 55/59/57 36/39/37 34/37/35
f 55/59/57 56/60/58 38/41/39 36/39/37
f 56/60/58 57/61/59 40/43/41 38/41/39
f 57/61/59 58/62/60 42/45/43 40/43/41
f 58/62/60 59/63/61 44/47/45 42/45/43
f 59/63/61 60/64/62 46/49/47 44/47/45
f 60/64/62 61/65/63 48/51/49 46/49/47
f 61/65/63 62/66/64 50/53/51 48/51/49
f 62/66/64 22/24/22 24/26/24 50/53/51
f 63/67/65 64/68/66 52/56/54 25/55/53
f 64/68/66 65/69/67 53/57/55 52/56/54
f 65/69/67 66/70/68 54/58/56 53/57/55
f 66/70/68 67/71/69 55/59/57 54/58/56
f 67/71/69 68/72/70 56/60/58 55/59/57
f 68/72/70 69/73/71 57/61/59 56/60/58
f 69/73/71 70/74/72 58/62/60 57/61/59
f 70/74/72 71/75/73 59/63/61 58/62/60
f 71/75/73 72/76/74 60/64/62 59/63/61
f 72/76/74 73/77/75 61/65/63 60/64/62
f 73/77/75 74/78/76 62/66/64 61/65/63
f 74/78/76 20/22/20 22/24/22 62/66/64
f 75/79/77 76/80/78 64/68/66 63/67/65
f 76/80/78 77/81/79 65/69/67 64/68/66
f 77/81/79 78/82/80 66/70/68 65/69/67
f 78/82/80 79/83/81 67/71/69 66/70/68
f 79/83/81 80/84/82 68/72/70 67/71/69
f 80/84/82 81/85/83 69/73/71 68/72/70
f 81/85/83 82/86/84 70/74/72 69/73/71
f 82/86/84 83/87/85 71/75/73 70/74/72
f 83/87/85 84/88/86 72/76/74 71/75/73
f 84/88/86 85/89/87 73/77/75 72/76/74
f 85/89/87 86/90/88 74/78/76 73/77/75
f 86/90/88 18/20/18 20/22/20 74/78/76
f 87/91/89 88/92/90 76/80/78 75/79/77
f 88/92/90 89/93/91 77/81/79 76/80/78
f 89/93/91 90/94/92 78/82/80 77/81/79
f 90/94/92 91/95/93 79/83/81 78/82/80
f 91/95/93 92/96/94 80/84/82 79/83/81
f 92/96/94 93/97/95 81/85/83 80/84/82
f 93/97/95 94/98/96 82/86/84 81/85/83
f 94/98/96 95/99/97 83/87/85 82/86/84
f 95/99/97 96/100/98 84/88/86 83/87/85
f 96/100/98 97/101/99 85/89/87 84/88/86
f 97/101/99 98/102/100 86/90/88 85/89/87
f 98/102/100 16/18/16 18/20/18 86/90/88
f 99/103/101 100/104/102 88/92/90 87/91/89
f 100/104/102 101/105/103 89/93/91 88/92/90
f 101/105/103 102/106/104 90/94/92 89/93/91
f 102/106/104 103/107/105 91/95/93 90/94/92
f 103/107/105 104/108/106 92/96/94 91/95/93
f 104/108/106 105/109/107 93/97/95 92/96/94
f 105/109/107 106/110/108 94/98/96 93/97/95
f 106/110/108 107/111/109 95/99/97 94/98/96
f 107/111/109 108/112/110 96/100/98 95/99/97
f 108/112/110 109/113/111 97/101/99 96/100/98
f 109/113/111 110/114/112 98/102/100 97/101/99
f 110/114/112 14/15/14 16/18/16 98/102/100
f 111/115/113 112/116/114 100/117/102 99/118/101
f 112/116/114 113/119/115 101/120/103 100/117/102
f 113/119/115 114/121/116 102/122/104 101/120/103
f 114/121/116 115/123/117 103/124/105 102/122/104
f 115/123/117 116/125/118 104/126/106 103/124/105
f 116/125/118 117/127/119 105/128/107 104/126/106
f 117/127/119 118/129/120 106/130/108 105/128/107
f 118/129/120 119/131/121 107/132/109 106/130/108
f 119/131/121 120/133/122 108/134/110 107/132/109
f 120/133/122 121/135/123 109/136/111 108/134/110
f 121/135/123 122/137/124 110/138/112 109/136/111
f 122/137/124 12/12/12 14/14/14 110/138/112
f 123/139/125 124/140/126 112/116/114 111/115/113
f 124/140/126 125/141/127 113/119/115 112/116/114
f 125/141/127 126/142/128 114/121/116 113/119/115
f 126/142/128 127/143/129 115/123/117 114/121/116
f 127/143/129 128/144/130 116/125/118 115/123/117
f 128/144/130 129/145/131 117/127/119 116/125/118
f 129/145/131 130/146/132 118/129/120 117/127/119
f 130/146/132 131/147/133 119/131/121 118/129/120
f 131/147/133 132/148/134 120/133/122 119/131/121
f 132/148/134 133/149/135 121/135/123 120/133/122
f 133/149/135 134/150/136 122/137/124 121/135/123
f 134/150/136 10/10/10 12/12/12 122/137/124
f 135/151/137 136/152/138 124/140/126 123/139/125
f 136/152/138 137/153/139 125/141/127 124/140/126
f 137/153/139 138/154/140 126/142/128 125/141/127
f 138/154/140 139/155/141 127/143/129 126/142/128
f 139/155/141 140/156/142 128/144/130 127/143/129
f 140/156/142 141/157/143 129/145/131 128/144/130
f 141/157/143 142/158/144 130/146/132 129/145/131
f 142/158/144 143/159/145 131/147/133 130/146/132
f 143/159/145 144/160/146 132/148/134 131/147/133
f 144/160/146 145/161/147 133/149/135 132/148/134
f 145/161/147 146/162/148 134/150/136 133/149/135
f 146/162/148 8/8/8 10/10/10 134/150/136
f 147/163/149 148/164/150 136/152/138 135/151/137
f 148/164/150 149/165/151 137/153/139 136/152/138
f 149/165/151 150/166/152 138/154/140 137/153/139
f 150/166/152 151/167/153 139/155/141 138/154/140
f 151/167/153 152/168/154 140/156/142 139/155/141
f 152/168/154 153/169/155 141/157/143 140/156/142
f 153/169/155 154/170/156 142/158/144 141/157/143
f 154/170/156 155/171/157 143/159/145 142/158/144
f 155/171/157 156/172/158 144/160/146 143/159/145
f 156/172/158 157/173/159 145/161/147 144/160/146
f 157/173/159 158/174/160 146/162/148 145/161/147
f 158/174/160 6/6/6 8/8/8 146/162/148
f 159/175/161 160/176/162 148/164/150 147/163/149
f 160/176/162 161/177/163 149/165/151 148/164/150
f 161/177/163 162/178/164 150/166/152 149/165/151
f 162/178/164 163/179/165 151/167/153 150/166/152
f 163/179/165 164/180/166 152/168/154 151/167/153
f 164/180/166 165/181/167 153/169/155 152/168/154
f 165/181/167 166/182/168 154/170/156 153/169/155
f 166/182/168 167/183/169 155/171/157 154/170/156
f 167/183/169 168/184/170 156/172/158 155/171/157
f 168/184/170 169/185/171 157/173/159 156/172/158
f 169/185/171 170/186/172 158/174/160 157/173/159
f 170/186/172 4/4/4 6/6/6 158/174/160
f 31/34/32 30/33/31 160/176/162 159/175/161
f 30/33/31 33/36/34 161/177/163 160/176/162
f 33/36/34 35/38/36 162/178/164 161/177/163
f 35/38/36 37/40/38 163/179/165 162/178/164
f 37/40/38 39/42/40 164/180/166 163/179/165
f 39/42/40 41/44/42 165/181/167 164/180/166
f 41/44/42 43/46/44 166/182/168 165/181/167
f 43/46/44 45/48/46 167/183/169 166/182/168
f 45/48/46 47/50/48 168/184/170 167/183/169
f 47/50/48 49/52/50 169/185/171 168/184/170
f 49/52/50 51/54/52 170/186/172 169/185/171
f 51/54/52 1/1/1 4/4/4 170/186/172
f 171/187/173 172/188/174 27/29/27
f 159/189/175 147/190/176 173/191/177 174/192/178
f 63/193/179 25/27/25 28/30/28 175/194/180
f 75/195/181 63/193/179 175/194/180 176/196/182
f 87/197/183 75/195/181 176/196/182 177/198/184
f 99/199/185 87/197/183 177/198/184 178/200/186
f 111/201/187 99/202/185 178/203/186 179/204/188
f 123/205/189 111/201/187 179/204/188 180/206/190
f 135/207/191 123/205/189 180/206/190 181/208/192
f 26/28/26 31/209/193 171/187/173 27/29/27
f 31/209/193 159/189/175 174/192/178 171/187/173
f 147/190/176 135/207/191 181/208/192 173/191/177
f 27/210/27 182/211/194 28/212/28
f 175/213/180 183/214/195 176/215/182
f 176/215/182 184/216/196 177/217/184
f 177/217/184 185/218/197 178/219/186
f 179/220/188 186/221/198 180/222/190
f 180/222/190 187/223/199 181/224/192
f 181/224/192 187/223/199 173/225/177
f 188/226/200 186/221/198 189/227/201 190/228/202
f 188/226/200 190/228/202 191/229/203 192/230/204
f 186/221/198 179/220/188 185/218/197 189/227/201
f 187/223/199 180/222/190 186/221/198 188/226/200
f 173/225/177 187/223/199 188/226/200 192/230/204
f 192/230/204 174/231/178 173/225/177
f 28/212/28 182/211/194 193/232/205 183/214/195
f 192/230/204 191/229/203 172/233/174 174/231/178
f 183/214/195 175/213/180 28/212/28
f 176/215/182 183/214/195 193/232/205 184/216/196
f 189/227/201 185/218/197 177/217/184 184/216/196
f 178/219/186 185/218/197 179/220/188
f 190/228/202 189/227/201 184/216/196 193/232/205
f 172/233/174 191/229/203 182/211/194 27/210/27
f 172/188/174 171/187/173 174/192/178
f 191/229/203 190/228/202 193/232/205 182/211/194
