# Blender v3.0.0 OBJ File: ''
# www.blender.org
mtllib 3.mtl
o Waist_2_Cube.078
v 0.145554 0.097433 0.061722
v 0.145554 0.167761 0.061722
v 0.127512 0.167761 0.061722
v 0.127512 0.097433 0.061722
v 0.127512 0.167761 -0.061722
v 0.127512 0.097433 -0.061722
v 0.145554 0.167761 -0.061722
v 0.145554 0.097433 -0.061722
v 0.145554 0.158433 0.045349
v 0.145554 0.158433 -0.045349
v 0.135026 0.158433 0.045349
v 0.135026 0.158433 -0.045349
v 0.145554 0.106761 -0.045349
v 0.145554 0.106761 0.045349
v 0.135026 0.106761 -0.045349
v 0.135026 0.106761 0.045349
v 0.139027 0.108246 0.267633
v 0.139027 0.156948 0.267633
v -0.139027 0.156948 0.267633
v -0.139027 0.108246 0.267633
v -0.139027 0.156948 -0.267633
v -0.139027 0.108246 -0.267633
v 0.139027 0.156948 -0.267633
v 0.139027 0.108246 -0.267633
v 0.139027 0.039146 0.267633
v 0.139027 0.068900 0.267633
v -0.139027 0.068900 0.267633
v -0.139027 0.039146 0.267633
v -0.139027 0.068900 -0.267633
v -0.139027 0.039146 -0.267633
v 0.139027 0.068900 -0.267633
v 0.139027 0.039146 -0.267633
v 0.071223 0.095525 0.295839
v 0.071223 0.170470 0.295839
v -0.071223 0.170470 0.295839
v -0.071223 0.095525 0.295839
v -0.071223 0.170470 0.225319
v -0.071223 0.095525 0.225319
v 0.071223 0.170470 0.225319
v 0.071223 0.095525 0.225319
v 0.011037 0.066653 0.299978
v 0.011037 0.115543 0.299978
v -0.011037 0.115543 0.299978
v -0.011037 0.066653 0.299978
v -0.011037 0.115543 0.288342
v -0.011037 0.066653 0.288342
v 0.011037 0.066653 0.288342
v 0.011037 0.115543 0.288342
v 0.061994 -0.034234 0.291270
v 0.061994 0.096972 0.291270
v -0.061994 0.096972 0.291270
v -0.061994 -0.034234 0.291270
v -0.061994 0.096972 0.251041
v -0.061994 -0.034234 0.251041
v 0.061994 0.096972 0.251041
v 0.061994 -0.034234 0.251041
v 0.071223 0.095525 -0.295839
v -0.071223 0.095525 -0.295839
v -0.071223 0.170470 -0.295839
v 0.071223 0.170470 -0.295839
v -0.071223 0.095525 -0.225319
v -0.071223 0.170470 -0.225319
v 0.071223 0.095525 -0.225319
v 0.071223 0.170470 -0.225319
v 0.011037 0.066653 -0.299978
v -0.011037 0.066653 -0.299978
v -0.011037 0.115543 -0.299978
v 0.011037 0.115543 -0.299978
v -0.011037 0.066653 -0.288342
v -0.011037 0.115543 -0.288342
v 0.011037 0.066653 -0.288342
v 0.011037 0.115543 -0.288342
v 0.061994 -0.034234 -0.291270
v -0.061994 -0.034234 -0.291270
v -0.061994 0.096972 -0.291270
v 0.061994 0.096972 -0.291270
v -0.061994 -0.034234 -0.251041
v -0.061994 0.096972 -0.251041
v 0.061994 -0.034234 -0.251041
v 0.061994 0.096972 -0.251041
vt 0.431407 0.693399
vt 0.431407 0.747682
vt 0.417481 0.747682
vt 0.417481 0.693399
vt 0.363198 0.747682
vt 0.417481 0.842962
vt 0.363198 0.842962
vt 0.417481 0.897245
vt 0.431407 0.842962
vt 0.431407 0.897245
vt 0.438607 0.760319
vt 0.438607 0.830325
vt 0.417481 0.992526
vt 0.431407 0.992526
vt 0.963284 0.299037
vt 0.963284 0.229032
vt 0.971410 0.229032
vt 0.971410 0.299037
vt 0.485690 0.842962
vt 0.478490 0.830325
vt 0.485690 0.747682
vt 0.478490 0.760319
vt 0.963284 0.119143
vt 0.963284 0.079260
vt 0.971410 0.079260
vt 0.971410 0.119143
vt 0.963284 0.189148
vt 0.971410 0.189148
vt 0.007475 0.045065
vt 0.045065 0.045065
vt 0.045065 0.259682
vt 0.007474 0.259682
vt 0.045065 0.297273
vt 0.458212 0.259682
vt 0.458212 0.297272
vt 0.495802 0.259682
vt 0.458211 0.045065
vt 0.495802 0.045065
vt 0.458211 0.007474
vt 0.045065 0.007475
vt 0.458212 0.511889
vt 0.045065 0.511889
vt 0.496130 0.733750
vt 0.496130 0.710784
vt 0.710746 0.710784
vt 0.710746 0.733749
vt 0.733712 0.710784
vt 0.710746 0.297638
vt 0.733712 0.297638
vt 0.710746 0.274672
vt 0.496129 0.297638
vt 0.496129 0.274672
vt 0.473163 0.297638
vt 0.473163 0.710784
vt 0.948328 0.297638
vt 0.948328 0.710784
vt 0.177600 0.692276
vt 0.119754 0.692276
vt 0.119754 0.582329
vt 0.177600 0.582329
vt 0.119754 0.527898
vt 0.177600 0.527898
vt 0.007476 0.582329
vt 0.065323 0.582329
vt 0.065323 0.692276
vt 0.007476 0.692276
vt 0.177600 0.746707
vt 0.119754 0.746707
vt 0.232031 0.582329
vt 0.232031 0.692276
vt 0.923548 0.016460
vt 0.923548 0.054196
vt 0.906510 0.054196
vt 0.906510 0.016460
vt 0.897529 0.054196
vt 0.897529 0.016460
vt 0.932529 0.016460
vt 0.932529 0.054196
vt 0.906510 0.007479
vt 0.923548 0.007479
vt 0.906510 0.063177
vt 0.923548 0.063178
vt 0.348249 0.654652
vt 0.246977 0.654652
vt 0.246977 0.558951
vt 0.348249 0.558951
vt 0.246977 0.527900
vt 0.348249 0.527901
vt 0.348249 0.781403
vt 0.246977 0.781403
vt 0.246977 0.685703
vt 0.348249 0.685703
vt 0.379300 0.558951
vt 0.379300 0.654652
vt 0.565182 0.171859
vt 0.565182 0.061912
vt 0.623029 0.061912
vt 0.623029 0.171859
vt 0.565182 0.007481
vt 0.623029 0.007481
vt 0.735306 0.061912
vt 0.735306 0.171859
vt 0.677460 0.171859
vt 0.677460 0.061912
vt 0.565182 0.226290
vt 0.623029 0.226290
vt 0.510751 0.171859
vt 0.510751 0.061912
vt 0.956459 0.016462
vt 0.973497 0.016462
vt 0.973496 0.054198
vt 0.956459 0.054198
vt 0.982478 0.016462
vt 0.982478 0.054198
vt 0.947477 0.016462
vt 0.947477 0.054198
vt 0.956459 0.007480
vt 0.973497 0.007480
vt 0.973496 0.063179
vt 0.956459 0.063179
vt 0.781306 0.134226
vt 0.781306 0.038525
vt 0.882578 0.038525
vt 0.882578 0.134226
vt 0.781306 0.007474
vt 0.882578 0.007474
vt 0.781306 0.260977
vt 0.781306 0.165277
vt 0.882578 0.165276
vt 0.882578 0.260977
vt 0.750255 0.134226
vt 0.750255 0.038525
vn 0.0000 -0.0000 1.0000
vn -1.0000 -0.0000 0.0000
vn 0.0000 0.0000 -1.0000
vn 1.0000 -0.0000 0.0000
vn 0.0000 -1.0000 -0.0000
vn 0.0000 1.0000 0.0000
usemtl None.019
s 1
f 1/1/1 2/2/1 3/3/1 4/4/1
f 4/5/2 3/3/2 5/6/2 6/7/2
f 6/8/3 5/6/3 7/9/3 8/10/3
f 7/9/4 2/2/4 9/11/4 10/12/4
f 4/13/5 6/8/5 8/10/5 1/14/5
f 5/6/6 3/3/6 2/2/6 7/9/6
f 10/15/5 9/16/5 11/17/5 12/18/5
f 8/19/4 7/9/4 10/12/4 13/20/4
f 2/2/4 1/21/4 14/22/4 9/11/4
f 1/21/4 8/19/4 13/20/4 14/22/4
f 13/23/1 10/24/1 12/25/1 15/26/1
f 14/27/6 13/23/6 15/26/6 16/28/6
f 9/16/3 14/27/3 16/28/3 11/17/3
f 17/29/1 18/30/1 19/31/1 20/32/1
f 20/33/2 19/31/2 21/34/2 22/35/2
f 22/36/3 21/34/3 23/37/3 24/38/3
f 24/39/4 23/37/4 18/30/4 17/40/4
f 20/33/5 22/35/5 24/41/5 17/42/5
f 21/34/6 19/31/6 18/30/6 23/37/6
f 25/43/1 26/44/1 27/45/1 28/46/1
f 28/47/2 27/45/2 29/48/2 30/49/2
f 30/50/3 29/48/3 31/51/3 32/52/3
f 32/53/4 31/51/4 26/44/4 25/54/4
f 28/47/5 30/49/5 32/55/5 25/56/5
f 29/48/6 27/45/6 26/44/6 31/51/6
f 33/57/1 34/58/1 35/59/1 36/60/1
f 36/60/2 35/59/2 37/61/2 38/62/2
f 38/63/3 37/64/3 39/65/3 40/66/3
f 40/67/4 39/68/4 34/58/4 33/57/4
f 36/60/5 38/69/5 40/70/5 33/57/5
f 37/64/6 35/59/6 34/58/6 39/65/6
f 41/71/1 42/72/1 43/73/1 44/74/1
f 44/74/2 43/73/2 45/75/2 46/76/2
f 47/77/4 48/78/4 42/72/4 41/71/4
f 44/74/5 46/79/5 47/80/5 41/71/5
f 45/81/6 43/73/6 42/72/6 48/82/6
f 49/83/1 50/84/1 51/85/1 52/86/1
f 52/86/2 51/85/2 53/87/2 54/88/2
f 54/89/3 53/90/3 55/91/3 56/92/3
f 56/92/4 55/91/4 50/84/4 49/83/4
f 52/86/5 54/93/5 56/94/5 49/83/5
f 57/95/3 58/96/3 59/97/3 60/98/3
f 58/96/2 61/99/2 62/100/2 59/97/2
f 61/101/1 63/102/1 64/103/1 62/104/1
f 63/105/4 57/95/4 60/98/4 64/106/4
f 58/96/5 57/95/5 63/107/5 61/108/5
f 62/104/6 64/103/6 60/98/6 59/97/6
f 65/109/3 66/110/3 67/111/3 68/112/3
f 66/110/2 69/113/2 70/114/2 67/111/2
f 71/115/4 65/109/4 68/112/4 72/116/4
f 66/110/5 65/109/5 71/117/5 69/118/5
f 70/119/6 72/120/6 68/112/6 67/111/6
f 73/121/3 74/122/3 75/123/3 76/124/3
f 74/122/2 77/125/2 78/126/2 75/123/2
f 77/127/1 79/128/1 80/129/1 78/130/1
f 79/128/4 73/121/4 76/124/4 80/129/4
f 74/122/5 73/121/5 79/131/5 77/132/5
