# Blender v2.79 (sub 0) OBJ File: ''
# www.blender.org
mtllib body_22.mtl
o Plane_Plane.002
v 0.021584 -0.566065 -0.384150
v 0.075461 0.468226 -0.202007
v 0.059041 0.468226 -0.027292
v 0.056309 0.468226 -0.091317
v 0.049724 0.468226 -0.126153
v 0.048714 0.468226 -0.167185
v -0.005164 -0.583226 -0.320125
v -0.004153 -0.573573 -0.256100
v 0.002432 -0.611112 -0.192075
v 0.005163 -0.621838 -0.128050
v 0.040113 0.320470 -0.297173
v 0.021584 0.172714 -0.343847
v 0.021584 0.024958 -0.374644
v 0.021584 -0.122797 -0.384150
v 0.021584 -0.270553 -0.373425
v 0.021584 -0.418309 -0.384150
v -0.005164 -0.433019 -0.320125
v -0.005164 -0.282811 -0.309400
v -0.005163 -0.132604 -0.320125
v -0.005163 0.017604 -0.309121
v -0.005163 0.167811 -0.279822
v 0.013366 0.318019 -0.233148
v -0.004153 -0.424745 -0.256100
v -0.004153 -0.275916 -0.245375
v -0.004153 -0.127088 -0.256100
v -0.004153 0.021741 -0.243598
v -0.004153 0.170569 -0.215797
v 0.014377 0.319398 -0.169123
v 0.002432 -0.456921 -0.192075
v 0.002432 -0.302730 -0.181350
v 0.002432 -0.148539 -0.192075
v 0.002432 0.005653 -0.178075
v 0.002432 0.159844 -0.151772
v 0.020962 0.314035 -0.105098
v 0.005163 -0.466114 -0.128050
v 0.005163 -0.310391 -0.117325
v 0.005163 -0.154667 -0.128050
v 0.005164 0.001056 -0.112552
v 0.005164 0.156779 -0.087747
v 0.023693 0.312503 -0.041073
v 0.021584 -0.566065 0.384150
v 0.075461 0.468226 0.202007
v -0.011543 -0.603688 -0.000000
v 0.057704 0.468226 0.000000
v 0.059041 0.468226 0.027292
v 0.056309 0.468226 0.091318
v 0.049724 0.468226 0.126153
v 0.048714 0.468226 0.167185
v -0.005164 -0.583226 0.320125
v -0.004153 -0.613387 0.256100
v 0.002432 -0.611112 0.192075
v 0.005163 -0.621838 0.128050
v 0.040113 0.320470 0.297173
v 0.021584 0.172714 0.343847
v 0.021584 0.024958 0.374644
v 0.021584 -0.122798 0.384150
v 0.021584 -0.270554 0.373425
v 0.021584 -0.418310 0.384150
v -0.011543 -0.466114 -0.000000
v -0.011543 -0.310391 -0.000000
v -0.011543 -0.154667 -0.000000
v -0.011543 0.001056 0.000000
v -0.011543 0.156779 0.000000
v 0.006987 0.312503 0.000000
v -0.005164 -0.433019 0.320125
v -0.005164 -0.282811 0.309400
v -0.005164 -0.132604 0.320125
v -0.005163 0.017604 0.309121
v -0.005163 0.167811 0.279822
v 0.013366 0.318019 0.233148
v -0.004153 -0.424745 0.256100
v -0.004153 -0.275916 0.245375
v -0.004153 -0.127088 0.256100
v -0.004153 0.021741 0.243598
v -0.004153 0.170569 0.215797
v 0.014377 0.319398 0.169123
v 0.002432 -0.456921 0.192075
v 0.002432 -0.302730 0.181350
v 0.002432 -0.148539 0.192075
v 0.002432 0.005653 0.178075
v 0.002432 0.159844 0.151772
v 0.020962 0.314035 0.105098
v 0.005163 -0.466114 0.128050
v 0.005163 -0.310391 0.117325
v 0.005163 -0.154667 0.128050
v 0.005164 0.001056 0.112552
v 0.005164 0.156779 0.087747
v 0.023693 0.312503 0.041073
vt 0.500008 0.035767
vt 0.500007 0.156497
vt 0.386688 0.156515
vt 0.386666 0.019852
vt 0.237564 0.848081
vt 0.294776 0.843403
vt 0.353092 0.978013
vt 0.320416 0.981812
vt 0.350474 0.844535
vt 0.389154 0.977932
vt 0.406452 0.840624
vt 0.420204 0.978805
vt 0.461904 0.839430
vt 0.476250 0.978487
vt 0.500007 0.293109
vt 0.396085 0.293124
vt 0.500007 0.429645
vt 0.386815 0.429692
vt 0.500007 0.566064
vt 0.400452 0.566155
vt 0.500007 0.701874
vt 0.422081 0.702647
vt 0.500007 0.836398
vt 0.330427 0.029275
vt 0.330453 0.164588
vt 0.339882 0.299874
vt 0.330639 0.435111
vt 0.343024 0.570196
vt 0.365994 0.705125
vt 0.273945 0.062236
vt 0.273987 0.192840
vt 0.283429 0.323440
vt 0.274234 0.453986
vt 0.285403 0.584356
vt 0.309739 0.714228
vt 0.217737 0.053789
vt 0.217806 0.185591
vt 0.227214 0.317447
vt 0.218072 0.449243
vt 0.227926 0.580868
vt 0.253982 0.711858
vt 0.160273 0.068886
vt 0.160366 0.198556
vt 0.169730 0.328260
vt 0.160639 0.457976
vt 0.169286 0.587664
vt 0.196830 0.717230
vt 0.500007 0.977850
vt 0.613351 0.019855
vt 0.613325 0.156516
vt 0.762450 0.848082
vt 0.679598 0.981813
vt 0.646922 0.978014
vt 0.705238 0.843404
vt 0.610860 0.977933
vt 0.649540 0.844535
vt 0.579809 0.978806
vt 0.593562 0.840624
vt 0.523763 0.978487
vt 0.538110 0.839431
vt 0.603929 0.293123
vt 0.613199 0.429691
vt 0.599563 0.566155
vt 0.577933 0.702647
vt 0.669588 0.029280
vt 0.669559 0.164588
vt 0.660132 0.299873
vt 0.669376 0.435110
vt 0.656991 0.570196
vt 0.634020 0.705125
vt 0.726075 0.027299
vt 0.726025 0.192839
vt 0.716585 0.323440
vt 0.725781 0.453985
vt 0.714612 0.584356
vt 0.690275 0.714228
vt 0.782259 0.053787
vt 0.782207 0.185590
vt 0.772800 0.317445
vt 0.781944 0.449242
vt 0.772089 0.580869
vt 0.746032 0.711859
vt 0.839727 0.068878
vt 0.839649 0.198551
vt 0.830286 0.328259
vt 0.839376 0.457975
vt 0.830729 0.587664
vt 0.803184 0.717231
vn -1.0000 0.0000 0.0000
vn -1.0000 0.0023 0.0000
vn -0.9991 0.0004 -0.0431
vn -0.9990 0.0000 -0.0443
vn -0.8684 0.3055 -0.3905
vn -0.9442 0.2583 -0.2044
vn -0.9336 0.3150 -0.1708
vn -0.8026 0.4197 -0.4239
vn -0.9847 0.1592 0.0699
vn -0.9735 0.2104 0.0897
vn -0.9847 0.1525 0.0840
vn -0.9736 0.2101 0.0888
vn -0.9752 0.1907 -0.1123
vn -0.9626 0.2474 -0.1099
vn -0.9987 -0.0001 -0.0502
vn -1.0000 0.0011 0.0000
vn -0.9991 0.0003 -0.0423
vn -0.9999 0.0101 0.0000
vn -0.9986 0.0020 -0.0525
vn -0.9965 0.0837 0.0000
vn -0.9951 0.0641 -0.0742
vn -0.9769 0.2136 0.0000
vn -0.9979 0.0000 0.0650
vn -0.9973 -0.0021 0.0725
vn -0.9975 -0.0007 0.0707
vn -0.9973 0.0001 0.0739
vn -0.9974 -0.0091 0.0707
vn -0.9963 0.0394 0.0760
vn -0.9980 0.0000 0.0634
vn -0.9984 -0.0025 0.0571
vn -0.9981 0.0010 0.0613
vn -0.9984 -0.0011 0.0564
vn -0.9984 -0.0076 0.0556
vn -0.9970 0.0511 0.0574
vn -0.9833 0.0000 -0.1819
vn -0.9814 0.0061 -0.1921
vn -0.9838 0.0013 -0.1794
vn -0.9803 -0.0017 -0.1974
vn -0.9811 0.0260 -0.1915
vn -0.9767 0.1058 -0.1867
vn -0.9227 0.0000 -0.3854
vn -0.9237 0.0152 -0.3827
vn -0.9227 -0.0033 -0.3855
vn -0.9235 0.0016 -0.3836
vn -0.9250 0.0504 -0.3767
vn -0.9173 0.1445 -0.3709
vn -0.9609 0.2767 0.0000
vn -0.9990 0.0000 0.0443
vn -0.9991 0.0004 0.0431
vn -0.8684 0.3055 0.3905
vn -0.8026 0.4197 0.4239
vn -0.9336 0.3150 0.1708
vn -0.9442 0.2583 0.2044
vn -0.9735 0.2104 -0.0897
vn -0.9847 0.1592 -0.0699
vn -0.9736 0.2101 -0.0888
vn -0.9847 0.1525 -0.0840
vn -0.9626 0.2474 0.1099
vn -0.9752 0.1907 0.1123
vn -0.9987 -0.0001 0.0502
vn -0.9991 0.0003 0.0423
vn -0.9986 0.0020 0.0525
vn -0.9951 0.0641 0.0742
vn -0.9974 0.0000 -0.0713
vn -0.9973 -0.0021 -0.0725
vn -0.9975 -0.0007 -0.0707
vn -0.9973 0.0001 -0.0739
vn -0.9974 -0.0091 -0.0707
vn -0.9963 0.0394 -0.0760
vn -0.9978 0.0000 -0.0656
vn -0.9984 -0.0025 -0.0571
vn -0.9981 0.0010 -0.0613
vn -0.9984 -0.0011 -0.0564
vn -0.9984 -0.0076 -0.0556
vn -0.9970 0.0511 -0.0574
vn -0.9892 0.0000 0.1468
vn -0.9814 0.0061 0.1921
vn -0.9838 0.0013 0.1794
vn -0.9803 -0.0017 0.1974
vn -0.9811 0.0260 0.1915
vn -0.9767 0.1058 0.1867
vn -0.9227 0.0000 0.3854
vn -0.9237 0.0152 0.3827
vn -0.9227 -0.0033 0.3855
vn -0.9235 0.0016 0.3836
vn -0.9250 0.0504 0.3767
vn -0.9173 0.1445 0.3709
usemtl None
s 1
f 43/1/1 59/2/2 35/3/3 10/4/4
f 11/5/5 22/6/6 6/7/7 2/8/8
f 22/6/6 28/9/9 5/10/10 6/7/7
f 28/9/9 34/11/11 4/12/12 5/10/10
f 34/11/11 40/13/13 3/14/14 4/12/12
f 35/3/3 59/2/2 60/15/1 36/16/15
f 36/16/15 60/15/1 61/17/16 37/18/17
f 37/18/17 61/17/16 62/19/18 38/20/19
f 38/20/19 62/19/18 63/21/20 39/22/21
f 39/22/21 63/21/20 64/23/22 40/13/13
f 9/24/23 10/4/4 35/3/3 29/25/24
f 29/25/24 35/3/3 36/16/15 30/26/25
f 30/26/25 36/16/15 37/18/17 31/27/26
f 31/27/26 37/18/17 38/20/19 32/28/27
f 32/28/27 38/20/19 39/22/21 33/29/28
f 33/29/28 39/22/21 40/13/13 34/11/11
f 8/30/29 9/24/23 29/25/24 23/31/30
f 23/31/30 29/25/24 30/26/25 24/32/31
f 24/32/31 30/26/25 31/27/26 25/33/32
f 25/33/32 31/27/26 32/28/27 26/34/33
f 26/34/33 32/28/27 33/29/28 27/35/34
f 27/35/34 33/29/28 34/11/11 28/9/9
f 7/36/35 8/30/29 23/31/30 17/37/36
f 17/37/36 23/31/30 24/32/31 18/38/37
f 18/38/37 24/32/31 25/33/32 19/39/38
f 19/39/38 25/33/32 26/34/33 20/40/39
f 20/40/39 26/34/33 27/35/34 21/41/40
f 21/41/40 27/35/34 28/9/9 22/6/6
f 1/42/41 7/36/35 17/37/36 16/43/42
f 16/43/42 17/37/36 18/38/37 15/44/43
f 15/44/43 18/38/37 19/39/38 14/45/44
f 14/45/44 19/39/38 20/40/39 13/46/45
f 13/46/45 20/40/39 21/41/40 12/47/46
f 12/47/46 21/41/40 22/6/6 11/5/5
f 40/13/13 64/23/22 44/48/47 3/14/14
f 43/1/1 52/49/48 83/50/49 59/2/2
f 53/51/50 42/52/51 48/53/52 70/54/53
f 70/54/53 48/53/52 47/55/54 76/56/55
f 76/56/55 47/55/54 46/57/56 82/58/57
f 82/58/57 46/57/56 45/59/58 88/60/59
f 83/50/49 84/61/60 60/15/1 59/2/2
f 84/61/60 85/62/61 61/17/16 60/15/1
f 85/62/61 86/63/62 62/19/18 61/17/16
f 86/63/62 87/64/63 63/21/20 62/19/18
f 87/64/63 88/60/59 64/23/22 63/21/20
f 51/65/64 77/66/65 83/50/49 52/49/48
f 77/66/65 78/67/66 84/61/60 83/50/49
f 78/67/66 79/68/67 85/62/61 84/61/60
f 79/68/67 80/69/68 86/63/62 85/62/61
f 80/69/68 81/70/69 87/64/63 86/63/62
f 81/70/69 82/58/57 88/60/59 87/64/63
f 50/71/70 71/72/71 77/66/65 51/65/64
f 71/72/71 72/73/72 78/67/66 77/66/65
f 72/73/72 73/74/73 79/68/67 78/67/66
f 73/74/73 74/75/74 80/69/68 79/68/67
f 74/75/74 75/76/75 81/70/69 80/69/68
f 75/76/75 76/56/55 82/58/57 81/70/69
f 49/77/76 65/78/77 71/72/71 50/71/70
f 65/78/77 66/79/78 72/73/72 71/72/71
f 66/79/78 67/80/79 73/74/73 72/73/72
f 67/80/79 68/81/80 74/75/74 73/74/73
f 68/81/80 69/82/81 75/76/75 74/75/74
f 69/82/81 70/54/53 76/56/55 75/76/75
f 41/83/82 58/84/83 65/78/77 49/77/76
f 58/84/83 57/85/84 66/79/78 65/78/77
f 57/85/84 56/86/85 67/80/79 66/79/78
f 56/86/85 55/87/86 68/81/80 67/80/79
f 55/87/86 54/88/87 69/82/81 68/81/80
f 54/88/87 53/51/50 70/54/53 69/82/81
f 88/60/59 45/59/58 44/48/47 64/23/22
