# Blender v3.0.0 OBJ File: ''
# www.blender.org
mtllib 4.mtl
o Body_2_Cube.073
v 0.686279 0.642674 1.372558
v 0.686279 0.642674 -1.372558
v 0.686279 1.148622 -0.767812
v 0.686279 0.642674 -1.176079
v 0.686279 0.642674 1.176079
v 0.686279 1.148622 0.767812
v 0.686279 1.914631 -0.767812
v 0.686279 1.914631 -1.176079
v 0.686279 1.914631 1.176079
v 0.686279 1.914631 0.767812
v 0.721145 0.642674 -1.407425
v 0.721145 0.642674 1.407425
v 0.721145 0.642674 1.176079
v 0.721145 1.148622 -0.767812
v 0.721145 1.148622 0.767812
v 0.721145 0.642674 -1.176079
v 0.721145 1.949497 1.176079
v 0.721145 1.949497 0.767812
v 0.721145 1.949497 -0.767812
v 0.721145 1.949497 -1.176079
v 0.744917 -1.606527 -1.431197
v 0.744917 -1.606527 1.431197
v 0.721145 0.372607 0.022521
v 0.721145 0.372607 -0.022521
v 0.686279 0.372431 0.022352
v 0.686279 0.372431 -0.022352
v 0.744917 -1.606527 -0.023093
v 0.744917 -1.606527 0.023093
v 0.709142 -1.606527 -0.000000
v 0.721145 -1.606527 1.407425
v 0.721145 -1.606527 -1.407425
v 0.721145 -1.606527 -0.023093
v 0.721145 -1.606527 0.023093
v 0.744917 -1.885088 -1.431197
v 0.744917 -1.885088 1.431197
v -0.686279 0.642674 1.372558
v -0.686279 0.642674 -1.372558
v -0.686279 1.148622 -0.767812
v -0.686279 0.642674 -1.176079
v -0.686279 0.642674 1.176079
v -0.686279 1.148622 0.767812
v -0.686279 1.914631 -0.767812
v -0.686279 1.914631 -1.176079
v -0.686279 1.914631 1.176079
v -0.686279 1.914631 0.767812
v -0.721145 0.642674 -1.407425
v -0.721145 0.642674 1.407425
v -0.721145 0.642674 1.176079
v -0.721145 1.148622 -0.767812
v -0.721145 1.148622 0.767812
v -0.721145 0.642674 -1.176079
v -0.721145 1.949497 1.176079
v -0.721145 1.949497 0.767812
v -0.721145 1.949497 -0.767812
v -0.721145 1.949497 -1.176079
v -0.744917 -1.606527 -1.431197
v -0.744917 -1.606527 1.431197
v -0.721145 -1.606527 1.407425
v -0.721145 -1.606527 -1.407425
v -0.744917 -1.885088 1.431197
v -0.744917 -1.885088 -1.431197
v 0.709142 0.372607 -0.000000
v -0.686279 0.159607 -0.022352
v -0.686279 0.159607 0.022352
v 0.686279 0.159607 1.372558
v 0.686279 0.159607 -1.372558
v -0.686279 0.159607 1.372558
v -0.686279 0.159607 -1.372558
v 0.686279 0.159607 0.022352
v 0.686279 0.159607 -0.022352
v 0.744272 -0.432295 1.432756
v 0.744272 -0.171570 1.432756
v -0.744272 -0.432295 1.432756
v -0.744272 -0.171570 1.432756
v 0.744272 -0.432295 -1.432757
v 0.744272 -0.171570 -1.432757
v -0.744272 -0.432295 -1.432757
v -0.744272 -0.171570 -1.432757
v 0.744272 -1.302685 1.432756
v 0.744272 -1.041960 1.432756
v -0.744272 -1.302685 1.432756
v -0.744272 -1.041960 1.432756
v 0.744272 -1.302685 -1.432757
v 0.744272 -1.041960 -1.432757
v -0.744272 -1.302685 -1.432757
v -0.744272 -1.041960 -1.432757
v 0.808954 -0.253948 0.878451
v 0.808954 -0.089085 0.878451
v 0.775709 -0.253948 0.878451
v 0.775709 -0.089085 0.878451
v 0.808954 -0.253948 0.797061
v 0.808954 -0.089085 0.797061
v 0.775709 -0.253948 0.797061
v 0.775709 -0.089085 0.797061
v 0.788414 -0.526883 1.071705
v 0.788414 -0.068722 1.071705
v 0.673039 -0.526883 1.071705
v 0.673039 -0.068722 1.071705
v 0.788413 -0.526883 0.603807
v 0.788413 -0.068722 0.603807
v 0.673039 -0.526883 0.603807
v 0.673039 -0.068722 0.603807
v 0.824697 -0.093121 1.088338
v 0.824697 0.210227 1.088338
v 0.667833 -0.093121 1.088338
v 0.667833 0.210227 1.088338
v 0.824697 -0.093121 0.587174
v 0.824697 0.210227 0.587174
v 0.667833 -0.093121 0.587174
v 0.667833 0.210227 0.587174
v 0.808954 -1.131982 0.878451
v 0.808954 -0.967120 0.878451
v 0.775709 -1.131982 0.878451
v 0.775709 -0.967120 0.878451
v 0.808954 -1.131982 0.797061
v 0.808954 -0.967120 0.797061
v 0.775709 -1.131982 0.797061
v 0.775709 -0.967120 0.797061
v 0.788414 -1.404918 1.071705
v 0.788414 -0.946757 1.071705
v 0.673039 -1.404918 1.071705
v 0.673039 -0.946757 1.071705
v 0.788413 -1.404918 0.603807
v 0.788413 -0.946757 0.603807
v 0.673039 -1.404918 0.603807
v 0.673039 -0.946757 0.603807
v 0.824697 -0.971155 1.088338
v 0.824697 -0.667808 1.088338
v 0.667833 -0.971155 1.088338
v 0.667833 -0.667808 1.088338
v 0.824697 -0.971155 0.587174
v 0.824697 -0.667808 0.587174
v 0.667833 -0.971155 0.587174
v 0.667833 -0.667808 0.587174
v 0.808954 -0.253948 -0.878452
v 0.808954 -0.089085 -0.878452
v 0.775709 -0.253948 -0.878452
v 0.775709 -0.089085 -0.878452
v 0.808954 -0.253948 -0.797062
v 0.808954 -0.089085 -0.797062
v 0.775709 -0.253948 -0.797062
v 0.775709 -0.089085 -0.797062
v 0.788413 -0.526883 -1.071706
v 0.788413 -0.068722 -1.071706
v 0.673039 -0.526883 -1.071706
v 0.673039 -0.068722 -1.071706
v 0.788413 -0.526883 -0.603808
v 0.788413 -0.068722 -0.603808
v 0.673039 -0.526883 -0.603808
v 0.673039 -0.068722 -0.603808
v 0.824697 -0.093121 -1.088340
v 0.824697 0.210227 -1.088340
v 0.667833 -0.093121 -1.088340
v 0.667833 0.210227 -1.088340
v 0.824697 -0.093121 -0.587175
v 0.824697 0.210227 -0.587175
v 0.667833 -0.093121 -0.587175
v 0.667833 0.210227 -0.587175
v 0.808954 -1.131982 -0.878452
v 0.808954 -0.967120 -0.878452
v 0.775709 -1.131982 -0.878452
v 0.775709 -0.967120 -0.878452
v 0.808954 -1.131982 -0.797062
v 0.808954 -0.967120 -0.797062
v 0.775709 -1.131982 -0.797062
v 0.775709 -0.967120 -0.797062
v 0.788413 -1.404918 -1.071706
v 0.788413 -0.946757 -1.071706
v 0.673039 -1.404918 -1.071706
v 0.673039 -0.946757 -1.071706
v 0.788413 -1.404918 -0.603808
v 0.788413 -0.946757 -0.603808
v 0.673039 -1.404918 -0.603808
v 0.673039 -0.946757 -0.603808
v 0.824697 -0.971155 -1.088339
v 0.824697 -0.667808 -1.088339
v 0.667833 -0.971155 -1.088339
v 0.667833 -0.667808 -1.088339
v 0.824697 -0.971155 -0.587175
v 0.824697 -0.667808 -0.587175
v 0.667833 -0.971155 -0.587175
v 0.667833 -0.667808 -0.587175
v 0.731671 0.349158 -0.000000
v 0.710978 0.349158 -0.000000
v 0.710978 0.345763 0.017071
v 0.731671 0.345763 0.017071
v 0.731671 0.346714 0.012290
v 0.710978 0.336093 0.031542
v 0.731671 0.336093 0.031542
v 0.710978 0.321621 0.041212
v 0.731671 0.321621 0.041212
v 0.710978 0.304551 0.044607
v 0.731671 0.304551 0.044607
v 0.731671 0.288859 0.044607
v 0.710978 0.288859 0.044607
v 0.710978 0.259943 0.022353
v 0.731671 0.259943 0.022353
v 0.731671 0.259943 0.012290
v 0.746779 0.259943 0.012290
v 0.746779 0.346714 0.012290
v 0.710978 0.259943 -0.000000
v 0.731671 0.259943 -0.000000
v 0.746779 0.259943 -0.000000
v 0.746779 0.349158 -0.000000
v 0.731671 0.346714 -0.012290
v 0.731671 0.345763 -0.017071
v 0.710978 0.345763 -0.017071
v 0.731671 0.336093 -0.031542
v 0.710978 0.336093 -0.031542
v 0.731671 0.321621 -0.041212
v 0.710978 0.321621 -0.041212
v 0.731671 0.304551 -0.044607
v 0.710978 0.304551 -0.044607
v 0.731671 0.288859 -0.044607
v 0.710978 0.288859 -0.044607
v 0.710978 0.259943 -0.022353
v 0.731671 0.259943 -0.022353
v 0.746779 0.346714 -0.012290
v 0.746779 0.259943 -0.012290
v 0.731671 0.259943 -0.012290
v 0.743742 0.195095 0.026559
v 0.743742 0.327858 0.026559
v 0.733435 0.327858 0.026559
v 0.733435 0.195095 0.026559
v 0.733435 0.195095 -0.026560
v 0.733435 0.327858 -0.026560
v 0.743742 0.327858 -0.026560
v 0.743742 0.195095 -0.026560
v 0.743742 0.165146 0.037045
v 0.743742 0.165929 0.025782
v 0.743742 0.186773 0.018484
v 0.733435 0.165146 0.037045
v 0.743742 0.165146 -0.037045
v 0.733435 0.165146 -0.037045
v 0.743742 0.142926 0.022563
v 0.743742 0.150464 0.015703
v 0.733435 0.142926 0.022563
v 0.733435 0.142926 -0.022563
v 0.743742 0.142926 -0.022563
v 0.733435 0.150464 0.015703
v 0.733435 0.165929 0.025782
v 0.743742 0.186773 -0.018484
v 0.733435 0.186773 0.018484
v 0.733435 0.186773 -0.018484
v 0.743742 0.165929 -0.025782
v 0.743742 0.150464 -0.015703
v 0.733435 0.165929 -0.025782
v 0.733435 0.150464 -0.015703
vt 0.725870 0.244444
vt 0.537208 0.244444
vt 0.537208 0.225039
vt 0.307737 0.008542
vt 0.397985 0.008348
vt 0.397991 0.011273
vt 0.307722 0.011467
vt 0.537207 0.027741
vt 0.494769 0.061986
vt 0.427592 0.061986
vt 0.427592 0.027741
vt 0.494769 0.190793
vt 0.427592 0.225039
vt 0.427592 0.190793
vt 0.511190 0.241706
vt 0.508266 0.244631
vt 0.393136 0.244631
vt 0.390212 0.241706
vt 0.306613 0.027741
vt 0.306613 0.061986
vt 0.393136 0.367802
vt 0.508266 0.367802
vt 0.511190 0.370727
vt 0.390212 0.370727
vt 0.008338 0.853869
vt 0.008338 0.732891
vt 0.197000 0.732891
vt 0.197000 0.853869
vt 0.390212 0.351322
vt 0.393136 0.351322
vt 0.027742 0.991668
vt 0.008336 0.991668
vt 0.011261 0.988743
vt 0.027742 0.988743
vt 0.377075 0.079457
vt 0.377075 0.146639
vt 0.374150 0.146639
vt 0.374150 0.082381
vt 0.812126 0.075515
vt 0.812126 0.008332
vt 0.815051 0.011257
vt 0.815051 0.075515
vt 0.137358 0.991668
vt 0.134433 0.988743
vt 0.259027 0.082381
vt 0.256102 0.079457
vt 0.933098 0.008333
vt 0.930174 0.011257
vt 0.134433 0.873614
vt 0.137358 0.870689
vt 0.893082 0.755116
vt 0.893082 0.876095
vt 0.704420 0.876095
vt 0.704420 0.755116
vt 0.537207 0.008335
vt 0.725869 0.008335
vt 0.744717 0.008337
vt 0.744717 0.174365
vt 0.742534 0.174365
vt 0.742577 0.008337
vt 0.213710 0.008348
vt 0.303959 0.008542
vt 0.303973 0.011467
vt 0.213703 0.011273
vt 0.746858 0.008337
vt 0.746900 0.174365
vt 0.772096 0.008336
vt 0.795461 0.008336
vt 0.795461 0.133302
vt 0.772096 0.133302
vt 0.772096 0.373398
vt 0.772096 0.255287
vt 0.795462 0.373398
vt 0.772096 0.251413
vt 0.010328 0.592648
vt 0.010328 0.713625
vt 0.008334 0.715619
vt 0.008334 0.590654
vt 0.128380 0.593655
vt 0.126443 0.592647
vt 0.130319 0.592646
vt 0.126443 0.590653
vt 0.130319 0.590652
vt 0.248430 0.590653
vt 0.246437 0.592647
vt 0.248430 0.715619
vt 0.246436 0.713625
vt 0.306613 0.190793
vt 0.306613 0.225039
vt 0.772096 0.498364
vt 0.795462 0.498364
vt 0.795462 0.738460
vt 0.772096 0.738460
vt 0.305848 0.009549
vt 0.347563 0.163916
vt 0.476369 0.163916
vt 0.476369 0.166841
vt 0.347563 0.166841
vt 0.196997 0.027741
vt 0.239436 0.061986
vt 0.239436 0.190793
vt 0.196997 0.225039
vt 0.508266 0.351322
vt 0.511190 0.351322
vt 0.027742 0.870689
vt 0.027742 0.873614
vt 0.011261 0.873614
vt 0.008337 0.870689
vt 0.259027 0.146631
vt 0.256102 0.146631
vt 0.933098 0.075507
vt 0.930174 0.075507
vt 0.559861 0.128279
vt 0.725870 0.128327
vt 0.559860 0.124500
vt 0.725869 0.124452
vt 0.008336 0.244444
vt 0.196997 0.244444
vt 0.008336 0.008335
vt 0.196997 0.008335
vt 0.920428 0.133302
vt 0.920428 0.373398
vt 0.604794 0.876864
vt 0.604794 0.748056
vt 0.687752 0.810585
vt 0.687752 0.814335
vt 0.318721 0.697331
vt 0.318721 0.713811
vt 0.278202 0.697331
vt 0.647233 0.713811
vt 0.647233 0.697331
vt 0.687752 0.697331
vt 0.508871 0.144423
vt 0.393741 0.144423
vt 0.393741 0.103903
vt 0.508871 0.103903
vt 0.318721 0.911109
vt 0.318721 0.927590
vt 0.278202 0.927590
vt 0.647233 0.927590
vt 0.647233 0.911109
vt 0.687752 0.927590
vt 0.949768 0.123462
vt 0.949768 0.008332
vt 0.990287 0.008332
vt 0.990287 0.123462
vt 0.296053 0.810585
vt 0.296053 0.814335
vt 0.278202 0.814335
vt 0.278202 0.810585
vt 0.812132 0.503873
vt 0.927261 0.503873
vt 0.927261 0.507623
vt 0.812132 0.507623
vt 0.927261 0.620877
vt 0.812132 0.620877
vt 0.812132 0.390618
vt 0.927261 0.390618
vt 0.540542 0.713811
vt 0.540542 0.748057
vt 0.540542 0.876864
vt 0.540542 0.911109
vt 0.425412 0.876864
vt 0.425412 0.911109
vt 0.361160 0.876864
vt 0.425412 0.713811
vt 0.425412 0.748056
vt 0.361160 0.748056
vt 0.133193 0.386562
vt 0.133193 0.408432
vt 0.008334 0.408432
vt 0.008334 0.386562
vt 0.738765 0.386563
vt 0.738765 0.408432
vt 0.498410 0.408432
vt 0.498410 0.386562
vt 0.373551 0.408432
vt 0.373551 0.386562
vt 0.133194 0.261704
vt 0.373551 0.261704
vt 0.373551 0.533290
vt 0.133194 0.533290
vt 0.630570 0.572907
vt 0.630570 0.551037
vt 0.755430 0.551037
vt 0.755430 0.572907
vt 0.024998 0.572906
vt 0.024998 0.551037
vt 0.265353 0.551037
vt 0.265353 0.572907
vt 0.390212 0.551037
vt 0.390212 0.572907
vt 0.630570 0.697765
vt 0.390212 0.697765
vt 0.390212 0.426179
vt 0.630570 0.426179
vt 0.825956 0.095577
vt 0.812128 0.095577
vt 0.812128 0.092788
vt 0.825956 0.092788
vt 0.825956 0.105192
vt 0.812128 0.105192
vt 0.812128 0.102404
vt 0.825956 0.102404
vt 0.828745 0.095577
vt 0.828745 0.102404
vt 0.448236 0.271384
vt 0.409806 0.271384
vt 0.409806 0.261707
vt 0.448236 0.261707
vt 0.448236 0.320309
vt 0.409806 0.320309
vt 0.409806 0.310631
vt 0.448236 0.310631
vt 0.457914 0.271384
vt 0.457914 0.310631
vt 0.950255 0.283566
vt 0.975699 0.283566
vt 0.975699 0.296724
vt 0.950255 0.296724
vt 0.950255 0.228371
vt 0.975699 0.228371
vt 0.975699 0.241529
vt 0.950255 0.241529
vt 0.937097 0.283566
vt 0.937097 0.241529
vt 0.988857 0.241529
vt 0.988857 0.283566
vt 0.859236 0.100024
vt 0.845407 0.100024
vt 0.845407 0.097236
vt 0.859236 0.097236
vt 0.859236 0.109640
vt 0.845407 0.109640
vt 0.845407 0.106851
vt 0.859236 0.106851
vt 0.862024 0.100024
vt 0.862024 0.106851
vt 0.566291 0.271384
vt 0.527861 0.271384
vt 0.527861 0.261707
vt 0.566291 0.261707
vt 0.566291 0.320309
vt 0.527861 0.320309
vt 0.527861 0.310631
vt 0.566291 0.310631
vt 0.575969 0.271384
vt 0.575969 0.310631
vt 0.886915 0.066940
vt 0.886915 0.041495
vt 0.900073 0.041495
vt 0.900073 0.066940
vt 0.831720 0.066940
vt 0.831720 0.041495
vt 0.844878 0.041495
vt 0.844878 0.066940
vt 0.886915 0.080098
vt 0.844878 0.080098
vt 0.844878 0.028338
vt 0.886915 0.028338
vt 0.745328 0.239975
vt 0.742540 0.239975
vt 0.742540 0.226146
vt 0.745328 0.226146
vt 0.754944 0.239975
vt 0.752155 0.239975
vt 0.752155 0.226146
vt 0.754944 0.226146
vt 0.745328 0.242763
vt 0.752155 0.242763
vt 0.046765 0.310634
vt 0.046765 0.320312
vt 0.008335 0.320312
vt 0.008335 0.310634
vt 0.046765 0.261709
vt 0.046765 0.271387
vt 0.008335 0.271387
vt 0.008335 0.261709
vt 0.056442 0.310634
vt 0.056442 0.271387
vt 0.288858 0.138065
vt 0.275701 0.138065
vt 0.275701 0.112620
vt 0.288858 0.112620
vt 0.344053 0.138065
vt 0.330896 0.138065
vt 0.330896 0.112620
vt 0.344053 0.112620
vt 0.288858 0.151222
vt 0.330896 0.151222
vt 0.330896 0.099462
vt 0.288858 0.099462
vt 0.745326 0.206636
vt 0.742537 0.206636
vt 0.742537 0.192807
vt 0.745326 0.192807
vt 0.754942 0.206636
vt 0.752153 0.206636
vt 0.752153 0.192807
vt 0.754942 0.192807
vt 0.745326 0.209424
vt 0.752153 0.209424
vt 0.631067 0.310629
vt 0.631067 0.320306
vt 0.592637 0.320306
vt 0.592637 0.310629
vt 0.631067 0.261704
vt 0.631067 0.271382
vt 0.592637 0.271382
vt 0.592637 0.261704
vt 0.640745 0.310629
vt 0.640745 0.271382
vt 0.975709 0.196880
vt 0.975709 0.210037
vt 0.950264 0.210037
vt 0.950264 0.196880
vt 0.975709 0.141684
vt 0.975709 0.154842
vt 0.950264 0.154842
vt 0.950264 0.141684
vt 0.988867 0.196880
vt 0.988867 0.154842
vt 0.937107 0.154842
vt 0.937107 0.196880
vt 0.438867 0.009600
vt 0.438867 0.011336
vt 0.437407 0.011336
vt 0.437407 0.009600
vt 0.437816 0.009600
vt 0.435947 0.011336
vt 0.435947 0.009600
vt 0.434487 0.011336
vt 0.434487 0.009600
vt 0.433027 0.011336
vt 0.433027 0.009600
vt 0.431711 0.009600
vt 0.431711 0.011336
vt 0.428650 0.011336
vt 0.428650 0.009600
vt 0.396450 0.086740
vt 0.396450 0.079462
vt 0.397717 0.079462
vt 0.397717 0.086740
vt 0.426775 0.011336
vt 0.426775 0.009600
vt 0.427806 0.009600
vt 0.394024 0.084635
vt 0.393739 0.083203
vt 0.393739 0.081887
vt 0.395606 0.079462
vt 0.396049 0.086660
vt 0.394835 0.085849
vt 0.398748 0.079462
vt 0.398748 0.086945
vt 0.437816 0.008333
vt 0.438867 0.008333
vt 0.414684 0.009600
vt 0.415735 0.009600
vt 0.416144 0.009600
vt 0.416144 0.011336
vt 0.414684 0.011336
vt 0.417604 0.009600
vt 0.417604 0.011336
vt 0.419064 0.009600
vt 0.419064 0.011336
vt 0.420523 0.009600
vt 0.420523 0.011336
vt 0.421840 0.009600
vt 0.421840 0.011336
vt 0.424900 0.011336
vt 0.424900 0.009600
vt 0.401046 0.086740
vt 0.399779 0.086740
vt 0.399779 0.079462
vt 0.401046 0.079462
vt 0.425744 0.009600
vt 0.403472 0.084635
vt 0.402661 0.085849
vt 0.401447 0.086660
vt 0.401890 0.079462
vt 0.403757 0.081887
vt 0.403757 0.083203
vt 0.414684 0.008333
vt 0.415735 0.008333
vt 0.426775 0.008333
vt 0.427806 0.008333
vt 0.425744 0.008333
vt 0.912593 0.099414
vt 0.923729 0.099414
vt 0.923729 0.100278
vt 0.912593 0.100278
vt 0.899035 0.100278
vt 0.887899 0.100278
vt 0.887899 0.099414
vt 0.899035 0.099414
vt 0.903586 0.095038
vt 0.903586 0.083902
vt 0.908042 0.083902
vt 0.908042 0.095038
vt 0.928185 0.100278
vt 0.928185 0.099414
vt 0.908922 0.097550
vt 0.907977 0.097484
vt 0.907365 0.095736
vt 0.909932 0.100278
vt 0.909932 0.099414
vt 0.901697 0.099414
vt 0.901697 0.100278
vt 0.907707 0.099414
vt 0.907131 0.098782
vt 0.907707 0.100278
vt 0.903922 0.100278
vt 0.903922 0.099414
vt 0.463110 0.009201
vt 0.461562 0.009201
vt 0.461562 0.008337
vt 0.463110 0.008337
vt 0.468064 0.009201
vt 0.464963 0.009201
vt 0.464963 0.008337
vt 0.468064 0.008337
vt 0.902707 0.097550
vt 0.903652 0.097484
vt 0.904497 0.098782
vt 0.904264 0.095736
vt 0.457379 0.009201
vt 0.455527 0.009201
vt 0.455527 0.008337
vt 0.457379 0.008337
vt 0.458928 0.009201
vt 0.458928 0.008337
vn 1.0000 0.0000 0.0000
vn -0.0000 0.6927 0.7212
vn 0.0000 0.0000 1.0000
vn 0.0000 1.0000 0.0000
vn 0.0000 0.0000 -1.0000
vn 0.8849 -0.0001 0.4657
vn -0.0000 0.6927 -0.7212
vn 0.8849 -0.0001 -0.4657
vn -1.0000 0.0000 0.0000
vn -0.0051 1.0000 -0.0027
vn 0.0000 -1.0000 -0.0000
vn -0.0077 1.0000 0.0000
vn -0.0051 1.0000 0.0027
vn -0.0000 0.9808 0.1951
vn 0.0000 0.8315 0.5556
vn 0.0000 0.5556 0.8315
vn 0.0000 0.1951 0.9808
vn 0.0000 -0.6099 0.7925
vn -0.0000 0.9808 -0.1951
vn -0.0000 0.8315 -0.5556
vn 0.0000 0.5556 -0.8315
vn 0.0000 0.1951 -0.9808
vn 0.0000 -0.6099 -0.7925
vn 0.0000 0.3304 0.9438
vn 0.0000 0.3304 -0.9438
vn 0.0000 -0.5460 -0.8378
vn 0.0000 -0.5460 0.8378
vn 0.0000 0.5460 -0.8378
vn 0.0000 -0.3305 0.9438
vn 0.0000 0.5460 0.8378
vn 0.0000 -0.3305 -0.9438
usemtl None.016
s off
f 31/1/1 11/2/1 16/3/1
f 24/4/2 14/5/2 3/6/2 26/7/2
f 13/8/1 15/9/1 18/10/1 17/11/1
f 14/12/1 16/3/1 20/13/1 19/14/1
f 52/15/3 44/16/3 9/17/3 17/18/3
f 52/19/4 17/11/4 18/10/4 53/20/4
f 1/21/4 36/22/4 47/23/4 12/24/4
f 58/25/3 30/26/3 12/27/3 47/28/3
f 12/24/4 13/29/4 5/30/4 1/21/4
f 16/31/4 11/32/4 2/33/4 4/34/4
f 13/29/3 17/18/3 9/17/3 5/30/3
f 18/35/5 15/36/5 6/37/5 10/38/5
f 14/39/3 19/40/3 7/41/3 3/42/3
f 20/43/5 16/31/5 4/34/5 8/44/5
f 10/38/5 45/45/5 53/46/5 18/35/5
f 54/47/3 42/48/3 7/41/3 19/40/3
f 8/44/5 43/49/5 55/50/5 20/43/5
f 31/51/5 59/52/5 46/53/5 11/54/5
f 13/8/1 12/55/1 30/56/1
f 62/57/6 29/58/6 32/59/6 24/60/6
f 15/61/7 23/62/7 25/63/7 6/64/7
f 23/65/8 33/66/8 29/58/8 62/57/8
f 57/67/3 60/68/3 35/69/3 22/70/3
f 21/71/1 27/72/1 34/73/1
f 22/70/1 35/69/1 28/74/1
f 30/75/4 58/76/4 57/77/4 22/78/4
f 29/79/4 33/80/4 32/81/4
f 27/72/1 28/74/1 35/69/1 34/73/1
f 22/78/4 28/82/4 33/80/4 30/75/4
f 27/83/4 21/84/4 31/85/4 32/81/4
f 56/86/4 59/87/4 31/85/4 21/84/4
f 54/88/4 19/14/4 20/13/4 55/89/4
f 56/90/9 61/91/9 60/92/9 57/93/9
f 28/82/4 27/83/4 32/81/4 33/80/4
f 34/73/5 61/91/5 56/90/5 21/71/5
f 62/94/10 24/4/10 26/7/10
f 49/95/4 50/96/4 41/97/4 38/98/4
f 48/99/9 52/19/9 53/20/9 50/100/9
f 49/101/9 54/88/9 55/89/9 51/102/9
f 47/23/4 36/22/4 40/103/4 48/104/4
f 51/105/4 39/106/4 37/107/4 46/108/4
f 48/104/3 40/103/3 44/16/3 52/15/3
f 53/46/5 45/45/5 41/109/5 50/110/5
f 49/111/3 38/112/3 42/48/3 54/47/3
f 55/50/5 43/49/5 39/106/5 51/105/5
f 24/113/1 32/114/1 31/1/1 16/3/1
f 16/3/1 14/12/1 24/113/1
f 23/115/1 15/9/1 13/8/1
f 30/56/1 33/116/1 23/115/1 13/8/1
f 59/117/9 51/102/9 46/118/9
f 58/76/4 59/87/4 56/86/4 57/77/4
f 48/99/9 58/119/9 47/120/9
f 34/73/11 35/69/11 60/121/11 61/122/11
f 51/102/9 59/117/9 58/119/9 48/99/9
f 51/102/9 48/99/9 50/100/9 49/101/9
f 46/108/4 37/107/4 2/33/4 11/32/4
f 38/123/1 41/124/1 64/125/1 63/126/1
f 1/127/9 5/128/9 65/129/9
f 40/130/1 36/131/1 67/132/1
f 2/133/3 37/134/3 68/135/3 66/136/3
f 4/137/9 2/138/9 66/139/9
f 37/140/1 39/141/1 68/142/1
f 36/143/5 1/144/5 65/145/5 67/146/5
f 63/126/1 68/142/1 39/141/1 38/123/1
f 41/124/1 40/130/1 67/132/1 64/125/1
f 26/7/12 25/63/12 62/94/12
f 25/147/9 26/148/9 70/149/9 69/150/9
f 5/128/9 25/147/9 69/150/9 65/129/9
f 66/139/9 70/149/9 26/148/9 4/137/9
f 64/151/4 69/152/4 70/153/4 63/154/4
f 63/154/4 70/153/4 66/155/4 68/156/4
f 62/94/13 25/63/13 23/62/13
f 64/151/4 67/157/4 65/158/4 69/152/4
f 44/159/1 40/130/1 41/124/1 45/160/1
f 42/161/1 38/123/1 39/141/1 43/162/1
f 7/163/9 8/164/9 4/137/9 3/165/9
f 9/166/9 10/167/9 6/168/9 5/128/9
f 26/148/9 3/165/9 4/137/9
f 25/147/9 5/128/9 6/168/9
f 7/163/11 42/161/11 43/162/11 8/164/11
f 9/166/11 44/159/11 45/160/11 10/167/11
f 71/169/3 72/170/3 74/171/3 73/172/3
f 73/173/9 74/174/9 78/175/9 77/176/9
f 77/176/5 78/175/5 76/177/5 75/178/5
f 75/178/1 76/177/1 72/170/1 71/169/1
f 73/179/11 77/180/11 75/178/11 71/169/11
f 78/181/4 74/182/4 72/170/4 76/177/4
f 79/183/3 80/184/3 82/185/3 81/186/3
f 81/187/9 82/188/9 86/189/9 85/190/9
f 85/190/5 86/189/5 84/191/5 83/192/5
f 83/192/1 84/191/1 80/184/1 79/183/1
f 81/193/11 85/194/11 83/192/11 79/183/11
f 86/195/4 82/196/4 80/184/4 84/191/4
f 87/197/3 88/198/3 90/199/3 89/200/3
f 93/201/5 94/202/5 92/203/5 91/204/5
f 91/204/1 92/203/1 88/198/1 87/197/1
f 89/205/11 93/206/11 91/204/11 87/197/11
f 95/207/3 96/208/3 98/209/3 97/210/3
f 101/211/5 102/212/5 100/213/5 99/214/5
f 99/214/1 100/213/1 96/208/1 95/207/1
f 97/215/11 101/216/11 99/214/11 95/207/11
f 103/217/3 104/218/3 106/219/3 105/220/3
f 109/221/5 110/222/5 108/223/5 107/224/5
f 107/224/1 108/223/1 104/218/1 103/217/1
f 105/225/11 109/226/11 107/224/11 103/217/11
f 110/227/4 106/228/4 104/218/4 108/223/4
f 111/229/3 112/230/3 114/231/3 113/232/3
f 117/233/5 118/234/5 116/235/5 115/236/5
f 115/236/1 116/235/1 112/230/1 111/229/1
f 113/237/11 117/238/11 115/236/11 111/229/11
f 119/239/3 120/240/3 122/241/3 121/242/3
f 125/243/5 126/244/5 124/245/5 123/246/5
f 123/246/1 124/245/1 120/240/1 119/239/1
f 121/247/11 125/248/11 123/246/11 119/239/11
f 127/249/3 128/250/3 130/251/3 129/252/3
f 133/253/5 134/254/5 132/255/5 131/256/5
f 131/256/1 132/255/1 128/250/1 127/249/1
f 129/257/11 133/258/11 131/256/11 127/249/11
f 134/259/4 130/260/4 128/250/4 132/255/4
f 135/261/5 137/262/5 138/263/5 136/264/5
f 141/265/3 139/266/3 140/267/3 142/268/3
f 139/266/1 135/261/1 136/264/1 140/267/1
f 137/269/11 135/261/11 139/266/11 141/270/11
f 143/271/5 145/272/5 146/273/5 144/274/5
f 149/275/3 147/276/3 148/277/3 150/278/3
f 147/276/1 143/271/1 144/274/1 148/277/1
f 145/279/11 143/271/11 147/276/11 149/280/11
f 151/281/5 153/282/5 154/283/5 152/284/5
f 157/285/3 155/286/3 156/287/3 158/288/3
f 155/286/1 151/281/1 152/284/1 156/287/1
f 153/289/11 151/281/11 155/286/11 157/290/11
f 158/291/4 156/287/4 152/284/4 154/292/4
f 159/293/5 161/294/5 162/295/5 160/296/5
f 165/297/3 163/298/3 164/299/3 166/300/3
f 163/298/1 159/293/1 160/296/1 164/299/1
f 161/301/11 159/293/11 163/298/11 165/302/11
f 167/303/5 169/304/5 170/305/5 168/306/5
f 173/307/3 171/308/3 172/309/3 174/310/3
f 171/308/1 167/303/1 168/306/1 172/309/1
f 169/311/11 167/303/11 171/308/11 173/312/11
f 175/313/5 177/314/5 178/315/5 176/316/5
f 181/317/3 179/318/3 180/319/3 182/320/3
f 179/318/1 175/313/1 176/316/1 180/319/1
f 177/321/11 175/313/11 179/318/11 181/322/11
f 182/323/4 180/319/4 176/316/4 178/324/4
f 183/325/14 184/326/14 185/327/14 186/328/14 187/329/14
f 186/328/15 185/327/15 188/330/15 189/331/15
f 189/331/16 188/330/16 190/332/16 191/333/16
f 191/333/17 190/332/17 192/334/17 193/335/17
f 194/336/3 193/335/3 192/334/3 195/337/3
f 196/338/18 197/339/18 194/336/18 195/337/18
f 187/340/3 198/341/3 199/342/3 200/343/3
f 196/338/11 201/344/11 202/345/11 198/346/11 197/339/11
f 191/347/1 193/348/1 194/349/1 197/350/1 198/341/1 187/340/1 186/351/1 189/352/1
f 200/343/1 199/342/1 203/353/1 204/354/1
f 183/325/14 187/329/14 200/355/14 204/356/14
f 183/357/19 205/358/19 206/359/19 207/360/19 184/361/19
f 206/359/20 208/362/20 209/363/20 207/360/20
f 208/362/21 210/364/21 211/365/21 209/363/21
f 210/364/22 212/366/22 213/367/22 211/365/22
f 214/368/5 215/369/5 213/367/5 212/366/5
f 216/370/23 215/369/23 214/368/23 217/371/23
f 205/372/5 218/373/5 219/374/5 220/375/5
f 216/370/11 217/371/11 220/376/11 202/345/11 201/344/11
f 210/377/1 208/378/1 206/379/1 205/372/1 220/375/1 217/380/1 214/381/1 212/382/1
f 218/373/1 204/354/1 203/353/1 219/374/1
f 183/357/19 204/383/19 218/384/19 205/358/19
f 202/345/11 203/385/11 199/386/11 198/346/11
f 203/385/11 202/345/11 220/376/11 219/387/11
f 221/388/3 222/389/3 223/390/3 224/391/3
f 225/392/5 226/393/5 227/394/5 228/395/5
f 228/396/1 227/397/1 222/398/1 221/399/1
f 226/400/4 223/390/4 222/389/4 227/401/4
f 221/399/1 229/402/1 230/403/1 231/404/1
f 221/388/24 224/391/24 232/405/24 229/406/24
f 225/392/25 228/395/25 233/407/25 234/408/25
f 229/402/1 235/409/1 236/410/1 230/403/1
f 237/411/11 238/412/11 239/413/11 235/409/11
f 234/408/26 233/407/26 239/413/26 238/412/26
f 229/406/27 232/405/27 237/411/27 235/409/27
f 230/414/28 236/415/28 240/416/28 241/417/28
f 242/418/11 231/419/11 243/420/11 244/421/11
f 239/413/1 233/422/1 245/423/1 246/424/1
f 235/409/1 239/413/1 246/424/1 236/410/1
f 228/396/1 221/399/1 231/404/1 242/425/1
f 233/422/1 228/396/1 242/425/1 245/423/1
f 245/426/29 242/427/29 244/428/29 247/429/29
f 246/430/30 245/426/30 247/429/30 248/431/30
f 236/415/4 246/430/4 248/431/4 240/416/4
f 231/419/31 230/414/31 241/417/31 243/420/31
