# Blender v2.79 (sub 0) OBJ File: 'body_58.blend'
# www.blender.org
mtllib body_58.mtl
o Cube_Cube.001
v 0.701747 -0.000000 1.334801
v 0.701747 3.915534 1.334801
v -0.701746 -0.000000 1.334801
v -0.701747 3.915533 1.334801
v 0.701747 0.000000 -1.334802
v 0.701746 3.915534 -1.334801
v -0.701746 0.000000 -1.334802
v -0.701747 3.915534 -1.334801
v 0.701747 2.723615 1.334801
v -0.701747 2.723615 1.334801
v -0.701747 2.723615 -1.334801
v 0.701747 2.723615 -1.334801
v -0.701747 3.915533 0.800881
v -0.701747 3.915534 -0.800881
v 0.701746 3.915534 -0.800881
v 0.701747 3.915534 0.800881
v 0.701747 2.723615 -0.800881
v 0.701747 2.723615 0.800881
v -0.701747 2.723615 0.800881
v -0.701747 2.723615 -0.800881
v -0.428579 2.723615 -1.334801
v 0.428579 2.723615 -1.334801
v 0.428579 2.723615 1.334801
v -0.428579 2.723615 1.334801
v 0.428579 2.723615 0.800881
v -0.428579 2.723615 0.800881
v 0.428579 2.723615 -0.800881
v -0.428579 2.723615 -0.800881
v -0.428579 3.748180 -0.800881
v 0.428579 3.748180 -0.800881
v -0.428579 3.748180 -1.334801
v 0.428579 3.748180 -1.334801
v -0.428579 3.748180 0.800881
v 0.428579 3.748180 0.800881
v 0.428579 3.748180 1.334801
v -0.428579 3.748180 1.334801
vt 0.156091 0.537395
vt 0.056544 0.537395
vt 0.024820 0.517959
vt 0.187816 0.517959
vt 0.187816 0.656384
vt 0.156091 0.656384
vt 0.968218 0.632802
vt 0.936493 0.613367
vt 0.936493 0.494378
vt 0.968218 0.494378
vt 0.495184 0.178068
vt 0.495185 0.494379
vt 0.463460 0.494379
vt 0.557192 0.494379
vt 0.743214 0.494378
vt 0.805221 0.178068
vt 0.270181 0.494379
vt 0.084159 0.494380
vt 0.022150 0.178070
vt 0.332188 0.178069
vt 0.836946 0.494378
vt 0.805222 0.494378
vt 0.187816 0.842406
vt 0.156091 0.842406
vt 0.495185 0.632803
vt 0.463460 0.613367
vt 0.743215 0.934223
vt 0.743215 0.795798
vt 0.805222 0.795798
vt 0.805222 0.934223
vt 0.363914 0.613368
vt 0.332189 0.632803
vt 0.332189 0.494379
vt 0.363913 0.494379
vt 0.495185 0.934223
vt 0.495185 0.795799
vt 0.557192 0.795799
vt 0.557193 0.934223
vt 0.557192 0.632803
vt 0.805222 0.632803
vt 0.743215 0.632803
vt 0.187816 0.980831
vt 0.156091 0.961395
vt 0.024820 0.656384
vt 0.056544 0.656384
vt 0.056544 0.842406
vt 0.024820 0.842406
vt 0.495184 0.015072
vt 0.805221 0.015072
vt 0.968218 0.178068
vt 0.022151 0.494380
vt 0.024820 0.980831
vt 0.056544 0.961395
vt 0.836946 0.613367
vt 0.679062 0.533071
vt 0.679062 0.632618
vt 0.617054 0.632618
vt 0.617054 0.533071
vt 0.232182 0.626183
vt 0.232182 0.526636
vt 0.294189 0.526636
vt 0.294189 0.626183
vt 0.232182 0.745172
vt 0.294189 0.745172
vt 0.294189 0.844719
vt 0.232182 0.844719
vt 0.617054 0.751607
vt 0.679062 0.751607
vt 0.679062 0.851154
vt 0.617054 0.851154
vt 0.617054 0.970143
vt 0.679062 0.970143
vt 0.294189 0.963708
vt 0.232182 0.963708
vn 0.0000 0.0000 1.0000
vn 0.0000 0.0000 -1.0000
vn -1.0000 -0.0000 0.0000
vn 1.0000 0.0000 -0.0000
vn 0.0000 1.0000 0.0000
vn 0.0000 -1.0000 -0.0000
usemtl None
s off
f 29/1/1 30/2/1 15/3/1 14/4/1
f 14/4/1 20/5/1 28/6/1 29/1/1
f 2/7/1 35/8/1 23/9/1 9/10/1
f 7/11/2 11/12/2 21/13/2
f 7/11/3 20/14/3 11/12/3
f 19/15/3 20/14/3 7/11/3 3/16/3
f 17/17/4 18/18/4 1/19/4 5/20/4
f 3/16/1 24/21/1 10/22/1
f 28/6/5 20/5/5 19/23/5 26/24/5
f 8/25/2 31/26/2 21/13/2 11/12/2
f 18/27/4 16/28/4 2/29/4 9/30/4
f 32/31/2 6/32/2 12/33/2 22/34/2
f 12/35/4 6/36/4 15/37/4 17/38/4
f 20/14/3 14/39/3 8/25/3 11/12/3
f 10/22/3 4/40/3 13/41/3 19/15/3
f 13/42/2 33/43/2 26/24/2 19/23/2
f 17/44/5 27/45/5 25/46/5 18/47/5
f 27/45/5 28/6/5 26/24/5 25/46/5
f 5/20/2 22/34/2 12/33/2
f 7/11/6 5/48/6 1/49/6 3/16/6
f 23/9/1 24/21/1 3/16/1 1/50/1
f 1/50/1 9/10/1 23/9/1
f 21/13/2 22/34/2 5/20/2 7/11/2
f 3/16/3 10/22/3 19/15/3
f 4/40/5 2/29/5 16/28/5 13/41/5
f 5/20/4 12/33/4 17/17/4
f 1/19/4 18/18/4 9/51/4
f 33/43/2 13/42/2 16/52/2 34/53/2
f 35/8/1 2/7/1 4/40/1 36/54/1
f 33/55/6 34/56/6 35/57/6 36/58/6
f 14/39/5 15/37/5 6/36/5 8/25/5
f 30/59/6 29/60/6 31/61/6 32/62/6
f 31/26/2 8/25/2 6/32/2 32/31/2
f 27/63/3 30/59/3 32/62/3 22/64/3
f 34/53/2 16/52/2 18/47/2 25/46/2
f 36/54/1 4/40/1 10/22/1 24/21/1
f 21/65/5 28/66/5 27/63/5 22/64/5
f 15/3/1 30/2/1 27/45/1 17/44/1
f 23/67/5 25/68/5 26/69/5 24/70/5
f 36/71/4 24/70/4 26/69/4 33/72/4
f 28/66/4 21/65/4 31/73/4 29/74/4
f 25/68/3 23/67/3 35/57/3 34/56/3
