# Blender v3.0.0 OBJ File: 'Roo.blend'
# www.blender.org
mtllib Roo.mtl
o Cube.001_Cube.002
v 0.604719 -1.318496 0.773137
v 0.604953 0.150220 1.150368
v 0.604719 -1.318496 -0.773137
v 0.604953 0.150220 -1.150368
v 1.188482 -1.159331 0.390855
v 1.244995 0.150220 0.488085
v 1.188482 -1.159331 -0.390855
v 1.244995 0.150220 -0.488085
v 0.608406 -1.182351 -0.675033
v 0.608406 -1.182351 0.675033
v 0.608172 0.138893 1.021888
v 0.608172 0.138893 -1.021888
v 1.070424 -1.145712 -0.366329
v 1.130110 0.128526 -0.466671
v 1.070424 -1.145712 0.366329
v 1.130110 0.128526 0.466671
v 0.604719 -1.557243 0.000000
v 0.604719 -1.025035 0.996623
v 0.604719 -0.642044 1.111385
v 0.604739 -0.209921 1.152864
v 0.604739 -0.209921 -1.152864
v 0.604719 -0.642044 -1.111385
v 0.604719 -1.025035 -0.996623
v 0.969271 -1.291231 -0.579687
v 0.972977 0.150220 -0.858462
v 1.251239 -0.207342 -0.487474
v 1.242234 -0.621412 -0.473376
v 1.218255 -0.957580 -0.437634
v 1.231123 -1.263967 -0.000000
v 1.341001 0.150220 0.000000
v 1.251239 -0.207342 0.487474
v 1.242234 -0.621412 0.473376
v 1.218255 -0.957580 0.437634
v 0.969271 -1.291231 0.579687
v 0.972977 0.150220 0.858462
v 0.608406 -1.396593 -0.000000
v 0.608406 -0.919011 0.870160
v 0.608406 -0.575331 0.970360
v 0.608386 -0.187279 1.008078
v 0.608386 -0.187279 -1.008078
v 0.608406 -0.575331 -0.970360
v 0.608406 -0.919011 -0.870160
v 0.896930 -1.231514 -0.527399
v 0.908287 0.132932 -0.791545
v 1.121377 -0.225690 -0.463194
v 1.112966 -0.630445 -0.448679
v 1.093988 -0.954716 -0.412736
v 1.104173 -1.255491 0.000000
v 1.208401 0.126971 0.000000
v 1.121377 -0.225690 0.463194
v 1.112966 -0.630445 0.448679
v 1.093988 -0.954716 0.412736
v 0.896930 -1.231514 0.527399
v 0.908287 0.132932 0.791546
v 1.219732 0.255794 -0.483376
v 1.155373 0.242658 -0.471380
v 0.607464 0.243548 -1.050141
v 0.605661 0.255794 -1.122115
v 1.219732 0.255794 0.483376
v 1.155373 0.242658 0.471380
v 0.607464 0.243548 1.050141
v 0.605661 0.255794 1.122115
v 0.971635 -1.009377 -0.744894
v 0.975577 -0.636886 -0.828388
v 0.977012 -0.209276 -0.858541
v 1.300040 -0.993718 -0.000000
v 1.335624 -0.631728 0.000000
v 1.347935 -0.208632 0.000000
v 0.971635 -1.009377 0.744894
v 0.975577 -0.636886 0.828388
v 0.977012 -0.209276 0.858541
v 0.973475 -1.520400 0.000000
v 0.898802 -0.965868 -0.678171
v 0.901921 -0.614721 -0.754639
v 0.903780 -0.210328 -0.783094
v 1.158716 -1.003110 0.000000
v 1.186880 -0.651388 0.000000
v 1.198105 -0.233036 -0.000000
v 0.898802 -0.965868 0.678171
v 0.901921 -0.614721 0.754639
v 0.903780 -0.210328 0.783094
v 0.900257 -1.448845 0.000000
v 0.958752 0.255794 -0.843747
v 0.922512 0.243036 -0.806260
v 1.311842 0.255794 0.000000
v 1.237559 0.242524 0.000000
v 0.958751 0.255794 0.843747
v 0.922512 0.243036 0.806260
v 0.710677 -0.782856 0.256285
v 0.710677 0.442004 0.256285
v 0.710677 -0.782856 -0.256285
v 0.710677 0.442004 -0.256285
v 0.984053 -0.782856 0.256285
v 0.984053 0.442004 0.256285
v 0.984053 -0.782856 -0.256285
v 0.984053 0.442004 -0.256285
v 0.581882 0.439058 0.270806
v 0.581882 0.980670 0.270806
v 0.581882 0.439058 -0.270806
v 0.581882 0.980670 -0.270806
v 1.123494 0.439058 0.270806
v 1.123494 0.980670 0.270806
v 1.123494 0.439058 -0.270806
v 1.123494 0.980670 -0.270806
v 1.400431 0.388518 -0.250301
v 0.593490 0.163097 -0.250301
v 1.400431 0.388518 -0.537550
v 0.593490 0.163097 -0.537550
v 1.277073 0.632480 -0.250301
v 0.656164 0.429192 -0.250301
v 1.277073 0.632480 -0.537550
v 0.656164 0.429192 -0.537550
v 1.078530 0.177819 -0.250301
v 1.078530 0.177819 -0.537550
v 0.955172 0.421780 -0.537550
v 0.955172 0.421780 -0.250301
v 1.400431 0.388518 0.250300
v 0.593490 0.163097 0.250300
v 1.400431 0.388518 0.537550
v 0.593490 0.163097 0.537550
v 1.277073 0.632480 0.250300
v 0.656164 0.429192 0.250300
v 1.277073 0.632480 0.537550
v 0.656164 0.429192 0.537550
v 1.078530 0.177819 0.250300
v 1.078530 0.177819 0.537550
v 0.955172 0.421780 0.537550
v 0.955172 0.421780 0.250300
vt 0.603705 0.409909
vt 0.362975 0.412008
vt 0.362097 0.311270
vt 0.602826 0.309171
vt 0.359998 0.070541
vt 0.308369 0.311738
vt 0.306269 0.071009
vt 0.067639 0.313838
vt 0.309247 0.412477
vt 0.068518 0.414576
vt 0.311346 0.653206
vt 0.365074 0.652737
vt 0.013911 0.314306
vt 0.014790 0.415044
vt 0.588666 0.517302
vt 0.588666 0.570527
vt 0.535441 0.570527
vt 0.535441 0.517302
vt 0.482216 0.570527
vt 0.535441 0.623752
vt 0.482216 0.623752
vt 0.535441 0.676978
vt 0.588666 0.623752
vt 0.588666 0.676978
vt 0.641891 0.623752
vt 0.641891 0.570527
vt 0.535441 0.464077
vt 0.588666 0.464077
vt 0.209083 0.551061
vt 0.209995 0.644686
vt 0.154574 0.645226
vt 0.153662 0.551601
vt 0.064372 0.670326
vt 0.155088 0.697970
vt 0.098722 0.710354
vt 0.155650 0.755677
vt 0.210509 0.697430
vt 0.211070 0.755138
vt 0.267105 0.708714
vt 0.300669 0.668025
vt 0.156886 0.882649
vt 0.156372 0.829905
vt 0.211793 0.829365
vt 0.212307 0.882110
vt 0.318761 0.762024
vt 0.352325 0.721334
vt 0.013763 0.724631
vt 0.048114 0.764660
vt 0.208360 0.476833
vt 0.152940 0.477373
vt 0.389663 0.842503
vt 0.389081 0.787082
vt 0.446788 0.786476
vt 0.447370 0.841896
vt 0.262692 0.843836
vt 0.262110 0.788416
vt 0.314853 0.787862
vt 0.315436 0.843282
vt 0.380016 0.679553
vt 0.420018 0.645172
vt 0.474362 0.695738
vt 0.434360 0.730120
vt 0.593156 0.784938
vt 0.593738 0.840358
vt 0.500114 0.841342
vt 0.499531 0.785922
vt 0.476845 0.932034
vt 0.436129 0.898501
vt 0.423575 0.983731
vt 0.382859 0.950198
vt 0.667383 0.784158
vt 0.667965 0.839579
vt 0.752552 0.360618
vt 0.809456 0.379959
vt 0.817853 0.313879
vt 0.771443 0.305853
vt 0.799455 0.460110
vt 0.879760 0.465916
vt 0.876916 0.386446
vt 0.876413 0.316997
vt 0.714114 0.328879
vt 0.672754 0.387013
vt 0.727560 0.434285
vt 0.744662 0.296458
vt 0.932733 0.384113
vt 0.926659 0.316307
vt 0.943607 0.457705
vt 0.771444 0.188302
vt 0.817853 0.180276
vt 0.809456 0.114195
vt 0.752552 0.133536
vt 0.771158 0.247077
vt 0.818838 0.247077
vt 0.876302 0.247077
vt 0.876414 0.177158
vt 0.736646 0.247077
vt 0.744662 0.197696
vt 0.925300 0.247077
vt 0.926659 0.177848
vt 0.691195 0.247077
vt 0.627062 0.247077
vt 0.799456 0.034045
vt 0.727561 0.059869
vt 0.876917 0.107709
vt 0.879760 0.028239
vt 0.714114 0.165275
vt 0.672755 0.107142
vt 0.932733 0.110042
vt 0.943607 0.036451
vt 0.788538 0.678101
vt 0.791093 0.731171
vt 0.837459 0.728854
vt 0.831740 0.663948
vt 0.751266 0.581973
vt 0.771206 0.635441
vt 0.819117 0.608955
vt 0.805221 0.549850
vt 0.881279 0.588706
vt 0.868468 0.527381
vt 0.892600 0.650865
vt 0.922062 0.511930
vt 0.937344 0.574742
vt 0.793841 0.784231
vt 0.780848 0.828406
vt 0.831161 0.849984
vt 0.838239 0.794007
vt 0.950950 0.640917
vt 0.742880 0.667407
vt 0.766049 0.689838
vt 0.712915 0.626342
vt 0.900348 0.725711
vt 0.900099 0.800958
vt 0.960846 0.722689
vt 0.730230 0.734212
vt 0.761168 0.732666
vt 0.959151 0.805040
vt 0.770294 0.774795
vt 0.895032 0.863936
vt 0.766338 0.883596
vt 0.823227 0.910180
vt 0.888398 0.926232
vt 0.952210 0.872241
vt 0.968985 0.051328
vt 0.960685 0.042342
vt 0.949388 0.112093
vt 0.957876 0.113588
vt 0.943266 0.936263
vt 0.749476 0.799424
vt 0.723754 0.843271
vt 0.684540 0.736495
vt 0.942414 0.177869
vt 0.940792 0.247077
vt 0.952201 0.247078
vt 0.952366 0.176287
vt 0.949388 0.382062
vt 0.960684 0.451814
vt 0.968985 0.442827
vt 0.957876 0.380567
vt 0.942414 0.316286
vt 0.975258 0.378050
vt 0.969881 0.317641
vt 0.952366 0.317868
vt 0.984760 0.437183
vt 0.969265 0.247078
vt 0.969881 0.176514
vt 0.975258 0.116105
vt 0.984760 0.056973
vn -1.0000 0.0000 0.0000
vn 0.0000 0.0000 -1.0000
vn 1.0000 0.0000 0.0000
vn 0.0000 0.0000 1.0000
vn 0.0000 -1.0000 0.0000
vn 0.0000 1.0000 0.0000
vn 0.0303 -0.9995 0.0000
vn 0.0248 0.9997 0.0000
vn 0.8924 0.4512 0.0000
vn -0.9734 0.2293 0.0000
vn -0.5477 0.8367 0.0000
vn 0.5477 -0.8367 0.0000
vn 0.6519 -0.3004 -0.6962
vn 0.7004 -0.1152 -0.7044
vn 0.9095 -0.0748 -0.4089
vn 0.8935 -0.1878 -0.4078
vn 0.5979 -0.1337 -0.7903
vn 0.6171 -0.0297 -0.7863
vn 0.7156 -0.0230 -0.6981
vn 0.9142 -0.0103 -0.4052
vn 0.5187 -0.6839 -0.5130
vn 0.3755 -0.7013 -0.6059
vn 0.5395 -0.3346 -0.7726
vn 0.8282 -0.4314 -0.3578
vn 0.7156 0.1040 -0.6907
vn 0.9101 0.1220 -0.3960
vn 0.6177 0.0958 -0.7805
vn 0.8935 -0.1878 0.4078
vn 0.9095 -0.0748 0.4089
vn 0.7004 -0.1152 0.7044
vn 0.6519 -0.3004 0.6962
vn 0.9870 -0.1609 0.0000
vn 0.9980 -0.0621 0.0000
vn 1.0000 -0.0053 0.0000
vn 0.9142 -0.0103 0.4052
vn 0.8566 -0.5159 0.0000
vn 0.8282 -0.4314 0.3578
vn 0.9908 0.1348 0.0000
vn 0.9101 0.1220 0.3960
vn 0.4312 -0.9022 0.0000
vn 0.1760 -0.9844 0.0000
vn 0.5979 -0.1337 0.7903
vn 0.5395 -0.3346 0.7726
vn 0.7156 -0.0230 0.6981
vn 0.6171 -0.0297 0.7863
vn 0.5187 -0.6839 0.5130
vn 0.3755 -0.7013 0.6059
vn 0.7156 0.1040 0.6907
vn 0.6177 0.0958 0.7805
vn -0.9043 0.1736 0.3899
vn -0.9904 0.1377 0.0000
vn -0.9986 0.0532 0.0000
vn -0.9221 0.0688 0.3807
vn -0.4823 0.3273 0.8125
vn -0.6239 0.3079 0.7183
vn -0.6982 0.1154 0.7065
vn -0.5714 0.1293 0.8104
vn -0.7202 0.0421 0.6924
vn -0.6002 0.0481 0.7984
vn -0.9265 0.0307 0.3749
vn -0.6037 0.1177 0.7884
vn -0.7205 0.1124 0.6843
vn -0.9043 0.1736 -0.3899
vn -0.6239 0.3079 -0.7183
vn -0.6982 0.1154 -0.7065
vn -0.9221 0.0688 -0.3807
vn -0.9186 0.1228 0.3756
vn -0.4172 0.7241 0.5492
vn -0.8324 0.4284 0.3516
vn -0.2279 0.7094 0.6669
vn -0.9996 0.0271 0.0000
vn -0.9265 0.0307 -0.3749
vn -0.9911 0.1326 0.0000
vn -0.2980 0.9545 0.0000
vn -0.8524 0.5228 0.0000
vn -0.9186 0.1228 -0.3756
vn -0.8324 0.4284 -0.3516
vn -0.7202 0.0421 -0.6924
vn -0.4823 0.3273 -0.8125
vn -0.5714 0.1293 -0.8104
vn -0.6002 0.0481 -0.7984
vn -0.7205 0.1124 -0.6843
vn -0.3717 0.7932 -0.4823
vn 0.4843 0.6262 0.6110
vn 0.4199 0.8132 0.4029
vn -0.5004 0.7229 -0.4765
vn -0.6037 0.1177 -0.7884
vn -0.4172 0.7241 -0.5492
vn -0.2279 0.7094 -0.6669
vn 0.0832 0.9965 0.0000
vn 0.5471 0.7993 0.2483
vn 0.5888 0.8082 0.0000
vn -0.6548 0.7558 0.0000
vn -0.6102 0.7503 -0.2544
vn 0.4199 0.8132 -0.4029
vn 0.4843 0.6262 -0.6110
vn -0.3717 0.7932 0.4823
vn -0.5004 0.7229 0.4765
vn 0.5471 0.7993 -0.2483
vn -0.6102 0.7503 0.2544
usemtl None
s off
f 89/1/1 90/2/1 92/3/1 91/4/1
f 91/5/2 92/3/2 96/6/2 95/7/2
f 95/8/3 96/6/3 94/9/3 93/10/3
f 93/11/4 94/9/4 90/2/4 89/12/4
f 91/13/5 95/8/5 93/10/5 89/14/5
f 96/6/6 92/3/6 90/2/6 94/9/6
f 97/15/1 98/16/1 100/17/1 99/18/1
f 99/19/2 100/17/2 104/20/2 103/21/2
f 103/22/3 104/20/3 102/23/3 101/24/3
f 101/25/4 102/23/4 98/16/4 97/26/4
f 99/18/5 103/27/5 101/28/5 97/15/5
f 104/20/6 100/17/6 98/16/6 102/23/6
f 113/29/7 106/30/7 108/31/7 114/32/7
f 114/33/2 108/31/2 112/34/2 115/35/2
f 115/36/8 112/34/8 110/37/8 116/38/8
f 116/39/4 110/37/4 106/30/4 113/40/4
f 107/41/9 111/42/9 109/43/9 105/44/9
f 112/34/10 108/31/10 106/30/10 110/37/10
f 109/45/4 116/39/4 113/40/4 105/46/4
f 111/42/11 115/36/11 116/38/11 109/43/11
f 107/47/2 114/33/2 115/35/2 111/48/2
f 105/49/12 113/29/12 114/32/12 107/50/12
f 127/51/8 128/52/8 122/53/8 124/54/8
f 119/55/9 117/56/9 121/57/9 123/58/9
f 121/59/2 117/60/2 125/61/2 128/62/2
f 123/58/11 121/57/11 128/52/11 127/51/11
f 125/63/7 126/64/7 120/65/7 118/66/7
f 126/67/4 127/68/4 124/54/4 120/65/4
f 119/69/4 123/70/4 127/68/4 126/67/4
f 117/71/12 119/72/12 126/64/12 125/63/12
f 124/54/10 122/53/10 118/66/10 120/65/10
f 128/62/2 125/61/2 118/66/2 122/53/2
s 1
f 63/73/13 64/74/14 27/75/15 28/76/16
f 22/77/17 21/78/18 65/79/19 64/74/14
f 64/74/14 65/79/19 26/80/20 27/75/15
f 24/81/21 3/82/22 23/83/23 63/73/13
f 7/84/24 24/81/21 63/73/13 28/76/16
f 65/79/19 25/85/25 8/86/26 26/80/20
f 21/78/18 4/87/27 25/85/25 65/79/19
f 33/88/28 32/89/29 70/90/30 69/91/31
f 66/92/32 67/93/33 32/89/29 33/88/28
f 27/75/15 26/80/20 68/94/34 67/93/33
f 67/93/33 68/94/34 31/95/35 32/89/29
f 29/96/36 7/84/24 28/76/16 66/92/32
f 5/97/37 29/96/36 66/92/32 33/88/28
f 68/94/34 30/98/38 6/99/39 31/95/35
f 26/80/20 8/86/26 30/98/38 68/94/34
f 72/100/40 17/101/41 3/82/22 24/81/21
f 69/91/31 70/90/30 19/102/42 18/103/43
f 32/89/29 31/95/35 71/104/44 70/90/30
f 70/90/30 71/104/44 20/105/45 19/102/42
f 34/106/46 5/97/37 33/88/28 69/91/31
f 1/107/47 34/106/46 69/91/31 18/103/43
f 71/104/44 35/108/48 2/109/49 20/105/45
f 31/95/35 6/99/39 35/108/48 71/104/44
f 1/107/47 17/101/41 72/100/40 34/106/46
f 34/106/46 72/100/40 29/96/36 5/97/37
f 47/110/50 76/111/51 77/112/52 46/113/53
f 24/81/21 7/84/24 29/96/36 72/100/40
f 42/114/54 73/115/55 74/116/56 41/117/57
f 41/117/57 74/116/56 75/118/58 40/119/59
f 74/116/56 73/115/55 47/110/50 46/113/53
f 75/118/58 74/116/56 46/113/53 45/120/60
f 12/121/61 40/119/59 75/118/58 44/122/62
f 52/123/63 79/124/64 80/125/65 51/126/66
f 44/122/62 75/118/58 45/120/60 14/127/67
f 43/128/68 13/129/69 47/110/50 73/115/55
f 73/115/55 42/114/54 9/130/70 43/128/68
f 46/113/53 77/112/52 78/131/71 45/120/60
f 77/112/52 76/111/51 52/123/63 51/126/66
f 78/131/71 77/112/52 51/126/66 50/132/72
f 14/127/67 45/120/60 78/131/71 49/133/73
f 13/129/69 43/128/68 82/134/74 48/135/75
f 49/133/73 78/131/71 50/132/72 16/136/76
f 48/135/75 15/137/77 52/123/63 76/111/51
f 76/111/51 47/110/50 13/129/69 48/135/75
f 51/126/66 80/125/65 81/138/78 50/132/72
f 80/125/65 79/124/64 37/139/79 38/140/80
f 81/138/78 80/125/65 38/140/80 39/141/81
f 16/136/76 50/132/72 81/138/78 54/142/82
f 61/143/83 62/144/84 87/145/85 88/146/86
f 54/142/82 81/138/78 39/141/81 11/147/87
f 53/148/88 10/149/89 37/139/79 79/124/64
f 79/124/64 52/123/63 15/137/77 53/148/88
f 15/137/77 48/135/75 82/134/74 53/148/88
f 43/128/68 9/130/70 36/150/90 82/134/74
f 82/134/74 36/150/90 10/149/89 53/148/88
f 59/151/91 85/152/92 86/153/93 60/154/94
f 83/155/95 58/156/96 57/157/97 84/158/98
f 4/87/27 58/156/96 83/155/95 25/85/25
f 25/85/25 83/155/95 55/159/99 8/86/26
f 84/158/98 44/160/62 14/161/67 56/162/100
f 57/157/97 12/163/61 44/160/62 84/158/98
f 85/152/92 55/159/99 56/162/100 86/153/93
f 8/86/26 55/159/99 85/152/92 30/98/38
f 30/98/38 85/152/92 59/151/91 6/99/39
f 86/153/93 49/164/73 16/165/76 60/154/94
f 56/162/100 14/161/67 49/164/73 86/153/93
f 87/145/85 59/151/91 60/154/94 88/146/86
f 6/99/39 59/151/91 87/145/85 35/108/48
f 35/108/48 87/145/85 62/144/84 2/109/49
f 88/146/86 54/166/82 11/167/87 61/143/83
f 60/154/94 16/165/76 54/166/82 88/146/86
f 23/83/23 22/77/17 64/74/14 63/73/13
f 28/76/16 27/75/15 67/93/33 66/92/32
f 55/159/99 83/155/95 84/158/98 56/162/100
