# Blender v2.79 (sub 0) OBJ File: 'body_95.blend'
# www.blender.org
mtllib body_95.mtl
o 1_Cube.001_Cube.008
v 0.451826 -1.570448 1.266593
v 0.650000 -1.559687 1.255456
v 0.650000 -1.358849 1.255456
v 0.451826 -1.348088 1.266593
v -0.602858 -1.602728 -1.300000
v 0.451826 -1.570447 -1.266594
v 0.451826 -1.570447 -1.020795
v -0.315931 -1.602728 -0.987386
v -0.602858 -1.315807 -1.300000
v 0.451826 -1.348088 -1.266594
v -0.602858 -1.315807 1.300000
v -0.602858 -1.602728 1.300000
v -0.315931 -1.602728 0.987386
v 0.451826 -1.570448 1.020795
v -0.315931 -1.315807 0.987386
v 0.451826 -1.348088 1.020795
v -0.315931 -1.315807 -0.987386
v 0.451826 -1.348088 -1.020795
v 0.650000 -1.559686 -1.255457
v 0.650000 -1.559686 -1.031930
v 0.650000 -1.358849 1.031929
v 0.650000 -1.559686 1.031929
v 0.650000 -1.358849 -1.255457
v 0.650000 -1.358849 -1.031930
v 0.587526 -1.422162 -0.381311
v 0.587526 -1.496373 -0.381311
v 0.514300 -1.500350 -0.377197
v 0.514300 -1.418185 0.377196
v 0.514300 -1.500351 0.377196
v 0.514300 -1.418185 -0.377197
v 0.587526 -1.422162 0.381311
v 0.587526 -1.496373 0.381311
v -0.022280 1.210486 1.300000
v -0.594940 1.210486 1.300000
v -0.602858 0.901983 1.300000
v -0.030193 0.901983 1.300000
v -0.594940 1.210487 -1.300000
v -0.022280 1.210487 -1.300000
v -0.030193 0.901984 -1.300000
v -0.602858 0.901984 -1.300000
v 0.119989 0.901981 -0.796536
v -0.602858 0.901984 -0.796536
v -0.602858 1.303441 -0.796536
v 0.119989 1.303447 -0.796536
v 0.119989 1.303447 0.796536
v 0.119989 0.901981 0.796536
v -0.602858 1.303441 0.796536
v -0.602858 0.901984 0.796536
v 0.451826 0.445816 1.266594
v 0.650000 0.456577 1.255456
v 0.650000 0.657415 1.255456
v 0.451826 0.668176 1.266594
v -0.602858 0.413536 -1.300000
v 0.451826 0.445816 -1.266594
v 0.451826 0.445816 -1.020795
v -0.315931 0.413536 -0.987386
v -0.602858 0.700457 -1.300000
v 0.451826 0.668176 -1.266594
v -0.602858 0.700456 1.300000
v -0.602858 0.413535 1.300000
v -0.315931 0.413535 0.987386
v 0.451826 0.445816 1.020795
v -0.315931 0.700456 0.987386
v 0.451826 0.668176 1.020795
v -0.315931 0.700457 -0.987386
v 0.451826 0.668176 -1.020795
v 0.650000 0.456577 -1.255456
v 0.650000 0.456577 -1.031929
v 0.650000 0.657415 1.031929
v 0.650000 0.456577 1.031929
v 0.650000 0.657415 -1.255456
v 0.650000 0.657415 -1.031929
v 0.587526 0.594102 -0.381311
v 0.587526 0.519890 -0.381311
v 0.514300 0.515913 -0.377197
v 0.514300 0.598079 0.377197
v 0.514300 0.515913 0.377197
v 0.514300 0.598079 -0.377197
v 0.587526 0.594102 0.381311
v 0.587526 0.519890 0.381311
v 0.451826 -1.065264 1.266594
v 0.650000 -1.054502 1.255456
v 0.650000 -0.853665 1.255456
v 0.451826 -0.842904 1.266594
v -0.602858 -1.097544 -1.300000
v 0.451826 -1.065263 -1.266594
v 0.451826 -1.065263 -1.020795
v -0.315931 -1.097544 -0.987386
v -0.602858 -0.810623 -1.300000
v 0.451826 -0.842903 -1.266594
v -0.602858 -0.810623 1.300000
v -0.602858 -1.097544 1.300000
v -0.315931 -1.097544 0.987386
v 0.451826 -1.065264 1.020795
v -0.315931 -0.810623 0.987386
v 0.451826 -0.842904 1.020795
v -0.315931 -0.810623 -0.987386
v 0.451826 -0.842903 -1.020795
v 0.650000 -1.054502 -1.255456
v 0.650000 -1.054502 -1.031929
v 0.650000 -0.853665 1.031929
v 0.650000 -1.054502 1.031929
v 0.650000 -0.853665 -1.255456
v 0.650000 -0.853665 -1.031929
v 0.587526 -0.916978 -0.381311
v 0.587526 -0.991189 -0.381311
v 0.514300 -0.995166 -0.377197
v 0.514300 -0.913001 0.377196
v 0.514300 -0.995167 0.377196
v 0.514300 -0.913000 -0.377197
v 0.587526 -0.916978 0.381311
v 0.587526 -0.991189 0.381311
v 0.451826 -0.564552 1.266594
v 0.650000 -0.553791 1.255456
v 0.650000 -0.352951 1.255456
v 0.451826 -0.342193 1.266594
v -0.602858 -0.596833 -1.300000
v 0.451826 -0.564552 -1.266594
v 0.451826 -0.564552 -1.020795
v -0.315931 -0.596833 -0.987386
v -0.602858 -0.309912 -1.300000
v 0.451826 -0.342192 -1.266594
v -0.602858 -0.309912 1.300000
v -0.602858 -0.596833 1.300000
v -0.315931 -0.596833 0.987386
v 0.451826 -0.564552 1.020795
v -0.315931 -0.309912 0.987386
v 0.451826 -0.342193 1.020795
v -0.315931 -0.309912 -0.987386
v 0.451826 -0.342192 -1.020795
v 0.650000 -0.553791 -1.255456
v 0.650000 -0.553791 -1.031929
v 0.650000 -0.352951 1.031929
v 0.650000 -0.553791 1.031929
v 0.650000 -0.352950 -1.255456
v 0.650000 -0.352950 -1.031929
v 0.587526 -0.416263 -0.381311
v 0.587526 -0.490478 -0.381311
v 0.514300 -0.494452 -0.377197
v 0.514300 -0.412289 0.377196
v 0.514300 -0.494452 0.377196
v 0.514300 -0.412289 -0.377197
v 0.587526 -0.416264 0.381311
v 0.587526 -0.490478 0.381311
v 0.451826 -0.081721 1.266594
v 0.650000 -0.070960 1.255456
v 0.650000 0.129878 1.255456
v 0.451826 0.140639 1.266594
v -0.602858 -0.114001 -1.300000
v 0.451826 -0.081720 -1.266594
v 0.451826 -0.081720 -1.020795
v -0.315931 -0.114001 -0.987386
v -0.602858 0.172920 -1.300000
v 0.451826 0.140640 -1.266594
v -0.602858 0.172920 1.300000
v -0.602858 -0.114001 1.300000
v -0.315931 -0.114001 0.987386
v 0.451826 -0.081721 1.020795
v -0.315931 0.172920 0.987386
v 0.451826 0.140639 1.020795
v -0.315931 0.172920 -0.987386
v 0.451826 0.140640 -1.020795
v 0.650000 -0.070959 -1.255456
v 0.650000 -0.070959 -1.031929
v 0.650000 0.129878 1.031929
v 0.650000 -0.070960 1.031929
v 0.650000 0.129878 -1.255456
v 0.650000 0.129878 -1.031929
v 0.587526 0.066565 -0.381311
v 0.587526 -0.007646 -0.381311
v 0.514300 -0.011623 -0.377197
v 0.514300 0.070542 0.377197
v 0.514300 -0.011624 0.377197
v 0.514300 0.070542 -0.377197
v 0.587526 0.066565 0.381311
v 0.587526 -0.007646 0.381311
v -0.650000 -1.920001 0.188670
v -0.650000 1.920000 0.188670
v -0.650000 1.920000 -0.188670
v -0.650000 -1.920001 -0.188670
v -0.272663 1.920000 -0.188670
v -0.272663 -1.920001 -0.188670
v -0.272663 1.920000 0.188670
v -0.272663 -1.920001 0.188670
vt 0.116964 0.887210
vt 0.099642 0.886271
vt 0.099642 0.868744
vt 0.116964 0.867805
vt 0.418114 0.890021
vt 0.415251 0.966999
vt 0.395167 0.967020
vt 0.392199 0.915062
vt 0.418112 0.864981
vt 0.495093 0.867797
vt 0.495093 0.887203
vt 0.193943 0.864985
vt 0.193945 0.890026
vt 0.219860 0.915065
vt 0.216894 0.967022
vt 0.196809 0.967003
vt 0.219858 0.839944
vt 0.196806 0.788007
vt 0.216890 0.787987
vt 0.392197 0.839942
vt 0.395165 0.787984
vt 0.415248 0.788004
vt 0.414297 0.984321
vt 0.396157 0.984339
vt 0.682477 0.898667
vt 0.854817 0.898667
vt 0.854817 0.923706
vt 0.682477 0.923706
vt 0.081502 0.868744
vt 0.081502 0.886271
vt 0.512415 0.868736
vt 0.530555 0.868735
vt 0.530555 0.886262
vt 0.512415 0.886264
vt 0.197760 0.770687
vt 0.215900 0.770668
vt 0.587597 0.874260
vt 0.587597 0.880736
vt 0.215904 0.984342
vt 0.197764 0.984325
vt 0.396153 0.770665
vt 0.414293 0.770683
vt 0.339073 0.979270
vt 0.338707 0.972869
vt 0.630511 0.920889
vt 0.630511 0.901484
vt 0.906783 0.901484
vt 0.963213 0.907601
vt 0.963213 0.914771
vt 0.906783 0.920889
vt 0.338704 0.782137
vt 0.339070 0.775736
vt 0.272984 0.775738
vt 0.273350 0.782137
vt 0.024460 0.880747
vt 0.024460 0.874270
vt 0.273353 0.972870
vt 0.272987 0.979270
vt 0.018059 0.873923
vt 0.018059 0.881095
vt 0.574080 0.914771
vt 0.574080 0.907601
vt 0.593998 0.881083
vt 0.593998 0.873913
vt 0.664006 0.148930
vt 0.652575 0.201389
vt 0.624155 0.195957
vt 0.635587 0.143496
vt 0.907334 0.202638
vt 0.894641 0.147663
vt 0.924433 0.141583
vt 0.937127 0.196559
vt 0.841469 0.119418
vt 0.847798 0.059660
vt 0.900043 0.064522
vt 0.894410 0.117662
vt 0.850937 0.216460
vt 0.840906 0.152221
vt 0.849480 0.024001
vt 0.902341 0.036320
vt 0.716888 0.153303
vt 0.663643 0.119538
vt 0.715838 0.121076
vt 0.656800 0.065839
vt 0.653975 0.037342
vt 0.707295 0.024001
vt 0.709424 0.059958
vt 0.706401 0.213878
vt 0.116964 0.378559
vt 0.099642 0.377621
vt 0.099642 0.360094
vt 0.116964 0.359153
vt 0.418114 0.381371
vt 0.415251 0.458349
vt 0.395167 0.458369
vt 0.392199 0.406412
vt 0.418112 0.356331
vt 0.495093 0.359146
vt 0.495093 0.378551
vt 0.193943 0.356335
vt 0.193945 0.381375
vt 0.219860 0.406414
vt 0.216894 0.458373
vt 0.196809 0.458353
vt 0.219858 0.331294
vt 0.196806 0.279357
vt 0.216890 0.279336
vt 0.392197 0.331291
vt 0.395163 0.279334
vt 0.415248 0.279353
vt 0.414297 0.475670
vt 0.396157 0.475688
vt 0.680210 0.772761
vt 0.852550 0.772761
vt 0.852550 0.797801
vt 0.680210 0.797801
vt 0.081502 0.360094
vt 0.081502 0.377621
vt 0.512415 0.360085
vt 0.530555 0.360085
vt 0.530555 0.377612
vt 0.512415 0.377612
vt 0.197760 0.262037
vt 0.215900 0.262017
vt 0.587596 0.365609
vt 0.587597 0.372086
vt 0.215904 0.475692
vt 0.197764 0.475673
vt 0.396153 0.262015
vt 0.414293 0.262031
vt 0.339073 0.470618
vt 0.338708 0.464219
vt 0.628243 0.794984
vt 0.628243 0.775578
vt 0.904516 0.775578
vt 0.960947 0.781695
vt 0.960947 0.788867
vt 0.904516 0.794984
vt 0.338704 0.273486
vt 0.339070 0.267086
vt 0.272984 0.267088
vt 0.273349 0.273487
vt 0.024460 0.372097
vt 0.024460 0.365620
vt 0.273353 0.464220
vt 0.272987 0.470620
vt 0.018059 0.365273
vt 0.018059 0.372445
vt 0.571813 0.788867
vt 0.571813 0.781695
vt 0.593998 0.372433
vt 0.593998 0.365262
vt 0.492720 0.519571
vt 0.475397 0.518633
vt 0.475397 0.501106
vt 0.492720 0.500165
vt 0.793868 0.522383
vt 0.791006 0.599361
vt 0.770923 0.599382
vt 0.767955 0.547423
vt 0.793868 0.497343
vt 0.870848 0.500159
vt 0.870848 0.519564
vt 0.569699 0.497347
vt 0.569699 0.522387
vt 0.595614 0.547427
vt 0.592649 0.599384
vt 0.572564 0.599365
vt 0.595613 0.472306
vt 0.572562 0.420369
vt 0.592645 0.420349
vt 0.767953 0.472304
vt 0.770919 0.420345
vt 0.791004 0.420365
vt 0.790053 0.616681
vt 0.771911 0.616701
vt 0.680210 0.715509
vt 0.852550 0.715509
vt 0.852550 0.740549
vt 0.680210 0.740549
vt 0.457257 0.501106
vt 0.457257 0.518633
vt 0.888170 0.501098
vt 0.906311 0.501097
vt 0.906311 0.518624
vt 0.888171 0.518624
vt 0.573515 0.403048
vt 0.591656 0.403029
vt 0.963352 0.506622
vt 0.963352 0.513098
vt 0.591660 0.616704
vt 0.573520 0.616685
vt 0.771908 0.403026
vt 0.790049 0.403044
vt 0.714828 0.611630
vt 0.714463 0.605231
vt 0.628243 0.737732
vt 0.628243 0.718326
vt 0.904516 0.718326
vt 0.960947 0.724445
vt 0.960947 0.731615
vt 0.904516 0.737732
vt 0.714460 0.414498
vt 0.714826 0.408098
vt 0.648740 0.408100
vt 0.649105 0.414499
vt 0.400216 0.513109
vt 0.400216 0.506632
vt 0.649109 0.605232
vt 0.648742 0.611632
vt 0.393815 0.506285
vt 0.393815 0.513456
vt 0.571813 0.731615
vt 0.571813 0.724445
vt 0.969753 0.513445
vt 0.969753 0.506275
vt 0.116964 0.650110
vt 0.099642 0.649171
vt 0.099642 0.631644
vt 0.116964 0.630705
vt 0.418114 0.652922
vt 0.415251 0.729899
vt 0.395167 0.729920
vt 0.392199 0.677963
vt 0.418112 0.627881
vt 0.495093 0.630697
vt 0.495093 0.650102
vt 0.193943 0.627886
vt 0.193945 0.652926
vt 0.219860 0.677965
vt 0.216894 0.729924
vt 0.196809 0.729903
vt 0.219858 0.602846
vt 0.196806 0.550908
vt 0.216890 0.550887
vt 0.392197 0.602842
vt 0.395165 0.550885
vt 0.415248 0.550904
vt 0.414297 0.747221
vt 0.396157 0.747239
vt 0.680210 0.833919
vt 0.852550 0.833919
vt 0.852550 0.858958
vt 0.680210 0.858958
vt 0.081502 0.631645
vt 0.081502 0.649172
vt 0.512415 0.631636
vt 0.530555 0.631636
vt 0.530555 0.649163
vt 0.512415 0.649163
vt 0.197760 0.533586
vt 0.215900 0.533568
vt 0.587597 0.637160
vt 0.587597 0.643637
vt 0.215904 0.747243
vt 0.197764 0.747225
vt 0.396153 0.533566
vt 0.414293 0.533583
vt 0.339073 0.742169
vt 0.338708 0.735770
vt 0.628243 0.856142
vt 0.628243 0.836736
vt 0.904516 0.836736
vt 0.960947 0.842853
vt 0.960947 0.850023
vt 0.904516 0.856142
vt 0.338704 0.545037
vt 0.339070 0.538637
vt 0.272984 0.538637
vt 0.273349 0.545038
vt 0.024460 0.643647
vt 0.024460 0.637171
vt 0.273353 0.735771
vt 0.272987 0.742171
vt 0.018059 0.636824
vt 0.018059 0.643994
vt 0.571813 0.850023
vt 0.571813 0.842853
vt 0.593998 0.643983
vt 0.593998 0.636813
vt 0.116964 0.141430
vt 0.099642 0.140490
vt 0.099643 0.122963
vt 0.116965 0.122025
vt 0.418112 0.144277
vt 0.415241 0.221254
vt 0.395157 0.221272
vt 0.392195 0.169314
vt 0.418115 0.119236
vt 0.495095 0.122061
vt 0.495092 0.141467
vt 0.193946 0.119216
vt 0.193943 0.144255
vt 0.219856 0.169297
vt 0.216883 0.221256
vt 0.196799 0.221234
vt 0.219862 0.094177
vt 0.196816 0.042237
vt 0.216900 0.042219
vt 0.392203 0.094194
vt 0.395175 0.042237
vt 0.415259 0.042259
vt 0.414285 0.238576
vt 0.396145 0.238591
vt 0.678170 0.658567
vt 0.850509 0.658567
vt 0.850509 0.683607
vt 0.678170 0.683607
vt 0.081502 0.122961
vt 0.081501 0.140487
vt 0.512416 0.123003
vt 0.530556 0.123004
vt 0.530555 0.140532
vt 0.512415 0.140529
vt 0.197773 0.024917
vt 0.215913 0.024900
vt 0.587597 0.128534
vt 0.587596 0.135011
vt 0.215892 0.238575
vt 0.197752 0.238554
vt 0.396166 0.024918
vt 0.414306 0.024938
vt 0.339062 0.233516
vt 0.338697 0.227116
vt 0.626204 0.680790
vt 0.626204 0.661384
vt 0.902475 0.661384
vt 0.958907 0.667501
vt 0.958906 0.674673
vt 0.902475 0.680790
vt 0.338716 0.036383
vt 0.339081 0.029984
vt 0.272996 0.029976
vt 0.273360 0.036377
vt 0.024460 0.134957
vt 0.024461 0.128480
vt 0.273342 0.227110
vt 0.272976 0.233509
vt 0.018061 0.128133
vt 0.018059 0.135303
vt 0.569772 0.674671
vt 0.569772 0.667501
vt 0.593998 0.135359
vt 0.593998 0.128189
vt 0.611913 0.340027
vt 0.949689 0.340027
vt 0.949689 0.372958
vt 0.611913 0.372957
vt 0.611913 0.241236
vt 0.949689 0.241236
vt 0.949689 0.274167
vt 0.611913 0.274167
vt 0.949689 0.307096
vt 0.611913 0.307096
vt 0.578983 0.274167
vt 0.578983 0.307096
vt 0.982619 0.274167
vt 0.982619 0.307096
vn 0.0561 0.0000 0.9984
vn 0.0354 -0.9992 -0.0182
vn 0.0317 0.0000 -0.9995
vn 0.0317 0.0000 0.9995
vn 0.0000 -1.0000 -0.0000
vn 0.0354 -0.9992 0.0182
vn 0.0354 0.9992 0.0182
vn -1.0000 0.0000 0.0000
vn 0.0354 0.9992 -0.0182
vn 0.0542 -0.9985 -0.0000
vn 1.0000 0.0000 0.0000
vn 0.0542 0.9985 0.0000
vn 0.0561 0.0000 -0.9984
vn 0.9954 0.0000 0.0956
vn 0.0597 -0.9930 0.1024
vn 0.0435 0.0000 0.9991
vn -0.9953 0.0000 -0.0966
vn 0.0435 0.0000 -0.9991
vn 0.0597 0.9930 0.1024
vn 0.0597 0.9930 -0.1024
vn 0.9954 0.0000 -0.0956
vn 0.0597 -0.9930 -0.1024
vn -0.9953 0.0000 0.0966
vn 0.0000 1.0000 0.0000
vn 0.0000 -0.0000 1.0000
vn 0.0000 0.0000 -1.0000
vn -0.0000 0.9834 -0.1816
vn -1.0000 0.0056 -0.0044
vn -0.9999 0.0109 -0.0080
vn -0.9999 0.0112 -0.0089
vn 0.9605 -0.0107 0.2780
vn 0.9605 -0.0107 -0.2780
vn -0.9999 0.0112 0.0089
vn -0.9999 0.0109 0.0080
vn -1.0000 0.0056 0.0044
vn -0.0000 0.9834 0.1816
usemtl None
s 1
f 1/1/1 2/2/1 3/3/1 4/4/1
f 5/5/2 6/6/2 7/7/2 8/8/2
f 5/5/3 9/9/3 10/10/3 6/11/3
f 11/12/4 12/13/4 1/1/4 4/4/4
f 12/13/5 5/5/5 8/8/5 13/14/5
f 13/14/6 14/15/6 1/16/6 12/13/6
f 15/17/7 11/12/7 4/18/7 16/19/7
f 12/13/8 11/12/8 9/9/8 5/5/8
f 17/20/9 18/21/9 10/22/9 9/9/9
f 6/6/10 19/23/10 20/24/10 7/7/10
f 17/25/11 15/26/11 13/27/11 8/28/11
f 21/29/11 3/3/11 2/2/11 22/30/11
f 23/31/11 24/32/11 20/33/11 19/34/11
f 4/18/12 3/35/12 21/36/12 16/19/12
f 10/10/13 23/31/13 19/34/13 6/11/13
f 24/32/14 25/37/14 26/38/14 20/33/14
f 14/15/10 22/39/10 2/40/10 1/16/10
f 18/21/12 24/41/12 23/42/12 10/22/12
f 20/24/15 26/43/15 27/44/15 7/7/15
f 8/28/16 7/45/16 18/46/16 17/25/16
f 16/47/17 28/48/17 29/49/17 14/50/17
f 15/26/18 16/47/18 14/50/18 13/27/18
f 18/21/19 30/51/19 25/52/19 24/41/19
f 21/36/20 31/53/20 28/54/20 16/19/20
f 22/30/21 32/55/21 31/56/21 21/29/21
f 14/15/22 29/57/22 32/58/22 22/39/22
f 28/59/13 31/56/13 32/55/13 29/60/13
f 7/45/23 27/61/23 30/62/23 18/46/23
f 27/63/1 26/38/1 25/37/1 30/64/1
f 11/12/24 15/17/24 17/20/24 9/9/24
f 33/65/25 34/66/25 35/67/25 36/68/25
f 37/69/26 38/70/26 39/71/26 40/72/26
f 41/73/5 42/74/5 40/75/5 39/76/5
f 43/77/27 44/78/27 38/70/27 37/69/27
f 42/74/28 43/79/29 37/80/30 40/75/30
f 45/81/31 33/65/31 36/82/31 46/83/31
f 38/70/32 44/78/32 41/73/32 39/76/32
f 44/78/11 45/81/11 46/83/11 41/73/11
f 35/84/33 34/85/33 47/86/34 48/87/35
f 48/87/35 47/86/34 43/79/29 42/74/28
f 34/66/36 33/65/36 45/81/36 47/88/36
f 47/88/24 45/81/24 44/78/24 43/77/24
f 36/82/5 35/84/5 48/87/5 46/83/5
f 46/83/5 48/87/5 42/74/5 41/73/5
f 49/89/1 50/90/1 51/91/1 52/92/1
f 53/93/2 54/94/2 55/95/2 56/96/2
f 53/93/3 57/97/3 58/98/3 54/99/3
f 59/100/4 60/101/4 49/89/4 52/92/4
f 60/101/5 53/93/5 56/96/5 61/102/5
f 61/102/6 62/103/6 49/104/6 60/101/6
f 63/105/7 59/100/7 52/106/7 64/107/7
f 60/101/8 59/100/8 57/97/8 53/93/8
f 65/108/9 66/109/9 58/110/9 57/97/9
f 54/94/10 67/111/10 68/112/10 55/95/10
f 65/113/11 63/114/11 61/115/11 56/116/11
f 69/117/11 51/91/11 50/90/11 70/118/11
f 71/119/11 72/120/11 68/121/11 67/122/11
f 52/106/12 51/123/12 69/124/12 64/107/12
f 58/98/13 71/119/13 67/122/13 54/99/13
f 72/120/14 73/125/14 74/126/14 68/121/14
f 62/103/10 70/127/10 50/128/10 49/104/10
f 66/109/12 72/129/12 71/130/12 58/110/12
f 68/112/15 74/131/15 75/132/15 55/95/15
f 56/116/16 55/133/16 66/134/16 65/113/16
f 64/135/17 76/136/17 77/137/17 62/138/17
f 63/114/18 64/135/18 62/138/18 61/115/18
f 66/109/19 78/139/19 73/140/19 72/129/19
f 69/124/20 79/141/20 76/142/20 64/107/20
f 70/118/21 80/143/21 79/144/21 69/117/21
f 62/103/22 77/145/22 80/146/22 70/127/22
f 76/147/13 79/144/13 80/143/13 77/148/13
f 55/133/23 75/149/23 78/150/23 66/134/23
f 75/151/1 74/126/1 73/125/1 78/152/1
f 59/100/24 63/105/24 65/108/24 57/97/24
f 81/153/1 82/154/1 83/155/1 84/156/1
f 85/157/2 86/158/2 87/159/2 88/160/2
f 85/157/3 89/161/3 90/162/3 86/163/3
f 91/164/4 92/165/4 81/153/4 84/156/4
f 92/165/5 85/157/5 88/160/5 93/166/5
f 93/166/6 94/167/6 81/168/6 92/165/6
f 95/169/7 91/164/7 84/170/7 96/171/7
f 92/165/8 91/164/8 89/161/8 85/157/8
f 97/172/9 98/173/9 90/174/9 89/161/9
f 86/158/10 99/175/10 100/176/10 87/159/10
f 97/177/11 95/178/11 93/179/11 88/180/11
f 101/181/11 83/155/11 82/154/11 102/182/11
f 103/183/11 104/184/11 100/185/11 99/186/11
f 84/170/12 83/187/12 101/188/12 96/171/12
f 90/162/13 103/183/13 99/186/13 86/163/13
f 104/184/14 105/189/14 106/190/14 100/185/14
f 94/167/10 102/191/10 82/192/10 81/168/10
f 98/173/12 104/193/12 103/194/12 90/174/12
f 100/176/15 106/195/15 107/196/15 87/159/15
f 88/180/16 87/197/16 98/198/16 97/177/16
f 96/199/17 108/200/17 109/201/17 94/202/17
f 95/178/18 96/199/18 94/202/18 93/179/18
f 98/173/19 110/203/19 105/204/19 104/193/19
f 101/188/20 111/205/20 108/206/20 96/171/20
f 102/182/21 112/207/21 111/208/21 101/181/21
f 94/167/22 109/209/22 112/210/22 102/191/22
f 108/211/13 111/208/13 112/207/13 109/212/13
f 87/197/23 107/213/23 110/214/23 98/198/23
f 107/215/1 106/190/1 105/189/1 110/216/1
f 91/164/24 95/169/24 97/172/24 89/161/24
f 113/217/1 114/218/1 115/219/1 116/220/1
f 117/221/2 118/222/2 119/223/2 120/224/2
f 117/221/3 121/225/3 122/226/3 118/227/3
f 123/228/4 124/229/4 113/217/4 116/220/4
f 124/229/5 117/221/5 120/224/5 125/230/5
f 125/230/6 126/231/6 113/232/6 124/229/6
f 127/233/7 123/228/7 116/234/7 128/235/7
f 124/229/8 123/228/8 121/225/8 117/221/8
f 129/236/9 130/237/9 122/238/9 121/225/9
f 118/222/10 131/239/10 132/240/10 119/223/10
f 129/241/11 127/242/11 125/243/11 120/244/11
f 133/245/11 115/219/11 114/218/11 134/246/11
f 135/247/11 136/248/11 132/249/11 131/250/11
f 116/234/12 115/251/12 133/252/12 128/235/12
f 122/226/13 135/247/13 131/250/13 118/227/13
f 136/248/14 137/253/14 138/254/14 132/249/14
f 126/231/10 134/255/10 114/256/10 113/232/10
f 130/237/12 136/257/12 135/258/12 122/238/12
f 132/240/15 138/259/15 139/260/15 119/223/15
f 120/244/16 119/261/16 130/262/16 129/241/16
f 128/263/17 140/264/17 141/265/17 126/266/17
f 127/242/18 128/263/18 126/266/18 125/243/18
f 130/237/19 142/267/19 137/268/19 136/257/19
f 133/252/20 143/269/20 140/270/20 128/235/20
f 134/246/21 144/271/21 143/272/21 133/245/21
f 126/231/22 141/273/22 144/274/22 134/255/22
f 140/275/13 143/272/13 144/271/13 141/276/13
f 119/261/23 139/277/23 142/278/23 130/262/23
f 139/279/1 138/254/1 137/253/1 142/280/1
f 123/228/24 127/233/24 129/236/24 121/225/24
f 145/281/1 146/282/1 147/283/1 148/284/1
f 149/285/2 150/286/2 151/287/2 152/288/2
f 149/285/3 153/289/3 154/290/3 150/291/3
f 155/292/4 156/293/4 145/281/4 148/284/4
f 156/293/5 149/285/5 152/288/5 157/294/5
f 157/294/6 158/295/6 145/296/6 156/293/6
f 159/297/7 155/292/7 148/298/7 160/299/7
f 156/293/8 155/292/8 153/289/8 149/285/8
f 161/300/9 162/301/9 154/302/9 153/289/9
f 150/286/10 163/303/10 164/304/10 151/287/10
f 161/305/11 159/306/11 157/307/11 152/308/11
f 165/309/11 147/283/11 146/282/11 166/310/11
f 167/311/11 168/312/11 164/313/11 163/314/11
f 148/298/12 147/315/12 165/316/12 160/299/12
f 154/290/13 167/311/13 163/314/13 150/291/13
f 168/312/14 169/317/14 170/318/14 164/313/14
f 158/295/10 166/319/10 146/320/10 145/296/10
f 162/301/12 168/321/12 167/322/12 154/302/12
f 164/304/15 170/323/15 171/324/15 151/287/15
f 152/308/16 151/325/16 162/326/16 161/305/16
f 160/327/17 172/328/17 173/329/17 158/330/17
f 159/306/18 160/327/18 158/330/18 157/307/18
f 162/301/19 174/331/19 169/332/19 168/321/19
f 165/316/20 175/333/20 172/334/20 160/299/20
f 166/310/21 176/335/21 175/336/21 165/309/21
f 158/295/22 173/337/22 176/338/22 166/319/22
f 172/339/13 175/336/13 176/335/13 173/340/13
f 151/325/23 171/341/23 174/342/23 162/326/23
f 171/343/1 170/318/1 169/317/1 174/344/1
f 155/292/24 159/297/24 161/300/24 153/289/24
f 177/345/8 178/346/8 179/347/8 180/348/8
f 180/349/26 179/350/26 181/351/26 182/352/26
f 182/352/11 181/351/11 183/353/11 184/354/11
f 184/354/25 183/353/25 178/346/25 177/345/25
f 180/355/5 182/352/5 184/354/5 177/356/5
f 181/351/24 179/357/24 178/358/24 183/353/24
