# Blender v2.79 (sub 0) OBJ File: 'body_81.blend'
# www.blender.org
mtllib body_81.mtl
o Body_7_Cylinder.004
v -1.432546 0.368817 -1.727965
v -1.432546 0.705927 -1.694763
v -1.432546 1.030081 -1.596431
v -1.432546 1.328823 -1.436750
v -1.432546 1.590673 -1.221856
v -1.432546 1.805568 -0.960006
v -1.432546 1.965249 -0.661263
v -1.432546 2.063580 -0.337109
v -1.432546 2.096782 0.000000
v -1.432546 2.063580 0.337109
v -1.432546 1.965249 0.661264
v -1.432546 1.805568 0.960006
v -1.432546 1.590673 1.221856
v -1.432546 1.328823 1.436751
v -1.432546 1.030081 1.596432
v -1.432546 0.705926 1.694763
v -1.432546 0.368817 1.727965
v -1.432546 0.939686 -2.869948
v -1.432546 0.368817 -2.926173
v -1.432546 1.488616 -2.703432
v -1.432546 1.994513 -2.433024
v -1.432546 2.437935 -2.069117
v -1.432546 2.801842 -1.625695
v -1.432546 3.072249 -1.119798
v -1.432546 3.238766 -0.570868
v -1.432546 3.294991 0.000000
v -1.432546 3.238766 0.570868
v -1.432546 3.072250 1.119798
v -1.432546 2.801842 1.625695
v -1.432546 2.437935 2.069118
v -1.432546 1.994512 2.433025
v -1.432546 1.488615 2.703433
v -1.432546 0.939685 2.869949
v -1.432546 0.368817 2.926174
vt 0.380674 0.017460
vt 0.380674 0.988354
vt 0.319978 0.988354
vt 0.319978 0.017460
vt 0.926939 0.017460
vt 0.926939 0.988354
vt 0.866243 0.988354
vt 0.866243 0.017460
vt 0.441371 0.017460
vt 0.441371 0.988354
vt 0.987636 0.017460
vt 0.987636 0.988354
vt 0.502067 0.017460
vt 0.502067 0.988354
vt 0.562763 0.017460
vt 0.562763 0.988354
vt 0.077194 0.017460
vt 0.077194 0.988354
vt 0.016498 0.988354
vt 0.016498 0.017460
vt 0.623459 0.017460
vt 0.623459 0.988354
vt 0.805547 0.988354
vt 0.805547 0.017460
vt 0.259282 0.988354
vt 0.259282 0.017460
vt 0.744851 0.988354
vt 0.744851 0.017460
vt 0.198586 0.988354
vt 0.198586 0.017460
vt 0.684155 0.988354
vt 0.684155 0.017460
vt 0.137890 0.988354
vt 0.137890 0.017460
vn 1.0000 -0.0000 0.0000
usemtl None
s off
f 11/1/1 28/2/1 29/3/1 12/4/1
f 2/5/1 18/6/1 20/7/1 3/8/1
f 10/9/1 27/10/1 28/2/1 11/1/1
f 1/11/1 19/12/1 18/6/1 2/5/1
f 9/13/1 26/14/1 27/10/1 10/9/1
f 8/15/1 25/16/1 26/14/1 9/13/1
f 16/17/1 33/18/1 34/19/1 17/20/1
f 7/21/1 24/22/1 25/16/1 8/15/1
f 3/8/1 20/7/1 21/23/1 4/24/1
f 12/4/1 29/3/1 30/25/1 13/26/1
f 4/24/1 21/23/1 22/27/1 5/28/1
f 13/26/1 30/25/1 31/29/1 14/30/1
f 5/28/1 22/27/1 23/31/1 6/32/1
f 14/30/1 31/29/1 32/33/1 15/34/1
f 6/32/1 23/31/1 24/22/1 7/21/1
f 15/34/1 32/33/1 33/18/1 16/17/1
