# Blender v3.0.0 OBJ File: ''
# www.blender.org
mtllib body_220.mtl
o 6_Plane.003
v -1.369940 0.409068 1.495386
v -1.369940 0.672960 1.495386
v -1.369940 0.848888 1.495386
v -1.369940 1.112779 1.495386
v -1.369940 1.288707 1.495386
v -1.369940 1.552599 1.495386
v -1.369940 1.728526 1.495386
v -1.369940 1.992418 1.495386
v -1.369940 2.168346 1.495386
v -1.369940 2.432237 1.495386
v -1.369940 2.432237 2.023170
v -1.369940 2.168346 2.023170
v -1.369940 1.992418 2.023170
v -1.369940 1.728526 2.023170
v -1.369940 1.552598 2.023170
v -1.369940 1.288707 2.023170
v -1.369940 1.112779 2.023170
v -1.369940 0.848887 2.023170
v -1.369940 0.672960 2.023169
v -1.369940 0.409068 2.023169
v -1.369940 0.409068 0.615747
v -1.369940 0.672960 0.615747
v -1.369940 0.848888 0.615747
v -1.369940 1.112779 0.615747
v -1.369940 1.288707 0.615747
v -1.369940 1.552599 0.615747
v -1.369940 1.728526 0.615747
v -1.369940 1.992418 0.615747
v -1.369940 2.168346 0.615747
v -1.369940 2.432237 0.615747
v -1.369940 2.432237 1.143530
v -1.369940 2.168346 1.143530
v -1.369940 1.992418 1.143530
v -1.369940 1.728526 1.143530
v -1.369940 1.552598 1.143530
v -1.369940 1.288707 1.143530
v -1.369940 1.112779 1.143530
v -1.369940 0.848887 1.143530
v -1.369940 0.672960 1.143530
v -1.369940 0.409068 1.143530
v -1.369940 0.409068 -0.263892
v -1.369940 0.672960 -0.263892
v -1.369940 0.848888 -0.263892
v -1.369940 1.112779 -0.263892
v -1.369940 1.288707 -0.263892
v -1.369940 1.552599 -0.263892
v -1.369940 1.728526 -0.263892
v -1.369940 1.992418 -0.263892
v -1.369940 2.168346 -0.263892
v -1.369940 2.432237 -0.263892
v -1.369940 2.432237 0.263892
v -1.369940 2.168346 0.263892
v -1.369940 1.992418 0.263892
v -1.369940 1.728526 0.263892
v -1.369940 1.552598 0.263892
v -1.369940 1.288707 0.263892
v -1.369940 1.112779 0.263892
v -1.369940 0.848887 0.263892
v -1.369940 0.672960 0.263892
v -1.369940 0.409068 0.263892
v -1.369940 0.409068 -1.143530
v -1.369940 0.672960 -1.143530
v -1.369940 0.848888 -1.143530
v -1.369940 1.112779 -1.143530
v -1.369940 1.288707 -1.143530
v -1.369940 1.552599 -1.143530
v -1.369940 1.728526 -1.143530
v -1.369940 1.992418 -1.143530
v -1.369940 2.168346 -1.143530
v -1.369940 2.432237 -1.143530
v -1.369940 2.432237 -0.615747
v -1.369940 2.168346 -0.615747
v -1.369940 1.992418 -0.615747
v -1.369940 1.728526 -0.615747
v -1.369940 1.552598 -0.615747
v -1.369940 1.288707 -0.615747
v -1.369940 1.112779 -0.615747
v -1.369940 0.848887 -0.615747
v -1.369940 0.672960 -0.615747
v -1.369940 0.409068 -0.615747
v -1.369940 0.672960 -2.023170
v -1.369940 0.409068 -2.023170
v -1.369940 1.112779 -2.023170
v -1.369940 0.848888 -2.023170
v -1.369940 1.552599 -2.023170
v -1.369940 1.288707 -2.023170
v -1.369940 1.992418 -2.023170
v -1.369940 1.728526 -2.023170
v -1.369940 2.432237 -2.023169
v -1.369940 2.168346 -2.023169
v -1.369940 2.432237 -1.495386
v -1.369940 2.168346 -1.495386
v -1.369940 1.992418 -1.495386
v -1.369940 1.728526 -1.495386
v -1.369940 1.552598 -1.495386
v -1.369940 1.288707 -1.495386
v -1.369940 1.112779 -1.495386
v -1.369940 0.848887 -1.495386
v -1.369940 0.672960 -1.495386
v -1.369940 0.409068 -1.495386
v -1.369940 2.608165 1.495386
v -1.369940 2.872056 1.495386
v -1.369940 3.047984 1.495386
v -1.369940 3.311876 1.495386
v -1.369940 3.487804 1.495386
v -1.369940 3.751695 1.495386
v -1.369940 3.927623 1.495386
v -1.369940 4.191515 1.495386
v -1.369940 4.191515 2.023169
v -1.369940 3.927623 2.023169
v -1.369940 3.751695 2.023169
v -1.369940 3.487804 2.023169
v -1.369940 3.311876 2.023169
v -1.369940 3.047984 2.023169
v -1.369940 2.872056 2.023169
v -1.369940 2.608165 2.023169
v -1.369940 2.608165 0.615747
v -1.369940 2.872056 0.615747
v -1.369940 3.047984 0.615747
v -1.369940 3.311876 0.615747
v -1.369940 3.487804 0.615747
v -1.369940 3.751695 0.615747
v -1.369940 3.927623 0.615747
v -1.369940 4.191515 0.615747
v -1.369940 4.191515 1.143530
v -1.369940 3.927623 1.143530
v -1.369940 3.751695 1.143530
v -1.369940 3.487804 1.143530
v -1.369940 3.311876 1.143530
v -1.369940 3.047984 1.143530
v -1.369940 2.872056 1.143530
v -1.369940 2.608165 1.143530
v -1.369940 2.608165 -0.263892
v -1.369940 2.872056 -0.263892
v -1.369940 3.047984 -0.263892
v -1.369940 3.311876 -0.263892
v -1.369940 3.487804 -0.263892
v -1.369940 3.751695 -0.263892
v -1.369940 3.927623 -0.263892
v -1.369940 4.191515 -0.263892
v -1.369940 4.191515 0.263892
v -1.369940 3.927623 0.263892
v -1.369940 3.751695 0.263892
v -1.369940 3.487804 0.263892
v -1.369940 3.311876 0.263892
v -1.369940 3.047984 0.263892
v -1.369940 2.872056 0.263892
v -1.369940 2.608165 0.263892
v -1.369940 2.608165 -1.143530
v -1.369940 2.872056 -1.143530
v -1.369940 3.047984 -1.143530
v -1.369940 3.311876 -1.143530
v -1.369940 3.487804 -1.143530
v -1.369940 3.751695 -1.143530
v -1.369940 3.927623 -1.143530
v -1.369940 4.191515 -1.143530
v -1.369940 4.191515 -0.615747
v -1.369940 3.927623 -0.615747
v -1.369940 3.751695 -0.615747
v -1.369940 3.487804 -0.615747
v -1.369940 3.311876 -0.615747
v -1.369940 3.047984 -0.615747
v -1.369940 2.872056 -0.615747
v -1.369940 2.608165 -0.615747
v -1.369940 2.872056 -2.023169
v -1.369940 2.608165 -2.023169
v -1.369940 3.311876 -2.023169
v -1.369940 3.047984 -2.023169
v -1.369940 3.751695 -2.023169
v -1.369940 3.487804 -2.023169
v -1.369940 4.191515 -2.023169
v -1.369940 3.927623 -2.023169
v -1.369940 4.191515 -1.495386
v -1.369940 3.927623 -1.495386
v -1.369940 3.751695 -1.495386
v -1.369940 3.487804 -1.495386
v -1.369940 3.311876 -1.495386
v -1.369940 3.047984 -1.495386
v -1.369940 2.872056 -1.495386
v -1.369940 2.608165 -1.495386
vt 0.933057 0.127325
vt 0.820428 0.127325
vt 0.820428 0.071011
vt 0.933057 0.071011
vt 0.933057 0.221183
vt 0.820428 0.221183
vt 0.820428 0.164868
vt 0.933057 0.164868
vt 0.933057 0.315040
vt 0.820428 0.315040
vt 0.820428 0.258726
vt 0.933057 0.258726
vt 0.933057 0.408897
vt 0.820428 0.408897
vt 0.820428 0.352583
vt 0.933057 0.352583
vt 0.933056 0.502755
vt 0.820428 0.502755
vt 0.820428 0.446440
vt 0.933056 0.446440
vt 0.745342 0.127325
vt 0.632713 0.127325
vt 0.632713 0.071011
vt 0.745342 0.071011
vt 0.745342 0.221183
vt 0.632713 0.221183
vt 0.632713 0.164868
vt 0.745342 0.164868
vt 0.745342 0.315040
vt 0.632713 0.315040
vt 0.632713 0.258726
vt 0.745342 0.258726
vt 0.745342 0.408897
vt 0.632713 0.408897
vt 0.632713 0.352583
vt 0.745342 0.352583
vt 0.745342 0.502755
vt 0.632713 0.502755
vt 0.632713 0.446440
vt 0.745342 0.446440
vt 0.557627 0.127325
vt 0.444998 0.127325
vt 0.444998 0.071011
vt 0.557627 0.071011
vt 0.557627 0.221183
vt 0.444998 0.221183
vt 0.444998 0.164868
vt 0.557627 0.164868
vt 0.557627 0.315040
vt 0.444998 0.315040
vt 0.444998 0.258726
vt 0.557627 0.258726
vt 0.557627 0.408897
vt 0.444998 0.408897
vt 0.444998 0.352583
vt 0.557627 0.352583
vt 0.557627 0.502755
vt 0.444998 0.502755
vt 0.444998 0.446440
vt 0.557627 0.446440
vt 0.369912 0.127325
vt 0.257283 0.127325
vt 0.257283 0.071011
vt 0.369912 0.071011
vt 0.369912 0.221183
vt 0.257283 0.221183
vt 0.257283 0.164868
vt 0.369912 0.164868
vt 0.369912 0.315040
vt 0.257283 0.315040
vt 0.257283 0.258726
vt 0.369912 0.258726
vt 0.369912 0.408897
vt 0.257283 0.408897
vt 0.257283 0.352583
vt 0.369912 0.352583
vt 0.369912 0.502755
vt 0.257283 0.502755
vt 0.257283 0.446440
vt 0.369912 0.446440
vt 0.182197 0.127325
vt 0.069568 0.127325
vt 0.069568 0.071011
vt 0.182197 0.071011
vt 0.182197 0.221183
vt 0.069568 0.221183
vt 0.069568 0.164868
vt 0.182197 0.164868
vt 0.182197 0.315040
vt 0.069568 0.315040
vt 0.069568 0.258726
vt 0.182197 0.258726
vt 0.182197 0.408897
vt 0.069568 0.408897
vt 0.069568 0.352583
vt 0.182197 0.352583
vt 0.182197 0.502755
vt 0.069568 0.502755
vt 0.069568 0.446440
vt 0.182197 0.446440
vt 0.933056 0.596612
vt 0.820428 0.596612
vt 0.820428 0.540298
vt 0.933056 0.540298
vt 0.933056 0.690469
vt 0.820428 0.690469
vt 0.820428 0.634155
vt 0.933056 0.634155
vt 0.933056 0.784327
vt 0.820428 0.784327
vt 0.820428 0.728013
vt 0.933056 0.728013
vt 0.933056 0.878185
vt 0.820428 0.878185
vt 0.820428 0.821870
vt 0.933056 0.821870
vt 0.745342 0.596612
vt 0.632713 0.596612
vt 0.632713 0.540298
vt 0.745342 0.540298
vt 0.745342 0.690469
vt 0.632713 0.690469
vt 0.632713 0.634155
vt 0.745342 0.634155
vt 0.745342 0.784327
vt 0.632713 0.784327
vt 0.632713 0.728013
vt 0.745342 0.728013
vt 0.745342 0.878185
vt 0.632713 0.878185
vt 0.632713 0.821870
vt 0.745342 0.821870
vt 0.557627 0.596612
vt 0.444998 0.596612
vt 0.444998 0.540298
vt 0.557627 0.540298
vt 0.557627 0.690469
vt 0.444998 0.690469
vt 0.444998 0.634155
vt 0.557627 0.634155
vt 0.557627 0.784327
vt 0.444998 0.784327
vt 0.444998 0.728013
vt 0.557627 0.728013
vt 0.557627 0.878185
vt 0.444998 0.878185
vt 0.444998 0.821870
vt 0.557627 0.821870
vt 0.369912 0.596612
vt 0.257283 0.596612
vt 0.257283 0.540298
vt 0.369912 0.540298
vt 0.369912 0.690469
vt 0.257283 0.690469
vt 0.257283 0.634155
vt 0.369912 0.634155
vt 0.369912 0.784327
vt 0.257283 0.784327
vt 0.257283 0.728013
vt 0.369912 0.728013
vt 0.369912 0.878185
vt 0.257283 0.878185
vt 0.257283 0.821870
vt 0.369912 0.821870
vt 0.182197 0.596612
vt 0.069568 0.596612
vt 0.069568 0.540298
vt 0.182197 0.540298
vt 0.182197 0.690469
vt 0.069568 0.690469
vt 0.069568 0.634155
vt 0.182197 0.634155
vt 0.182197 0.784327
vt 0.069568 0.784327
vt 0.069568 0.728013
vt 0.182197 0.728013
vt 0.182197 0.878185
vt 0.069568 0.878185
vt 0.069568 0.821870
vt 0.182197 0.821870
vn 1.0000 0.0000 0.0000
usemtl None
s off
f 81/1/1 99/2/1 100/3/1 82/4/1
f 83/5/1 97/6/1 98/7/1 84/8/1
f 85/9/1 95/10/1 96/11/1 86/12/1
f 87/13/1 93/14/1 94/15/1 88/16/1
f 89/17/1 91/18/1 92/19/1 90/20/1
f 62/21/1 79/22/1 80/23/1 61/24/1
f 64/25/1 77/26/1 78/27/1 63/28/1
f 66/29/1 75/30/1 76/31/1 65/32/1
f 68/33/1 73/34/1 74/35/1 67/36/1
f 70/37/1 71/38/1 72/39/1 69/40/1
f 42/41/1 59/42/1 60/43/1 41/44/1
f 44/45/1 57/46/1 58/47/1 43/48/1
f 46/49/1 55/50/1 56/51/1 45/52/1
f 48/53/1 53/54/1 54/55/1 47/56/1
f 50/57/1 51/58/1 52/59/1 49/60/1
f 22/61/1 39/62/1 40/63/1 21/64/1
f 24/65/1 37/66/1 38/67/1 23/68/1
f 26/69/1 35/70/1 36/71/1 25/72/1
f 28/73/1 33/74/1 34/75/1 27/76/1
f 30/77/1 31/78/1 32/79/1 29/80/1
f 2/81/1 19/82/1 20/83/1 1/84/1
f 4/85/1 17/86/1 18/87/1 3/88/1
f 6/89/1 15/90/1 16/91/1 5/92/1
f 8/93/1 13/94/1 14/95/1 7/96/1
f 10/97/1 11/98/1 12/99/1 9/100/1
f 165/101/1 179/102/1 180/103/1 166/104/1
f 167/105/1 177/106/1 178/107/1 168/108/1
f 169/109/1 175/110/1 176/111/1 170/112/1
f 171/113/1 173/114/1 174/115/1 172/116/1
f 150/117/1 163/118/1 164/119/1 149/120/1
f 152/121/1 161/122/1 162/123/1 151/124/1
f 154/125/1 159/126/1 160/127/1 153/128/1
f 156/129/1 157/130/1 158/131/1 155/132/1
f 134/133/1 147/134/1 148/135/1 133/136/1
f 136/137/1 145/138/1 146/139/1 135/140/1
f 138/141/1 143/142/1 144/143/1 137/144/1
f 140/145/1 141/146/1 142/147/1 139/148/1
f 118/149/1 131/150/1 132/151/1 117/152/1
f 120/153/1 129/154/1 130/155/1 119/156/1
f 122/157/1 127/158/1 128/159/1 121/160/1
f 124/161/1 125/162/1 126/163/1 123/164/1
f 102/165/1 115/166/1 116/167/1 101/168/1
f 104/169/1 113/170/1 114/171/1 103/172/1
f 106/173/1 111/174/1 112/175/1 105/176/1
f 108/177/1 109/178/1 110/179/1 107/180/1
