# Blender v2.79 (sub 0) OBJ File: 'angleWings.blend'
# www.blender.org
mtllib body_7.mtl
o Cube.001_Cube.005
v -0.199390 0.192230 0.477196
v -0.173087 0.226178 0.439237
v -0.216434 0.192230 0.465386
v -0.190131 0.226178 0.427427
v -0.127261 0.315147 0.373102
v -0.144305 0.315147 0.361292
v -0.016023 0.039502 0.176161
v 0.001021 0.039502 0.187971
v 0.072847 0.074189 0.047907
v 0.077403 0.035224 0.041332
v 0.094447 0.035224 0.053143
v 0.089891 0.074189 0.059718
v -0.253412 0.028017 0.518751
v -0.236368 0.028017 0.530562
v -0.045765 -0.219214 0.255491
v -0.062809 -0.219214 0.243681
v 0.042973 -0.128989 0.127427
v 0.025930 -0.128989 0.115617
v -0.096235 -0.351463 0.328327
v -0.113279 -0.351463 0.316517
v -0.230850 -0.394936 0.486191
v -0.213806 -0.394936 0.498001
v -0.113174 -0.536855 0.352773
v -0.130218 -0.536855 0.340963
v -0.155374 -0.658215 0.377268
v -0.138330 -0.658215 0.389078
v -0.136039 -0.678946 0.349364
v -0.118995 -0.678946 0.361174
v -0.110675 -0.679903 0.349166
v -0.127719 -0.679903 0.337356
v -0.074659 0.346835 0.297189
v -0.091703 0.346835 0.285379
v -0.051314 0.120328 0.263499
v -0.068358 0.120328 0.251689
v -0.240360 -0.071017 0.536322
v -0.257404 -0.071017 0.524512
v -0.248905 -0.262013 0.512246
v -0.231861 -0.262013 0.524057
v -0.217264 -0.442326 0.466584
v -0.200220 -0.442326 0.478395
v -0.278397 -0.123673 0.554809
v -0.261353 -0.123673 0.566619
v -0.263830 -0.320520 0.533787
v -0.246786 -0.320520 0.545597
v -0.225595 -0.486815 0.478607
v -0.208551 -0.486815 0.490417
v 0.066598 0.035636 0.112599
v 0.061302 0.073178 0.120242
v 0.031516 0.035636 0.088289
v 0.026219 0.073178 0.095933
v 0.104590 0.083064 0.057771
v 0.090175 0.112310 0.078573
v 0.069507 0.083064 0.033461
v 0.055093 0.112310 0.054264
v -0.022117 0.017124 0.165690
v 0.012965 0.017124 0.190000
v 0.017343 0.055029 0.183681
v -0.017739 0.055029 0.159372
v -0.071730 0.074677 0.237289
v -0.036648 0.074677 0.261599
v -0.020702 0.101361 0.238587
v -0.055784 0.101361 0.214277
v -0.102832 0.179859 0.282175
v -0.067750 0.179859 0.306484
v -0.046364 0.189132 0.275621
v -0.081447 0.189132 0.251312
v -0.102858 0.276873 0.282211
v -0.067775 0.276873 0.306521
v -0.106103 0.325619 0.286896
v -0.071021 0.325619 0.311205
v -0.039484 0.344821 0.265692
v -0.074567 0.344821 0.241383
v -0.112840 0.334029 0.296618
v -0.077758 0.334029 0.320927
v -0.055802 0.392165 0.289242
v -0.090885 0.392165 0.264932
v -0.135455 0.321926 0.329254
v -0.100372 0.321926 0.353564
v -0.099728 0.374988 0.352635
v -0.134811 0.374988 0.328325
v -0.162524 0.269874 0.443258
v -0.197606 0.269874 0.418949
v -0.249663 0.141638 0.494075
v -0.214580 0.141638 0.518384
v -0.218124 0.153290 0.523499
v -0.253207 0.153290 0.499189
v -0.199390 0.192230 -0.477196
v -0.173087 0.226178 -0.439237
v -0.216434 0.192230 -0.465386
v -0.190131 0.226178 -0.427427
v -0.127261 0.315147 -0.373102
v -0.144305 0.315147 -0.361292
v -0.016023 0.039502 -0.176161
v 0.001021 0.039502 -0.187971
v 0.072847 0.074189 -0.047908
v 0.077403 0.035224 -0.041333
v 0.094447 0.035224 -0.053143
v 0.089891 0.074189 -0.059718
v -0.253412 0.028017 -0.518751
v -0.236368 0.028017 -0.530562
v -0.045765 -0.219214 -0.255491
v -0.062809 -0.219214 -0.243681
v 0.042973 -0.128989 -0.127427
v 0.025930 -0.128989 -0.115617
v -0.096235 -0.351463 -0.328327
v -0.113279 -0.351463 -0.316517
v -0.230850 -0.394936 -0.486191
v -0.213806 -0.394936 -0.498001
v -0.113174 -0.536855 -0.352773
v -0.130218 -0.536855 -0.340963
v -0.155375 -0.658215 -0.377268
v -0.138330 -0.658215 -0.389078
v -0.136039 -0.678946 -0.349364
v -0.118995 -0.678946 -0.361174
v -0.110675 -0.679903 -0.349166
v -0.127719 -0.679903 -0.337356
v -0.074659 0.346835 -0.297189
v -0.091703 0.346835 -0.285379
v -0.051314 0.120328 -0.263499
v -0.068358 0.120328 -0.251689
v -0.240360 -0.071017 -0.536322
v -0.257404 -0.071017 -0.524512
v -0.248905 -0.262013 -0.512246
v -0.231861 -0.262013 -0.524057
v -0.217264 -0.442326 -0.466585
v -0.200220 -0.442326 -0.478395
v -0.278397 -0.123673 -0.554809
v -0.261353 -0.123673 -0.566619
v -0.263830 -0.320520 -0.533787
v -0.246786 -0.320520 -0.545597
v -0.225595 -0.486815 -0.478607
v -0.208551 -0.486815 -0.490417
v 0.066598 0.035636 -0.112599
v 0.061302 0.073178 -0.120242
v 0.031516 0.035636 -0.088289
v 0.026219 0.073178 -0.095933
v 0.104590 0.083064 -0.057771
v 0.090175 0.112310 -0.078573
v 0.069507 0.083064 -0.033461
v 0.055093 0.112310 -0.054264
v -0.022117 0.017124 -0.165690
v 0.012965 0.017124 -0.190000
v 0.017343 0.055029 -0.183681
v -0.017739 0.055029 -0.159372
v -0.071730 0.074677 -0.237289
v -0.036648 0.074677 -0.261599
v -0.020702 0.101361 -0.238587
v -0.055784 0.101361 -0.214277
v -0.102832 0.179859 -0.282175
v -0.067750 0.179859 -0.306484
v -0.046364 0.189132 -0.275621
v -0.081447 0.189132 -0.251312
v -0.102858 0.276873 -0.282211
v -0.067775 0.276873 -0.306521
v -0.106103 0.325619 -0.286896
v -0.071021 0.325619 -0.311205
v -0.039484 0.344821 -0.265692
v -0.074567 0.344821 -0.241383
v -0.112840 0.334029 -0.296618
v -0.077758 0.334029 -0.320927
v -0.055802 0.392165 -0.289242
v -0.090885 0.392165 -0.264932
v -0.135455 0.321926 -0.329254
v -0.100372 0.321926 -0.353564
v -0.099728 0.374988 -0.352635
v -0.134811 0.374988 -0.328325
v -0.162524 0.269874 -0.443258
v -0.197606 0.269874 -0.418949
v -0.249663 0.141638 -0.494075
v -0.214580 0.141638 -0.518384
v -0.218124 0.153290 -0.523499
v -0.253207 0.153290 -0.499189
vt 0.730703 0.970632
vt 0.762803 0.970632
vt 0.762803 0.982245
vt 0.730702 0.982245
vt 0.137289 0.911780
vt 0.094328 0.857531
vt 0.221395 0.804663
vt 0.189258 0.933504
vt 0.507946 0.958805
vt 0.530225 0.958805
vt 0.530225 0.970418
vt 0.507946 0.970418
vt 0.277338 0.761601
vt 0.239808 0.609576
vt 0.504257 0.609576
vt 0.466728 0.761602
vt 0.417972 0.667389
vt 0.631805 0.982245
vt 0.631805 0.970631
vt 0.326093 0.667389
vt 0.302129 0.958805
vt 0.302129 0.970419
vt 0.212971 0.970418
vt 0.212971 0.958805
vt 0.092116 0.470916
vt 0.162810 0.350739
vt 0.183658 0.422265
vt 0.402966 0.958805
vt 0.402966 0.970418
vt 0.331583 0.970631
vt 0.331583 0.982244
vt 0.255049 0.982244
vt 0.255049 0.970631
vt 0.606777 0.911780
vt 0.554808 0.933504
vt 0.522671 0.804663
vt 0.649738 0.857531
vt 0.107811 0.970418
vt 0.107811 0.958805
vt 0.560406 0.422265
vt 0.651948 0.470915
vt 0.550278 0.530106
vt 0.041736 0.982244
vt 0.019457 0.982244
vt 0.019457 0.970630
vt 0.041736 0.970630
vt 0.177102 0.970631
vt 0.177102 0.982244
vt 0.027657 0.970418
vt 0.027657 0.958805
vt 0.183134 0.340086
vt 0.191579 0.340086
vt 0.367488 0.982244
vt 0.367488 0.970631
vt 0.507370 0.970631
vt 0.507370 0.982245
vt 0.019457 0.970418
vt 0.019457 0.958805
vt 0.543368 0.970631
vt 0.543368 0.982245
vt 0.037844 0.739271
vt 0.018313 0.650298
vt 0.037544 0.681998
vt 0.658690 0.444754
vt 0.667467 0.497295
vt 0.690728 0.572616
vt 0.703606 0.537949
vt 0.706521 0.681998
vt 0.076598 0.497296
vt 0.085374 0.444754
vt 0.203331 0.970631
vt 0.203331 0.982244
vt 0.193786 0.530106
vt 0.725753 0.650297
vt 0.706222 0.739271
vt 0.040459 0.537949
vt 0.053337 0.572616
vt 0.675042 0.836247
vt 0.069024 0.836248
vt 0.365850 0.787453
vt 0.371924 0.765325
vt 0.372142 0.765326
vt 0.378216 0.787454
vt 0.581255 0.350739
vt 0.560931 0.340086
vt 0.552485 0.340086
vt 0.962351 0.223944
vt 0.951411 0.273488
vt 0.902517 0.251199
vt 0.899989 0.238135
vt 0.900304 0.186549
vt 0.109415 0.130756
vt 0.073954 0.130756
vt 0.073954 0.091623
vt 0.109415 0.091623
vt 0.844895 0.369161
vt 0.819266 0.455911
vt 0.783805 0.455906
vt 0.814112 0.351559
vt 0.184457 0.130756
vt 0.184457 0.091623
vt 0.073954 0.052264
vt 0.132671 0.052264
vt 0.132671 0.091398
vt 0.073954 0.091398
vt 0.205365 0.091397
vt 0.205365 0.052264
vt 0.279900 0.052264
vt 0.279900 0.091397
vt 0.279979 0.267806
vt 0.329308 0.246501
vt 0.355640 0.282989
vt 0.384555 0.365593
vt 0.272447 0.091623
vt 0.272447 0.130756
vt 0.953670 0.607228
vt 0.879399 0.596500
vt 0.896980 0.565704
vt 0.955379 0.571809
vt 0.368170 0.091623
vt 0.368170 0.130756
vt 0.613663 0.214815
vt 0.366439 0.217086
vt 0.332817 0.181908
vt 0.472455 0.184707
vt 0.610655 0.203084
vt 0.662139 0.091623
vt 0.909373 0.091623
vt 0.909373 0.130756
vt 0.662139 0.130756
vt 0.370358 0.052264
vt 0.370358 0.091397
vt 0.476829 0.091623
vt 0.476830 0.130756
vt 0.345502 0.592195
vt 0.271031 0.601433
vt 0.270033 0.565987
vt 0.328543 0.561053
vt 0.565777 0.091623
vt 0.565777 0.130756
vt 0.834280 0.528919
vt 0.805198 0.549209
vt 0.391966 0.525532
vt 0.408441 0.452840
vt 0.443895 0.453546
vt 0.420636 0.546400
vt 0.875460 0.287153
vt 0.610775 0.091623
vt 0.610775 0.130756
vt 0.564268 0.091397
vt 0.564268 0.052264
vt 0.636713 0.052264
vt 0.636713 0.091397
vt 0.513531 0.091397
vt 0.513531 0.052264
vt 0.624081 0.091622
vt 0.624081 0.130755
vt 0.622098 0.202153
vt 0.760638 0.186549
vt 0.865983 0.221046
vt 0.618855 0.213821
vt 0.270033 0.218052
vt 0.332098 0.233490
vt 0.776379 0.052264
vt 0.776379 0.091397
vt 0.921484 0.091623
vt 0.921484 0.130756
vt 0.915795 0.052264
vt 0.915795 0.091398
vt 0.415685 0.348612
vt 0.730703 0.970632
vt 0.730702 0.982245
vt 0.762803 0.982245
vt 0.762803 0.970632
vt 0.137289 0.911780
vt 0.189258 0.933504
vt 0.221395 0.804663
vt 0.094328 0.857531
vt 0.507946 0.958805
vt 0.507946 0.970418
vt 0.530225 0.970418
vt 0.530225 0.958805
vt 0.277338 0.761601
vt 0.239808 0.609576
vt 0.504257 0.609576
vt 0.417972 0.667389
vt 0.466728 0.761602
vt 0.631805 0.970631
vt 0.631805 0.982245
vt 0.326093 0.667389
vt 0.302129 0.958805
vt 0.212971 0.958805
vt 0.212971 0.970418
vt 0.302129 0.970419
vt 0.092116 0.470916
vt 0.183658 0.422265
vt 0.162810 0.350739
vt 0.402966 0.970418
vt 0.402966 0.958805
vt 0.331583 0.970631
vt 0.255049 0.970631
vt 0.255049 0.982244
vt 0.331583 0.982244
vt 0.606777 0.911780
vt 0.649738 0.857531
vt 0.522671 0.804663
vt 0.554808 0.933504
vt 0.107811 0.958805
vt 0.107811 0.970418
vt 0.560406 0.422265
vt 0.550278 0.530106
vt 0.651948 0.470915
vt 0.041736 0.982244
vt 0.041736 0.970630
vt 0.019457 0.970630
vt 0.019457 0.982244
vt 0.177102 0.970631
vt 0.177102 0.982244
vt 0.027657 0.958805
vt 0.027657 0.970418
vt 0.191579 0.340086
vt 0.183134 0.340086
vt 0.367488 0.982244
vt 0.507370 0.982245
vt 0.507370 0.970631
vt 0.367488 0.970631
vt 0.019457 0.970418
vt 0.019457 0.958805
vt 0.543368 0.982245
vt 0.543368 0.970631
vt 0.037844 0.739271
vt 0.037544 0.681998
vt 0.018313 0.650298
vt 0.667467 0.497295
vt 0.658690 0.444754
vt 0.690728 0.572616
vt 0.706521 0.681998
vt 0.703606 0.537949
vt 0.076598 0.497296
vt 0.085374 0.444754
vt 0.203331 0.982244
vt 0.203331 0.970631
vt 0.193786 0.530106
vt 0.706222 0.739271
vt 0.725753 0.650297
vt 0.053337 0.572616
vt 0.040459 0.537949
vt 0.675042 0.836247
vt 0.069024 0.836248
vt 0.365850 0.787453
vt 0.371924 0.765325
vt 0.372142 0.765326
vt 0.378216 0.787454
vt 0.581255 0.350739
vt 0.560931 0.340086
vt 0.552485 0.340086
vt 0.962351 0.223944
vt 0.900304 0.186549
vt 0.899989 0.238135
vt 0.902517 0.251199
vt 0.951411 0.273488
vt 0.109415 0.130756
vt 0.109415 0.091623
vt 0.073954 0.091623
vt 0.073954 0.130756
vt 0.844895 0.369161
vt 0.814112 0.351559
vt 0.783805 0.455906
vt 0.819266 0.455911
vt 0.184457 0.130756
vt 0.184457 0.091623
vt 0.073954 0.052264
vt 0.073954 0.091398
vt 0.132671 0.091398
vt 0.132671 0.052264
vt 0.205365 0.091397
vt 0.279900 0.091397
vt 0.279900 0.052264
vt 0.205365 0.052264
vt 0.279979 0.267806
vt 0.384555 0.365593
vt 0.355640 0.282989
vt 0.329308 0.246501
vt 0.272447 0.130756
vt 0.272447 0.091623
vt 0.953670 0.607228
vt 0.955379 0.571809
vt 0.896980 0.565704
vt 0.879399 0.596500
vt 0.368170 0.130756
vt 0.368170 0.091623
vt 0.613663 0.214815
vt 0.610655 0.203084
vt 0.472455 0.184707
vt 0.332817 0.181908
vt 0.366439 0.217086
vt 0.662139 0.091623
vt 0.662139 0.130756
vt 0.909373 0.130756
vt 0.909373 0.091623
vt 0.370358 0.091397
vt 0.370358 0.052264
vt 0.476830 0.130756
vt 0.476829 0.091623
vt 0.345502 0.592195
vt 0.328543 0.561053
vt 0.270033 0.565987
vt 0.271031 0.601433
vt 0.565777 0.130756
vt 0.565777 0.091623
vt 0.805198 0.549209
vt 0.834280 0.528919
vt 0.391966 0.525532
vt 0.420636 0.546400
vt 0.443895 0.453546
vt 0.408441 0.452840
vt 0.875460 0.287153
vt 0.610775 0.130756
vt 0.610775 0.091623
vt 0.564268 0.091397
vt 0.636713 0.091397
vt 0.636713 0.052264
vt 0.564268 0.052264
vt 0.513531 0.091397
vt 0.513531 0.052264
vt 0.624081 0.130755
vt 0.624081 0.091622
vt 0.622098 0.202153
vt 0.618855 0.213821
vt 0.865983 0.221046
vt 0.760638 0.186549
vt 0.332098 0.233490
vt 0.270033 0.218052
vt 0.776379 0.091397
vt 0.776379 0.052264
vt 0.921484 0.130756
vt 0.921484 0.091623
vt 0.915795 0.091398
vt 0.915795 0.052264
vt 0.415685 0.348612
vn -0.3373 0.8057 0.4868
vn 0.8220 0.0000 0.5696
vn 0.5579 0.2011 -0.8052
vn -0.8220 -0.0000 -0.5696
vn -0.5297 0.3677 0.7644
vn 0.4732 -0.5566 -0.6828
vn 0.2854 -0.8654 -0.4119
vn 0.4990 -0.4822 -0.7201
vn -0.5540 -0.2320 0.7995
vn 0.5624 -0.1584 -0.8116
vn -0.2968 -0.8535 0.4284
vn -0.5087 -0.4496 0.7342
vn 0.5693 0.0307 -0.8216
vn -0.5690 0.0452 0.8211
vn -0.0372 -0.9979 0.0537
vn 0.4666 -0.5735 -0.6734
vn -0.5471 0.2778 0.7896
vn 0.5198 -0.4088 -0.7501
vn 0.5411 -0.3123 -0.7808
vn -0.5667 -0.0999 0.8178
vn 0.4307 0.6544 -0.6215
vn 0.3300 -0.8150 -0.4763
vn -0.3480 0.7916 0.5023
vn 0.3246 0.8217 -0.4685
vn -0.1304 0.9734 0.1882
vn 0.1099 -0.9812 -0.1586
vn -0.3140 -0.8343 0.4531
vn 0.3808 -0.7436 -0.5496
vn 0.5067 0.4567 -0.7312
vn -0.5055 -0.4608 0.7295
vn -0.5696 -0.0005 0.8220
vn -0.5657 -0.1161 0.8164
vn -0.1238 0.9761 0.1787
vn 0.4873 0.5177 -0.7032
vn -0.3300 -0.8150 0.4763
vn 0.1661 -0.9566 -0.2397
vn 0.5678 -0.0774 -0.8195
vn -0.3930 0.7238 0.5672
vn -0.5024 -0.4710 0.7251
vn -0.4367 0.6420 0.6302
vn -0.3373 0.8057 -0.4868
vn 0.8220 0.0000 -0.5696
vn 0.5579 0.2011 0.8052
vn -0.8220 -0.0000 0.5696
vn -0.5297 0.3677 -0.7644
vn 0.4732 -0.5566 0.6828
vn 0.2854 -0.8654 0.4119
vn 0.4990 -0.4822 0.7201
vn -0.5540 -0.2320 -0.7995
vn 0.5624 -0.1584 0.8116
vn -0.2968 -0.8535 -0.4284
vn -0.5087 -0.4496 -0.7342
vn 0.5693 0.0307 0.8216
vn -0.5690 0.0452 -0.8211
vn -0.0372 -0.9979 -0.0537
vn 0.4666 -0.5735 0.6734
vn -0.5471 0.2778 -0.7896
vn 0.5198 -0.4088 0.7501
vn 0.5411 -0.3123 0.7808
vn -0.5667 -0.0999 -0.8178
vn 0.4307 0.6544 0.6215
vn 0.3300 -0.8150 0.4763
vn -0.3480 0.7916 -0.5023
vn 0.3246 0.8217 0.4685
vn -0.1304 0.9734 -0.1882
vn 0.1099 -0.9812 0.1586
vn -0.3140 -0.8343 -0.4531
vn 0.3808 -0.7436 0.5496
vn 0.5067 0.4567 0.7312
vn -0.5055 -0.4608 -0.7295
vn -0.5696 -0.0005 -0.8220
vn -0.5657 -0.1161 -0.8164
vn -0.1238 0.9761 -0.1787
vn 0.4873 0.5177 0.7032
vn -0.3300 -0.8150 -0.4763
vn 0.1661 -0.9566 0.2397
vn 0.5678 -0.0774 0.8195
vn -0.3930 0.7238 -0.5672
vn -0.5024 -0.4710 -0.7251
vn -0.4367 0.6420 -0.6302
usemtl Material
s off
f 1/1/1 2/2/1 4/3/1 3/4/1
f 5/5/2 2/6/2 33/7/2 31/8/2
f 10/9/3 9/10/3 12/11/3 11/12/3
f 8/13/2 33/7/2 15/14/2
f 16/15/4 7/16/4 18/17/4
f 1/1/5 3/4/5 13/18/5 14/19/5
f 15/14/2 17/20/2 8/13/2
f 16/21/6 15/22/6 19/23/6 20/24/6
f 40/25/2 26/26/2 23/27/2
f 15/22/7 16/21/7 18/28/7 17/29/7
f 10/9/8 11/12/8 17/29/8 18/28/8
f 38/30/9 37/31/9 21/32/9 22/33/9
f 6/34/4 32/35/4 34/36/4 4/37/4
f 20/24/10 19/23/10 23/38/10 24/39/10
f 24/40/4 39/41/4 20/42/4
f 25/43/11 27/44/11 28/45/11 26/46/11
f 40/47/12 39/48/12 25/43/12 26/46/12
f 24/39/13 23/38/13 29/49/13 30/50/13
f 26/26/2 28/51/2 29/52/2 23/27/2
f 43/53/14 44/54/14 35/55/14 36/56/14
f 28/57/15 27/58/15 30/50/15 29/49/15
f 36/56/16 35/55/16 42/59/16 41/60/16
f 14/61/2 42/62/2 35/63/2
f 39/41/4 45/64/4 21/65/4
f 37/66/4 43/67/4 36/68/4
f 14/19/17 13/18/17 41/60/17 42/59/17
f 38/30/18 44/54/18 43/53/18 37/31/18
f 22/69/2 46/70/2 40/25/2
f 40/47/19 46/71/19 45/72/19 39/48/19
f 45/72/20 46/71/20 22/33/20 21/32/20
f 19/73/2 40/25/2 23/27/2
f 36/68/4 41/74/4 13/75/4
f 35/63/2 44/76/2 38/77/2
f 34/36/4 7/16/4 16/15/4
f 4/37/4 34/36/4 16/15/4 20/42/4 3/78/4
f 13/75/4 3/78/4 20/42/4
f 36/68/4 13/75/4 20/42/4
f 37/66/4 36/68/4 20/42/4
f 21/65/4 37/66/4 20/42/4
f 20/42/4 39/41/4 21/65/4
f 1/79/2 19/73/2 15/14/2 33/7/2 2/6/2
f 1/79/2 14/61/2 19/73/2
f 14/61/2 35/63/2 19/73/2
f 35/63/2 38/77/2 19/73/2
f 38/77/2 22/69/2 19/73/2
f 19/73/2 22/69/2 40/25/2
f 12/80/2 8/13/2 11/81/2
f 11/81/2 8/13/2 17/20/2
f 10/82/4 18/17/4 7/16/4
f 10/82/4 7/16/4 9/83/4
f 24/40/4 25/84/4 39/41/4
f 27/85/4 25/84/4 24/40/4 30/86/4
f 76/87/4 72/88/4 69/89/4 73/90/4 80/91/4
f 53/92/21 54/93/21 52/94/21 51/95/21
f 66/96/4 62/97/4 59/98/4 63/99/4
f 49/100/22 53/92/22 51/95/22 47/101/22
f 54/102/23 50/103/23 48/104/23 52/105/23
f 57/106/24 58/107/24 62/108/24 61/109/24
f 71/110/2 70/111/2 68/112/2 65/113/2
f 48/104/25 50/103/25 58/107/25 57/106/25
f 49/100/26 47/101/26 56/114/26 55/115/26
f 53/116/4 49/117/4 50/118/4 54/119/4
f 55/115/27 56/114/27 60/120/27 59/121/27
f 84/122/2 78/123/2 79/124/2 81/125/2 85/126/2
f 78/127/28 84/128/28 83/129/28 77/130/28
f 61/109/29 62/108/29 66/131/29 65/132/29
f 59/121/30 60/120/30 64/133/30 63/134/30
f 47/135/2 51/136/2 52/137/2 48/138/2
f 63/134/31 64/133/31 68/139/31 67/140/31
f 62/97/4 58/141/4 55/142/4 59/98/4
f 57/143/2 61/144/2 60/145/2 56/146/2
f 63/99/4 67/147/4 66/96/4
f 67/140/32 68/139/32 70/148/32 69/149/32
f 75/150/33 76/151/33 80/152/33 79/153/33
f 72/88/4 66/96/4 67/147/4 69/89/4
f 71/154/34 72/155/34 76/151/34 75/150/34
f 69/149/35 70/148/35 74/156/35 73/157/35
f 86/158/4 82/159/4 80/91/4 77/160/4 83/161/4
f 73/157/36 74/156/36 78/127/36 77/130/36
f 49/117/4 55/142/4 58/141/4 50/118/4
f 66/131/37 72/155/37 71/154/37 65/132/37
f 71/110/2 75/162/2 79/124/2 74/163/2 70/111/2
f 79/124/2 78/123/2 74/163/2
f 79/153/38 80/152/38 82/164/38 81/165/38
f 84/128/39 85/166/39 86/167/39 83/129/39
f 81/165/40 82/164/40 86/168/40 85/169/40
f 61/144/2 65/113/2 64/170/2 60/145/2
f 73/90/4 77/160/4 80/91/4
f 47/135/2 48/138/2 57/143/2 56/146/2
f 65/113/2 68/112/2 64/170/2
f 87/171/41 89/172/41 90/173/41 88/174/41
f 91/175/42 117/176/42 119/177/42 88/178/42
f 96/179/43 97/180/43 98/181/43 95/182/43
f 94/183/42 101/184/42 119/177/42
f 102/185/44 104/186/44 93/187/44
f 87/171/45 100/188/45 99/189/45 89/172/45
f 101/184/42 94/183/42 103/190/42
f 102/191/46 106/192/46 105/193/46 101/194/46
f 126/195/42 109/196/42 112/197/42
f 101/194/47 103/198/47 104/199/47 102/191/47
f 96/179/48 104/199/48 103/198/48 97/180/48
f 124/200/49 108/201/49 107/202/49 123/203/49
f 92/204/44 90/205/44 120/206/44 118/207/44
f 106/192/50 110/208/50 109/209/50 105/193/50
f 110/210/44 106/211/44 125/212/44
f 111/213/51 112/214/51 114/215/51 113/216/51
f 126/217/52 112/214/52 111/213/52 125/218/52
f 110/208/53 116/219/53 115/220/53 109/209/53
f 112/197/42 109/196/42 115/221/42 114/222/42
f 129/223/54 122/224/54 121/225/54 130/226/54
f 114/227/55 115/220/55 116/219/55 113/228/55
f 122/224/56 127/229/56 128/230/56 121/225/56
f 100/231/42 121/232/42 128/233/42
f 125/212/44 107/234/44 131/235/44
f 123/236/44 122/237/44 129/238/44
f 100/188/57 128/230/57 127/229/57 99/189/57
f 124/200/58 123/203/58 129/223/58 130/226/58
f 108/239/42 126/195/42 132/240/42
f 126/217/59 125/218/59 131/241/59 132/242/59
f 131/241/60 107/202/60 108/201/60 132/242/60
f 105/243/42 109/196/42 126/195/42
f 122/237/44 99/244/44 127/245/44
f 121/232/42 124/246/42 130/247/42
f 120/206/44 102/185/44 93/187/44
f 90/205/44 89/248/44 106/211/44 102/185/44 120/206/44
f 99/244/44 106/211/44 89/248/44
f 122/237/44 106/211/44 99/244/44
f 123/236/44 106/211/44 122/237/44
f 107/234/44 106/211/44 123/236/44
f 106/211/44 107/234/44 125/212/44
f 87/249/42 88/178/42 119/177/42 101/184/42 105/243/42
f 87/249/42 105/243/42 100/231/42
f 100/231/42 105/243/42 121/232/42
f 121/232/42 105/243/42 124/246/42
f 124/246/42 105/243/42 108/239/42
f 105/243/42 126/195/42 108/239/42
f 98/250/42 97/251/42 94/183/42
f 97/251/42 103/190/42 94/183/42
f 96/252/44 93/187/44 104/186/44
f 96/252/44 95/253/44 93/187/44
f 110/210/44 125/212/44 111/254/44
f 113/255/44 116/256/44 110/210/44 111/254/44
f 162/257/44 166/258/44 159/259/44 155/260/44 158/261/44
f 139/262/61 137/263/61 138/264/61 140/265/61
f 152/266/44 149/267/44 145/268/44 148/269/44
f 135/270/62 133/271/62 137/263/62 139/262/62
f 140/272/63 138/273/63 134/274/63 136/275/63
f 143/276/64 147/277/64 148/278/64 144/279/64
f 157/280/42 151/281/42 154/282/42 156/283/42
f 134/274/65 143/276/65 144/279/65 136/275/65
f 135/270/66 141/284/66 142/285/66 133/271/66
f 139/286/44 140/287/44 136/288/44 135/289/44
f 141/284/67 145/290/67 146/291/67 142/285/67
f 170/292/42 171/293/42 167/294/42 165/295/42 164/296/42
f 164/297/68 163/298/68 169/299/68 170/300/68
f 147/277/69 151/301/69 152/302/69 148/278/69
f 145/290/70 149/303/70 150/304/70 146/291/70
f 133/305/42 134/306/42 138/307/42 137/308/42
f 149/303/71 153/309/71 154/310/71 150/304/71
f 148/269/44 145/268/44 141/311/44 144/312/44
f 143/313/42 142/314/42 146/315/42 147/316/42
f 149/267/44 152/266/44 153/317/44
f 153/309/72 155/318/72 156/319/72 154/310/72
f 161/320/73 165/321/73 166/322/73 162/323/73
f 158/261/44 155/260/44 153/317/44 152/266/44
f 157/324/74 161/320/74 162/323/74 158/325/74
f 155/318/75 159/326/75 160/327/75 156/319/75
f 172/328/44 169/329/44 163/330/44 166/258/44 168/331/44
f 159/326/76 163/298/76 164/297/76 160/327/76
f 135/289/44 136/288/44 144/312/44 141/311/44
f 152/302/77 151/301/77 157/324/77 158/325/77
f 157/280/42 156/283/42 160/332/42 165/295/42 161/333/42
f 165/295/42 160/332/42 164/296/42
f 165/321/78 167/334/78 168/335/78 166/322/78
f 170/300/79 169/299/79 172/336/79 171/337/79
f 167/334/80 171/338/80 172/339/80 168/335/80
f 147/316/42 146/315/42 150/340/42 151/281/42
f 159/259/44 166/258/44 163/330/44
f 133/305/42 142/314/42 143/313/42 134/306/42
f 151/281/42 150/340/42 154/282/42
