{
    "asset" : {
        "version" : "2.0",
        "generator" : "Khronos glTF Blender I/O v1.2.20"
    },
    "scene" : 0,
    "scenes" : [
        {
            "nodes" : [
                0,
                1
            ],
            "name" : "Scene"
        }
    ],
    "nodes" : [
        {
            "mesh" : 0,
            "scale" : [
                -1,
                -1,
                1
            ],
            "name" : "Cylinder.000",
            "rotation" : [
                0,
                0,
                -1,
                0
            ],
            "translation" : [
                0.1234847903251648,
                -0.14111416041851044,
                0
            ]
        },
        {
            "mesh" : 1,
            "scale" : [
                -1,
                -1,
                -1
            ],
            "name" : "Cylinder.001",
            "rotation" : [
                0,
                0,
                -1,
                0
            ],
            "translation" : [
                0.1234847903251648,
                -0.14111416041851044,
                0
            ]
        }
    ],
    "animations" : [
        {
            "name" : "Key.005Action.003",
            "samplers" : [
                {
                    "interpolation" : "LINEAR",
                    "input" : 12,
                    "output" : 13
                },
                {
                    "interpolation" : "LINEAR",
                    "input" : 12,
                    "output" : 14
                }
            ],
            "channels" : [
                {
                    "sampler" : 0,
                    "target" : {
                        "path" : "weights",
                        "node" : 0
                    }
                },
                {
                    "sampler" : 1,
                    "target" : {
                        "path" : "weights",
                        "node" : 1
                    }
                }
            ]
        }
    ],
    "materials" : [
        {
            "name" : "Material.002",
            "doubleSided" : true,
            "dithering" : true,
            "emissiveFactor" : [
                3,
                3,
                3
            ],
            "emissiveTexture" : {
                "index" : 0,
                "texCoord" : 0
            },
            "pbrMetallicRoughness" : {
                "baseColorTexture" : {
                    "index" : 0,
                    "texCoord" : 0
                }
            }
        }
    ],
    "meshes" : [
        {
            "name" : "Cylinder.002",
            "extras" : {
                "targetNames" : [
                    "Key 1"
                ]
            },
            "primitives" : [
                {
                    "targets" : [
                        {
                            "POSITION" : 5,
                            "NORMAL" : 6
                        }
                    ],
                    "material" : 0,
                    "attributes" : {
                        "POSITION" : 0,
                        "NORMAL" : 1,
                        "COLOR_0" : 2,
                        "TEXCOORD_0" : 3
                    },
                    "indices" : 4
                }
            ],
            "weights" : [
                0
            ]
        },
        {
            "name" : "Cylinder.003",
            "extras" : {
                "targetNames" : [
                    "Key 1"
                ]
            },
            "primitives" : [
                {
                    "targets" : [
                        {
                            "POSITION" : 10,
                            "NORMAL" : 11
                        }
                    ],
                    "material" : 0,
                    "attributes" : {
                        "POSITION" : 7,
                        "NORMAL" : 8,
                        "TEXCOORD_0" : 9
                    },
                    "indices" : 4
                }
            ],
            "weights" : [
                0
            ]
        }
    ],
    "textures" : [
        {
            "source" : 0,
            "sampler" : 0
        }
    ],
    "images" : [
        {
            "mimeType" : "image/png",
            "name" : "body_103.png",
            "bufferView" : 5
        }
    ],
    "accessors" : [
        {
            "bufferView" : 0,
            "max" : [
                -0.01167161762714386,
                1.1742740869522095,
                -0.04967684671282768
            ],
            "type" : "VEC3",
            "count" : 2612,
            "componentType" : 5126,
            "min" : [
                -0.7737912535667419,
                -0.29707562923431396,
                -0.19124452769756317
            ]
        },
        {
            "type" : "VEC3",
            "bufferView" : 1,
            "count" : 2612,
            "componentType" : 5126
        },
        {
            "type" : "VEC4",
            "bufferView" : 2,
            "count" : 2612,
            "componentType" : 5126
        },
        {
            "type" : "VEC2",
            "bufferView" : 3,
            "count" : 2612,
            "componentType" : 5126
        },
        {
            "type" : "SCALAR",
            "bufferView" : 4,
            "count" : 6570,
            "componentType" : 5123
        },
        {
            "bufferView" : 6,
            "max" : [
                0.5586809515953064,
                5.960464477539063e-08,
                0.01672571897506714
            ],
            "type" : "VEC3",
            "count" : 2612,
            "componentType" : 5126,
            "min" : [
                -0.02200007066130638,
                -5.960464477539063e-08,
                -0.6557245254516602
            ]
        },
        {
            "type" : "VEC3",
            "bufferView" : 7,
            "count" : 2612,
            "componentType" : 5126
        },
        {
            "bufferView" : 8,
            "max" : [
                -0.01167161762714386,
                1.1742740869522095,
                -0.04967684671282768
            ],
            "type" : "VEC3",
            "count" : 2612,
            "componentType" : 5126,
            "min" : [
                -0.7737912535667419,
                -0.29707562923431396,
                -0.19124452769756317
            ]
        },
        {
            "type" : "VEC3",
            "bufferView" : 9,
            "count" : 2612,
            "componentType" : 5126
        },
        {
            "type" : "VEC2",
            "bufferView" : 10,
            "count" : 2612,
            "componentType" : 5126
        },
        {
            "bufferView" : 11,
            "max" : [
                0.5586809515953064,
                5.960464477539063e-08,
                0.01672571897506714
            ],
            "type" : "VEC3",
            "count" : 2612,
            "componentType" : 5126,
            "min" : [
                -0.02200007066130638,
                -5.960464477539063e-08,
                -0.6557245254516602
            ]
        },
        {
            "type" : "VEC3",
            "bufferView" : 12,
            "count" : 2612,
            "componentType" : 5126
        },
        {
            "bufferView" : 13,
            "max" : [
                0.8333333333333334
            ],
            "type" : "SCALAR",
            "count" : 21,
            "componentType" : 5126,
            "min" : [
                0
            ]
        },
        {
            "type" : "SCALAR",
            "bufferView" : 14,
            "count" : 21,
            "componentType" : 5126
        },
        {
            "type" : "SCALAR",
            "bufferView" : 15,
            "count" : 21,
            "componentType" : 5126
        }
    ],
    "bufferViews" : [
        {
            "byteLength" : 31344,
            "byteOffset" : 0,
            "buffer" : 0
        },
        {
            "byteLength" : 31344,
            "byteOffset" : 31344,
            "buffer" : 0
        },
        {
            "byteLength" : 41792,
            "byteOffset" : 62688,
            "buffer" : 0
        },
        {
            "byteLength" : 20896,
            "byteOffset" : 104480,
            "buffer" : 0
        },
        {
            "byteLength" : 13140,
            "byteOffset" : 125376,
            "buffer" : 0
        },
        {
            "byteLength" : 159520,
            "byteOffset" : 138516,
            "buffer" : 0
        },
        {
            "byteLength" : 31344,
            "byteOffset" : 298036,
            "buffer" : 0
        },
        {
            "byteLength" : 31344,
            "byteOffset" : 329380,
            "buffer" : 0
        },
        {
            "byteLength" : 31344,
            "byteOffset" : 360724,
            "buffer" : 0
        },
        {
            "byteLength" : 31344,
            "byteOffset" : 392068,
            "buffer" : 0
        },
        {
            "byteLength" : 20896,
            "byteOffset" : 423412,
            "buffer" : 0
        },
        {
            "byteLength" : 31344,
            "byteOffset" : 444308,
            "buffer" : 0
        },
        {
            "byteLength" : 31344,
            "byteOffset" : 475652,
            "buffer" : 0
        },
        {
            "byteLength" : 84,
            "byteOffset" : 506996,
            "buffer" : 0
        },
        {
            "byteLength" : 84,
            "byteOffset" : 507080,
            "buffer" : 0
        },
        {
            "byteLength" : 84,
            "byteOffset" : 507164,
            "buffer" : 0
        }
    ],
    "samplers" : [
        {
            "magFilter" : 9729,
            "wrapS" : 10497,
            "wrapT" : 10497,
            "minFilter" : 9986
        }
    ],
    "buffers" : [
        {
            "byteLength" : 507248,
            "uri" : "data:application/octet-stream;base64,"
        }
    ]
}
