# Blender v2.79 (sub 0) OBJ File: 'Wings.blend'
# www.blender.org
mtllib body_0.mtl
o Cube_Cube.027
v 0.086990 0.040064 -0.130324
v 0.088877 0.082266 -0.130836
v 0.112037 0.038729 -0.148071
v 0.113924 0.080931 -0.148583
v 0.116576 0.052755 -0.089522
v 0.107960 0.091275 -0.104580
v 0.141623 0.051420 -0.107269
v 0.133007 0.089940 -0.122327
v 0.023132 0.074599 -0.276245
v -0.001915 0.075934 -0.258498
v 0.017690 0.103215 -0.232882
v 0.042737 0.101880 -0.250629
v -0.009544 0.243460 -0.335066
v -0.034591 0.244796 -0.317319
v -0.010158 0.249676 -0.283202
v 0.014890 0.248341 -0.300949
v 0.005135 0.482966 -0.332367
v -0.019912 0.484301 -0.314620
v -0.003243 0.487631 -0.291344
v 0.021804 0.486295 -0.309091
v -0.008536 0.547487 -0.356515
v -0.033583 0.548823 -0.338768
v -0.018812 0.563775 -0.319046
v 0.006235 0.562440 -0.336793
v -0.030805 0.619785 -0.393384
v -0.055852 0.621120 -0.375637
v -0.048774 0.628285 -0.366187
v -0.023727 0.626950 -0.383934
v -0.026748 0.516562 -0.326694
v -0.001701 0.515227 -0.344441
v -0.024158 0.496040 -0.374693
v -0.049205 0.497375 -0.356946
v -0.035462 0.473008 -0.335717
v -0.010415 0.471673 -0.353464
v -0.162544 0.251420 -0.551602
v -0.187591 0.252755 -0.533856
v -0.173849 0.228388 -0.512627
v -0.148801 0.227053 -0.530373
v -0.235400 -0.108097 -0.627382
v -0.260447 -0.106762 -0.609635
v -0.240154 -0.102229 -0.581334
v -0.215107 -0.103565 -0.599081
v -0.168654 -0.452516 -0.507269
v -0.193701 -0.451181 -0.489522
v -0.173682 -0.442866 -0.461893
v -0.148635 -0.444201 -0.479640
v -0.154184 -0.589433 -0.476546
v -0.179231 -0.588098 -0.458799
v -0.159212 -0.579783 -0.431171
v -0.134165 -0.581118 -0.448918
v -0.145678 -0.628630 -0.461593
v -0.170725 -0.627295 -0.443846
v -0.159065 -0.622452 -0.427754
v -0.134018 -0.623787 -0.445501
v 0.104541 0.046811 -0.117595
v 0.096478 0.077906 -0.131686
v 0.118376 0.046074 -0.127397
v 0.110313 0.077169 -0.141488
v -0.243569 -0.094083 -0.598675
v -0.229734 -0.094820 -0.608477
v 0.022047 0.094833 -0.267392
v 0.008212 0.095571 -0.257590
v -0.207247 0.103914 -0.562307
v -0.193413 0.103177 -0.572110
v -0.010617 0.240867 -0.324479
v -0.024452 0.241604 -0.314676
v -0.167912 0.238731 -0.516934
v -0.154078 0.237993 -0.526736
v -0.036041 0.508700 -0.351127
v -0.022207 0.507963 -0.360929
v 0.005569 0.528885 -0.323302
v -0.008266 0.529622 -0.313500
v 0.048620 -0.028940 -0.191193
v 0.062455 -0.029677 -0.200995
v -0.143041 -0.577844 -0.449784
v -0.156875 -0.577106 -0.439982
v -0.095528 -0.463597 -0.391322
v 0.043004 -0.125161 -0.191880
v 0.056839 -0.125899 -0.201683
v -0.003239 -0.211193 -0.280058
v -0.028699 -0.285225 -0.281037
v -0.017074 -0.210456 -0.270256
v -0.014864 -0.285962 -0.290840
v -0.023199 -0.391260 -0.294682
v -0.109363 -0.462860 -0.381519
v -0.037034 -0.390522 -0.284879
v 0.086990 0.040064 0.130324
v 0.088877 0.082266 0.130836
v 0.112037 0.038729 0.148071
v 0.113924 0.080931 0.148583
v 0.116576 0.052755 0.089522
v 0.107960 0.091275 0.104580
v 0.141623 0.051420 0.107269
v 0.133007 0.089940 0.122327
v 0.023132 0.074599 0.276245
v -0.001915 0.075934 0.258498
v 0.017690 0.103215 0.232882
v 0.042737 0.101880 0.250629
v -0.009544 0.243460 0.335066
v -0.034591 0.244796 0.317319
v -0.010158 0.249676 0.283202
v 0.014890 0.248341 0.300949
v 0.005135 0.482966 0.332367
v -0.019912 0.484301 0.314620
v -0.003243 0.487631 0.291344
v 0.021804 0.486295 0.309091
v -0.008536 0.547487 0.356515
v -0.033583 0.548823 0.338768
v -0.018812 0.563775 0.319046
v 0.006235 0.562440 0.336793
v -0.030805 0.619785 0.393384
v -0.055852 0.621120 0.375637
v -0.048774 0.628285 0.366187
v -0.023727 0.626950 0.383934
v -0.026748 0.516562 0.326694
v -0.001701 0.515227 0.344441
v -0.024158 0.496040 0.374693
v -0.049205 0.497375 0.356946
v -0.035462 0.473008 0.335717
v -0.010415 0.471673 0.353464
v -0.162544 0.251420 0.551602
v -0.187591 0.252755 0.533856
v -0.173849 0.228388 0.512627
v -0.148801 0.227053 0.530373
v -0.235400 -0.108097 0.627382
v -0.260447 -0.106762 0.609635
v -0.240154 -0.102229 0.581334
v -0.215107 -0.103565 0.599081
v -0.168654 -0.452516 0.507269
v -0.193701 -0.451181 0.489522
v -0.173682 -0.442866 0.461893
v -0.148635 -0.444201 0.479640
v -0.154184 -0.589433 0.476546
v -0.179231 -0.588098 0.458799
v -0.159212 -0.579783 0.431171
v -0.134165 -0.581118 0.448918
v -0.145678 -0.628630 0.461593
v -0.170725 -0.627295 0.443846
v -0.159065 -0.622452 0.427754
v -0.134018 -0.623787 0.445501
v 0.104541 0.046811 0.117595
v 0.096478 0.077906 0.131686
v 0.118376 0.046074 0.127397
v 0.110313 0.077169 0.141488
v -0.243569 -0.094083 0.598675
v -0.229734 -0.094820 0.608477
v 0.022047 0.094833 0.267392
v 0.008212 0.095571 0.257590
v -0.207247 0.103914 0.562307
v -0.193413 0.103177 0.572110
v -0.010617 0.240867 0.324479
v -0.024452 0.241604 0.314676
v -0.167912 0.238731 0.516934
v -0.154078 0.237993 0.526736
v -0.036041 0.508700 0.351127
v -0.022207 0.507963 0.360929
v 0.005569 0.528885 0.323302
v -0.008266 0.529622 0.313500
v 0.048620 -0.028940 0.191193
v 0.062455 -0.029677 0.200995
v -0.143041 -0.577844 0.449784
v -0.156875 -0.577106 0.439982
v -0.095528 -0.463597 0.391322
v 0.043004 -0.125161 0.191880
v 0.056839 -0.125899 0.201683
v -0.003239 -0.211193 0.280058
v -0.028699 -0.285225 0.281037
v -0.017074 -0.210456 0.270256
v -0.014864 -0.285962 0.290840
v -0.023199 -0.391260 0.294682
v -0.109363 -0.462860 0.381519
v -0.037034 -0.390522 0.284879
vt 0.326177 0.211923
vt 0.326177 0.228618
vt 0.314034 0.228618
vt 0.314034 0.211923
vt 0.361572 0.936103
vt 0.323363 0.749022
vt 0.446115 0.812039
vt 0.379653 0.958143
vt 0.977679 0.876919
vt 0.977679 0.900135
vt 0.963954 0.900135
vt 0.963954 0.876919
vt 0.949926 0.979426
vt 0.949926 0.964380
vt 0.963651 0.964380
vt 0.963651 0.979426
vt 0.963651 0.908020
vt 0.949926 0.908020
vt 0.949926 0.837736
vt 0.963651 0.837736
vt 0.963954 0.805423
vt 0.977679 0.805423
vt 0.963954 0.724228
vt 0.977679 0.724228
vt 0.949926 0.731338
vt 0.963651 0.731338
vt 0.963954 0.617037
vt 0.977679 0.617037
vt 0.963651 0.694483
vt 0.949926 0.694483
vt 0.949926 0.656367
vt 0.963651 0.656367
vt 0.963651 0.612607
vt 0.949926 0.612607
vt 0.949926 0.587255
vt 0.963651 0.587255
vt 0.963651 0.650198
vt 0.949926 0.650198
vt 0.963954 0.601350
vt 0.977679 0.601350
vt 0.949926 0.438914
vt 0.963651 0.438914
vt 0.963954 0.581105
vt 0.977679 0.581105
vt 0.977678 0.432764
vt 0.963953 0.432764
vt 0.963953 0.279047
vt 0.977678 0.279047
vt 0.949925 0.271599
vt 0.963650 0.271599
vt 0.977677 0.115095
vt 0.963952 0.115096
vt 0.963952 0.052084
vt 0.977676 0.052084
vt 0.949925 0.105960
vt 0.963650 0.105960
vt 0.949925 0.042948
vt 0.963650 0.042948
vt 0.977676 0.032964
vt 0.963952 0.032964
vt 0.963951 0.023828
vt 0.977676 0.023828
vt 0.949925 0.023828
vt 0.963650 0.023828
vt 0.589524 0.555687
vt 0.578663 0.596804
vt 0.515012 0.755518
vt 0.327121 0.666990
vt 0.351111 0.555728
vt 0.569640 0.435213
vt 0.643896 0.556931
vt 0.624195 0.501518
vt 0.669271 0.437494
vt 0.602909 0.930586
vt 0.638187 0.930586
vt 0.638187 0.938419
vt 0.602909 0.938419
vt 0.489169 0.930586
vt 0.554122 0.930586
vt 0.554122 0.938419
vt 0.489169 0.938419
vt 0.698417 0.930586
vt 0.698417 0.938419
vt 0.426005 0.930586
vt 0.426005 0.938419
vt 0.798068 0.930686
vt 0.798068 0.938519
vt 0.742907 0.938420
vt 0.742907 0.930586
vt 0.289582 0.437879
vt 0.272658 0.423161
vt 0.289345 0.424003
vt 0.300884 0.439298
vt 0.300872 0.230609
vt 0.293806 0.215483
vt 0.346405 0.215482
vt 0.339339 0.230608
vt 0.584570 0.712721
vt 0.606594 0.663821
vt 0.259386 0.258269
vt 0.243349 0.253627
vt 0.152191 0.371092
vt 0.157364 0.358214
vt 0.277831 0.410283
vt 0.488023 0.371088
vt 0.367559 0.423159
vt 0.350872 0.424002
vt 0.362385 0.410282
vt 0.482850 0.358211
vt 0.262452 0.320374
vt 0.246528 0.325391
vt 0.291194 0.471597
vt 0.285779 0.470917
vt 0.289107 0.410127
vt 0.299971 0.406704
vt 0.595961 0.784901
vt 0.611739 0.773413
vt 0.560613 0.359606
vt 0.351109 0.410126
vt 0.350634 0.437878
vt 0.339333 0.439297
vt 0.340245 0.406704
vt 0.056571 0.258096
vt 0.050147 0.111693
vt 0.063797 0.109184
vt 0.069863 0.254107
vt 0.611739 0.501233
vt 0.586486 0.054354
vt 0.592349 0.038487
vt 0.600298 0.039948
vt 0.600135 0.056863
vt 0.590058 0.111691
vt 0.576409 0.109182
vt 0.882056 0.567883
vt 0.900930 0.680126
vt 0.900930 0.762244
vt 0.775423 0.819578
vt 0.709184 0.759963
vt 0.652863 0.598502
vt 0.681749 0.362379
vt 0.040068 0.056864
vt 0.039904 0.039948
vt 0.047854 0.038487
vt 0.053717 0.054355
vt 0.377762 0.320373
vt 0.393686 0.325389
vt 0.396863 0.253625
vt 0.380826 0.258267
vt 0.349024 0.471596
vt 0.354439 0.470916
vt 0.854200 0.947381
vt 0.835129 0.968570
vt 0.583639 0.258091
vt 0.570346 0.254102
vt 0.626976 0.785611
vt 0.611739 0.773413
vt 0.641657 0.714028
vt 0.621894 0.664171
vt 0.326177 0.211923
vt 0.314034 0.211923
vt 0.314034 0.228618
vt 0.326177 0.228618
vt 0.361572 0.936103
vt 0.379653 0.958143
vt 0.446115 0.812039
vt 0.323363 0.749022
vt 0.977679 0.876919
vt 0.963954 0.876919
vt 0.963954 0.900135
vt 0.977679 0.900135
vt 0.949926 0.979426
vt 0.963651 0.979426
vt 0.963651 0.964380
vt 0.949926 0.964380
vt 0.963651 0.908020
vt 0.963651 0.837736
vt 0.949926 0.837736
vt 0.949926 0.908020
vt 0.977679 0.805423
vt 0.963954 0.805423
vt 0.977679 0.724228
vt 0.963954 0.724228
vt 0.963651 0.731338
vt 0.949926 0.731338
vt 0.977679 0.617037
vt 0.963954 0.617037
vt 0.963651 0.694483
vt 0.963651 0.656367
vt 0.949926 0.656367
vt 0.949926 0.694483
vt 0.963651 0.612607
vt 0.963651 0.587255
vt 0.949926 0.587255
vt 0.949926 0.612607
vt 0.963651 0.650198
vt 0.949926 0.650198
vt 0.977679 0.601350
vt 0.963954 0.601350
vt 0.963651 0.438914
vt 0.949926 0.438914
vt 0.977679 0.581105
vt 0.963954 0.581105
vt 0.977678 0.432764
vt 0.977678 0.279047
vt 0.963953 0.279047
vt 0.963953 0.432764
vt 0.963650 0.271599
vt 0.949925 0.271599
vt 0.977677 0.115095
vt 0.977676 0.052084
vt 0.963952 0.052084
vt 0.963952 0.115096
vt 0.963650 0.105960
vt 0.949925 0.105960
vt 0.963650 0.042948
vt 0.949925 0.042948
vt 0.977676 0.032964
vt 0.977676 0.023828
vt 0.963951 0.023828
vt 0.963952 0.032964
vt 0.963650 0.023828
vt 0.949925 0.023828
vt 0.589524 0.555687
vt 0.569640 0.435213
vt 0.351111 0.555728
vt 0.327121 0.666990
vt 0.515012 0.755518
vt 0.578663 0.596804
vt 0.643896 0.556931
vt 0.669271 0.437494
vt 0.624195 0.501518
vt 0.602909 0.930586
vt 0.602909 0.938419
vt 0.638187 0.938419
vt 0.638187 0.930586
vt 0.489169 0.930586
vt 0.489169 0.938419
vt 0.554122 0.938419
vt 0.554122 0.930586
vt 0.698417 0.938419
vt 0.698417 0.930586
vt 0.426005 0.930586
vt 0.426005 0.938419
vt 0.798068 0.930686
vt 0.742907 0.930586
vt 0.742907 0.938420
vt 0.798068 0.938519
vt 0.289582 0.437879
vt 0.300884 0.439298
vt 0.289345 0.424003
vt 0.272658 0.423161
vt 0.300872 0.230609
vt 0.293806 0.215483
vt 0.339339 0.230608
vt 0.346405 0.215482
vt 0.584570 0.712721
vt 0.606594 0.663821
vt 0.243349 0.253627
vt 0.259386 0.258269
vt 0.277831 0.410283
vt 0.157364 0.358214
vt 0.152191 0.371092
vt 0.488023 0.371088
vt 0.482850 0.358211
vt 0.362385 0.410282
vt 0.350872 0.424002
vt 0.367559 0.423159
vt 0.246528 0.325391
vt 0.262452 0.320374
vt 0.291194 0.471597
vt 0.285779 0.470917
vt 0.299971 0.406704
vt 0.289107 0.410127
vt 0.595961 0.784901
vt 0.611739 0.773413
vt 0.560613 0.359606
vt 0.351109 0.410126
vt 0.340245 0.406704
vt 0.339333 0.439297
vt 0.350634 0.437878
vt 0.056571 0.258096
vt 0.069863 0.254107
vt 0.063797 0.109184
vt 0.050147 0.111693
vt 0.611739 0.501233
vt 0.586486 0.054354
vt 0.576409 0.109182
vt 0.590058 0.111691
vt 0.600135 0.056863
vt 0.600298 0.039948
vt 0.592349 0.038487
vt 0.652863 0.598502
vt 0.709184 0.759963
vt 0.775423 0.819578
vt 0.900930 0.762244
vt 0.900930 0.680126
vt 0.882056 0.567883
vt 0.681749 0.362379
vt 0.040068 0.056864
vt 0.053717 0.054355
vt 0.047854 0.038487
vt 0.039904 0.039948
vt 0.393686 0.325389
vt 0.377762 0.320373
vt 0.380826 0.258267
vt 0.396863 0.253625
vt 0.349024 0.471596
vt 0.354439 0.470916
vt 0.835129 0.968570
vt 0.854200 0.947381
vt 0.570346 0.254102
vt 0.583639 0.258091
vt 0.626976 0.785611
vt 0.641657 0.714028
vt 0.611739 0.773413
vt 0.621894 0.664171
vn 0.5421 0.4084 0.7344
vn -0.8152 0.0435 0.5776
vn 0.1069 -0.9688 0.2238
vn -0.1206 0.9626 -0.2426
vn 0.5515 0.3629 0.7511
vn 0.1310 0.9852 0.1108
vn -0.1642 -0.9736 -0.1585
vn -0.5506 -0.3676 -0.7495
vn 0.5785 0.0111 0.8156
vn -0.5760 0.0445 -0.8163
vn 0.4606 0.6531 0.6010
vn -0.5096 0.4200 -0.7509
vn -0.2699 0.8538 -0.4451
vn -0.5152 -0.5100 -0.6888
vn -0.5455 -0.3927 -0.7404
vn -0.4023 0.6749 -0.6186
vn 0.5464 -0.2733 0.7917
vn 0.5462 -0.2740 0.7915
vn 0.4023 -0.6749 0.6186
vn 0.5476 0.3827 0.7441
vn -0.5456 0.2773 -0.7909
vn 0.5701 0.2368 0.7867
vn -0.5505 -0.3680 -0.7493
vn 0.5502 0.3699 0.7487
vn -0.5701 -0.2368 -0.7867
vn 0.1026 -0.9706 0.2178
vn -0.5441 -0.3995 -0.7378
vn 0.5792 0.0670 0.8124
vn 0.8152 -0.0435 -0.5776
vn 0.5589 -0.2028 0.8041
vn 0.2671 -0.8567 0.4414
vn 0.3514 -0.7555 0.5528
vn 0.5738 -0.0752 0.8155
vn 0.4636 -0.5488 0.6956
vn 0.3393 -0.7723 0.5370
vn 0.5763 -0.0395 0.8163
vn -0.8158 0.0442 0.5767
vn 0.8158 -0.0442 -0.5767
vn 0.5421 0.4084 -0.7344
vn -0.8152 0.0435 -0.5776
vn 0.1069 -0.9688 -0.2238
vn -0.1206 0.9626 0.2426
vn 0.5515 0.3629 -0.7511
vn 0.1310 0.9852 -0.1108
vn -0.1642 -0.9736 0.1585
vn -0.5506 -0.3676 0.7495
vn 0.5785 0.0111 -0.8156
vn -0.5760 0.0445 0.8163
vn 0.4606 0.6531 -0.6010
vn -0.5096 0.4200 0.7509
vn -0.2699 0.8538 0.4451
vn -0.5152 -0.5100 0.6888
vn -0.5455 -0.3927 0.7404
vn -0.4023 0.6749 0.6186
vn 0.5464 -0.2733 -0.7917
vn 0.5462 -0.2740 -0.7915
vn 0.4023 -0.6749 -0.6186
vn 0.5476 0.3827 -0.7441
vn -0.5456 0.2773 0.7909
vn 0.5701 0.2368 -0.7867
vn -0.5505 -0.3680 0.7493
vn 0.5502 0.3699 -0.7487
vn -0.5701 -0.2368 0.7867
vn 0.1026 -0.9706 -0.2178
vn -0.5441 -0.3995 0.7378
vn 0.5792 0.0670 -0.8124
vn 0.8152 -0.0435 0.5776
vn 0.5589 -0.2028 -0.8041
vn 0.2671 -0.8567 -0.4414
vn 0.3514 -0.7555 -0.5528
vn 0.5738 -0.0752 -0.8155
vn 0.4636 -0.5488 -0.6956
vn 0.3393 -0.7723 -0.5370
vn 0.5763 -0.0395 -0.8163
vn -0.8158 0.0442 -0.5767
vn 0.8158 -0.0442 0.5767
usemtl None
s off
f 7/1/1 8/2/1 6/3/1 5/4/1
f 69/5/2 67/6/2 66/7/2 72/8/2
f 3/9/3 7/10/3 5/11/3 1/12/3
f 8/13/4 4/14/4 2/15/4 6/16/4
f 11/17/5 12/18/5 16/19/5 15/20/5
f 2/15/6 4/14/6 12/18/6 11/17/6
f 3/9/7 1/12/7 10/21/7 9/22/7
f 9/22/8 10/21/8 14/23/8 13/24/8
f 15/20/9 16/19/9 20/25/9 19/26/9
f 13/24/10 14/23/10 18/27/10 17/28/10
f 23/29/11 24/30/11 28/31/11 27/32/11
f 22/33/12 21/34/12 31/35/12 32/36/12
f 26/37/13 27/32/13 28/31/13 25/38/13
f 21/34/14 22/33/14 26/37/14 25/38/14
f 17/28/15 18/27/15 29/39/15 30/40/15
f 32/36/16 31/35/16 35/41/16 36/42/16
f 30/40/17 29/39/17 33/43/17 34/44/17
f 38/45/18 37/46/18 41/47/18 42/48/18
f 34/44/19 33/43/19 37/46/19 38/45/19
f 19/26/20 20/25/20 24/30/20 23/29/20
f 36/42/21 35/41/21 39/49/21 40/50/21
f 46/51/22 45/52/22 49/53/22 50/54/22
f 40/50/23 39/49/23 43/55/23 44/56/23
f 42/48/24 41/47/24 45/52/24 46/51/24
f 44/56/25 43/55/25 47/57/25 48/58/25
f 54/59/26 53/60/26 52/61/26 51/62/26
f 48/58/27 47/57/27 51/63/27 52/64/27
f 50/54/28 49/53/28 53/60/28 54/59/28
f 81/65/2 82/66/2 62/67/2 66/7/2 67/6/2 63/68/2 59/69/2 85/70/2
f 83/71/29 84/72/29 77/73/29
f 83/74/30 80/75/30 82/76/30 81/77/30
f 77/78/31 84/79/31 86/80/31 85/81/31
f 80/75/32 79/82/32 78/83/32 82/76/32
f 84/79/33 83/74/33 81/77/33 86/80/33
f 75/84/34 77/78/34 85/81/34 76/85/34
f 57/86/35 55/87/35 73/88/35 74/89/35
f 79/82/36 74/89/36 73/88/36 78/83/36
f 22/90/2 32/91/2 29/92/2 23/93/2
f 2/94/2 1/95/2 5/4/2 6/3/2
f 7/1/29 3/96/29 4/97/29 8/2/29
f 73/98/2 62/67/2 82/66/2 78/99/2
f 1/95/2 2/94/2 11/100/2 10/101/2
f 32/91/2 36/102/2 37/103/2 33/104/2 29/92/2
f 35/105/29 31/106/29 30/107/29 34/108/29 38/109/29
f 11/100/2 15/110/2 14/111/2 10/101/2
f 27/112/2 26/113/2 22/90/2 23/93/2
f 23/93/2 29/92/2 18/114/2 19/115/2
f 56/116/37 62/67/37 73/98/37 55/117/37
f 59/69/2 76/118/2 85/70/2
f 17/119/29 30/107/29 21/120/29 24/121/29 20/122/29
f 18/114/2 14/111/2 15/110/2 19/115/2
f 40/123/2 44/124/2 45/125/2 41/126/2
f 85/70/2 86/127/2 81/65/2
f 50/128/29 54/129/29 51/130/29 47/131/29 43/132/29 46/133/29
f 77/73/29 60/134/29 64/135/29 68/136/29 65/137/29 61/138/29 80/139/29 83/71/29
f 77/73/29 75/140/29 60/134/29
f 48/141/2 52/142/2 53/143/2 49/144/2 45/125/2 44/124/2
f 20/122/29 16/145/29 13/146/29 17/119/29
f 3/96/29 9/147/29 12/148/29 4/97/29
f 40/123/2 41/126/2 37/103/2 36/102/2
f 28/149/29 24/121/29 21/120/29 25/150/29
f 68/136/29 70/151/29 71/152/29 65/137/29
f 12/148/29 9/147/29 13/146/29 16/145/29
f 43/132/29 39/153/29 42/154/29 46/133/29
f 30/107/29 31/106/29 21/120/29
f 58/155/38 57/156/38 74/157/38 61/138/38
f 80/139/29 61/138/29 74/157/29 79/158/29
f 39/153/29 35/105/29 38/109/29 42/154/29
f 93/159/39 91/160/39 92/161/39 94/162/39
f 155/163/40 158/164/40 152/165/40 153/166/40
f 89/167/41 87/168/41 91/169/41 93/170/41
f 94/171/42 92/172/42 88/173/42 90/174/42
f 97/175/43 101/176/43 102/177/43 98/178/43
f 88/173/44 97/175/44 98/178/44 90/174/44
f 89/167/45 95/179/45 96/180/45 87/168/45
f 95/179/46 99/181/46 100/182/46 96/180/46
f 101/176/47 105/183/47 106/184/47 102/177/47
f 99/181/48 103/185/48 104/186/48 100/182/48
f 109/187/49 113/188/49 114/189/49 110/190/49
f 108/191/50 118/192/50 117/193/50 107/194/50
f 112/195/51 111/196/51 114/189/51 113/188/51
f 107/194/52 111/196/52 112/195/52 108/191/52
f 103/185/53 116/197/53 115/198/53 104/186/53
f 118/192/54 122/199/54 121/200/54 117/193/54
f 116/197/55 120/201/55 119/202/55 115/198/55
f 124/203/56 128/204/56 127/205/56 123/206/56
f 120/201/57 124/203/57 123/206/57 119/202/57
f 105/183/58 109/187/58 110/190/58 106/184/58
f 122/199/59 126/207/59 125/208/59 121/200/59
f 132/209/60 136/210/60 135/211/60 131/212/60
f 126/207/61 130/213/61 129/214/61 125/208/61
f 128/204/62 132/209/62 131/212/62 127/205/62
f 130/213/63 134/215/63 133/216/63 129/214/63
f 140/217/64 137/218/64 138/219/64 139/220/64
f 134/215/65 138/221/65 137/222/65 133/216/65
f 136/210/66 140/217/66 139/220/66 135/211/66
f 167/223/40 171/224/40 145/225/40 149/226/40 153/166/40 152/165/40 148/227/40 168/228/40
f 169/229/67 163/230/67 170/231/67
f 169/232/68 167/233/68 168/234/68 166/235/68
f 163/236/69 171/237/69 172/238/69 170/239/69
f 166/235/70 168/234/70 164/240/70 165/241/70
f 170/239/71 172/238/71 167/233/71 169/232/71
f 161/242/72 162/243/72 171/237/72 163/236/72
f 143/244/73 160/245/73 159/246/73 141/247/73
f 165/241/74 164/240/74 159/246/74 160/245/74
f 108/248/40 109/249/40 115/250/40 118/251/40
f 88/252/40 92/161/40 91/160/40 87/253/40
f 93/159/67 94/162/67 90/254/67 89/255/67
f 159/256/40 164/257/40 168/228/40 148/227/40
f 87/253/40 96/258/40 97/259/40 88/252/40
f 118/251/40 115/250/40 119/260/40 123/261/40 122/262/40
f 121/263/67 124/264/67 120/265/67 116/266/67 117/267/67
f 97/259/40 96/258/40 100/268/40 101/269/40
f 113/270/40 109/249/40 108/248/40 112/271/40
f 109/249/40 105/272/40 104/273/40 115/250/40
f 142/274/75 141/275/75 159/256/75 148/227/75
f 145/225/40 171/224/40 162/276/40
f 103/277/67 106/278/67 110/279/67 107/280/67 116/266/67
f 104/273/40 105/272/40 101/269/40 100/268/40
f 126/281/40 127/282/40 131/283/40 130/284/40
f 171/224/40 167/223/40 172/285/40
f 136/286/67 132/287/67 129/288/67 133/289/67 137/290/67 140/291/67
f 163/230/67 169/229/67 166/292/67 147/293/67 151/294/67 154/295/67 150/296/67 146/297/67
f 163/230/67 146/297/67 161/298/67
f 134/299/40 130/284/40 131/283/40 135/300/40 139/301/40 138/302/40
f 106/278/67 103/277/67 99/303/67 102/304/67
f 89/255/67 90/254/67 98/305/67 95/306/67
f 126/281/40 122/262/40 123/261/40 127/282/40
f 114/307/67 111/308/67 107/280/67 110/279/67
f 154/295/67 151/294/67 157/309/67 156/310/67
f 98/305/67 102/304/67 99/303/67 95/306/67
f 129/288/67 132/287/67 128/311/67 125/312/67
f 116/266/67 107/280/67 117/267/67
f 144/313/76 147/293/76 160/314/76 143/315/76
f 166/292/67 165/316/67 160/314/67 147/293/67
f 125/312/67 128/311/67 124/264/67 121/263/67
