# Blender v3.0.0 OBJ File: ''
# www.blender.org
mtllib body_215obj.mtl
o 1_Cube.007
v -0.740955 -1.631090 1.403698
v -0.740955 -1.368910 1.403698
v -0.740955 -1.631090 -1.403698
v -0.740955 -1.368910 -1.403698
v 0.740955 -1.631090 1.403698
v 0.740955 -1.368910 1.403698
v 0.740955 -1.631090 -1.403698
v 0.740955 -1.368910 -1.403698
v -0.740954 -0.131090 1.403697
v -0.740954 0.131090 1.403697
v -0.740954 -0.131090 -1.403697
v -0.740954 0.131090 -1.403697
v 0.740954 -0.131090 1.403697
v 0.740954 0.131090 1.403697
v 0.740954 -0.131090 -1.403697
v 0.740954 0.131090 -1.403697
v -0.740954 -0.631090 1.403697
v -0.740954 -0.368910 1.403697
v -0.740954 -0.631090 -1.403697
v -0.740954 -0.368910 -1.403697
v 0.740954 -0.631090 1.403697
v 0.740954 -0.368910 1.403697
v 0.740954 -0.631090 -1.403697
v 0.740954 -0.368910 -1.403697
v -0.740954 -1.131090 1.403697
v -0.740954 -0.868910 1.403697
v -0.740954 -1.131090 -1.403697
v -0.740954 -0.868910 -1.403697
v 0.740954 -1.131090 1.403697
v 0.740954 -0.868910 1.403697
v 0.740954 -1.131090 -1.403697
v 0.740954 -0.868910 -1.403697
v -0.740954 0.368910 1.403697
v -0.740954 0.631090 1.403697
v -0.740954 0.368910 -1.403697
v -0.740954 0.631090 -1.403697
v 0.740954 0.368910 1.403697
v 0.740954 0.631090 1.403697
v 0.740954 0.368910 -1.403697
v 0.740954 0.631090 -1.403697
v -0.740954 0.868910 1.403697
v -0.740954 1.131091 1.403697
v -0.740954 0.868910 -1.403697
v -0.740954 1.131091 -1.403697
v 0.740954 0.868910 1.403697
v 0.740954 1.131091 1.403697
v 0.740954 0.868910 -1.403697
v 0.740954 1.131091 -1.403697
v -0.740954 1.368909 1.403697
v -0.740954 1.631090 1.403697
v -0.740954 1.368909 -1.403697
v -0.740954 1.631090 -1.403697
v 0.740954 1.368909 1.403697
v 0.740954 1.631090 1.403697
v 0.740954 1.368909 -1.403697
v 0.740954 1.631090 -1.403697
vt 0.323345 0.481716
vt 0.309182 0.481716
vt 0.309182 0.330056
vt 0.323345 0.330056
vt 0.309182 0.250000
vt 0.323345 0.250000
vt 0.309182 0.098340
vt 0.323345 0.098340
vt 0.309182 0.018284
vt 0.323345 0.018284
vt 0.403401 0.250000
vt 0.403401 0.098340
vt 0.229126 0.250000
vt 0.229126 0.098340
vt 0.309182 0.518284
vt 0.323345 0.518284
vt 0.323345 0.669944
vt 0.309182 0.669944
vt 0.323345 0.750000
vt 0.309182 0.750000
vt 0.323345 0.901661
vt 0.309182 0.901661
vt 0.323345 0.981716
vt 0.309182 0.981716
vt 0.229126 0.750000
vt 0.229126 0.901661
vt 0.403401 0.750000
vt 0.403401 0.901661
vt 0.745030 0.481716
vt 0.730866 0.481716
vt 0.730866 0.330056
vt 0.745030 0.330056
vt 0.730866 0.250000
vt 0.745030 0.250000
vt 0.730866 0.098340
vt 0.745030 0.098340
vt 0.730866 0.018284
vt 0.745030 0.018284
vt 0.825086 0.250000
vt 0.825086 0.098340
vt 0.650811 0.250000
vt 0.650811 0.098339
vt 0.098340 0.518284
vt 0.112503 0.518284
vt 0.112503 0.669944
vt 0.098339 0.669944
vt 0.112503 0.750000
vt 0.098339 0.750000
vt 0.112503 0.901661
vt 0.098339 0.901661
vt 0.112503 0.981716
vt 0.098339 0.981716
vt 0.018284 0.750000
vt 0.018284 0.901661
vt 0.192558 0.750000
vt 0.192558 0.901661
vt 0.520024 0.518284
vt 0.534187 0.518284
vt 0.534187 0.669944
vt 0.520024 0.669944
vt 0.534188 0.750000
vt 0.520024 0.750000
vt 0.534188 0.901661
vt 0.520024 0.901661
vt 0.534188 0.981716
vt 0.520024 0.981716
vt 0.439968 0.750000
vt 0.439969 0.901661
vt 0.614243 0.750000
vt 0.614243 0.901660
vt 0.520024 0.018284
vt 0.534188 0.018284
vt 0.534188 0.169944
vt 0.520024 0.169944
vt 0.534188 0.250000
vt 0.520024 0.250000
vt 0.534188 0.401661
vt 0.520024 0.401661
vt 0.534188 0.481716
vt 0.520024 0.481716
vt 0.439969 0.250000
vt 0.439969 0.401661
vt 0.614243 0.250000
vt 0.614243 0.401661
vt 0.112503 0.481716
vt 0.098339 0.481716
vt 0.098339 0.330056
vt 0.112503 0.330056
vt 0.098339 0.250000
vt 0.112503 0.250000
vt 0.098339 0.098340
vt 0.112503 0.098340
vt 0.098339 0.018284
vt 0.112503 0.018284
vt 0.192559 0.250000
vt 0.192559 0.098340
vt 0.018284 0.250000
vt 0.018284 0.098339
vn -1.0000 0.0000 0.0000
vn 0.0000 0.0000 -1.0000
vn 1.0000 0.0000 0.0000
vn 0.0000 0.0000 1.0000
vn 0.0000 -1.0000 0.0000
vn 0.0000 1.0000 0.0000
usemtl None
s off
f 1/1/1 2/2/1 4/3/1 3/4/1
f 3/4/2 4/3/2 8/5/2 7/6/2
f 7/6/3 8/5/3 6/7/3 5/8/3
f 5/8/4 6/7/4 2/9/4 1/10/4
f 3/11/5 7/6/5 5/8/5 1/12/5
f 8/5/6 4/13/6 2/14/6 6/7/6
f 9/15/1 10/16/1 12/17/1 11/18/1
f 11/18/2 12/17/2 16/19/2 15/20/2
f 15/20/3 16/19/3 14/21/3 13/22/3
f 13/22/4 14/21/4 10/23/4 9/24/4
f 11/25/5 15/20/5 13/22/5 9/26/5
f 16/19/6 12/27/6 10/28/6 14/21/6
f 17/29/1 18/30/1 20/31/1 19/32/1
f 19/32/2 20/31/2 24/33/2 23/34/2
f 23/34/3 24/33/3 22/35/3 21/36/3
f 21/36/4 22/35/4 18/37/4 17/38/4
f 19/39/5 23/34/5 21/36/5 17/40/5
f 24/33/6 20/41/6 18/42/6 22/35/6
f 25/43/1 26/44/1 28/45/1 27/46/1
f 27/46/2 28/45/2 32/47/2 31/48/2
f 31/48/3 32/47/3 30/49/3 29/50/3
f 29/50/4 30/49/4 26/51/4 25/52/4
f 27/53/5 31/48/5 29/50/5 25/54/5
f 32/47/6 28/55/6 26/56/6 30/49/6
f 33/57/1 34/58/1 36/59/1 35/60/1
f 35/60/2 36/59/2 40/61/2 39/62/2
f 39/62/3 40/61/3 38/63/3 37/64/3
f 37/64/4 38/63/4 34/65/4 33/66/4
f 35/67/5 39/62/5 37/64/5 33/68/5
f 40/61/6 36/69/6 34/70/6 38/63/6
f 41/71/1 42/72/1 44/73/1 43/74/1
f 43/74/2 44/73/2 48/75/2 47/76/2
f 47/76/3 48/75/3 46/77/3 45/78/3
f 45/78/4 46/77/4 42/79/4 41/80/4
f 43/81/5 47/76/5 45/78/5 41/82/5
f 48/75/6 44/83/6 42/84/6 46/77/6
f 49/85/1 50/86/1 52/87/1 51/88/1
f 51/88/2 52/87/2 56/89/2 55/90/2
f 55/90/3 56/89/3 54/91/3 53/92/3
f 53/92/4 54/91/4 50/93/4 49/94/4
f 51/95/5 55/90/5 53/92/5 49/96/5
f 56/89/6 52/97/6 50/98/6 54/91/6
