# Blender v2.91.2 OBJ File: ''
# www.blender.org
mtllib body_129.mtl
o Circle.004_Circle.019
v 0.000000 0.000000 0.000000
v 0.000000 0.675489 0.000009
v 0.000000 0.662510 -0.131771
v 0.000000 0.624070 -0.258488
v 0.000000 0.561649 -0.375271
v 0.000000 0.477643 -0.477632
v 0.000000 0.375282 -0.561637
v 0.000000 0.258500 -0.624059
v 0.000000 0.131783 -0.662498
v 0.000000 0.000002 -0.675477
v 0.000000 -0.131778 -0.662498
v 0.000000 -0.258495 -0.624059
v 0.000000 -0.375278 -0.561637
v 0.000000 -0.477639 -0.477632
v 0.000000 -0.561644 -0.375271
v 0.000000 -0.624066 -0.258488
v 0.000000 -0.662505 -0.131771
v 0.000000 -0.675484 0.000010
v 0.000000 -0.662505 0.131790
v 0.000000 -0.624066 0.258507
v 0.000000 -0.561644 0.375290
v 0.000000 -0.477638 0.477651
v 0.000000 -0.375277 0.561656
v 0.000000 -0.258495 0.624078
v 0.000000 -0.131778 0.662517
v 0.000000 0.000003 0.675496
v 0.000000 0.131784 0.662516
v 0.000000 0.258500 0.624077
v 0.000000 0.375283 0.561655
v 0.000000 0.477644 0.477650
v 0.000000 0.561649 0.375289
v 0.000000 0.624071 0.258506
v 0.000000 0.662510 0.131789
v 0.000000 0.797245 -0.532698
v 0.000000 0.678002 -0.677997
v 0.000000 0.532703 -0.797241
v 0.000000 0.366933 -0.885847
v 0.000000 0.187061 -0.940410
v 0.000000 0.000002 -0.958834
v 0.000000 -0.885849 -0.366928
v 0.000000 -0.940412 -0.187056
v 0.000000 -0.958836 0.000003
v 0.000000 -0.940412 0.187063
v 0.000000 -0.885849 0.366935
v 0.000000 0.000002 0.958840
v 0.000000 0.187062 0.940417
v 0.000000 0.366933 0.885853
v 0.000000 0.532704 0.797247
v 0.000000 0.678002 0.678003
v 0.000000 0.797246 0.532704
v 0.000000 2.594418 -1.733525
v 0.000000 2.206371 -2.206362
v 0.000000 1.733534 -2.594409
v 0.000000 1.194078 -2.882754
v 0.000000 0.608735 -3.060316
v 0.000000 -0.000001 -3.120271
v -0.000000 -2.882766 -1.194070
v -0.000000 -3.060329 -0.608726
v -0.000000 -3.120284 0.000011
v -0.000000 -3.060328 0.608748
v -0.000000 -2.882766 1.194092
v -0.000000 0.000001 3.120292
v -0.000000 0.608738 3.060337
v -0.000000 1.194081 2.882774
v 0.000000 1.733536 2.594429
v 0.000000 2.206373 2.206380
v 0.000000 2.594419 1.733543
v 0.000000 0.592860 -0.316879
v 0.000000 0.841549 -0.449813
v 0.000000 2.738590 -1.463797
v 0.000000 0.592860 0.316897
v 0.000000 0.841549 0.449818
v 0.000000 2.738592 1.463815
v 0.000000 -0.592855 0.316898
v 0.000000 -0.841546 0.449820
v -0.000000 -2.738594 1.463820
v 0.000000 -0.592855 -0.316879
v 0.000000 -0.841546 -0.449813
v -0.000000 -2.738594 -1.463797
vt 0.503808 0.501760
vt 0.503810 0.603954
vt 0.483872 0.601990
vt 0.464702 0.596175
vt 0.455868 0.591453
vt 0.447034 0.586731
vt 0.431548 0.574022
vt 0.418838 0.558536
vt 0.409395 0.540868
vt 0.403579 0.521696
vt 0.401616 0.501760
vt 0.403579 0.481823
vt 0.409395 0.462652
vt 0.418838 0.444984
vt 0.431548 0.429498
vt 0.447034 0.416788
vt 0.455868 0.412066
vt 0.464702 0.407345
vt 0.483873 0.401530
vt 0.503810 0.399566
vt 0.523747 0.401530
vt 0.542918 0.407345
vt 0.551752 0.412067
vt 0.560586 0.416789
vt 0.576072 0.429498
vt 0.588781 0.444984
vt 0.598225 0.462652
vt 0.604040 0.481823
vt 0.606004 0.501760
vt 0.604040 0.521697
vt 0.598225 0.540868
vt 0.588781 0.558536
vt 0.576072 0.574022
vt 0.560586 0.586731
vt 0.551752 0.591453
vt 0.542918 0.596175
vt 0.523746 0.601990
vt 0.637829 0.557273
vt 0.646083 0.530060
vt 0.966806 0.593855
vt 0.939942 0.682412
vt 0.624423 0.582352
vt 0.896318 0.764025
vt 0.606383 0.604334
vt 0.837611 0.835560
vt 0.475509 0.359485
vt 0.448296 0.367740
vt 0.323158 0.065627
vt 0.411715 0.038764
vt 0.584401 0.622374
vt 0.766075 0.894268
vt 0.503809 0.356697
vt 0.503810 0.029693
vt 0.571861 0.629077
vt 0.725268 0.916080
vt 0.532109 0.359485
vt 0.595905 0.038764
vt 0.401235 0.604334
vt 0.423216 0.622374
vt 0.241544 0.894268
vt 0.170009 0.835560
vt 0.559321 0.367740
vt 0.684462 0.065627
vt 0.383194 0.582352
vt 0.111301 0.764025
vt 0.571862 0.374442
vt 0.725269 0.087439
vt 0.369789 0.557272
vt 0.067677 0.682411
vt 0.361534 0.530060
vt 0.040814 0.593855
vt 0.358746 0.501760
vt 0.031744 0.501759
vt 0.648871 0.501760
vt 0.975876 0.501760
vt 0.435756 0.629077
vt 0.282351 0.916080
vt 0.435756 0.374442
vt 0.282351 0.087438
vn -1.0000 0.0000 -0.0000
usemtl None
s off
f 1/1/1 2/2/1 3/3/1
f 1/1/1 3/3/1 4/4/1
f 1/1/1 4/4/1 68/5/1 5/6/1
f 1/1/1 5/6/1 6/7/1
f 1/1/1 6/7/1 7/8/1
f 1/1/1 7/8/1 8/9/1
f 1/1/1 8/9/1 9/10/1
f 1/1/1 9/10/1 10/11/1
f 1/1/1 10/11/1 11/12/1
f 1/1/1 11/12/1 12/13/1
f 1/1/1 12/13/1 13/14/1
f 1/1/1 13/14/1 14/15/1
f 1/1/1 14/15/1 15/16/1
f 1/1/1 15/16/1 77/17/1 16/18/1
f 1/1/1 16/18/1 17/19/1
f 1/1/1 17/19/1 18/20/1
f 1/1/1 18/20/1 19/21/1
f 1/1/1 19/21/1 20/22/1
f 1/1/1 20/22/1 74/23/1 21/24/1
f 1/1/1 21/24/1 22/25/1
f 1/1/1 22/25/1 23/26/1
f 1/1/1 23/26/1 24/27/1
f 1/1/1 24/27/1 25/28/1
f 1/1/1 25/28/1 26/29/1
f 1/1/1 26/29/1 27/30/1
f 1/1/1 27/30/1 28/31/1
f 1/1/1 28/31/1 29/32/1
f 1/1/1 29/32/1 30/33/1
f 1/1/1 30/33/1 31/34/1
f 1/1/1 31/34/1 71/35/1 32/36/1
f 1/1/1 32/36/1 33/37/1
f 1/1/1 33/37/1 2/2/1
f 47/38/1 46/39/1 63/40/1 64/41/1
f 48/42/1 47/38/1 64/41/1 65/43/1
f 49/44/1 48/42/1 65/43/1 66/45/1
f 41/46/1 40/47/1 57/48/1 58/49/1
f 50/50/1 49/44/1 66/45/1 67/51/1
f 42/52/1 41/46/1 58/49/1 59/53/1
f 72/54/1 50/50/1 67/51/1 73/55/1
f 43/56/1 42/52/1 59/53/1 60/57/1
f 35/58/1 34/59/1 51/60/1 52/61/1
f 44/62/1 43/56/1 60/57/1 61/63/1
f 36/64/1 35/58/1 52/61/1 53/65/1
f 75/66/1 44/62/1 61/63/1 76/67/1
f 37/68/1 36/64/1 53/65/1 54/69/1
f 38/70/1 37/68/1 54/69/1 55/71/1
f 39/72/1 38/70/1 55/71/1 56/73/1
f 46/39/1 45/74/1 62/75/1 63/40/1
f 34/59/1 69/76/1 70/77/1 51/60/1
f 40/47/1 78/78/1 79/79/1 57/48/1
