# Blender v2.79 (sub 0) OBJ File: 'body_97.blend'
# www.blender.org
mtllib body_97.mtl
o 3_Cube.009
v -2.827279 -1.000000 1.000000
v -2.827279 1.000000 1.000000
v -2.827279 -1.000000 -1.000000
v -2.827279 1.000000 -1.000000
v -0.827279 -1.000000 1.000000
v -0.827279 1.000000 1.000000
v -0.827279 -1.000000 -1.000000
v -0.827279 1.000000 -1.000000
v -2.827279 0.600000 1.000000
v -2.827279 0.600000 -1.000000
v -0.827279 0.600000 -1.000000
v -0.827279 0.600000 1.000000
v -0.827279 -1.000000 0.586008
v -0.827279 1.466387 0.586008
v -0.827279 -1.000000 -0.586008
v -0.827279 1.466387 -0.586008
v -0.650000 1.466387 0.586008
v -0.650000 1.466387 -0.586008
v -0.650000 -1.216537 -0.586008
v -0.650000 -1.216537 0.586008
v -2.284758 -1.000000 -0.586008
v -2.284758 -1.000000 0.586008
v -2.284758 -1.216537 -0.586008
v -2.284758 -1.216537 0.586008
v -1.004558 1.124714 0.351346
v -1.004558 1.370856 0.351346
v -1.004558 1.124714 -0.351346
v -1.004558 1.370856 -0.351346
v -0.827279 1.370856 0.351346
v -0.827279 1.370856 -0.351346
v -0.827279 1.000000 -0.351346
v -0.827279 1.000000 0.351346
v -1.493679 1.124714 -0.351346
v -1.493679 1.124714 0.351346
v -1.493679 1.000000 -0.351346
v -1.493679 1.000000 0.351346
vt 0.042181 0.085899
vt 0.090040 0.085899
vt 0.090040 0.325192
vt 0.042181 0.325192
vt 0.090040 0.373051
vt 0.329333 0.325192
vt 0.329333 0.373051
vt 0.377191 0.325192
vt 0.329333 0.085899
vt 0.377191 0.085899
vt 0.329333 0.038040
vt 0.090040 0.038040
vt 0.452506 0.738867
vt 0.213213 0.738867
vt 0.213213 0.499574
vt 0.452506 0.499574
vt 0.452506 0.260281
vt 0.643940 0.260281
vt 0.643940 0.499574
vt 0.452506 0.020988
vt 0.643940 0.020988
vt 0.643940 0.738867
vt 0.643940 0.978160
vt 0.452506 0.978160
vt 0.752130 0.915452
vt 0.752130 0.620357
vt 0.892357 0.620357
vt 0.892357 0.915452
vt 0.752129 0.599146
vt 0.752129 0.278144
vt 0.892357 0.278144
vt 0.892357 0.599146
vt 0.730919 0.304052
vt 0.730919 0.599146
vt 0.752129 0.082551
vt 0.892357 0.082551
vt 0.290645 0.915520
vt 0.290645 0.959892
vt 0.269434 0.944971
vt 0.269434 0.915520
vt 0.726222 0.256933
vt 0.726222 0.082551
vt 0.918265 0.256933
vt 0.918265 0.082551
vt 0.752129 0.056643
vt 0.892357 0.056643
vt 0.239984 0.831446
vt 0.269434 0.831446
vt 0.239984 0.915520
vt 0.290645 0.787074
vt 0.290645 0.831446
vt 0.269434 0.801996
vt 0.210913 0.801996
vt 0.210913 0.787074
vt 0.210913 0.959892
vt 0.210913 0.944971
vt 0.181463 0.831446
vt 0.181463 0.915520
vt 0.166541 0.915520
vt 0.166541 0.831446
vt 0.913568 0.304051
vt 0.913568 0.599146
vn -1.0000 0.0000 0.0000
vn 0.0000 0.0000 -1.0000
vn 1.0000 0.0000 0.0000
vn 0.0000 0.0000 1.0000
vn 0.0000 -1.0000 0.0000
vn 0.0000 1.0000 0.0000
usemtl None
s off
f 9/1/1 2/2/1 4/3/1 10/4/1
f 10/5/2 4/3/2 8/6/2 11/7/2
f 11/8/3 8/6/3 6/9/3 12/10/3
f 12/11/4 6/9/4 2/2/4 9/12/4
f 3/13/5 7/14/5 5/15/5 1/16/5
f 8/6/6 4/3/6 2/2/6 6/9/6
f 5/17/4 12/18/4 9/19/4 1/16/4
f 7/20/3 11/21/3 12/18/3 5/17/3
f 3/13/2 10/22/2 11/23/2 7/24/2
f 1/16/1 9/19/1 10/22/1 3/13/1
f 13/25/1 14/26/1 16/27/1 15/28/1
f 17/29/3 20/30/3 19/31/3 18/32/3
f 13/33/4 20/30/4 17/29/4 14/34/4
f 20/30/5 24/35/5 23/36/5 19/31/5
f 30/37/2 31/38/2 27/39/2 28/40/2
f 18/32/6 16/27/6 14/26/6 17/29/6
f 20/30/4 13/41/4 22/42/4 24/35/4
f 15/43/2 19/31/2 23/36/2 21/44/2
f 22/45/1 21/46/1 23/36/1 24/35/1
f 25/47/1 26/48/1 28/40/1 27/49/1
f 32/50/4 29/51/4 26/48/4 25/52/4
f 30/37/6 28/40/6 26/48/6 29/51/6
f 32/50/4 25/52/4 34/53/4 36/54/4
f 27/39/2 31/38/2 35/55/2 33/56/2
f 34/57/1 33/58/1 35/59/1 36/60/1
f 25/47/6 27/49/6 33/58/6 34/57/6
f 18/32/2 19/31/2 15/61/2 16/62/2
