# Blender v2.91.2 OBJ File: ''
# www.blender.org
mtllib body_125.mtl
o Cube.074_Cube.019
v 0.704052 -0.125383 0.226017
v 0.704051 1.637846 0.100462
v 0.642694 -0.125383 0.226017
v 0.642693 1.637846 0.100462
v 0.704052 -0.125383 -0.239012
v 0.704051 1.637846 -0.113458
v 0.642694 -0.125383 -0.239012
v 0.642693 1.637846 -0.113458
v 0.642694 -0.549102 -0.006498
v 0.704052 -0.549102 -0.006498
v 0.748398 1.637846 -0.006498
v 0.748398 -0.125383 -0.006498
v 0.725832 1.637846 0.108607
v 0.793969 1.927630 0.241761
v 0.642694 1.637846 0.108607
v 0.642694 1.927630 0.241761
v 0.725832 1.637846 -0.121602
v 0.793969 1.927630 -0.254756
v 0.642694 1.637846 -0.121602
v 0.642694 1.927630 -0.254756
v 0.769437 1.637846 -0.006498
v 0.837574 1.927630 -0.006498
vt 0.078312 0.234643
vt 0.128905 0.977770
vt 0.103110 0.979527
vt 0.052518 0.236399
vt 0.887222 0.532341
vt 0.678049 0.532341
vt 0.782635 0.450242
vt 0.303337 0.236399
vt 0.252744 0.979527
vt 0.226950 0.977770
vt 0.277543 0.234643
vt 0.177927 0.056665
vt 0.177927 0.235813
vt 0.317169 0.033220
vt 0.291376 0.031464
vt 0.038685 0.033221
vt 0.064479 0.031464
vt 0.177927 0.977781
vt 0.738234 0.273851
vt 0.734803 0.283027
vt 0.734803 0.248002
vt 0.738234 0.248002
vt 0.737575 0.654421
vt 0.734145 0.654421
vt 0.735778 0.817359
vt 0.681331 0.943492
vt 0.629390 0.906568
vt 0.707232 0.797066
vt 0.831126 0.654421
vt 0.827695 0.654421
vt 0.867691 0.797066
vt 0.945534 0.906568
vt 0.893591 0.943492
vt 0.839145 0.817359
vt 0.787462 0.821563
vt 0.787461 0.946972
vt 0.828354 0.248002
vt 0.831785 0.248002
vt 0.831785 0.283026
vt 0.828354 0.273851
vt 0.586669 0.223448
vt 0.530228 0.965997
vt 0.440109 0.965566
vt 0.390765 0.222512
vt 0.783294 0.292533
vt 0.783294 0.301396
vt 0.489570 0.044479
vt 0.678049 0.468612
vt 0.887222 0.468612
vn 0.0000 0.0710 0.9975
vn -0.0000 1.0000 0.0000
vn 0.0000 0.0710 -0.9975
vn 0.9771 -0.1023 0.1864
vn 0.0000 -0.4811 -0.8767
vn 0.0000 -0.4811 0.8767
vn 0.9771 -0.1023 -0.1864
vn 0.9675 0.0090 0.2528
vn 0.9675 0.0090 -0.2528
vn 0.0000 -1.0000 0.0000
vn -1.0000 -0.0000 0.0000
vn 0.0000 -0.4175 0.9087
vn 0.0000 -0.4175 -0.9087
vn 0.9358 -0.2716 0.2246
vn 0.9358 -0.2716 -0.2246
usemtl None
s off
f 1/1/1 2/2/1 4/3/1 3/4/1
f 20/5/2 16/6/2 22/7/2
f 7/8/3 8/9/3 6/10/3 5/11/3
f 10/12/4 12/13/4 1/1/4
f 9/14/5 7/8/5 5/11/5 10/15/5
f 3/4/6 9/16/6 10/17/6 1/1/6
f 5/11/7 12/13/7 10/12/7
f 1/1/8 12/13/8 11/18/8 2/2/8
f 12/13/9 5/11/9 6/10/9 11/18/9
f 2/19/10 13/20/10 15/21/10 4/22/10
f 16/6/11 4/23/11 15/24/11
f 13/25/12 14/26/12 16/27/12 15/28/12
f 20/5/11 19/29/11 8/30/11
f 19/31/13 20/32/13 18/33/13 17/34/13
f 21/35/14 22/36/14 14/26/14 13/25/14
f 8/37/10 19/38/10 17/39/10 6/40/10
f 3/41/11 4/42/11 8/43/11 7/44/11
f 17/34/15 18/33/15 22/36/15 21/35/15
f 8/30/11 4/23/11 16/6/11 20/5/11
f 13/20/10 2/19/10 11/45/10 21/46/10
f 17/39/10 21/46/10 11/45/10 6/40/10
f 3/41/11 7/44/11 9/47/11
f 22/7/2 16/6/2 14/48/2
f 22/7/2 18/49/2 20/5/2
