# Blender v2.79 (sub 0) OBJ File: 'sword.blend'
# www.blender.org
mtllib body_3.mtl
o Cube.001_Cube.002
v 0.015598 0.246171 -0.238034
v 0.015598 0.290407 -0.283064
v -0.015598 0.246171 -0.238034
v -0.015598 0.290407 -0.283064
v 0.015598 0.268587 -0.216337
v 0.015598 0.312823 -0.261367
v -0.015598 0.268587 -0.216337
v -0.015598 0.312823 -0.261367
v -0.015598 0.160027 -0.148452
v 0.015598 0.160027 -0.148452
v -0.015598 0.176940 -0.122238
v 0.015598 0.176940 -0.122238
v -0.015598 0.040050 -0.070799
v 0.015598 0.040050 -0.070799
v -0.015598 0.052482 -0.042186
v 0.015598 0.052482 -0.042186
v -0.015598 -0.048748 -0.028384
v 0.015598 -0.048748 -0.028384
v -0.015598 -0.028437 -0.004704
v 0.015598 -0.028437 -0.004704
v -0.015598 -0.116940 0.030820
v 0.015598 -0.116940 0.030820
v -0.015598 -0.091143 0.048363
v 0.015598 -0.091143 0.048363
v -0.015598 -0.184345 0.130172
v 0.015598 -0.184345 0.130172
v -0.015598 -0.156498 0.144235
v 0.015598 -0.156498 0.144235
v -0.015598 -0.273318 0.321086
v 0.015598 -0.273318 0.321086
v -0.015598 -0.245470 0.335150
v 0.015598 -0.245470 0.335150
v -0.015598 -0.302292 0.406099
v 0.015598 -0.302292 0.406099
v -0.015598 -0.274445 0.420162
v 0.015598 -0.274445 0.420162
v 0.011500 0.184997 -0.365486
v -0.011500 0.184997 -0.365486
v 0.011500 0.187690 -0.219724
v -0.011500 0.187690 -0.219724
v -0.011500 0.019367 -0.377811
v 0.011500 0.019367 -0.377811
v 0.011500 0.065475 -0.457240
v -0.011500 0.065475 -0.457240
v -0.011500 -0.096417 -0.444199
v 0.011500 -0.096417 -0.444199
v 0.011500 -0.055558 -0.514588
v -0.011500 -0.055558 -0.514588
v -0.011500 -0.236124 -0.491925
v 0.011500 -0.236124 -0.491925
v 0.011500 -0.204812 -0.545866
v -0.011500 -0.204812 -0.545866
v -0.011500 -0.324326 -0.511457
v 0.011500 -0.324326 -0.511457
v 0.011500 -0.321871 -0.528689
v -0.011500 -0.321871 -0.528689
v -0.011500 -0.362502 -0.511504
v 0.011500 -0.362502 -0.511504
v -0.011500 0.223457 -0.256838
v 0.011500 0.223457 -0.256838
v -0.011500 0.353159 -0.203119
v 0.011500 0.353159 -0.203119
v -0.011500 0.317392 -0.166005
v 0.011500 0.317392 -0.166005
vt 0.902308 0.885736
vt 0.872323 0.885736
vt 0.872323 0.946408
vt 0.902308 0.946408
vt 0.847385 0.885736
vt 0.847385 0.946408
vt 0.961988 0.885736
vt 0.927247 0.885736
vt 0.927247 0.946408
vt 0.961988 0.946408
vt 0.961988 0.762884
vt 0.927247 0.762884
vt 0.872323 0.982931
vt 0.902308 0.982931
vt 0.961988 0.623087
vt 0.927247 0.623087
vt 0.902308 0.762884
vt 0.872323 0.762884
vt 0.847385 0.762884
vt 0.902308 0.623087
vt 0.902308 0.532937
vt 0.872323 0.532937
vt 0.872323 0.623087
vt 0.847385 0.623087
vt 0.927247 0.532937
vt 0.927247 0.450059
vt 0.902308 0.450059
vt 0.847385 0.532937
vt 0.961988 0.532937
vt 0.961988 0.450059
vt 0.961988 0.336601
vt 0.927247 0.336601
vt 0.872323 0.450059
vt 0.847385 0.450059
vt 0.927247 0.134155
vt 0.902308 0.134155
vt 0.902308 0.336601
vt 0.872323 0.336601
vt 0.847385 0.336601
vt 0.872323 0.134155
vt 0.872323 0.047829
vt 0.847385 0.047829
vt 0.847385 0.134155
vt 0.961988 0.134155
vt 0.961988 0.015765
vt 0.927247 0.015765
vt 0.927247 0.047829
vt 0.961988 0.047829
vt 0.902308 0.047829
vt 0.758613 0.816489
vt 0.744411 0.826763
vt 0.785282 0.844177
vt 0.085589 0.771398
vt 0.085589 0.902981
vt 0.117459 0.902981
vt 0.117459 0.771398
vt 0.336423 0.604341
vt 0.415995 0.623975
vt 0.459108 0.496183
vt 0.369316 0.474027
vt 0.085589 0.719494
vt 0.117459 0.719494
vt 0.117458 0.486959
vt 0.085589 0.486959
vt 0.476239 0.497152
vt 0.476239 0.632019
vt 0.508108 0.632019
vt 0.508108 0.497152
vt 0.476239 0.345419
vt 0.508108 0.345419
vt 0.334256 0.753978
vt 0.273278 0.738931
vt 0.225734 0.816490
vt 0.239935 0.826764
vt 0.117459 0.352558
vt 0.117459 0.203892
vt 0.085589 0.203892
vt 0.085589 0.352558
vt 0.615031 0.474027
vt 0.525239 0.496183
vt 0.568352 0.623975
vt 0.647924 0.604341
vt 0.476239 0.785581
vt 0.508109 0.785581
vt 0.476239 0.904719
vt 0.508109 0.904719
vt 0.117459 0.112921
vt 0.085590 0.112921
vt 0.117459 0.074478
vt 0.085590 0.074478
vt 0.476239 0.949144
vt 0.508109 0.949144
vt 0.476238 0.110028
vt 0.424335 0.109979
vt 0.424433 0.241563
vt 0.372529 0.241514
vt 0.650091 0.753977
vt 0.711069 0.738931
vt 0.508108 0.110028
vt 0.559914 0.241563
vt 0.560012 0.109979
vt 0.611818 0.241514
vt 0.085589 0.954885
vt 0.117459 0.954885
vt 0.199065 0.844178
vn 0.0000 -0.7134 -0.7008
vn -1.0000 0.0000 -0.0000
vn 0.0000 0.7134 0.7008
vn 1.0000 -0.0000 0.0000
vn 0.0000 0.7164 0.6977
vn 0.0000 0.6955 -0.7185
vn 0.0000 0.5410 0.8410
vn 0.0000 -0.7208 -0.6931
vn 0.0000 -0.4310 -0.9023
vn 0.0000 -0.5434 -0.8395
vn 0.0000 0.4203 0.9074
vn 0.0000 0.8263 0.5633
vn 0.0000 0.6460 0.7633
vn 0.0000 -0.6556 -0.7551
vn 0.0000 -0.8275 -0.5614
vn 0.0000 0.9064 0.4224
vn 0.0000 -0.9064 -0.4224
vn 0.0000 -0.4508 0.8926
vn 0.0000 0.9465 0.3226
vn 0.0000 -0.9465 -0.3226
vn 0.0000 -0.6951 0.7189
vn 0.0000 -0.6846 0.7289
vn 0.0000 0.4282 -0.9037
vn 0.0000 0.6089 -0.7932
vn 0.0000 -0.3233 0.9463
vn 0.0000 -0.4974 0.8675
vn 0.0000 0.2051 -0.9787
vn 0.0000 -0.1452 -0.9894
vn 0.0000 -0.2162 0.9763
vn 0.0000 -0.0012 1.0000
vn 0.0000 -0.3896 -0.9210
vn 0.0000 0.7201 0.6939
vn 0.0000 0.6946 -0.7194
usemtl None
s off
f 1/1/1 3/2/1 4/3/1 2/4/1
f 3/2/2 7/5/2 8/6/2 4/3/2
f 7/7/3 5/8/3 6/9/3 8/10/3
f 5/8/4 1/1/4 2/4/4 6/9/4
f 7/7/5 11/11/5 12/12/5 5/8/5
f 8/13/6 6/14/6 2/4/6 4/3/6
f 11/11/7 15/15/7 16/16/7 12/12/7
f 5/8/4 12/12/4 10/17/4 1/1/4
f 3/2/2 9/18/2 11/19/2 7/5/2
f 1/1/8 10/17/8 9/18/8 3/2/8
f 14/20/9 18/21/9 17/22/9 13/23/9
f 10/17/10 14/20/10 13/23/10 9/18/10
f 12/12/4 16/16/4 14/20/4 10/17/4
f 9/18/2 13/23/2 15/24/2 11/19/2
f 20/25/4 24/26/4 22/27/4 18/21/4
f 16/16/4 20/25/4 18/21/4 14/20/4
f 13/23/2 17/22/2 19/28/2 15/24/2
f 15/15/11 19/29/11 20/25/11 16/16/11
f 23/30/12 27/31/12 28/32/12 24/26/12
f 17/22/2 21/33/2 23/34/2 19/28/2
f 19/29/13 23/30/13 24/26/13 20/25/13
f 18/21/14 22/27/14 21/33/14 17/22/14
f 28/32/4 32/35/4 30/36/4 26/37/4
f 22/27/15 26/37/15 25/38/15 21/33/15
f 24/26/4 28/32/4 26/37/4 22/27/4
f 21/33/2 25/38/2 27/39/2 23/34/2
f 29/40/2 33/41/2 35/42/2 31/43/2
f 25/38/2 29/40/2 31/43/2 27/39/2
f 27/31/16 31/44/16 32/35/16 28/32/16
f 26/37/17 30/36/17 29/40/17 25/38/17
f 33/45/18 34/46/18 36/47/18 35/48/18
f 31/44/19 35/48/19 36/47/19 32/35/19
f 30/36/20 34/49/20 33/41/20 29/40/20
f 32/35/4 36/47/4 34/49/4 30/36/4
f 53/50/2 56/51/2 57/52/2
f 60/53/21 64/54/21 63/55/21 59/56/21
f 46/57/4 47/58/4 43/59/4 42/60/4
f 39/61/22 40/62/22 41/63/22 42/64/22
f 43/65/23 47/66/23 48/67/23 44/68/23
f 37/69/24 43/65/24 44/68/24 38/70/24
f 51/71/4 50/72/4 54/73/4 55/74/4
f 45/75/25 49/76/25 50/77/25 46/78/25
f 41/63/26 45/75/26 46/78/26 42/64/26
f 41/79/2 44/80/2 48/81/2 45/82/2
f 47/66/27 51/83/27 52/84/27 48/67/27
f 51/83/28 55/85/28 56/86/28 52/84/28
f 49/76/29 53/87/29 54/88/29 50/77/29
f 53/87/30 57/89/30 58/90/30 54/88/30
f 55/85/31 58/91/31 57/92/31 56/86/31
f 62/93/4 64/94/4 60/95/4 37/69/4
f 37/69/4 60/95/4 39/96/4 42/60/4 43/59/4
f 45/82/2 48/81/2 52/97/2 49/98/2
f 61/99/2 38/70/2 59/100/2 63/101/2
f 40/62/32 39/61/32 60/53/32 59/56/32
f 41/79/2 40/102/2 59/100/2 38/70/2 44/80/2
f 63/55/32 64/54/32 62/103/32 61/104/32
f 37/69/33 38/70/33 61/99/33 62/93/33
f 49/98/2 52/97/2 56/51/2 53/50/2
f 55/74/4 54/73/4 58/105/4
f 51/71/4 47/58/4 46/57/4 50/72/4
o Cube.000_Cube.001
v 0.007269 0.246171 0.238034
v 0.007269 0.290407 0.283064
v -0.023928 0.246171 0.238034
v -0.023928 0.290407 0.283064
v 0.007269 0.268587 0.216337
v 0.007269 0.312823 0.261367
v -0.023928 0.268587 0.216337
v -0.023928 0.312823 0.261367
v -0.023928 0.160027 0.148452
v 0.007269 0.160027 0.148452
v -0.023928 0.176940 0.122238
v 0.007269 0.176940 0.122238
v -0.023928 0.040050 0.070799
v 0.007269 0.040050 0.070799
v -0.023928 0.052482 0.042186
v 0.007269 0.052482 0.042186
v -0.023928 -0.048748 0.028384
v 0.007269 -0.048748 0.028384
v -0.023928 -0.028437 0.004704
v 0.007269 -0.028437 0.004704
v -0.023928 -0.116940 -0.030820
v 0.007269 -0.116940 -0.030820
v -0.023928 -0.091143 -0.048363
v 0.007269 -0.091143 -0.048363
v -0.023928 -0.184345 -0.130172
v 0.007269 -0.184345 -0.130172
v -0.023928 -0.156498 -0.144235
v 0.007269 -0.156498 -0.144235
v -0.023928 -0.273318 -0.321086
v 0.007269 -0.273318 -0.321086
v -0.023928 -0.245470 -0.335150
v 0.007269 -0.245470 -0.335150
v -0.023928 -0.302292 -0.406099
v 0.007269 -0.302292 -0.406099
v -0.023928 -0.274445 -0.420162
v 0.007269 -0.274445 -0.420162
v 0.003171 0.184997 0.365486
v -0.019830 0.184997 0.365486
v 0.003171 0.187690 0.219724
v -0.019830 0.187690 0.219724
v -0.019830 0.019367 0.377811
v 0.003171 0.019367 0.377811
v 0.003171 0.065475 0.457240
v -0.019830 0.065475 0.457240
v -0.019830 -0.096417 0.444199
v 0.003171 -0.096417 0.444199
v 0.003171 -0.055558 0.514588
v -0.019830 -0.055558 0.514588
v -0.019830 -0.236124 0.491925
v 0.003171 -0.236124 0.491925
v 0.003171 -0.204812 0.545866
v -0.019830 -0.204812 0.545866
v -0.019830 -0.324327 0.511457
v 0.003171 -0.324327 0.511457
v 0.003171 -0.321871 0.528689
v -0.019830 -0.321871 0.528689
v -0.019830 -0.362502 0.511504
v 0.003171 -0.362502 0.511504
v -0.019830 0.223457 0.256838
v 0.003171 0.223457 0.256838
v -0.019830 0.353159 0.203119
v 0.003171 0.353159 0.203119
v -0.019830 0.317392 0.166005
v 0.003171 0.317392 0.166005
vt 0.902308 0.885736
vt 0.902308 0.946408
vt 0.872323 0.946408
vt 0.872323 0.885736
vt 0.847385 0.946408
vt 0.847385 0.885736
vt 0.961988 0.885736
vt 0.961988 0.946408
vt 0.927247 0.946408
vt 0.927247 0.885736
vt 0.927247 0.762884
vt 0.961988 0.762884
vt 0.872323 0.982931
vt 0.902308 0.982931
vt 0.927247 0.623087
vt 0.961988 0.623087
vt 0.902308 0.762884
vt 0.847385 0.762884
vt 0.872323 0.762884
vt 0.902308 0.623087
vt 0.872323 0.623087
vt 0.872323 0.532937
vt 0.902308 0.532937
vt 0.847385 0.623087
vt 0.927247 0.532937
vt 0.902308 0.450059
vt 0.927247 0.450059
vt 0.847385 0.532937
vt 0.961988 0.532937
vt 0.961988 0.450059
vt 0.927247 0.336601
vt 0.961988 0.336601
vt 0.847385 0.450059
vt 0.872323 0.450059
vt 0.902308 0.336601
vt 0.902308 0.134155
vt 0.927247 0.134155
vt 0.872323 0.336601
vt 0.847385 0.336601
vt 0.872323 0.134155
vt 0.847385 0.134155
vt 0.847385 0.047829
vt 0.872323 0.047829
vt 0.961988 0.134155
vt 0.961988 0.015765
vt 0.961988 0.047829
vt 0.927247 0.047829
vt 0.927247 0.015765
vt 0.902308 0.047829
vt 0.758613 0.816489
vt 0.785282 0.844177
vt 0.744411 0.826763
vt 0.085589 0.771398
vt 0.117459 0.771398
vt 0.117459 0.902981
vt 0.085589 0.902981
vt 0.336423 0.604341
vt 0.369316 0.474027
vt 0.459108 0.496183
vt 0.415995 0.623975
vt 0.085589 0.719494
vt 0.085589 0.486959
vt 0.117458 0.486959
vt 0.117459 0.719494
vt 0.476239 0.497152
vt 0.508108 0.497152
vt 0.508108 0.632019
vt 0.476239 0.632019
vt 0.476239 0.345419
vt 0.508108 0.345419
vt 0.334256 0.753978
vt 0.239935 0.826764
vt 0.225734 0.816490
vt 0.273278 0.738931
vt 0.117459 0.352558
vt 0.085589 0.352558
vt 0.085589 0.203892
vt 0.117459 0.203892
vt 0.615031 0.474027
vt 0.647924 0.604341
vt 0.568352 0.623975
vt 0.525239 0.496183
vt 0.508109 0.785581
vt 0.476239 0.785581
vt 0.508109 0.904719
vt 0.476239 0.904719
vt 0.085590 0.112921
vt 0.117459 0.112921
vt 0.085590 0.074478
vt 0.117459 0.074478
vt 0.508109 0.949144
vt 0.476239 0.949144
vt 0.476238 0.110028
vt 0.424433 0.241563
vt 0.424335 0.109979
vt 0.372529 0.241514
vt 0.711069 0.738931
vt 0.650091 0.753977
vt 0.508108 0.110028
vt 0.560012 0.109979
vt 0.559914 0.241563
vt 0.611818 0.241514
vt 0.117459 0.954885
vt 0.085589 0.954885
vt 0.199065 0.844178
vn 0.0000 -0.7134 0.7008
vn -1.0000 -0.0000 -0.0000
vn 0.0000 0.7134 -0.7008
vn 1.0000 0.0000 -0.0000
vn 0.0000 0.7164 -0.6977
vn 0.0000 0.6955 0.7185
vn 0.0000 0.5410 -0.8410
vn -0.0000 -0.7208 0.6931
vn 0.0000 -0.4310 0.9023
vn 0.0000 -0.5434 0.8395
vn 0.0000 0.4203 -0.9074
vn 0.0000 0.8263 -0.5633
vn 0.0000 0.6460 -0.7633
vn 0.0000 -0.6556 0.7551
vn 0.0000 -0.8275 0.5614
vn 0.0000 0.9064 -0.4224
vn 0.0000 -0.9064 0.4224
vn 0.0000 -0.4508 -0.8926
vn 0.0000 0.9465 -0.3226
vn 0.0000 -0.9465 0.3226
vn 0.0000 -0.6951 -0.7189
vn 0.0000 -0.6846 -0.7289
vn 0.0000 0.4282 0.9037
vn 0.0000 0.6089 0.7932
vn 0.0000 -0.3233 -0.9463
vn 0.0000 -0.4974 -0.8675
vn 0.0000 0.2051 0.9787
vn 0.0000 -0.1452 0.9894
vn 0.0000 -0.2162 -0.9763
vn 0.0000 -0.0012 -1.0000
vn 0.0000 -0.3896 0.9210
vn 0.0000 0.7201 -0.6939
vn 0.0000 0.6946 0.7194
usemtl None_Untitled.003
s off
f 65/106/34 66/107/34 68/108/34 67/109/34
f 67/109/35 68/108/35 72/110/35 71/111/35
f 71/112/36 72/113/36 70/114/36 69/115/36
f 69/115/37 70/114/37 66/107/37 65/106/37
f 71/112/38 69/115/38 76/116/38 75/117/38
f 72/118/39 68/108/39 66/107/39 70/119/39
f 75/117/40 76/116/40 80/120/40 79/121/40
f 69/115/37 65/106/37 74/122/37 76/116/37
f 67/109/35 71/111/35 75/123/35 73/124/35
f 65/106/41 67/109/41 73/124/41 74/122/41
f 78/125/42 77/126/42 81/127/42 82/128/42
f 74/122/43 73/124/43 77/126/43 78/125/43
f 76/116/37 74/122/37 78/125/37 80/120/37
f 73/124/35 75/123/35 79/129/35 77/126/35
f 84/130/37 82/128/37 86/131/37 88/132/37
f 80/120/37 78/125/37 82/128/37 84/130/37
f 77/126/35 79/129/35 83/133/35 81/127/35
f 79/121/44 80/120/44 84/130/44 83/134/44
f 87/135/45 88/132/45 92/136/45 91/137/45
f 81/127/35 83/133/35 87/138/35 85/139/35
f 83/134/46 84/130/46 88/132/46 87/135/46
f 82/128/47 81/127/47 85/139/47 86/131/47
f 92/136/37 90/140/37 94/141/37 96/142/37
f 86/131/48 85/139/48 89/143/48 90/140/48
f 88/132/37 86/131/37 90/140/37 92/136/37
f 85/139/35 87/138/35 91/144/35 89/143/35
f 93/145/35 95/146/35 99/147/35 97/148/35
f 89/143/35 91/144/35 95/146/35 93/145/35
f 91/137/49 92/136/49 96/142/49 95/149/49
f 90/140/50 89/143/50 93/145/50 94/141/50
f 97/150/51 99/151/51 100/152/51 98/153/51
f 95/149/52 96/142/52 100/152/52 99/151/52
f 94/141/53 93/145/53 97/148/53 98/154/53
f 96/142/37 94/141/37 98/154/37 100/152/37
f 117/155/35 121/156/35 120/157/35
f 124/158/54 123/159/54 127/160/54 128/161/54
f 110/162/37 106/163/37 107/164/37 111/165/37
f 103/166/55 106/167/55 105/168/55 104/169/55
f 107/170/56 108/171/56 112/172/56 111/173/56
f 101/174/57 102/175/57 108/171/57 107/170/57
f 115/176/37 119/177/37 118/178/37 114/179/37
f 109/180/58 110/181/58 114/182/58 113/183/58
f 105/168/59 106/167/59 110/181/59 109/180/59
f 105/184/35 109/185/35 112/186/35 108/187/35
f 111/173/60 112/172/60 116/188/60 115/189/60
f 115/189/61 116/188/61 120/190/61 119/191/61
f 113/183/62 114/182/62 118/192/62 117/193/62
f 117/193/63 118/192/63 122/194/63 121/195/63
f 119/191/64 120/190/64 121/196/64 122/197/64
f 126/198/37 101/174/37 124/199/37 128/200/37
f 101/174/37 107/164/37 106/163/37 103/201/37 124/199/37
f 109/185/35 113/202/35 116/203/35 112/186/35
f 125/204/35 127/205/35 123/206/35 102/175/35
f 104/169/65 123/159/65 124/158/65 103/166/65
f 105/184/35 108/187/35 102/175/35 123/206/35 104/207/35
f 127/160/65 125/208/65 126/209/65 128/161/65
f 101/174/66 126/198/66 125/204/66 102/175/66
f 113/202/35 117/155/35 120/157/35 116/203/35
f 119/177/37 122/210/37 118/178/37
f 115/176/37 114/179/37 110/162/37 111/165/37
