# Blender v2.91.2 OBJ File: 'body_107.blend'
# www.blender.org
mtllib body_107.mtl
o Cube_Cube.001
v 0.664910 0.243780 1.276132
v 0.664910 2.723480 1.276132
v 0.664910 3.915534 1.104040
v 0.664910 3.636998 1.100451
v 0.664910 3.286484 1.113814
v 0.664910 2.963447 1.167875
v 0.664910 3.915534 0.871060
v 0.664910 3.349745 0.799869
v 0.664910 2.718752 0.121041
v 0.664910 3.108274 0.715405
v 0.664910 2.903566 0.567220
v 0.664910 2.766784 0.362512
v -0.664910 0.243780 1.276132
v -0.664910 2.723480 1.276132
v -0.664910 3.915534 1.104040
v -0.664910 3.636998 1.100451
v -0.664910 3.286484 1.113814
v -0.664910 2.963447 1.167875
v -0.664910 3.915534 0.871060
v -0.664910 3.349745 0.799869
v -0.664910 2.718752 0.121041
v -0.664910 3.108274 0.715405
v -0.664910 2.903566 0.567220
v -0.664910 2.766784 0.362512
v 0.664910 0.243780 -1.276132
v 0.664910 2.723480 -1.276132
v 0.664910 3.915534 -1.104040
v 0.664910 3.636998 -1.100451
v 0.664910 3.286484 -1.113814
v 0.664910 2.963447 -1.167875
v 0.664910 3.915534 -0.871060
v 0.664910 3.349745 -0.799869
v 0.664910 2.718752 -0.121041
v 0.664910 3.108274 -0.715405
v 0.664910 2.903566 -0.567220
v 0.664910 2.766784 -0.362512
v -0.664910 0.243780 -1.276132
v -0.664910 2.723480 -1.276132
v -0.664910 3.915534 -1.104040
v -0.664910 3.636998 -1.100451
v -0.664910 3.286484 -1.113814
v -0.664910 2.963447 -1.167875
v -0.664910 3.915534 -0.871060
v -0.664910 3.349745 -0.799869
v -0.664910 2.718752 -0.121041
v -0.664910 3.108274 -0.715405
v -0.664910 2.903566 -0.567220
v -0.664910 2.766784 -0.362512
v 0.664910 2.723480 1.276132
v 0.664910 2.723480 1.276132
v 0.664910 0.243780 1.276132
v 0.664910 3.915534 1.104040
v 0.664910 3.915534 1.104040
v 0.664910 3.915534 0.871060
v 0.664910 3.636998 1.100451
v 0.664910 3.286484 1.113814
v 0.664910 2.963447 1.167875
v -0.664910 2.723480 1.276132
v -0.664910 2.723480 1.276132
v -0.664910 0.243780 1.276132
v -0.664910 3.915534 1.104040
v -0.664910 3.915534 1.104040
v -0.664910 3.915534 0.871060
v -0.664910 3.636998 1.100451
v -0.664910 3.286484 1.113814
v -0.664910 2.963447 1.167875
v 0.664910 2.723480 -1.276132
v 0.664910 2.723480 -1.276132
v 0.664910 0.243780 -1.276132
v 0.664910 3.915534 -1.104040
v 0.664910 3.915534 -1.104040
v 0.664910 3.915534 -0.871060
v 0.664910 3.636998 -1.100451
v 0.664910 3.286484 -1.113814
v 0.664910 2.963447 -1.167875
v -0.664910 2.723480 -1.276132
v -0.664910 2.723480 -1.276132
v -0.664910 0.243780 -1.276132
v -0.664910 3.915534 -1.104040
v -0.664910 3.915534 -1.104040
v -0.664910 3.915534 -0.871060
v -0.664910 3.636998 -1.100451
v -0.664910 3.286484 -1.113814
v -0.664910 2.963447 -1.167875
vt 0.500609 0.562933
vt 0.337568 0.562933
vt 0.337569 0.258913
vt 0.500609 0.258913
vt 0.337568 0.635365
vt 0.500609 0.635365
vt 0.500609 0.678371
vt 0.337568 0.678371
vt 0.337568 0.741087
vt 0.337568 0.712523
vt 0.500609 0.712523
vt 0.500609 0.741087
vt 0.337568 0.595209
vt 0.500609 0.595209
vt 0.024652 0.258913
vt 0.337569 0.258913
vt 0.195950 0.562353
vt 0.166271 0.562353
vt 0.337568 0.562933
vt 0.500609 0.562933
vt 0.642227 0.562353
vt 0.612622 0.568242
vt 0.500609 0.258913
vt 0.500609 0.562933
vt 0.587524 0.585012
vt 0.500609 0.712523
vt 0.337568 0.712523
vt 0.569356 0.610110
vt 0.513882 0.592354
vt 0.520510 0.631959
vt 0.559001 0.639715
vt 0.522148 0.674933
vt 0.550272 0.709083
vt 0.521708 0.709083
vt 0.225555 0.568242
vt 0.337568 0.562933
vt 0.250653 0.585012
vt 0.268821 0.610110
vt 0.324296 0.592354
vt 0.317668 0.631959
vt 0.279177 0.639715
vt 0.316029 0.674933
vt 0.287905 0.709083
vt 0.316469 0.709083
vt 0.813526 0.258913
vt 0.976567 0.258913
vt 0.976567 0.562933
vt 0.813526 0.562933
vt 0.976567 0.635365
vt 0.976567 0.678371
vt 0.813526 0.678371
vt 0.813526 0.635365
vt 0.976567 0.741087
vt 0.813526 0.741087
vt 0.813526 0.712523
vt 0.976567 0.712523
vt 0.976567 0.595209
vt 0.813526 0.595209
vt 0.976567 0.562933
vt 0.813526 0.562933
vt 0.671908 0.562353
vt 0.813526 0.258913
vt 0.701513 0.568242
vt 0.813526 0.562933
vt 0.726611 0.585012
vt 0.976567 0.712523
vt 0.813526 0.712523
vt 0.744779 0.610110
vt 0.800253 0.592354
vt 0.793625 0.631959
vt 0.755134 0.639715
vt 0.791987 0.674933
vt 0.763863 0.709083
vt 0.792427 0.709083
vt 0.136665 0.568242
vt 0.024652 0.562933
vt 0.111567 0.585012
vt 0.093399 0.610110
vt 0.037925 0.592354
vt 0.044553 0.631959
vt 0.083044 0.639715
vt 0.046191 0.674933
vt 0.074316 0.709083
vt 0.045751 0.709083
vn 0.0000 0.0000 1.0000
vn 0.0000 0.1018 0.9948
vn 0.0000 0.0126 0.9999
vn 0.0000 1.0000 0.0000
vn 0.0000 0.2905 0.9568
vn -1.0000 0.0000 0.0000
vn 0.0000 0.4112 0.9115
vn 1.0000 0.0000 0.0000
vn 0.0000 -0.0129 0.9999
vn 0.0000 0.0000 -1.0000
vn 0.0000 0.1018 -0.9948
vn 0.0000 0.0126 -0.9999
vn 0.0000 0.2905 -0.9568
vn 0.0000 0.4112 -0.9115
vn 0.0000 -0.0129 -0.9999
usemtl None
s 1
f 49/1/1 58/2/1 60/3/1 51/4/1
f 65/5/2 56/6/2 55/7/3 64/8/3
f 63/9/4 61/10/4 52/11/4 54/12/4
f 66/13/5 57/14/5 56/6/2 65/5/2
f 37/15/6 13/16/6 21/17/6 45/18/6
f 14/19/7 2/20/7 57/14/5 66/13/5
f 9/21/8 12/22/8 1/23/8
f 50/24/8 1/23/8 12/22/8 11/25/8
f 53/26/9 62/27/9 64/8/3 55/7/3
f 10/28/8 6/29/8 50/24/8 11/25/8
f 6/29/8 10/28/8 5/30/8
f 10/28/8 8/31/8 5/30/8
f 4/32/8 5/30/8 8/31/8 7/33/8
f 7/33/8 3/34/8 4/32/8
f 21/17/6 13/16/6 24/35/6
f 59/36/6 23/37/6 24/35/6 13/16/6
f 22/38/6 23/37/6 59/36/6 18/39/6
f 18/39/6 17/40/6 22/38/6
f 22/38/6 17/40/6 20/41/6
f 16/42/6 19/43/6 20/41/6 17/40/6
f 19/43/6 16/42/6 15/44/6
f 25/45/10 78/46/10 76/47/10 67/48/10
f 83/49/11 82/50/12 73/51/12 74/52/11
f 81/53/4 72/54/4 70/55/4 79/56/4
f 84/57/13 83/49/11 74/52/11 75/58/13
f 38/59/14 84/57/13 75/58/13 26/60/14
f 33/61/8 69/62/8 36/63/8
f 68/64/8 35/65/8 36/63/8 69/62/8
f 73/51/12 82/50/12 80/66/15 71/67/15
f 34/68/8 35/65/8 68/64/8 30/69/8
f 30/69/8 29/70/8 34/68/8
f 34/68/8 29/70/8 32/71/8
f 28/72/8 31/73/8 32/71/8 29/70/8
f 69/62/8 33/61/8 9/21/8 1/23/8
f 31/73/8 28/72/8 27/74/8
f 45/18/6 48/75/6 37/15/6
f 77/76/6 37/15/6 48/75/6 47/77/6
f 46/78/6 42/79/6 77/76/6 47/77/6
f 42/79/6 46/78/6 41/80/6
f 46/78/6 44/81/6 41/80/6
f 40/82/6 41/80/6 44/81/6 43/83/6
f 43/83/6 39/84/6 40/82/6
