# Blender v2.79 (sub 0) OBJ File: 'body_67.blend'
# www.blender.org
mtllib body_67.mtl
o Cube.002_Cube.001
v -0.750000 -2.120000 1.400001
v -0.750000 1.920000 1.400001
v -0.750000 -2.120000 -1.399999
v -0.750000 1.920000 -1.399999
v 0.750000 -2.120000 1.400001
v 0.750000 1.920000 1.400001
v 0.750000 -2.120000 -1.399999
v 0.750000 1.920000 -1.399999
v -0.650000 1.920000 1.300001
v -0.650000 1.920000 -1.299999
v 0.650000 1.920000 -1.299999
v 0.650000 1.920000 1.300001
v 0.750000 1.820000 -1.299999
v 0.750000 -2.020000 -1.299999
v 0.750000 -2.020000 1.300001
v 0.750000 1.820000 1.300001
v -0.650000 -2.020000 1.400001
v -0.650000 1.820000 1.400001
v 0.650000 1.820000 1.400001
v 0.650000 -2.020000 1.400001
v -0.750000 -2.020000 -1.299999
v -0.750000 -2.020000 1.300001
v -0.750000 1.820000 1.300001
v -0.750000 1.820000 -1.299999
v -0.650000 1.820000 -1.399999
v -0.650000 -2.020000 -1.399999
v 0.650000 -2.020000 -1.399999
v 0.650000 1.820000 -1.399999
v 0.650000 1.820000 -1.299999
v 0.650000 -2.020000 -1.299999
v 0.650000 -2.020000 1.300001
v 0.650000 1.820000 1.300001
v -0.650000 -2.020000 1.300001
v -0.650000 1.820000 1.300001
v 0.650000 1.820000 1.300001
v 0.650000 -2.020000 1.300001
v -0.650000 -2.020000 -1.299999
v -0.650000 -2.020000 1.300001
v -0.650000 1.820000 1.300001
v -0.650000 1.820000 -1.299999
v -0.650000 1.820000 1.300001
v -0.650000 1.820000 -1.299999
v 0.650000 1.820000 -1.299999
v 0.650000 1.820000 1.300001
v -0.650000 1.820000 -1.299999
v -0.650000 -2.020000 -1.299999
v 0.650000 -2.020000 -1.299999
v 0.650000 1.820000 -1.299999
vt 0.794293 0.519115
vt 0.540770 0.519112
vt 0.549825 0.510058
vt 0.785239 0.510060
vt 0.404955 0.153319
vt 0.540772 0.153320
vt 0.531717 0.162375
vt 0.414010 0.162374
vt 0.151431 0.519111
vt 0.151431 0.153320
vt 0.160485 0.162374
vt 0.160486 0.510056
vt 0.015615 0.519111
vt 0.024670 0.510056
vt 0.142377 0.510056
vt 0.404955 0.017503
vt 0.151431 0.017503
vt 0.404953 0.654929
vt 0.151431 0.654927
vt 0.160485 0.645873
vt 0.395898 0.645874
vt 0.959338 0.462280
vt 0.841632 0.462280
vt 0.841632 0.453225
vt 0.959338 0.453225
vt 0.160486 0.528165
vt 0.404953 0.519112
vt 0.395899 0.528166
vt 0.673490 0.952300
vt 0.438077 0.952301
vt 0.438077 0.943247
vt 0.673490 0.943245
vt 0.395901 0.162374
vt 0.395899 0.510057
vt 0.392109 0.846180
vt 0.392109 0.963887
vt 0.383054 0.963887
vt 0.383055 0.846180
vt 0.142376 0.162374
vt 0.015615 0.153320
vt 0.024670 0.162374
vt 0.973328 0.595558
vt 0.973329 0.943245
vt 0.964275 0.943245
vt 0.964275 0.595558
vt 0.794297 0.153321
vt 0.785242 0.162376
vt 0.549826 0.162374
vt 0.393331 0.683568
vt 0.393331 0.801275
vt 0.384277 0.801275
vt 0.384277 0.683568
vt 0.414008 0.510057
vt 0.531715 0.510058
vt 0.673487 0.595557
vt 0.438074 0.595559
vt 0.682541 0.595557
vt 0.682545 0.943245
vt 0.429023 0.943247
vt 0.429020 0.595559
vt 0.438074 0.586505
vt 0.673487 0.586503
vt 0.035367 0.846179
vt 0.035366 0.963886
vt 0.035367 0.837125
vt 0.383055 0.837126
vt 0.026312 0.963886
vt 0.026312 0.846179
vt 0.383054 0.972941
vt 0.035366 0.972940
vt 0.728862 0.943245
vt 0.728861 0.595558
vt 0.964275 0.952300
vt 0.728862 0.952300
vt 0.728861 0.586503
vt 0.964275 0.586503
vt 0.719808 0.943245
vt 0.719807 0.595558
vt 0.841631 0.217812
vt 0.959338 0.217812
vt 0.841631 0.208758
vt 0.959338 0.208758
vt 0.832577 0.453225
vt 0.832577 0.217812
vt 0.968393 0.217812
vt 0.968393 0.453225
vt 0.036589 0.683566
vt 0.036589 0.801273
vt 0.036589 0.674513
vt 0.384277 0.674513
vt 0.384277 0.810328
vt 0.036589 0.810328
vt 0.027534 0.801273
vt 0.027535 0.683566
vn -1.0000 0.0000 0.0000
vn 0.0000 0.0000 -1.0000
vn 1.0000 0.0000 0.0000
vn 0.0000 0.0000 1.0000
vn 0.0000 -1.0000 0.0000
vn 0.0000 1.0000 0.0000
usemtl None
s off
f 2/1/1 4/2/1 24/3/1 23/4/1
f 7/5/2 3/6/2 26/7/2 27/8/2
f 6/9/3 5/10/3 15/11/3 16/12/3
f 6/9/4 2/13/4 18/14/4 19/15/4
f 3/16/5 7/5/5 5/10/5 1/17/5
f 4/18/6 2/19/6 9/20/6 10/21/6
f 9/22/2 12/23/2 44/24/2 41/25/2
f 2/19/6 6/9/6 12/26/6 9/20/6
f 8/27/6 4/18/6 10/21/6 11/28/6
f 6/9/6 8/27/6 11/28/6 12/26/6
f 13/29/5 16/30/5 32/31/5 29/32/5
f 5/10/3 7/5/3 14/33/3 15/11/3
f 8/27/3 6/9/3 16/12/3 13/34/3
f 7/5/3 8/27/3 13/34/3 14/33/3
f 19/35/5 18/36/5 34/37/5 35/38/5
f 5/10/4 6/9/4 19/15/4 20/39/4
f 2/13/4 1/40/4 17/41/4 18/14/4
f 1/40/4 5/10/4 20/39/4 17/41/4
f 22/42/2 23/43/2 39/44/2 38/45/2
f 3/6/1 1/46/1 22/47/1 21/48/1
f 4/2/1 3/6/1 21/48/1 24/3/1
f 1/46/1 2/1/1 23/4/1 22/47/1
f 25/49/5 28/50/5 48/51/5 45/52/5
f 4/2/2 8/27/2 28/53/2 25/54/2
f 3/6/2 4/2/2 25/54/2 26/7/2
f 8/27/2 7/5/2 27/8/2 28/53/2
f 30/55/3 29/32/3 32/31/3 31/56/3
f 14/57/4 13/58/4 29/32/4 30/55/4
f 16/59/2 15/60/2 31/56/2 32/31/2
f 15/61/6 14/62/6 30/55/6 31/56/6
f 36/63/4 35/38/4 34/37/4 33/64/4
f 20/65/1 19/66/1 35/38/1 36/63/1
f 17/67/6 20/68/6 36/63/6 33/64/6
f 18/69/3 17/70/3 33/64/3 34/37/3
f 38/45/1 39/44/1 40/71/1 37/72/1
f 23/73/5 24/74/5 40/71/5 39/44/5
f 21/75/6 22/76/6 38/45/6 37/72/6
f 24/77/4 21/78/4 37/72/4 40/71/4
f 43/79/6 42/80/6 41/25/6 44/24/6
f 11/81/4 10/82/4 42/80/4 43/79/4
f 12/83/1 11/84/1 43/79/1 44/24/1
f 10/85/3 9/86/3 41/25/3 42/80/3
f 46/87/2 45/52/2 48/51/2 47/88/2
f 26/89/3 25/90/3 45/52/3 46/87/3
f 28/91/1 27/92/1 47/88/1 48/51/1
f 27/93/6 26/94/6 46/87/6 47/88/6
