# Blender v2.79 (sub 0) OBJ File: 'Basket.blend'
# www.blender.org
mtllib body_10.mtl
o Cube_Cube.005
v -0.016975 0.074099 0.280625
v -0.016975 0.807731 0.280625
v -0.016975 0.074099 0.193071
v -0.016975 0.807731 0.193071
v 0.411893 0.074099 0.280625
v 0.411893 0.807731 0.280625
v 0.411893 0.074099 0.193071
v 0.411893 0.807731 0.193071
v -0.016975 0.181316 0.280625
v -0.016975 0.700514 0.280625
v -0.016975 0.700514 0.193071
v -0.016975 0.181316 0.193071
v 0.304676 0.181316 0.280625
v 0.304676 0.700514 0.280625
v 0.304676 0.181316 0.193071
v 0.304676 0.700514 0.193071
v -0.016975 0.074099 -0.280625
v -0.016975 0.807731 -0.280625
v -0.016975 0.074099 -0.193071
v -0.016975 0.807731 -0.193071
v 0.411893 0.074099 -0.280625
v 0.411893 0.807731 -0.280625
v 0.411893 0.074099 -0.193071
v 0.411893 0.807731 -0.193071
v -0.016975 0.181316 -0.280625
v -0.016975 0.700514 -0.280625
v -0.016975 0.700514 -0.193071
v -0.016975 0.181316 -0.193071
v 0.304676 0.181316 -0.280625
v 0.304676 0.700514 -0.280625
v 0.304676 0.181316 -0.193071
v 0.304676 0.700514 -0.193071
v -0.559687 0.000001 0.384556
v -0.559687 0.891261 0.384556
v -0.559687 0.000001 -0.384556
v -0.559687 0.891261 -0.384556
v -0.005403 0.000001 0.384556
v -0.005403 0.891261 0.384556
v -0.005403 0.000001 -0.384556
v -0.005403 0.891261 -0.384556
v -0.084586 0.891261 0.274683
v -0.480503 0.891261 0.274683
v -0.084586 0.891261 -0.274683
v -0.480503 0.891261 -0.274683
v -0.084586 0.633143 0.274683
v -0.480503 0.633144 0.274683
v -0.084586 0.633143 -0.274683
v -0.480503 0.633144 -0.274683
vt 0.845390 0.777278
vt 0.804933 0.817735
vt 0.804932 0.540909
vt 0.845389 0.581366
vt 0.771895 0.379082
vt 0.804932 0.379082
vt 0.771895 0.540909
vt 0.731438 0.581366
vt 0.771896 0.817735
vt 0.731439 0.777279
vt 0.804933 0.979563
vt 0.771896 0.979563
vt 0.966760 0.817735
vt 0.966760 0.777278
vt 0.610069 0.817736
vt 0.610069 0.777279
vt 0.610068 0.540910
vt 0.610068 0.581367
vt 0.966759 0.540909
vt 0.966759 0.581366
vt 0.836635 0.160007
vt 0.871786 0.160007
vt 0.871786 0.368455
vt 0.836635 0.368455
vt 0.871786 0.497591
vt 0.836635 0.497591
vt 0.836635 0.030870
vt 0.871786 0.030870
vt 0.731438 0.777279
vt 0.731438 0.581367
vt 0.771895 0.540910
vt 0.771895 0.817736
vt 0.804932 0.379082
vt 0.804932 0.540910
vt 0.771895 0.379082
vt 0.845389 0.581366
vt 0.845389 0.777279
vt 0.804932 0.817736
vt 0.804932 0.979563
vt 0.771895 0.979563
vt 0.610068 0.817736
vt 0.610068 0.777279
vt 0.966759 0.817736
vt 0.966759 0.777279
vt 0.966759 0.540910
vt 0.966759 0.581366
vt 0.610068 0.540910
vt 0.610068 0.581367
vt 0.871786 0.160007
vt 0.871786 0.368455
vt 0.836635 0.368455
vt 0.836635 0.160007
vt 0.836635 0.497591
vt 0.871786 0.497591
vt 0.836635 0.030870
vt 0.871786 0.030870
vt 0.233805 0.696055
vt 0.546252 0.696055
vt 0.546252 0.965681
vt 0.233805 0.965681
vt 0.233805 0.501742
vt 0.546252 0.501742
vt 0.546252 0.232117
vt 0.740565 0.232117
vt 0.740565 0.501742
vt 0.233805 0.232117
vt 0.191668 0.539405
vt 0.191637 0.629148
vt 0.133130 0.629127
vt 0.133161 0.539385
vt 0.067250 0.463224
vt 0.206046 0.463224
vt 0.039491 0.501742
vt 0.191563 0.843414
vt 0.191520 0.967939
vt 0.133013 0.967919
vt 0.133056 0.843394
vt 0.233805 0.037803
vt 0.546252 0.037803
vt 0.133087 0.753652
vt 0.191594 0.753672
vt 0.039491 0.232117
vt 0.067250 0.270635
vt 0.043387 0.629096
vt 0.043344 0.753621
vt 0.206046 0.270635
vn -0.0000 0.0000 1.0000
vn 0.0000 1.0000 0.0000
vn -0.0000 0.0000 -1.0000
vn 0.0000 -1.0000 0.0000
vn 1.0000 0.0000 0.0000
vn -1.0000 0.0000 0.0000
usemtl Material
s off
f 13/1/1 5/2/1 6/3/1 14/4/1
f 4/5/2 2/6/2 6/3/2 8/7/2
f 16/8/3 8/7/3 7/9/3 15/10/3
f 7/9/4 5/2/4 1/11/4 3/12/4
f 1/13/1 5/2/1 13/1/1 9/14/1
f 3/15/3 12/16/3 15/10/3 7/9/3
f 4/17/3 8/7/3 16/8/3 11/18/3
f 7/9/5 8/7/5 6/3/5 5/2/5
f 2/19/1 10/20/1 14/4/1 6/3/1
f 15/21/6 13/22/6 14/23/6 16/24/6
f 10/25/4 11/26/4 16/24/4 14/23/4
f 15/21/2 12/27/2 9/28/2 13/22/2
f 29/29/3 30/30/3 22/31/3 21/32/3
f 20/33/2 24/34/2 22/31/2 18/35/2
f 32/36/1 31/37/1 23/38/1 24/34/1
f 23/38/4 19/39/4 17/40/4 21/32/4
f 17/41/3 25/42/3 29/29/3 21/32/3
f 19/43/1 23/38/1 31/37/1 28/44/1
f 20/45/1 27/46/1 32/36/1 24/34/1
f 23/38/5 21/32/5 22/31/5 24/34/5
f 18/47/3 22/31/3 30/30/3 26/48/3
f 31/49/6 32/50/6 30/51/6 29/52/6
f 26/53/4 30/51/4 32/50/4 27/54/4
f 31/49/2 29/52/2 25/55/2 28/56/2
f 36/57/6 35/58/6 33/59/6 34/60/6
f 35/58/3 36/57/3 40/61/3 39/62/3
f 39/62/4 37/63/4 33/64/4 35/65/4
f 38/66/5 37/63/5 39/62/5 40/61/5
f 43/67/1 44/68/1 48/69/1 47/70/1
f 44/71/2 43/72/2 40/61/2 36/73/2
f 41/74/6 43/75/6 47/76/6 45/77/6
f 37/63/1 38/66/1 34/78/1 33/79/1
f 41/74/3 45/77/3 46/80/3 42/81/3
f 36/73/2 34/82/2 42/83/2 44/71/2
f 42/81/5 46/80/5 48/69/5 44/68/5
f 47/84/2 48/69/2 46/80/2 45/85/2
f 38/66/2 40/61/2 43/72/2 41/86/2
f 34/82/2 38/66/2 41/86/2 42/83/2
