# Blender v2.79 (sub 0) OBJ File: 'body_61.blend'
# www.blender.org
mtllib body_61.mtl
o Cube.011_Cube.001
v 0.147109 -0.588269 0.238556
v 0.147109 0.159950 0.238556
v 0.147109 -0.588269 -0.238556
v 0.147109 0.159950 -0.238556
v 0.147109 0.159950 -0.154580
v 0.147109 0.159950 0.154580
v 0.147109 0.396018 0.238556
v 0.147109 0.396018 -0.238556
v 0.147109 0.396018 -0.154580
v 0.147109 0.396018 0.154580
v -0.147638 0.396018 0.238556
v -0.147638 0.396018 -0.238556
v 0.118124 0.159950 0.238556
v 0.118124 -0.588269 0.238556
v 0.118124 -0.588269 -0.238556
v 0.118124 0.159950 -0.238556
v 0.118124 0.159950 -0.154580
v 0.118124 0.159950 0.154580
v 0.118124 0.374351 0.154580
v 0.118124 0.374351 0.238556
v -0.147638 0.374351 0.238556
v 0.118124 0.374351 -0.154580
v 0.118124 0.374351 -0.238556
v -0.147638 0.374351 -0.238556
v -0.080044 0.396018 -0.154580
v -0.080044 0.374351 -0.154580
v -0.080044 0.396018 0.154580
v -0.080044 0.374351 0.154580
vt 0.349893 0.903797
vt 0.349893 0.919592
vt 0.124521 0.919592
vt 0.124521 0.903797
vt 0.411111 0.968867
vt 0.349893 0.754000
vt 0.411111 0.754000
vt 0.411111 0.036468
vt 0.349894 0.581910
vt 0.124520 0.581910
vt 0.063302 0.036468
vt 0.063303 0.581910
vt 0.411111 0.581910
vt 0.558214 0.746529
vt 0.558268 0.590234
vt 0.619485 0.590255
vt 0.619432 0.746550
vt 0.558455 0.044792
vt 0.906264 0.044912
vt 0.844859 0.590332
vt 0.672045 0.963782
vt 0.672045 0.979577
vt 0.506452 0.979577
vt 0.527582 0.963782
vt 0.906022 0.746648
vt 0.844805 0.746627
vt 0.906076 0.590353
vt 0.905955 0.940385
vt 0.844755 0.891089
vt 0.063302 0.015338
vt 0.411111 0.015338
vt 0.124521 0.754000
vt 0.063303 0.754000
vt 0.349894 0.603040
vt 0.124520 0.603040
vt 0.432241 0.036468
vt 0.432241 0.581910
vt 0.042173 0.581910
vt 0.042172 0.036468
vt 0.957200 0.809257
vt 0.957200 0.981347
vt 0.936070 0.965553
vt 0.936070 0.809257
vt 0.506452 0.807487
vt 0.527582 0.807487
vt 0.063303 0.968867
vt 0.047508 0.968867
vt 0.047508 0.775130
vt 0.432241 0.738205
vt 0.619382 0.891011
vt 0.558148 0.940265
vt 0.042173 0.738206
vt 0.791608 0.981348
vt 0.791608 0.965552
vt 0.426906 0.775130
vt 0.426906 0.968867
vt 0.411111 0.984662
vt 0.063303 0.984662
vn 1.0000 0.0000 -0.0000
vn 0.0000 1.0000 0.0000
vn -1.0000 0.0000 0.0000
vn 0.0000 0.0000 -1.0000
vn 0.0000 -1.0000 0.0000
vn 0.0000 0.0000 1.0000
usemtl None
s off
f 26/1/1 25/2/1 27/3/1 28/4/1
f 12/5/2 25/2/2 9/6/2 8/7/2
f 3/8/1 5/9/1 6/10/1 1/11/1
f 1/11/1 6/10/1 2/12/1
f 5/9/1 4/13/1 8/7/1 9/6/1
f 23/14/3 16/15/3 17/16/3 22/17/3
f 15/18/3 14/19/3 18/20/3 17/16/3
f 28/21/4 27/22/4 10/23/4 19/24/4
f 20/25/3 19/26/3 18/20/3 13/27/3
f 21/28/5 28/29/5 19/26/5 20/25/5
f 3/8/5 1/11/5 14/30/5 15/31/5
f 2/12/1 6/10/1 10/32/1 7/33/1
f 6/10/2 5/9/2 17/34/2 18/35/2
f 3/8/4 15/36/4 16/37/4 4/13/4
f 5/9/1 3/8/1 4/13/1
f 1/11/6 2/12/6 13/38/6 14/39/6
f 15/18/3 17/16/3 16/15/3
f 5/40/6 9/41/6 22/42/6 17/43/6
f 14/19/3 13/27/3 18/20/3
f 19/24/4 10/23/4 6/44/4 18/45/4
f 11/46/6 21/47/6 20/48/6 7/33/6
f 23/49/4 8/7/4 4/13/4 16/37/4
f 26/50/5 24/51/5 23/14/5 22/17/5
f 2/12/6 7/33/6 20/52/6 13/38/6
f 22/42/6 9/41/6 25/53/6 26/54/6
f 8/7/4 23/55/4 24/56/4 12/5/4
f 27/3/2 11/46/2 7/33/2 10/32/2
f 25/2/2 12/5/2 11/46/2 27/3/2
f 24/57/3 21/58/3 11/46/3 12/5/3
f 28/29/5 21/28/5 24/51/5 26/50/5
