# Blender v2.79 (sub 0) OBJ File: 'body_79.blend'
# www.blender.org
mtllib body_79.mtl
o Body_16_Plane.001
v 0.016705 -1.920000 -4.357915
v 0.016706 -1.920000 4.357915
v 0.016702 6.668419 -4.357915
v 0.016703 6.668419 4.357915
v -0.822116 -1.920001 -2.787011
v -1.537358 -1.920001 -1.277015
v -1.840000 -1.920001 -0.000000
v -1.537358 -1.920001 1.277015
v -0.822116 -1.920001 2.787011
v -0.822118 6.668418 2.787011
v -1.537360 6.668417 1.277015
v -1.840003 6.668417 0.000000
v -1.537361 6.668417 -1.277015
v -0.822119 6.668418 -2.787011
vt 0.370414 0.065746
vt 0.370413 0.913777
vt 0.205434 0.913777
vt 0.205434 0.065746
vt 0.500000 0.065746
vt 0.500000 0.913777
vt 0.629587 0.065746
vt 0.629587 0.913777
vt 0.794566 0.065746
vt 0.794567 0.913777
vt 0.970408 0.065746
vt 0.970408 0.913777
vt 0.029592 0.065746
vt 0.029592 0.913777
vn 0.9436 0.0000 -0.3312
vn 0.8932 0.0000 -0.4497
vn 1.0000 0.0000 0.0000
vn 0.9436 0.0000 0.3312
vn 0.8932 0.0000 0.4497
vn 0.8821 0.0000 0.4710
vn 0.8821 0.0000 -0.4710
usemtl None
s 1
f 8/1/1 11/2/1 10/3/2 9/4/2
f 7/5/3 12/6/3 11/2/1 8/1/1
f 6/7/4 13/8/4 12/6/3 7/5/3
f 5/9/5 14/10/5 13/8/4 6/7/4
f 5/9/5 1/11/6 3/12/6 14/10/5
f 2/13/7 9/4/2 10/3/2 4/14/7
