# Blender v2.79 (sub 0) OBJ File: 'body_76.blend'
# www.blender.org
mtllib body_76.mtl
o Body_11_Cube.009
v 0.889251 1.920000 0.997046
v 0.593125 2.181838 0.997046
v 0.866710 2.020201 0.997046
v 0.802518 2.105147 0.997046
v 0.706447 2.161906 0.997046
v 0.650000 -1.844319 1.243560
v 0.889251 -1.700514 1.097324
v 0.889251 1.776194 1.097324
v 0.829531 -1.700514 1.097324
v 0.829531 1.776194 1.097324
v 0.650000 1.920000 0.997046
v 0.650000 1.919999 1.243560
v 0.593125 2.181838 1.176615
v 0.608049 2.113130 1.243560
v 0.691635 2.098429 1.243560
v 0.706447 2.161906 1.176615
v 0.762496 2.056563 1.243560
v 0.802518 2.105147 1.176615
v 0.809844 1.993907 1.243560
v 0.866710 2.020201 1.176615
v 0.826470 -1.844319 1.243560
v 0.889251 -1.778487 1.176615
v 0.889251 1.919999 1.176615
v 0.826470 1.919999 1.243560
v -0.889251 1.920000 0.997046
v -0.593125 2.181838 0.997046
v -0.866710 2.020201 0.997046
v -0.802518 2.105147 0.997046
v -0.706447 2.161906 0.997046
v -0.650000 -1.844319 1.243560
v -0.889251 -1.700514 1.097324
v -0.889251 1.776194 1.097324
v -0.829531 -1.700514 1.097324
v -0.829531 1.776194 1.097324
v -0.650000 1.920000 0.997046
v -0.650000 1.919999 1.243560
v -0.593125 2.181838 1.176615
v -0.608049 2.113130 1.243560
v -0.691635 2.098429 1.243560
v -0.706447 2.161906 1.176615
v -0.762496 2.056563 1.243560
v -0.802518 2.105147 1.176615
v -0.809844 1.993907 1.243560
v -0.866710 2.020201 1.176615
v -0.826470 -1.844319 1.243560
v -0.889251 -1.778487 1.176615
v -0.889251 1.919999 1.176615
v -0.826470 1.919999 1.243560
v 0.889251 1.920000 -0.997046
v 0.593125 2.181838 -0.997046
v 0.866710 2.020201 -0.997046
v 0.802518 2.105147 -0.997046
v 0.706447 2.161906 -0.997046
v 0.650000 -1.844319 -1.243560
v 0.889251 -1.700514 -1.097324
v 0.889251 1.776194 -1.097324
v 0.829531 -1.700514 -1.097324
v 0.829531 1.776194 -1.097324
v 0.650000 1.919999 -1.243560
v 0.650000 1.920000 -0.997046
v 0.593125 2.181838 -1.176615
v 0.608049 2.113130 -1.243560
v 0.691635 2.098429 -1.243560
v 0.706447 2.161906 -1.176615
v 0.762496 2.056563 -1.243560
v 0.802518 2.105147 -1.176615
v 0.809844 1.993907 -1.243560
v 0.866710 2.020201 -1.176615
v 0.826470 -1.844319 -1.243560
v 0.889251 -1.778487 -1.176615
v 0.889251 1.919999 -1.176615
v 0.826470 1.919999 -1.243560
v -0.889251 1.920000 -0.997046
v -0.593125 2.181838 -0.997046
v -0.866710 2.020201 -0.997046
v -0.802518 2.105147 -0.997046
v -0.706447 2.161906 -0.997046
v -0.650000 -1.844319 -1.243560
v -0.889251 -1.700514 -1.097324
v -0.889251 1.776194 -1.097324
v -0.829531 -1.700514 -1.097324
v -0.829531 1.776194 -1.097324
v -0.650000 1.920000 -0.997046
v -0.650000 1.919999 -1.243560
v -0.593125 2.181838 -1.176615
v -0.608049 2.113130 -1.243560
v -0.691635 2.098429 -1.243560
v -0.706447 2.161906 -1.176615
v -0.762496 2.056563 -1.243560
v -0.802518 2.105147 -1.176615
v -0.809844 1.993907 -1.243560
v -0.866710 2.020201 -1.176615
v -0.826470 -1.844319 -1.243560
v -0.889251 -1.778487 -1.176615
v -0.889251 1.919999 -1.176615
v -0.826470 1.919999 -1.243560
v 0.593125 2.181838 0.997046
v 0.706447 2.161906 0.997046
v 0.802518 2.105147 0.997046
v 0.866710 2.020201 0.997046
v 0.889251 1.920000 0.997046
v 0.889251 1.920000 0.997046
v 0.889251 1.776194 1.097324
v 0.889251 1.776194 1.097324
v 0.889251 -1.700514 1.097324
v 0.889251 -1.700514 1.097324
v 0.829531 1.776194 1.097324
v 0.829531 1.776194 1.097324
v 0.829531 -1.700514 1.097324
v 0.829531 -1.700514 1.097324
v 0.650000 1.920000 0.997046
v 0.650000 1.920000 0.997046
v 0.650000 1.920000 0.997046
v 0.650000 1.919999 1.243560
v 0.650000 1.919999 1.243560
v 0.650000 -1.844319 1.243560
v 0.650000 -1.844319 1.243560
v 0.706447 2.161906 1.176615
v 0.593125 2.181838 1.176615
v 0.608049 2.113130 1.243560
v 0.691635 2.098429 1.243560
v 0.802518 2.105147 1.176615
v 0.762496 2.056563 1.243560
v 0.866710 2.020201 1.176615
v 0.809844 1.993907 1.243560
v 0.826470 1.919999 1.243560
v 0.826470 -1.844319 1.243560
v 0.826470 -1.844319 1.243560
v 0.826470 -1.844319 1.243560
v 0.889251 -1.778487 1.176615
v 0.889251 -1.778487 1.176615
v 0.889251 1.919999 1.176615
v -0.593125 2.181838 0.997046
v -0.706447 2.161906 0.997046
v -0.802518 2.105147 0.997046
v -0.866710 2.020201 0.997046
v -0.889251 1.920000 0.997046
v -0.889251 1.920000 0.997046
v -0.889251 1.776194 1.097324
v -0.889251 1.776194 1.097324
v -0.889251 -1.700514 1.097324
v -0.889251 -1.700514 1.097324
v -0.829531 1.776194 1.097324
v -0.829531 1.776194 1.097324
v -0.829531 -1.700514 1.097324
v -0.829531 -1.700514 1.097324
v -0.650000 1.920000 0.997046
v -0.650000 1.920000 0.997046
v -0.650000 1.920000 0.997046
v -0.650000 1.919999 1.243560
v -0.650000 1.919999 1.243560
v -0.650000 -1.844319 1.243560
v -0.650000 -1.844319 1.243560
v -0.706447 2.161906 1.176615
v -0.593125 2.181838 1.176615
v -0.608049 2.113130 1.243560
v -0.691635 2.098429 1.243560
v -0.802518 2.105147 1.176615
v -0.762496 2.056563 1.243560
v -0.866710 2.020201 1.176615
v -0.809844 1.993907 1.243560
v -0.826470 1.919999 1.243560
v -0.826470 -1.844319 1.243560
v -0.826470 -1.844319 1.243560
v -0.826470 -1.844319 1.243560
v -0.889251 -1.778487 1.176615
v -0.889251 -1.778487 1.176615
v -0.889251 1.919999 1.176615
v 0.593125 2.181838 -0.997046
v 0.706447 2.161906 -0.997046
v 0.802518 2.105147 -0.997046
v 0.866710 2.020201 -0.997046
v 0.889251 1.920000 -0.997046
v 0.889251 1.920000 -0.997046
v 0.650000 -1.844319 -1.243560
v 0.650000 -1.844319 -1.243560
v 0.889251 1.776194 -1.097324
v 0.889251 1.776194 -1.097324
v 0.889251 -1.700514 -1.097324
v 0.889251 -1.700514 -1.097324
v 0.829531 1.776194 -1.097324
v 0.829531 1.776194 -1.097324
v 0.829531 -1.700514 -1.097324
v 0.829531 -1.700514 -1.097324
v 0.650000 1.919999 -1.243560
v 0.650000 1.919999 -1.243560
v 0.706447 2.161906 -1.176615
v 0.593125 2.181838 -1.176615
v 0.608049 2.113130 -1.243560
v 0.691635 2.098429 -1.243560
v 0.802518 2.105147 -1.176615
v 0.762496 2.056563 -1.243560
v 0.866710 2.020201 -1.176615
v 0.809844 1.993907 -1.243560
v 0.826470 1.919999 -1.243560
v 0.826470 -1.844319 -1.243560
v 0.826470 -1.844319 -1.243560
v 0.826470 -1.844319 -1.243560
v 0.889251 -1.778487 -1.176615
v 0.889251 -1.778487 -1.176615
v 0.889251 1.919999 -1.176615
v -0.593125 2.181838 -0.997046
v -0.706447 2.161906 -0.997046
v -0.802518 2.105147 -0.997046
v -0.866710 2.020201 -0.997046
v -0.889251 1.920000 -0.997046
v -0.889251 1.920000 -0.997046
v -0.650000 -1.844319 -1.243560
v -0.650000 -1.844319 -1.243560
v -0.889251 1.776194 -1.097324
v -0.889251 1.776194 -1.097324
v -0.889251 -1.700514 -1.097324
v -0.889251 -1.700514 -1.097324
v -0.829531 1.776194 -1.097324
v -0.829531 1.776194 -1.097324
v -0.829531 -1.700514 -1.097324
v -0.829531 -1.700514 -1.097324
v -0.650000 1.920000 -0.997046
v -0.650000 1.920000 -0.997046
v -0.650000 1.920000 -0.997046
v -0.650000 1.919999 -1.243560
v -0.650000 1.919999 -1.243560
v -0.706447 2.161906 -1.176615
v -0.593125 2.181838 -1.176615
v -0.608049 2.113130 -1.243560
v -0.691635 2.098429 -1.243560
v -0.802518 2.105147 -1.176615
v -0.762496 2.056563 -1.243560
v -0.866710 2.020201 -1.176615
v -0.809844 1.993907 -1.243560
v -0.826470 1.919999 -1.243560
v -0.826470 -1.844319 -1.243560
v -0.826470 -1.844319 -1.243560
v -0.826470 -1.844319 -1.243560
v -0.889251 -1.778487 -1.176615
v -0.889251 -1.778487 -1.176615
v -0.889251 1.919999 -1.176615
v 0.650000 1.920000 -0.997046
v 0.650000 1.920000 -0.997046
v 0.650000 1.920000 -0.997046
vt 0.944960 0.664468
vt 0.829534 0.664468
vt 0.825552 0.646137
vt 0.948941 0.646137
vt 0.952893 0.663073
vt 0.959619 0.659099
vt 0.964113 0.653152
vt 0.965691 0.646137
vt 0.294687 0.502457
vt 0.318084 0.502457
vt 0.294687 0.859742
vt 0.241917 0.595873
vt 0.251180 0.609466
vt 0.041773 0.609443
vt 0.051028 0.595848
vt 0.042600 0.381702
vt 0.051759 0.395208
vt 0.034740 0.395449
vt 0.030583 0.021784
vt 0.263714 0.021989
vt 0.263700 0.038531
vt 0.030569 0.038325
vt 0.507351 0.502457
vt 0.530749 0.859742
vt 0.554987 0.722801
vt 0.554988 0.392947
vt 0.560745 0.392946
vt 0.560745 0.722800
vt 0.768963 0.387280
vt 0.768963 0.392946
vt 0.560745 0.392946
vt 0.560745 0.387280
vt 0.507351 0.379069
vt 0.530748 0.379069
vt 0.530748 0.502457
vt 0.507351 0.502457
vt 0.560745 0.722800
vt 0.768963 0.722800
vt 0.768963 0.728466
vt 0.560745 0.728465
vt 0.560745 0.392946
vt 0.768963 0.392946
vt 0.768963 0.722800
vt 0.560745 0.722800
vt 0.965691 0.288848
vt 0.948941 0.288848
vt 0.034437 0.424887
vt 0.035064 0.414597
vt 0.051650 0.414889
vt 0.051418 0.425534
vt 0.827180 0.021784
vt 0.939772 0.021784
vt 0.945170 0.046636
vt 0.821782 0.046636
vt 0.032690 0.554671
vt 0.022490 0.557796
vt 0.023450 0.432745
vt 0.033417 0.435930
vt 0.033417 0.435930
vt 0.051092 0.436684
vt 0.035182 0.404990
vt 0.051740 0.404836
vt 0.039153 0.047148
vt 0.046460 0.054360
vt 0.965739 0.037126
vt 0.967878 0.046636
vt 0.959646 0.029063
vt 0.950527 0.023676
vt 0.967878 0.046636
vt 0.967878 0.235903
vt 0.945170 0.235903
vt 0.945170 0.046636
vt 0.263700 0.038531
vt 0.255225 0.046989
vt 0.039153 0.047148
vt 0.030569 0.038325
vt 0.034437 0.424887
vt 0.024808 0.423093
vt 0.035064 0.414597
vt 0.025756 0.413847
vt 0.035182 0.404990
vt 0.026198 0.405216
vt 0.025338 0.396916
vt 0.030569 0.038325
vt 0.039153 0.047148
vt 0.034740 0.395449
vt 0.032690 0.554671
vt 0.050519 0.554053
vt 0.255225 0.046989
vt 0.247766 0.054447
vt 0.821601 0.663073
vt 0.814875 0.659099
vt 0.810381 0.653152
vt 0.808803 0.646137
vt 0.294687 0.379069
vt 0.294686 0.021784
vt 0.318084 0.379069
vt 0.033869 0.595584
vt 0.029278 0.955209
vt 0.263910 0.955209
vt 0.263910 0.971857
vt 0.029278 0.971857
vt 0.530748 0.021784
vt 0.507351 0.379069
vt 0.774721 0.357379
vt 0.768963 0.357375
vt 0.769077 0.027521
vt 0.774835 0.027525
vt 0.560861 0.021784
vt 0.769079 0.021855
vt 0.769077 0.027521
vt 0.560859 0.027449
vt 0.768961 0.363041
vt 0.560743 0.362969
vt 0.560745 0.357303
vt 0.768963 0.357375
vt 0.768963 0.357375
vt 0.560745 0.357303
vt 0.560859 0.027449
vt 0.769077 0.027521
vt 0.808803 0.288865
vt 0.825552 0.288865
vt 0.033624 0.565856
vt 0.050779 0.565288
vt 0.050967 0.576018
vt 0.034220 0.576263
vt 0.051029 0.586149
vt 0.034323 0.585963
vt 0.045296 0.939082
vt 0.037931 0.946336
vt 0.799074 0.046636
vt 0.801213 0.037125
vt 0.807306 0.029063
vt 0.816424 0.023676
vt 0.821782 0.046636
vt 0.821782 0.235902
vt 0.799074 0.235902
vt 0.799074 0.046636
vt 0.263910 0.955209
vt 0.029278 0.955209
vt 0.037931 0.946336
vt 0.255384 0.946688
vt 0.033624 0.565856
vt 0.023842 0.567637
vt 0.034220 0.576263
vt 0.024800 0.577011
vt 0.034323 0.585963
vt 0.025253 0.585734
vt 0.024392 0.594103
vt 0.033869 0.595584
vt 0.037931 0.946336
vt 0.029278 0.955209
vt 0.255384 0.946688
vt 0.247881 0.939174
vt 0.933332 0.917311
vt 0.933332 0.793923
vt 0.951662 0.797904
vt 0.951663 0.913330
vt 0.950267 0.921263
vt 0.946294 0.927989
vt 0.940347 0.932483
vt 0.933332 0.934061
vt 0.530748 0.502457
vt 0.250808 0.381851
vt 0.258632 0.395618
vt 0.241614 0.395340
vt 0.774721 0.722801
vt 0.768963 0.722800
vt 0.768963 0.392946
vt 0.774721 0.392947
vt 0.576059 0.934061
vt 0.576059 0.917312
vt 0.258870 0.425043
vt 0.241904 0.425653
vt 0.241692 0.415017
vt 0.258266 0.414760
vt 0.827180 0.260754
vt 0.821782 0.235902
vt 0.945170 0.235903
vt 0.939771 0.260754
vt 0.260266 0.554726
vt 0.259863 0.436079
vt 0.269830 0.432922
vt 0.270448 0.557864
vt 0.259863 0.436079
vt 0.242205 0.436789
vt 0.241618 0.404969
vt 0.258169 0.405156
vt 0.967878 0.235903
vt 0.965738 0.245413
vt 0.959646 0.253476
vt 0.950527 0.258863
vt 0.258870 0.425043
vt 0.268496 0.423274
vt 0.258266 0.414760
vt 0.267571 0.414031
vt 0.258169 0.405156
vt 0.267151 0.405405
vt 0.268032 0.397108
vt 0.258632 0.395618
vt 0.255225 0.046989
vt 0.263700 0.038531
vt 0.260266 0.554726
vt 0.242442 0.554088
vt 0.950267 0.789971
vt 0.946293 0.783245
vt 0.940346 0.778751
vt 0.933332 0.777173
vt 0.530748 0.379069
vt 0.259071 0.595605
vt 0.554987 0.357303
vt 0.555101 0.027449
vt 0.560859 0.027449
vt 0.560745 0.357303
vt 0.576043 0.777173
vt 0.576043 0.793924
vt 0.259322 0.565899
vt 0.258721 0.576295
vt 0.241987 0.576044
vt 0.242180 0.565319
vt 0.258617 0.585989
vt 0.241920 0.586172
vt 0.801213 0.245413
vt 0.799074 0.235902
vt 0.807306 0.253475
vt 0.816424 0.258863
vt 0.259322 0.565899
vt 0.269089 0.567685
vt 0.258721 0.576295
vt 0.268130 0.577044
vt 0.258617 0.585989
vt 0.267680 0.585756
vt 0.268547 0.594120
vt 0.263910 0.955209
vt 0.255384 0.946688
vt 0.259071 0.595605
vt 0.318084 0.379069
vt 0.318084 0.502457
vt 0.294687 0.502457
vt 0.294687 0.379069
vn 0.0000 0.0000 1.0000
vn -1.0000 0.0000 0.0000
vn -0.9973 0.0735 0.0000
vn 1.0000 0.0000 0.0000
vn 0.9973 0.0735 0.0000
vn 0.9939 0.1104 0.0000
vn 0.0000 -1.0000 0.0000
vn 0.0000 0.0000 -1.0000
vn 0.0000 1.0000 0.0000
vn 0.3465 0.9380 0.0000
vn 0.6659 0.7461 0.0000
vn -0.0533 0.7028 0.7094
vn -0.0704 0.7039 0.7067
vn 0.0704 0.7039 0.7067
vn 0.0533 0.7028 0.7094
vn 0.0869 0.9962 0.0000
vn 0.9072 0.4207 0.0000
vn 0.7237 -0.6901 0.0000
vn 0.2431 0.6764 0.6952
vn 0.2569 0.6723 0.6943
vn 0.4836 0.5452 0.6847
vn 0.4874 0.5419 0.6847
vn 0.6624 0.3071 0.6833
vn 0.6623 0.3072 0.6833
vn 0.7268 0.0849 0.6816
vn 0.7294 0.0000 0.6840
vn 0.7272 0.0771 0.6820
vn -0.0869 0.9962 0.0000
vn -0.9939 0.1104 0.0000
vn -0.3465 0.9380 0.0000
vn -0.6659 0.7461 0.0000
vn -0.9072 0.4207 0.0000
vn -0.7237 -0.6901 0.0000
vn -0.2431 0.6764 0.6952
vn -0.2569 0.6723 0.6943
vn -0.4836 0.5452 0.6847
vn -0.4874 0.5419 0.6847
vn -0.6624 0.3071 0.6833
vn -0.6623 0.3072 0.6833
vn -0.7268 0.0849 0.6816
vn -0.7272 0.0771 0.6820
vn -0.7294 0.0000 0.6840
vn -0.0533 0.7028 -0.7094
vn 0.0533 0.7028 -0.7094
vn 0.0704 0.7039 -0.7067
vn -0.0704 0.7039 -0.7067
vn 0.2431 0.6764 -0.6952
vn 0.2569 0.6723 -0.6943
vn 0.4836 0.5452 -0.6847
vn 0.4874 0.5419 -0.6847
vn 0.6624 0.3071 -0.6833
vn 0.6623 0.3072 -0.6833
vn 0.7268 0.0849 -0.6816
vn 0.7272 0.0771 -0.6820
vn 0.7294 0.0000 -0.6840
vn -0.2431 0.6764 -0.6952
vn -0.2569 0.6723 -0.6943
vn -0.4836 0.5452 -0.6847
vn -0.4874 0.5419 -0.6847
vn -0.6624 0.3071 -0.6833
vn -0.6623 0.3072 -0.6833
vn -0.7268 0.0849 -0.6816
vn -0.7294 0.0000 -0.6840
vn -0.7272 0.0771 -0.6820
usemtl None
s 1
f 14/1/1 38/2/1 151/3/1 115/4/1
f 15/5/1 115/4/1 17/6/1
f 17/6/1 115/4/1 19/7/1
f 19/7/1 115/4/1 24/8/1
f 114/9/2 111/10/2 116/11/2
f 206/12/3 210/13/2 139/14/2 137/15/3
f 103/16/4 101/17/5 23/18/6
f 117/19/7 175/20/7 198/21/7 129/22/7
f 111/10/2 238/23/2 176/24/2 116/11/2
f 104/25/8 105/26/8 109/27/8 107/28/8
f 180/29/9 184/30/9 110/31/9 7/32/9
f 219/33/7 221/34/7 59/35/7 239/36/7
f 108/37/7 181/38/7 178/39/7 8/40/7
f 9/41/4 183/42/4 182/43/4 10/44/4
f 127/45/1 24/8/1 115/4/1 6/46/1
f 16/47/10 18/48/11 99/49/11 98/50/10
f 26/51/8 2/52/8 112/53/8 148/54/8
f 37/55/12 156/56/13 120/57/14 13/58/15
f 119/59/16 16/47/10 98/50/10 97/60/16
f 18/48/11 20/61/17 100/62/17 99/49/11
f 20/61/17 23/18/6 101/17/5 100/62/17
f 23/18/6 131/63/4 106/64/4 103/16/4
f 112/53/8 3/65/8 102/66/8
f 3/65/8 112/53/8 4/67/8
f 4/67/8 112/53/8 5/68/8
f 5/68/8 112/53/8 2/52/8
f 1/69/9 174/70/9 60/71/9 113/72/9
f 197/73/18 199/74/18 130/75/18 128/76/18
f 118/77/19 13/58/15 120/57/14 121/78/20
f 122/79/21 118/77/19 121/78/20 123/80/22
f 124/81/23 122/79/21 123/80/22 125/82/24
f 126/83/25 21/84/26 22/85/26 132/86/27
f 132/86/27 124/81/23 125/82/24 126/83/25
f 155/87/28 119/59/16 97/60/16 133/88/28
f 200/89/4 55/90/4 106/64/4 131/63/4
f 14/1/1 115/4/1 15/5/1
f 39/91/1 41/92/1 151/3/1
f 41/92/1 43/93/1 151/3/1
f 43/93/1 48/94/1 151/3/1
f 150/95/4 152/96/4 147/97/4
f 139/14/2 47/98/29 137/15/3
f 165/99/7 234/100/7 208/101/7 153/102/7
f 152/96/4 209/103/4 218/104/4 147/97/4
f 140/105/8 143/106/8 145/107/8 141/108/8
f 213/109/9 31/110/9 146/111/9 217/112/9
f 32/113/7 80/114/7 214/115/7 144/116/7
f 34/117/2 215/118/2 216/119/2 33/120/2
f 163/121/1 30/122/1 151/3/1 48/94/1
f 40/123/30 134/124/30 135/125/31 42/126/31
f 155/87/28 133/88/28 134/124/30 40/123/30
f 42/126/31 135/125/31 136/127/32 44/128/32
f 44/128/32 136/127/32 137/15/3 47/98/29
f 47/98/29 139/14/2 142/129/2 167/130/2
f 148/54/8 138/131/8 27/132/8
f 27/132/8 28/133/8 148/54/8
f 28/133/8 29/134/8 148/54/8
f 29/134/8 26/51/8 148/54/8
f 35/135/9 83/136/9 207/137/9 25/138/9
f 233/139/33 164/140/33 166/141/33 235/142/33
f 154/143/34 157/144/35 156/56/13 37/55/12
f 158/145/36 159/146/37 157/144/35 154/143/34
f 160/147/38 161/148/39 159/146/37 158/145/36
f 162/149/40 168/150/41 46/151/42 45/152/42
f 168/150/41 162/149/40 161/148/39 160/147/38
f 236/153/2 167/130/2 142/129/2 79/154/2
f 38/2/1 39/91/1 151/3/1
f 186/155/8 84/156/8 86/157/8 62/158/8
f 63/159/8 65/160/8 186/155/8
f 65/160/8 67/161/8 186/155/8
f 67/161/8 72/162/8 186/155/8
f 185/163/2 176/24/2 238/23/2
f 177/164/4 71/165/6 173/166/5
f 56/167/1 58/168/1 57/169/1 179/170/1
f 173/166/5 101/17/5 103/16/4 177/164/4
f 196/171/8 54/172/8 186/155/8 72/162/8
f 64/173/10 170/174/10 171/175/11 66/176/11
f 74/177/1 220/178/1 240/179/1 50/180/1
f 85/181/43 61/182/44 189/183/45 225/184/46
f 188/185/16 169/186/16 170/174/10 64/173/10
f 66/176/11 171/175/11 172/187/17 68/188/17
f 68/188/17 172/187/17 173/166/5 71/165/6
f 71/165/6 177/164/4 55/90/4 200/89/4
f 240/179/1 49/189/1 51/190/1
f 51/190/1 52/191/1 240/179/1
f 52/191/1 53/192/1 240/179/1
f 53/192/1 50/180/1 240/179/1
f 187/193/47 190/194/48 189/183/45 61/182/44
f 191/195/49 192/196/50 190/194/48 187/193/47
f 193/197/51 194/198/52 192/196/50 191/195/49
f 195/199/53 201/200/54 70/201/55 69/202/55
f 201/200/54 195/199/53 194/198/52 193/197/51
f 224/203/28 202/204/28 169/186/16 188/185/16
f 62/158/8 63/159/8 186/155/8
f 87/205/8 84/156/8 89/206/8
f 89/206/8 84/156/8 91/207/8
f 91/207/8 84/156/8 96/208/8
f 222/209/4 218/104/4 209/103/4
f 210/13/2 206/12/3 95/210/29
f 211/211/1 212/212/1 81/213/1 82/214/1
f 232/215/8 96/208/8 84/156/8 78/216/8
f 88/217/30 90/218/31 204/219/31 203/220/30
f 224/203/28 88/217/30 203/220/30 202/204/28
f 90/218/31 92/221/32 205/222/32 204/219/31
f 92/221/32 95/210/29 206/12/3 205/222/32
f 95/210/29 236/153/2 79/154/2 210/13/2
f 220/178/1 75/223/1 73/224/1
f 75/223/1 220/178/1 76/225/1
f 76/225/1 220/178/1 77/226/1
f 77/226/1 220/178/1 74/177/1
f 223/227/56 85/181/43 225/184/46 226/228/57
f 227/229/58 223/227/56 226/228/57 228/230/59
f 229/231/60 227/229/58 228/230/59 230/232/61
f 231/233/62 93/234/63 94/235/63 237/236/64
f 237/236/64 229/231/60 230/232/61 231/233/62
f 86/157/8 84/156/8 87/205/8
f 149/237/7 11/238/7 12/239/7 36/240/7
