# Blender v2.91.2 OBJ File: ''
# www.blender.org
mtllib body_142.mtl
o Cube.001_Cube.004
v 0.746376 -3.746376 0.746375
v 0.746376 -3.183943 0.183942
v 0.746376 -3.183943 0.551827
v 0.525270 -2.253624 0.367885
v 0.525270 -2.632115 0.367885
v 0.746376 -2.632115 0.367885
v 0.746376 -2.253624 0.367885
v 0.746376 -2.632115 0.746376
v 0.746376 -2.816057 0.183943
v 0.746376 -2.816057 0.129165
v 0.746376 -2.816057 -0.183943
v 0.746376 -2.816057 -0.129167
v 0.746376 -3.183942 -0.183944
v 0.746376 -2.816057 0.551828
v 0.650540 -3.183943 0.183942
v 0.650540 -3.183943 0.551827
v -0.746376 -2.632115 0.746376
v -0.746376 -3.746376 0.746375
v 0.650540 -2.816057 0.551828
v 0.650540 -2.816057 0.183943
v 0.746376 -2.632115 0.129165
v 0.525270 -2.253624 -0.367885
v 0.746376 -2.253624 -0.367885
v 0.746376 -2.632114 -0.367885
v 0.525270 -2.632115 -0.367885
v 0.746376 -2.632115 -0.129167
v 0.746376 -2.632114 -0.746376
v 0.746376 -2.816057 -0.551829
v 0.746376 -3.183942 -0.551829
v 0.746376 -3.746376 -0.746377
v 0.650540 -3.183942 -0.551829
v 0.650540 -3.183942 -0.183944
v -0.746376 -2.632114 -0.746376
v -0.746376 -3.746376 -0.746377
v 0.650540 -2.816057 -0.551829
v 0.650540 -2.816057 -0.183943
v 0.650540 -2.632115 -0.129167
v 0.650540 -2.816057 -0.129167
v 0.650540 -2.816057 0.129165
v 0.650540 -2.632115 0.129165
v 0.746376 3.746377 -0.746375
v 0.746376 3.183944 -0.183942
v 0.746376 3.183944 -0.551827
v 0.525270 2.253625 -0.367885
v 0.525270 2.632116 -0.367885
v 0.746376 2.632116 -0.367885
v 0.746376 2.253625 -0.367885
v 0.746376 2.632116 -0.746376
v 0.746376 2.816058 -0.183943
v 0.746376 2.816058 -0.129165
v 0.746376 2.816058 0.183943
v 0.746376 2.816058 0.129167
v 0.746376 3.183944 0.183944
v 0.746376 2.816058 -0.551828
v 0.650540 3.183944 -0.183942
v 0.650540 3.183944 -0.551827
v -0.746376 2.632116 -0.746376
v -0.746376 3.746377 -0.746375
v 0.650540 2.816058 -0.551828
v 0.650540 2.816058 -0.183943
v 0.746376 2.632116 -0.129165
v 0.525270 2.253625 0.367885
v 0.746376 2.253625 0.367885
v 0.746376 2.632115 0.367885
v 0.525270 2.632116 0.367885
v 0.746376 2.632116 0.129167
v 0.746376 2.632115 0.746376
v 0.746376 2.816058 0.551829
v 0.746376 3.183944 0.551829
v 0.746376 3.746377 0.746377
v 0.650540 3.183944 0.551829
v 0.650540 3.183944 0.183944
v -0.746376 2.632115 0.746376
v -0.746376 3.746377 0.746377
v 0.650540 2.816058 0.551829
v 0.650540 2.816058 0.183943
v 0.650540 2.632116 0.129167
v 0.650540 2.816058 0.129167
v 0.650540 2.816058 -0.129165
v 0.650540 2.632116 -0.129165
v 0.746376 -0.746374 -3.746376
v 0.746376 -0.183941 -3.183943
v 0.746376 -0.551826 -3.183943
v 0.525270 -0.367884 -2.253624
v 0.525270 -0.367884 -2.632115
v 0.746376 -0.367884 -2.632115
v 0.746376 -0.367884 -2.253624
v 0.746376 -0.746375 -2.632115
v 0.746376 -0.183942 -2.816057
v 0.746376 -0.129164 -2.816057
v 0.746376 0.183944 -2.816057
v 0.746376 0.129168 -2.816057
v 0.746376 0.183945 -3.183942
v 0.746376 -0.551827 -2.816057
v 0.650540 -0.183941 -3.183943
v 0.650540 -0.551826 -3.183943
v -0.746376 -0.746375 -2.632115
v -0.746376 -0.746374 -3.746376
v 0.650540 -0.551827 -2.816057
v 0.650540 -0.183942 -2.816057
v 0.746376 -0.129164 -2.632115
v 0.525270 0.367886 -2.253624
v 0.746376 0.367886 -2.253624
v 0.746376 0.367886 -2.632114
v 0.525270 0.367886 -2.632115
v 0.746376 0.129168 -2.632115
v 0.746376 0.746377 -2.632114
v 0.746376 0.551829 -2.816057
v 0.746376 0.551830 -3.183942
v 0.746376 0.746378 -3.746376
v 0.650540 0.551830 -3.183942
v 0.650540 0.183945 -3.183942
v -0.746376 0.746377 -2.632114
v -0.746376 0.746378 -3.746376
v 0.650540 0.551829 -2.816057
v 0.650540 0.183944 -2.816057
v 0.650540 0.129168 -2.632115
v 0.650540 0.129168 -2.816057
v 0.650540 -0.129164 -2.816057
v 0.650540 -0.129164 -2.632115
v 0.746376 0.746377 3.746376
v 0.746376 0.183944 3.183943
v 0.746376 0.551829 3.183943
v 0.525270 0.367887 2.253624
v 0.525270 0.367887 2.632115
v 0.746376 0.367887 2.632115
v 0.746376 0.367887 2.253624
v 0.746376 0.746378 2.632115
v 0.746376 0.183945 2.816057
v 0.746376 0.129167 2.816057
v 0.746376 -0.183941 2.816057
v 0.746376 -0.129165 2.816057
v 0.746376 -0.183942 3.183942
v 0.746376 0.551830 2.816057
v 0.650540 0.183944 3.183943
v 0.650540 0.551829 3.183943
v -0.746376 0.746378 2.632115
v -0.746376 0.746377 3.746376
v 0.650540 0.551830 2.816057
v 0.650540 0.183945 2.816057
v 0.746376 0.129167 2.632115
v 0.525270 -0.367883 2.253624
v 0.746376 -0.367883 2.253624
v 0.746376 -0.367883 2.632114
v 0.525270 -0.367883 2.632115
v 0.746376 -0.129165 2.632115
v 0.746376 -0.746374 2.632114
v 0.746376 -0.551826 2.816057
v 0.746376 -0.551827 3.183942
v 0.746376 -0.746375 3.746376
v 0.650540 -0.551827 3.183942
v 0.650540 -0.183942 3.183942
v -0.746376 -0.746374 2.632114
v -0.746376 -0.746375 3.746376
v 0.650540 -0.551826 2.816057
v 0.650540 -0.183941 2.816057
v 0.650540 -0.129165 2.632115
v 0.650540 -0.129165 2.816057
v 0.650540 0.129167 2.816057
v 0.650540 0.129167 2.632115
vt 0.586777 0.505710
vt 0.485063 0.403997
vt 0.551594 0.403997
vt 0.725678 0.817901
vt 0.725678 0.886350
vt 0.685691 0.886350
vt 0.685691 0.817901
vt 0.518328 0.304200
vt 0.586778 0.304200
vt 0.485063 0.337467
vt 0.475156 0.337467
vt 0.518328 0.235752
vt 0.418533 0.337467
vt 0.428438 0.337467
vt 0.418533 0.403997
vt 0.551594 0.337467
vt 0.810805 0.117084
vt 0.828136 0.117084
vt 0.828136 0.183614
vt 0.810805 0.183614
vt 0.856737 0.304200
vt 0.856737 0.505710
vt 0.828136 0.200946
vt 0.894666 0.183614
vt 0.894666 0.200946
vt 0.911998 0.183614
vt 0.894666 0.117084
vt 0.911998 0.117084
vt 0.894666 0.099752
vt 0.828136 0.099752
vt 0.475156 0.304200
vt 0.316818 0.102690
vt 0.276833 0.102690
vt 0.316818 0.034242
vt 0.046859 0.034242
vt 0.725678 0.684840
vt 0.685691 0.684840
vt 0.685691 0.616391
vt 0.725678 0.616391
vt 0.385266 0.235752
vt 0.428438 0.304200
vt 0.316818 0.304200
vt 0.385266 0.304200
vt 0.352002 0.337467
vt 0.352002 0.403997
vt 0.316818 0.505710
vt 0.642722 0.181964
vt 0.642722 0.115434
vt 0.660053 0.115434
vt 0.660053 0.181964
vt 0.046859 0.304200
vt 0.046859 0.505710
vt 0.660053 0.098103
vt 0.726584 0.098103
vt 0.726584 0.115434
vt 0.743915 0.115434
vt 0.743915 0.181964
vt 0.726584 0.181964
vt 0.726584 0.199297
vt 0.660053 0.199297
vt 0.488609 0.169496
vt 0.455343 0.169496
vt 0.455343 0.152164
vt 0.488609 0.152164
vt 0.316818 0.235752
vt 0.276833 0.235752
vt 0.586777 0.775669
vt 0.316818 0.775669
vt 0.794127 0.684840
vt 0.794127 0.817901
vt 0.586777 0.977180
vt 0.316818 0.977180
vt 0.488609 0.088113
vt 0.488609 0.105446
vt 0.455343 0.105446
vt 0.455343 0.088113
vt 0.505940 0.105446
vt 0.505940 0.152164
vt 0.438011 0.152164
vt 0.438011 0.105446
vt 0.586777 0.505710
vt 0.485063 0.403997
vt 0.551594 0.403997
vt 0.725678 0.817901
vt 0.725678 0.886350
vt 0.685691 0.886350
vt 0.685691 0.817901
vt 0.518328 0.304200
vt 0.586778 0.304200
vt 0.485063 0.337467
vt 0.475156 0.337467
vt 0.518328 0.235752
vt 0.418533 0.337467
vt 0.428438 0.337467
vt 0.418533 0.403997
vt 0.551594 0.337467
vt 0.810805 0.117084
vt 0.828136 0.117084
vt 0.828136 0.183614
vt 0.810805 0.183614
vt 0.856737 0.304200
vt 0.856737 0.505710
vt 0.828136 0.200946
vt 0.894666 0.183614
vt 0.894666 0.200946
vt 0.911998 0.183614
vt 0.894666 0.117084
vt 0.911998 0.117084
vt 0.894666 0.099752
vt 0.828136 0.099752
vt 0.475156 0.304200
vt 0.316818 0.102690
vt 0.276833 0.102690
vt 0.316818 0.034242
vt 0.046859 0.034242
vt 0.725678 0.684840
vt 0.685691 0.684840
vt 0.685691 0.616391
vt 0.725678 0.616391
vt 0.385266 0.235752
vt 0.428438 0.304200
vt 0.316818 0.304200
vt 0.385266 0.304200
vt 0.352002 0.337467
vt 0.352002 0.403997
vt 0.316818 0.505710
vt 0.642722 0.181964
vt 0.642722 0.115434
vt 0.660053 0.115434
vt 0.660053 0.181964
vt 0.046859 0.304200
vt 0.046859 0.505710
vt 0.660053 0.098103
vt 0.726584 0.098103
vt 0.726584 0.115434
vt 0.743915 0.115434
vt 0.743915 0.181964
vt 0.726584 0.181964
vt 0.726584 0.199297
vt 0.660053 0.199297
vt 0.488609 0.169496
vt 0.455343 0.169496
vt 0.455343 0.152164
vt 0.488609 0.152164
vt 0.316818 0.235752
vt 0.276833 0.235752
vt 0.586777 0.775669
vt 0.316818 0.775669
vt 0.794127 0.684840
vt 0.794127 0.817901
vt 0.586777 0.977180
vt 0.316818 0.977180
vt 0.488609 0.088113
vt 0.488609 0.105446
vt 0.455343 0.105446
vt 0.455343 0.088113
vt 0.505940 0.105446
vt 0.505940 0.152164
vt 0.438011 0.152164
vt 0.438011 0.105446
vt 0.586777 0.505710
vt 0.485063 0.403997
vt 0.551594 0.403997
vt 0.725678 0.817901
vt 0.725678 0.886350
vt 0.685691 0.886350
vt 0.685691 0.817901
vt 0.518328 0.304200
vt 0.586778 0.304200
vt 0.485063 0.337467
vt 0.475156 0.337467
vt 0.518328 0.235752
vt 0.418533 0.337467
vt 0.428438 0.337467
vt 0.418533 0.403997
vt 0.551594 0.337467
vt 0.810805 0.117084
vt 0.828136 0.117084
vt 0.828136 0.183614
vt 0.810805 0.183614
vt 0.856737 0.304200
vt 0.856737 0.505710
vt 0.828136 0.200946
vt 0.894666 0.183614
vt 0.894666 0.200946
vt 0.911998 0.183614
vt 0.894666 0.117084
vt 0.911998 0.117084
vt 0.894666 0.099752
vt 0.828136 0.099752
vt 0.475156 0.304200
vt 0.316818 0.102690
vt 0.276833 0.102690
vt 0.316818 0.034242
vt 0.046859 0.034242
vt 0.725678 0.684840
vt 0.685691 0.684840
vt 0.685691 0.616391
vt 0.725678 0.616391
vt 0.385266 0.235752
vt 0.428438 0.304200
vt 0.316818 0.304200
vt 0.385266 0.304200
vt 0.352002 0.337467
vt 0.352002 0.403997
vt 0.316818 0.505710
vt 0.642722 0.181964
vt 0.642722 0.115434
vt 0.660053 0.115434
vt 0.660053 0.181964
vt 0.046859 0.304200
vt 0.046859 0.505710
vt 0.660053 0.098103
vt 0.726584 0.098103
vt 0.726584 0.115434
vt 0.743915 0.115434
vt 0.743915 0.181964
vt 0.726584 0.181964
vt 0.726584 0.199297
vt 0.660053 0.199297
vt 0.488609 0.169496
vt 0.455343 0.169496
vt 0.455343 0.152164
vt 0.488609 0.152164
vt 0.316818 0.235752
vt 0.276833 0.235752
vt 0.586777 0.775669
vt 0.316818 0.775669
vt 0.794127 0.684840
vt 0.794127 0.817901
vt 0.586777 0.977180
vt 0.316818 0.977180
vt 0.488609 0.088113
vt 0.488609 0.105446
vt 0.455343 0.105446
vt 0.455343 0.088113
vt 0.505940 0.105446
vt 0.505940 0.152164
vt 0.438011 0.152164
vt 0.438011 0.105446
vt 0.586777 0.505710
vt 0.485063 0.403997
vt 0.551594 0.403997
vt 0.725678 0.817901
vt 0.725678 0.886350
vt 0.685691 0.886350
vt 0.685691 0.817901
vt 0.518328 0.304200
vt 0.586778 0.304200
vt 0.485063 0.337467
vt 0.475156 0.337467
vt 0.518328 0.235752
vt 0.418533 0.337467
vt 0.428438 0.337467
vt 0.418533 0.403997
vt 0.551594 0.337467
vt 0.810805 0.117084
vt 0.828136 0.117084
vt 0.828136 0.183614
vt 0.810805 0.183614
vt 0.856737 0.304200
vt 0.856737 0.505710
vt 0.828136 0.200946
vt 0.894666 0.183614
vt 0.894666 0.200946
vt 0.911998 0.183614
vt 0.894666 0.117084
vt 0.911998 0.117084
vt 0.894666 0.099752
vt 0.828136 0.099752
vt 0.475156 0.304200
vt 0.316818 0.102690
vt 0.276833 0.102690
vt 0.316818 0.034242
vt 0.046859 0.034242
vt 0.725678 0.684840
vt 0.685691 0.684840
vt 0.685691 0.616391
vt 0.725678 0.616391
vt 0.385266 0.235752
vt 0.428438 0.304200
vt 0.316818 0.304200
vt 0.385266 0.304200
vt 0.352002 0.337467
vt 0.352002 0.403997
vt 0.316818 0.505710
vt 0.642722 0.181964
vt 0.642722 0.115434
vt 0.660053 0.115434
vt 0.660053 0.181964
vt 0.046859 0.304200
vt 0.046859 0.505710
vt 0.660053 0.098103
vt 0.726584 0.098103
vt 0.726584 0.115434
vt 0.743915 0.115434
vt 0.743915 0.181964
vt 0.726584 0.181964
vt 0.726584 0.199297
vt 0.660053 0.199297
vt 0.488609 0.169496
vt 0.455343 0.169496
vt 0.455343 0.152164
vt 0.488609 0.152164
vt 0.316818 0.235752
vt 0.276833 0.235752
vt 0.586777 0.775669
vt 0.316818 0.775669
vt 0.794127 0.684840
vt 0.794127 0.817901
vt 0.586777 0.977180
vt 0.316818 0.977180
vt 0.488609 0.088113
vt 0.488609 0.105446
vt 0.455343 0.105446
vt 0.455343 0.088113
vt 0.505940 0.105446
vt 0.505940 0.152164
vt 0.438011 0.152164
vt 0.438011 0.105446
vn 1.0000 0.0000 0.0000
vn 0.0000 -0.0000 1.0000
vn 0.0000 1.0000 0.0000
vn 0.0000 0.0000 -1.0000
vn 0.0000 -1.0000 0.0000
vn -1.0000 0.0000 0.0000
usemtl None
s 1
f 1/1/1 2/2/1 3/3/1
f 4/4/2 5/5/2 6/6/2 7/7/2
f 6/8/1 8/9/1 9/10/1 10/11/1 7/12/1
f 11/13/1 12/14/1 13/15/1
f 14/16/1 8/9/1 1/1/1 3/3/1
f 2/17/3 15/18/3 16/19/3 3/20/3
f 17/21/2 18/22/2 1/1/2 8/9/2
f 3/23/4 16/19/4 19/24/4 14/25/4
f 2/2/1 10/11/1 9/10/1
f 14/26/5 19/24/5 20/27/5 9/28/5
f 16/19/1 15/18/1 20/27/1 19/24/1
f 9/29/2 20/27/2 15/18/2 2/30/2
f 7/12/1 10/11/1 21/31/1
f 6/32/3 5/33/3 8/34/3
f 17/35/3 8/34/3 5/33/3
f 14/16/1 9/10/1 8/9/1
f 22/36/4 23/37/4 24/38/4 25/39/4
f 23/40/1 7/12/1 21/31/1 26/41/1
f 11/13/1 27/42/1 24/43/1
f 28/44/1 29/45/1 30/46/1 27/42/1
f 13/47/3 29/48/3 31/49/3 32/50/3
f 33/51/4 27/42/4 30/46/4 34/52/4
f 29/53/2 28/54/2 35/55/2 31/49/2
f 28/56/5 11/57/5 36/58/5 35/55/5
f 31/49/1 35/55/1 36/58/1 32/50/1
f 11/59/4 13/60/4 32/50/4 36/58/4
f 12/61/2 26/62/2 37/63/2 38/64/2
f 24/65/3 27/42/3 25/66/3
f 33/51/3 25/66/3 27/42/3
f 28/44/1 27/42/1 11/13/1
f 30/46/1 29/45/1 13/15/1
f 22/36/3 4/4/3 7/7/3 23/37/3
f 13/15/1 2/2/1 1/1/1 30/46/1
f 5/33/3 25/66/3 33/51/3 17/35/3
f 18/67/5 34/68/5 30/46/5 1/1/5
f 23/40/1 12/14/1 11/13/1 24/43/1
f 25/69/6 5/70/6 4/4/6 22/36/6
f 17/71/6 33/72/6 34/68/6 18/67/6
f 26/41/1 12/14/1 23/40/1
f 10/73/4 39/74/4 40/75/4 21/76/4
f 10/77/3 12/78/3 38/64/3 39/74/3
f 26/79/5 21/80/5 40/75/5 37/63/5
f 13/15/1 12/14/1 10/11/1 2/2/1
f 38/64/1 37/63/1 40/75/1 39/74/1
f 41/81/1 42/82/1 43/83/1
f 44/84/4 45/85/4 46/86/4 47/87/4
f 46/88/1 48/89/1 49/90/1 50/91/1 47/92/1
f 51/93/1 52/94/1 53/95/1
f 54/96/1 48/89/1 41/81/1 43/83/1
f 42/97/5 55/98/5 56/99/5 43/100/5
f 57/101/4 58/102/4 41/81/4 48/89/4
f 43/103/2 56/99/2 59/104/2 54/105/2
f 42/82/1 50/91/1 49/90/1
f 54/106/3 59/104/3 60/107/3 49/108/3
f 56/99/1 55/98/1 60/107/1 59/104/1
f 49/109/4 60/107/4 55/98/4 42/110/4
f 47/92/1 50/91/1 61/111/1
f 46/112/5 45/113/5 48/114/5
f 57/115/5 48/114/5 45/113/5
f 54/96/1 49/90/1 48/89/1
f 62/116/2 63/117/2 64/118/2 65/119/2
f 63/120/1 47/92/1 61/111/1 66/121/1
f 51/93/1 67/122/1 64/123/1
f 68/124/1 69/125/1 70/126/1 67/122/1
f 53/127/5 69/128/5 71/129/5 72/130/5
f 73/131/2 67/122/2 70/126/2 74/132/2
f 69/133/4 68/134/4 75/135/4 71/129/4
f 68/136/3 51/137/3 76/138/3 75/135/3
f 71/129/1 75/135/1 76/138/1 72/130/1
f 51/139/2 53/140/2 72/130/2 76/138/2
f 52/141/4 66/142/4 77/143/4 78/144/4
f 64/145/5 67/122/5 65/146/5
f 73/131/5 65/146/5 67/122/5
f 68/124/1 67/122/1 51/93/1
f 70/126/1 69/125/1 53/95/1
f 62/116/5 44/84/5 47/87/5 63/117/5
f 53/95/1 42/82/1 41/81/1 70/126/1
f 45/113/5 65/146/5 73/131/5 57/115/5
f 58/147/3 74/148/3 70/126/3 41/81/3
f 63/120/1 52/94/1 51/93/1 64/123/1
f 65/149/6 45/150/6 44/84/6 62/116/6
f 57/151/6 73/152/6 74/148/6 58/147/6
f 66/121/1 52/94/1 63/120/1
f 50/153/2 79/154/2 80/155/2 61/156/2
f 50/157/5 52/158/5 78/144/5 79/154/5
f 66/159/3 61/160/3 80/155/3 77/143/3
f 53/95/1 52/94/1 50/91/1 42/82/1
f 78/144/1 77/143/1 80/155/1 79/154/1
f 81/161/1 82/162/1 83/163/1
f 84/164/5 85/165/5 86/166/5 87/167/5
f 86/168/1 88/169/1 89/170/1 90/171/1 87/172/1
f 91/173/1 92/174/1 93/175/1
f 94/176/1 88/169/1 81/161/1 83/163/1
f 82/177/2 95/178/2 96/179/2 83/180/2
f 97/181/5 98/182/5 81/161/5 88/169/5
f 83/183/3 96/179/3 99/184/3 94/185/3
f 82/162/1 90/171/1 89/170/1
f 94/186/4 99/184/4 100/187/4 89/188/4
f 96/179/1 95/178/1 100/187/1 99/184/1
f 89/189/5 100/187/5 95/178/5 82/190/5
f 87/172/1 90/171/1 101/191/1
f 86/192/2 85/193/2 88/194/2
f 97/195/2 88/194/2 85/193/2
f 94/176/1 89/170/1 88/169/1
f 102/196/3 103/197/3 104/198/3 105/199/3
f 103/200/1 87/172/1 101/191/1 106/201/1
f 91/173/1 107/202/1 104/203/1
f 108/204/1 109/205/1 110/206/1 107/202/1
f 93/207/2 109/208/2 111/209/2 112/210/2
f 113/211/3 107/202/3 110/206/3 114/212/3
f 109/213/5 108/214/5 115/215/5 111/209/5
f 108/216/4 91/217/4 116/218/4 115/215/4
f 111/209/1 115/215/1 116/218/1 112/210/1
f 91/219/3 93/220/3 112/210/3 116/218/3
f 92/221/5 106/222/5 117/223/5 118/224/5
f 104/225/2 107/202/2 105/226/2
f 113/211/2 105/226/2 107/202/2
f 108/204/1 107/202/1 91/173/1
f 110/206/1 109/205/1 93/175/1
f 102/196/2 84/164/2 87/167/2 103/197/2
f 93/175/1 82/162/1 81/161/1 110/206/1
f 85/193/2 105/226/2 113/211/2 97/195/2
f 98/227/4 114/228/4 110/206/4 81/161/4
f 103/200/1 92/174/1 91/173/1 104/203/1
f 105/229/6 85/230/6 84/164/6 102/196/6
f 97/231/6 113/232/6 114/228/6 98/227/6
f 106/201/1 92/174/1 103/200/1
f 90/233/3 119/234/3 120/235/3 101/236/3
f 90/237/2 92/238/2 118/224/2 119/234/2
f 106/239/4 101/240/4 120/235/4 117/223/4
f 93/175/1 92/174/1 90/171/1 82/162/1
f 118/224/1 117/223/1 120/235/1 119/234/1
f 121/241/1 122/242/1 123/243/1
f 124/244/3 125/245/3 126/246/3 127/247/3
f 126/248/1 128/249/1 129/250/1 130/251/1 127/252/1
f 131/253/1 132/254/1 133/255/1
f 134/256/1 128/249/1 121/241/1 123/243/1
f 122/257/4 135/258/4 136/259/4 123/260/4
f 137/261/3 138/262/3 121/241/3 128/249/3
f 123/263/5 136/259/5 139/264/5 134/265/5
f 122/242/1 130/251/1 129/250/1
f 134/266/2 139/264/2 140/267/2 129/268/2
f 136/259/1 135/258/1 140/267/1 139/264/1
f 129/269/3 140/267/3 135/258/3 122/270/3
f 127/252/1 130/251/1 141/271/1
f 126/272/4 125/273/4 128/274/4
f 137/275/4 128/274/4 125/273/4
f 134/256/1 129/250/1 128/249/1
f 142/276/5 143/277/5 144/278/5 145/279/5
f 143/280/1 127/252/1 141/271/1 146/281/1
f 131/253/1 147/282/1 144/283/1
f 148/284/1 149/285/1 150/286/1 147/282/1
f 133/287/4 149/288/4 151/289/4 152/290/4
f 153/291/5 147/282/5 150/286/5 154/292/5
f 149/293/3 148/294/3 155/295/3 151/289/3
f 148/296/2 131/297/2 156/298/2 155/295/2
f 151/289/1 155/295/1 156/298/1 152/290/1
f 131/299/5 133/300/5 152/290/5 156/298/5
f 132/301/3 146/302/3 157/303/3 158/304/3
f 144/305/4 147/282/4 145/306/4
f 153/291/4 145/306/4 147/282/4
f 148/284/1 147/282/1 131/253/1
f 150/286/1 149/285/1 133/255/1
f 142/276/4 124/244/4 127/247/4 143/277/4
f 133/255/1 122/242/1 121/241/1 150/286/1
f 125/273/4 145/306/4 153/291/4 137/275/4
f 138/307/2 154/308/2 150/286/2 121/241/2
f 143/280/1 132/254/1 131/253/1 144/283/1
f 145/309/6 125/310/6 124/244/6 142/276/6
f 137/311/6 153/312/6 154/308/6 138/307/6
f 146/281/1 132/254/1 143/280/1
f 130/313/5 159/314/5 160/315/5 141/316/5
f 130/317/4 132/318/4 158/304/4 159/314/4
f 146/319/2 141/320/2 160/315/2 157/303/2
f 133/255/1 132/254/1 130/251/1 122/242/1
f 158/304/1 157/303/1 160/315/1 159/314/1
