# Blender v2.79 (sub 0) OBJ File: 'body_28.blend'
# www.blender.org
mtllib body_28.mtl
o Cape_Plane_Plane.002
v -0.139393 -1.043338 -0.000000
v -0.139393 -0.863217 -0.000000
v -0.117520 -0.863217 -0.167652
v -0.117520 -1.067101 -0.167652
v -0.071761 0.166632 -0.389079
v -0.106780 0.163423 -0.305253
v -0.034246 0.360084 -0.205072
v 0.000773 0.360084 -0.247785
v -0.105457 0.165228 -0.221427
v -0.059178 0.360084 -0.154741
v -0.096835 0.158206 -0.137601
v -0.050556 0.360084 -0.112011
v -0.093259 0.156201 -0.053775
v -0.046979 0.360084 -0.033477
v -0.139393 -0.659334 -0.000000
v -0.117520 -0.659334 -0.153610
v -0.139393 -0.455450 -0.000000
v -0.117520 -0.455450 -0.167652
v -0.139393 -0.251567 0.000000
v -0.117519 -0.251567 -0.147361
v -0.139393 -0.047684 0.000000
v -0.117519 -0.047684 -0.114884
v -0.115132 0.156201 0.000000
v -0.121096 -1.053058 -0.251478
v -0.121096 -0.851181 -0.251478
v -0.121096 -0.649304 -0.237436
v -0.121096 -0.447427 -0.251478
v -0.121096 -0.245548 -0.233148
v -0.121096 -0.043671 -0.198710
v -0.129717 -1.003910 -0.335303
v -0.129717 -0.809054 -0.335303
v -0.129717 -0.614197 -0.321262
v -0.129717 -0.419341 -0.335303
v -0.129717 -0.224484 -0.318935
v -0.129717 -0.029629 -0.282536
v -0.131041 -1.016548 -0.419129
v -0.131041 -0.819887 -0.419129
v -0.131041 -0.623224 -0.405087
v -0.131040 -0.426563 -0.419129
v -0.131040 -0.229901 -0.404722
v -0.131040 -0.033240 -0.366362
v -0.096021 -0.994080 -0.502955
v -0.096021 -0.800628 -0.502955
v -0.096021 -0.607175 -0.488913
v -0.096021 -0.413723 -0.502955
v -0.096021 -0.220273 -0.490509
v -0.096021 -0.026820 -0.450188
v -0.048730 0.360084 0.000000
v -0.117520 -1.067101 0.167652
v -0.117520 -0.863217 0.167652
v -0.071761 0.166632 0.389079
v 0.000773 0.360084 0.247785
v -0.034246 0.360084 0.205072
v -0.106780 0.163423 0.305253
v -0.059178 0.360084 0.154742
v -0.105457 0.165228 0.221427
v -0.050556 0.360084 0.112012
v -0.096835 0.158206 0.137601
v -0.046979 0.360084 0.033477
v -0.093259 0.156201 0.053776
v -0.117520 -0.659334 0.153610
v -0.117520 -0.455450 0.167652
v -0.117519 -0.251567 0.147361
v -0.117519 -0.047684 0.114884
v -0.121096 -1.053058 0.251477
v -0.121096 -0.851181 0.251477
v -0.121096 -0.649304 0.237436
v -0.121096 -0.447427 0.251478
v -0.121096 -0.245548 0.233148
v -0.121096 -0.043671 0.198710
v -0.129717 -1.056037 0.335303
v -0.129717 -0.809054 0.335303
v -0.129717 -0.614197 0.321261
v -0.129717 -0.419342 0.335303
v -0.129717 -0.224485 0.318935
v -0.129717 -0.029629 0.282536
v -0.131041 -1.016548 0.419129
v -0.131041 -0.819887 0.419129
v -0.131041 -0.623225 0.405087
v -0.131041 -0.426564 0.419129
v -0.131040 -0.229901 0.404722
v -0.131040 -0.033240 0.366362
v -0.096021 -0.994080 0.502955
v -0.096021 -0.800629 0.502955
v -0.096021 -0.607177 0.488913
v -0.096021 -0.413725 0.502955
v -0.096021 -0.220273 0.490509
v -0.096021 -0.026821 0.450188
vt 0.500008 0.035767
vt 0.500007 0.156497
vt 0.386688 0.156515
vt 0.386666 0.019852
vt 0.237564 0.848081
vt 0.294776 0.843403
vt 0.353092 0.978013
vt 0.320416 0.981812
vt 0.350474 0.844535
vt 0.389154 0.977932
vt 0.406452 0.840624
vt 0.420204 0.978805
vt 0.461904 0.839430
vt 0.476250 0.978487
vt 0.500007 0.293109
vt 0.396085 0.293124
vt 0.500007 0.429645
vt 0.386815 0.429692
vt 0.500007 0.566064
vt 0.400452 0.566155
vt 0.500007 0.701874
vt 0.422081 0.702647
vt 0.500007 0.836398
vt 0.330427 0.029275
vt 0.330453 0.164588
vt 0.339882 0.299874
vt 0.330639 0.435111
vt 0.343024 0.570196
vt 0.365994 0.705125
vt 0.273945 0.062236
vt 0.273987 0.192840
vt 0.283429 0.323440
vt 0.274234 0.453986
vt 0.285403 0.584356
vt 0.309739 0.714228
vt 0.217737 0.053789
vt 0.217806 0.185591
vt 0.227214 0.317447
vt 0.218072 0.449243
vt 0.227926 0.580868
vt 0.253982 0.711858
vt 0.160273 0.068886
vt 0.160366 0.198556
vt 0.169730 0.328260
vt 0.160639 0.457976
vt 0.169286 0.587664
vt 0.196830 0.717230
vt 0.500007 0.977850
vt 0.613351 0.019855
vt 0.613325 0.156516
vt 0.762450 0.848082
vt 0.679598 0.981813
vt 0.646922 0.978014
vt 0.705238 0.843404
vt 0.610860 0.977933
vt 0.649540 0.844535
vt 0.579809 0.978806
vt 0.593562 0.840624
vt 0.523763 0.978487
vt 0.538110 0.839431
vt 0.603929 0.293123
vt 0.613199 0.429691
vt 0.599563 0.566155
vt 0.577933 0.702647
vt 0.669588 0.029280
vt 0.669559 0.164588
vt 0.660132 0.299873
vt 0.669376 0.435110
vt 0.656991 0.570196
vt 0.634020 0.705125
vt 0.726075 0.027299
vt 0.726025 0.192839
vt 0.716585 0.323440
vt 0.725781 0.453985
vt 0.714612 0.584356
vt 0.690275 0.714228
vt 0.782259 0.053787
vt 0.782207 0.185590
vt 0.772800 0.317445
vt 0.781944 0.449242
vt 0.772089 0.580869
vt 0.746032 0.711859
vt 0.839727 0.068878
vt 0.839649 0.198551
vt 0.830286 0.328259
vt 0.839376 0.457975
vt 0.830729 0.587664
vt 0.803184 0.717231
vn -1.0000 -0.0000 -0.0000
vn -1.0000 0.0023 0.0000
vn -0.9991 0.0004 -0.0431
vn -0.9990 -0.0000 -0.0443
vn -0.8535 0.3516 -0.3845
vn -0.9200 0.3150 -0.2331
vn -0.8579 0.4347 -0.2741
vn -0.7492 0.5270 -0.4013
vn -0.9799 0.1989 0.0137
vn -0.9647 0.2629 0.0138
vn -0.9849 0.1503 0.0857
vn -0.9743 0.2066 0.0898
vn -0.9751 0.1907 -0.1129
vn -0.9621 0.2478 -0.1135
vn -0.9987 -0.0001 -0.0502
vn -1.0000 0.0011 -0.0000
vn -0.9991 0.0003 -0.0423
vn -0.9999 0.0101 0.0000
vn -0.9986 0.0020 -0.0525
vn -0.9965 0.0837 0.0000
vn -0.9952 0.0641 -0.0742
vn -0.9768 0.2143 0.0000
vn -0.9979 -0.0000 0.0650
vn -0.9974 -0.0021 0.0725
vn -0.9975 -0.0007 0.0707
vn -0.9973 0.0002 0.0740
vn -0.9975 -0.0091 0.0707
vn -0.9963 0.0394 0.0760
vn -0.9980 0.0000 0.0634
vn -0.9984 -0.0025 0.0572
vn -0.9981 0.0011 0.0613
vn -0.9984 -0.0012 0.0564
vn -0.9984 -0.0076 0.0556
vn -0.9970 0.0512 0.0574
vn -0.9833 0.0000 -0.1819
vn -0.9814 0.0061 -0.1921
vn -0.9838 0.0014 -0.1794
vn -0.9803 -0.0017 -0.1974
vn -0.9811 0.0261 -0.1915
vn -0.9767 0.1058 -0.1867
vn -0.9227 0.0000 -0.3855
vn -0.9237 0.0153 -0.3827
vn -0.9227 -0.0033 -0.3856
vn -0.9235 0.0016 -0.3836
vn -0.9250 0.0505 -0.3767
vn -0.9173 0.1445 -0.3709
vn -0.9605 0.2784 0.0000
vn -0.9990 -0.0000 0.0443
vn -0.9991 0.0004 0.0431
vn -0.8535 0.3516 0.3845
vn -0.7492 0.5270 0.4013
vn -0.8579 0.4347 0.2741
vn -0.9200 0.3150 0.2331
vn -0.9647 0.2629 -0.0138
vn -0.9799 0.1989 -0.0137
vn -0.9743 0.2066 -0.0898
vn -0.9849 0.1503 -0.0857
vn -0.9621 0.2478 0.1135
vn -0.9751 0.1907 0.1129
vn -0.9987 -0.0001 0.0502
vn -0.9991 0.0003 0.0423
vn -0.9986 0.0020 0.0525
vn -0.9952 0.0641 0.0742
vn -0.9975 0.0000 -0.0713
vn -0.9974 -0.0021 -0.0725
vn -0.9975 -0.0007 -0.0707
vn -0.9973 0.0002 -0.0740
vn -0.9975 -0.0091 -0.0707
vn -0.9963 0.0394 -0.0760
vn -0.9978 0.0000 -0.0657
vn -0.9984 -0.0025 -0.0572
vn -0.9981 0.0011 -0.0614
vn -0.9984 -0.0012 -0.0564
vn -0.9984 -0.0076 -0.0556
vn -0.9970 0.0512 -0.0574
vn -0.9892 -0.0000 0.1468
vn -0.9814 0.0061 0.1921
vn -0.9838 0.0014 0.1794
vn -0.9803 -0.0017 0.1974
vn -0.9811 0.0261 0.1915
vn -0.9767 0.1058 0.1867
vn -0.9227 -0.0000 0.3855
vn -0.9237 0.0153 0.3827
vn -0.9227 -0.0033 0.3856
vn -0.9235 0.0016 0.3836
vn -0.9250 0.0505 0.3767
vn -0.9173 0.1445 0.3709
usemtl None
s 1
f 1/1/1 2/2/2 3/3/3 4/4/4
f 5/5/5 6/6/6 7/7/7 8/8/8
f 6/6/6 9/9/9 10/10/10 7/7/7
f 9/9/9 11/11/11 12/12/12 10/10/10
f 11/11/11 13/13/13 14/14/14 12/12/12
f 3/3/3 2/2/2 15/15/1 16/16/15
f 16/16/15 15/15/1 17/17/16 18/18/17
f 18/18/17 17/17/16 19/19/18 20/20/19
f 20/20/19 19/19/18 21/21/20 22/22/21
f 22/22/21 21/21/20 23/23/22 13/13/13
f 24/24/23 4/4/4 3/3/3 25/25/24
f 25/25/24 3/3/3 16/16/15 26/26/25
f 26/26/25 16/16/15 18/18/17 27/27/26
f 27/27/26 18/18/17 20/20/19 28/28/27
f 28/28/27 20/20/19 22/22/21 29/29/28
f 29/29/28 22/22/21 13/13/13 11/11/11
f 30/30/29 24/24/23 25/25/24 31/31/30
f 31/31/30 25/25/24 26/26/25 32/32/31
f 32/32/31 26/26/25 27/27/26 33/33/32
f 33/33/32 27/27/26 28/28/27 34/34/33
f 34/34/33 28/28/27 29/29/28 35/35/34
f 35/35/34 29/29/28 11/11/11 9/9/9
f 36/36/35 30/30/29 31/31/30 37/37/36
f 37/37/36 31/31/30 32/32/31 38/38/37
f 38/38/37 32/32/31 33/33/32 39/39/38
f 39/39/38 33/33/32 34/34/33 40/40/39
f 40/40/39 34/34/33 35/35/34 41/41/40
f 41/41/40 35/35/34 9/9/9 6/6/6
f 42/42/41 36/36/35 37/37/36 43/43/42
f 43/43/42 37/37/36 38/38/37 44/44/43
f 44/44/43 38/38/37 39/39/38 45/45/44
f 45/45/44 39/39/38 40/40/39 46/46/45
f 46/46/45 40/40/39 41/41/40 47/47/46
f 47/47/46 41/41/40 6/6/6 5/5/5
f 13/13/13 23/23/22 48/48/47 14/14/14
f 1/1/1 49/49/48 50/50/49 2/2/2
f 51/51/50 52/52/51 53/53/52 54/54/53
f 54/54/53 53/53/52 55/55/54 56/56/55
f 56/56/55 55/55/54 57/57/56 58/58/57
f 58/58/57 57/57/56 59/59/58 60/60/59
f 50/50/49 61/61/60 15/15/1 2/2/2
f 61/61/60 62/62/61 17/17/16 15/15/1
f 62/62/61 63/63/62 19/19/18 17/17/16
f 63/63/62 64/64/63 21/21/20 19/19/18
f 64/64/63 60/60/59 23/23/22 21/21/20
f 65/65/64 66/66/65 50/50/49 49/49/48
f 66/66/65 67/67/66 61/61/60 50/50/49
f 67/67/66 68/68/67 62/62/61 61/61/60
f 68/68/67 69/69/68 63/63/62 62/62/61
f 69/69/68 70/70/69 64/64/63 63/63/62
f 70/70/69 58/58/57 60/60/59 64/64/63
f 71/71/70 72/72/71 66/66/65 65/65/64
f 72/72/71 73/73/72 67/67/66 66/66/65
f 73/73/72 74/74/73 68/68/67 67/67/66
f 74/74/73 75/75/74 69/69/68 68/68/67
f 75/75/74 76/76/75 70/70/69 69/69/68
f 76/76/75 56/56/55 58/58/57 70/70/69
f 77/77/76 78/78/77 72/72/71 71/71/70
f 78/78/77 79/79/78 73/73/72 72/72/71
f 79/79/78 80/80/79 74/74/73 73/73/72
f 80/80/79 81/81/80 75/75/74 74/74/73
f 81/81/80 82/82/81 76/76/75 75/75/74
f 82/82/81 54/54/53 56/56/55 76/76/75
f 83/83/82 84/84/83 78/78/77 77/77/76
f 84/84/83 85/85/84 79/79/78 78/78/77
f 85/85/84 86/86/85 80/80/79 79/79/78
f 86/86/85 87/87/86 81/81/80 80/80/79
f 87/87/86 88/88/87 82/82/81 81/81/80
f 88/88/87 51/51/50 54/54/53 82/82/81
f 60/60/59 59/59/58 48/48/47 23/23/22
