# Blender v2.79 (sub 0) OBJ File: 'Basket_Panda.blend'
# www.blender.org
mtllib body_11.mtl
o Cube.001
v -0.403194 0.738240 0.309827
v -0.403194 0.916301 0.309827
v -0.403194 0.738240 0.131766
v -0.403194 0.916301 0.131766
v -0.581255 0.738240 0.309827
v -0.581255 0.916301 0.309827
v -0.581255 0.738240 0.131766
v -0.581255 0.916301 0.131766
v -0.581255 0.738240 -0.309827
v -0.581255 0.738240 -0.131766
v -0.581255 0.916301 -0.131766
v -0.403194 0.916301 -0.309827
v -0.403194 0.738240 -0.309827
v -0.403194 0.738240 -0.131766
v -0.403194 0.916301 -0.131766
v -0.581255 0.916301 -0.309827
v -0.016975 0.074099 0.280625
v -0.016975 0.807731 0.280625
v -0.016975 0.074099 0.193071
v -0.016975 0.807731 0.193071
v 0.411893 0.074099 0.280625
v 0.411893 0.807731 0.280625
v 0.411893 0.074099 0.193071
v 0.411893 0.807731 0.193071
v -0.016975 0.181316 0.280625
v -0.016975 0.700514 0.280625
v -0.016975 0.700514 0.193071
v -0.016975 0.181316 0.193071
v 0.304676 0.181316 0.280625
v 0.304676 0.700514 0.280625
v 0.304676 0.181316 0.193071
v 0.304676 0.700514 0.193071
v -0.016975 0.074099 -0.280625
v -0.016975 0.807731 -0.280625
v -0.016975 0.074099 -0.193071
v -0.016975 0.807731 -0.193071
v 0.411893 0.074099 -0.280625
v 0.411893 0.807731 -0.280625
v 0.411893 0.074099 -0.193071
v 0.411893 0.807731 -0.193071
v -0.016975 0.181316 -0.280625
v -0.016975 0.700514 -0.280625
v -0.016975 0.700514 -0.193071
v -0.016975 0.181316 -0.193071
v 0.304676 0.181316 -0.280625
v 0.304676 0.700514 -0.280625
v 0.304676 0.181316 -0.193071
v 0.304676 0.700514 -0.193071
v -0.559687 0.000001 0.384556
v -0.559687 0.891261 0.384556
v -0.559687 0.000001 -0.384556
v -0.559687 0.891261 -0.384556
v -0.005403 0.000001 0.384556
v -0.005403 0.891261 0.384556
v -0.005403 0.000001 -0.384556
v -0.005403 0.891261 -0.384556
v -0.084587 0.891261 0.274683
v -0.480503 0.891261 0.274683
v -0.084587 0.891261 -0.274683
v -0.480503 0.891261 -0.274683
v -0.084587 0.857486 0.274683
v -0.480503 0.857486 0.274683
v -0.084587 0.857486 -0.274683
v -0.480503 0.857486 -0.274683
v -0.316090 1.111887 -0.283146
v -0.316090 1.272004 -0.283146
v -0.316090 1.111887 -0.123030
v -0.316090 1.272004 -0.123030
v -0.374135 1.111887 -0.283146
v -0.374135 1.272004 -0.283146
v -0.374135 1.111887 -0.123030
v -0.374135 1.272004 -0.123030
v -0.316090 1.111887 0.283146
v -0.316090 1.272004 0.283146
v -0.316090 1.111887 0.123029
v -0.316090 1.272004 0.123029
v -0.374135 1.111887 0.283146
v -0.374135 1.272004 0.283146
v -0.374135 1.111887 0.123029
v -0.374135 1.272004 0.123029
v -0.429252 0.898484 -0.071380
v -0.429252 1.011179 -0.071380
v -0.429252 0.898484 0.071379
v -0.429252 1.011179 0.071379
v -0.491498 0.898484 -0.071380
v -0.491498 1.011179 -0.071380
v -0.491498 0.898484 0.071379
v -0.491498 1.011179 0.071379
v -0.113323 0.843252 -0.169664
v -0.113323 1.182581 -0.169664
v -0.113323 0.843252 0.169664
v -0.113323 1.182581 0.169664
v -0.452651 0.843252 -0.169664
v -0.452651 1.182581 -0.169664
v -0.452651 0.843252 0.169664
v -0.452651 1.182581 0.169664
vt 0.879652 0.660615
vt 0.774478 0.660615
vt 0.774478 0.555441
vt 0.879652 0.555441
vt 0.879652 0.976137
vt 0.774478 0.976137
vt 0.774478 0.870963
vt 0.879652 0.870963
vt 0.879652 0.765789
vt 0.984826 0.765789
vt 0.984826 0.870963
vt 0.879652 0.765789
vt 0.879652 0.660615
vt 0.774478 0.660615
vt 0.774478 0.765789
vt 0.879652 0.555441
vt 0.774478 0.555441
vt 0.669304 0.765789
vt 0.669304 0.870963
vt 0.774478 0.870963
vt 0.879652 0.870963
vt 0.879652 0.765789
vt 0.774478 0.765789
vt 0.774478 0.870963
vt 0.879652 0.660615
vt 0.774478 0.660615
vt 0.879652 0.555441
vt 0.774478 0.555441
vt 0.879652 0.976137
vt 0.774478 0.976137
vt 0.984826 0.870963
vt 0.984826 0.765789
vt 0.669304 0.765789
vt 0.669304 0.870963
vt 0.232055 0.083704
vt 0.253842 0.105491
vt 0.104762 0.105491
vt 0.126550 0.083704
vt 0.017613 0.123283
vt 0.017613 0.105491
vt 0.104762 0.123283
vt 0.126550 0.145070
vt 0.253842 0.123282
vt 0.232055 0.145070
vt 0.340991 0.105491
vt 0.340991 0.123282
vt 0.253842 0.018342
vt 0.232055 0.018342
vt 0.253842 0.210431
vt 0.232055 0.210432
vt 0.104762 0.210432
vt 0.126550 0.210432
vt 0.104762 0.018342
vt 0.126549 0.018342
vt 0.055071 0.320628
vt 0.036141 0.320628
vt 0.036141 0.208372
vt 0.055071 0.208372
vt 0.036141 0.138828
vt 0.055071 0.138828
vt 0.055071 0.390172
vt 0.036141 0.390172
vt 0.232055 0.145070
vt 0.126550 0.145070
vt 0.104762 0.123283
vt 0.253842 0.123283
vt 0.017613 0.105491
vt 0.104762 0.105491
vt 0.017613 0.123283
vt 0.126550 0.083704
vt 0.232055 0.083704
vt 0.253842 0.105491
vt 0.340992 0.105491
vt 0.340992 0.123283
vt 0.253842 0.210432
vt 0.232055 0.210432
vt 0.253842 0.018342
vt 0.232055 0.018342
vt 0.104762 0.018342
vt 0.126550 0.018342
vt 0.104763 0.210432
vt 0.126550 0.210432
vt 0.036141 0.320628
vt 0.036141 0.208372
vt 0.055071 0.208372
vt 0.055071 0.320628
vt 0.055071 0.138828
vt 0.036141 0.138828
vt 0.055071 0.390172
vt 0.036141 0.390172
vt 0.378976 0.446334
vt 0.160262 0.446334
vt 0.160262 0.257596
vt 0.378976 0.257596
vt 0.378976 0.582355
vt 0.160262 0.582355
vt 0.160262 0.771093
vt 0.024242 0.771093
vt 0.024242 0.582355
vt 0.378976 0.771093
vt 0.129487 0.559896
vt 0.129465 0.497076
vt 0.088509 0.497090
vt 0.088531 0.559911
vt 0.495565 0.609317
vt 0.398408 0.609317
vt 0.514996 0.582354
vt 0.129413 0.347089
vt 0.129383 0.259921
vt 0.088427 0.259935
vt 0.088458 0.347103
vt 0.378976 0.907113
vt 0.160262 0.907113
vt 0.088479 0.409923
vt 0.129435 0.409909
vt 0.514996 0.771093
vt 0.495565 0.744130
vt 0.025689 0.497112
vt 0.025659 0.409945
vt 0.398408 0.744130
vt 0.397444 0.335167
vt 0.397444 0.219812
vt 0.512799 0.219812
vt 0.512799 0.335167
vt 0.554617 0.062639
vt 0.554617 0.177994
vt 0.512799 0.177994
vt 0.512799 0.062639
vt 0.397444 0.177994
vt 0.397444 0.062639
vt 0.355625 0.177994
vt 0.355625 0.062639
vt 0.512799 0.020820
vt 0.397444 0.020820
vt 0.936653 0.335167
vt 0.821298 0.335167
vt 0.821298 0.219812
vt 0.936653 0.219812
vt 0.779480 0.062639
vt 0.821298 0.062639
vt 0.821298 0.177994
vt 0.779480 0.177994
vt 0.936653 0.062639
vt 0.936653 0.177994
vt 0.978472 0.062639
vt 0.978472 0.177994
vt 0.821298 0.020820
vt 0.936653 0.020820
vt 0.630423 0.841201
vt 0.630423 0.929314
vt 0.581755 0.929314
vt 0.581755 0.841201
vt 0.470136 0.929314
vt 0.470136 0.841201
vt 0.421468 0.929314
vt 0.421468 0.841201
vt 0.581755 0.792533
vt 0.470136 0.792533
vt 0.581755 0.977982
vt 0.470136 0.977982
vt 0.751886 0.019657
vt 0.751886 0.191683
vt 0.579861 0.191683
vt 0.579861 0.019657
vt 0.407836 0.535734
vt 0.407836 0.363708
vt 0.579861 0.363708
vt 0.579861 0.535734
vt 0.751886 0.363708
vt 0.751886 0.535733
vt 0.923912 0.363708
vt 0.923912 0.535733
vt 0.579861 0.707759
vt 0.751887 0.707759
vn 1.0000 0.0000 0.0000
vn 0.0000 0.0000 1.0000
vn 0.0000 -1.0000 0.0000
vn 0.0000 0.0000 -1.0000
vn -1.0000 0.0000 0.0000
vn 0.0000 1.0000 0.0000
usemtl Material.002
s off
f 3/1/1 4/2/1 2/3/1 1/4/1
f 1/5/2 2/6/2 6/7/2 5/8/2
f 7/9/3 3/10/3 1/11/3 5/8/3
f 3/12/4 7/13/4 8/14/4 4/15/4
f 7/13/5 5/16/5 6/17/5 8/14/5
f 8/18/6 6/19/6 2/20/6 4/15/6
f 9/21/5 10/22/5 11/23/5 16/24/5
f 10/22/2 14/25/2 15/26/2 11/23/2
f 14/25/1 13/27/1 12/28/1 15/26/1
f 13/29/4 9/21/4 16/24/4 12/30/4
f 10/22/3 9/21/3 13/31/3 14/32/3
f 15/33/6 12/34/6 16/24/6 11/23/6
f 29/35/2 21/36/2 22/37/2 30/38/2
f 20/39/6 18/40/6 22/37/6 24/41/6
f 32/42/4 24/41/4 23/43/4 31/44/4
f 23/43/3 21/36/3 17/45/3 19/46/3
f 17/47/2 21/36/2 29/35/2 25/48/2
f 19/49/4 28/50/4 31/44/4 23/43/4
f 20/51/4 24/41/4 32/42/4 27/52/4
f 23/43/1 24/41/1 22/37/1 21/36/1
f 18/53/2 26/54/2 30/38/2 22/37/2
f 31/55/5 29/56/5 30/57/5 32/58/5
f 26/59/3 27/60/3 32/58/3 30/57/3
f 31/55/6 28/61/6 25/62/6 29/56/6
f 45/63/4 46/64/4 38/65/4 37/66/4
f 36/67/6 40/68/6 38/65/6 34/69/6
f 48/70/2 47/71/2 39/72/2 40/68/2
f 39/72/3 35/73/3 33/74/3 37/66/3
f 33/75/4 41/76/4 45/63/4 37/66/4
f 35/77/2 39/72/2 47/71/2 44/78/2
f 36/79/2 43/80/2 48/70/2 40/68/2
f 39/72/1 37/66/1 38/65/1 40/68/1
f 34/81/4 38/65/4 46/64/4 42/82/4
f 47/83/5 48/84/5 46/85/5 45/86/5
f 42/87/3 46/85/3 48/84/3 43/88/3
f 47/83/6 45/86/6 41/89/6 44/90/6
f 52/91/5 51/92/5 49/93/5 50/94/5
f 51/92/4 52/91/4 56/95/4 55/96/4
f 55/96/3 53/97/3 49/98/3 51/99/3
f 54/100/1 53/97/1 55/96/1 56/95/1
f 59/101/2 60/102/2 64/103/2 63/104/2
f 60/105/6 59/106/6 56/95/6 52/107/6
f 57/108/5 59/109/5 63/110/5 61/111/5
f 53/97/2 54/100/2 50/112/2 49/113/2
f 57/108/4 61/111/4 62/114/4 58/115/4
f 52/107/6 50/116/6 58/117/6 60/105/6
f 58/115/1 62/114/1 64/103/1 60/102/1
f 63/118/6 64/103/6 62/114/6 61/119/6
f 54/100/6 56/95/6 59/106/6 57/120/6
f 50/116/6 54/100/6 57/120/6 58/117/6
f 65/121/1 66/122/1 68/123/1 67/124/1
f 67/125/2 68/126/2 72/127/2 71/128/2
f 71/128/5 72/127/5 70/129/5 69/130/5
f 69/130/4 70/129/4 66/131/4 65/132/4
f 67/133/3 71/128/3 69/130/3 65/134/3
f 72/127/6 68/123/6 66/122/6 70/129/6
f 73/135/1 75/136/1 76/137/1 74/138/1
f 75/139/4 79/140/4 80/141/4 76/142/4
f 79/140/5 77/143/5 78/144/5 80/141/5
f 77/143/2 73/145/2 74/146/2 78/144/2
f 75/147/3 73/148/3 77/143/3 79/140/3
f 80/141/6 78/144/6 74/138/6 76/137/6
f 83/149/2 84/150/2 88/151/2 87/152/2
f 87/152/5 88/151/5 86/153/5 85/154/5
f 85/154/4 86/153/4 82/155/4 81/156/4
f 83/157/3 87/152/3 85/154/3 81/158/3
f 88/151/6 84/159/6 82/160/6 86/153/6
f 89/161/1 90/162/1 92/163/1 91/164/1
f 91/165/2 92/166/2 96/167/2 95/168/2
f 95/168/5 96/167/5 94/169/5 93/170/5
f 93/170/4 94/169/4 90/171/4 89/172/4
f 91/173/3 95/168/3 93/170/3 89/174/3
f 96/167/6 92/163/6 90/162/6 94/169/6
