# Blender v2.79 (sub 0) OBJ File: ''
# www.blender.org
mtllib body_68.mtl
o Cube.010_Cube.000
v -0.556686 0.062642 -0.817146
v -0.556686 -1.525467 -1.346731
v -1.014925 0.328149 0.000000
v -0.556686 -0.531050 -0.000000
v -0.556686 -1.525469 1.346730
v -0.556686 0.062642 0.817146
v -0.556686 2.619344 0.000000
v -0.556686 1.023255 -0.505024
v -0.556686 1.036165 2.179056
v -0.556686 1.023255 0.505024
v -0.556686 1.036167 -2.179056
v -0.152254 0.328149 0.000000
v -0.977043 0.382425 0.346085
v -1.038419 0.386198 0.360257
v -0.924937 0.815225 0.445762
v -0.868988 0.792913 0.428099
v -0.950497 -0.039906 0.261746
v -1.011562 -0.052512 0.272382
v -0.834347 -0.443602 0.180983
v -0.888470 -0.474918 0.187894
v -0.592024 -0.717876 0.111367
v -0.635569 -0.763832 0.114821
v -0.083038 -1.016473 0.087733
v -0.083038 -1.053505 0.134050
v -0.659544 -0.798919 0.161411
v -0.713434 1.117859 0.577873
v -0.083038 1.299433 0.620031
v -0.083038 1.281723 0.563122
v -0.688614 1.103429 0.522241
v -0.083038 -0.966424 0.084976
v -0.820390 0.763270 0.456900
v -0.646920 1.060656 0.501106
v -0.612658 1.013672 0.528231
v -0.923601 0.370172 0.378897
v -0.897901 -0.038093 0.297800
v -0.786828 -0.424172 0.220218
v -0.554906 -0.688456 0.153111
v -0.083038 -0.933101 0.127632
v -0.808681 0.743927 0.518276
v -0.606880 0.991274 0.588115
v -0.910722 0.356463 0.440653
v -0.885541 -0.048380 0.359749
v -0.776027 -0.430645 0.285157
v -0.545404 -0.692394 0.215348
v -0.083038 -0.935827 0.190186
v -0.842824 0.748426 0.573808
v -0.632594 1.006883 0.644399
v -0.946860 0.349748 0.493423
v -0.920931 -0.064586 0.410379
v -0.809836 -0.458702 0.333005
v -0.569359 -0.728021 0.262449
v -0.083038 -0.972856 0.236503
v -0.899691 0.772467 0.589362
v -0.674291 1.050524 0.664123
v -1.008940 0.353897 0.505920
v -0.982496 -0.077027 0.419827
v -0.864807 -0.489243 0.337040
v -0.613285 -0.774428 0.265448
v -0.083038 -1.022903 0.239261
v -0.946386 0.800950 0.558769
v -0.707617 1.096282 0.636332
v -1.060664 0.366198 0.472364
v -1.033901 -0.078533 0.383330
v -0.910143 -0.506247 0.297398
v -0.650394 -0.803282 0.223237
v -0.083038 -1.056230 0.196604
v -0.957001 0.818474 0.499549
v -1.072803 0.379520 0.412315
v -1.045773 -0.068412 0.322570
v -0.919953 -0.500508 0.235642
v -0.083038 1.276983 0.678796
v -0.083038 1.227210 0.705208
v -0.083038 1.179349 0.683398
v -0.083038 1.161614 0.626483
v -0.083038 1.184081 0.567725
v -0.083038 1.233882 0.541319
v -0.977044 0.382425 -0.346085
v -0.868988 0.792913 -0.428099
v -0.924938 0.815225 -0.445762
v -1.038419 0.386198 -0.360257
v -0.950498 -0.039906 -0.261745
v -1.011562 -0.052512 -0.272382
v -0.834347 -0.443602 -0.180982
v -0.888469 -0.474918 -0.187893
v -0.592024 -0.717876 -0.111367
v -0.635569 -0.763832 -0.114821
v -0.083038 -1.016473 -0.087733
v -0.659544 -0.798919 -0.161411
v -0.083038 -1.053505 -0.134050
v -0.713434 1.117860 -0.577873
v -0.688614 1.103429 -0.522241
v -0.083038 1.281723 -0.563122
v -0.083038 1.299434 -0.620031
v -0.083038 -0.966424 -0.084976
v -0.820390 0.763270 -0.456900
v -0.612659 1.013672 -0.528231
v -0.646920 1.060656 -0.501106
v -0.923601 0.370172 -0.378897
v -0.897901 -0.038093 -0.297800
v -0.786828 -0.424172 -0.220218
v -0.554906 -0.688456 -0.153111
v -0.083038 -0.933101 -0.127632
v -0.808681 0.743926 -0.518276
v -0.606880 0.991275 -0.588114
v -0.910722 0.356463 -0.440653
v -0.885541 -0.048380 -0.359749
v -0.776027 -0.430645 -0.285157
v -0.545404 -0.692394 -0.215348
v -0.083038 -0.935827 -0.190186
v -0.842824 0.748426 -0.573808
v -0.632594 1.006884 -0.644399
v -0.946860 0.349748 -0.493423
v -0.920932 -0.064586 -0.410379
v -0.809836 -0.458702 -0.333005
v -0.569359 -0.728021 -0.262449
v -0.083038 -0.972856 -0.236503
v -0.899691 0.772467 -0.589362
v -0.674291 1.050524 -0.664123
v -1.008940 0.353897 -0.505920
v -0.982496 -0.077027 -0.419827
v -0.864807 -0.489243 -0.337040
v -0.613285 -0.774427 -0.265448
v -0.083038 -1.022903 -0.239261
v -0.946386 0.800951 -0.558769
v -0.707618 1.096283 -0.636332
v -1.060664 0.366198 -0.472364
v -1.033901 -0.078533 -0.383329
v -0.910143 -0.506247 -0.297398
v -0.650394 -0.803282 -0.223237
v -0.083038 -1.056230 -0.196604
v -0.957001 0.818474 -0.499548
v -1.072803 0.379520 -0.412315
v -1.045773 -0.068412 -0.322570
v -0.919953 -0.500508 -0.235642
v -0.083038 1.276983 -0.678796
v -0.083038 1.227210 -0.705208
v -0.083038 1.179350 -0.683398
v -0.083038 1.161615 -0.626483
v -0.083038 1.184082 -0.567725
v -0.083038 1.233883 -0.541319
vt 0.461648 0.234853
vt 0.642696 0.380595
vt 0.327897 0.278311
vt 0.410560 0.392087
vt 0.327897 0.609310
vt 0.245234 0.392087
vt 0.133341 0.010528
vt 0.327897 0.137677
vt 0.013099 0.380596
vt 0.194146 0.234853
vt 0.522453 0.010528
vt 0.867042 0.404184
vt 0.794635 0.627612
vt 0.677258 0.665407
vt 0.677587 0.542100
vt 0.560084 0.626985
vt 0.487473 0.404184
vt 0.677257 0.988307
vt 0.749476 0.765363
vt 0.370145 0.765180
vt 0.604506 0.764976
vt 0.984370 0.765180
vt 0.050188 0.754132
vt 0.059151 0.754132
vt 0.059151 0.813900
vt 0.050188 0.813900
vt 0.050188 0.694151
vt 0.059151 0.694151
vt 0.050188 0.635484
vt 0.059151 0.635484
vt 0.050188 0.587806
vt 0.059151 0.587806
vt 0.059151 0.489786
vt 0.067990 0.489786
vt 0.067990 0.587806
vt 0.067990 0.861048
vt 0.067990 0.967975
vt 0.059151 0.967975
vt 0.059151 0.861048
vt 0.050188 0.489786
vt 0.040890 0.813900
vt 0.050188 0.861048
vt 0.040890 0.861048
vt 0.040890 0.754132
vt 0.040890 0.694151
vt 0.040890 0.635484
vt 0.040890 0.587806
vt 0.040890 0.489786
vt 0.031310 0.813900
vt 0.031310 0.861048
vt 0.031310 0.754132
vt 0.031310 0.694151
vt 0.031310 0.635484
vt 0.031310 0.587806
vt 0.031310 0.489786
vt 0.094572 0.813900
vt 0.103907 0.813900
vt 0.103907 0.861048
vt 0.094572 0.861048
vt 0.094572 0.754132
vt 0.103907 0.754132
vt 0.094572 0.694151
vt 0.103907 0.694151
vt 0.094572 0.635484
vt 0.103907 0.635484
vt 0.094572 0.587806
vt 0.103907 0.587806
vt 0.094572 0.489786
vt 0.103907 0.489786
vt 0.085696 0.813900
vt 0.085696 0.861048
vt 0.085696 0.754132
vt 0.085696 0.694151
vt 0.085696 0.635484
vt 0.085696 0.587806
vt 0.085696 0.489786
vt 0.076978 0.813900
vt 0.076978 0.861048
vt 0.076978 0.754132
vt 0.076978 0.694151
vt 0.076978 0.635484
vt 0.076978 0.587806
vt 0.076978 0.489786
vt 0.067990 0.813900
vt 0.067990 0.754132
vt 0.067990 0.694151
vt 0.067990 0.635484
vt 0.076978 0.967975
vt 0.085696 0.967975
vt 0.094572 0.967975
vt 0.103907 0.967975
vt 0.040890 0.967975
vt 0.031310 0.967975
vt 0.050188 0.967975
vt 0.218712 0.753318
vt 0.218712 0.813143
vt 0.209792 0.813143
vt 0.209792 0.753318
vt 0.218712 0.693282
vt 0.209792 0.693282
vt 0.218712 0.634689
vt 0.209792 0.634689
vt 0.218712 0.587021
vt 0.209792 0.587021
vt 0.209792 0.488745
vt 0.200984 0.587021
vt 0.200984 0.488745
vt 0.200984 0.860190
vt 0.209792 0.860190
vt 0.209792 0.966741
vt 0.200984 0.966741
vt 0.218712 0.488745
vt 0.227822 0.813143
vt 0.227822 0.860190
vt 0.218712 0.860190
vt 0.227822 0.753318
vt 0.227822 0.693282
vt 0.227822 0.634689
vt 0.227822 0.587021
vt 0.227822 0.488745
vt 0.237208 0.813143
vt 0.237208 0.860190
vt 0.237208 0.753318
vt 0.237208 0.693282
vt 0.237208 0.634689
vt 0.237208 0.587021
vt 0.237208 0.488745
vt 0.174270 0.813143
vt 0.174270 0.860190
vt 0.164902 0.860190
vt 0.164902 0.813143
vt 0.174270 0.753318
vt 0.164902 0.753318
vt 0.174270 0.693282
vt 0.164902 0.693282
vt 0.174270 0.634689
vt 0.164902 0.634689
vt 0.174270 0.587021
vt 0.164902 0.587021
vt 0.174270 0.488745
vt 0.164902 0.488745
vt 0.183191 0.813143
vt 0.183191 0.860190
vt 0.183191 0.753318
vt 0.183191 0.693282
vt 0.183191 0.634689
vt 0.183191 0.587021
vt 0.183191 0.488745
vt 0.192014 0.813143
vt 0.192014 0.860190
vt 0.192014 0.753318
vt 0.192014 0.693282
vt 0.192014 0.634689
vt 0.192014 0.587021
vt 0.192014 0.488745
vt 0.200984 0.813143
vt 0.200984 0.753318
vt 0.200984 0.693282
vt 0.200984 0.634689
vt 0.192014 0.966741
vt 0.183191 0.966741
vt 0.174270 0.966741
vt 0.164902 0.966741
vt 0.237208 0.966741
vt 0.227822 0.966741
vt 0.218712 0.966741
vn -0.8335 0.3282 -0.4445
vn -0.8335 -0.5242 0.1748
vn -0.8335 -0.5242 0.1747
vn -0.8335 0.0042 0.5525
vn -0.8335 0.0043 0.5525
vn -0.8335 0.3213 -0.4495
vn -0.8335 0.5268 0.1667
vn -0.8335 -0.3282 -0.4445
vn -0.8335 -0.5268 0.1667
vn -0.8335 0.5242 0.1748
vn -0.8335 -0.3213 -0.4495
vn -0.8335 -0.0043 0.5525
vn 0.8612 0.3135 -0.4000
vn 0.8605 0.3140 -0.4011
vn 0.8604 0.3141 -0.4013
vn 0.8621 -0.4852 0.1461
vn 0.8626 -0.4845 0.1457
vn 0.8617 -0.4859 0.1464
vn 0.8617 -0.0108 0.5073
vn 0.8621 -0.0110 0.5065
vn 0.8626 -0.0110 0.5057
vn 0.8622 0.3066 -0.4034
vn 0.8627 0.3062 -0.4026
vn 0.8617 0.3070 -0.4041
vn 0.8621 0.4784 0.1670
vn 0.8626 0.4776 0.1668
vn 0.8617 0.4792 0.1670
vn 0.8622 -0.2890 -0.4162
vn 0.8626 -0.2884 -0.4156
vn 0.8617 -0.2895 -0.4168
vn 0.8613 -0.4887 0.1393
vn 0.8605 -0.4898 0.1399
vn 0.8604 -0.4900 0.1400
vn 0.8605 0.4786 0.1747
vn 0.8604 0.4788 0.1747
vn 0.8612 0.4774 0.1745
vn 0.8613 -0.2835 -0.4217
vn 0.8605 -0.2844 -0.4226
vn 0.8604 -0.2845 -0.4227
vn 0.8606 -0.0183 0.5090
vn 0.8604 -0.0183 0.5093
vn 0.8613 -0.0185 0.5078
vn 0.1430 0.1803 -0.9732
vn -0.5836 0.2142 -0.7833
vn -0.5152 0.4314 -0.7406
vn 0.1330 0.1581 -0.9784
vn 0.1564 0.2196 -0.9630
vn -0.5712 0.0646 -0.8182
vn 0.1053 0.2726 -0.9564
vn -0.5289 -0.1045 -0.8422
vn 0.1003 0.3089 -0.9458
vn -0.3601 -0.3195 -0.8765
vn -0.2563 -0.4775 -0.8405
vn -0.3984 -0.8585 -0.3228
vn -0.5941 -0.7307 -0.3363
vn -0.5538 0.8325 -0.0123
vn -0.2802 0.9595 0.0304
vn -0.1806 0.7612 -0.6229
vn -0.3224 0.6750 -0.6636
vn 0.0879 0.2707 -0.9586
vn 0.7273 -0.2217 -0.6496
vn 0.0968 0.1201 -0.9880
vn 0.4745 -0.5408 -0.6946
vn 0.8084 0.0384 -0.5874
vn 0.8088 0.2465 -0.5338
vn 0.7084 0.4997 -0.4985
vn 0.5100 0.7503 -0.4208
vn 0.4066 0.8317 -0.3781
vn 0.8731 -0.4730 0.1180
vn 0.5453 -0.8366 0.0529
vn 0.9739 -0.1318 0.1847
vn 0.9645 0.1193 0.2356
vn 0.8620 0.4007 0.3106
vn 0.6059 0.7219 0.3344
vn 0.4450 0.8204 0.3592
vn 0.4353 -0.4068 0.8032
vn 0.2614 -0.5873 0.7660
vn 0.5123 -0.2161 0.8312
vn 0.5166 -0.0815 0.8523
vn 0.4428 0.0416 0.8957
vn 0.3263 0.2483 0.9121
vn 0.2080 0.3115 0.9272
vn -0.2484 -0.0927 0.9642
vn -0.1738 0.0326 0.9842
vn -0.2426 -0.1670 0.9557
vn -0.2311 -0.2293 0.9455
vn -0.2178 -0.3230 0.9210
vn -0.1610 -0.4135 0.8962
vn -0.1737 -0.4748 0.8628
vn -0.7707 0.2594 0.5820
vn -0.4971 0.5889 0.6373
vn -0.8414 -0.0243 0.5399
vn -0.8323 -0.2437 0.4979
vn -0.7434 -0.5021 0.4420
vn -0.5187 -0.7794 0.3515
vn -0.3795 -0.8773 0.2939
vn -0.8772 0.4680 -0.1076
vn -0.9775 0.1303 -0.1657
vn -0.9677 -0.1237 -0.2199
vn -0.8678 -0.4153 -0.2728
vn -0.2553 0.7306 0.6332
vn -0.0959 0.0999 0.9904
vn 0.1595 -0.6698 0.7253
vn 0.3062 -0.9520 0.0006
vn 0.2670 -0.6772 -0.6856
vn 0.0531 0.0668 -0.9964
vn 0.1430 0.1803 0.9732
vn 0.1330 0.1581 0.9784
vn -0.5152 0.4314 0.7406
vn -0.5836 0.2142 0.7833
vn 0.1564 0.2196 0.9630
vn -0.5712 0.0646 0.8182
vn 0.1053 0.2726 0.9564
vn -0.5289 -0.1045 0.8422
vn 0.1003 0.3089 0.9458
vn -0.3601 -0.3195 0.8765
vn -0.2563 -0.4775 0.8405
vn -0.5941 -0.7307 0.3363
vn -0.3984 -0.8585 0.3228
vn -0.5538 0.8325 0.0123
vn -0.3224 0.6750 0.6636
vn -0.1806 0.7612 0.6229
vn -0.2802 0.9595 -0.0304
vn 0.0879 0.2707 0.9586
vn 0.7273 -0.2217 0.6496
vn 0.4745 -0.5408 0.6946
vn 0.0968 0.1201 0.9880
vn 0.8084 0.0384 0.5874
vn 0.8088 0.2465 0.5338
vn 0.7084 0.4997 0.4985
vn 0.5100 0.7503 0.4208
vn 0.4066 0.8317 0.3781
vn 0.8731 -0.4730 -0.1180
vn 0.5453 -0.8366 -0.0528
vn 0.9739 -0.1318 -0.1847
vn 0.9645 0.1193 -0.2356
vn 0.8620 0.4007 -0.3106
vn 0.6059 0.7219 -0.3344
vn 0.4450 0.8204 -0.3592
vn 0.4353 -0.4068 -0.8032
vn 0.2614 -0.5873 -0.7660
vn 0.5123 -0.2161 -0.8312
vn 0.5166 -0.0815 -0.8523
vn 0.4428 0.0416 -0.8957
vn 0.3263 0.2483 -0.9121
vn 0.2080 0.3115 -0.9272
vn -0.2484 -0.0927 -0.9642
vn -0.1738 0.0326 -0.9842
vn -0.2426 -0.1670 -0.9557
vn -0.2311 -0.2293 -0.9455
vn -0.2178 -0.3230 -0.9210
vn -0.1610 -0.4135 -0.8962
vn -0.1737 -0.4748 -0.8628
vn -0.7707 0.2594 -0.5820
vn -0.4971 0.5889 -0.6373
vn -0.8414 -0.0243 -0.5399
vn -0.8323 -0.2437 -0.4978
vn -0.7434 -0.5021 -0.4420
vn -0.5187 -0.7794 -0.3515
vn -0.3795 -0.8773 -0.2939
vn -0.8772 0.4680 0.1076
vn -0.9775 0.1303 0.1657
vn -0.9677 -0.1237 0.2199
vn -0.8678 -0.4153 0.2728
vn -0.2553 0.7306 -0.6332
vn -0.0959 0.0999 -0.9904
vn 0.1595 -0.6698 -0.7253
vn 0.3062 -0.9520 -0.0006
vn 0.2670 -0.6772 0.6856
vn 0.0531 0.0668 0.9964
usemtl None.001
s 1
f 1/1/1 2/2/1 3/3/1
f 3/3/2 2/2/3 4/4/3
f 5/5/4 6/6/5 3/3/4
f 3/3/6 7/7/6 8/8/6
f 3/3/7 9/9/7 10/10/7
f 3/3/8 11/11/8 1/1/8
f 6/6/9 9/9/9 3/3/9
f 3/3/10 8/8/10 11/11/10
f 4/4/11 5/5/11 3/3/11
f 3/3/12 10/10/12 7/7/12
f 2/12/13 1/13/14 12/14/15
f 2/12/16 12/14/17 4/15/18
f 6/16/19 5/17/20 12/14/21
f 7/18/22 12/14/23 8/19/24
f 9/20/25 12/14/26 10/21/27
f 11/22/28 12/14/29 1/13/30
f 9/20/31 6/16/32 12/14/33
f 8/19/34 12/14/35 11/22/36
f 5/17/37 4/15/38 12/14/39
f 10/21/40 12/14/41 7/18/42
f 13/23/43 14/24/44 15/25/45 16/26/46
f 17/27/47 18/28/48 14/24/44 13/23/43
f 19/29/49 20/30/50 18/28/48 17/27/47
f 21/31/51 22/32/52 20/30/50 19/29/49
f 23/33/53 24/34/54 25/35/55 22/32/52
f 26/36/56 27/37/57 28/38/58 29/39/59
f 23/33/53 22/32/52 21/31/51 30/40/60
f 31/41/61 16/26/46 32/42/62 33/43/63
f 34/44/64 13/23/43 16/26/46 31/41/61
f 35/45/65 17/27/47 13/23/43 34/44/64
f 36/46/66 19/29/49 17/27/47 35/45/65
f 37/47/67 21/31/51 19/29/49 36/46/66
f 38/48/68 30/40/60 21/31/51 37/47/67
f 39/49/69 31/41/61 33/43/63 40/50/70
f 41/51/71 34/44/64 31/41/61 39/49/69
f 42/52/72 35/45/65 34/44/64 41/51/71
f 43/53/73 36/46/66 35/45/65 42/52/72
f 44/54/74 37/47/67 36/46/66 43/53/73
f 45/55/75 38/48/68 37/47/67 44/54/74
f 46/56/76 39/57/69 40/58/70 47/59/77
f 48/60/78 41/61/71 39/57/69 46/56/76
f 49/62/79 42/63/72 41/61/71 48/60/78
f 50/64/80 43/65/73 42/63/72 49/62/79
f 51/66/81 44/67/74 43/65/73 50/64/80
f 52/68/82 45/69/75 44/67/74 51/66/81
f 53/70/83 46/56/76 47/59/77 54/71/84
f 55/72/85 48/60/78 46/56/76 53/70/83
f 56/73/86 49/62/79 48/60/78 55/72/85
f 57/74/87 50/64/80 49/62/79 56/73/86
f 58/75/88 51/66/81 50/64/80 57/74/87
f 59/76/89 52/68/82 51/66/81 58/75/88
f 60/77/90 53/70/83 54/71/84 61/78/91
f 62/79/92 55/72/85 53/70/83 60/77/90
f 63/80/93 56/73/86 55/72/85 62/79/92
f 64/81/94 57/74/87 56/73/86 63/80/93
f 65/82/95 58/75/88 57/74/87 64/81/94
f 66/83/96 59/76/89 58/75/88 65/82/95
f 67/84/97 60/77/90 61/78/91 26/36/56
f 68/85/98 62/79/92 60/77/90 67/84/97
f 69/86/99 63/80/93 62/79/92 68/85/98
f 70/87/100 64/81/94 63/80/93 69/86/99
f 25/35/55 65/82/95 64/81/94 70/87/100
f 24/34/54 66/83/96 65/82/95 25/35/55
f 15/25/45 67/84/97 26/36/56 29/39/59
f 14/24/44 68/85/98 67/84/97 15/25/45
f 18/28/48 69/86/99 68/85/98 14/24/44
f 20/30/50 70/87/100 69/86/99 18/28/48
f 22/32/52 25/35/55 70/87/100 20/30/50
f 16/26/46 15/25/45 29/39/59 32/42/62
f 61/78/91 71/88/101 27/37/57 26/36/56
f 54/71/84 72/89/102 71/88/101 61/78/91
f 47/59/77 73/90/103 72/89/102 54/71/84
f 40/58/70 74/91/104 73/90/103 47/59/77
f 33/43/63 75/92/105 74/93/104 40/50/70
f 32/42/62 76/94/106 75/92/105 33/43/63
f 32/42/62 29/39/59 28/38/58 76/94/106
f 77/95/107 78/96/108 79/97/109 80/98/110
f 81/99/111 77/95/107 80/98/110 82/100/112
f 83/101/113 81/99/111 82/100/112 84/102/114
f 85/103/115 83/101/113 84/102/114 86/104/116
f 87/105/117 86/104/116 88/106/118 89/107/119
f 90/108/120 91/109/121 92/110/122 93/111/123
f 87/105/117 94/112/124 85/103/115 86/104/116
f 95/113/125 96/114/126 97/115/127 78/96/108
f 98/116/128 95/113/125 78/96/108 77/95/107
f 99/117/129 98/116/128 77/95/107 81/99/111
f 100/118/130 99/117/129 81/99/111 83/101/113
f 101/119/131 100/118/130 83/101/113 85/103/115
f 102/120/132 101/119/131 85/103/115 94/112/124
f 103/121/133 104/122/134 96/114/126 95/113/125
f 105/123/135 103/121/133 95/113/125 98/116/128
f 106/124/136 105/123/135 98/116/128 99/117/129
f 107/125/137 106/124/136 99/117/129 100/118/130
f 108/126/138 107/125/137 100/118/130 101/119/131
f 109/127/139 108/126/138 101/119/131 102/120/132
f 110/128/140 111/129/141 104/130/134 103/131/133
f 112/132/142 110/128/140 103/131/133 105/133/135
f 113/134/143 112/132/142 105/133/135 106/135/136
f 114/136/144 113/134/143 106/135/136 107/137/137
f 115/138/145 114/136/144 107/137/137 108/139/138
f 116/140/146 115/138/145 108/139/138 109/141/139
f 117/142/147 118/143/148 111/129/141 110/128/140
f 119/144/149 117/142/147 110/128/140 112/132/142
f 120/145/150 119/144/149 112/132/142 113/134/143
f 121/146/151 120/145/150 113/134/143 114/136/144
f 122/147/152 121/146/151 114/136/144 115/138/145
f 123/148/153 122/147/152 115/138/145 116/140/146
f 124/149/154 125/150/155 118/143/148 117/142/147
f 126/151/156 124/149/154 117/142/147 119/144/149
f 127/152/157 126/151/156 119/144/149 120/145/150
f 128/153/158 127/152/157 120/145/150 121/146/151
f 129/154/159 128/153/158 121/146/151 122/147/152
f 130/155/160 129/154/159 122/147/152 123/148/153
f 131/156/161 90/108/120 125/150/155 124/149/154
f 132/157/162 131/156/161 124/149/154 126/151/156
f 133/158/163 132/157/162 126/151/156 127/152/157
f 134/159/164 133/158/163 127/152/157 128/153/158
f 88/106/118 134/159/164 128/153/158 129/154/159
f 89/107/119 88/106/118 129/154/159 130/155/160
f 79/97/109 91/109/121 90/108/120 131/156/161
f 80/98/110 79/97/109 131/156/161 132/157/162
f 82/100/112 80/98/110 132/157/162 133/158/163
f 84/102/114 82/100/112 133/158/163 134/159/164
f 86/104/116 84/102/114 134/159/164 88/106/118
f 78/96/108 97/115/127 91/109/121 79/97/109
f 125/150/155 90/108/120 93/111/123 135/160/165
f 118/143/148 125/150/155 135/160/165 136/161/166
f 111/129/141 118/143/148 136/161/166 137/162/167
f 104/130/134 111/129/141 137/162/167 138/163/168
f 96/114/126 104/122/134 138/164/168 139/165/169
f 97/115/127 96/114/126 139/165/169 140/166/170
f 97/115/127 140/166/170 92/110/122 91/109/121
