# Blender v3.0.0 OBJ File: 'Rocket.blend'
# www.blender.org
mtllib Rocket.mtl
o Cylinder_Cylinder.006
v -0.448822 -1.495753 0.095311
v -1.359341 1.181055 0.095311
v -0.489060 -1.509440 0.083923
v -1.399580 1.167368 0.083923
v -0.518516 -1.519459 0.052809
v -1.429036 1.157349 0.052809
v -0.529298 -1.523127 0.010307
v -1.439818 1.153681 0.010307
v -0.518516 -1.519459 -0.032196
v -1.429036 1.157349 -0.032196
v -0.489060 -1.509440 -0.063310
v -1.399580 1.167368 -0.063310
v -0.448822 -1.495753 -0.074698
v -1.359341 1.181055 -0.074698
v -0.408583 -1.482066 -0.063310
v -1.319103 1.194742 -0.063310
v -0.379127 -1.472046 -0.032196
v -1.289647 1.204762 -0.032196
v -0.368345 -1.468379 0.010307
v -1.278865 1.208430 0.010307
v -0.379127 -1.472046 0.052809
v -1.289647 1.204762 0.052809
v -0.408583 -1.482066 0.083923
v -1.319103 1.194742 0.083923
v -1.359341 1.181055 0.010307
v -2.418821 1.963090 0.960698
v -2.868703 1.810062 0.833370
v -3.198040 1.698038 0.485503
v -3.318585 1.657035 0.010307
v -3.198040 1.698038 -0.464889
v -2.868703 1.810062 -0.812756
v -2.418822 1.963090 -0.940085
v -1.968940 2.116118 -0.812757
v -1.639604 2.228142 -0.464889
v -1.519058 2.269146 0.010307
v -1.639603 2.228142 0.485502
v -1.968940 2.116118 0.833370
v -2.886481 3.337947 0.010307
v -2.418822 1.963091 0.699052
v -2.744849 1.852192 0.606778
v -2.983518 1.771008 0.354679
v -3.070877 1.741293 0.010307
v -2.983518 1.771008 -0.334066
v -2.744849 1.852192 -0.586164
v -2.418822 1.963091 -0.678439
v -2.092794 2.073989 -0.586164
v -1.854125 2.155173 -0.334066
v -1.766766 2.184888 0.010307
v -1.854125 2.155173 0.354679
v -2.092794 2.073989 0.606778
v -1.779493 0.083550 0.699052
v -2.105521 -0.027349 0.606778
v -2.344190 -0.108532 0.354679
v -2.431549 -0.138247 0.010307
v -2.344190 -0.108532 -0.334066
v -2.105521 -0.027349 -0.586164
v -1.779494 0.083550 -0.678439
v -1.453466 0.194449 -0.586164
v -1.214797 0.275632 -0.334066
v -1.127438 0.305348 0.010307
v -1.214797 0.275633 0.354679
v -1.453466 0.194449 0.606778
v -1.779494 0.083550 0.010307
v -1.522885 -0.552671 0.879873
v -1.547711 -0.566986 0.874677
v -1.561932 -0.587245 0.861027
v -1.562521 -0.609138 0.841828
v -1.548705 -0.626130 0.822628
v -1.525081 -0.633516 0.808978
v -1.496675 -0.629724 0.803782
v -1.471849 -0.615409 0.808978
v -1.457628 -0.595150 0.822628
v -1.457039 -0.573258 0.841828
v -1.470855 -0.556265 0.861027
v -1.494480 -0.548879 0.874677
v -1.753199 0.124423 0.493282
v -1.779815 0.115369 0.485674
v -1.798738 0.108933 0.465687
v -1.805940 0.106483 0.437573
v -1.798738 0.108933 0.409460
v -1.779815 0.115369 0.389473
v -1.753199 0.124423 0.381865
v -1.726584 0.133476 0.389473
v -1.707661 0.139912 0.409460
v -1.700458 0.142362 0.437573
v -1.707661 0.139912 0.465687
v -1.726584 0.133476 0.485674
v -1.677937 -0.096840 0.535125
v -1.703750 -0.108253 0.527937
v -1.720564 -0.120888 0.509052
v -1.724801 -0.132057 0.482491
v -1.714632 -0.138327 0.455929
v -1.693601 -0.138089 0.437044
v -1.666183 -0.131395 0.429856
v -1.640370 -0.119983 0.437044
v -1.623555 -0.107347 0.455929
v -1.619319 -0.096178 0.482491
v -1.629487 -0.089908 0.509052
v -1.650518 -0.090146 0.527937
v -1.601191 -0.322463 0.662917
v -1.626404 -0.335640 0.656680
v -1.641641 -0.352910 0.640292
v -1.643661 -0.370598 0.617242
v -1.631275 -0.383385 0.594192
v -1.608667 -0.387782 0.577804
v -1.580649 -0.382852 0.571566
v -1.555436 -0.369675 0.577804
v -1.540198 -0.352405 0.594192
v -1.538179 -0.334718 0.617242
v -1.550565 -0.321930 0.640292
v -1.573172 -0.317533 0.656680
v -1.522885 -0.552671 0.879873
v -1.547711 -0.566986 0.874677
v -1.561932 -0.587245 0.861027
v -1.562521 -0.609138 0.841828
v -1.548705 -0.626130 0.822628
v -1.525081 -0.633516 0.808978
v -1.496675 -0.629724 0.803782
v -1.471849 -0.615409 0.808978
v -1.457628 -0.595150 0.822628
v -1.457039 -0.573258 0.841828
v -1.470855 -0.556265 0.861027
v -1.494480 -0.548879 0.874677
vt 0.840924 0.025746
vt 0.840921 0.988151
vt 0.825944 0.988151
vt 0.825948 0.025746
vt 0.810967 0.988151
vt 0.810971 0.025746
vt 0.795989 0.988151
vt 0.795995 0.025746
vt 0.975711 0.025746
vt 0.975718 0.988151
vt 0.960740 0.988151
vt 0.960735 0.025746
vt 0.945763 0.988151
vt 0.945759 0.025746
vt 0.930785 0.988151
vt 0.930782 0.025746
vt 0.915808 0.988151
vt 0.915806 0.025746
vt 0.900831 0.988151
vt 0.900829 0.025746
vt 0.885854 0.988151
vt 0.885853 0.025746
vt 0.870876 0.988151
vt 0.870877 0.025746
vt 0.855899 0.988151
vt 0.855900 0.025746
vt 0.754728 0.703569
vt 0.741758 0.711058
vt 0.734269 0.683110
vt 0.726780 0.711058
vt 0.713810 0.703569
vt 0.706321 0.690599
vt 0.706321 0.675621
vt 0.713810 0.662651
vt 0.726780 0.655162
vt 0.741758 0.655162
vt 0.754728 0.662651
vt 0.762217 0.675621
vt 0.762217 0.690599
vt 0.478764 0.905248
vt 0.673857 0.681708
vt 0.549326 0.951010
vt 0.629894 0.975134
vt 0.713995 0.975682
vt 0.713995 0.387735
vt 0.629894 0.388282
vt 0.549326 0.412406
vt 0.478764 0.458168
vt 0.423877 0.521891
vt 0.389076 0.598455
vt 0.377156 0.681708
vt 0.389076 0.764961
vt 0.498985 0.309139
vt 0.456934 0.236305
vt 0.500139 0.224728
vt 0.530614 0.277511
vt 0.423877 0.841525
vt 0.024989 0.556060
vt 0.024989 0.495112
vt 0.364383 0.495112
vt 0.364383 0.556060
vt 0.770808 0.152202
vt 0.770808 0.236305
vt 0.727602 0.224728
vt 0.727602 0.163779
vt 0.728757 0.309139
vt 0.655922 0.351190
vt 0.644345 0.307985
vt 0.697128 0.277511
vt 0.571820 0.037317
vt 0.655922 0.037317
vt 0.644345 0.080522
vt 0.583397 0.080522
vt 0.571820 0.351190
vt 0.583397 0.307985
vt 0.728757 0.079368
vt 0.697128 0.110996
vt 0.456934 0.152202
vt 0.500139 0.163779
vt 0.498985 0.079368
vt 0.530614 0.110996
vt 0.024989 0.860803
vt 0.024989 0.799855
vt 0.364383 0.799854
vt 0.364383 0.860803
vt 0.024989 0.738906
vt 0.024989 0.677957
vt 0.364383 0.677957
vt 0.364383 0.738906
vt 0.024989 0.312266
vt 0.024989 0.251317
vt 0.364383 0.251318
vt 0.364383 0.312266
vt 0.024989 0.434163
vt 0.364383 0.434163
vt 0.024989 0.617009
vt 0.364383 0.617009
vt 0.024989 0.982700
vt 0.024989 0.921752
vt 0.364383 0.921751
vt 0.364383 0.982700
vt 0.024989 0.373215
vt 0.364383 0.373215
vt 0.169022 0.010281
vt 0.221805 0.040755
vt 0.138548 0.124012
vt 0.252280 0.093538
vt 0.252280 0.154486
vt 0.221805 0.207269
vt 0.169022 0.237744
vt 0.108074 0.237744
vt 0.055291 0.207269
vt 0.024817 0.154486
vt 0.024817 0.093538
vt 0.055291 0.040755
vt 0.108074 0.010281
vt 0.429394 0.273150
vt 0.415347 0.269349
vt 0.422885 0.269349
vt 0.409002 0.272991
vt 0.433036 0.279495
vt 0.405201 0.279500
vt 0.433036 0.287033
vt 0.429235 0.293542
vt 0.405201 0.287038
vt 0.408843 0.293383
vt 0.422890 0.297184
vt 0.415352 0.297184
vt 0.354085 0.236667
vt 0.353593 0.173471
vt 0.361528 0.173423
vt 0.361594 0.236926
vt 0.346597 0.237076
vt 0.345657 0.173551
vt 0.339407 0.238107
vt 0.338108 0.173655
vt 0.332059 0.239541
vt 0.330577 0.173771
vt 0.412804 0.240182
vt 0.411928 0.173304
vt 0.419220 0.173263
vt 0.420138 0.238818
vt 0.405629 0.241160
vt 0.404996 0.173337
vt 0.398186 0.241560
vt 0.397917 0.173364
vt 0.390736 0.241252
vt 0.390837 0.173383
vt 0.383543 0.240364
vt 0.383902 0.173394
vt 0.376181 0.239088
vt 0.376604 0.173398
vt 0.368810 0.237809
vt 0.369076 0.173403
vt 0.353060 0.100061
vt 0.360912 0.099992
vt 0.345209 0.100116
vt 0.337691 0.100160
vt 0.330109 0.100204
vt 0.412183 0.099694
vt 0.419614 0.099719
vt 0.405079 0.099686
vt 0.397811 0.099696
vt 0.390543 0.099727
vt 0.383442 0.099776
vt 0.376015 0.099842
vt 0.368431 0.099917
vt 0.352382 0.013325
vt 0.359987 0.013048
vt 0.344777 0.013211
vt 0.337416 0.012776
vt 0.329844 0.012134
vt 0.412549 0.010678
vt 0.420138 0.011391
vt 0.405166 0.010167
vt 0.397546 0.009966
vt 0.389909 0.010251
vt 0.382519 0.010848
vt 0.374931 0.011651
vt 0.367351 0.012454
vn 0.0000 0.0000 1.0000
vn -0.4734 -0.1610 0.8660
vn -0.8199 -0.2789 0.5000
vn -0.9467 -0.3220 0.0000
vn -0.8199 -0.2789 -0.5000
vn -0.4734 -0.1610 -0.8660
vn -0.0000 -0.0000 -1.0000
vn 0.4734 0.1610 -0.8660
vn 0.8199 0.2789 -0.5000
vn 0.9467 0.3220 -0.0000
vn 0.8199 0.2789 0.5000
vn 0.4734 0.1610 0.8660
vn -0.3220 0.9467 -0.0000
vn -0.1763 0.5184 0.8367
vn -0.5724 0.3837 0.7246
vn -0.8624 0.2851 0.4184
vn -0.9685 0.2490 0.0000
vn -0.8624 0.2851 -0.4184
vn -0.5724 0.3837 -0.7246
vn -0.1763 0.5184 -0.8367
vn 0.2197 0.6532 -0.7246
vn 0.5097 0.7518 -0.4184
vn 0.6158 0.7879 -0.0000
vn 0.5097 0.7518 0.4184
vn 0.3220 -0.9467 -0.0000
vn 0.2197 0.6532 0.7246
vn 0.2199 -0.6466 0.7305
vn -0.0567 0.1668 0.9844
vn -0.1058 0.3109 0.9445
vn 0.3947 0.4319 0.8110
vn 0.4327 0.3073 0.8475
vn -0.5304 -0.0203 0.8475
vn -0.5762 0.1017 0.8110
vn -0.8558 -0.2012 0.4765
vn -0.8808 -0.1330 0.4545
vn -0.9446 -0.3268 -0.0293
vn -0.9437 -0.3300 -0.0247
vn -0.7746 -0.3610 -0.5193
vn -0.7541 -0.4360 -0.4911
vn -0.4086 -0.3008 -0.8617
vn -0.3726 -0.4276 -0.8236
vn 0.0563 -0.1656 -0.9846
vn 0.1053 -0.3095 -0.9451
vn 0.5073 0.0108 -0.8617
vn 0.5560 -0.1118 -0.8236
vn 0.8341 0.1861 -0.5193
vn 0.8636 0.1143 -0.4911
vn 0.9480 0.3170 -0.0293
vn 0.9491 0.3139 -0.0247
vn 0.8010 0.3624 0.4765
vn 0.7792 0.4316 0.4545
vn -0.1846 0.5426 0.8195
vn 0.3235 0.6309 0.7052
vn -0.6411 0.3027 0.7052
vn -0.9169 -0.0176 0.3988
vn -0.9429 -0.3326 -0.0162
vn -0.7162 -0.5551 -0.4229
vn -0.3061 -0.6299 -0.7138
vn 0.1842 -0.5415 -0.8203
vn 0.6267 -0.3126 -0.7138
vn 0.9062 -0.0033 -0.4229
vn 0.9502 0.3113 -0.0162
vn 0.7374 0.5451 0.3988
vn -0.2144 0.6303 0.7462
vn 0.2937 0.7066 0.6438
vn -0.6636 0.3809 0.6438
vn -0.9297 0.0295 0.3670
vn -0.9434 -0.3316 -0.0114
vn -0.7019 -0.6000 -0.3839
vn -0.2800 -0.7066 -0.6498
vn 0.2142 -0.6296 -0.7468
vn 0.6528 -0.3893 -0.6498
vn 0.9221 -0.0476 -0.3839
vn 0.9499 0.3124 -0.0114
vn 0.7189 0.5903 0.3670
usemtl None
s 1
f 1/1/1 2/2/1 4/3/2 3/4/2
f 3/4/2 4/3/2 6/5/3 5/6/3
f 5/6/3 6/5/3 8/7/4 7/8/4
f 7/9/4 8/10/4 10/11/5 9/12/5
f 9/12/5 10/11/5 12/13/6 11/14/6
f 11/14/6 12/13/6 14/15/7 13/16/7
f 13/16/7 14/15/7 16/17/8 15/18/8
f 15/18/8 16/17/8 18/19/9 17/20/9
f 17/20/9 18/19/9 20/21/10 19/22/10
f 19/22/10 20/21/10 22/23/11 21/24/11
f 21/24/11 22/23/11 24/25/12 23/26/12
f 23/26/12 24/25/12 2/2/1 1/1/1
f 4/27/13 2/28/13 25/29/13
f 2/28/13 24/30/13 25/29/13
f 24/30/13 22/31/13 25/29/13
f 22/31/13 20/32/13 25/29/13
f 20/32/13 18/33/13 25/29/13
f 18/33/13 16/34/13 25/29/13
f 16/34/13 14/35/13 25/29/13
f 14/35/13 12/36/13 25/29/13
f 12/36/13 10/37/13 25/29/13
f 10/37/13 8/38/13 25/29/13
f 8/38/13 6/39/13 25/29/13
f 6/39/13 4/27/13 25/29/13
f 26/40/14 38/41/13 27/42/15
f 27/42/15 38/41/13 28/43/16
f 28/43/16 38/41/13 29/44/17
f 29/45/17 38/41/13 30/46/18
f 30/46/18 38/41/13 31/47/19
f 31/47/19 38/41/13 32/48/20
f 32/48/20 38/41/13 33/49/21
f 33/49/21 38/41/13 34/50/22
f 34/50/22 38/41/13 35/51/23
f 35/51/23 38/41/13 36/52/24
f 36/53/25 37/54/25 50/55/25 49/56/25
f 36/52/24 38/41/13 37/57/26
f 37/57/26 38/41/13 26/40/14
f 43/58/5 44/59/6 56/60/6 55/61/5
f 31/62/25 32/63/25 45/64/25 44/65/25
f 33/66/25 34/67/25 47/68/25 46/69/25
f 28/70/25 29/71/25 42/72/25 41/73/25
f 35/74/25 36/53/25 49/56/25 48/75/25
f 30/76/25 31/62/25 44/65/25 43/77/25
f 37/54/25 26/78/25 39/79/25 50/55/25
f 32/63/25 33/66/25 46/69/25 45/64/25
f 27/80/25 28/70/25 41/73/25 40/81/25
f 26/78/25 27/80/25 40/81/25 39/79/25
f 34/67/25 35/74/25 48/75/25 47/68/25
f 29/71/25 30/76/25 43/77/25 42/72/25
f 50/82/12 39/83/1 51/84/1 62/85/12
f 40/86/2 41/87/3 53/88/3 52/89/2
f 47/90/9 48/91/10 60/92/10 59/93/9
f 44/59/6 45/94/7 57/95/7 56/60/6
f 41/87/3 42/96/4 54/97/4 53/88/3
f 48/98/10 49/99/11 61/100/11 60/101/10
f 45/94/7 46/102/8 58/103/8 57/95/7
f 42/96/4 43/58/5 55/61/5 54/97/4
f 49/99/11 50/82/12 62/85/12 61/100/11
f 39/83/1 40/86/2 52/89/2 51/84/1
f 46/102/8 47/90/9 59/93/9 58/103/8
f 51/104/25 52/105/25 63/106/25
f 52/105/25 53/107/25 63/106/25
f 53/107/25 54/108/25 63/106/25
f 54/108/25 55/109/25 63/106/25
f 55/109/25 56/110/25 63/106/25
f 56/110/25 57/111/25 63/106/25
f 57/111/25 58/112/25 63/106/25
f 58/112/25 59/113/25 63/106/25
f 59/113/25 60/114/25 63/106/25
f 60/114/25 61/115/25 63/106/25
f 61/115/25 62/116/25 63/106/25
f 62/116/25 51/104/25 63/106/25
f 74/117/27 72/118/27 73/119/27
f 74/117/27 71/120/27 72/118/27
f 75/121/27 71/120/27 74/117/27
f 75/121/27 70/122/27 71/120/27
f 64/123/27 70/122/27 75/121/27
f 65/124/27 70/122/27 64/123/27
f 65/124/27 69/125/27 70/122/27
f 65/124/27 68/126/27 69/125/27
f 66/127/27 68/126/27 65/124/27
f 66/127/27 67/128/27 68/126/27
f 76/129/28 88/130/29 99/131/30 87/132/31
f 77/133/32 89/134/33 88/130/29 76/129/28
f 78/135/34 90/136/35 89/134/33 77/133/32
f 79/137/36 91/138/37 90/136/35 78/135/34
f 80/139/38 92/140/39 91/141/37 79/142/36
f 81/143/40 93/144/41 92/140/39 80/139/38
f 82/145/42 94/146/43 93/144/41 81/143/40
f 83/147/44 95/148/45 94/146/43 82/145/42
f 84/149/46 96/150/47 95/148/45 83/147/44
f 85/151/48 97/152/49 96/150/47 84/149/46
f 86/153/50 98/154/51 97/152/49 85/151/48
f 87/132/31 99/131/30 98/154/51 86/153/50
f 88/130/29 100/155/52 111/156/53 99/131/30
f 89/134/33 101/157/54 100/155/52 88/130/29
f 90/136/35 102/158/55 101/157/54 89/134/33
f 91/138/37 103/159/56 102/158/55 90/136/35
f 92/140/39 104/160/57 103/161/56 91/141/37
f 93/144/41 105/162/58 104/160/57 92/140/39
f 94/146/43 106/163/59 105/162/58 93/144/41
f 95/148/45 107/164/60 106/163/59 94/146/43
f 96/150/47 108/165/61 107/164/60 95/148/45
f 97/152/49 109/166/62 108/165/61 96/150/47
f 98/154/51 110/167/63 109/166/62 97/152/49
f 99/131/30 111/156/53 110/167/63 98/154/51
f 100/155/52 112/168/64 123/169/65 111/156/53
f 101/157/54 113/170/66 112/168/64 100/155/52
f 102/158/55 114/171/67 113/170/66 101/157/54
f 103/159/56 115/172/68 114/171/67 102/158/55
f 104/160/57 116/173/69 115/174/68 103/161/56
f 105/162/58 117/175/70 116/173/69 104/160/57
f 106/163/59 118/176/71 117/175/70 105/162/58
f 107/164/60 119/177/72 118/176/71 106/163/59
f 108/165/61 120/178/73 119/177/72 107/164/60
f 109/166/62 121/179/74 120/178/73 108/165/61
f 110/167/63 122/180/75 121/179/74 109/166/62
f 111/156/53 123/169/65 122/180/75 110/167/63
