# Blender v2.79 (sub 0) OBJ File: 'body_99.blend'
# www.blender.org
mtllib body_99.mtl
o 5_Cylinder.006
v -0.650000 -0.976003 0.345637
v -0.650000 -0.430184 0.345637
v -0.650000 -0.976003 -0.345637
v -0.650000 -0.430184 -0.345637
v -1.306318 -0.976003 0.345637
v -1.583685 -0.976003 0.068270
v -1.445001 -0.976003 0.308477
v -1.546525 -0.976003 0.206954
v -1.583685 -0.430184 0.068270
v -1.306318 -0.430184 0.345637
v -1.546525 -0.430184 0.206954
v -1.445001 -0.430184 0.308477
v -1.583685 -0.976003 -0.068270
v -1.306318 -0.976003 -0.345637
v -1.546525 -0.976003 -0.206954
v -1.445001 -0.976003 -0.308477
v -1.306318 -0.430184 -0.345637
v -1.583685 -0.430184 -0.068270
v -1.445001 -0.430184 -0.308477
v -1.546525 -0.430184 -0.206954
v -0.650000 0.360633 0.345637
v -0.650000 0.906452 0.345637
v -0.650000 0.360633 -0.345637
v -0.650000 0.906452 -0.345637
v -1.306318 0.360633 0.345637
v -1.583685 0.360633 0.068270
v -1.445001 0.360633 0.308477
v -1.546525 0.360633 0.206954
v -1.583685 0.906452 0.068270
v -1.306318 0.906452 0.345637
v -1.546525 0.906452 0.206954
v -1.445001 0.906452 0.308477
v -1.583685 0.360633 -0.068270
v -1.306318 0.360633 -0.345637
v -1.546525 0.360633 -0.206954
v -1.445001 0.360633 -0.308477
v -1.306318 0.906452 -0.345637
v -1.583685 0.906452 -0.068270
v -1.445001 0.906452 -0.308477
v -1.546525 0.906452 -0.206954
v -1.291135 -1.545794 -0.000000
v -1.291135 4.896516 -0.000000
v -1.291135 -1.545794 -0.106382
v -1.291135 4.896516 -0.106382
v -1.215912 -1.545794 -0.075224
v -1.215912 4.896516 -0.075224
v -1.184753 -1.545794 -0.000000
v -1.184753 4.896516 -0.000000
v -1.215912 -1.545794 0.075224
v -1.215912 4.896516 0.075224
v -1.291135 -1.545794 0.106382
v -1.291135 4.896516 0.106382
v -1.366359 -1.545794 0.075224
v -1.366359 4.896516 0.075224
v -1.397517 -1.545794 -0.000000
v -1.397517 4.896516 -0.000000
v -1.366359 -1.545794 -0.075224
v -1.366359 4.896516 -0.075224
v -5.882975 1.989609 -0.757614
v -1.291135 1.989610 -0.000000
v -5.882975 4.670627 -0.757614
v -1.291135 4.670627 0.000000
v -5.465535 1.989609 -0.809947
v -5.048095 1.989609 -0.797173
v -4.630655 1.989609 -0.665001
v -4.213215 1.989609 -0.448828
v -3.795775 1.989609 -0.193894
v -3.378335 1.989609 0.051293
v -2.960895 1.989610 0.238679
v -2.543455 1.989610 0.324503
v -2.126015 1.989610 0.284116
v -1.708575 1.989610 0.163625
v -1.708575 4.670627 0.163625
v -2.126015 4.670627 0.284116
v -2.543455 4.670627 0.324503
v -2.960895 4.670627 0.238679
v -3.378335 4.670627 0.051293
v -3.795775 4.670627 -0.193894
v -4.213215 4.670627 -0.448828
v -4.630655 4.670627 -0.665001
v -5.048095 4.670627 -0.797173
v -5.465535 4.670627 -0.809947
v -0.650000 -0.430184 -0.345637
v -0.650000 -0.430184 -0.345637
v -0.650000 -0.976003 -0.345637
v -0.650000 -0.976003 -0.345637
v -0.650000 -0.976003 0.345637
v -0.650000 -0.976003 0.345637
v -0.650000 -0.430184 0.345637
v -0.650000 -0.430184 0.345637
v -1.445001 -0.976003 0.308477
v -1.306318 -0.976003 0.345637
v -1.306318 -0.430184 0.345637
v -1.445001 -0.430184 0.308477
v -1.546525 -0.976003 0.206954
v -1.546525 -0.430184 0.206954
v -1.583685 -0.976003 0.068270
v -1.583685 -0.430184 0.068270
v -1.445001 -0.430184 -0.308477
v -1.306318 -0.430184 -0.345637
v -1.306318 -0.976003 -0.345637
v -1.445001 -0.976003 -0.308477
v -1.546525 -0.430184 -0.206954
v -1.546525 -0.976003 -0.206954
v -1.583685 -0.430184 -0.068270
v -1.583685 -0.976003 -0.068270
v -0.650000 0.906452 -0.345637
v -0.650000 0.906452 -0.345637
v -0.650000 0.360633 -0.345637
v -0.650000 0.360633 -0.345637
v -0.650000 0.360633 0.345637
v -0.650000 0.360633 0.345637
v -0.650000 0.906452 0.345637
v -0.650000 0.906452 0.345637
v -1.445001 0.360633 0.308477
v -1.306318 0.360633 0.345637
v -1.306318 0.906452 0.345637
v -1.445001 0.906452 0.308477
v -1.546525 0.360633 0.206954
v -1.546525 0.906452 0.206954
v -1.583685 0.360633 0.068270
v -1.583685 0.906452 0.068270
v -1.445001 0.906452 -0.308477
v -1.306318 0.906452 -0.345637
v -1.306318 0.360633 -0.345637
v -1.445001 0.360633 -0.308477
v -1.546525 0.906452 -0.206954
v -1.546525 0.360633 -0.206954
v -1.583685 0.906452 -0.068270
v -1.583685 0.360633 -0.068270
v -1.291135 -1.545794 -0.106382
v -1.215912 -1.545794 -0.075224
v -1.215912 4.896516 -0.075224
v -1.291135 4.896516 -0.106382
v -1.184753 -1.545794 -0.000000
v -1.184753 4.896516 -0.000000
v -1.215912 -1.545794 0.075224
v -1.215912 4.896516 0.075224
v -1.291135 -1.545794 0.106382
v -1.291135 4.896516 0.106382
v -1.366359 -1.545794 0.075224
v -1.366359 4.896516 0.075224
v -1.397517 -1.545794 -0.000000
v -1.397517 4.896516 -0.000000
v -1.366359 -1.545794 -0.075224
v -1.366359 4.896516 -0.075224
vt 0.178012 0.488474
vt 0.264586 0.488474
vt 0.264586 0.592576
vt 0.178012 0.592576
vt 0.178011 0.964619
vt 0.073910 0.964619
vt 0.073910 0.854973
vt 0.178012 0.854973
vt 0.035810 0.942622
vt 0.035810 0.876970
vt 0.051913 0.860867
vt 0.051913 0.958725
vt 0.178012 0.660895
vt 0.264586 0.660895
vt 0.264586 0.682552
vt 0.178012 0.682552
vt 0.178012 0.750872
vt 0.264586 0.750872
vt 0.264586 0.854973
vt 0.178012 0.854973
vt 0.264586 0.615349
vt 0.178012 0.615349
vt 0.264586 0.638122
vt 0.178012 0.638122
vt 0.178012 0.728099
vt 0.264586 0.728099
vt 0.178012 0.705326
vt 0.264586 0.705326
vt 0.029916 0.920625
vt 0.029916 0.898968
vt 0.368687 0.964619
vt 0.264586 0.964619
vt 0.264586 0.854973
vt 0.368687 0.854973
vt 0.390685 0.860868
vt 0.390684 0.958725
vt 0.406788 0.876971
vt 0.406788 0.942622
vt 0.412682 0.898968
vt 0.412682 0.920625
vt 0.468876 0.971818
vt 0.555450 0.971818
vt 0.555450 0.867717
vt 0.468876 0.867717
vt 0.468876 0.495673
vt 0.364774 0.495674
vt 0.364774 0.605319
vt 0.468876 0.605319
vt 0.326674 0.517671
vt 0.326674 0.583322
vt 0.342777 0.599425
vt 0.342777 0.501568
vt 0.468876 0.799397
vt 0.555450 0.799397
vt 0.555450 0.777740
vt 0.468876 0.777740
vt 0.468876 0.709421
vt 0.555450 0.709421
vt 0.555450 0.605319
vt 0.468876 0.605319
vt 0.555450 0.844944
vt 0.468876 0.844944
vt 0.555450 0.822171
vt 0.468876 0.822171
vt 0.468876 0.732194
vt 0.555450 0.732194
vt 0.468876 0.754967
vt 0.555450 0.754967
vt 0.320780 0.539668
vt 0.320780 0.561325
vt 0.659552 0.495673
vt 0.555450 0.495673
vt 0.555450 0.605319
vt 0.659552 0.605319
vt 0.681549 0.599425
vt 0.681549 0.501567
vt 0.697652 0.583322
vt 0.697652 0.517670
vt 0.703546 0.561325
vt 0.703546 0.539668
vt 0.644773 0.726198
vt 0.660363 0.719741
vt 0.660363 0.732655
vt 0.644773 0.678308
vt 0.651231 0.662719
vt 0.660363 0.671851
vt 0.938695 0.030874
vt 0.938695 0.900409
vt 0.923519 0.900472
vt 0.923519 0.030937
vt 0.651231 0.741787
vt 0.638316 0.662719
vt 0.908342 0.900535
vt 0.908342 0.031000
vt 0.638316 0.741787
vt 0.629184 0.671851
vt 0.893165 0.900598
vt 0.893165 0.031063
vt 0.629184 0.732655
vt 0.629184 0.684766
vt 0.877989 0.900661
vt 0.877989 0.031126
vt 0.629184 0.719741
vt 0.638316 0.693898
vt 0.862812 0.900724
vt 0.862812 0.031189
vt 0.638316 0.710609
vt 0.651231 0.693898
vt 0.847635 0.900787
vt 0.847635 0.031252
vt 0.651231 0.710609
vt 0.660363 0.684766
vt 0.969049 0.030748
vt 0.969049 0.900283
vt 0.953872 0.900346
vt 0.953872 0.030811
vt 0.733581 0.025589
vt 0.804697 0.025590
vt 0.804696 0.450837
vt 0.733580 0.450837
vt 0.026611 0.025588
vt 0.093341 0.025588
vt 0.093341 0.450836
vt 0.026611 0.450836
vt 0.159584 0.025588
vt 0.159584 0.450836
vt 0.229036 0.025589
vt 0.229036 0.450836
vt 0.303599 0.025589
vt 0.303599 0.450836
vt 0.381182 0.025589
vt 0.381182 0.450836
vt 0.457971 0.025589
vt 0.457970 0.450836
vt 0.530548 0.025589
vt 0.530547 0.450836
vt 0.598145 0.025589
vt 0.598144 0.450837
vt 0.664666 0.025589
vt 0.664665 0.450837
vt 0.178012 0.854973
vt 0.264586 0.854973
vt 0.264586 0.964619
vt 0.178011 0.964619
vt 0.468876 0.605319
vt 0.555450 0.605319
vt 0.555450 0.495673
vt 0.468876 0.495673
vn 0.0000 0.0000 1.0000
vn -0.1305 0.0000 0.9914
vn 0.0000 -1.0000 0.0000
vn -0.9914 0.0000 0.1305
vn -0.9914 0.0000 -0.1305
vn -0.1305 0.0000 -0.9914
vn 0.0000 0.0000 -1.0000
vn -0.5000 0.0000 0.8660
vn -0.8660 0.0000 0.5000
vn -0.5000 0.0000 -0.8660
vn -0.8660 0.0000 -0.5000
vn 0.0000 1.0000 0.0000
vn 0.7071 0.0000 -0.7071
vn 1.0000 0.0000 0.0000
vn 0.7071 0.0000 0.7071
vn -0.7071 0.0000 0.7071
vn -1.0000 0.0000 0.0000
vn -0.7071 0.0000 -0.7071
vn 0.3215 0.0000 0.9469
vn 0.3649 0.0000 0.9310
vn 0.1244 0.0000 0.9922
vn 0.0470 0.0000 0.9989
vn -0.1678 0.0000 0.9858
vn -0.3822 0.0000 0.9240
vn -0.4908 0.0000 0.8712
vn -0.5138 0.0000 0.8579
vn -0.4587 0.0000 0.8886
vn -0.3073 0.0000 0.9516
vn -0.0531 0.0000 0.9986
vn 0.1876 0.0000 0.9822
usemtl None
s 1
f 88/1/1 89/2/1 93/3/2 5/4/2
f 87/5/3 92/6/3 101/7/3 86/8/3
f 95/9/3 104/10/3 16/11/3 7/12/3
f 97/13/4 98/14/4 105/15/5 106/16/5
f 14/17/6 100/18/6 83/19/7 85/20/7
f 5/4/2 93/3/2 94/21/8 91/22/8
f 91/22/8 94/21/8 96/23/9 8/24/9
f 8/24/9 96/23/9 98/14/4 97/13/4
f 100/18/6 14/17/6 102/25/10 99/26/10
f 99/26/10 102/25/10 15/27/11 103/28/11
f 103/28/11 15/27/11 106/16/5 105/15/5
f 101/7/3 92/6/3 7/12/3 16/11/3
f 6/29/3 13/30/3 104/10/3 95/9/3
f 10/31/12 90/32/12 84/33/12 17/34/12
f 10/31/12 17/34/12 19/35/12 12/36/12
f 12/36/12 19/35/12 20/37/12 11/38/12
f 11/38/12 20/37/12 18/39/12 9/40/12
f 112/41/1 113/42/1 117/43/2 25/44/2
f 111/45/3 116/46/3 125/47/3 110/48/3
f 119/49/3 128/50/3 36/51/3 27/52/3
f 121/53/4 122/54/4 129/55/5 130/56/5
f 34/57/6 124/58/6 107/59/7 109/60/7
f 25/44/2 117/43/2 118/61/8 115/62/8
f 115/62/8 118/61/8 120/63/9 28/64/9
f 28/64/9 120/63/9 122/54/4 121/53/4
f 124/58/6 34/57/6 126/65/10 123/66/10
f 123/66/10 126/65/10 35/67/11 127/68/11
f 127/68/11 35/67/11 130/56/5 129/55/5
f 125/47/3 116/46/3 27/52/3 36/51/3
f 26/69/3 33/70/3 128/50/3 119/49/3
f 30/71/12 114/72/12 108/73/12 37/74/12
f 30/71/12 37/74/12 39/75/12 32/76/12
f 32/76/12 39/75/12 40/77/12 31/78/12
f 31/78/12 40/77/12 38/79/12 29/80/12
f 41/81/3 131/82/3 132/83/3
f 42/84/12 133/85/12 134/86/12
f 43/87/7 44/88/7 46/89/13 45/90/13
f 41/81/3 132/83/3 135/91/3
f 42/84/12 136/92/12 133/85/12
f 45/90/13 46/89/13 48/93/14 47/94/14
f 41/81/3 135/91/3 137/95/3
f 42/84/12 138/96/12 136/92/12
f 47/94/14 48/93/14 50/97/15 49/98/15
f 41/81/3 137/95/3 139/99/3
f 42/84/12 140/100/12 138/96/12
f 49/98/15 50/97/15 52/101/1 51/102/1
f 41/81/3 139/99/3 141/103/3
f 42/84/12 142/104/12 140/100/12
f 51/102/1 52/101/1 54/105/16 53/106/16
f 41/81/3 141/103/3 143/107/3
f 42/84/12 144/108/12 142/104/12
f 53/106/16 54/105/16 56/109/17 55/110/17
f 41/81/3 143/107/3 145/111/3
f 42/84/12 146/112/12 144/108/12
f 55/113/17 56/114/17 58/115/18 57/116/18
f 41/81/3 145/111/3 131/82/3
f 42/84/12 134/86/12 146/112/12
f 57/116/18 58/115/18 44/88/7 43/87/7
f 72/117/19 60/118/20 62/119/20 73/120/19
f 59/121/21 63/122/22 82/123/22 61/124/21
f 63/122/22 64/125/23 81/126/23 82/123/22
f 64/125/23 65/127/24 80/128/24 81/126/23
f 65/127/24 66/129/25 79/130/25 80/128/24
f 66/129/25 67/131/26 78/132/26 79/130/25
f 67/131/26 68/133/27 77/134/27 78/132/26
f 68/133/27 69/135/28 76/136/28 77/134/27
f 69/135/28 70/137/29 75/138/29 76/136/28
f 70/137/29 71/139/30 74/140/30 75/138/29
f 71/139/30 72/117/19 73/120/19 74/140/30
f 3/141/14 4/142/14 2/143/14 1/144/14
f 23/145/14 24/146/14 22/147/14 21/148/14
