# Blender v2.79 (sub 0) OBJ File: 'body_65.blend'
# www.blender.org
mtllib body_66.mtl
o Europe_Cylinder.019
v 0.049382 0.609790 0.352105
v 0.049662 0.704125 0.000040
v 0.049942 0.609790 -0.352025
v 0.050148 0.352061 -0.609754
v 0.050223 -0.000004 -0.704090
v 0.050148 -0.352069 -0.609754
v 0.049943 -0.609798 -0.352025
v 0.049662 -0.704133 0.000039
v 0.049382 -0.609798 0.352104
v 0.049176 -0.352069 0.609833
v 0.049101 -0.000004 0.704169
v 0.049176 0.352060 0.609834
v -0.000280 0.731375 0.352065
v -0.000259 0.646985 0.325044
v -0.000188 0.647364 0.236434
v -0.000246 0.595588 0.308344
v -0.000224 0.511432 0.280601
v -0.000280 0.563822 0.352065
v -0.000337 0.511432 0.423529
v -0.000315 0.595588 0.395787
v -0.000373 0.647364 0.467696
v -0.000302 0.646985 0.379087
v -0.049943 0.609790 0.352026
v -0.000000 0.825711 0.000000
v 0.000021 0.741321 -0.027021
v 0.000092 0.741700 -0.115631
v 0.000035 0.689924 -0.043721
v 0.000057 0.605768 -0.071464
v -0.000000 0.658158 0.000000
v -0.000057 0.605768 0.071464
v -0.000035 0.689924 0.043722
v -0.000092 0.741700 0.115631
v -0.000022 0.741321 0.027021
v -0.049662 0.704125 -0.000039
v 0.000280 0.731375 -0.352065
v 0.000302 0.646986 -0.379086
v 0.000372 0.647365 -0.467695
v 0.000315 0.595588 -0.395786
v 0.000337 0.511433 -0.423528
v 0.000280 0.563823 -0.352065
v 0.000223 0.511433 -0.280601
v 0.000246 0.595588 -0.308343
v 0.000188 0.647365 -0.236434
v 0.000259 0.646986 -0.325043
v -0.049382 0.609790 -0.352104
v 0.000486 0.473646 -0.609794
v 0.000507 0.389256 -0.636815
v 0.000578 0.389636 -0.725425
v 0.000520 0.337859 -0.653515
v 0.000543 0.253703 -0.681257
v 0.000486 0.306093 -0.609794
v 0.000429 0.253703 -0.538330
v 0.000451 0.337859 -0.566072
v 0.000394 0.389636 -0.494163
v 0.000464 0.389256 -0.582772
v -0.049176 0.352061 -0.609833
v 0.000561 0.121581 -0.704129
v 0.000582 0.037192 -0.731151
v 0.000653 0.037571 -0.819760
v 0.000596 -0.014206 -0.747851
v 0.000618 -0.098361 -0.775593
v 0.000561 -0.045971 -0.704129
v 0.000504 -0.098361 -0.632666
v 0.000526 -0.014206 -0.660408
v 0.000469 0.037571 -0.588498
v 0.000539 0.037192 -0.677108
v -0.049101 -0.000004 -0.704169
v 0.000486 -0.230483 -0.609794
v 0.000507 -0.314873 -0.636815
v 0.000578 -0.314494 -0.725425
v 0.000520 -0.366270 -0.653515
v 0.000543 -0.450426 -0.681258
v 0.000486 -0.398036 -0.609794
v 0.000429 -0.450426 -0.538330
v 0.000451 -0.366270 -0.566073
v 0.000394 -0.314494 -0.494163
v 0.000464 -0.314873 -0.582773
v -0.049176 -0.352069 -0.609833
v 0.000280 -0.488213 -0.352065
v 0.000302 -0.572602 -0.379086
v 0.000373 -0.572223 -0.467695
v 0.000315 -0.624000 -0.395786
v 0.000337 -0.708155 -0.423528
v 0.000280 -0.655765 -0.352065
v 0.000224 -0.708155 -0.280601
v 0.000246 -0.624000 -0.308343
v 0.000188 -0.572223 -0.236434
v 0.000259 -0.572602 -0.325043
v -0.049382 -0.609798 -0.352104
v 0.000000 -0.582548 -0.000000
v 0.000022 -0.666938 -0.027021
v 0.000092 -0.666558 -0.115631
v 0.000035 -0.718335 -0.043722
v 0.000057 -0.802491 -0.071464
v 0.000000 -0.750101 -0.000000
v -0.000057 -0.802491 0.071464
v -0.000035 -0.718335 0.043721
v -0.000092 -0.666558 0.115631
v -0.000021 -0.666938 0.027021
v -0.049662 -0.704133 -0.000040
v -0.000280 -0.488213 0.352064
v -0.000259 -0.572602 0.325043
v -0.000188 -0.572223 0.236434
v -0.000246 -0.624000 0.308343
v -0.000223 -0.708155 0.280601
v -0.000280 -0.655765 0.352064
v -0.000337 -0.708155 0.423528
v -0.000315 -0.624000 0.395786
v -0.000372 -0.572223 0.467695
v -0.000302 -0.572602 0.379086
v -0.049942 -0.609798 0.352025
v -0.000486 -0.230484 0.609794
v -0.000464 -0.314873 0.582772
v -0.000394 -0.314494 0.494163
v -0.000451 -0.366271 0.566072
v -0.000429 -0.450426 0.538330
v -0.000486 -0.398036 0.609794
v -0.000543 -0.450426 0.681257
v -0.000520 -0.366271 0.653515
v -0.000578 -0.314494 0.725424
v -0.000507 -0.314873 0.636815
v -0.050148 -0.352069 0.609754
v -0.000561 0.121581 0.704129
v -0.000539 0.037191 0.677108
v -0.000469 0.037570 0.588499
v -0.000526 -0.014206 0.660408
v -0.000504 -0.098362 0.632666
v -0.000561 -0.045972 0.704129
v -0.000618 -0.098362 0.775593
v -0.000596 -0.014206 0.747851
v -0.000653 0.037570 0.819760
v -0.000582 0.037191 0.731151
v -0.050223 -0.000004 0.704090
v -0.000486 0.473646 0.609794
v -0.000464 0.389256 0.582773
v -0.000394 0.389635 0.494163
v -0.000451 0.337858 0.566073
v -0.000429 0.253703 0.538330
v -0.000486 0.306093 0.609794
v -0.000543 0.253703 0.681258
v -0.000520 0.337858 0.653516
v -0.000578 0.389635 0.725425
v -0.000507 0.389256 0.636815
v -0.050148 0.352060 0.609755
vt 0.720198 0.339371
vt 0.691777 0.300250
vt 0.779218 0.328665
vt 0.737764 0.285311
vt 0.745820 0.225870
vt 0.691777 0.251899
vt 0.637735 0.225870
vt 0.645790 0.285311
vt 0.604336 0.328665
vt 0.663356 0.339371
vt 0.691777 0.392194
vt 0.720198 0.151763
vt 0.691777 0.112642
vt 0.779218 0.141057
vt 0.737764 0.097703
vt 0.745820 0.038263
vt 0.691777 0.064291
vt 0.637734 0.038263
vt 0.645790 0.097703
vt 0.604336 0.141057
vt 0.663356 0.151763
vt 0.691777 0.204586
vt 0.327864 0.526978
vt 0.299443 0.487858
vt 0.386884 0.516273
vt 0.345430 0.472919
vt 0.353486 0.413478
vt 0.299443 0.439506
vt 0.245401 0.413478
vt 0.253456 0.472919
vt 0.212002 0.516273
vt 0.271023 0.526978
vt 0.299443 0.579801
vt 0.916365 0.151763
vt 0.887944 0.112642
vt 0.975385 0.141057
vt 0.933931 0.097703
vt 0.941987 0.038263
vt 0.887944 0.064291
vt 0.833901 0.038263
vt 0.841957 0.097703
vt 0.800503 0.141057
vt 0.859523 0.151763
vt 0.887944 0.204586
vt 0.524031 0.339371
vt 0.495610 0.300250
vt 0.583051 0.328665
vt 0.541597 0.285311
vt 0.549653 0.225870
vt 0.495610 0.251899
vt 0.441568 0.225871
vt 0.449623 0.285311
vt 0.408169 0.328665
vt 0.467189 0.339371
vt 0.495610 0.392194
vt 0.916365 0.339370
vt 0.887944 0.300250
vt 0.975385 0.328665
vt 0.933931 0.285311
vt 0.941987 0.225870
vt 0.887944 0.251899
vt 0.833901 0.225870
vt 0.841957 0.285311
vt 0.800503 0.328665
vt 0.859523 0.339370
vt 0.887944 0.392194
vt 0.916365 0.714586
vt 0.887944 0.675465
vt 0.975385 0.703881
vt 0.933931 0.660526
vt 0.941986 0.601086
vt 0.887944 0.627114
vt 0.833901 0.601086
vt 0.841957 0.660526
vt 0.800503 0.703880
vt 0.859523 0.714586
vt 0.887944 0.767409
vt 0.131697 0.714586
vt 0.103276 0.675465
vt 0.190717 0.703881
vt 0.149263 0.660526
vt 0.157319 0.601086
vt 0.103276 0.627114
vt 0.049234 0.601086
vt 0.057289 0.660526
vt 0.015835 0.703881
vt 0.074856 0.714586
vt 0.103276 0.767409
vt 0.720198 0.714586
vt 0.691777 0.675465
vt 0.779218 0.703881
vt 0.737764 0.660526
vt 0.745820 0.601086
vt 0.691777 0.627114
vt 0.637734 0.601086
vt 0.645790 0.660526
vt 0.604336 0.703881
vt 0.663356 0.714586
vt 0.691777 0.767409
vt 0.131697 0.526978
vt 0.103276 0.487858
vt 0.190717 0.516273
vt 0.149263 0.472919
vt 0.157319 0.413478
vt 0.103276 0.439506
vt 0.049234 0.413478
vt 0.057289 0.472919
vt 0.015835 0.516273
vt 0.074856 0.526978
vt 0.103276 0.579801
vt 0.524031 0.526978
vt 0.495610 0.487858
vt 0.583051 0.516273
vt 0.541597 0.472919
vt 0.549653 0.413478
vt 0.495610 0.439506
vt 0.441568 0.413478
vt 0.449623 0.472919
vt 0.408169 0.516273
vt 0.467189 0.526978
vt 0.495610 0.579801
vt 0.524031 0.151763
vt 0.495610 0.112642
vt 0.583051 0.141057
vt 0.541597 0.097703
vt 0.549653 0.038263
vt 0.495610 0.064291
vt 0.441568 0.038263
vt 0.449623 0.097703
vt 0.408169 0.141057
vt 0.467189 0.151763
vt 0.495610 0.204586
vt 0.524031 0.714586
vt 0.583051 0.703881
vt 0.495610 0.675465
vt 0.541597 0.660526
vt 0.549653 0.601086
vt 0.495610 0.627114
vt 0.441568 0.601086
vt 0.449623 0.660526
vt 0.408169 0.703881
vt 0.467189 0.714586
vt 0.495610 0.767409
vt 0.720198 0.902194
vt 0.779218 0.891488
vt 0.691777 0.863073
vt 0.737764 0.848134
vt 0.745820 0.788694
vt 0.691777 0.814722
vt 0.637734 0.788694
vt 0.645790 0.848134
vt 0.604336 0.891488
vt 0.663356 0.902194
vt 0.691777 0.955017
vt 0.327864 0.151763
vt 0.386884 0.141057
vt 0.299443 0.112642
vt 0.345430 0.097703
vt 0.353486 0.038263
vt 0.299443 0.064291
vt 0.245401 0.038263
vt 0.253456 0.097703
vt 0.212002 0.141057
vt 0.271023 0.151763
vt 0.299443 0.204586
vt 0.916365 0.526978
vt 0.975385 0.516273
vt 0.887944 0.487858
vt 0.933931 0.472919
vt 0.941987 0.413478
vt 0.887944 0.439506
vt 0.833901 0.413478
vt 0.841957 0.472919
vt 0.800503 0.516273
vt 0.859523 0.526978
vt 0.887944 0.579801
vt 0.131697 0.151763
vt 0.190718 0.141057
vt 0.103276 0.112642
vt 0.149263 0.097703
vt 0.157319 0.038263
vt 0.103276 0.064291
vt 0.049234 0.038263
vt 0.057289 0.097703
vt 0.015835 0.141057
vt 0.074856 0.151763
vt 0.103276 0.204586
vt 0.720198 0.526978
vt 0.779218 0.516273
vt 0.691777 0.487858
vt 0.737764 0.472919
vt 0.745820 0.413478
vt 0.691777 0.439506
vt 0.637735 0.413478
vt 0.645790 0.472919
vt 0.604336 0.516273
vt 0.663356 0.526978
vt 0.691777 0.579801
vt 0.327864 0.902194
vt 0.386884 0.891488
vt 0.299443 0.863073
vt 0.345430 0.848134
vt 0.353486 0.788694
vt 0.299443 0.814722
vt 0.245401 0.788694
vt 0.253456 0.848134
vt 0.212002 0.891488
vt 0.271022 0.902194
vt 0.299443 0.955017
vt 0.327864 0.714586
vt 0.386884 0.703881
vt 0.299443 0.675465
vt 0.345430 0.660526
vt 0.353486 0.601086
vt 0.299443 0.627114
vt 0.245401 0.601086
vt 0.253456 0.660526
vt 0.212002 0.703881
vt 0.271022 0.714586
vt 0.299443 0.767409
vt 0.524031 0.902194
vt 0.583051 0.891488
vt 0.495610 0.863073
vt 0.541597 0.848134
vt 0.549653 0.788694
vt 0.495610 0.814722
vt 0.441568 0.788694
vt 0.449623 0.848134
vt 0.408169 0.891488
vt 0.467189 0.902194
vt 0.495610 0.955017
vt 0.327864 0.339371
vt 0.386885 0.328665
vt 0.299443 0.300250
vt 0.345430 0.285311
vt 0.353486 0.225871
vt 0.299443 0.251899
vt 0.245401 0.225871
vt 0.253456 0.285311
vt 0.212002 0.328665
vt 0.271023 0.339371
vt 0.299443 0.392194
vt 0.131697 0.339371
vt 0.190717 0.328665
vt 0.103276 0.300250
vt 0.149263 0.285311
vt 0.157319 0.225870
vt 0.103276 0.251899
vt 0.049234 0.225870
vt 0.057289 0.285311
vt 0.015835 0.328665
vt 0.074856 0.339371
vt 0.103276 0.392194
vt 0.131697 0.902194
vt 0.190717 0.891488
vt 0.103276 0.863073
vt 0.149263 0.848134
vt 0.157319 0.788694
vt 0.103276 0.814722
vt 0.049234 0.788694
vt 0.057289 0.848134
vt 0.015835 0.891488
vt 0.074856 0.902194
vt 0.103276 0.955017
vn 0.5983 0.8013 0.0039
vn 0.5986 -0.6503 -0.4678
vn 0.5989 0.2509 -0.7605
vn 0.5978 -0.6463 0.4743
vn 0.5986 -0.6463 -0.4733
vn 0.5976 0.2509 0.7615
vn 0.5978 -0.6503 0.4687
vn 0.5983 0.8013 -0.0030
vn 0.5976 0.2444 0.7636
vn 0.5989 0.2444 -0.7627
vn 0.5989 0.2509 -0.7606
vn -0.5983 0.8013 0.0030
vn -0.5978 -0.6503 -0.4687
vn -0.5976 0.2509 -0.7615
vn -0.5986 -0.6463 0.4733
vn -0.5978 -0.6463 -0.4743
vn -0.5989 0.2509 0.7605
vn -0.5986 -0.6503 0.4678
vn -0.5983 0.8013 -0.0039
vn -0.5989 0.2444 0.7627
vn -0.5976 0.2444 -0.7636
vn -0.5989 0.2509 0.7606
usemtl None
s off
f 14/1/1 1/2/1 15/3/1
f 15/3/2 1/2/2 16/4/2
f 16/4/3 1/2/3 17/5/3
f 17/5/4 1/2/4 18/6/4
f 18/6/5 1/2/5 19/7/5
f 1/2/6 20/8/6 19/7/6
f 20/8/7 1/2/7 21/9/7
f 1/2/8 22/10/8 21/9/8
f 22/10/9 1/2/9 13/11/9
f 1/2/10 14/1/10 13/11/10
f 25/12/1 2/13/1 26/14/1
f 26/14/2 2/13/2 27/15/2
f 27/15/3 2/13/3 28/16/3
f 28/16/4 2/13/4 29/17/4
f 29/17/5 2/13/5 30/18/5
f 2/13/6 31/19/6 30/18/6
f 31/19/7 2/13/7 32/20/7
f 2/13/8 33/21/8 32/20/8
f 33/21/9 2/13/9 24/22/9
f 2/13/10 25/12/10 24/22/10
f 36/23/1 3/24/1 37/25/1
f 37/25/2 3/24/2 38/26/2
f 38/26/3 3/24/3 39/27/3
f 39/27/4 3/24/4 40/28/4
f 40/28/5 3/24/5 41/29/5
f 3/24/6 42/30/6 41/29/6
f 42/30/7 3/24/7 43/31/7
f 3/24/8 44/32/8 43/31/8
f 44/32/9 3/24/9 35/33/9
f 3/24/10 36/23/10 35/33/10
f 47/34/1 4/35/1 48/36/1
f 48/36/2 4/35/2 49/37/2
f 49/37/3 4/35/3 50/38/3
f 50/38/4 4/35/4 51/39/4
f 51/39/5 4/35/5 52/40/5
f 4/35/6 53/41/6 52/40/6
f 53/41/7 4/35/7 54/42/7
f 4/35/8 55/43/8 54/42/8
f 55/43/9 4/35/9 46/44/9
f 4/35/10 47/34/10 46/44/10
f 58/45/1 5/46/1 59/47/1
f 59/47/2 5/46/2 60/48/2
f 60/48/3 5/46/3 61/49/3
f 61/49/4 5/46/4 62/50/4
f 62/50/5 5/46/5 63/51/5
f 5/46/6 64/52/6 63/51/6
f 64/52/7 5/46/7 65/53/7
f 5/46/8 66/54/8 65/53/8
f 66/54/9 5/46/9 57/55/9
f 5/46/10 58/45/10 57/55/10
f 69/56/1 6/57/1 70/58/1
f 70/58/2 6/57/2 71/59/2
f 71/59/3 6/57/3 72/60/3
f 72/60/4 6/57/4 73/61/4
f 73/61/5 6/57/5 74/62/5
f 6/57/6 75/63/6 74/62/6
f 75/63/7 6/57/7 76/64/7
f 6/57/8 77/65/8 76/64/8
f 77/65/9 6/57/9 68/66/9
f 6/57/10 69/56/10 68/66/10
f 80/67/1 7/68/1 81/69/1
f 81/69/2 7/68/2 82/70/2
f 82/70/11 7/68/11 83/71/11
f 83/71/4 7/68/4 84/72/4
f 84/72/5 7/68/5 85/73/5
f 7/68/6 86/74/6 85/73/6
f 86/74/7 7/68/7 87/75/7
f 7/68/8 88/76/8 87/75/8
f 88/76/9 7/68/9 79/77/9
f 7/68/10 80/67/10 79/77/10
f 91/78/1 8/79/1 92/80/1
f 92/80/2 8/79/2 93/81/2
f 93/81/3 8/79/3 94/82/3
f 94/82/4 8/79/4 95/83/4
f 95/83/5 8/79/5 96/84/5
f 8/79/6 97/85/6 96/84/6
f 97/85/7 8/79/7 98/86/7
f 8/79/8 99/87/8 98/86/8
f 99/87/9 8/79/9 90/88/9
f 8/79/10 91/78/10 90/88/10
f 102/89/1 9/90/1 103/91/1
f 103/91/2 9/90/2 104/92/2
f 104/92/11 9/90/11 105/93/11
f 105/93/4 9/90/4 106/94/4
f 106/94/5 9/90/5 107/95/5
f 9/90/6 108/96/6 107/95/6
f 108/96/7 9/90/7 109/97/7
f 9/90/8 110/98/8 109/97/8
f 110/98/9 9/90/9 101/99/9
f 9/90/10 102/89/10 101/99/10
f 113/100/1 10/101/1 114/102/1
f 114/102/2 10/101/2 115/103/2
f 115/103/3 10/101/3 116/104/3
f 116/104/4 10/101/4 117/105/4
f 117/105/5 10/101/5 118/106/5
f 10/101/6 119/107/6 118/106/6
f 119/107/7 10/101/7 120/108/7
f 10/101/8 121/109/8 120/108/8
f 121/109/9 10/101/9 112/110/9
f 10/101/10 113/100/10 112/110/10
f 124/111/1 11/112/1 125/113/1
f 125/113/2 11/112/2 126/114/2
f 126/114/3 11/112/3 127/115/3
f 127/115/4 11/112/4 128/116/4
f 128/116/5 11/112/5 129/117/5
f 11/112/6 130/118/6 129/117/6
f 130/118/7 11/112/7 131/119/7
f 11/112/8 132/120/8 131/119/8
f 132/120/9 11/112/9 123/121/9
f 11/112/10 124/111/10 123/121/10
f 135/122/1 12/123/1 136/124/1
f 136/124/2 12/123/2 137/125/2
f 137/125/3 12/123/3 138/126/3
f 138/126/4 12/123/4 139/127/4
f 139/127/5 12/123/5 140/128/5
f 12/123/6 141/129/6 140/128/6
f 141/129/7 12/123/7 142/130/7
f 12/123/8 143/131/8 142/130/8
f 143/131/9 12/123/9 134/132/9
f 12/123/10 135/122/10 134/132/10
f 14/133/12 15/134/12 23/135/12
f 15/134/13 16/136/13 23/135/13
f 16/136/14 17/137/14 23/135/14
f 17/137/15 18/138/15 23/135/15
f 18/138/16 19/139/16 23/135/16
f 23/135/17 19/139/17 20/140/17
f 20/140/18 21/141/18 23/135/18
f 23/135/19 21/141/19 22/142/19
f 22/142/20 13/143/20 23/135/20
f 23/135/21 13/143/21 14/133/21
f 25/144/12 26/145/12 34/146/12
f 26/145/13 27/147/13 34/146/13
f 27/147/14 28/148/14 34/146/14
f 28/148/15 29/149/15 34/146/15
f 29/149/16 30/150/16 34/146/16
f 34/146/17 30/150/17 31/151/17
f 31/151/18 32/152/18 34/146/18
f 34/146/19 32/152/19 33/153/19
f 33/153/20 24/154/20 34/146/20
f 34/146/21 24/154/21 25/144/21
f 36/155/12 37/156/12 45/157/12
f 37/156/13 38/158/13 45/157/13
f 38/158/14 39/159/14 45/157/14
f 39/159/15 40/160/15 45/157/15
f 40/160/16 41/161/16 45/157/16
f 45/157/17 41/161/17 42/162/17
f 42/162/18 43/163/18 45/157/18
f 45/157/19 43/163/19 44/164/19
f 44/164/20 35/165/20 45/157/20
f 45/157/21 35/165/21 36/155/21
f 47/166/12 48/167/12 56/168/12
f 48/167/13 49/169/13 56/168/13
f 49/169/14 50/170/14 56/168/14
f 50/170/15 51/171/15 56/168/15
f 51/171/16 52/172/16 56/168/16
f 56/168/17 52/172/17 53/173/17
f 53/173/18 54/174/18 56/168/18
f 56/168/19 54/174/19 55/175/19
f 55/175/20 46/176/20 56/168/20
f 56/168/21 46/176/21 47/166/21
f 58/177/12 59/178/12 67/179/12
f 59/178/13 60/180/13 67/179/13
f 60/180/14 61/181/14 67/179/14
f 61/181/15 62/182/15 67/179/15
f 62/182/16 63/183/16 67/179/16
f 67/179/17 63/183/17 64/184/17
f 64/184/18 65/185/18 67/179/18
f 67/179/19 65/185/19 66/186/19
f 66/186/20 57/187/20 67/179/20
f 67/179/21 57/187/21 58/177/21
f 69/188/12 70/189/12 78/190/12
f 70/189/13 71/191/13 78/190/13
f 71/191/14 72/192/14 78/190/14
f 72/192/15 73/193/15 78/190/15
f 73/193/16 74/194/16 78/190/16
f 78/190/17 74/194/17 75/195/17
f 75/195/18 76/196/18 78/190/18
f 78/190/19 76/196/19 77/197/19
f 77/197/20 68/198/20 78/190/20
f 78/190/21 68/198/21 69/188/21
f 80/199/12 81/200/12 89/201/12
f 81/200/13 82/202/13 89/201/13
f 82/202/14 83/203/14 89/201/14
f 83/203/15 84/204/15 89/201/15
f 84/204/16 85/205/16 89/201/16
f 89/201/17 85/205/17 86/206/17
f 86/206/18 87/207/18 89/201/18
f 89/201/19 87/207/19 88/208/19
f 88/208/20 79/209/20 89/201/20
f 89/201/21 79/209/21 80/199/21
f 91/210/12 92/211/12 100/212/12
f 92/211/13 93/213/13 100/212/13
f 93/213/14 94/214/14 100/212/14
f 94/214/15 95/215/15 100/212/15
f 95/215/16 96/216/16 100/212/16
f 100/212/17 96/216/17 97/217/17
f 97/217/18 98/218/18 100/212/18
f 100/212/19 98/218/19 99/219/19
f 99/219/20 90/220/20 100/212/20
f 100/212/21 90/220/21 91/210/21
f 102/221/12 103/222/12 111/223/12
f 103/222/13 104/224/13 111/223/13
f 104/224/14 105/225/14 111/223/14
f 105/225/15 106/226/15 111/223/15
f 106/226/16 107/227/16 111/223/16
f 111/223/22 107/227/22 108/228/22
f 108/228/18 109/229/18 111/223/18
f 111/223/19 109/229/19 110/230/19
f 110/230/20 101/231/20 111/223/20
f 111/223/21 101/231/21 102/221/21
f 113/232/12 114/233/12 122/234/12
f 114/233/13 115/235/13 122/234/13
f 115/235/14 116/236/14 122/234/14
f 116/236/15 117/237/15 122/234/15
f 117/237/16 118/238/16 122/234/16
f 122/234/17 118/238/17 119/239/17
f 119/239/18 120/240/18 122/234/18
f 122/234/19 120/240/19 121/241/19
f 121/241/20 112/242/20 122/234/20
f 122/234/21 112/242/21 113/232/21
f 124/243/12 125/244/12 133/245/12
f 125/244/13 126/246/13 133/245/13
f 126/246/14 127/247/14 133/245/14
f 127/247/15 128/248/15 133/245/15
f 128/248/16 129/249/16 133/245/16
f 133/245/17 129/249/17 130/250/17
f 130/250/18 131/251/18 133/245/18
f 133/245/19 131/251/19 132/252/19
f 132/252/20 123/253/20 133/245/20
f 133/245/21 123/253/21 124/243/21
f 135/254/12 136/255/12 144/256/12
f 136/255/13 137/257/13 144/256/13
f 137/257/14 138/258/14 144/256/14
f 138/258/15 139/259/15 144/256/15
f 139/259/16 140/260/16 144/256/16
f 144/256/22 140/260/22 141/261/22
f 141/261/18 142/262/18 144/256/18
f 144/256/19 142/262/19 143/263/19
f 143/263/20 134/264/20 144/256/20
f 144/256/21 134/264/21 135/254/21
