# Blender v2.91.2 OBJ File: 'face_2.blend'
# www.blender.org
mtllib face_2.mtl
o Cube.001_Cube.014
v 1.000000 -1.000000 1.000000
v 1.000000 0.600000 1.000000
v 1.000000 -1.000000 -1.000000
v 1.000000 0.600000 -1.000000
v 0.933235 -0.626086 0.577050
v 0.932286 -0.665622 0.569044
v 0.935829 -0.699315 0.547126
v 0.943322 -0.722034 0.514633
v 0.953626 -0.730321 0.476512
v 0.965172 -0.722914 0.438565
v 0.976202 -0.700941 0.406570
v 0.985036 -0.667747 0.385399
v 0.990331 -0.628386 0.378273
v 0.991279 -0.588850 0.386279
v 0.987737 -0.555157 0.408197
v 0.980244 -0.532438 0.440690
v 0.969939 -0.524151 0.478812
v 0.958394 -0.531558 0.516758
v 0.947364 -0.553531 0.548753
v 0.938529 -0.586725 0.569924
v 1.945961 -0.709252 0.848916
v 1.922607 -0.707552 0.862179
v 1.940891 -0.708946 0.857452
v 1.932343 -0.708324 0.862306
v 1.921659 -0.747089 0.854174
v 1.945189 -0.741443 0.842398
v 1.931418 -0.746876 0.854500
v 1.940031 -0.744810 0.850190
v 1.925201 -0.780781 0.832256
v 1.948073 -0.768876 0.824552
v 1.934872 -0.779730 0.833128
v 1.943244 -0.775373 0.830308
v 1.932695 -0.803500 0.799763
v 1.954175 -0.787374 0.798096
v 1.942179 -0.801883 0.801443
v 1.950042 -0.795981 0.800833
v 1.942999 -0.811787 0.761641
v 1.962564 -0.794122 0.767057
v 1.952227 -0.809964 0.764271
v 1.959388 -0.803498 0.766253
v 1.954545 -0.804380 0.723694
v 1.971965 -0.788091 0.736160
v 1.963485 -0.802742 0.727268
v 1.969862 -0.796780 0.731831
v 1.965574 -0.782407 0.691700
v 1.980946 -0.770200 0.710110
v 1.974241 -0.781316 0.696070
v 1.979867 -0.776848 0.702809
v 1.974409 -0.749214 0.670528
v 1.988139 -0.743173 0.692872
v 1.982855 -0.748948 0.675426
v 1.987881 -0.746737 0.683604
v 1.979704 -0.709852 0.663403
v 1.992450 -0.711125 0.687070
v 1.988018 -0.710567 0.668478
v 1.992684 -0.711033 0.677141
v 1.980652 -0.670316 0.671409
v 1.993222 -0.678934 0.693588
v 1.988943 -0.672015 0.676284
v 1.993544 -0.675169 0.684403
v 1.977110 -0.636624 0.693326
v 1.990338 -0.651501 0.711434
v 1.985489 -0.639161 0.697656
v 1.990331 -0.644606 0.704284
v 1.969616 -0.613904 0.725819
v 1.984237 -0.633003 0.737890
v 1.978182 -0.617007 0.729341
v 1.983533 -0.623998 0.733759
v 1.959312 -0.605618 0.763941
v 1.975847 -0.626256 0.768929
v 1.968134 -0.608926 0.766514
v 1.974186 -0.616480 0.768339
v 1.947766 -0.613024 0.801888
v 1.966446 -0.632286 0.799826
v 1.956876 -0.616149 0.803516
v 1.963713 -0.623199 0.802761
v 1.936736 -0.634997 0.833882
v 1.957466 -0.650177 0.825877
v 1.946121 -0.637575 0.834714
v 1.953708 -0.643131 0.831784
v 1.927902 -0.668191 0.855054
v 1.950272 -0.677204 0.843115
v 1.937506 -0.669942 0.855358
v 1.945694 -0.673241 0.850988
v 1.969206 -0.710188 0.767993
vt 0.025543 0.780382
vt 0.025543 0.021251
vt 0.974457 0.021251
vt 0.974457 0.780382
vt 0.961100 0.844604
vt 0.680262 0.844604
vt 0.680262 0.833325
vt 0.961100 0.833325
vt 0.961100 0.810767
vt 0.680262 0.810767
vt 0.680262 0.799488
vt 0.961100 0.799488
vt 0.961100 0.979953
vt 0.680262 0.979953
vt 0.680262 0.968674
vt 0.961100 0.968674
vt 0.680262 0.957395
vt 0.961100 0.957395
vt 0.680262 0.946116
vt 0.961100 0.946116
vt 0.680262 0.934837
vt 0.961100 0.934837
vt 0.680262 0.923557
vt 0.961100 0.923557
vt 0.680262 0.912278
vt 0.961100 0.912278
vt 0.680262 0.900999
vt 0.961100 0.900999
vt 0.680262 0.889720
vt 0.961100 0.889720
vt 0.680262 0.878441
vt 0.961100 0.878441
vt 0.680262 0.867162
vt 0.961100 0.867162
vt 0.680262 0.855883
vt 0.961100 0.855883
vt 0.680262 0.822046
vt 0.961100 0.822046
vt 0.963755 0.833325
vt 0.963755 0.844604
vt 0.966434 0.833325
vt 0.966434 0.844604
vt 0.969134 0.833325
vt 0.969134 0.844604
vt 0.963755 0.822046
vt 0.966434 0.822046
vt 0.969134 0.822046
vt 0.963755 0.810767
vt 0.966434 0.810767
vt 0.969134 0.810767
vt 0.963755 0.799488
vt 0.966434 0.799488
vt 0.969134 0.799488
vt 0.963755 0.968674
vt 0.963755 0.979953
vt 0.966434 0.968674
vt 0.966434 0.979953
vt 0.969134 0.968674
vt 0.969134 0.979953
vt 0.963755 0.957395
vt 0.966434 0.957395
vt 0.969134 0.957395
vt 0.963755 0.946116
vt 0.966434 0.946116
vt 0.969134 0.946116
vt 0.963755 0.934837
vt 0.966434 0.934837
vt 0.969134 0.934837
vt 0.963755 0.923557
vt 0.966434 0.923557
vt 0.969134 0.923557
vt 0.963755 0.912278
vt 0.966434 0.912278
vt 0.969134 0.912278
vt 0.963755 0.900999
vt 0.966434 0.900999
vt 0.969134 0.900999
vt 0.963755 0.889720
vt 0.966434 0.889720
vt 0.969134 0.889720
vt 0.963755 0.878441
vt 0.966434 0.878441
vt 0.969134 0.878441
vt 0.963755 0.867162
vt 0.966434 0.867162
vt 0.969134 0.867162
vt 0.963755 0.855883
vt 0.966434 0.855883
vt 0.969134 0.855883
vt 0.652017 0.972442
vt 0.639234 0.953311
vt 0.658365 0.966094
vt 0.658365 0.940528
vt 0.652017 0.934180
vt 0.661801 0.948823
vt 0.616668 0.957800
vt 0.620103 0.966094
vt 0.626451 0.972442
vt 0.634746 0.975878
vt 0.643723 0.975878
vt 0.661801 0.957800
vt 0.643723 0.930745
vt 0.616668 0.948823
vt 0.626451 0.934180
vt 0.620103 0.940528
vt 0.634746 0.930745
vn 1.0000 0.0000 0.0000
vn -0.1484 0.0007 0.9889
vn -0.2760 0.0111 0.9611
vn -0.2852 -0.3712 0.8836
vn -0.1574 -0.3783 0.9122
vn -0.0516 -0.9191 0.3905
vn -0.1785 -0.9167 0.3575
vn -0.0789 -0.9968 -0.0111
vn 0.0471 -0.9986 0.0251
vn 0.0327 -0.9252 -0.3781
vn 0.1578 -0.9275 -0.3387
vn 0.1394 -0.7127 -0.6874
vn 0.2635 -0.7169 -0.6454
vn 0.2249 -0.3917 -0.8921
vn 0.3482 -0.3987 -0.8484
vn 0.2760 -0.0111 -0.9611
vn 0.3990 -0.0213 -0.9167
vn 0.2852 0.3712 -0.8836
vn 0.4081 0.3577 -0.8399
vn 0.2510 0.6970 -0.6717
vn 0.3741 0.6807 -0.6298
vn 0.1785 0.9167 -0.3575
vn 0.3023 0.8985 -0.3183
vn 0.0789 0.9968 0.0111
vn 0.2035 0.9779 0.0471
vn -0.0327 0.9252 0.3780
vn 0.0928 0.9069 0.4109
vn -0.1394 0.7127 0.6874
vn -0.0129 0.6962 0.7176
vn -0.2249 0.3917 0.8921
vn -0.0976 0.3780 0.9206
vn -0.2510 -0.6970 0.6717
vn -0.1235 -0.7013 0.7020
vn 0.2236 -0.3619 0.9050
vn 0.2316 -0.0292 0.9724
vn 0.6723 -0.2595 0.6933
vn 0.6771 -0.0617 0.7333
vn 0.9069 -0.1314 0.4003
vn 0.9082 -0.0764 0.4114
vn 0.2535 -0.6454 0.7205
vn 0.6901 -0.4280 0.5836
vn 0.9118 -0.1783 0.3698
vn 0.3165 -0.8366 0.4471
vn 0.7275 -0.5416 0.4212
vn 0.9222 -0.2099 0.3246
vn 0.4032 -0.9063 0.1263
vn 0.7790 -0.5830 0.2305
vn 0.9366 -0.2214 0.2716
vn 0.5004 -0.8440 -0.1930
vn 0.8368 -0.5460 0.0407
vn 0.9526 -0.2111 0.2188
vn 0.5932 -0.6591 -0.4622
vn 0.8919 -0.4361 -0.1192
vn 0.9680 -0.1805 0.1743
vn 0.6676 -0.3797 -0.6404
vn 0.9361 -0.2701 -0.2251
vn 0.9803 -0.1344 0.1448
vn 0.7121 -0.0485 -0.7004
vn 0.9626 -0.0732 -0.2608
vn 0.9876 -0.0797 0.1350
vn 0.7201 0.2842 -0.6330
vn 0.9673 0.1245 -0.2207
vn 0.9890 -0.0247 0.1461
vn 0.6903 0.5677 -0.4486
vn 0.9496 0.2929 -0.1111
vn 0.9840 0.0222 0.1765
vn 0.6272 0.7589 -0.1751
vn 0.9122 0.4065 0.0514
vn 0.9736 0.0538 0.2217
vn 0.5405 0.8286 0.1457
vn 0.8606 0.4480 0.2420
vn 0.9593 0.0653 0.2748
vn 0.4433 0.7663 0.4650
vn 0.8029 0.4110 0.4318
vn 0.9432 0.0550 0.3276
vn 0.3505 0.5814 0.7342
vn 0.7477 0.3011 0.5918
vn 0.9279 0.0244 0.3721
vn 0.2762 0.3020 0.9124
vn 0.7035 0.1351 0.6977
vn 0.9156 -0.0217 0.4015
vn 0.9579 -0.0789 0.2760
usemtl None
s off
f 2/1/1 1/2/1 3/3/1 4/4/1
s 1
f 22/5/2 5/6/3 6/7/4 25/8/5
f 33/9/6 8/10/7 9/11/8 37/12/9
f 37/13/9 9/14/8 10/15/10 41/16/11
f 41/16/11 10/15/10 11/17/12 45/18/13
f 45/18/13 11/17/12 12/19/14 49/20/15
f 49/20/15 12/19/14 13/21/16 53/22/17
f 53/22/17 13/21/16 14/23/18 57/24/19
f 57/24/19 14/23/18 15/25/20 61/26/21
f 61/26/21 15/25/20 16/27/22 65/28/23
f 65/28/23 16/27/22 17/29/24 69/30/25
f 69/30/25 17/29/24 18/31/26 73/32/27
f 73/32/27 18/31/26 19/33/28 77/34/29
f 77/34/29 19/33/28 20/35/30 81/36/31
f 25/8/5 6/7/4 7/37/32 29/38/33
f 29/38/33 7/37/32 8/10/7 33/9/6
f 81/36/31 20/35/30 5/6/3 22/5/2
f 22/5/2 25/8/5 27/39/34 24/40/35
f 24/40/35 27/39/34 28/41/36 23/42/37
f 23/42/37 28/41/36 26/43/38 21/44/39
f 25/8/5 29/38/33 31/45/40 27/39/34
f 27/39/34 31/45/40 32/46/41 28/41/36
f 28/41/36 32/46/41 30/47/42 26/43/38
f 29/38/33 33/9/6 35/48/43 31/45/40
f 31/45/40 35/48/43 36/49/44 32/46/41
f 32/46/41 36/49/44 34/50/45 30/47/42
f 33/9/6 37/12/9 39/51/46 35/48/43
f 35/48/43 39/51/46 40/52/47 36/49/44
f 36/49/44 40/52/47 38/53/48 34/50/45
f 37/13/9 41/16/11 43/54/49 39/55/46
f 39/55/46 43/54/49 44/56/50 40/57/47
f 40/57/47 44/56/50 42/58/51 38/59/48
f 41/16/11 45/18/13 47/60/52 43/54/49
f 43/54/49 47/60/52 48/61/53 44/56/50
f 44/56/50 48/61/53 46/62/54 42/58/51
f 45/18/13 49/20/15 51/63/55 47/60/52
f 47/60/52 51/63/55 52/64/56 48/61/53
f 48/61/53 52/64/56 50/65/57 46/62/54
f 49/20/15 53/22/17 55/66/58 51/63/55
f 51/63/55 55/66/58 56/67/59 52/64/56
f 52/64/56 56/67/59 54/68/60 50/65/57
f 53/22/17 57/24/19 59/69/61 55/66/58
f 55/66/58 59/69/61 60/70/62 56/67/59
f 56/67/59 60/70/62 58/71/63 54/68/60
f 57/24/19 61/26/21 63/72/64 59/69/61
f 59/69/61 63/72/64 64/73/65 60/70/62
f 60/70/62 64/73/65 62/74/66 58/71/63
f 61/26/21 65/28/23 67/75/67 63/72/64
f 63/72/64 67/75/67 68/76/68 64/73/65
f 64/73/65 68/76/68 66/77/69 62/74/66
f 65/28/23 69/30/25 71/78/70 67/75/67
f 67/75/67 71/78/70 72/79/71 68/76/68
f 68/76/68 72/79/71 70/80/72 66/77/69
f 69/30/25 73/32/27 75/81/73 71/78/70
f 71/78/70 75/81/73 76/82/74 72/79/71
f 72/79/71 76/82/74 74/83/75 70/80/72
f 73/32/27 77/34/29 79/84/76 75/81/73
f 75/81/73 79/84/76 80/85/77 76/82/74
f 76/82/74 80/85/77 78/86/78 74/83/75
f 77/34/29 81/36/31 83/87/79 79/84/76
f 79/84/76 83/87/79 84/88/80 80/85/77
f 80/85/77 84/88/80 82/89/81 78/86/78
f 81/36/31 22/5/2 24/40/35 83/87/79
f 83/87/79 24/40/35 23/42/37 84/88/80
f 84/88/80 23/42/37 21/44/39 82/89/81
f 21/90/39 85/91/82 82/92/81
f 70/93/72 85/91/82 66/94/69
f 74/95/75 85/91/82 70/93/72
f 42/96/51 85/91/82 38/97/48
f 85/91/82 34/98/45 38/97/48
f 34/98/45 85/91/82 30/99/42
f 85/91/82 26/100/38 30/99/42
f 26/100/38 85/91/82 21/90/39
f 82/92/81 85/91/82 78/101/78
f 78/101/78 85/91/82 74/95/75
f 66/94/69 85/91/82 62/102/66
f 46/103/54 85/91/82 42/96/51
f 54/104/60 85/91/82 50/105/57
f 50/105/57 85/91/82 46/103/54
f 62/102/66 85/91/82 58/106/63
f 58/106/63 85/91/82 54/104/60
