# Blender v2.91.2 OBJ File: 'face_3.blend'
# www.blender.org
mtllib face_3.mtl
o Cube_Cube.001
v -1.010000 -1.000000 1.005000
v -1.010000 1.005000 1.005000
v -1.010000 -1.000000 -1.005000
v -1.010000 1.005000 -1.005000
v 1.005000 -1.000000 1.005000
v 1.005000 1.005000 1.005000
v 1.005000 -1.000000 -1.005000
v 1.005000 1.005000 -1.005000
vt 0.337574 0.983987
vt 0.337574 0.661597
vt 0.660768 0.661597
vt 0.660768 0.983987
vt 0.983962 0.016013
vt 0.983962 0.338403
vt 0.660768 0.338403
vt 0.660768 0.016013
vt 0.337574 0.338403
vt 0.337574 0.016013
vt 0.014380 0.338403
vt 0.014380 0.016013
vn -1.0000 0.0000 0.0000
vn 0.0000 0.0000 -1.0000
vn 1.0000 0.0000 0.0000
vn 0.0000 0.0000 1.0000
vn 0.0000 1.0000 0.0000
usemtl None
s off
f 1/1/1 2/2/1 4/3/1 3/4/1
f 3/5/2 4/6/2 8/7/2 7/8/2
f 7/8/3 8/7/3 6/9/3 5/10/3
f 5/10/4 6/9/4 2/11/4 1/12/4
f 8/7/5 4/3/5 2/2/5 6/9/5
