# Blender v2.93.4 OBJ File: ''
# www.blender.org
mtllib face_4.mtl
o Cube_Cube.001
v -1.010000 -1.000000 1.005000
v -1.010000 1.005000 1.005000
v -1.010000 1.005000 -1.005000
v -1.010000 -1.000000 -1.005000
v 1.005000 1.005000 -1.005000
v 1.005000 -1.000000 -1.005000
v 1.005000 1.005000 1.005000
v 1.005000 -1.000000 1.005000
v 1.005000 -0.072295 -0.154627
v 1.005000 -0.181632 -0.109337
v 1.005000 -0.226921 0.000000
v 1.005000 -0.181632 0.109338
v 1.005000 -0.072295 0.154627
v 1.005000 0.037043 0.109338
v 1.005000 0.082332 0.000000
v 1.005000 0.037043 -0.109337
v 1.835393 -0.056593 -0.000000
v 1.686996 -0.021013 -0.000000
v 1.835393 -0.072294 0.015701
v 1.686996 -0.072294 0.051282
v 1.835393 -0.087996 -0.000000
v 1.686996 -0.123576 -0.000000
v 1.835393 -0.061192 -0.011103
v 1.686996 -0.036033 -0.036262
v 1.835393 -0.072294 -0.015701
v 1.686996 -0.072294 -0.051282
v 1.835393 -0.061192 0.011103
v 1.686996 -0.036033 0.036262
v 1.835393 -0.083397 0.011103
v 1.686996 -0.108556 0.036262
v 1.835393 -0.083397 -0.011103
v 1.686996 -0.108556 -0.036262
v 1.005000 -0.131399 -0.142692
v 1.005000 -0.214986 -0.059105
v 1.005000 -0.214986 0.059105
v 1.005000 -0.131399 0.142692
v 1.005000 -0.013190 0.142692
v 1.005000 0.070397 0.059105
v 1.005000 0.070397 -0.059105
v 1.005000 -0.013190 -0.142692
v 1.812745 -0.053848 -0.018447
v 1.836588 -0.067251 -0.012176
v 1.812745 -0.072294 -0.026088
v 1.686996 -0.052692 -0.047324
v 1.812744 -0.053848 0.018447
v 1.686996 -0.052692 0.047324
v 1.812744 -0.072294 0.026088
v 1.836588 -0.067251 0.012176
v 1.812745 -0.090741 -0.018447
v 1.836588 -0.084470 -0.005043
v 1.812745 -0.098382 -0.000000
v 1.686996 -0.119618 -0.019602
v 1.836588 -0.077338 -0.012176
v 1.686996 -0.091897 -0.047324
v 1.812744 -0.046207 -0.000000
v 1.686996 -0.024971 0.019602
v 1.836588 -0.060119 0.005043
v 1.812744 -0.090741 0.018447
v 1.686996 -0.119618 0.019602
v 1.836588 -0.084470 0.005043
v 1.836588 -0.060119 -0.005043
v 1.686996 -0.024971 -0.019602
v 1.686996 -0.091897 0.047324
v 1.836588 -0.077338 0.012176
v 1.395511 0.024635 0.000000
v 1.395511 -0.003755 -0.068539
v 1.395511 -0.003755 0.068539
v 1.395511 -0.140834 0.068539
v 1.395511 -0.072294 0.096929
v 1.395511 -0.169224 0.000000
v 1.395511 -0.140834 -0.068539
v 1.395511 -0.072295 -0.096929
v 1.395511 -0.109345 0.089448
v 1.395511 -0.109345 -0.089448
v 1.395511 -0.161742 0.037051
v 1.395511 -0.035244 -0.089448
v 1.839635 -0.072294 -0.000000
v 1.395511 -0.161742 -0.037051
v 1.395511 0.017153 0.037051
v 1.395511 -0.035244 0.089448
v 1.812862 -0.062405 -0.023876
v 1.812862 -0.062405 0.023876
v 1.812862 -0.096170 -0.009890
v 1.812862 -0.082184 -0.023876
v 1.812862 -0.048419 0.009890
v 1.812862 -0.096170 0.009890
v 1.812862 -0.048419 -0.009890
v 1.812862 -0.082184 0.023876
v 1.395511 0.017153 -0.037051
vt 0.337574 0.983987
vt 0.337574 0.661597
vt 0.660768 0.661597
vt 0.660768 0.983987
vt 0.983962 0.016013
vt 0.983962 0.338403
vt 0.660768 0.338403
vt 0.660768 0.016013
vt 0.337574 0.338403
vt 0.337574 0.016013
vt 0.014380 0.338403
vt 0.014380 0.016013
vt 0.822443 0.491275
vt 0.833130 0.492653
vt 0.820475 0.651265
vt 0.800005 0.649067
vt 0.843891 0.493257
vt 0.841039 0.652258
vt 0.837182 0.867317
vt 0.804271 0.865766
vt 0.771507 0.862348
vt 0.178757 0.500654
vt 0.189535 0.500724
vt 0.192242 0.659818
vt 0.171657 0.659522
vt 0.200287 0.500017
vt 0.212811 0.658904
vt 0.227910 0.873549
vt 0.194997 0.874911
vt 0.162053 0.874401
vt 0.801461 0.486158
vt 0.811823 0.489085
vt 0.779690 0.645634
vt 0.759634 0.641033
vt 0.739000 0.857029
vt 0.706877 0.849897
vt 0.157369 0.498099
vt 0.168016 0.499762
vt 0.151126 0.657980
vt 0.130722 0.655236
vt 0.129195 0.871970
vt 0.096534 0.867678
vt 0.182133 0.425116
vt 0.182514 0.416588
vt 0.184519 0.423786
vt 0.177053 0.423461
vt 0.175767 0.420616
vt 0.172886 0.418535
vt 0.850420 0.416323
vt 0.845400 0.409121
vt 0.851882 0.413563
vt 0.845247 0.417657
vt 0.842949 0.416179
vt 0.840125 0.416138
vt 0.835827 0.411325
vt 0.838763 0.413328
vt 0.187340 0.423921
vt 0.211024 0.498496
vt 0.233300 0.656749
vt 0.221548 0.496223
vt 0.253605 0.653411
vt 0.293193 0.865166
vt 0.260686 0.870275
vt 0.865397 0.492045
vt 0.876089 0.490237
vt 0.902587 0.647838
vt 0.882162 0.650541
vt 0.886548 0.487684
vt 0.922795 0.643959
vt 0.968028 0.854581
vt 0.935670 0.860556
vt 0.902993 0.864706
vt 0.854667 0.493039
vt 0.861626 0.652004
vt 0.870128 0.866947
vt 0.179875 0.423578
vt 0.176785 0.435182
vt 0.171921 0.433884
vt 0.181651 0.435903
vt 0.849955 0.428037
vt 0.854890 0.427046
vt 0.845053 0.428453
vt 0.847596 0.416262
vt 0.188875 0.421202
vt 0.196536 0.432816
vt 0.191522 0.434760
vt 0.191930 0.419386
vt 0.201526 0.430387
vt 0.186561 0.435619
vt 0.859851 0.424969
vt 0.864773 0.422407
vt 0.854888 0.411666
vt 0.830390 0.424440
vt 0.835273 0.426694
vt 0.825562 0.421704
vt 0.167100 0.431501
vt 0.162347 0.428636
vt 0.146811 0.495626
vt 0.136532 0.492424
vt 0.840170 0.427861
vt 0.110506 0.651261
vt 0.090580 0.646125
vt 0.064181 0.861492
vt 0.032260 0.853504
vn -1.0000 -0.0000 0.0000
vn 0.0000 0.0000 -1.0000
vn 1.0000 0.0000 0.0000
vn 0.0000 -0.0000 1.0000
vn 0.0000 1.0000 0.0000
vn 0.1756 -0.6961 0.6961
vn 0.1752 -0.3768 0.9096
vn 0.1502 -0.3783 0.9134
vn 0.1504 -0.6991 0.6991
vn 0.1756 -0.0000 0.9845
vn 0.1504 0.0000 0.9886
vn 0.1462 0.0000 0.9893
vn 0.1460 -0.3786 0.9140
vn 0.1462 -0.6995 0.6995
vn 0.1756 0.0000 -0.9845
vn 0.1752 -0.3768 -0.9096
vn 0.1502 -0.3783 -0.9134
vn 0.1504 0.0000 -0.9886
vn 0.1756 -0.6961 -0.6961
vn 0.1504 -0.6991 -0.6991
vn 0.1462 -0.6995 -0.6995
vn 0.1460 -0.3786 -0.9140
vn 0.1462 0.0000 -0.9893
vn 0.1756 -0.9845 0.0000
vn 0.1752 -0.9096 0.3768
vn 0.1502 -0.9134 0.3783
vn 0.1504 -0.9886 0.0000
vn 0.1460 -0.9140 0.3786
vn 0.1462 -0.9893 0.0000
vn 0.1756 0.6961 -0.6961
vn 0.1752 0.3768 -0.9096
vn 0.1502 0.3783 -0.9134
vn 0.1504 0.6991 -0.6991
vn 0.1460 0.3786 -0.9140
vn 0.1462 0.6995 -0.6995
vn 0.6741 0.0000 -0.7386
vn 0.8281 -0.2145 -0.5179
vn 0.6741 0.5223 -0.5223
vn 0.8281 0.5179 -0.2145
vn 0.6741 0.7386 0.0000
vn 0.6741 0.5223 0.5223
vn 0.8281 0.5179 0.2145
vn 0.6741 0.0000 0.7386
vn 0.8281 -0.2145 0.5179
vn 0.6741 -0.5223 0.5223
vn 0.6741 -0.7386 0.0000
vn 0.8281 -0.5179 0.2145
vn 0.6741 -0.5223 -0.5223
vn 0.1752 -0.9096 -0.3768
vn 0.1502 -0.9134 -0.3783
vn 0.1460 -0.9140 -0.3786
vn 0.1756 0.6961 0.6961
vn 0.1752 0.9096 0.3768
vn 0.1502 0.9134 0.3783
vn 0.1504 0.6991 0.6991
vn 0.1756 0.9845 0.0000
vn 0.1504 0.9886 0.0000
vn 0.1462 0.9893 0.0000
vn 0.1460 0.9140 0.3786
vn 0.1462 0.6995 0.6995
vn 0.1752 0.3768 0.9096
vn 0.1502 0.3783 0.9134
vn 0.1460 0.3786 0.9140
vn 0.8281 0.2145 -0.5179
vn 0.3166 0.3630 -0.8763
vn 0.3215 0.6696 -0.6696
vn 0.3215 -0.0000 -0.9469
vn 0.3166 0.3630 0.8763
vn 0.3215 0.6696 0.6696
vn 0.3215 -0.0000 0.9469
vn 0.8281 0.2145 0.5179
vn 0.8281 -0.5179 -0.2145
vn 0.3166 -0.8763 -0.3630
vn 0.3215 -0.6696 -0.6696
vn 0.3215 -0.9469 0.0000
vn 0.3166 -0.3630 -0.8763
vn 0.3166 0.8763 0.3630
vn 0.3215 0.9469 0.0000
vn 0.3166 -0.8763 0.3630
vn 0.3215 -0.6696 0.6696
vn 0.3166 0.8763 -0.3630
vn 0.1752 0.9096 -0.3768
vn 0.3166 -0.3630 0.8763
vn 0.1502 0.9134 -0.3783
vn 0.1460 0.9140 -0.3786
usemtl None
s 1
f 1/1/1 2/2/1 3/3/1 4/4/1
f 4/5/2 3/6/2 5/7/2 6/8/2
f 6/8/3 5/7/3 7/9/3 8/10/3
f 8/10/4 7/9/4 2/11/4 1/12/4
f 5/7/5 3/3/5 2/2/5 7/9/5
f 30/13/6 63/14/7 73/15/8 68/16/9
f 63/14/7 20/17/10 69/18/11 73/15/8
f 73/15/8 69/18/11 13/19/12 36/20/13
f 68/16/9 73/15/8 36/20/13 12/21/14
f 26/22/15 54/23/16 74/24/17 72/25/18
f 54/23/16 32/26/19 71/27/20 74/24/17
f 74/24/17 71/27/20 10/28/21 33/29/22
f 72/25/18 74/24/17 33/29/22 9/30/23
f 22/31/24 59/32/25 75/33/26 70/34/27
f 59/32/25 30/13/6 68/16/9 75/33/26
f 75/33/26 68/16/9 12/21/14 35/35/28
f 70/34/27 75/33/26 35/35/28 11/36/29
f 24/37/30 44/38/31 76/39/32 66/40/33
f 44/38/31 26/22/15 72/25/18 76/39/32
f 76/39/32 72/25/18 9/30/23 40/41/34
f 66/40/33 76/39/32 40/41/34 16/42/35
f 25/43/36 77/44/3 53/45/37
f 23/46/38 61/47/39 77/44/3
f 17/48/40 77/44/3 61/47/39
f 27/49/41 77/50/3 57/51/42
f 19/52/43 64/53/44 77/50/3
f 29/54/45 77/50/3 64/53/44
f 21/55/46 77/50/3 60/56/47
f 31/57/48 53/45/37 77/44/3
f 32/26/19 52/58/49 78/59/50 71/27/20
f 52/58/49 22/60/24 70/61/27 78/59/50
f 78/59/50 70/61/27 11/62/29 34/63/51
f 71/27/20 78/59/50 34/63/51 10/28/21
f 28/64/52 56/65/53 79/66/54 67/67/55
f 56/65/53 18/68/56 65/69/57 79/66/54
f 79/66/54 65/69/57 15/70/58 38/71/59
f 67/67/55 79/66/54 38/71/59 14/72/60
f 20/17/10 46/73/61 80/74/62 69/18/11
f 46/73/61 28/64/52 67/67/55 80/74/62
f 80/74/62 67/67/55 14/72/60 37/75/63
f 69/18/11 80/74/62 37/75/63 13/19/12
f 23/46/38 42/76/64 81/77/65 41/78/66
f 42/76/64 25/43/36 43/79/67 81/77/65
f 81/77/65 43/79/67 26/22/15 44/38/31
f 41/78/66 81/77/65 44/38/31 24/37/30
f 28/64/52 46/73/61 82/80/68 45/81/69
f 46/73/61 20/17/10 47/82/70 82/80/68
f 82/80/68 47/82/70 19/52/43 48/83/71
f 45/81/69 82/80/68 48/83/71 27/49/41
f 31/57/48 50/84/72 83/85/73 49/86/74
f 50/84/72 21/87/46 51/88/75 83/85/73
f 83/85/73 51/88/75 22/60/24 52/58/49
f 49/86/74 83/85/73 52/58/49 32/26/19
f 25/43/36 53/45/37 84/89/76 43/79/67
f 53/45/37 31/57/48 49/86/74 84/89/76
f 84/89/76 49/86/74 32/26/19 54/23/16
f 43/79/67 84/89/76 54/23/16 26/22/15
f 18/68/56 56/65/53 85/90/77 55/91/78
f 56/65/53 28/64/52 45/81/69 85/90/77
f 85/90/77 45/81/69 27/49/41 57/51/42
f 55/91/78 85/90/77 57/51/42 17/92/40
f 30/13/6 59/32/25 86/93/79 58/94/80
f 59/32/25 22/31/24 51/95/75 86/93/79
f 86/93/79 51/95/75 21/55/46 60/56/47
f 58/94/80 86/93/79 60/56/47 29/54/45
f 17/48/40 61/47/39 87/96/81 55/97/78
f 61/47/39 23/46/38 41/78/66 87/96/81
f 87/96/81 41/78/66 24/37/30 62/98/82
f 55/97/78 87/96/81 62/98/82 18/99/56
f 20/17/10 63/14/7 88/100/83 47/82/70
f 63/14/7 30/13/6 58/94/80 88/100/83
f 88/100/83 58/94/80 29/54/45 64/53/44
f 47/82/70 88/100/83 64/53/44 19/52/43
f 18/99/56 62/98/82 89/101/84 65/102/57
f 62/98/82 24/37/30 66/40/33 89/101/84
f 89/101/84 66/40/33 16/42/35 39/103/85
f 65/102/57 89/101/84 39/103/85 15/104/58
f 77/50/3 17/92/40 57/51/42
f 77/44/3 21/87/46 50/84/72
f 77/50/3 27/49/41 48/83/71
f 77/44/3 50/84/72 31/57/48
f 77/44/3 42/76/64 23/46/38
f 77/44/3 25/43/36 42/76/64
f 77/50/3 48/83/71 19/52/43
f 77/50/3 29/54/45 60/56/47
