# Blender v3.1.2 OBJ File: 'face.blend'
# www.blender.org
mtllib face.mtl
o Face_Cube.015
v 1.000000 -1.000000 1.000000
v 1.000000 1.000000 1.000000
v -1.000000 -1.000000 1.000000
v -1.000000 1.000000 1.000000
v 1.000000 -1.000000 -1.000000
v 1.000000 1.000000 -1.000000
v -1.000000 -1.000000 -1.000000
v -1.000000 1.000000 -1.000000
v 1.000000 -0.583581 -0.333333
v 1.000000 -0.583581 0.333333
v 1.000000 -0.702877 0.333333
v 1.000000 -0.702877 -0.333333
v 0.929838 -0.702877 0.333333
v 0.929838 -0.702877 -0.333333
v 0.929838 -0.583581 -0.333333
v 0.929838 -0.583581 0.333333
v 1.000000 0.748724 -1.000000
v 1.000000 0.748724 1.000000
v -1.000000 0.748724 1.000000
v -1.000000 0.748724 -1.000000
v 1.000000 -0.318203 1.000000
v -1.000000 -0.318204 1.000000
v -1.000000 -0.318203 -1.000000
v 1.000000 -0.318203 -1.000000
v 1.077540 0.026305 0.571462
v 1.077540 0.302900 0.571462
v 0.986130 0.026305 0.571462
v 0.986130 0.302900 0.571462
v 1.077540 0.026305 0.294867
v 1.077540 0.302900 0.294867
v 0.986130 0.026305 0.294867
v 0.986130 0.302900 0.294867
v 1.077540 0.026305 -0.571462
v 1.077540 0.302900 -0.571462
v 0.986130 0.026305 -0.571462
v 0.986130 0.302900 -0.571462
v 1.077540 0.026305 -0.294867
v 1.077540 0.302900 -0.294867
v 0.986130 0.026305 -0.294867
v 0.986130 0.302900 -0.294867
v 1.074240 -0.379302 0.134998
v 1.048118 0.134998 0.134998
v 0.989753 -0.379302 0.134998
v 0.989753 0.134998 0.134998
v 1.074240 -0.379302 -0.134998
v 1.048118 0.134998 -0.134998
v 0.989753 -0.379302 -0.134998
v 0.989753 0.134998 -0.134998
v 1.074240 -0.061397 0.134998
v 0.989753 -0.061397 0.134998
v 0.989753 -0.061397 -0.134998
v 1.074240 -0.061397 -0.134998
v 1.077540 0.390283 0.715850
v 1.077540 0.548059 0.715850
v 0.996090 0.390283 0.715850
v 0.996090 0.548059 0.715850
v 1.077540 0.390283 0.240721
v 1.077540 0.509205 0.240721
v 0.996090 0.390283 0.240721
v 0.996090 0.509205 0.240721
v 1.077540 0.390283 -0.715850
v 1.077540 0.548059 -0.715850
v 0.996090 0.390283 -0.715850
v 0.996090 0.548059 -0.715850
v 1.077540 0.390283 -0.240721
v 1.077540 0.509205 -0.240721
v 0.996090 0.390283 -0.240721
v 0.996090 0.509205 -0.240721
v 1.523684 -0.609302 -0.281896
v 1.523684 -0.677156 -0.281896
v 0.851014 -0.609302 -0.281895
v 0.851015 -0.677156 -0.281896
v 1.304269 -0.609302 -0.281896
v 1.431611 -0.609302 -0.281896
v 1.431611 -0.677156 -0.281896
v 1.304269 -0.677156 -0.281896
v 1.523684 -0.550213 -0.281896
v 1.431611 -0.550213 -0.281896
v 1.431611 -0.717898 -0.281896
v 1.304269 -0.717898 -0.281896
v 1.558463 -0.609302 -0.281896
v 1.558463 -0.677156 -0.281896
v 1.090970 0.044775 0.376893
v 1.090970 0.165455 0.376893
v 1.090970 0.044775 0.497574
v 1.090970 0.165455 0.497574
v 1.090970 0.044775 -0.376893
v 1.090970 0.165455 -0.376893
v 1.090970 0.044775 -0.497574
v 1.090970 0.165455 -0.497574
v 1.072858 0.044775 0.497574
v 1.072858 0.044775 0.376893
v 1.072858 0.165455 0.376893
v 1.072858 0.165455 0.497574
v 1.072858 0.044775 -0.497574
v 1.072858 0.044775 -0.376893
v 1.072858 0.165455 -0.376893
v 1.072858 0.165455 -0.497574
vt 0.637924 0.637224
vt 0.637924 0.601313
vt 0.923749 0.601313
vt 0.923749 0.637224
vt 0.844866 0.549807
vt 0.844866 0.263983
vt 0.942303 0.263983
vt 0.942303 0.549807
vt 0.959659 0.923049
vt 0.923748 0.923049
vt 0.959659 0.637224
vt 0.602013 0.637224
vt 0.637923 0.923048
vt 0.602013 0.923048
vt 0.210634 0.879510
vt 0.210634 0.593685
vt 0.308071 0.593685
vt 0.308071 0.879510
vt 0.308071 0.307860
vt 0.265608 0.403135
vt 0.248559 0.403135
vt 0.210634 0.307860
vt 0.502379 0.104483
vt 0.407104 0.104483
vt 0.407104 0.094456
vt 0.502379 0.094456
vt 0.923748 0.958959
vt 0.637923 0.958959
vt 0.210634 0.022036
vt 0.308071 0.022036
vt 0.265608 0.498410
vt 0.407104 0.077407
vt 0.502379 0.077407
vt 0.397077 0.094456
vt 0.397077 0.077407
vt 0.407104 0.067380
vt 0.502379 0.067380
vt 0.512406 0.077407
vt 0.512406 0.094456
vt 0.805918 0.549807
vt 0.653441 0.549807
vt 0.653441 0.263983
vt 0.805918 0.263983
vt 0.176751 0.593685
vt 0.024274 0.593685
vt 0.024274 0.307860
vt 0.176751 0.307860
vt 0.593895 0.307860
vt 0.593896 0.593685
vt 0.248559 0.498410
vt 0.176751 0.879510
vt 0.024274 0.879510
vt 0.024274 0.022035
vt 0.176751 0.022036
vt 0.406710 0.204415
vt 0.367181 0.204415
vt 0.367181 0.191352
vt 0.406710 0.191352
vt 0.406710 0.257008
vt 0.367181 0.257008
vt 0.367181 0.243944
vt 0.406710 0.243944
vt 0.419773 0.204415
vt 0.419773 0.243944
vt 0.354117 0.243944
vt 0.354117 0.204415
vt 0.545874 0.243944
vt 0.545874 0.257008
vt 0.506345 0.257008
vt 0.506345 0.243944
vt 0.545874 0.191352
vt 0.545874 0.204415
vt 0.506345 0.204415
vt 0.506345 0.191352
vt 0.558937 0.243944
vt 0.558937 0.204415
vt 0.493281 0.204415
vt 0.493281 0.243944
vt 0.408106 0.771327
vt 0.411839 0.743260
vt 0.420180 0.743260
vt 0.420180 0.771327
vt 0.357446 0.771327
vt 0.357446 0.743260
vt 0.365787 0.743260
vt 0.369520 0.771327
vt 0.369520 0.743013
vt 0.408106 0.743013
vt 0.408106 0.828834
vt 0.369520 0.828834
vt 0.369520 0.816760
vt 0.408106 0.816760
vt 0.369520 0.734672
vt 0.408106 0.734672
vt 0.357446 0.816760
vt 0.420180 0.816760
vt 0.656191 0.031148
vt 0.656191 0.053696
vt 0.644551 0.053696
vt 0.644551 0.031148
vt 0.644551 0.138820
vt 0.644551 0.121825
vt 0.656191 0.121825
vt 0.656191 0.138820
vt 0.673186 0.138820
vt 0.678739 0.206722
vt 0.656191 0.206722
vt 0.644551 0.206722
vt 0.804803 0.031148
vt 0.816443 0.031148
vt 0.816443 0.053696
vt 0.804803 0.053696
vt 0.816443 0.138820
vt 0.804803 0.138820
vt 0.804803 0.121825
vt 0.816443 0.121825
vt 0.804803 0.206722
vt 0.782255 0.206722
vt 0.787807 0.138820
vt 0.816443 0.206722
vt 0.922472 0.132157
vt 0.912775 0.132172
vt 0.912677 0.067397
vt 0.922374 0.067382
vt 0.922520 0.163515
vt 0.912823 0.163529
vt 0.912803 0.150371
vt 0.922500 0.150356
vt 0.930944 0.150343
vt 0.930964 0.163502
vt 0.906980 0.150380
vt 0.906952 0.132181
vt 0.922527 0.168485
vt 0.912830 0.168500
vt 0.491873 0.795913
vt 0.491873 0.829261
vt 0.525221 0.829261
vt 0.525221 0.795913
vt 0.525221 0.690610
vt 0.491873 0.690610
vt 0.491873 0.723958
vt 0.525221 0.723958
vt 0.486868 0.690610
vt 0.486868 0.723958
vt 0.530226 0.723958
vt 0.530226 0.690610
vt 0.530226 0.829261
vt 0.530226 0.795913
vt 0.486868 0.795913
vt 0.486868 0.829261
vt 0.491873 0.728963
vt 0.525221 0.728963
vt 0.525221 0.685605
vt 0.491873 0.685605
vt 0.491873 0.834266
vt 0.525221 0.834266
vt 0.525221 0.790908
vt 0.491873 0.790908
vn 1.0000 0.0000 -0.0000
vn -1.0000 -0.0000 0.0000
vn -0.0000 0.0000 -1.0000
vn 0.0000 -0.0000 1.0000
vn 0.0000 -1.0000 -0.0000
vn -0.0000 1.0000 0.0000
vn 0.9913 0.1319 0.0000
vn 0.0000 0.9967 -0.0815
vn 0.0000 0.9967 0.0815
usemtl None
s off
f 2/1/1 18/2/1 17/3/1 6/4/1
f 22/5/2 23/6/2 7/7/2 3/8/2
f 20/9/3 8/10/3 6/4/3 17/11/3
f 18/12/4 2/1/4 4/13/4 19/14/4
f 23/15/3 24/16/3 5/17/3 7/18/3
f 1/19/1 11/20/1 10/21/1 21/22/1
f 9/23/5 10/24/5 16/25/5 15/26/5
f 8/10/2 20/27/2 19/28/2 4/13/2
f 1/19/4 21/22/4 22/29/4 3/30/4
f 8/10/6 4/13/6 2/1/6 6/4/6
f 5/17/1 12/31/1 11/20/1 1/19/1
f 15/26/1 16/25/1 13/32/1 14/33/1
f 10/34/3 11/35/3 13/32/3 16/25/3
f 11/36/6 12/37/6 14/33/6 13/32/6
f 12/38/4 9/39/4 15/26/4 14/33/4
f 22/40/2 19/41/2 20/42/2 23/43/2
f 24/44/1 17/45/1 18/46/1 21/47/1
f 3/48/5 7/49/5 5/17/5 1/19/5
f 24/16/1 9/50/1 12/31/1 5/17/1
f 9/50/1 24/16/1 21/22/1 10/21/1
f 23/51/3 20/52/3 17/45/3 24/44/3
f 21/47/4 18/46/4 19/53/4 22/54/4
f 25/55/4 26/56/4 28/57/4 27/58/4
f 31/59/3 32/60/3 30/61/3 29/62/3
f 29/62/1 30/61/1 26/56/1 25/55/1
f 27/63/5 31/64/5 29/62/5 25/55/5
f 32/65/6 28/66/6 26/56/6 30/61/6
f 33/67/3 35/68/3 36/69/3 34/70/3
f 39/71/4 37/72/4 38/73/4 40/74/4
f 37/72/1 33/67/1 34/70/1 38/73/1
f 35/75/5 33/67/5 37/72/5 39/76/5
f 40/77/6 38/73/6 34/70/6 36/78/6
f 49/79/4 42/80/4 44/81/4 50/82/4
f 51/83/3 48/84/3 46/85/3 52/86/3
f 52/86/7 46/87/7 42/88/7 49/79/7
f 43/89/5 47/90/5 45/91/5 41/92/5
f 48/93/6 44/94/6 42/88/6 46/87/6
f 45/91/1 52/86/1 49/79/1 41/92/1
f 47/95/3 51/83/3 52/86/3 45/91/3
f 41/92/4 49/79/4 50/82/4 43/96/4
f 53/97/4 54/98/4 56/99/4 55/100/4
f 59/101/3 60/102/3 58/103/3 57/104/3
f 57/104/1 58/105/1 54/106/1 53/107/1
f 55/108/5 59/101/5 57/104/5 53/107/5
f 60/102/8 56/99/8 54/98/8 58/103/8
f 61/109/3 63/110/3 64/111/3 62/112/3
f 67/113/4 65/114/4 66/115/4 68/116/4
f 65/114/1 61/117/1 62/118/1 66/119/1
f 63/120/5 61/117/5 65/114/5 67/113/5
f 68/116/9 66/115/9 62/112/9 64/111/9
f 73/121/3 76/122/3 72/123/3 71/124/3
f 69/125/3 70/126/3 75/127/3 74/128/3
f 74/128/3 75/127/3 76/122/3 73/121/3
f 69/125/3 74/128/3 78/129/3 77/130/3
f 76/122/3 75/127/3 79/131/3 80/132/3
f 70/126/3 69/125/3 81/133/3 82/134/3
f 83/135/1 84/136/1 86/137/1 85/138/1
f 87/139/1 89/140/1 90/141/1 88/142/1
f 89/140/3 95/143/3 98/144/3 90/141/3
f 88/142/4 97/145/4 96/146/4 87/139/4
f 86/137/4 94/147/4 91/148/4 85/138/4
f 83/135/3 92/149/3 93/150/3 84/136/3
f 90/141/6 98/151/6 97/152/6 88/142/6
f 87/139/5 96/153/5 95/154/5 89/140/5
f 84/136/6 93/155/6 94/156/6 86/137/6
f 85/138/5 91/157/5 92/158/5 83/135/5
