# Blender v3.0.0 OBJ File: 'Candy_Bar_1.blend'
# www.blender.org
mtllib Candy_Bar_1.mtl
o Cube_Cube.001
v 1.659720 0.795390 -0.042938
v 1.659720 0.795390 0.006488
v 1.659720 0.265130 -0.042938
v 1.659720 0.265130 0.006488
v -0.334849 0.795390 -0.042938
v 0.163793 0.795390 -0.042938
v 0.662435 0.795390 -0.042938
v 1.161077 0.795390 -0.042938
v 0.662435 -0.795390 -0.042938
v 0.163793 -0.795390 -0.042938
v -0.334850 -0.795390 -0.042938
v 0.662435 -0.795390 0.006488
v 0.163793 -0.795390 0.006488
v -0.334850 -0.795390 0.006488
v 1.161077 0.795390 0.006488
v 0.662435 0.795390 0.006488
v 0.163793 0.795390 0.006488
v -0.334850 0.795390 0.006488
v 0.662435 -0.265130 0.006488
v 0.163793 -0.265130 0.006488
v -0.334850 -0.265130 0.006488
v 1.161077 0.265130 0.006488
v 0.662435 0.265130 0.006488
v 0.163793 0.265130 0.006488
v -0.334850 0.265130 0.006488
v 1.161077 0.265130 -0.042938
v 0.662435 0.265130 -0.042938
v 0.163793 0.265130 -0.042938
v -0.334850 0.265130 -0.042938
v 0.662435 -0.265130 -0.042938
v 0.163793 -0.265130 -0.042938
v -0.334850 -0.265130 -0.042938
v 1.240947 0.344999 0.140481
v 1.579851 0.344999 0.140481
v 1.579851 0.715521 0.140481
v 1.240947 0.715521 0.140481
v 1.579851 0.185261 0.140481
v 1.240947 0.185261 0.140481
v -0.254980 -0.185261 0.140481
v 0.083924 -0.185261 0.140481
v 0.083924 0.185261 0.140481
v -0.254980 0.185261 0.140481
v 0.243662 -0.185261 0.140481
v 0.582566 -0.185261 0.140481
v 0.582566 0.185261 0.140481
v 0.243662 0.185261 0.140481
v 0.742304 -0.185261 0.140481
v 1.081208 -0.185261 0.140481
v 1.081208 0.185261 0.140481
v 0.742304 0.185261 0.140481
v -0.254980 -0.715521 0.140481
v 0.083924 -0.715521 0.140481
v 0.083924 -0.344999 0.140481
v -0.254980 -0.344999 0.140481
v 0.243662 -0.715521 0.140481
v 0.582566 -0.715521 0.140481
v 0.582566 -0.344999 0.140481
v 0.243662 -0.344999 0.140481
v 0.742304 -0.715521 0.140481
v 0.742304 -0.344999 0.140481
v -0.254980 0.344999 0.140481
v 0.083924 0.344999 0.140481
v 0.083924 0.715521 0.140481
v -0.254980 0.715521 0.140481
v 0.243662 0.344999 0.140481
v 0.582566 0.344999 0.140481
v 0.582566 0.715521 0.140481
v 0.243662 0.715521 0.140481
v 0.742304 0.344999 0.140481
v 1.081208 0.344999 0.140481
v 1.081208 0.715521 0.140481
v 0.742304 0.715521 0.140481
v 1.134731 -0.238784 0.050687
v 1.659720 0.116669 -0.042938
v 1.659720 0.116669 0.006488
v 0.930480 -0.765601 0.056464
v 0.936475 -0.795390 0.006488
v 0.947355 -0.715521 0.140481
v 1.495126 0.083547 0.140481
v 1.579851 0.100597 0.140481
v 1.325927 -0.124922 0.140481
v 1.104824 -0.265130 0.006488
v 1.074653 -0.344999 0.140481
v 1.366766 -0.029529 0.140481
v 1.240947 -0.152162 0.140481
v 1.045566 -0.431319 0.140481
v 1.045566 -0.431319 -0.042938
v 1.495126 0.083547 -0.042938
v 1.366766 -0.029529 -0.042938
v 1.161077 -0.215575 -0.042938
v 1.228551 -0.156136 -0.042938
v 1.325927 -0.124922 -0.042938
v 1.104824 -0.265130 -0.042938
v 1.161077 -0.215575 0.006488
v 0.985105 -0.603495 0.140481
v 1.055862 -0.531063 0.140481
v 1.228551 -0.156136 0.119685
v 1.055862 -0.531063 -0.042938
v 0.936475 -0.795390 -0.042938
v 0.985105 -0.603495 -0.042938
v 0.930480 -0.765601 -0.042938
v -1.389554 0.761269 -0.114252
v -1.351945 0.798878 -0.114252
v -1.351945 0.761269 -0.151861
v 0.248917 0.761269 -0.151861
v 0.248917 0.798878 -0.114252
v -1.389554 -0.761269 -0.114252
v -1.351945 -0.761269 -0.151861
v -1.351945 -0.798878 -0.114252
v 0.248917 -0.798878 -0.114252
v 0.248917 -0.761269 -0.151861
v -1.389554 0.761269 0.114252
v -1.351945 0.761269 0.151861
v -1.351945 0.798878 0.114252
v 0.248917 0.798878 0.114252
v 0.248917 0.761269 0.151861
v -1.389554 -0.761269 0.114252
v -1.351945 -0.798878 0.114252
v -1.351945 -0.761269 0.151861
v 0.248917 -0.761269 0.151861
v 0.248917 -0.798878 0.114252
v 0.286796 0.753215 -0.189493
v 0.286796 -0.753215 -0.189493
v 0.286796 0.753215 0.189493
v 0.286796 -0.753215 0.189493
v 0.286796 0.753215 -0.228327
v 0.286796 -0.753215 -0.228327
v 0.286796 0.753215 0.228327
v 0.286796 -0.753215 0.228327
v 0.238786 0.753215 -0.250237
v 0.238786 -0.753215 -0.250237
v 0.238786 0.753215 0.250237
v 0.238786 -0.753215 0.250237
v 0.065642 0.753215 -0.283863
v 0.065642 -0.753215 -0.283863
v 0.065642 0.753215 0.283863
v 0.065642 -0.753215 0.283863
v -0.333068 0.753215 -0.283863
v -0.333068 -0.753215 -0.283863
v -0.333068 0.753215 0.283863
v -0.333068 -0.753215 0.283863
v -0.748495 0.753215 -0.227832
v -0.748496 -0.753215 -0.227832
v -0.748496 0.753215 0.227832
v -0.748496 -0.753215 0.227832
v -1.169968 0.753215 -0.227832
v -1.169968 -0.753215 -0.227832
v -1.169968 0.753215 0.227832
v -1.169968 -0.753215 0.227832
v 0.266397 0.788235 -0.151861
v 0.266397 0.827176 -0.114252
v 0.266397 -0.827176 -0.114252
v 0.266397 -0.788235 -0.151861
v 0.266397 0.827176 0.114252
v 0.266397 0.788235 0.151861
v 0.266397 -0.788235 0.151861
v 0.266397 -0.827176 0.114252
v 0.266397 0.820405 -0.151861
v 0.266397 0.860935 -0.114252
v 0.266397 -0.860935 -0.114252
v 0.266397 -0.820405 -0.151861
v 0.266397 0.860935 0.114252
v 0.266397 0.820405 0.151861
v 0.266397 -0.820405 0.151861
v 0.266397 -0.860935 0.114252
v 0.178300 0.862450 -0.151861
v 0.178300 0.905057 -0.114252
v 0.178300 -0.905057 -0.114252
v 0.178300 -0.862450 -0.151861
v 0.178300 0.905057 0.114252
v 0.178300 0.862450 0.151861
v 0.178300 -0.862450 0.151861
v 0.178300 -0.905057 0.114252
v -0.399693 0.862450 -0.151861
v -0.399693 0.905057 -0.114252
v -0.399693 -0.905057 -0.114252
v -0.399693 -0.862450 -0.151861
v -0.399693 0.905057 0.114252
v -0.399693 0.862450 0.151861
v -0.399693 -0.862450 0.151861
v -0.399693 -0.905057 0.114252
v -1.103489 0.835781 -0.151861
v -1.103489 0.877071 -0.114252
v -1.103489 -0.877071 -0.114252
v -1.103489 -0.835781 -0.151861
v -1.103489 0.877071 0.114252
v -1.103489 0.835781 0.151861
v -1.103489 -0.835781 0.151861
v -1.103489 -0.877071 0.114252
v 0.248917 -0.000000 0.000000
vt 0.788179 0.810198
vt 0.845515 0.810198
vt 0.845515 0.872882
vt 0.788179 0.872882
vt 0.973537 0.597701
vt 0.973537 0.682060
vt 0.965175 0.682060
vt 0.965175 0.597701
vt 0.973537 0.771768
vt 0.965175 0.771768
vt 0.965175 0.796884
vt 0.973537 0.796884
vt 0.802556 0.704941
vt 0.809465 0.721079
vt 0.788179 0.757417
vt 0.277266 0.716384
vt 0.361625 0.716384
vt 0.361625 0.806092
vt 0.277266 0.806092
vt 0.277266 0.887417
vt 0.288681 0.877361
vt 0.024188 0.806092
vt 0.108547 0.806092
vt 0.108547 0.895801
vt 0.024188 0.895801
vt 0.192906 0.806092
vt 0.192906 0.895801
vt 0.267749 0.895801
vt 0.024188 0.716384
vt 0.108547 0.716384
vt 0.192906 0.716384
vt 0.600567 0.736731
vt 0.600567 0.794066
vt 0.537883 0.794066
vt 0.537883 0.736731
vt 0.782263 0.265680
vt 0.782263 0.208345
vt 0.844948 0.208345
vt 0.844947 0.265680
vt 0.848854 0.068358
vt 0.848854 0.125693
vt 0.786169 0.125693
vt 0.786169 0.068358
vt 0.716032 0.736731
vt 0.716032 0.794066
vt 0.653347 0.794066
vt 0.653347 0.736731
vt 0.666798 0.265680
vt 0.666799 0.208345
vt 0.729483 0.208345
vt 0.729483 0.265680
vt 0.858326 0.589137
vt 0.863551 0.573833
vt 0.864831 0.604087
vt 0.973537 0.344622
vt 0.973537 0.428982
vt 0.965175 0.428982
vt 0.965175 0.344622
vt 0.973537 0.513342
vt 0.965175 0.513342
vt 0.485102 0.736731
vt 0.485102 0.794066
vt 0.422418 0.794066
vt 0.422418 0.736731
vt 0.897728 0.265680
vt 0.897728 0.208345
vt 0.960412 0.208345
vt 0.960412 0.265680
vt 0.733389 0.068358
vt 0.733389 0.125693
vt 0.670705 0.125693
vt 0.670705 0.068358
vt 0.617478 0.873406
vt 0.533119 0.873406
vt 0.533119 0.865044
vt 0.617478 0.865044
vt 0.448760 0.873406
vt 0.448760 0.865045
vt 0.402398 0.873406
vt 0.402398 0.865045
vt 0.108547 0.985509
vt 0.024188 0.985509
vt 0.192906 0.985509
vt 0.238254 0.980469
vt 0.247495 0.953044
vt 0.774667 0.783807
vt 0.859027 0.783807
vt 0.871905 0.796686
vt 0.871905 0.886394
vt 0.859027 0.899272
vt 0.774667 0.899272
vt 0.761789 0.886394
vt 0.761789 0.796685
vt 0.871905 0.745813
vt 0.871905 0.770929
vt 0.845515 0.757417
vt 0.845515 0.743094
vt 0.784083 0.699660
vt 0.788179 0.700332
vt 0.626957 0.723219
vt 0.626957 0.807578
vt 0.614079 0.820456
vt 0.524371 0.820456
vt 0.511492 0.807578
vt 0.511492 0.723219
vt 0.755873 0.279192
vt 0.755873 0.194833
vt 0.768751 0.181955
vt 0.858460 0.181955
vt 0.871338 0.194833
vt 0.871338 0.279192
vt 0.858460 0.292071
vt 0.768751 0.292070
vt 0.866539 0.134748
vt 0.853982 0.152083
vt 0.772657 0.152083
vt 0.857909 0.143378
vt 0.759779 0.139205
vt 0.759779 0.054846
vt 0.772657 0.041968
vt 0.862366 0.041968
vt 0.742422 0.723219
vt 0.742422 0.807578
vt 0.729544 0.820456
vt 0.639835 0.820456
vt 0.640408 0.279192
vt 0.640408 0.194833
vt 0.653286 0.181955
vt 0.742995 0.181955
vt 0.742995 0.292070
vt 0.653286 0.292070
vt 0.964318 0.068358
vt 0.990709 0.054846
vt 0.980866 0.100193
vt 0.875244 0.129688
vt 0.875244 0.054846
vt 0.901634 0.068358
vt 0.901634 0.124584
vt 0.888122 0.041968
vt 0.977831 0.041968
vt 0.498614 0.820456
vt 0.408906 0.820456
vt 0.396028 0.807578
vt 0.396028 0.723219
vt 0.884216 0.181955
vt 0.973924 0.181955
vt 0.986803 0.194833
vt 0.986803 0.279192
vt 0.973924 0.292070
vt 0.884216 0.292071
vt 0.746901 0.152083
vt 0.657193 0.152083
vt 0.644314 0.139205
vt 0.644314 0.054846
vt 0.657193 0.041968
vt 0.746901 0.041968
vt 0.259466 0.940791
vt 0.257724 0.923916
vt 0.239268 0.985509
vt 0.964318 0.103048
vt 0.990709 0.101207
vt 0.945366 0.109434
vt 0.916238 0.119663
vt 0.761789 0.770929
vt 0.761789 0.689604
vt 0.831181 0.740209
vt 0.305155 0.872081
vt 0.312064 0.855942
vt 0.333779 0.836812
vt 0.361625 0.831209
vt 0.849091 0.536361
vt 0.841341 0.543003
vt 0.841665 0.530150
vt 0.832103 0.573041
vt 0.831670 0.590233
vt 0.834470 0.479195
vt 0.865918 0.479988
vt 0.865469 0.497779
vt 0.834021 0.496987
vt 0.833554 0.607500
vt 0.865083 0.513080
vt 0.833579 0.514519
vt 0.835209 0.449866
vt 0.866657 0.450659
vt 0.835935 0.421080
vt 0.844409 0.421293
vt 0.853687 0.634820
vt 0.836737 0.636670
vt 0.845730 0.640932
vt 0.837302 0.641851
vt 0.832866 0.542790
vt 0.833190 0.529936
vt 0.861461 0.515222
vt 0.867031 0.624246
vt 0.863948 0.558216
vt 0.867031 0.435841
vt 0.332855 0.369671
vt 0.042929 0.368522
vt 0.043757 0.322855
vt 0.333298 0.330090
vt 0.629832 0.379829
vt 0.631506 0.681283
vt 0.344801 0.682875
vt 0.343127 0.381421
vt 0.342777 0.318361
vt 0.341103 0.016907
vt 0.627808 0.015315
vt 0.629482 0.316769
vt 0.639753 0.328518
vt 0.929680 0.329668
vt 0.928852 0.375335
vt 0.639310 0.368100
vt 0.342833 0.328376
vt 0.335341 0.320551
vt 0.629537 0.326784
vt 0.637646 0.318656
vt 0.343071 0.371405
vt 0.334963 0.379534
vt 0.629776 0.369813
vt 0.637268 0.377639
vt 0.044002 0.313175
vt 0.929717 0.319124
vt 0.928607 0.385015
vt 0.042891 0.379066
vt 0.030324 0.693017
vt 0.030324 0.407441
vt 0.040339 0.408952
vt 0.040339 0.691506
vt 0.317711 0.298485
vt 0.307696 0.296975
vt 0.307696 0.014421
vt 0.317711 0.012910
vt 0.047623 0.408952
vt 0.047623 0.691506
vt 0.300412 0.296975
vt 0.300412 0.014421
vt 0.057521 0.408952
vt 0.057522 0.691506
vt 0.290514 0.296975
vt 0.290514 0.014421
vt 0.090604 0.408952
vt 0.090604 0.691506
vt 0.257432 0.296975
vt 0.257431 0.014421
vt 0.165388 0.408952
vt 0.165388 0.691506
vt 0.182647 0.296975
vt 0.182647 0.014421
vt 0.244013 0.408952
vt 0.244013 0.691506
vt 0.104022 0.296975
vt 0.104022 0.014421
vt 0.323067 0.408952
vt 0.323067 0.691506
vt 0.024968 0.296975
vt 0.024968 0.014421
vt 0.664534 0.402160
vt 0.664802 0.408200
vt 0.704654 0.408715
vt 0.705112 0.402647
vt 0.760364 0.666586
vt 0.800943 0.666062
vt 0.800483 0.660002
vt 0.760627 0.660537
vt 0.656115 0.396472
vt 0.656367 0.402606
vt 0.752172 0.666151
vt 0.751929 0.672303
vt 0.713430 0.403266
vt 0.713811 0.397017
vt 0.809625 0.671666
vt 0.809238 0.665434
vt 0.703562 0.414703
vt 0.712063 0.409239
vt 0.799398 0.654027
vt 0.761551 0.654951
vt 0.657590 0.408523
vt 0.665722 0.413774
vt 0.807869 0.659477
vt 0.753390 0.660219
vt 0.665597 0.430168
vt 0.703731 0.431184
vt 0.761504 0.638475
vt 0.750937 0.641066
vt 0.714281 0.428632
vt 0.799652 0.637625
vt 0.655199 0.427540
vt 0.810032 0.640214
vt 0.802918 0.533078
vt 0.758356 0.532915
vt 0.651119 0.535568
vt 0.662201 0.535612
vt 0.813944 0.533104
vt 0.706731 0.535837
vt 0.747569 0.532909
vt 0.717465 0.535854
vt 0.758394 0.396854
vt 0.747585 0.396551
vt 0.706663 0.671824
vt 0.717465 0.672127
vt 0.803115 0.396795
vt 0.651056 0.672303
vt 0.661895 0.672005
vt 0.813944 0.396492
vt 0.942977 0.701207
vt 0.935923 0.708262
vt 0.914493 0.558420
vt 0.893063 0.708262
vt 0.886009 0.701207
vt 0.886009 0.415632
vt 0.893063 0.408578
vt 0.935923 0.408578
vt 0.942977 0.415632
vn -0.0000 0.0000 1.0000
vn 0.0000 1.0000 0.0000
vn 1.0000 0.0000 0.0000
vn 0.0000 0.0000 -1.0000
vn 0.0000 -1.0000 0.0000
vn -0.0000 -0.8590 0.5120
vn 0.8590 0.0000 0.5120
vn -0.0000 0.8590 0.5120
vn -0.8590 0.0000 0.5120
vn 0.6610 -0.7504 0.0000
vn 0.8333 -0.5528 0.0017
vn 0.9928 -0.1195 0.0000
vn 0.9932 -0.1159 0.0049
vn 0.9947 0.1027 0.0000
vn 0.8100 -0.5864 0.0000
vn 0.9193 -0.3936 0.0000
vn 0.7153 -0.6988 0.0000
vn 0.8529 -0.5221 0.0000
vn 0.3052 -0.9523 -0.0000
vn 0.4936 -0.8697 -0.0000
vn 0.4443 -0.8959 0.0000
vn 0.1973 -0.9803 0.0000
vn 0.9723 -0.2336 0.0000
vn 0.9980 -0.0632 0.0000
vn 0.9803 0.1973 0.0000
vn 0.8278 -0.5610 0.0000
vn 0.3839 -0.9234 0.0000
vn 0.9476 -0.3193 0.0000
vn 0.9474 -0.3192 0.0230
vn -0.3416 0.8756 0.3416
vn 0.0000 0.9239 0.3827
vn 0.0000 0.9239 -0.3827
vn -0.3416 0.8756 -0.3416
vn -0.3416 -0.3416 0.8756
vn -0.0000 -0.3827 0.9239
vn -0.0000 0.3827 0.9239
vn -0.3416 0.3416 0.8756
vn -0.3416 0.3416 -0.8756
vn 0.0000 0.3827 -0.9239
vn 0.0000 -0.3827 -0.9239
vn -0.3416 -0.3416 -0.8756
vn -0.3416 -0.8756 -0.3416
vn -0.0000 -0.9239 -0.3827
vn -0.0000 -0.9239 0.3827
vn -0.3416 -0.8756 0.3416
vn -0.8756 0.3416 -0.3416
vn -0.8756 -0.3416 -0.3416
vn -0.8756 0.3416 0.3416
vn -0.8756 -0.3416 0.3416
vn 0.7048 -0.0000 -0.7094
vn 0.9158 -0.0000 -0.4016
vn 0.7048 -0.0000 0.7094
vn 0.9158 -0.0000 0.4016
vn 0.8412 -0.0000 0.5407
vn 0.8412 -0.0000 -0.5407
vn 0.3050 -0.0000 0.9523
vn 0.3050 -0.0000 -0.9523
vn 0.0958 -0.0000 0.9954
vn 0.0958 -0.0000 -0.9954
vn -0.0670 0.0000 0.9978
vn -0.0670 0.0000 -0.9978
vn 0.8117 0.5080 -0.2883
vn 0.9761 0.2054 -0.0714
vn 0.9761 0.2054 0.0714
vn 0.8117 0.5080 0.2883
vn 0.8117 -0.5080 -0.2883
vn 0.8117 -0.5080 0.2883
vn 0.9761 -0.2054 0.0714
vn 0.9761 -0.2054 -0.0714
vn 0.7423 0.4696 -0.4779
vn 0.8516 0.3674 -0.3739
vn 0.8516 -0.3674 -0.3739
vn 0.7423 -0.4696 -0.4779
vn 0.8516 0.3674 0.3739
vn 0.7423 0.4696 0.4779
vn 0.7423 -0.4696 0.4779
vn 0.8516 -0.3674 0.3739
vn 0.7756 -0.5617 -0.2879
vn 0.9198 -0.2633 -0.2910
vn 0.7756 0.5617 -0.2879
vn 0.7756 0.5617 0.2879
vn 0.9198 -0.2633 0.2910
vn 0.7756 -0.5617 0.2879
vn 0.9198 0.2633 -0.2910
vn 0.9198 0.2633 0.2910
vn 0.2039 -0.9007 0.3836
vn 0.2039 -0.9007 -0.3836
vn 0.2039 0.9007 0.3836
vn 0.1728 0.6566 0.7341
vn 0.1728 -0.6566 -0.7341
vn 0.2039 0.9007 -0.3836
vn 0.1728 -0.6566 0.7341
vn 0.1728 0.6566 -0.7341
vn -0.0179 0.9130 -0.4075
vn -0.0179 0.9130 0.4075
vn -0.0131 -0.6646 0.7471
vn -0.0179 -0.9130 0.4075
vn -0.0131 0.6646 -0.7471
vn -0.0179 -0.9130 -0.4075
vn -0.0131 0.6646 0.7471
vn -0.0131 -0.6646 -0.7471
vn -0.0359 0.9108 0.4113
vn -0.0259 0.6673 0.7443
vn -0.0359 -0.9108 -0.4113
vn -0.0259 -0.6673 -0.7443
vn -0.0359 0.9108 -0.4113
vn -0.0259 -0.6673 0.7443
vn -0.0359 -0.9108 0.4113
vn -0.0259 0.6673 -0.7443
usemtl None
s off
f 33/1/1 34/2/1 35/3/1 36/4/1
f 15/5/2 2/6/2 1/7/2 8/8/2
f 4/9/3 3/10/3 1/7/3 2/6/3
f 74/11/3 3/10/3 4/9/3 75/12/3
f 81/13/1 84/14/1 38/15/1
f 8/16/4 1/17/4 3/18/4 26/19/4
f 90/20/4 26/19/4 91/21/4
f 29/22/4 28/23/4 31/24/4 32/25/4
f 28/23/4 27/26/4 30/27/4 31/24/4
f 30/27/4 27/26/4 93/28/4
f 5/29/4 6/30/4 28/23/4 29/22/4
f 6/30/4 7/31/4 27/26/4 28/23/4
f 7/31/4 8/16/4 26/19/4 27/26/4
f 39/32/1 40/33/1 41/34/1 42/35/1
f 43/36/1 44/37/1 45/38/1 46/39/1
f 47/40/1 48/41/1 49/42/1 50/43/1
f 51/44/1 52/45/1 53/46/1 54/47/1
f 55/48/1 56/49/1 57/50/1 58/51/1
f 96/52/1 86/53/1 95/54/1
f 18/55/2 17/56/2 6/57/2 5/58/2
f 17/56/2 16/59/2 7/60/2 6/57/2
f 16/59/2 15/5/2 8/8/2 7/60/2
f 61/61/1 62/62/1 63/63/1 64/64/1
f 65/65/1 66/66/1 67/67/1 68/68/1
f 69/69/1 70/70/1 71/71/1 72/72/1
f 11/73/5 10/74/5 13/75/5 14/76/5
f 10/74/5 9/77/5 12/78/5 13/75/5
f 12/78/5 9/77/5 99/79/5 77/80/5
f 32/25/4 31/24/4 10/81/4 11/82/4
f 31/24/4 30/27/4 9/83/4 10/81/4
f 101/84/4 9/83/4 100/85/4
f 22/86/6 4/87/6 34/2/6 33/1/6
f 4/88/7 2/89/7 35/3/7 34/2/7
f 2/90/8 15/91/8 36/4/8 35/3/8
f 15/92/9 22/93/9 33/1/9 36/4/9
f 75/94/7 4/95/7 37/96/7 80/97/7
f 4/87/8 22/86/8 38/15/8 37/96/8
f 38/15/9 97/98/9 85/99/9
f 21/100/6 20/101/6 40/33/6 39/32/6
f 20/102/7 24/103/7 41/34/7 40/33/7
f 24/104/8 25/105/8 42/35/8 41/34/8
f 20/106/6 19/107/6 44/37/6 43/36/6
f 19/108/7 23/109/7 45/38/7 44/37/7
f 23/110/8 24/111/8 46/39/8 45/38/8
f 24/112/9 20/113/9 43/36/9 46/39/9
f 48/41/6 47/40/6 73/114/6
f 94/115/7 22/116/7 73/117/7
f 22/118/8 23/119/8 50/43/8 49/42/8
f 23/120/9 19/121/9 47/40/9 50/43/9
f 14/122/6 13/123/6 52/45/6 51/44/6
f 13/124/7 20/125/7 53/46/7 52/45/7
f 20/101/8 21/100/8 54/47/8 53/46/8
f 13/126/6 12/127/6 56/49/6 55/48/6
f 12/128/7 19/129/7 57/50/7 56/49/7
f 19/107/8 20/106/8 58/51/8 57/50/8
f 20/130/9 13/131/9 55/48/9 58/51/9
f 59/132/6 12/133/6 76/134/6
f 82/135/8 19/136/8 60/137/8 83/138/8
f 19/139/9 12/140/9 59/132/9 60/137/9
f 25/105/6 24/104/6 62/62/6 61/61/6
f 24/141/7 17/142/7 63/63/7 62/62/7
f 17/143/8 18/144/8 64/64/8 63/63/8
f 24/111/6 23/110/6 66/66/6 65/65/6
f 23/145/7 16/146/7 67/67/7 66/66/7
f 16/147/8 17/148/8 68/68/8 67/67/8
f 17/149/9 24/150/9 65/65/9 68/68/9
f 23/119/6 22/118/6 70/70/6 69/69/6
f 22/151/7 15/152/7 71/71/7 70/70/7
f 15/153/8 16/154/8 72/72/8 71/71/8
f 16/155/9 23/156/9 69/69/9 72/72/9
f 100/85/4 30/27/4 98/157/4
f 98/157/4 30/27/4 87/158/4
f 87/158/4 30/27/4 93/28/4
f 30/27/4 100/85/4 9/83/4
f 9/83/4 101/84/4 99/159/4
f 76/134/6 78/160/6 59/132/6
f 76/134/6 12/133/6 77/161/6
f 95/162/1 86/163/1 59/132/1
f 59/132/1 78/160/1 95/162/1
f 59/132/1 86/163/1 60/137/1
f 60/137/1 86/163/1 83/138/1
f 97/98/9 22/164/9 94/165/9
f 22/164/9 97/98/9 38/15/9
f 38/15/1 79/166/1 37/96/1
f 37/96/1 79/166/1 80/97/1
f 79/166/1 38/15/1 84/14/1
f 38/15/1 85/99/1 81/13/1
f 93/28/4 27/26/4 90/20/4
f 90/20/4 27/26/4 26/19/4
f 91/21/4 26/19/4 92/167/4
f 92/167/4 26/19/4 89/168/4
f 89/168/4 26/19/4 88/169/4
f 88/169/4 26/19/4 3/18/4 74/170/4
f 73/114/6 47/40/6 19/136/6
f 19/136/6 82/135/6 73/114/6
f 73/117/7 22/116/7 49/42/7
f 49/42/7 48/41/7 73/117/7
s 1
f 73/171/10 82/172/11 94/173/10
f 87/174/12 86/53/13 96/52/14 98/175/14
f 89/176/15 84/177/15 81/178/16 92/179/16
f 96/52/17 95/54/18 100/180/18 98/175/17
f 92/179/19 81/178/19 85/181/19 91/182/20
f 88/183/21 79/184/21 84/177/15 89/176/15
f 74/185/22 75/186/22 88/183/21
f 76/187/23 101/188/24 100/180/18 95/54/18
f 76/187/23 77/189/25 99/190/25 101/188/24
f 94/173/10 82/172/11 93/191/26 90/192/10
f 90/192/10 91/182/20 97/193/27 94/173/10
f 93/191/26 82/172/11 86/53/13 87/174/12
f 95/54/18 78/194/28 76/187/23
f 86/53/13 82/172/11 83/195/29
f 91/182/20 85/181/19 97/193/27
f 88/183/21 80/196/22 79/184/21
f 80/196/22 88/183/21 75/186/22
f 114/197/30 115/198/31 106/199/32 103/200/33
f 119/201/34 120/202/35 116/203/36 113/204/37
f 104/205/38 105/206/39 111/207/40 108/208/41
f 109/209/42 110/210/43 121/211/44 118/212/45
f 102/213/46 103/200/33 104/214/38
f 107/215/47 108/216/41 109/209/42
f 112/217/48 113/218/37 114/197/30
f 117/219/49 118/212/45 119/220/34
f 107/215/47 102/213/46 104/205/38 108/208/41
f 103/200/33 106/199/32 105/221/39 104/214/38
f 110/210/43 109/209/42 108/216/41 111/222/40
f 117/219/49 107/215/47 109/209/42 118/212/45
f 120/223/35 119/220/34 118/212/45 121/211/44
f 112/217/48 117/219/49 119/201/34 113/204/37
f 115/198/31 114/197/30 113/218/37 116/224/36
f 102/213/46 112/217/48 114/197/30 103/200/33
f 107/215/47 117/219/49 112/217/48 102/213/46
f 120/225/50 116/226/50 124/227/51 125/228/51
f 111/229/52 123/230/53 122/231/53 105/232/52
f 125/228/51 124/227/51 128/233/54 129/234/54
f 123/230/53 127/235/55 126/236/55 122/231/53
f 129/234/54 128/233/54 132/237/56 133/238/56
f 127/235/55 131/239/57 130/240/57 126/236/55
f 133/238/56 132/237/56 136/241/58 137/242/58
f 131/239/57 135/243/59 134/244/59 130/240/57
f 137/242/58 136/241/58 140/245/60 141/246/60
f 135/243/59 139/247/61 138/248/61 134/244/59
f 141/246/60 140/245/60 144/249/60 145/250/60
f 139/247/61 143/251/61 142/252/61 138/248/61
f 145/250/60 144/249/60 148/253/1 149/254/1
f 143/251/61 147/255/4 146/256/4 142/252/61
f 121/257/62 157/258/63 152/259/64 110/260/65
f 115/261/66 106/262/67 151/263/68 154/264/69
f 120/265/70 156/266/71 157/258/63 121/257/62
f 115/261/66 154/264/69 155/267/72 116/268/73
f 110/260/65 152/259/64 153/269/74 111/270/75
f 105/271/76 150/272/77 151/263/68 106/262/67
f 152/259/64 160/273/78 161/274/79 153/269/74
f 154/264/69 151/263/68 159/275/80 162/276/81
f 156/266/71 164/277/82 165/278/83 157/258/63
f 150/272/77 158/279/84 159/275/80 151/263/68
f 157/258/63 165/278/83 160/273/78 152/259/64
f 154/264/69 162/276/81 163/280/85 155/267/72
f 165/278/83 173/281/86 168/282/87 160/273/78
f 162/276/81 170/283/88 171/284/89 163/280/85
f 160/273/78 168/282/87 169/285/90 161/274/79
f 162/276/81 159/275/80 167/286/91 170/283/88
f 164/277/82 172/287/92 173/281/86 165/278/83
f 158/279/84 166/288/93 167/286/91 159/275/80
f 170/283/88 167/286/91 175/289/94 178/290/95
f 172/287/92 180/291/96 181/292/97 173/281/86
f 166/288/93 174/293/98 175/289/94 167/286/91
f 173/281/86 181/292/97 176/294/99 168/282/87
f 170/283/88 178/290/95 179/295/100 171/284/89
f 168/282/87 176/294/99 177/296/101 169/285/90
f 178/290/95 186/297/102 187/298/103 179/295/100
f 176/294/99 184/299/104 185/300/105 177/296/101
f 178/290/95 175/289/94 183/301/106 186/297/102
f 180/291/96 188/302/107 189/303/108 181/292/97
f 174/293/98 182/304/109 183/301/106 175/289/94
f 181/292/97 189/303/108 184/299/104 176/294/99
f 120/305/3 121/306/3 190/307/3
f 121/306/3 110/308/3 190/307/3
f 110/308/3 111/309/3 190/307/3
f 111/309/3 105/310/3 190/307/3
f 105/310/3 106/311/3 190/307/3
f 106/311/3 115/312/3 190/307/3
f 115/312/3 116/313/3 190/307/3
f 116/313/3 120/305/3 190/307/3
