# Blender v3.0.0 OBJ File: ''
# www.blender.org
mtllib melee_0.mtl
o Cube_Cube.001
v -0.447361 -0.896935 0.151302
v -0.441879 -0.874819 0.121735
v -0.453179 -0.154903 0.142173
v -0.456648 -0.874970 0.118883
v -0.335212 -0.018835 -0.555408
v -0.320443 -0.018684 -0.552557
v -0.441879 -0.874819 0.121735
v -0.338343 0.082521 -0.544553
v -0.460146 0.576113 0.060216
v -0.445377 0.576263 0.063067
v -0.323574 0.082671 -0.541701
v -0.585916 -0.291123 0.836903
v -0.464480 0.565012 0.162611
v -0.479249 0.564861 0.159760
v -0.600685 -0.291274 0.834052
v -0.333854 0.052451 -0.566212
v -0.332708 0.015352 -0.570185
v -0.467949 -0.155054 0.139321
v -0.597553 -0.392629 0.823196
v -0.582785 -0.392478 0.826048
v -0.587273 -0.362409 0.847706
v -0.602042 -0.362560 0.844855
v -0.588420 -0.325310 0.851680
v -0.603188 -0.325461 0.848828
v -0.466774 0.591095 0.093757
v -0.452006 0.591246 0.096609
v -0.473766 0.586977 0.130193
v -0.458998 0.587128 0.133044
v -0.460982 -0.886071 0.221278
v -0.475751 -0.886221 0.218427
v -0.469123 -0.901204 0.184886
v -0.454353 -0.901053 0.187738
v -0.462130 -0.897086 0.148451
v -0.447361 -0.896935 0.151302
v -0.319085 0.052602 -0.563360
v -0.333854 0.052451 -0.566212
v -0.317939 0.015503 -0.567333
v -0.332708 0.015352 -0.570185
v -0.464480 0.565012 0.162611
v -0.585916 -0.291123 0.836903
v -0.588420 -0.325310 0.851680
v -0.587273 -0.362409 0.847706
v -0.460982 -0.886071 0.221278
v -0.454353 -0.901053 0.187738
v -0.317939 0.015503 -0.567333
v -0.319085 0.052602 -0.563360
v -0.452006 0.591246 0.096609
v -0.458998 0.587128 0.133044
v -0.320443 -0.018684 -0.552557
v -0.323574 0.082671 -0.541701
v -0.445377 0.576263 0.063067
v -0.582785 -0.392478 0.826048
v -0.466774 0.591095 0.093757
v -0.460146 0.576113 0.060216
v -0.456648 -0.874970 0.118883
v -0.462130 -0.897086 0.148451
v -0.600685 -0.291274 0.834052
v -0.479249 0.564861 0.159760
v -0.603188 -0.325461 0.848828
v -0.469123 -0.901204 0.184886
v -0.475751 -0.886221 0.218427
v -0.335212 -0.018835 -0.555408
v -0.597553 -0.392629 0.823196
v -0.602042 -0.362560 0.844855
v -0.473766 0.586977 0.130193
v -0.338343 0.082521 -0.544553
vt 0.032876 0.505810
vt 0.050443 0.501103
vt 0.317547 0.728690
vt 0.689559 0.518540
vt 0.690318 0.073193
vt 0.698091 0.073180
vt 0.697332 0.518528
vt 0.651165 0.984689
vt 0.650499 0.576410
vt 0.658272 0.576397
vt 0.658938 0.984677
vt 0.658938 0.073180
vt 0.658178 0.518527
vt 0.650405 0.518540
vt 0.651165 0.073193
vt 0.020017 0.032877
vt 0.032876 0.020017
vt 0.317547 0.242897
vt 0.651071 0.015323
vt 0.658844 0.015310
vt 0.658875 0.034600
vt 0.651102 0.034613
vt 0.658907 0.053890
vt 0.651133 0.053903
vt 0.650467 0.557120
vt 0.658241 0.557107
vt 0.650436 0.537830
vt 0.658209 0.537817
vt 0.697426 0.576397
vt 0.689653 0.576410
vt 0.689622 0.557120
vt 0.697395 0.557107
vt 0.689590 0.537830
vt 0.697363 0.537817
vt 0.690224 0.015323
vt 0.697997 0.015310
vt 0.698028 0.034600
vt 0.690255 0.034613
vt 0.698060 0.053890
vt 0.690287 0.053903
vt 0.690318 0.984690
vt 0.698091 0.984677
vt 0.584651 0.956276
vt 0.050442 0.956276
vt 0.032876 0.951569
vt 0.020017 0.938710
vt 0.015310 0.536236
vt 0.020017 0.518670
vt 0.602218 0.505810
vt 0.615077 0.518670
vt 0.615077 0.938710
vt 0.602217 0.951569
vt 0.584651 0.501104
vt 0.619784 0.536236
vt 0.619784 0.921144
vt 0.015310 0.921144
vt 0.020017 0.452917
vt 0.015310 0.435351
vt 0.584652 0.015310
vt 0.602218 0.020017
vt 0.584652 0.470483
vt 0.050443 0.470483
vt 0.602218 0.465776
vt 0.615077 0.032877
vt 0.619784 0.050443
vt 0.050443 0.015310
vt 0.619784 0.435351
vt 0.615077 0.452917
vt 0.032876 0.465776
vt 0.015310 0.050443
vn 0.9818 0.0100 0.1896
vn 0.1384 -0.7213 -0.6786
vn 0.1673 -0.5175 -0.8392
vn 0.1299 0.6925 -0.7096
vn 0.0897 0.8556 -0.5098
vn -0.1673 0.5175 0.8392
vn -0.1384 0.7213 0.6787
vn -0.9818 -0.0100 -0.1896
vn -0.1299 -0.6925 0.7096
vn -0.1730 -0.3638 0.9153
vn -0.1889 0.1507 0.9704
vn 0.0188 0.9885 -0.1498
vn -0.0781 0.9314 0.3554
vn -0.0897 -0.8556 0.5098
vn -0.0188 -0.9885 0.1498
vn 0.0781 -0.9314 -0.3554
vn 0.1730 0.3638 -0.9153
vn 0.1889 -0.1507 -0.9704
vn -0.9818 -0.0100 -0.1895
usemtl None.002
s 1
f 1/1/1 2/2/1 3/3/1
f 4/4/2 5/5/3 6/6/3 7/7/2
f 8/8/4 9/9/5 10/10/5 11/11/4
f 12/12/6 13/13/7 14/14/7 15/15/6
f 16/16/8 17/17/8 18/18/8
f 19/19/9 20/20/9 21/21/10 22/22/10
f 22/22/10 21/21/10 23/23/11 24/24/11
f 24/24/11 23/23/11 12/12/6 15/15/6
f 10/10/5 9/9/5 25/25/12 26/26/12
f 26/26/12 25/25/12 27/27/13 28/28/13
f 28/28/13 27/27/13 14/14/7 13/13/7
f 29/29/14 30/30/14 31/31/15 32/32/15
f 32/32/15 31/31/15 33/33/16 34/34/16
f 34/34/16 33/33/16 4/4/2 7/7/2
f 8/35/4 11/36/4 35/37/17 36/38/17
f 36/38/17 35/37/17 37/39/18 38/40/18
f 38/40/18 37/39/18 6/6/3 5/5/3
f 19/41/9 30/30/14 29/29/14 20/42/9
f 39/43/1 40/44/1 3/3/1
f 41/45/1 42/46/1 3/3/1
f 43/47/1 44/48/1 3/3/1
f 45/49/1 46/50/1 3/3/1
f 47/51/1 48/52/1 3/3/1
f 2/2/1 49/53/1 3/3/1
f 50/54/1 51/55/1 3/3/1
f 40/44/1 41/45/1 3/3/1
f 49/53/1 45/49/1 3/3/1
f 44/48/1 1/1/1 3/3/1
f 42/46/1 52/56/1 3/3/1
f 48/52/1 39/43/1 3/3/1
f 46/50/1 50/54/1 3/3/1
f 51/55/1 47/51/1 3/3/1
f 52/56/1 43/47/1 3/3/1
f 53/57/19 54/58/19 18/18/8
f 55/59/8 56/60/8 18/18/8
f 57/61/8 58/62/8 18/18/8
f 59/63/8 57/61/8 18/18/8
f 60/64/8 61/65/8 18/18/8
f 17/17/8 62/66/8 18/18/8
f 63/67/8 64/68/8 18/18/8
f 65/69/8 53/57/19 18/18/8
f 66/70/8 16/16/8 18/18/8
f 54/58/19 66/70/8 18/18/8
f 62/66/8 55/59/8 18/18/8
f 56/60/8 60/64/8 18/18/8
f 61/65/8 63/67/8 18/18/8
f 58/62/8 65/69/8 18/18/8
f 64/68/8 59/63/8 18/18/8
