# Blender v2.93.4 OBJ File: ''
# www.blender.org
mtllib melee_89.mtl
o Cube_Cube.001
v 0.642614 0.191822 0.034476
v 0.399171 0.191822 0.034476
v 0.399171 -0.049356 0.034476
v 2.194320 -0.049356 0.034476
v 2.345900 0.191822 0.034476
v 1.348486 0.191822 0.034476
v 1.331310 0.165028 0.034476
v 1.223299 0.165028 0.034476
v 1.206122 0.191822 0.034476
v 1.160650 0.191822 0.034476
v 1.143473 0.165028 0.034476
v 1.035463 0.165028 0.034476
v 1.018286 0.191822 0.034476
v 0.972814 0.191822 0.034476
v 0.955637 0.165028 0.034476
v 0.847627 0.165028 0.034476
v 0.830450 0.191822 0.034476
v 0.784978 0.191822 0.034476
v 0.767801 0.165028 0.034476
v 0.659791 0.165028 0.034476
v 0.955637 0.165028 -0.034476
v 0.972814 0.191822 -0.034476
v 1.018286 0.191822 -0.034476
v 1.035463 0.165028 -0.034476
v 1.143473 0.165028 -0.034476
v 1.160650 0.191822 -0.034476
v 1.206122 0.191822 -0.034476
v 1.223299 0.165028 -0.034476
v 1.331310 0.165028 -0.034476
v 1.348486 0.191822 -0.034476
v 2.345900 0.191822 -0.034476
v 2.194320 -0.049356 -0.034476
v 0.399171 -0.049356 -0.034476
v 0.399171 0.191822 -0.034476
v 0.642614 0.191822 -0.034476
v 0.659791 0.165028 -0.034476
v 0.767801 0.165028 -0.034476
v 0.784978 0.191822 -0.034476
v 0.830450 0.191822 -0.034476
v 0.847627 0.165028 -0.034476
v 2.280996 -0.127931 -0.000000
v 0.399184 -0.127931 -0.000000
v 2.499291 0.221632 0.000000
v 2.364026 0.221770 0.034476
v 2.364026 0.221770 -0.034476
v 0.574276 0.208764 -0.034709
v 0.574276 0.208764 0.034709
v 0.614196 0.206829 0.034709
v 0.614196 0.206829 -0.034709
v 0.475210 0.054778 -0.050731
v 0.442116 0.069442 -0.050731
v 0.561091 0.194864 -0.050731
v 0.601470 0.192907 -0.050731
v 0.475210 0.054778 0.050731
v 0.601470 0.192907 0.050731
v 0.460982 -0.141308 -0.034709
v 0.460982 -0.126787 -0.050731
v 0.460982 -0.126787 0.050731
v 0.460982 -0.141308 0.034709
v 0.460982 0.017742 0.050731
v 0.427512 0.032576 0.050731
v 0.427512 -0.126787 0.050731
v 0.427512 -0.126787 -0.050731
v 0.427512 0.032576 -0.050731
v 0.460982 0.017742 -0.050731
v 0.427512 -0.141308 0.034709
v 0.427512 -0.141308 -0.034709
v 0.561091 0.194864 0.050731
v 0.442116 0.069442 0.050731
v 0.431789 0.052267 0.050731
v 0.465149 0.037483 0.050731
v 0.465149 0.037483 -0.050731
v 0.431789 0.052267 -0.050731
v 0.591000 0.228069 -0.026678
v 0.591000 0.228069 0.026678
v 0.549725 0.177849 0.076898
v 0.549725 0.177849 -0.076898
v -1.321062 0.228069 -0.026677
v -1.277821 0.177849 -0.076897
v -1.270015 0.169385 -0.066741
v -1.310622 0.216546 -0.023154
v -1.015841 -0.106090 -0.076897
v -0.966489 -0.150177 -0.026677
v -0.977646 -0.139744 -0.023154
v -1.023992 -0.098343 -0.066741
v 0.183518 0.177849 0.076898
v 0.449144 0.067739 0.076898
v -1.352477 0.216546 -0.023154
v -1.352477 0.216546 0.023154
v -1.310622 0.216546 0.023154
v -1.019500 -0.139744 -0.023154
v -1.065846 -0.098343 -0.066741
v 0.217005 0.228069 0.026678
v 0.217005 0.228069 -0.026678
v 0.183518 0.177849 -0.076898
v -1.277821 0.177849 0.076898
v -1.270015 0.169385 0.066741
v -1.023992 -0.098343 0.066741
v -1.015841 -0.106090 0.076898
v -1.321062 0.228069 0.026678
v 0.169970 0.157530 0.076898
v 0.169970 -0.077364 0.076898
v 0.191790 -0.106090 0.076898
v -0.966489 -0.150177 0.026678
v -0.977646 -0.139744 0.023154
v -0.055514 0.177849 -0.076898
v -0.091889 0.228069 -0.026678
v 0.141559 0.142326 0.076898
v -0.011512 0.142326 0.076898
v -0.011512 -0.064017 0.076898
v 0.141559 -0.064017 0.076898
v 0.157449 0.146779 0.076898
v 0.157449 -0.067927 0.076898
v -0.100874 -0.150177 -0.026678
v -0.064499 -0.106090 -0.076898
v 0.427182 -0.106090 -0.076898
v 0.427182 -0.150177 -0.026678
v 0.225276 -0.150177 -0.026678
v 0.191790 -0.106090 -0.076898
v -1.311870 0.169385 0.066741
v 0.449144 0.067739 -0.076898
v 0.433615 0.043120 -0.076898
v -0.055514 0.177849 0.076898
v -0.091889 0.228069 0.026678
v -1.065846 -0.098343 0.066741
v -1.311870 0.169385 -0.066741
v -0.100874 -0.150177 0.026678
v -0.064499 -0.106090 0.076898
v -0.011512 -0.064017 -0.076898
v -0.027572 -0.067823 0.076898
v -0.027572 -0.067823 -0.076898
v -0.027572 0.146661 0.076898
v -0.011512 0.142326 -0.076898
v 0.141559 0.142326 -0.076898
v -0.040504 0.157126 0.076898
v -0.040504 0.157126 -0.076898
v 0.157449 0.146779 -0.076898
v 0.169970 0.157530 -0.076898
v -0.027572 0.146661 -0.076898
v -1.019500 -0.139744 0.023154
v 0.169970 -0.077364 -0.076898
v 0.157449 -0.067927 -0.076898
v 0.433615 0.043120 0.076898
v 0.141559 -0.064017 -0.076898
v -0.040504 -0.077009 -0.076898
v 0.427182 0.017684 -0.076898
v -0.040504 -0.077009 0.076898
v 0.427182 0.017684 0.076898
v 0.427182 -0.106090 0.076898
v 0.427182 -0.150177 0.026678
v 0.225276 -0.150177 0.026678
v 0.203583 0.139128 -0.070235
v -0.056511 0.139128 -0.070235
v -0.065712 0.181225 -0.032217
v 0.195843 0.181225 -0.032217
v 0.203583 0.139128 0.070235
v 0.195843 0.181225 0.032217
v -0.065712 0.181225 0.032217
v -0.056511 0.139128 0.070235
v 0.203583 -0.060715 -0.070235
v 0.195843 -0.111154 -0.032217
v -0.065712 -0.111154 -0.032217
v -0.056511 -0.060715 -0.070235
v 0.203583 -0.060715 0.070235
v -0.056511 -0.060715 0.070235
v -0.065712 -0.111154 0.032217
v 0.195843 -0.111154 0.032217
vt 0.362773 0.287298
vt 0.328484 0.287311
vt 0.008740 0.195349
vt 0.008782 0.017780
vt 0.113350 0.017821
vt 0.120724 0.029333
vt 0.775608 0.121785
vt 0.008737 0.158362
vt 0.008740 0.121376
vt 0.813342 0.158365
vt 0.842766 0.296801
vt 0.775607 0.194945
vt 0.957155 0.091087
vt 0.986671 0.518060
vt 0.957153 0.518060
vt 0.986671 0.703962
vt 0.957153 0.684496
vt 0.986670 0.684496
vt 0.986670 0.611011
vt 0.957153 0.591545
vt 0.986670 0.591545
vt 0.957153 0.777447
vt 0.986671 0.796912
vt 0.957154 0.796913
vt 0.986672 0.974610
vt 0.957154 0.870398
vt 0.986671 0.870398
vt 0.986672 0.076101
vt 0.986672 0.091087
vt 0.957155 0.076101
vt 0.971913 0.018197
vt 0.842767 0.019931
vt 0.911053 0.009849
vt 0.911053 0.306884
vt 0.850896 0.309526
vt 0.850897 0.007206
vt 0.957153 0.577921
vt 0.986671 0.856774
vt 0.957154 0.810537
vt 0.986671 0.810537
vt 0.957153 0.531684
vt 0.986671 0.531684
vt 0.957153 0.670872
vt 0.957153 0.624635
vt 0.986670 0.624635
vt 0.957153 0.763823
vt 0.986671 0.777447
vt 0.986670 0.670872
vt 0.957153 0.717586
vt 0.986671 0.717586
vt 0.957154 0.856774
vt 0.986671 0.763823
vt 0.120725 0.287393
vt 0.113351 0.298905
vt 0.008781 0.298946
vt 0.409168 0.287280
vt 0.167121 0.287375
vt 0.416571 0.298740
vt 0.201410 0.287362
vt 0.194036 0.298874
vt 0.174503 0.298881
vt 0.247806 0.287343
vt 0.355399 0.298810
vt 0.335867 0.298817
vt 0.274719 0.298841
vt 0.255188 0.298848
vt 0.282092 0.287330
vt 0.247802 0.029384
vt 0.255185 0.017878
vt 0.282091 0.029397
vt 0.274717 0.017885
vt 0.174502 0.017846
vt 0.194034 0.017853
vt 0.167119 0.029352
vt 0.201407 0.029365
vt 0.328486 0.029416
vt 0.335869 0.017910
vt 0.355401 0.017918
vt 0.362774 0.029429
vt 0.409170 0.029448
vt 0.416572 0.017988
vt 0.957153 0.703962
vt 0.957153 0.611011
vt 0.957155 0.974610
vt 0.986670 0.577921
vt 0.923923 0.331695
vt 0.939586 0.360816
vt 0.923094 0.360339
vt 0.883362 0.427621
vt 0.917679 0.369112
vt 0.934361 0.369595
vt 0.209289 0.879690
vt 0.167405 0.956942
vt 0.167405 0.879690
vt 0.209289 0.803439
vt 0.174019 0.797444
vt 0.202675 0.797444
vt 0.881021 0.608824
vt 0.866044 0.549442
vt 0.879858 0.549173
vt 0.865137 0.502942
vt 0.877787 0.443022
vt 0.878951 0.502673
vt 0.879684 0.540248
vt 0.865870 0.540517
vt 0.865311 0.511867
vt 0.879125 0.511597
vt 0.935706 0.323106
vt 0.940415 0.332172
vt 0.873651 0.630314
vt 0.882900 0.616938
vt 0.887191 0.623995
vt 0.867327 0.615215
vt 0.869585 0.421835
vt 0.879348 0.434840
vt 0.865461 0.429007
vt 0.863854 0.437169
vt 0.209289 0.871430
vt 0.167405 0.871430
vt 0.209289 0.863101
vt 0.923765 0.681121
vt 0.167405 0.863101
vt 0.167405 0.803439
vt 0.209289 0.956942
vt 0.174019 0.964729
vt 0.471124 0.970762
vt 0.515029 0.943206
vt 0.493741 0.970762
vt 0.656616 0.951774
vt 0.679404 0.973276
vt 0.677910 0.979868
vt 0.656631 0.788016
vt 0.679413 0.766422
vt 0.660946 0.792776
vt 0.179110 0.537100
vt 0.066512 0.583776
vt 0.023876 0.537101
vt 0.841128 0.895015
vt 0.824450 0.874473
vt 0.842167 0.875412
vt 0.710565 0.727530
vt 0.710013 0.701982
vt 0.728283 0.728469
vt 0.268675 0.961946
vt 0.312580 0.936359
vt 0.291292 0.961946
vt 0.717522 0.946895
vt 0.721827 0.788018
vt 0.721827 0.951776
vt 0.699036 0.973275
vt 0.184853 0.545714
vt 0.175604 0.657461
vt 0.699048 0.766425
vt 0.677916 0.759944
vt 0.700545 0.759948
vt 0.026607 0.430730
vt 0.167646 0.460836
vt 0.009110 0.460836
vt 0.801300 0.430731
vt 0.298585 0.460835
vt 0.283166 0.430730
vt 0.261783 0.552158
vt 0.196897 0.639627
vt 0.196897 0.552158
vt 0.190161 0.641284
vt 0.190161 0.550270
vt 0.666595 0.708406
vt 0.284244 0.736733
vt 0.299663 0.708405
vt 0.075822 0.736733
vt 0.161410 0.708405
vt 0.175605 0.736732
vt 0.823411 0.894076
vt 0.822498 0.921288
vt 0.804781 0.920349
vt 0.069243 0.384054
vt 0.075825 0.373619
vt 0.181841 0.430730
vt 0.167646 0.483453
vt 0.026607 0.513559
vt 0.009110 0.483453
vt 0.298585 0.483452
vt 0.801300 0.513558
vt 0.283166 0.513558
vt 0.612459 0.948793
vt 0.555876 0.794664
vt 0.612459 0.794664
vt 0.660921 0.946894
vt 0.826419 0.847318
vt 0.824450 0.549223
vt 0.732019 0.657972
vt 0.714301 0.657033
vt 0.284244 0.657461
vt 0.666595 0.685789
vt 0.299663 0.685788
vt 0.808701 0.846379
vt 0.414266 0.910260
vt 0.349073 0.917257
vt 0.349073 0.910260
vt 0.280435 0.537100
vt 0.687515 0.657461
vt 0.268591 0.641240
vt 0.261783 0.639627
vt 0.819629 0.460837
vt 0.819629 0.483453
vt 0.312580 0.847130
vt 0.247387 0.912016
vt 0.247387 0.847130
vt 0.312580 0.833026
vt 0.247387 0.822180
vt 0.312580 0.822180
vt 0.312580 0.919012
vt 0.247387 0.926007
vt 0.247387 0.919012
vt 0.312580 0.926007
vt 0.247387 0.936359
vt 0.312580 0.840078
vt 0.247387 0.840078
vt 0.574353 0.975174
vt 0.555876 0.948793
vt 0.593983 0.768321
vt 0.574353 0.768321
vt 0.414266 0.831791
vt 0.349073 0.838437
vt 0.349073 0.831791
vt 0.449835 0.867650
vt 0.515029 0.879989
vt 0.449835 0.879989
vt 0.690247 0.310369
vt 0.178335 0.310369
vt 0.187584 0.422117
vt 0.187584 0.322545
vt 0.192891 0.417560
vt 0.192891 0.326546
vt 0.199627 0.415672
vt 0.199628 0.328203
vt 0.264514 0.415672
vt 0.271322 0.326590
vt 0.271322 0.417510
vt 0.276804 0.322696
vt 0.276804 0.421946
vt 0.286975 0.310368
vt 0.078552 0.362837
vt 0.078552 0.310368
vt 0.073095 0.594212
vt 0.291292 0.795894
vt 0.268675 0.795894
vt 0.312580 0.912016
vt 0.414266 0.917257
vt 0.349073 0.923981
vt 0.075822 0.604994
vt 0.184853 0.645284
vt 0.711052 0.682379
vt 0.692296 0.701043
vt 0.693334 0.681440
vt 0.414266 0.838437
vt 0.349073 0.845374
vt 0.268591 0.550321
vt 0.274073 0.645134
vt 0.274073 0.545885
vt 0.414266 0.845374
vt 0.075822 0.657462
vt 0.161410 0.685788
vt 0.075822 0.708406
vt 0.075822 0.685789
vt 0.349073 0.816499
vt 0.370361 0.793032
vt 0.247387 0.833026
vt 0.449835 0.804061
vt 0.515029 0.856529
vt 0.449835 0.856529
vt 0.515029 0.867650
vt 0.449835 0.943206
vt 0.700531 0.979867
vt 0.392978 0.964191
vt 0.370361 0.964191
vt 0.349073 0.939963
vt 0.493741 0.785373
vt 0.515029 0.804061
vt 0.027848 0.969361
vt 0.135386 0.945189
vt 0.138684 0.969361
vt 0.135386 0.917731
vt 0.027848 0.893559
vt 0.138684 0.893559
vt 0.023927 0.917731
vt 0.135386 0.812289
vt 0.027848 0.785373
vt 0.138684 0.785373
vt 0.027848 0.866663
vt 0.135386 0.839747
vt 0.138684 0.866663
vt 0.023927 0.839747
vt 0.919025 0.322623
vt 0.869250 0.623308
vt 0.940415 0.679988
vt 0.202675 0.964729
vt 0.717512 0.792776
vt 0.687514 0.736733
vt 0.181841 0.513559
vt 0.842167 0.550162
vt 0.798567 0.537100
vt 0.593983 0.975174
vt 0.264514 0.328203
vt 0.414266 0.923981
vt 0.392978 0.793032
vt 0.414266 0.816499
vt 0.414266 0.939963
vt 0.471124 0.785373
vt 0.023927 0.945189
vt 0.023927 0.812289
vn 0.0000 -0.0000 1.0000
vn 0.0000 0.0000 -1.0000
vn 0.0000 -0.4018 -0.9157
vn 0.2440 -0.1528 0.9577
vn 0.0000 1.0000 0.0000
vn -0.8555 0.5178 0.0000
vn 0.0010 1.0000 0.0000
vn 0.2442 -0.1528 -0.9576
vn 0.0000 -0.4018 0.9157
vn 0.2441 -0.1478 0.9584
vn 0.2441 -0.1478 -0.9584
vn 0.8419 0.5397 0.0000
vn -0.8419 0.5397 0.0000
vn 0.2440 -0.1528 -0.9577
vn 0.0441 0.9107 0.4107
vn 0.0463 0.9560 -0.2897
vn 0.0441 0.9107 -0.4107
vn 0.0122 0.2512 -0.9678
vn 0.0271 0.5600 -0.8280
vn 0.8058 -0.5921 -0.0000
vn 0.7381 -0.6747 0.0000
vn 1.0000 -0.0000 0.0000
vn 0.0000 -0.4052 0.9142
vn -0.0000 -0.4052 -0.9142
vn 0.0000 -0.9330 0.3599
vn 0.0000 -0.9330 -0.3599
vn 0.0271 0.5600 0.8280
vn 0.0463 0.9560 0.2897
vn 0.9332 -0.3592 -0.0000
vn 0.9946 -0.1038 -0.0000
vn 0.0122 0.2512 0.9678
vn 0.7726 -0.6349 0.0000
vn 0.7512 -0.6601 -0.0000
vn 0.7726 -0.6350 0.0000
vn -0.7434 -0.6689 0.0061
vn -0.7441 -0.6680 0.0132
vn -0.7432 -0.6690 0.0092
vn -0.6952 -0.7188 0.0041
vn -0.6800 -0.7332 0.0119
vn -0.7152 -0.6987 -0.0158
vn 0.0000 0.9502 0.3117
vn 0.0000 0.8875 -0.4608
vn 0.0000 0.9502 -0.3117
vn 0.0000 -0.5645 -0.8254
vn 0.0000 -0.9010 -0.4339
vn 0.0000 -0.2196 -0.9756
vn -0.8320 0.5548 0.0000
vn -0.7394 -0.6731 0.0151
vn -0.6952 -0.7188 -0.0041
vn -0.7434 -0.6689 -0.0062
vn -0.7441 -0.6680 -0.0132
vn -0.6799 -0.7332 -0.0118
vn -0.6809 -0.7324 0.0083
vn -0.6808 -0.7324 -0.0083
vn 0.0000 0.7071 -0.7071
vn 0.0000 0.9032 -0.4292
vn 0.0000 0.9525 -0.3046
vn -0.0000 0.9018 -0.4322
vn -0.0000 -0.9116 -0.4110
vn -0.0000 -0.7515 -0.6597
vn -0.0000 -0.9164 -0.4002
vn 0.0000 -0.9176 -0.3974
vn 0.0000 0.8875 0.4608
vn 0.0000 0.5176 0.8556
vn 0.0000 0.2184 0.9759
vn 0.0000 0.9032 0.4292
vn 0.0000 0.7071 0.7071
vn 0.0000 0.9525 0.3046
vn 0.0000 0.9018 0.4322
vn -0.7446 -0.6676 -0.0000
vn -0.7105 -0.7036 -0.0000
vn -0.7394 -0.6731 -0.0151
vn 0.0000 0.5176 -0.8556
vn 0.0000 -0.2197 0.9756
vn 0.0000 -0.5645 0.8254
vn 0.0000 -0.7515 0.6597
vn 0.0000 -0.9116 0.4110
vn -0.0000 -0.9164 0.4002
vn 0.0000 0.2184 -0.9759
vn 0.1161 -0.9932 -0.0000
vn 0.4125 -0.9110 -0.0000
vn -0.0000 0.9537 -0.3009
vn 0.0000 0.9537 0.3009
vn 0.1314 0.9913 0.0000
vn -0.1362 0.9907 0.0000
vn 0.7258 0.6879 0.0000
vn 0.8099 0.5866 0.0000
vn -0.4718 0.8817 0.0000
vn -0.7487 0.6629 0.0000
vn 0.4547 0.8907 0.0000
vn -0.7578 -0.6525 -0.0000
vn -0.6662 -0.7458 -0.0000
vn -0.7058 -0.7084 0.0000
vn -0.4292 -0.9032 -0.0000
vn 0.9190 -0.3942 -0.0000
vn 0.7952 -0.6064 -0.0000
vn 0.6811 -0.7322 -0.0000
vn 0.0000 -0.9010 0.4339
vn 0.0000 -0.9625 -0.2713
vn 0.0000 -0.9625 0.2713
vn -0.1203 -0.9927 -0.0000
vn 0.0000 -0.9176 0.3974
vn 0.0000 -0.9358 -0.3525
vn 0.0000 -0.9358 0.3525
vn -0.7963 -0.6049 -0.0000
vn 0.9923 -0.1235 -0.0000
vn -0.7432 -0.6690 -0.0092
vn 0.7713 -0.6364 -0.0000
vn 0.0000 0.6702 -0.7421
vn 0.0000 0.9062 -0.4228
vn 0.0000 0.9062 0.4228
vn 0.0000 0.6702 0.7421
vn 0.0000 0.9233 0.3840
vn 0.0000 -0.8865 -0.4627
vn 0.0000 -0.6019 -0.7986
vn 0.0000 -0.6019 0.7986
vn 0.0000 -0.8865 0.4627
vn 0.0000 -0.9054 0.4245
vn -0.7152 -0.6987 0.0158
vn 0.0000 0.9233 -0.3840
vn 0.0000 -0.9054 -0.4245
usemtl None.001
s off
f 8/1/1 11/2/1 3/3/1
f 34/4/2 35/5/2 36/6/2
f 32/7/3 42/8/3 33/9/3
f 41/10/4 5/11/4 4/12/4
f 5/13/5 30/14/5 6/15/5
f 22/16/5 13/17/5 23/18/5
f 26/19/5 9/20/5 27/21/5
f 17/22/5 38/23/5 18/24/5
f 34/25/5 1/26/5 35/27/5
f 5/13/6 45/28/6 31/29/6
f 45/28/7 44/30/7 43/31/7
f 41/10/8 31/32/8 43/33/8
f 4/12/9 42/8/9 41/10/9
f 5/11/10 43/34/10 44/35/10
f 31/32/11 45/36/11 43/33/11
f 8/37/12 27/21/12 9/20/12
f 36/38/5 19/39/5 37/40/5
f 7/41/13 30/14/13 29/42/13
f 12/43/12 23/18/12 13/17/12
f 11/44/13 26/19/13 25/45/13
f 16/46/12 39/47/12 17/22/12
f 24/48/5 11/44/5 25/45/5
f 15/49/13 22/16/13 21/50/13
f 29/42/5 8/37/5 7/41/5
f 20/51/12 35/27/12 1/26/12
f 40/52/5 15/49/5 21/50/5
f 19/39/13 38/23/13 37/40/13
f 20/53/1 1/54/1 2/55/1
f 2/55/1 3/3/1 20/53/1
f 3/3/1 4/12/1 7/56/1
f 20/53/1 3/3/1 19/57/1
f 4/12/1 5/11/1 6/58/1
f 4/12/1 6/58/1 7/56/1
f 19/57/1 3/3/1 16/59/1
f 17/60/1 18/61/1 19/57/1
f 16/59/1 3/3/1 15/62/1
f 7/56/1 8/1/1 3/3/1
f 8/1/1 9/63/1 11/2/1
f 9/63/1 10/64/1 11/2/1
f 16/59/1 17/60/1 19/57/1
f 13/65/1 14/66/1 12/67/1
f 14/66/1 15/62/1 12/67/1
f 15/62/1 3/3/1 12/67/1
f 12/67/1 3/3/1 11/2/1
f 21/68/2 22/69/2 24/70/2
f 22/69/2 23/71/2 24/70/2
f 38/72/2 39/73/2 37/74/2
f 39/73/2 40/75/2 37/74/2
f 21/68/2 24/70/2 33/9/2
f 24/70/2 25/76/2 33/9/2
f 40/75/2 21/68/2 33/9/2
f 36/6/2 37/74/2 33/9/2
f 37/74/2 40/75/2 33/9/2
f 25/76/2 26/77/2 27/78/2
f 25/76/2 27/78/2 28/79/2
f 29/80/2 30/81/2 32/7/2
f 30/81/2 31/32/2 32/7/2
f 25/76/2 28/79/2 33/9/2
f 28/79/2 29/80/2 33/9/2
f 29/80/2 32/7/2 33/9/2
f 33/9/2 34/4/2 36/6/2
f 32/7/3 41/10/3 42/8/3
f 41/10/4 43/34/4 5/11/4
f 5/13/5 31/29/5 30/14/5
f 22/16/5 14/82/5 13/17/5
f 26/19/5 10/83/5 9/20/5
f 17/22/5 39/47/5 38/23/5
f 34/25/5 2/84/5 1/26/5
f 5/13/6 44/30/6 45/28/6
f 41/10/14 32/7/14 31/32/14
f 4/12/9 3/3/9 42/8/9
f 8/37/12 28/85/12 27/21/12
f 36/38/5 20/51/5 19/39/5
f 7/41/13 6/15/13 30/14/13
f 12/43/12 24/48/12 23/18/12
f 11/44/13 10/83/13 26/19/13
f 16/46/12 40/52/12 39/47/12
f 24/48/5 12/43/5 11/44/5
f 15/49/13 14/82/13 22/16/13
f 29/42/5 28/85/5 8/37/5
f 20/51/12 36/38/12 35/27/12
f 40/52/5 16/46/5 15/49/5
f 19/39/13 18/24/13 38/23/13
s 1
f 47/86/15 49/87/16 46/88/17
f 50/89/2 52/90/18 53/91/19
f 50/92/20 55/93/21 54/94/20
f 57/95/22 59/96/22 56/97/22
f 60/98/1 62/99/23 58/100/23
f 63/101/24 65/102/2 57/103/24
f 59/104/25 62/99/23 66/105/25
f 67/106/26 57/103/24 56/107/26
f 47/86/15 55/108/27 48/109/28
f 46/88/17 53/91/19 52/90/18
f 67/106/26 59/104/25 66/105/25
f 69/110/1 71/111/1 54/112/1
f 71/111/1 61/113/1 60/98/1
f 51/114/2 72/115/2 73/116/2
f 72/115/2 64/117/2 73/116/2
f 54/94/20 72/118/29 50/92/20
f 71/119/29 65/120/30 72/118/29
f 54/112/1 68/121/31 69/110/1
f 57/95/22 60/122/30 58/123/22
f 53/124/21 48/125/21 55/93/21
f 75/126/32 77/127/33 74/128/34
f 79/129/35 81/130/36 78/131/37
f 82/132/38 84/133/39 85/134/40
f 86/135/1 87/136/1 76/137/1
f 89/138/41 81/139/42 88/140/43
f 85/141/44 91/142/45 92/143/46
f 94/144/47 86/145/47 93/146/47
f 97/147/48 99/148/49 96/149/50
f 90/150/51 78/131/37 81/130/36
f 101/151/1 103/152/1 86/135/1
f 105/153/52 83/154/53 104/155/54
f 77/156/55 94/157/56 74/158/57
f 79/159/55 107/160/58 106/161/55
f 109/162/1 111/163/1 108/164/1
f 108/164/1 113/165/1 112/166/1
f 83/167/59 115/168/60 114/169/61
f 116/170/60 118/171/62 119/172/60
f 90/173/63 120/174/64 97/175/65
f 121/176/2 122/177/2 95/178/2
f 93/179/66 76/180/67 75/181/68
f 124/182/69 96/183/67 123/184/67
f 99/148/49 105/153/52 104/155/54
f 120/185/70 92/186/71 125/187/71
f 82/132/38 80/188/72 79/129/35
f 81/139/42 126/189/73 88/140/43
f 97/190/65 125/191/74 98/192/75
f 128/193/76 104/194/77 127/195/78
f 80/196/79 92/143/46 126/189/73
f 110/197/80 131/198/81 129/199/80
f 123/200/1 99/201/1 128/193/1
f 109/162/1 130/202/1 110/203/1
f 124/182/69 78/204/82 100/205/83
f 109/206/84 134/207/85 133/208/84
f 135/209/86 106/210/87 123/211/87
f 112/212/88 138/213/89 137/214/88
f 101/215/89 95/216/47 138/213/89
f 132/217/90 133/208/84 139/218/90
f 120/185/70 88/219/91 126/220/70
f 140/221/92 92/186/71 91/222/92
f 102/223/93 142/224/94 141/225/93
f 127/195/78 83/167/59 114/169/61
f 143/226/95 121/227/96 87/228/96
f 106/161/2 82/229/2 79/159/2
f 119/230/2 138/231/2 95/178/2
f 141/232/2 137/233/2 138/231/2
f 142/234/2 134/235/2 137/233/2
f 144/236/2 133/237/2 134/235/2
f 133/237/2 131/238/2 139/239/2
f 139/239/2 145/240/2 136/241/2
f 136/241/2 115/242/2 106/161/2
f 95/178/2 122/177/2 119/230/2
f 119/230/2 146/243/2 116/244/2
f 146/243/2 119/230/2 122/177/2
f 95/178/2 77/156/2 121/176/2
f 86/135/1 103/152/1 143/245/1
f 124/246/87 106/210/87 107/247/87
f 108/248/85 137/214/88 134/207/85
f 130/249/81 145/250/97 131/198/81
f 148/251/1 143/245/1 103/152/1
f 112/166/1 102/252/1 101/151/1
f 140/253/98 84/254/99 105/255/100
f 113/256/94 144/257/101 142/224/94
f 132/258/1 147/259/1 130/202/1
f 135/260/1 128/193/1 147/259/1
f 87/136/1 86/135/1 143/245/1
f 111/261/101 129/199/80 144/257/101
f 103/152/1 149/262/1 148/251/1
f 151/263/102 117/264/103 150/265/104
f 141/225/93 119/266/105 118/267/105
f 93/179/66 74/158/57 94/157/56
f 135/209/86 139/218/90 136/268/86
f 149/269/22 146/270/106 148/271/106
f 148/271/106 122/272/95 143/226/95
f 76/273/33 121/227/96 77/127/33
f 98/192/75 140/253/98 105/255/100
f 149/262/76 151/263/102 150/265/104
f 90/150/51 96/149/50 100/274/107
f 127/275/108 114/276/108 115/277/108
f 149/269/22 117/278/22 116/279/22
f 153/280/109 155/281/110 152/282/109
f 157/283/111 159/284/112 156/285/112
f 155/281/110 158/286/113 157/283/111
f 161/287/114 163/288/115 160/289/115
f 165/290/116 167/291/117 164/292/116
f 166/293/118 161/287/114 167/291/117
f 47/86/15 48/109/28 49/87/16
f 50/89/2 51/114/2 52/90/18
f 50/92/20 53/124/21 55/93/21
f 57/95/22 58/123/22 59/96/22
f 60/98/1 61/113/1 62/99/23
f 63/101/24 64/117/2 65/102/2
f 59/104/25 58/100/23 62/99/23
f 67/106/26 63/101/24 57/103/24
f 47/86/15 68/294/31 55/108/27
f 46/88/17 49/87/16 53/91/19
f 67/106/26 56/107/26 59/104/25
f 69/110/1 70/295/1 71/111/1
f 71/111/1 70/295/1 61/113/1
f 51/114/2 50/89/2 72/115/2
f 72/115/2 65/102/2 64/117/2
f 54/94/20 71/119/29 72/118/29
f 71/119/29 60/122/30 65/120/30
f 54/112/1 55/296/27 68/121/31
f 57/95/22 65/120/30 60/122/30
f 53/124/21 49/297/21 48/125/21
f 75/126/32 76/273/33 77/127/33
f 79/129/35 80/188/72 81/130/36
f 82/132/38 83/154/53 84/133/39
f 89/138/41 90/173/63 81/139/42
f 85/141/44 84/254/99 91/142/45
f 94/144/47 95/216/47 86/145/47
f 97/147/48 98/298/119 99/148/49
f 90/150/51 100/274/107 78/131/37
f 101/151/1 102/252/1 103/152/1
f 105/153/52 84/133/39 83/154/53
f 77/156/55 95/178/55 94/157/56
f 79/159/55 78/204/82 107/160/58
f 109/162/1 110/203/1 111/163/1
f 108/164/1 111/163/1 113/165/1
f 83/167/59 82/299/60 115/168/60
f 116/170/60 117/264/103 118/171/62
f 90/173/63 89/138/41 120/174/64
f 93/179/66 86/300/67 76/180/67
f 124/182/69 100/205/83 96/183/67
f 99/148/49 98/298/119 105/153/52
f 120/185/70 126/220/70 92/186/71
f 82/132/38 85/134/40 80/188/72
f 81/139/42 80/196/79 126/189/73
f 97/190/65 120/301/64 125/191/74
f 128/193/76 99/201/76 104/194/77
f 80/196/79 85/141/44 92/143/46
f 110/197/80 130/249/81 131/198/81
f 123/200/1 96/302/1 99/201/1
f 109/162/1 132/258/1 130/202/1
f 124/182/69 107/160/58 78/204/82
f 109/206/84 108/248/85 134/207/85
f 135/209/86 136/268/86 106/210/87
f 112/212/88 101/215/89 138/213/89
f 101/215/89 86/145/47 95/216/47
f 132/217/90 109/206/84 133/208/84
f 120/185/70 89/303/91 88/219/91
f 140/221/92 125/187/71 92/186/71
f 102/223/93 113/256/94 142/224/94
f 127/195/78 104/194/77 83/167/59
f 143/226/95 122/272/95 121/227/96
f 106/161/2 115/242/2 82/229/2
f 119/230/2 141/232/2 138/231/2
f 141/232/2 142/234/2 137/233/2
f 142/234/2 144/236/2 134/235/2
f 144/236/2 129/304/2 133/237/2
f 133/237/2 129/304/2 131/238/2
f 139/239/2 131/238/2 145/240/2
f 136/241/2 145/240/2 115/242/2
f 124/246/87 123/211/87 106/210/87
f 108/248/85 112/212/88 137/214/88
f 130/249/81 147/305/97 145/250/97
f 112/166/1 113/165/1 102/252/1
f 140/253/98 91/142/45 84/254/99
f 113/256/94 111/261/101 144/257/101
f 132/258/1 135/260/1 147/259/1
f 135/260/1 123/200/1 128/193/1
f 111/261/101 110/197/80 129/199/80
f 151/263/102 118/171/62 117/264/103
f 118/267/105 151/306/105 102/223/93
f 151/306/105 103/307/105 102/223/93
f 102/223/93 141/225/93 118/267/105
f 93/179/66 75/181/68 74/158/57
f 135/209/86 132/217/90 139/218/90
f 149/269/22 116/279/22 146/270/106
f 148/271/106 146/270/106 122/272/95
f 76/273/33 87/228/96 121/227/96
f 98/192/75 125/191/74 140/253/98
f 149/262/76 103/152/76 151/263/102
f 90/150/51 97/147/48 96/149/50
f 115/277/108 145/250/97 147/305/97
f 147/305/97 128/308/108 115/277/108
f 128/308/108 127/275/108 115/277/108
f 149/269/22 150/309/22 117/278/22
f 153/280/109 154/310/120 155/281/110
f 157/283/111 158/286/113 159/284/112
f 155/281/110 154/310/120 158/286/113
f 161/287/114 162/311/121 163/288/115
f 165/290/116 166/293/118 167/291/117
f 166/293/118 162/311/121 161/287/114
