# Blender v3.0.0 OBJ File: ''
# www.blender.org
mtllib melee_45_1.mtl
o Knife
v 0.549229 -0.187528 -0.068254
v 0.239448 -0.404155 -0.275548
v 0.549229 -0.158708 -0.117060
v 0.549229 0.034654 0.196531
v 0.239447 -0.036554 0.487783
v 0.549229 -0.011603 0.199225
v 0.549229 0.152874 0.128277
v 0.239448 0.440709 0.212234
v 0.239448 0.358573 0.332707
v 0.549229 -0.057235 0.191179
v 0.239447 -0.178707 0.455337
v 0.239447 -0.279205 0.397315
v 0.549229 -0.057235 -0.191179
v 0.239448 -0.036554 -0.487783
v 0.549229 -0.011603 -0.199225
v 0.239448 0.483687 0.072904
v 0.549229 0.194184 -0.046022
v 0.239448 0.483687 -0.072904
v 0.239448 -0.467419 0.144180
v 0.549229 -0.198213 0.023168
v 0.549229 -0.187528 0.068255
v 0.239448 -0.404155 0.275548
v 0.239447 0.244575 0.423617
v 0.239448 -0.489150 0.000000
v 0.239448 -0.467419 -0.144180
v 0.549229 0.152874 -0.128276
v 0.239448 0.440709 -0.212234
v 0.549229 0.178336 -0.089563
v 0.549229 0.034654 -0.196531
v 0.239448 -0.295928 -0.387660
v 0.549228 -0.113640 -0.158614
v 0.239448 -0.178707 -0.455337
v 0.239447 0.108846 0.476886
v 0.549229 0.079043 0.183242
v 0.549229 -0.120677 0.154551
v 0.549229 -0.166732 0.109662
v 0.239448 0.244575 -0.423617
v 0.239448 0.358573 -0.332707
v 0.239448 0.108846 -0.476886
v 0.549229 0.079043 -0.183242
v 0.549229 0.194184 0.046023
v 0.254121 0.112756 -0.065100
v 0.254121 0.000000 0.130199
v 0.254121 -0.112756 -0.065100
v 0.254121 -0.065099 0.112756
v -0.996405 0.000000 0.130199
v -0.996405 -0.065100 0.112755
v 0.254121 -0.112756 0.065100
v 0.254121 0.065100 -0.112756
v -0.996405 0.000000 -0.130200
v -0.996405 0.065100 -0.112756
v -0.996405 0.112756 -0.065100
v -0.996405 -0.130199 -0.000001
v -0.996405 -0.112756 -0.065100
v -0.996405 0.065100 0.112755
v 0.254121 0.112756 0.065100
v -0.996405 0.112756 0.065099
v 0.254121 0.130199 0.000000
v -0.996405 0.130199 -0.000001
v 0.254121 0.065100 0.112756
v -0.996405 -0.112756 0.065099
v 0.254121 -0.065099 -0.112756
v -0.996405 -0.065100 -0.112756
v 1.179794 -0.535733 -0.030866
v 1.148928 -0.270894 0.000000
v 1.179794 -0.207001 -0.030866
v 1.179794 0.031341 0.535402
v 1.756075 0.000000 0.212863
v 1.787417 0.031341 0.156374
v 1.787417 0.031341 0.380091
v 1.179794 -0.031341 0.535402
v 1.787417 -0.031341 0.156374
v 0.544458 -0.711102 0.030866
v 1.179794 -0.207001 0.030867
v 1.179797 -0.031341 -0.535401
v 1.756075 0.000000 -0.212861
v 1.787417 -0.031341 -0.156372
v 2.390739 -0.031341 0.030867
v 1.756550 -0.433874 0.000001
v 2.508434 0.000000 0.000001
v 1.148928 0.270246 0.000000
v 1.179794 0.535079 -0.030866
v 1.179794 0.206354 -0.030866
v 1.756075 0.000000 0.434375
v 1.787417 -0.031341 0.380091
v 0.544458 0.710451 -0.030866
v 0.544458 0.749852 0.000000
v 1.148453 0.000000 0.271552
v 0.544458 -0.031341 0.710774
v 1.179794 -0.031341 0.206677
v 1.179794 0.031341 0.206677
v 0.544458 0.031341 -0.030866
v 0.544458 -0.031341 -0.030866
v 0.544458 -0.031341 0.030866
v 1.787417 0.379767 0.030867
v 1.756550 0.211683 0.000001
v 1.787417 0.156050 0.030867
v 2.390907 0.031341 -0.030865
v 1.756075 0.000000 -0.434374
v 1.787417 0.031341 -0.380089
v 0.544458 -0.711102 -0.030866
v 1.179794 -0.535733 0.030867
v 1.148928 -0.591366 0.000000
v 1.787417 -0.031341 -0.380089
v 2.390907 0.031341 0.030867
v 1.787417 -0.156698 0.030867
v 1.787417 0.379767 -0.030865
v 1.756550 0.433229 0.000001
v 0.544458 0.031341 0.030866
v 1.148928 0.590712 0.000000
v 1.787417 -0.380413 -0.030865
v 1.756550 -0.212332 0.000001
v 1.787417 -0.156698 -0.030865
v 2.392026 -0.031341 -0.030865
v 1.179794 0.535079 0.030867
v 1.179794 0.206354 0.030867
v 0.544458 0.031341 -0.710773
v 1.148453 0.000000 -0.271551
v 0.544458 0.000000 -0.750781
v 1.787417 -0.380413 0.030867
v 1.787417 0.031341 -0.156372
v 0.544458 -0.031341 -0.710773
v 1.179794 -0.031341 -0.206676
v 1.179797 0.031341 -0.535401
v 1.179794 0.031341 -0.206676
v 1.787417 0.156050 -0.030865
v 0.544458 0.710451 0.030866
v 0.544458 0.031341 0.710774
v 0.544458 0.000000 0.750782
v 1.148456 0.000000 -0.591891
v 0.549229 0.178336 0.089564
v 0.254121 0.000000 -0.130199
v 0.254121 -0.130199 0.000000
v 1.148453 0.000000 0.591892
v 0.544458 -0.750504 0.000000
vt 0.158961 0.105637
vt 0.166707 0.001953
vt 0.172579 0.104473
vt 0.103490 0.179139
vt 0.001977 0.156697
vt 0.103623 0.167966
vt 0.113461 0.210765
vt 0.043173 0.287370
vt 0.022988 0.258579
vt 0.105524 0.156954
vt 0.009120 0.122269
vt 0.020242 0.096589
vt 0.202413 0.110322
vt 0.266989 0.029378
vt 0.212192 0.115728
vt 0.068771 0.311476
vt 0.146758 0.239398
vt 0.098723 0.329893
vt 0.068860 0.037276
vt 0.138258 0.113644
vt 0.129077 0.120013
vt 0.043239 0.061358
vt 0.009053 0.226296
vt 0.098828 0.018884
vt 0.131902 0.006949
vt 0.168429 0.244562
vt 0.131788 0.341855
vt 0.157388 0.242842
vt 0.266989 0.319649
vt 0.201152 0.239187
vt 0.211062 0.234026
vt 0.204177 0.004796
vt 0.187264 0.106176
vt 0.235660 0.013414
vt 0.001953 0.191859
vt 0.105130 0.190192
vt 0.112544 0.140743
vt 0.121022 0.127757
vt 0.201686 0.344742
vt 0.166589 0.346876
vt 0.235621 0.335538
vt 0.190548 0.242712
vt 0.366264 0.104938
vt 0.350119 0.089706
vt 0.344828 0.077103
vt 0.742267 0.151028
vt 0.975686 0.163746
vt 0.875022 0.286031
vt 0.127850 0.227772
vt 0.687784 0.054482
vt 0.701860 0.001953
vt 0.740314 0.040407
vt 0.604344 0.062609
vt 0.620597 0.364173
vt 0.604344 0.364173
vt 0.588091 0.062609
vt 0.701860 0.062609
vt 0.718112 0.364173
vt 0.701860 0.364173
vt 0.685607 0.364173
vt 0.555586 0.062609
vt 0.571839 0.364173
vt 0.555586 0.364173
vt 0.636849 0.364173
vt 0.653102 0.062609
vt 0.653102 0.364173
vt 0.669354 0.062609
vt 0.669354 0.364173
vt 0.685607 0.062609
vt 0.636849 0.062609
vt 0.679658 0.402627
vt 0.732187 0.416703
vt 0.523081 0.364173
vt 0.539334 0.062609
vt 0.539334 0.364173
vt 0.588091 0.364173
vt 0.321326 0.691813
vt 0.334213 0.753163
vt 0.326941 0.771133
vt 0.817867 0.945225
vt 0.680739 0.870335
vt 0.673724 0.854112
vt 0.669161 0.905087
vt 0.680563 0.455871
vt 0.817455 0.380356
vt 0.673599 0.472135
vt 0.980238 0.665717
vt 0.829844 0.562650
vt 0.822538 0.544686
vt 0.322157 0.935641
vt 0.185127 0.860421
vt 0.178134 0.844165
vt 0.525768 0.501762
vt 0.675271 0.598032
vt 0.497504 0.501592
vt 0.334128 0.518977
vt 0.321315 0.580334
vt 0.326859 0.501001
vt 0.675660 0.405885
vt 0.668812 0.421363
vt 0.484304 0.622329
vt 0.482729 0.634340
vt 0.830181 0.441501
vt 0.980948 0.339381
vt 0.822700 0.459710
vt 0.830334 0.884043
vt 0.822802 0.865853
vt 0.401179 0.172614
vt 0.390484 0.183296
vt 0.379964 0.172762
vt 0.668304 0.743432
vt 0.680160 0.778255
vt 0.673397 0.794319
vt 0.030154 0.457574
vt 0.180208 0.361814
vt 0.173346 0.377295
vt 0.484482 0.649956
vt 0.817157 0.624044
vt 0.824196 0.640116
vt 0.173409 0.895123
vt 0.525740 0.824702
vt 0.675946 0.920159
vt 0.497541 0.825158
vt 0.977915 0.502561
vt 0.673521 0.532017
vt 0.172949 0.538952
vt 0.184670 0.504057
vt 0.179521 0.553844
vt 0.977883 0.822700
vt 0.328320 0.596419
vt 0.173049 0.733384
vt 0.184726 0.768300
vt 0.177950 0.784344
vt 0.674948 0.728131
vt 0.482348 0.813114
vt 0.029980 0.814785
vt 0.680338 0.548047
vt 0.816731 0.701671
vt 0.829668 0.763017
vt 0.822409 0.780993
vt 0.001953 0.457582
vt 0.485692 0.296182
vt 0.334705 0.397951
vt 0.484199 0.283972
vt 0.668578 0.582758
vt 0.185057 0.411975
vt 0.178060 0.428229
vt 0.485719 0.976269
vt 0.334758 0.874473
vt 0.327241 0.856282
vt 0.179628 0.718492
vt 0.180268 0.910606
vt 0.002016 0.814762
vt 0.482298 0.459340
vt 0.322115 0.336780
vt 0.327184 0.416141
vt 0.177889 0.488023
vt 0.979873 0.659691
vt 0.981293 0.985837
vt 0.979799 0.998047
vt 0.329332 0.320490
vt 0.119978 0.219842
vt 0.343280 0.062401
vt 0.402843 0.108860
vt 0.345104 0.046801
vt 0.350119 0.036816
vt 0.357301 0.028256
vt 0.366264 0.021584
vt 0.387528 0.015218
vt 0.398683 0.015867
vt 0.409387 0.019072
vt 0.427192 0.032327
vt 0.433332 0.041663
vt 0.437154 0.052163
vt 0.437154 0.074359
vt 0.433332 0.084859
vt 0.427192 0.094195
vt 0.419064 0.101863
vt 0.387528 0.111304
vt 0.376524 0.109364
vt 0.825879 0.056141
vt 0.860766 0.051754
vt 0.895396 0.057845
vt 0.926693 0.073872
vt 0.951874 0.098412
vt 0.968704 0.129285
vt 0.972201 0.198735
vt 0.958557 0.231141
vt 0.935967 0.258087
vt 0.906439 0.277176
vt 0.837444 0.285853
vt 0.804109 0.274669
vt 0.775551 0.254156
vt 0.754308 0.226137
vt 0.742267 0.193101
vt 0.749161 0.123906
vt 0.767482 0.093894
vt 0.793835 0.070617
vt 0.732187 0.054482
vt 0.718112 0.062609
vt 0.679658 0.040407
vt 0.679658 0.024155
vt 0.687784 0.010079
vt 0.718112 0.001953
vt 0.732187 0.010079
vt 0.740314 0.024155
vt 0.620597 0.062609
vt 0.571839 0.062609
vt 0.718112 0.424829
vt 0.701860 0.424829
vt 0.687784 0.416703
vt 0.679658 0.386375
vt 0.687784 0.372300
vt 0.732187 0.372300
vt 0.740314 0.386375
vt 0.740314 0.402627
vt 0.523081 0.062609
vt 0.328318 0.675719
vt 0.825107 0.961498
vt 0.824635 0.364049
vt 0.978686 0.677733
vt 0.329369 0.951932
vt 0.979427 0.327173
vt 0.264099 0.056753
vt 0.390659 0.162080
vt 0.262628 0.044586
vt 0.274794 0.046072
vt 0.506532 0.046351
vt 0.517052 0.056884
vt 0.518515 0.044903
vt 0.517045 0.288622
vt 0.506350 0.299304
vt 0.518515 0.300790
vt 0.274500 0.299136
vt 0.262517 0.300584
vt 0.263980 0.288603
vt 0.482916 0.637943
vt 0.823711 0.685570
vt 0.484223 0.988478
vt 0.978298 0.647679
vn 0.6856 -0.6809 -0.2577
vn 0.6864 -0.5884 -0.4275
vn 0.6864 -0.5902 -0.4248
vn 0.6829 0.1268 0.7194
vn 0.6829 -0.0548 0.7285
vn 0.6829 -0.0424 0.7293
vn 0.6829 0.5596 0.4696
vn 0.6829 0.6582 0.3167
vn 0.6830 0.5353 0.4970
vn 0.6829 -0.2095 0.6998
vn 0.6826 -0.2672 0.6802
vn 0.6803 -0.4388 0.5870
vn 0.6829 -0.2095 -0.6998
vn 0.6828 -0.0548 -0.7285
vn 0.6829 -0.0425 -0.7293
vn 0.6828 0.7224 0.1088
vn 0.6829 0.7108 -0.1684
vn 0.6828 0.7224 -0.1089
vn 0.6829 -0.6980 0.2155
vn 0.6829 -0.7256 0.0848
vn 0.6831 -0.6863 0.2497
vn 0.6840 -0.5906 0.4282
vn 0.6825 0.3654 0.6330
vn 0.6829 -0.7305 0.0000
vn 0.6845 -0.6946 -0.2215
vn 0.6829 0.5596 -0.4696
vn 0.6829 0.6583 -0.3167
vn 0.6829 0.6528 -0.3279
vn 0.6831 0.1269 -0.7192
vn 0.6830 -0.4439 -0.5800
vn 0.6811 -0.4843 -0.5491
vn 0.6828 -0.2670 -0.6801
vn 0.6830 0.1621 0.7122
vn 0.6829 0.2894 0.6708
vn 0.6790 -0.4852 0.5509
vn 0.6841 -0.5952 0.4215
vn 0.6828 0.3653 -0.6327
vn 0.6829 0.5354 -0.4970
vn 0.6829 0.1626 -0.7122
vn 0.6829 0.2894 -0.6708
vn 1.0000 0.0000 0.0000
vn -1.0000 -0.0000 -0.0000
vn 0.6829 0.7108 0.1684
vn -0.0000 -0.5000 0.8660
vn -0.0000 0.0000 1.0000
vn -0.0000 -0.8660 0.5000
vn 0.0000 0.5000 -0.8660
vn 0.0000 -0.0000 -1.0000
vn 0.0000 0.8660 -0.5000
vn 0.0000 -0.8660 -0.5000
vn 0.0000 -1.0000 0.0000
vn -0.0000 0.5000 0.8660
vn -0.0000 0.8660 0.5000
vn -0.0000 1.0000 -0.0000
vn 0.0000 -0.5000 -0.8660
vn -0.7071 0.0000 -0.7071
vn 0.3742 0.7071 0.6000
vn -0.7071 0.7071 0.0000
vn 0.3742 -0.7071 0.6000
vn 0.4395 -0.5539 0.7071
vn 0.3742 -0.7071 -0.6000
vn 0.3519 -0.6089 0.7109
vn 0.3518 -0.7111 0.6087
vn 0.4395 0.5539 -0.7071
vn 0.4395 -0.7071 0.5539
vn -0.7071 -0.7071 -0.0000
vn -0.7071 0.0000 0.7071
vn 0.3536 0.7071 -0.6124
vn 0.3535 0.7071 -0.6124
vn 0.4395 -0.5539 -0.7071
vn 0.3536 0.7071 0.6124
vn 0.3535 0.7071 0.6124
vn 0.3536 0.7071 0.6123
vn 0.3742 0.6000 -0.7071
vn 0.3536 0.6124 0.7071
vn 0.3536 0.6123 0.7071
vn 0.3742 -0.5999 0.7071
vn 0.3536 0.6124 -0.7071
vn 0.3535 0.6123 -0.7072
vn 0.3742 -0.5999 -0.7071
vn 0.4395 0.7071 -0.5539
vn 0.4395 -0.7071 -0.5539
vn 0.3535 -0.6123 -0.7072
vn 0.3536 -0.6126 -0.7069
vn 0.3536 -0.6124 -0.7071
vn 0.3742 0.6000 0.7071
vn 0.3535 -0.7073 -0.6122
vn 0.3536 -0.7071 -0.6123
vn 0.3535 -0.7072 -0.6123
vn 0.4395 0.5539 0.7071
vn 0.4395 0.7071 0.5539
vn 0.3742 0.7071 -0.6000
vn 0.6829 0.6528 0.3278
vn 0.3519 -0.7108 0.6090
vn 0.3536 0.7071 -0.6123
vn 0.3537 0.7070 0.6124
vn 0.3537 -0.7070 -0.6124
usemtl Tree
s 1
f 1/1/1 2/2/2 3/3/3
f 4/4/4 5/5/5 6/6/6
f 7/7/7 8/8/8 9/9/9
f 10/10/10 5/5/5 11/11/11
f 12/12/12 10/10/10 11/11/11
f 13/13/13 14/14/14 15/15/15
f 16/16/16 17/17/17 18/18/18
f 19/19/19 20/20/20 21/21/21
f 21/21/21 22/22/22 19/19/19
f 23/23/23 7/7/7 9/9/9
f 1/1/1 24/24/24 25/25/25
f 26/26/26 27/27/27 28/28/28
f 14/29/14 29/30/29 15/31/15
f 3/3/3 30/32/30 31/33/31
f 32/34/32 31/33/31 30/32/30
f 33/35/33 34/36/34 23/23/23
f 35/37/35 22/22/22 36/38/36
f 26/26/26 37/39/37 38/40/38
f 17/17/17 27/27/27 18/18/18
f 39/41/39 40/42/40 29/30/29
f 20/43/41 1/44/41 3/45/41
f 12/46/42 38/47/42 30/48/42
f 8/8/8 41/49/43 16/16/16
f 42/50/41 43/51/41 44/52/41
f 45/53/44 46/54/45 47/55/44
f 47/55/44 48/56/46 45/53/44
f 49/57/47 50/58/48 51/59/47
f 52/60/49 49/57/47 51/59/47
f 44/61/50 53/62/51 54/63/50
f 55/64/52 56/65/53 57/66/53
f 57/66/53 58/67/54 59/68/54
f 59/68/54 42/69/49 52/60/49
f 46/54/45 60/70/52 55/64/52
f 57/71/42 50/58/42 61/72/42
f 50/73/48 62/74/55 63/75/55
f 53/62/51 48/56/46 61/76/46
f 54/63/50 62/74/55 44/61/50
f 64/77/56 65/78/56 66/79/56
f 67/80/57 68/81/57 69/82/57
f 68/81/58 70/83/58 69/82/58
f 68/84/59 71/85/59 72/86/59
f 73/87/60 65/88/60 74/89/60
f 75/90/61 76/91/61 77/92/61
f 78/93/62 79/94/62 80/95/62
f 81/96/56 82/97/56 83/98/56
f 78/93/63 84/99/63 85/100/63
f 81/96/64 86/101/64 87/102/64
f 88/103/65 89/104/65 90/105/65
f 71/85/66 88/103/66 90/105/66
f 88/106/58 67/80/58 91/107/58
f 92/108/42 93/109/42 94/110/42
f 95/111/67 96/112/67 97/113/67
f 98/114/68 99/115/69 100/116/68
f 65/78/70 101/117/70 66/79/70
f 102/118/67 65/88/67 103/119/67
f 76/91/66 104/120/66 77/92/66
f 105/121/71 84/122/72 80/123/73
f 94/124/45 74/89/45 106/125/45
f 107/126/56 96/127/56 108/128/56
f 69/82/54 105/121/54 109/129/54
f 96/127/74 82/97/74 110/130/74
f 111/131/56 112/132/56 113/133/56
f 105/121/75 108/134/76 95/111/75
f 113/133/48 93/135/48 114/136/48
f 102/118/77 112/137/77 106/125/77
f 115/138/67 81/139/67 116/140/67
f 98/114/78 108/128/79 80/141/78
f 112/132/80 64/77/80 113/133/80
f 117/142/81 118/143/81 119/144/81
f 120/145/67 112/137/67 79/94/67
f 100/116/58 76/146/58 121/147/58
f 122/148/82 118/149/82 123/150/82
f 114/136/83 79/151/84 111/131/85
f 72/86/51 94/124/51 78/93/51
f 96/112/86 115/138/86 97/113/86
f 118/149/66 75/90/66 123/150/66
f 114/136/87 99/152/88 80/153/89
f 121/147/54 92/154/54 98/114/54
f 124/155/58 118/143/58 125/156/58
f 77/92/51 93/135/51 123/150/51
f 109/129/45 97/113/45 116/140/45
f 85/100/66 68/84/66 72/86/66
f 92/154/48 83/98/48 126/157/48
f 81/139/90 127/158/90 116/140/90
f 88/106/91 128/159/91 129/160/91
f 124/155/92 76/146/92 130/161/92
f 1/1/1 25/25/25 2/2/2
f 4/4/4 33/35/33 5/5/5
f 7/7/7 131/162/93 8/8/8
f 10/10/10 6/6/6 5/5/5
f 12/12/12 35/37/35 10/10/10
f 13/13/13 32/34/32 14/14/14
f 16/16/16 41/49/43 17/17/17
f 19/19/19 24/24/24 20/20/20
f 21/21/21 36/38/36 22/22/22
f 23/23/23 34/36/34 7/7/7
f 1/1/1 20/20/20 24/24/24
f 26/26/26 38/40/38 27/27/27
f 14/29/14 39/41/39 29/30/29
f 3/3/3 2/2/2 30/32/30
f 32/34/32 13/13/13 31/33/31
f 33/35/33 4/4/4 34/36/34
f 35/37/35 12/12/12 22/22/22
f 26/26/26 40/42/40 37/39/37
f 17/17/17 28/28/28 27/27/27
f 39/41/39 37/39/37 40/42/40
f 3/45/41 31/163/41 35/164/41
f 31/163/41 13/165/41 15/166/41
f 3/45/41 35/164/41 20/43/41
f 15/166/41 29/167/41 31/163/41
f 29/167/41 40/168/41 31/163/41
f 40/168/41 26/169/41 31/163/41
f 26/169/41 28/170/41 31/163/41
f 28/170/41 17/171/41 31/163/41
f 17/171/41 41/172/41 31/163/41
f 41/172/41 131/173/41 35/164/41
f 31/163/41 41/172/41 35/164/41
f 131/173/41 7/174/41 35/164/41
f 7/174/41 34/175/41 35/164/41
f 34/175/41 4/176/41 35/164/41
f 4/176/41 6/177/41 35/164/41
f 6/177/41 10/178/41 35/164/41
f 35/164/41 36/179/41 21/180/41
f 21/180/41 20/43/41 35/164/41
f 23/181/42 9/182/42 12/46/42
f 9/182/42 8/183/42 12/46/42
f 8/183/42 16/184/42 12/46/42
f 16/184/42 18/185/42 12/46/42
f 18/185/42 27/186/42 12/46/42
f 27/186/42 38/47/42 12/46/42
f 38/47/42 37/187/42 30/48/42
f 37/187/42 39/188/42 30/48/42
f 39/188/42 14/189/42 30/48/42
f 14/189/42 32/190/42 30/48/42
f 30/48/42 2/191/42 25/192/42
f 12/46/42 25/192/42 24/193/42
f 30/48/42 25/192/42 12/46/42
f 24/193/42 19/194/42 12/46/42
f 19/194/42 22/195/42 12/46/42
f 12/46/42 11/196/42 5/197/42
f 5/197/42 33/198/42 12/46/42
f 33/198/42 23/181/42 12/46/42
f 8/8/8 131/162/93 41/49/43
f 44/52/41 62/199/41 132/200/41
f 132/200/41 49/57/41 44/52/41
f 49/57/41 42/50/41 44/52/41
f 42/50/41 58/201/41 56/202/41
f 56/202/41 60/203/41 42/50/41
f 60/203/41 43/51/41 42/50/41
f 43/51/41 45/204/41 48/205/41
f 48/205/41 133/206/41 44/52/41
f 43/51/41 48/205/41 44/52/41
f 45/53/44 43/207/45 46/54/45
f 47/55/44 61/76/46 48/56/46
f 49/57/47 132/200/48 50/58/48
f 52/60/49 42/69/49 49/57/47
f 44/61/50 133/208/51 53/62/51
f 55/64/52 60/70/52 56/65/53
f 57/66/53 56/65/53 58/67/54
f 59/68/54 58/67/54 42/69/49
f 46/54/45 43/207/45 60/70/52
f 61/72/42 47/209/42 46/210/42
f 46/210/42 55/211/42 61/72/42
f 55/211/42 57/71/42 61/72/42
f 57/71/42 59/212/42 52/213/42
f 52/213/42 51/59/42 57/71/42
f 51/59/42 50/58/42 57/71/42
f 50/58/42 63/214/42 54/215/42
f 54/215/42 53/216/42 61/72/42
f 50/58/42 54/215/42 61/72/42
f 50/73/48 132/217/48 62/74/55
f 53/62/51 133/208/51 48/56/46
f 54/63/50 63/75/55 62/74/55
f 64/77/56 103/218/56 65/78/56
f 67/80/57 134/219/57 68/81/57
f 68/81/58 84/122/58 70/83/58
f 68/84/59 134/220/59 71/85/59
f 73/87/60 135/221/60 65/88/60
f 75/90/61 130/222/61 76/91/61
f 78/93/62 120/145/62 79/94/62
f 81/96/56 110/130/56 82/97/56
f 78/93/63 80/95/94 84/99/63
f 81/96/64 83/98/64 86/101/64
f 88/103/65 129/223/65 89/104/65
f 71/85/66 134/220/66 88/103/66
f 88/106/58 134/219/58 67/80/58
f 94/110/42 89/224/42 109/225/42
f 89/224/42 129/226/42 128/227/42
f 109/225/42 89/224/42 128/227/42
f 109/225/42 127/228/42 86/229/42
f 127/228/42 87/230/42 86/229/42
f 86/229/42 92/108/42 109/225/42
f 92/108/42 117/231/42 122/232/42
f 117/231/42 119/233/42 122/232/42
f 122/232/42 93/109/42 92/108/42
f 93/109/42 101/234/42 94/110/42
f 101/234/42 135/235/42 73/236/42
f 94/110/42 101/234/42 73/236/42
f 94/110/42 109/225/42 92/108/42
f 95/111/67 108/134/67 96/112/67
f 98/114/68 80/141/95 99/115/69
f 65/78/70 135/237/70 101/117/70
f 102/118/67 74/89/67 65/88/67
f 76/91/66 99/152/66 104/120/66
f 105/121/71 70/83/96 84/122/72
f 94/124/45 73/87/45 74/89/45
f 74/89/45 102/118/45 106/125/45
f 106/125/45 120/145/45 78/93/45
f 78/93/45 94/124/45 106/125/45
f 107/126/56 126/157/56 96/127/56
f 91/107/54 67/80/54 69/82/54
f 69/82/54 70/83/54 105/121/54
f 109/129/54 128/159/54 91/107/54
f 91/107/54 69/82/54 109/129/54
f 96/127/74 126/157/74 82/97/74
f 111/131/56 79/151/56 112/132/56
f 105/121/75 80/123/75 108/134/76
f 113/133/48 64/77/48 66/79/48
f 66/79/48 101/117/48 93/135/48
f 114/136/48 111/131/48 113/133/48
f 113/133/48 66/79/48 93/135/48
f 102/118/77 103/119/77 112/137/77
f 115/138/67 110/238/67 81/139/67
f 98/114/78 107/126/78 108/128/79
f 112/132/80 103/218/80 64/77/80
f 117/142/81 125/156/81 118/143/81
f 120/145/67 106/125/67 112/137/67
f 100/116/58 99/115/58 76/146/58
f 122/148/82 119/239/82 118/149/82
f 114/136/83 80/153/83 79/151/84
f 72/86/51 71/85/51 90/105/51
f 90/105/51 89/104/51 94/124/51
f 78/93/51 85/100/51 72/86/51
f 72/86/51 90/105/51 94/124/51
f 96/112/86 110/238/86 115/138/86
f 118/149/66 130/222/66 75/90/66
f 114/136/87 104/120/97 99/152/88
f 121/147/54 124/155/54 125/156/54
f 125/156/54 117/142/54 92/154/54
f 98/114/54 100/116/54 121/147/54
f 121/147/54 125/156/54 92/154/54
f 124/155/58 130/161/58 118/143/58
f 77/92/51 104/120/51 114/136/51
f 93/135/51 122/148/51 123/150/51
f 123/150/51 75/90/51 77/92/51
f 77/92/51 114/136/51 93/135/51
f 105/121/45 95/111/45 97/113/45
f 97/113/45 115/138/45 116/140/45
f 116/140/45 127/158/45 109/129/45
f 109/129/45 105/121/45 97/113/45
f 85/100/66 84/99/66 68/84/66
f 92/154/48 86/101/48 83/98/48
f 83/98/48 82/97/48 126/157/48
f 126/157/48 107/126/48 98/114/48
f 98/114/48 92/154/48 126/157/48
f 81/139/90 87/240/90 127/158/90
f 88/106/91 91/107/91 128/159/91
f 124/155/92 121/147/92 76/146/92
