{
    "asset" : {
        "generator" : "Khronos glTF Blender I/O v1.4.40",
        "version" : "2.0"
    },
    "scene" : 0,
    "scenes" : [
        {
            "name" : "Scene",
            "nodes" : [
                2
            ]
        }
    ],
    "nodes" : [
        {
            "mesh" : 0,
            "name" : "Hilt_1",
            "translation" : [
                0.0015763938426971436,
                0.07692189514636993,
                0
            ]
        },
        {
            "mesh" : 1,
            "name" : "Hilt_2",
            "translation" : [
                0.003874838352203369,
                -0.07909868657588959,
                0
            ]
        },
        {
            "children" : [
                0,
                1
            ],
            "mesh" : 2,
            "name" : "Blade"
        }
    ],
    "animations" : [
        {
            "channels" : [
                {
                    "sampler" : 0,
                    "target" : {
                        "node" : 1,
                        "path" : "translation"
                    }
                },
                {
                    "sampler" : 1,
                    "target" : {
                        "node" : 1,
                        "path" : "rotation"
                    }
                }
            ],
            "name" : "Hilt_2Action.007",
            "samplers" : [
                {
                    "input" : 12,
                    "interpolation" : "LINEAR",
                    "output" : 13
                },
                {
                    "input" : 12,
                    "interpolation" : "LINEAR",
                    "output" : 14
                }
            ]
        },
        {
            "channels" : [
                {
                    "sampler" : 0,
                    "target" : {
                        "node" : 0,
                        "path" : "translation"
                    }
                },
                {
                    "sampler" : 1,
                    "target" : {
                        "node" : 0,
                        "path" : "rotation"
                    }
                }
            ],
            "name" : "Hilt_1Action.016",
            "samplers" : [
                {
                    "input" : 12,
                    "interpolation" : "LINEAR",
                    "output" : 15
                },
                {
                    "input" : 12,
                    "interpolation" : "LINEAR",
                    "output" : 16
                }
            ]
        },
        {
            "channels" : [
                {
                    "sampler" : 0,
                    "target" : {
                        "node" : 2,
                        "path" : "translation"
                    }
                },
                {
                    "sampler" : 1,
                    "target" : {
                        "node" : 2,
                        "path" : "rotation"
                    }
                }
            ],
            "name" : "BladeAction.007",
            "samplers" : [
                {
                    "input" : 12,
                    "interpolation" : "LINEAR",
                    "output" : 17
                },
                {
                    "input" : 12,
                    "interpolation" : "LINEAR",
                    "output" : 18
                }
            ]
        }
    ],
    "materials" : [
        {
            "alphaCutoff" : 0,
            "alphaMode" : "MASK",
            "doubleSided" : true,
            "emissiveFactor" : [
                1,
                1,
                1
            ],
            "emissiveTexture" : {
                "index" : 0,
                "texCoord" : 0
            },
            "name" : "Material.001",
            "pbrMetallicRoughness" : {
                "baseColorTexture" : {
                    "index" : 1,
                    "texCoord" : 0
                },
                "metallicFactor" : 0,
                "roughnessFactor" : 0
            }
        }
    ],
    "meshes" : [
        {
            "name" : "Hilt_1_Solid",
            "primitives" : [
                {
                    "attributes" : {
                        "POSITION" : 0,
                        "NORMAL" : 1,
                        "TEXCOORD_0" : 2
                    },
                    "indices" : 3,
                    "material" : 0
                }
            ]
        },
        {
            "name" : "Hilt_2_Solid",
            "primitives" : [
                {
                    "attributes" : {
                        "POSITION" : 4,
                        "NORMAL" : 5,
                        "TEXCOORD_0" : 6
                    },
                    "indices" : 7,
                    "material" : 0
                }
            ]
        },
        {
            "name" : "Blade_1_Solid",
            "primitives" : [
                {
                    "attributes" : {
                        "POSITION" : 8,
                        "NORMAL" : 9,
                        "TEXCOORD_0" : 10
                    },
                    "indices" : 11,
                    "material" : 0
                }
            ]
        }
    ],
    "textures" : [
        {
            "sampler" : 0,
            "source" : 0
        },
        {
            "sampler" : 0,
            "source" : 1
        }
    ],
    "images" : [
        {
            "bufferView" : 4,
            "mimeType" : "image/png",
            "name" : "butterly_e"
        },
        {
            "bufferView" : 5,
            "mimeType" : "image/png",
            "name" : "butterly"
        }
    ],
    "accessors" : [
        {
            "bufferView" : 0,
            "componentType" : 5126,
            "count" : 1602,
            "max" : [
                0.061206694692373276,
                0.11967989057302475,
                0.06718280911445618
            ],
            "min" : [
                -1.8460805416107178,
                -0.06944238394498825,
                -0.06718283891677856
            ],
            "type" : "VEC3"
        },
        {
            "bufferView" : 1,
            "componentType" : 5126,
            "count" : 1602,
            "type" : "VEC3"
        },
        {
            "bufferView" : 2,
            "componentType" : 5126,
            "count" : 1602,
            "type" : "VEC2"
        },
        {
            "bufferView" : 3,
            "componentType" : 5123,
            "count" : 5184,
            "type" : "SCALAR"
        },
        {
            "bufferView" : 6,
            "componentType" : 5126,
            "count" : 1602,
            "max" : [
                0.06118234619498253,
                0.0730886161327362,
                0.06614923477172852
            ],
            "min" : [
                -1.846169352531433,
                -0.1160372644662857,
                -0.06821639835834503
            ],
            "type" : "VEC3"
        },
        {
            "bufferView" : 7,
            "componentType" : 5126,
            "count" : 1602,
            "type" : "VEC3"
        },
        {
            "bufferView" : 8,
            "componentType" : 5126,
            "count" : 1602,
            "type" : "VEC2"
        },
        {
            "bufferView" : 9,
            "componentType" : 5123,
            "count" : 5184,
            "type" : "SCALAR"
        },
        {
            "bufferView" : 10,
            "componentType" : 5126,
            "count" : 472,
            "max" : [
                0.16820180416107178,
                0.2413516342639923,
                0.016799138858914375
            ],
            "min" : [
                -1.6939797401428223,
                -0.24135154485702515,
                -0.01679566502571106
            ],
            "type" : "VEC3"
        },
        {
            "bufferView" : 11,
            "componentType" : 5126,
            "count" : 472,
            "type" : "VEC3"
        },
        {
            "bufferView" : 12,
            "componentType" : 5126,
            "count" : 472,
            "type" : "VEC2"
        },
        {
            "bufferView" : 13,
            "componentType" : 5123,
            "count" : 1404,
            "type" : "SCALAR"
        },
        {
            "bufferView" : 14,
            "componentType" : 5126,
            "count" : 41,
            "max" : [
                1.6666666666666667
            ],
            "min" : [
                0
            ],
            "type" : "SCALAR"
        },
        {
            "bufferView" : 15,
            "componentType" : 5126,
            "count" : 41,
            "type" : "VEC3"
        },
        {
            "bufferView" : 16,
            "componentType" : 5126,
            "count" : 41,
            "type" : "VEC4"
        },
        {
            "bufferView" : 17,
            "componentType" : 5126,
            "count" : 41,
            "type" : "VEC3"
        },
        {
            "bufferView" : 18,
            "componentType" : 5126,
            "count" : 41,
            "type" : "VEC4"
        },
        {
            "bufferView" : 19,
            "componentType" : 5126,
            "count" : 41,
            "type" : "VEC3"
        },
        {
            "bufferView" : 20,
            "componentType" : 5126,
            "count" : 41,
            "type" : "VEC4"
        }
    ],
    "bufferViews" : [
        {
            "buffer" : 0,
            "byteLength" : 19224,
            "byteOffset" : 0
        },
        {
            "buffer" : 0,
            "byteLength" : 19224,
            "byteOffset" : 19224
        },
        {
            "buffer" : 0,
            "byteLength" : 12816,
            "byteOffset" : 38448
        },
        {
            "buffer" : 0,
            "byteLength" : 10368,
            "byteOffset" : 51264
        },
        {
            "buffer" : 0,
            "byteLength" : 143510,
            "byteOffset" : 61632
        },
        {
            "buffer" : 0,
            "byteLength" : 453398,
            "byteOffset" : 205144
        },
        {
            "buffer" : 0,
            "byteLength" : 19224,
            "byteOffset" : 658544
        },
        {
            "buffer" : 0,
            "byteLength" : 19224,
            "byteOffset" : 677768
        },
        {
            "buffer" : 0,
            "byteLength" : 12816,
            "byteOffset" : 696992
        },
        {
            "buffer" : 0,
            "byteLength" : 10368,
            "byteOffset" : 709808
        },
        {
            "buffer" : 0,
            "byteLength" : 5664,
            "byteOffset" : 720176
        },
        {
            "buffer" : 0,
            "byteLength" : 5664,
            "byteOffset" : 725840
        },
        {
            "buffer" : 0,
            "byteLength" : 3776,
            "byteOffset" : 731504
        },
        {
            "buffer" : 0,
            "byteLength" : 2808,
            "byteOffset" : 735280
        },
        {
            "buffer" : 0,
            "byteLength" : 164,
            "byteOffset" : 738088
        },
        {
            "buffer" : 0,
            "byteLength" : 492,
            "byteOffset" : 738252
        },
        {
            "buffer" : 0,
            "byteLength" : 656,
            "byteOffset" : 738744
        },
        {
            "buffer" : 0,
            "byteLength" : 492,
            "byteOffset" : 739400
        },
        {
            "buffer" : 0,
            "byteLength" : 656,
            "byteOffset" : 739892
        },
        {
            "buffer" : 0,
            "byteLength" : 492,
            "byteOffset" : 740548
        },
        {
            "buffer" : 0,
            "byteLength" : 656,
            "byteOffset" : 741040
        }
    ],
    "samplers" : [
        {
            "magFilter" : 9729,
            "minFilter" : 9986
        }
    ],
    "buffers" : [
        {
            "byteLength" : 741696,
            "uri" : "data:application/octet-stream;base64,"
        }
    ]
}
