# Blender v3.1.2 OBJ File: 'face.blend'
# www.blender.org
mtllib knife.mtl
o Plane.001
v 0.108177 0.191948 0.024657
v 0.544102 0.191948 0.024657
v 0.544102 0.191948 0.000000
v 0.108177 0.191948 0.000000
v 1.559951 -0.093682 0.024657
v 0.295539 -0.093682 0.024657
v 0.295539 -0.131591 0.000000
v 1.559951 -0.131591 -0.000000
v 1.559951 0.191948 0.024657
v 1.901999 0.098345 0.024657
v 1.901999 0.098345 -0.000000
v 1.559951 0.191948 -0.000000
v 0.586427 0.151706 0.024657
v 0.586427 0.151706 0.000000
v 1.726163 -0.116718 -0.000000
v 1.726163 -0.078810 0.024657
v 2.050714 0.013043 0.024656
v 2.186308 0.061158 -0.000000
v 2.050714 0.076473 0.024656
v 0.967373 0.191948 0.024657
v 0.925045 0.151706 0.024657
v 1.094352 0.151706 0.024657
v 1.052027 0.191948 0.024657
v 1.305987 0.191948 0.024657
v 1.263659 0.151706 0.024657
v 0.882717 0.191948 0.024657
v 0.798063 0.191948 0.024657
v 0.755737 0.151706 0.024657
v 0.628756 0.191948 0.024657
v 0.713409 0.191948 0.024657
v 2.050714 -0.024865 -0.000000
v 0.798063 0.191948 -0.000000
v 0.755737 0.151706 -0.000000
v 1.305987 0.191948 -0.000000
v 1.263659 0.151706 -0.000000
v 0.295539 -0.093682 0.000000
v 1.726163 -0.078810 -0.024657
v 2.050714 0.013043 -0.024657
v 0.967373 0.191948 -0.000000
v 0.925045 0.151706 -0.000000
v 1.221334 0.191948 0.024657
v 1.221334 0.191948 -0.000000
v 1.136680 0.191948 0.024657
v 1.136680 0.191948 -0.000000
v 0.628756 0.191948 0.000000
v 1.094352 0.151706 -0.000000
v 1.052027 0.191948 -0.000000
v 0.108177 -0.093682 0.024657
v 0.108177 -0.093682 0.000000
v 0.882717 0.191948 -0.000000
v 0.713409 0.191948 -0.000000
v 0.108177 0.191948 -0.024657
v 0.544102 0.191948 -0.024657
v 1.559951 -0.093682 -0.024657
v 0.295539 -0.093682 -0.024657
v 1.559951 0.191948 -0.024657
v 1.901999 0.098345 -0.024657
v 0.586427 0.151706 -0.024657
v 2.050714 0.076473 -0.024657
v 0.967373 0.191948 -0.024657
v 1.052027 0.191948 -0.024657
v 1.094352 0.151706 -0.024657
v 0.925045 0.151706 -0.024657
v 1.263659 0.151706 -0.024657
v 1.305987 0.191948 -0.024657
v 0.755737 0.151706 -0.024657
v 0.798063 0.191948 -0.024657
v 0.882717 0.191948 -0.024657
v 0.628756 0.191948 -0.024657
v 0.713409 0.191948 -0.024657
v 1.221334 0.191948 -0.024657
v 1.136680 0.191948 -0.024657
v 0.108177 -0.093682 -0.024657
v -0.484277 0.040414 0.095673
v -0.922744 0.056160 0.084276
v -0.922744 -0.070627 0.042140
v -0.484277 -0.103520 0.047836
v -0.922744 -0.070627 -0.042139
v -0.484277 -0.103520 -0.047836
v -0.922744 0.056160 -0.084276
v -0.484277 0.040414 -0.095672
v -0.922744 0.182948 -0.042139
v -0.484277 0.184346 -0.047836
v -1.045566 -0.134959 -0.052355
v -1.045566 0.022568 -0.104707
v -0.922744 0.182948 0.042140
v -0.484277 0.184346 0.047836
v -0.053158 0.056160 -0.084276
v -0.053158 0.182948 -0.042139
v 0.094683 0.238226 -0.067780
v 0.094683 0.034289 -0.112890
v -0.053158 0.182948 0.042139
v -0.053158 0.056160 0.084276
v -0.053158 -0.070627 -0.042139
v -0.053158 -0.070627 0.042139
v -1.126397 -0.134959 -0.052355
v -1.126397 0.022568 -0.104707
v -1.045566 0.180092 0.052355
v -1.045566 0.022568 0.104707
v -1.045566 0.180092 -0.052355
v -1.045566 -0.134959 0.052355
v -1.126397 -0.134959 0.052355
v -1.126397 0.022568 0.104707
v -1.126397 0.180092 0.052355
v -1.126397 0.180092 -0.052355
v 0.094683 0.034289 0.112890
v 0.094683 -0.169646 0.067777
v 0.141048 -0.169646 0.067777
v 0.141048 0.034289 0.112890
v 0.094683 -0.169646 -0.067780
v 0.094683 0.238226 0.067777
v 0.141048 -0.169646 -0.067780
v 0.141048 0.034289 -0.112890
v 0.141048 0.238226 -0.067780
v 0.141048 0.238226 0.067777
vt 0.980392 0.772503
vt 0.779115 0.772503
vt 0.779115 0.761118
vt 0.980392 0.761118
vt 0.303612 0.837166
vt 0.887729 0.839086
vt 0.887786 0.821574
vt 0.303669 0.819654
vt 0.310071 0.772503
vt 0.152138 0.772503
vt 0.152138 0.761118
vt 0.310071 0.761118
vt 0.759572 0.772503
vt 0.759572 0.761118
vt 0.226862 0.826272
vt 0.226804 0.843784
vt 0.076732 0.885725
vt 0.014019 0.907746
vt 0.076636 0.915028
vt 0.752974 0.952006
vt 0.772467 0.970661
vt 0.576930 0.970018
vt 0.596545 0.951492
vt 0.518330 0.951235
vt 0.537823 0.969889
vt 0.420500 0.969504
vt 0.440115 0.950978
vt 0.616037 0.970146
vt 0.655145 0.970275
vt 0.674760 0.951749
vt 0.733360 0.970532
vt 0.694252 0.970404
vt 0.076790 0.868213
vt 0.681397 0.772503
vt 0.661854 0.772503
vt 0.661854 0.761118
vt 0.681397 0.761118
vt 0.446875 0.772503
vt 0.427332 0.772503
vt 0.427332 0.761118
vt 0.446875 0.761118
vt 0.887729 0.839086
vt 0.226804 0.843784
vt 0.076732 0.885725
vt 0.603224 0.772503
vt 0.583680 0.772503
vt 0.583680 0.761118
vt 0.603224 0.761118
vt 0.466419 0.772503
vt 0.466419 0.761118
vt 0.505506 0.772503
vt 0.505506 0.761118
vt 0.740028 0.772503
vt 0.740028 0.761118
vt 0.544593 0.772503
vt 0.525049 0.772503
vt 0.525049 0.761118
vt 0.544593 0.761118
vt 0.974283 0.839371
vt 0.974283 0.839371
vt 0.973850 0.971323
vt 0.973850 0.971323
vt 0.145305 0.925357
vt 0.622767 0.772503
vt 0.622767 0.761118
vt 0.083472 0.772503
vt 0.020864 0.761118
vt 0.700941 0.772503
vt 0.700941 0.761118
vt 0.498715 0.969761
vt 0.459608 0.969632
vt 0.303178 0.969118
vt 0.980392 0.749732
vt 0.779115 0.749732
vt 0.303612 0.837166
vt 0.887729 0.839086
vt 0.310071 0.749732
vt 0.152138 0.749732
vt 0.759572 0.749732
vt 0.076636 0.915028
vt 0.752974 0.952006
vt 0.772467 0.970661
vt 0.576930 0.970018
vt 0.537823 0.969889
vt 0.518330 0.951235
vt 0.596545 0.951492
vt 0.440115 0.950978
vt 0.420500 0.969504
vt 0.674760 0.951749
vt 0.655145 0.970275
vt 0.616037 0.970146
vt 0.733360 0.970532
vt 0.694252 0.970404
vt 0.681397 0.749732
vt 0.661854 0.749732
vt 0.446875 0.749732
vt 0.427332 0.749732
vt 0.603224 0.749732
vt 0.583680 0.749732
vt 0.466419 0.749732
vt 0.505506 0.749732
vt 0.740028 0.749732
vt 0.544593 0.749732
vt 0.525049 0.749732
vt 0.974283 0.839371
vt 0.973850 0.971323
vt 0.145305 0.925357
vt 0.622767 0.749732
vt 0.083472 0.749732
vt 0.700941 0.749732
vt 0.498715 0.969761
vt 0.459608 0.969632
vt 0.303178 0.969118
vt 0.496969 0.572152
vt 0.817333 0.583657
vt 0.817333 0.491020
vt 0.496969 0.466988
vt 0.496711 0.157221
vt 0.806986 0.161243
vt 0.806986 0.220713
vt 0.496711 0.224733
vt 0.496969 0.466988
vt 0.817333 0.491020
vt 0.817333 0.583657
vt 0.496969 0.572152
vt 0.817333 0.676294
vt 0.496969 0.677317
vt 0.907073 0.444018
vt 0.907073 0.559113
vt 0.500037 0.034598
vt 0.818738 0.038740
vt 0.818738 0.099996
vt 0.500037 0.104137
vt 0.496969 0.677317
vt 0.817333 0.676294
vt 0.181974 0.583657
vt 0.181974 0.676294
vt 0.073954 0.716683
vt 0.073954 0.567678
vt 0.181974 0.676294
vt 0.181974 0.583657
vt 0.186677 0.038739
vt 0.186677 0.099995
vt 0.181974 0.491020
vt 0.191607 0.161241
vt 0.191607 0.220711
vt 0.181974 0.491020
vt 0.966132 0.444018
vt 0.966132 0.559113
vt 0.907073 0.674209
vt 0.907073 0.559113
vt 0.907073 0.674209
vt 0.904825 0.154035
vt 0.904825 0.227922
vt 0.908036 0.031314
vt 0.908036 0.107421
vt 0.907073 0.444018
vt 0.128272 0.308909
vt 0.270843 0.261528
vt 0.413413 0.308913
vt 0.413412 0.403680
vt 0.270841 0.451061
vt 0.128271 0.403676
vt 0.966132 0.559113
vt 0.966132 0.444018
vt 0.966132 0.674209
vt 0.966132 0.674209
vt 0.961864 0.154035
vt 0.961864 0.227922
vt 0.966788 0.031314
vt 0.966788 0.107421
vt 0.073954 0.567678
vt 0.073954 0.418673
vt 0.040078 0.418673
vt 0.040078 0.567678
vt 0.066045 0.238803
vt 0.066045 0.143147
vt 0.071953 0.118632
vt 0.071953 0.020103
vt 0.073954 0.418673
vt 0.073954 0.716683
vt 0.717569 0.451188
vt 0.538809 0.411647
vt 0.538809 0.292824
vt 0.717569 0.253283
vt 0.896330 0.292824
vt 0.896330 0.411647
vt 0.040078 0.716683
vt 0.040078 0.716683
vt 0.040078 0.567678
vt 0.033327 0.238803
vt 0.033328 0.143147
vt 0.038253 0.118632
vt 0.038253 0.020103
vt 0.040078 0.418673
vn 0.0000 1.0000 0.0000
vn 0.0000 -0.5452 0.8383
vn 0.2640 0.9645 0.0000
vn 0.6890 0.7247 0.0000
vn 0.0487 -0.5446 0.8373
vn 0.1789 0.0000 0.9839
vn 0.0000 -0.0000 1.0000
vn 0.3269 -0.5153 0.7922
vn -0.6890 0.7247 0.0000
vn -1.0000 -0.0000 0.0000
vn 0.1525 -0.5389 -0.8285
vn 0.0000 -1.0000 0.0000
vn 0.1349 0.9888 0.0637
vn -0.0000 -0.5452 -0.8383
vn 0.0487 -0.5446 -0.8373
vn 0.1789 0.0000 -0.9839
vn -0.0000 0.0000 -1.0000
vn 0.3269 -0.5153 -0.7922
vn 0.1525 -0.5389 0.8285
vn 0.1349 0.9888 -0.0637
vn -0.0360 -0.3152 0.9484
vn -0.0748 -0.9972 0.0000
vn -0.0360 -0.3152 -0.9484
vn -0.0133 0.3154 -0.9489
vn 0.2372 -0.3064 -0.9219
vn -0.0032 1.0000 0.0000
vn -0.0133 0.3154 0.9489
vn -0.2020 0.2498 -0.9470
vn 0.0136 0.3154 0.9489
vn 0.0032 1.0000 0.0000
vn 0.0136 0.3154 -0.9489
vn 0.0366 -0.3152 -0.9483
vn 0.0761 -0.9971 0.0000
vn 0.0366 -0.3152 0.9483
vn -0.0000 -0.3154 -0.9490
vn 0.0714 0.3146 0.9465
vn 0.0714 0.3146 -0.9465
vn 0.4640 -0.8858 0.0000
vn -0.0232 0.9997 0.0000
vn 0.2372 -0.3064 0.9219
vn 0.0000 -0.3154 0.9490
vn 0.0000 0.3154 0.9490
vn -0.0000 0.3154 -0.9490
vn 0.0000 -0.2160 0.9764
vn -0.5565 -0.8309 0.0000
vn -0.3502 0.9367 0.0000
vn -0.2712 -0.2455 0.9307
vn -0.2712 -0.2455 -0.9307
vn -0.2020 0.2498 0.9470
vn 1.0000 0.0000 -0.0000
vn 0.0000 0.2160 0.9764
vn -0.0000 0.2160 -0.9764
vn -0.0000 -0.2160 -0.9764
usemtl Material.001
s 1
f 1/1/1 2/2/1 3/3/1 4/4/1
f 5/5/2 6/6/2 7/7/2 8/8/2
f 9/9/3 10/10/3 11/11/3 12/12/3
f 2/2/4 13/13/4 14/14/4 3/3/4
f 5/5/5 8/8/5 15/15/5 16/16/5
f 17/17/6 18/18/6 19/19/6
f 13/20/7 2/21/7 6/6/7
f 20/22/7 21/23/7 22/24/7 23/25/7
f 21/23/7 6/6/7 5/5/7 22/24/7
f 5/5/7 16/16/7 24/26/7 25/27/7
f 21/23/7 26/28/7 27/29/7 28/30/7
f 13/20/7 6/6/7 28/30/7
f 29/31/7 13/20/7 28/30/7 30/32/7
f 5/5/7 25/27/7 22/24/7
f 17/17/8 31/33/8 18/18/8
f 28/34/9 27/35/9 32/36/9 33/37/9
f 25/38/9 24/39/9 34/40/9 35/41/9
f 6/6/10 36/42/10 7/7/10
f 15/15/11 37/43/11 38/44/11 31/33/11
f 24/39/1 9/9/1 12/12/1 34/40/1
f 21/45/9 20/46/9 39/47/9 40/48/9
f 41/49/4 25/38/4 35/41/4 42/50/4
f 43/51/1 41/49/1 42/50/1 44/52/1
f 13/13/9 29/53/9 45/54/9 14/14/9
f 23/55/4 22/56/4 46/57/4 47/58/4
f 6/6/12 48/59/12 49/60/12 36/42/12
f 20/46/1 23/55/1 47/58/1 39/47/1
f 48/59/10 1/61/10 4/62/10 49/60/10
f 17/17/7 19/19/7 10/63/7
f 26/64/4 21/45/4 40/48/4 50/65/4
f 19/66/13 18/67/13 11/11/13 10/10/13
f 22/56/9 43/51/9 44/52/9 46/57/9
f 27/35/1 26/64/1 50/65/1 32/36/1
f 30/68/4 28/34/4 33/37/4 51/69/4
f 43/70/7 22/24/7 25/27/7 41/71/7
f 28/30/7 6/6/7 21/23/7
f 29/53/1 30/68/1 51/69/1 45/54/1
f 10/63/7 24/26/7 16/16/7 17/17/7
f 9/72/7 24/26/7 10/63/7
f 48/59/7 6/6/7 2/21/7 1/61/7
f 52/73/1 4/4/1 3/3/1 53/74/1
f 54/75/14 8/8/14 7/7/14 55/76/14
f 56/77/3 12/12/3 11/11/3 57/78/3
f 53/74/4 3/3/4 14/14/4 58/79/4
f 54/75/15 37/43/15 15/15/15 8/8/15
f 38/44/16 59/80/16 18/18/16
f 58/81/17 55/76/17 53/82/17
f 60/83/17 61/84/17 62/85/17 63/86/17
f 63/86/17 62/85/17 54/75/17 55/76/17
f 54/75/17 64/87/17 65/88/17 37/43/17
f 63/86/17 66/89/17 67/90/17 68/91/17
f 58/81/17 66/89/17 55/76/17
f 69/92/17 70/93/17 66/89/17 58/81/17
f 54/75/17 62/85/17 64/87/17
f 38/44/18 18/18/18 31/33/18
f 66/94/9 33/37/9 32/36/9 67/95/9
f 64/96/9 35/41/9 34/40/9 65/97/9
f 55/76/10 7/7/10 36/42/10
f 16/16/19 15/15/19 31/33/19 17/17/19
f 65/97/1 34/40/1 12/12/1 56/77/1
f 63/98/9 40/48/9 39/47/9 60/99/9
f 71/100/4 42/50/4 35/41/4 64/96/4
f 72/101/1 44/52/1 42/50/1 71/100/1
f 58/79/9 14/14/9 45/54/9 69/102/9
f 61/103/4 47/58/4 46/57/4 62/104/4
f 55/76/12 36/42/12 49/60/12 73/105/12
f 60/99/1 39/47/1 47/58/1 61/103/1
f 73/105/10 49/60/10 4/62/10 52/106/10
f 38/44/17 57/107/17 59/80/17
f 68/108/4 50/65/4 40/48/4 63/98/4
f 59/109/20 57/78/20 11/11/20 18/67/20
f 62/104/9 46/57/9 44/52/9 72/101/9
f 67/95/1 32/36/1 50/65/1 68/108/1
f 70/110/4 51/69/4 33/37/4 66/94/4
f 72/111/17 71/112/17 64/87/17 62/85/17
f 66/89/17 63/86/17 55/76/17
f 69/102/1 45/54/1 51/69/1 70/110/1
f 57/107/17 38/44/17 37/43/17 65/88/17
f 56/113/17 57/107/17 65/88/17
f 73/105/17 52/106/17 53/82/17 55/76/17
f 74/114/21 75/115/21 76/116/21 77/117/21
f 77/118/22 76/119/22 78/120/22 79/121/22
f 79/122/23 78/123/23 80/124/23 81/125/23
f 81/125/24 80/124/24 82/126/24 83/127/24
f 80/124/25 78/123/25 84/128/25 85/129/25
f 83/130/1 82/131/26 86/132/26 87/133/1
f 87/134/27 86/135/27 75/115/27 74/114/27
f 88/136/28 89/137/28 90/138/28 91/139/28
f 92/140/29 87/134/29 74/114/29 93/141/29
f 89/142/30 83/130/1 87/133/1 92/143/30
f 88/136/31 81/125/31 83/127/31 89/137/31
f 94/144/32 79/122/32 81/125/32 88/136/32
f 95/145/33 77/118/33 79/121/33 94/146/33
f 93/141/34 74/114/34 77/117/34 95/147/34
f 85/129/35 84/128/35 96/148/35 97/149/35
f 75/115/36 86/135/36 98/150/36 99/151/36
f 82/126/37 80/124/37 85/129/37 100/152/37
f 78/120/38 76/119/38 101/153/38 84/154/38
f 86/132/39 82/131/39 100/155/39 98/156/39
f 76/116/40 75/115/40 99/151/40 101/157/40
f 102/158/10 103/159/10 104/160/10 105/161/10 97/162/10 96/163/10
f 101/157/41 99/151/41 103/164/41 102/165/41
f 99/151/42 98/150/42 104/166/42 103/164/42
f 100/152/43 85/129/43 97/149/43 105/167/43
f 84/154/12 101/153/12 102/168/12 96/169/12
f 98/156/1 100/155/1 105/170/1 104/171/1
f 106/172/44 107/173/44 108/174/44 109/175/44
f 95/145/45 94/146/45 110/176/45 107/177/45
f 89/142/46 92/143/46 111/178/46 90/179/46
f 93/141/47 95/147/47 107/173/47 106/172/47
f 94/144/48 88/136/48 91/139/48 110/180/48
f 92/140/49 93/141/49 106/172/49 111/181/49
f 109/182/50 108/183/50 112/184/50 113/185/50 114/186/50 115/187/50
f 111/181/51 106/172/51 109/175/51 115/188/51
f 91/139/52 90/138/52 114/189/52 113/190/52
f 107/177/12 110/176/12 112/191/12 108/192/12
f 90/179/1 111/178/1 115/193/1 114/194/1
f 110/180/53 91/139/53 113/190/53 112/195/53
