# Blender v2.91.0 OBJ File: ''
# www.blender.org
mtllib juice_1.mtl
o Cube
v 0.962259 0.389549 0.407408
v -0.792563 0.389549 0.407408
v 0.962259 0.389549 -0.423929
v -0.792563 0.389549 -0.423929
v 0.962259 -0.197982 0.407408
v -0.792563 -0.197982 0.407408
v 0.962259 -0.197982 -0.423929
v -0.792563 -0.197982 -0.423929
v 0.741536 0.278714 -0.227771
v 1.891036 0.127857 -0.476509
v 0.741536 0.308309 -0.245549
v 1.889900 0.158049 -0.493211
v 0.741538 0.325049 -0.275741
v 1.873855 0.179687 -0.514804
v 0.741540 0.324451 -0.310259
v 1.847202 0.186973 -0.535500
v 0.741542 0.306673 -0.339854
v 1.817080 0.177953 -0.549756
v 0.741543 0.276481 -0.356594
v 1.791563 0.155046 -0.553750
v 0.741543 0.241962 -0.355996
v 1.777486 0.124388 -0.546413
v 0.741542 0.212368 -0.338218
v 1.778622 0.094196 -0.529711
v 0.741541 0.195628 -0.308026
v 1.794667 0.072558 -0.508119
v 0.741539 0.196226 -0.273508
v 1.821320 0.065273 -0.487422
v 0.741537 0.214003 -0.243913
v 1.851442 0.074292 -0.473166
v 0.741536 0.244196 -0.227173
v 1.876959 0.097199 -0.469172
v 0.891015 0.278927 -0.226255
v 1.041061 0.278877 -0.223862
v 1.192290 0.277295 -0.222633
v 1.345118 0.272418 -0.226148
v 1.499831 0.259817 -0.242910
v 1.652908 0.234133 -0.283943
v 1.790057 0.189455 -0.362369
v 1.789426 0.219340 -0.379642
v 1.652888 0.263811 -0.301579
v 1.500218 0.289423 -0.260664
v 1.345650 0.302010 -0.243921
v 1.192790 0.306888 -0.240405
v 1.041441 0.308472 -0.241636
v 0.891219 0.308521 -0.244031
v 1.777107 0.238718 -0.405422
v 1.645627 0.281506 -0.330320
v 1.497029 0.306405 -0.290552
v 1.344792 0.318794 -0.274078
v 1.192944 0.323634 -0.270595
v 1.041930 0.325213 -0.271824
v 0.891577 0.325262 -0.274221
v 1.756401 0.242396 -0.432801
v 1.633071 0.282475 -0.362465
v 1.491119 0.306214 -0.324565
v 1.342774 0.318272 -0.308538
v 1.192713 0.323045 -0.305112
v 1.042398 0.324615 -0.306339
v 0.891994 0.324664 -0.308737
v 1.732857 0.229389 -0.454443
v 1.618585 0.266459 -0.389400
v 1.484072 0.288900 -0.353590
v 1.340136 0.300584 -0.338068
v 1.192158 0.305280 -0.334709
v 1.042718 0.306838 -0.335932
v 0.892358 0.306887 -0.338329
v 1.712784 0.203183 -0.464549
v 1.606049 0.237750 -0.403908
v 1.477776 0.259103 -0.369849
v 1.337585 0.270470 -0.354756
v 1.191428 0.275099 -0.351454
v 1.042806 0.276646 -0.352674
v 0.892571 0.276694 -0.355069
v 1.701559 0.170799 -0.460411
v 1.598822 0.204040 -0.402102
v 1.473917 0.224807 -0.368985
v 1.335805 0.235998 -0.354130
v 1.190718 0.240588 -0.350861
v 1.042637 0.242128 -0.352078
v 0.892577 0.242176 -0.354470
v 1.702190 0.140914 -0.443138
v 1.598842 0.174362 -0.384465
v 1.473531 0.195201 -0.351231
v 1.335273 0.206406 -0.336357
v 1.190219 0.210995 -0.333089
v 1.042257 0.212534 -0.334305
v 0.892374 0.212582 -0.336694
v 1.714509 0.121537 -0.417358
v 1.606102 0.156667 -0.355724
v 1.476720 0.178219 -0.321343
v 1.336131 0.189622 -0.306200
v 1.190064 0.194249 -0.302899
v 1.041768 0.195793 -0.304116
v 0.892016 0.195841 -0.306504
v 1.735215 0.117858 -0.389979
v 1.618658 0.155698 -0.323580
v 1.482629 0.178410 -0.287330
v 1.338150 0.190144 -0.271740
v 1.190295 0.194837 -0.268382
v 1.041300 0.196391 -0.269601
v 0.891599 0.196439 -0.271988
v 1.758759 0.130865 -0.368337
v 1.633145 0.171713 -0.296645
v 1.489677 0.195724 -0.258306
v 1.340788 0.207832 -0.242210
v 1.190850 0.212602 -0.238785
v 1.040980 0.214167 -0.240008
v 0.891235 0.214216 -0.242396
v 1.778833 0.157071 -0.358231
v 1.645681 0.200423 -0.282137
v 1.495973 0.225521 -0.242047
v 1.343339 0.237946 -0.225522
v 1.191580 0.242784 -0.222040
v 1.040892 0.244360 -0.223267
v 0.891021 0.244409 -0.225657
v 1.834261 0.126123 -0.511461
v -0.792563 -0.197982 0.407408
v -0.792563 -0.197982 0.407408
v -0.792563 -0.197982 -0.423929
v -0.792563 -0.197982 -0.423929
v -0.792563 0.389549 0.407408
v -0.792563 0.389549 0.407408
v 0.962259 0.389549 0.407408
v 0.962259 0.389549 0.407408
v 0.962259 -0.197982 -0.423929
v 0.962259 -0.197982 -0.423929
v 0.962259 0.389549 -0.423929
v 0.962259 0.389549 -0.423929
v -0.792563 0.389549 -0.423929
v -0.792563 0.389549 -0.423929
v 0.962259 -0.197982 0.407408
v 0.962259 -0.197982 0.407408
v 1.889900 0.158049 -0.493211
v 1.891036 0.127857 -0.476509
v 1.873855 0.179687 -0.514804
v 1.847202 0.186973 -0.535500
v 1.817080 0.177953 -0.549756
v 1.791563 0.155046 -0.553750
v 1.777486 0.124388 -0.546413
v 1.778622 0.094196 -0.529711
v 1.794667 0.072558 -0.508119
v 1.821320 0.065273 -0.487422
v 1.851442 0.074292 -0.473166
v 1.876959 0.097199 -0.469172
vt 0.698014 0.806084
vt 0.698014 0.978399
vt 0.454194 0.978399
vt 0.454194 0.806084
vt 0.454194 0.291418
vt 0.454194 0.806084
vt 0.281879 0.806084
vt 0.281879 0.291418
vt 0.281879 0.291418
vt 0.281879 0.806084
vt 0.038059 0.806084
vt 0.038059 0.291418
vt 0.698014 0.119103
vt 0.698014 0.291418
vt 0.454194 0.291418
vt 0.454194 0.119104
vt 0.698014 0.291418
vt 0.698014 0.806084
vt 0.454194 0.806084
vt 0.454194 0.291418
vt 0.870329 0.291418
vt 0.870329 0.806084
vt 0.698014 0.806084
vt 0.698014 0.291418
vt 0.906883 0.148341
vt 0.926861 0.104339
vt 0.936052 0.108645
vt 0.916338 0.151621
vt 0.944979 0.113766
vt 0.925656 0.154856
vt 0.953500 0.119362
vt 0.934990 0.158140
vt 0.961837 0.125049
vt 0.944471 0.161505
vt 0.970269 0.130432
vt 0.954111 0.164924
vt 0.979167 0.135332
vt 0.963709 0.168298
vt 0.964076 0.798258
vt 0.978192 0.831152
vt 0.969262 0.835186
vt 0.954380 0.801417
vt 0.960684 0.839997
vt 0.944516 0.804760
vt 0.952374 0.845401
vt 0.934727 0.808162
vt 0.944100 0.851053
vt 0.925134 0.811541
vt 0.935589 0.856547
vt 0.915664 0.814887
vt 0.926658 0.861523
vt 0.906242 0.818198
vt 0.804870 0.909260
vt 0.796101 0.914322
vt 0.791039 0.895428
vt 0.928338 0.506339
vt 0.922309 0.549490
vt 0.912343 0.548080
vt 0.918380 0.504959
vt 0.916121 0.592768
vt 0.906144 0.591367
vt 0.910188 0.636302
vt 0.900179 0.635048
vt 0.905195 0.680228
vt 0.895132 0.679361
vt 0.902840 0.724881
vt 0.892723 0.724846
vt 0.905313 0.770195
vt 0.895304 0.771618
vt 0.938303 0.507667
vt 0.932282 0.550894
vt 0.926098 0.594176
vt 0.920194 0.637560
vt 0.915242 0.681127
vt 0.912930 0.724978
vt 0.915286 0.768843
vt 0.948275 0.508959
vt 0.942256 0.552292
vt 0.936082 0.595587
vt 0.930211 0.638820
vt 0.925319 0.682050
vt 0.923069 0.725121
vt 0.925350 0.767542
vt 0.958250 0.510240
vt 0.952226 0.553684
vt 0.946070 0.596992
vt 0.940240 0.640076
vt 0.935442 0.682964
vt 0.933296 0.725250
vt 0.935576 0.766225
vt 0.968224 0.511540
vt 0.962190 0.555074
vt 0.956053 0.598386
vt 0.950265 0.641319
vt 0.945572 0.683838
vt 0.943541 0.725314
vt 0.945859 0.764855
vt 0.978192 0.512880
vt 0.972154 0.556465
vt 0.966034 0.599765
vt 0.960286 0.642547
vt 0.955679 0.684649
vt 0.953733 0.725277
vt 0.956020 0.763416
vt 0.969066 0.458518
vt 0.962740 0.414355
vt 0.972831 0.412897
vt 0.979167 0.457082
vt 0.956327 0.370469
vt 0.966420 0.369024
vt 0.950287 0.326994
vt 0.960400 0.325702
vt 0.945318 0.284023
vt 0.955478 0.283125
vt 0.943079 0.242124
vt 0.953286 0.242069
vt 0.945278 0.202104
vt 0.955412 0.203522
vt 0.958953 0.459903
vt 0.952657 0.415804
vt 0.946254 0.371918
vt 0.940209 0.328286
vt 0.935216 0.284953
vt 0.932953 0.242252
vt 0.935228 0.200778
vt 0.948834 0.461252
vt 0.942572 0.417248
vt 0.936187 0.373364
vt 0.930144 0.329570
vt 0.925156 0.285881
vt 0.922906 0.242386
vt 0.925322 0.199477
vt 0.938714 0.462590
vt 0.932479 0.418690
vt 0.926119 0.374804
vt 0.920084 0.330841
vt 0.915125 0.286774
vt 0.912919 0.242469
vt 0.915534 0.198137
vt 0.928596 0.463944
vt 0.922378 0.420131
vt 0.916039 0.376234
vt 0.910005 0.332098
vt 0.905065 0.287615
vt 0.902893 0.242462
vt 0.905714 0.196706
vt 0.918485 0.465339
vt 0.912271 0.421575
vt 0.905932 0.377656
vt 0.899875 0.333350
vt 0.894907 0.288418
vt 0.892723 0.242380
vt 0.895704 0.195194
vt 0.785976 0.914322
vt 0.777207 0.909260
vt 0.772145 0.900491
vt 0.772145 0.890366
vt 0.777207 0.881597
vt 0.785976 0.876535
vt 0.796101 0.876535
vt 0.804870 0.881597
vt 0.809932 0.890366
vt 0.809932 0.900491
vn 1.0000 0.0000 0.0000
vn 0.0000 0.0000 -1.0000
vn 0.0000 -1.0000 0.0000
vn -1.0000 0.0000 0.0000
vn 0.0000 1.0000 0.0000
vn 0.0000 0.0000 1.0000
vn 0.6606 0.1459 0.7364
vn 0.7697 0.0908 0.6319
vn 0.7576 0.5261 0.3863
vn 0.6519 0.5835 0.4842
vn 0.5531 0.8321 0.0402
vn 0.4760 0.8729 0.1072
vn 0.1994 0.9252 -0.3229
vn 0.1749 0.9375 -0.3007
vn -0.2142 0.7679 -0.6037
vn -0.1759 0.7534 -0.6336
vn -0.5708 0.3973 -0.7185
vn -0.4830 0.3608 -0.7978
vn -0.7687 -0.0822 -0.6343
vn -0.6580 -0.1367 -0.7405
vn -0.7544 -0.5383 -0.3756
vn -0.6476 -0.5971 -0.4734
vn -0.5315 -0.8469 -0.0124
vn -0.4554 -0.8871 -0.0746
vn -0.1612 -0.9210 0.3546
vn -0.1400 -0.9299 0.3401
vn 0.2501 -0.7422 0.6217
vn 0.2092 -0.7232 0.6582
vn 0.5878 -0.3698 0.7195
vn 0.5001 -0.3298 0.8007
vn 0.4875 -0.4085 -0.7716
vn -0.0095 -0.2426 0.9701
vn -0.0125 -0.2420 0.9702
vn -0.0127 0.2758 0.9611
vn -0.0101 0.2757 0.9611
vn -0.0130 -0.2411 0.9704
vn -0.0101 0.2761 0.9611
vn 0.0021 -0.2400 0.9708
vn 0.0130 0.2761 0.9610
vn 0.0499 -0.2387 0.9698
vn 0.0782 0.2745 0.9584
vn 0.1486 -0.2437 0.9584
vn 0.2082 0.2637 0.9418
vn 0.3092 -0.2679 0.9125
vn 0.4156 0.2274 0.8806
vn -0.0063 -0.6957 0.7183
vn -0.0090 -0.6949 0.7190
vn -0.0124 -0.6940 0.7199
vn -0.0093 -0.6926 0.7212
vn 0.0084 -0.6899 0.7238
vn 0.0496 -0.6894 0.7226
vn 0.1216 -0.6967 0.7070
vn -0.0014 -0.9617 0.2739
vn -0.0031 -0.9614 0.2751
vn -0.0085 -0.9610 0.2762
vn -0.0182 -0.9604 0.2781
vn -0.0355 -0.9583 0.2834
vn -0.0631 -0.9542 0.2925
vn -0.0999 -0.9449 0.3117
vn 0.0038 -0.9699 -0.2435
vn 0.0037 -0.9701 -0.2425
vn -0.0023 -0.9703 -0.2417
vn -0.0221 -0.9705 -0.2402
vn -0.0698 -0.9695 -0.2349
vn -0.1591 -0.9625 -0.2196
vn -0.2960 -0.9395 -0.1726
vn 0.0080 -0.7185 -0.6954
vn 0.0094 -0.7189 -0.6950
vn 0.0045 -0.7191 -0.6948
vn -0.0201 -0.7193 -0.6944
vn -0.0853 -0.7178 -0.6909
vn -0.2118 -0.7078 -0.6739
vn -0.4114 -0.6741 -0.6134
vn 0.0101 -0.2753 -0.9613
vn 0.0127 -0.2752 -0.9613
vn 0.0101 -0.2749 -0.9614
vn -0.0126 -0.2742 -0.9615
vn -0.0775 -0.2707 -0.9595
vn -0.2064 -0.2581 -0.9438
vn -0.4124 -0.2194 -0.8842
vn 0.0095 0.2414 -0.9704
vn 0.0125 0.2420 -0.9702
vn 0.0130 0.2430 -0.9699
vn -0.0018 0.2445 -0.9696
vn -0.0488 0.2495 -0.9671
vn -0.1445 0.2618 -0.9542
vn -0.2985 0.2956 -0.9075
vn 0.0063 0.6938 -0.7201
vn 0.0090 0.6946 -0.7194
vn 0.0124 0.6955 -0.7184
vn 0.0095 0.6970 -0.7170
vn -0.0068 0.7010 -0.7131
vn -0.0432 0.7084 -0.7045
vn -0.1029 0.7253 -0.6806
vn 0.0014 0.9608 -0.2771
vn 0.0031 0.9611 -0.2759
vn 0.0085 0.9615 -0.2746
vn 0.0183 0.9619 -0.2725
vn 0.0369 0.9626 -0.2685
vn 0.0693 0.9613 -0.2665
vn 0.1190 0.9547 -0.2726
vn -0.0038 0.9706 0.2405
vn -0.0037 0.9704 0.2415
vn 0.0023 0.9701 0.2425
vn 0.0223 0.9695 0.2442
vn 0.0707 0.9666 0.2461
vn 0.1630 0.9572 0.2393
vn 0.3077 0.9296 0.2031
vn -0.0081 0.7200 0.6940
vn -0.0094 0.7195 0.6944
vn -0.0045 0.7193 0.6947
vn 0.0204 0.7184 0.6953
vn 0.0858 0.7147 0.6941
vn 0.2135 0.7017 0.6797
vn 0.4151 0.6634 0.6225
usemtl Material
s 1
f 125/1/1 133/2/1 127/3/1 129/4/1
f 130/5/2 128/6/2 126/7/2 121/8/2
f 120/9/3 7/10/3 132/11/3 118/12/3
f 119/13/4 122/14/4 131/15/4 8/16/4
f 123/17/5 124/18/5 3/19/5 4/20/5
f 6/21/6 5/22/6 1/23/6 2/24/6
f 39/25/7 135/26/8 134/27/9 40/28/10
f 40/28/10 134/27/9 136/29/11 47/30/12
f 47/30/12 136/29/11 137/31/13 54/32/14
f 54/32/14 137/31/13 138/33/15 61/34/16
f 61/34/16 138/33/15 139/35/17 68/36/18
f 68/36/18 139/35/17 140/37/19 75/38/20
f 75/39/20 140/40/19 141/41/21 82/42/22
f 82/42/22 141/41/21 142/43/23 89/44/24
f 89/44/24 142/43/23 143/45/25 96/46/26
f 96/46/26 143/45/25 144/47/27 103/48/28
f 103/48/28 144/47/27 145/49/29 110/50/30
f 110/50/30 145/49/29 135/51/8 39/52/7
f 12/53/31 10/54/31 117/55/31
f 31/56/32 116/57/33 33/58/34 9/59/35
f 116/57/33 115/60/36 34/61/37 33/58/34
f 115/60/36 114/62/38 35/63/39 34/61/37
f 114/62/38 113/64/40 36/65/41 35/63/39
f 113/64/40 112/66/42 37/67/43 36/65/41
f 112/66/42 111/68/44 38/69/45 37/67/43
f 111/68/44 110/50/30 39/52/7 38/69/45
f 29/70/46 109/71/47 116/57/33 31/56/32
f 109/71/47 108/72/48 115/60/36 116/57/33
f 108/72/48 107/73/49 114/62/38 115/60/36
f 107/73/49 106/74/50 113/64/40 114/62/38
f 106/74/50 105/75/51 112/66/42 113/64/40
f 105/75/51 104/76/52 111/68/44 112/66/42
f 104/76/52 103/48/28 110/50/30 111/68/44
f 27/77/53 102/78/54 109/71/47 29/70/46
f 102/78/54 101/79/55 108/72/48 109/71/47
f 101/79/55 100/80/56 107/73/49 108/72/48
f 100/80/56 99/81/57 106/74/50 107/73/49
f 99/81/57 98/82/58 105/75/51 106/74/50
f 98/82/58 97/83/59 104/76/52 105/75/51
f 97/83/59 96/46/26 103/48/28 104/76/52
f 25/84/60 95/85/61 102/78/54 27/77/53
f 95/85/61 94/86/62 101/79/55 102/78/54
f 94/86/62 93/87/63 100/80/56 101/79/55
f 93/87/63 92/88/64 99/81/57 100/80/56
f 92/88/64 91/89/65 98/82/58 99/81/57
f 91/89/65 90/90/66 97/83/59 98/82/58
f 90/90/66 89/44/24 96/46/26 97/83/59
f 23/91/67 88/92/68 95/85/61 25/84/60
f 88/92/68 87/93/69 94/86/62 95/85/61
f 87/93/69 86/94/70 93/87/63 94/86/62
f 86/94/70 85/95/71 92/88/64 93/87/63
f 85/95/71 84/96/72 91/89/65 92/88/64
f 84/96/72 83/97/73 90/90/66 91/89/65
f 83/97/73 82/42/22 89/44/24 90/90/66
f 21/98/74 81/99/75 88/92/68 23/91/67
f 81/99/75 80/100/76 87/93/69 88/92/68
f 80/100/76 79/101/77 86/94/70 87/93/69
f 79/101/77 78/102/78 85/95/71 86/94/70
f 78/102/78 77/103/79 84/96/72 85/95/71
f 77/103/79 76/104/80 83/97/73 84/96/72
f 76/104/80 75/39/20 82/42/22 83/97/73
f 19/105/81 74/106/82 81/107/75 21/108/74
f 74/106/82 73/109/83 80/110/76 81/107/75
f 73/109/83 72/111/84 79/112/77 80/110/76
f 72/111/84 71/113/85 78/114/78 79/112/77
f 71/113/85 70/115/86 77/116/79 78/114/78
f 70/115/86 69/117/87 76/118/80 77/116/79
f 69/117/87 68/36/18 75/38/20 76/118/80
f 17/119/88 67/120/89 74/106/82 19/105/81
f 67/120/89 66/121/90 73/109/83 74/106/82
f 66/121/90 65/122/91 72/111/84 73/109/83
f 65/122/91 64/123/92 71/113/85 72/111/84
f 64/123/92 63/124/93 70/115/86 71/113/85
f 63/124/93 62/125/94 69/117/87 70/115/86
f 62/125/94 61/34/16 68/36/18 69/117/87
f 15/126/95 60/127/96 67/120/89 17/119/88
f 60/127/96 59/128/97 66/121/90 67/120/89
f 59/128/97 58/129/98 65/122/91 66/121/90
f 58/129/98 57/130/99 64/123/92 65/122/91
f 57/130/99 56/131/100 63/124/93 64/123/92
f 56/131/100 55/132/101 62/125/94 63/124/93
f 55/132/101 54/32/14 61/34/16 62/125/94
f 13/133/102 53/134/103 60/127/96 15/126/95
f 53/134/103 52/135/104 59/128/97 60/127/96
f 52/135/104 51/136/105 58/129/98 59/128/97
f 51/136/105 50/137/106 57/130/99 58/129/98
f 50/137/106 49/138/107 56/131/100 57/130/99
f 49/138/107 48/139/108 55/132/101 56/131/100
f 48/139/108 47/30/12 54/32/14 55/132/101
f 11/140/109 46/141/110 53/134/103 13/133/102
f 46/141/110 45/142/111 52/135/104 53/134/103
f 45/142/111 44/143/112 51/136/105 52/135/104
f 44/143/112 43/144/113 50/137/106 51/136/105
f 43/144/113 42/145/114 49/138/107 50/137/106
f 42/145/114 41/146/115 48/139/108 49/138/107
f 41/146/115 40/28/10 47/30/12 48/139/108
f 9/147/35 33/148/34 46/141/110 11/140/109
f 33/148/34 34/149/37 45/142/111 46/141/110
f 34/149/37 35/150/39 44/143/112 45/142/111
f 35/150/39 36/151/41 43/144/113 44/143/112
f 36/151/41 37/152/43 42/145/114 43/144/113
f 37/152/43 38/153/45 41/146/115 42/145/114
f 38/153/45 39/25/7 40/28/10 41/146/115
f 10/54/31 32/154/31 117/55/31
f 32/154/31 30/155/31 117/55/31
f 30/155/31 28/156/31 117/55/31
f 28/156/31 26/157/31 117/55/31
f 26/157/31 24/158/31 117/55/31
f 24/158/31 22/159/31 117/55/31
f 22/159/31 20/160/31 117/55/31
f 20/160/31 18/161/31 117/55/31
f 18/161/31 16/162/31 117/55/31
f 16/162/31 14/163/31 117/55/31
f 14/163/31 12/53/31 117/55/31
