{
    "asset" : {
        "generator" : "Khronos glTF Blender I/O v1.6.16",
        "version" : "2.0"
    },
    "scene" : 0,
    "scenes" : [
        {
            "name" : "Scene",
            "nodes" : [
                0
            ]
        }
    ],
    "nodes" : [
        {
            "mesh" : 0,
            "name" : "Cylinder.005_Cylinder.007",
            "rotation" : [
                0.7071068286895752,
                0,
                0,
                0.7071067094802856
            ]
        }
    ],
    "materials" : [
        {
            "doubleSided" : true,
            "emissiveFactor" : [
                1,
                1,
                1
            ],
            "emissiveTexture" : {
                "index" : 0
            },
            "name" : "Material.001",
            "normalTexture" : {
                "index" : 1
            },
            "pbrMetallicRoughness" : {
                "baseColorTexture" : {
                    "index" : 2
                },
                "metallicRoughnessTexture" : {
                    "index" : 3
                }
            }
        }
    ],
    "meshes" : [
        {
            "name" : "Cylinder.005_Cylinder.007",
            "primitives" : [
                {
                    "attributes" : {
                        "POSITION" : 0,
                        "NORMAL" : 1,
                        "TEXCOORD_0" : 2
                    },
                    "indices" : 3,
                    "material" : 0
                }
            ]
        }
    ],
    "textures" : [
        {
            "sampler" : 0,
            "source" : 0
        },
        {
            "sampler" : 0,
            "source" : 1
        },
        {
            "sampler" : 0,
            "source" : 2
        },
        {
            "sampler" : 0,
            "source" : 3
        }
    ],
    "images" : [
        {
            "bufferView" : 4,
            "mimeType" : "image/png",
            "name" : "Material.001_emissive"
        },
        {
            "bufferView" : 5,
            "mimeType" : "image/png",
            "name" : "Material.001_normal"
        },
        {
            "bufferView" : 6,
            "mimeType" : "image/png",
            "name" : "Material.001_baseColor"
        },
        {
            "bufferView" : 7,
            "mimeType" : "image/png",
            "name" : "Material.001_occlusionRoughnessMetallic"
        }
    ],
    "accessors" : [
        {
            "bufferView" : 0,
            "componentType" : 5126,
            "count" : 1725,
            "max" : [
                1.9101669788360596,
                0.36963701248168945,
                1.3110860586166382
            ],
            "min" : [
                -1.1978009939193726,
                -0.36963701248168945,
                -0.6455879807472229
            ],
            "type" : "VEC3"
        },
        {
            "bufferView" : 1,
            "componentType" : 5126,
            "count" : 1725,
            "type" : "VEC3"
        },
        {
            "bufferView" : 2,
            "componentType" : 5126,
            "count" : 1725,
            "type" : "VEC2"
        },
        {
            "bufferView" : 3,
            "componentType" : 5123,
            "count" : 3720,
            "type" : "SCALAR"
        }
    ],
    "bufferViews" : [
        {
            "buffer" : 0,
            "byteLength" : 20700,
            "byteOffset" : 0
        },
        {
            "buffer" : 0,
            "byteLength" : 20700,
            "byteOffset" : 20700
        },
        {
            "buffer" : 0,
            "byteLength" : 13800,
            "byteOffset" : 41400
        },
        {
            "buffer" : 0,
            "byteLength" : 7440,
            "byteOffset" : 55200
        },
        {
            "buffer" : 0,
            "byteLength" : 5000,
            "byteOffset" : 62640
        },
        {
            "buffer" : 0,
            "byteLength" : 350398,
            "byteOffset" : 67640
        },
        {
            "buffer" : 0,
            "byteLength" : 198890,
            "byteOffset" : 418040
        },
        {
            "buffer" : 0,
            "byteLength" : 209808,
            "byteOffset" : 616932
        }
    ],
    "samplers" : [
        {
            "magFilter" : 9729,
            "minFilter" : 9987
        }
    ],
    "buffers" : [
        {
            "byteLength" : 826740,
            "uri" : "data:application/octet-stream;base64,"
        }
    ]
}
