{
    "asset" : {
        "generator" : "Khronos glTF Blender I/O v1.6.16",
        "version" : "2.0"
    },
    "scene" : 0,
    "scenes" : [
        {
            "name" : "Scene",
            "nodes" : [
                0
            ]
        }
    ],
    "nodes" : [
        {
            "mesh" : 0,
            "name" : "Glock_17_Frame",
            "rotation" : [
                0.7071068286895752,
                0,
                0,
                0.7071067094802856
            ]
        }
    ],
    "materials" : [
        {
            "doubleSided" : true,
            "name" : "None",
            "normalTexture" : {
                "index" : 0
            },
            "pbrMetallicRoughness" : {
                "baseColorTexture" : {
                    "index" : 1
                },
                "metallicRoughnessTexture" : {
                    "index" : 2
                }
            }
        }
    ],
    "meshes" : [
        {
            "name" : "Glock_17_Frame",
            "primitives" : [
                {
                    "attributes" : {
                        "POSITION" : 0,
                        "NORMAL" : 1,
                        "TEXCOORD_0" : 2
                    },
                    "indices" : 3,
                    "material" : 0
                }
            ]
        }
    ],
    "textures" : [
        {
            "sampler" : 0,
            "source" : 0
        },
        {
            "sampler" : 0,
            "source" : 1
        },
        {
            "sampler" : 0,
            "source" : 2
        }
    ],
    "images" : [
        {
            "bufferView" : 4,
            "mimeType" : "image/png",
            "name" : "None_normal"
        },
        {
            "bufferView" : 5,
            "mimeType" : "image/png",
            "name" : "None_baseColor"
        },
        {
            "bufferView" : 6,
            "mimeType" : "image/png",
            "name" : "None_occlusionRoughnessMetallic"
        }
    ],
    "accessors" : [
        {
            "bufferView" : 0,
            "componentType" : 5126,
            "count" : 1753,
            "max" : [
                5147.623046875,
                710.2517700195312,
                5732.3134765625
            ],
            "min" : [
                -4153.98876953125,
                -759.9561157226562,
                -779.0321044921875
            ],
            "type" : "VEC3"
        },
        {
            "bufferView" : 1,
            "componentType" : 5126,
            "count" : 1753,
            "type" : "VEC3"
        },
        {
            "bufferView" : 2,
            "componentType" : 5126,
            "count" : 1753,
            "type" : "VEC2"
        },
        {
            "bufferView" : 3,
            "componentType" : 5123,
            "count" : 4581,
            "type" : "SCALAR"
        }
    ],
    "bufferViews" : [
        {
            "buffer" : 0,
            "byteLength" : 21036,
            "byteOffset" : 0
        },
        {
            "buffer" : 0,
            "byteLength" : 21036,
            "byteOffset" : 21036
        },
        {
            "buffer" : 0,
            "byteLength" : 14024,
            "byteOffset" : 42072
        },
        {
            "buffer" : 0,
            "byteLength" : 9162,
            "byteOffset" : 56096
        },
        {
            "buffer" : 0,
            "byteLength" : 335432,
            "byteOffset" : 65260
        },
        {
            "buffer" : 0,
            "byteLength" : 237469,
            "byteOffset" : 400692
        },
        {
            "buffer" : 0,
            "byteLength" : 217564,
            "byteOffset" : 638164
        }
    ],
    "samplers" : [
        {
            "magFilter" : 9729,
            "minFilter" : 9987
        }
    ],
    "buffers" : [
        {
            "byteLength" : 855728,
            "uri" : "data:application/octet-stream;base64,"
        }
    ]
}
