{
    "asset" : {
        "generator" : "Khronos glTF Blender I/O v1.6.16",
        "version" : "2.0"
    },
    "scene" : 0,
    "scenes" : [
        {
            "name" : "Scene",
            "nodes" : [
                0
            ]
        }
    ],
    "nodes" : [
        {
            "mesh" : 0,
            "name" : "Cube.002_Cube.008",
            "rotation" : [
                0.7071068286895752,
                0,
                0,
                0.7071067094802856
            ]
        }
    ],
    "materials" : [
        {
            "doubleSided" : true,
            "name" : "None",
            "normalTexture" : {
                "index" : 0
            },
            "pbrMetallicRoughness" : {
                "baseColorTexture" : {
                    "index" : 1
                },
                "metallicRoughnessTexture" : {
                    "index" : 2
                }
            }
        }
    ],
    "meshes" : [
        {
            "name" : "Cube.002_Cube.008",
            "primitives" : [
                {
                    "attributes" : {
                        "POSITION" : 0,
                        "NORMAL" : 1,
                        "TEXCOORD_0" : 2
                    },
                    "indices" : 3,
                    "material" : 0
                }
            ]
        }
    ],
    "textures" : [
        {
            "sampler" : 0,
            "source" : 0
        },
        {
            "sampler" : 0,
            "source" : 1
        },
        {
            "sampler" : 0,
            "source" : 2
        }
    ],
    "images" : [
        {
            "bufferView" : 4,
            "mimeType" : "image/png",
            "name" : "None_normal"
        },
        {
            "bufferView" : 5,
            "mimeType" : "image/png",
            "name" : "None_baseColor"
        },
        {
            "bufferView" : 6,
            "mimeType" : "image/png",
            "name" : "None_occlusionRoughnessMetallic"
        }
    ],
    "accessors" : [
        {
            "bufferView" : 0,
            "componentType" : 5126,
            "count" : 7684,
            "max" : [
                4.535284042358398,
                0.31791600584983826,
                1.0242619514465332
            ],
            "min" : [
                -4.5237040519714355,
                -0.3946230113506317,
                -0.8477190136909485
            ],
            "type" : "VEC3"
        },
        {
            "bufferView" : 1,
            "componentType" : 5126,
            "count" : 7684,
            "type" : "VEC3"
        },
        {
            "bufferView" : 2,
            "componentType" : 5126,
            "count" : 7684,
            "type" : "VEC2"
        },
        {
            "bufferView" : 3,
            "componentType" : 5123,
            "count" : 20538,
            "type" : "SCALAR"
        }
    ],
    "bufferViews" : [
        {
            "buffer" : 0,
            "byteLength" : 92208,
            "byteOffset" : 0
        },
        {
            "buffer" : 0,
            "byteLength" : 92208,
            "byteOffset" : 92208
        },
        {
            "buffer" : 0,
            "byteLength" : 61472,
            "byteOffset" : 184416
        },
        {
            "buffer" : 0,
            "byteLength" : 41076,
            "byteOffset" : 245888
        },
        {
            "buffer" : 0,
            "byteLength" : 311567,
            "byteOffset" : 286964
        },
        {
            "buffer" : 0,
            "byteLength" : 251393,
            "byteOffset" : 598532
        },
        {
            "buffer" : 0,
            "byteLength" : 276191,
            "byteOffset" : 849928
        }
    ],
    "samplers" : [
        {
            "magFilter" : 9729,
            "minFilter" : 9987
        }
    ],
    "buffers" : [
        {
            "byteLength" : 1126120,
            "uri" : "data:application/octet-stream;base64,"
        }
    ]
}
