{
    "asset" : {
        "generator" : "Khronos glTF Blender I/O v1.6.16",
        "version" : "2.0"
    },
    "scene" : 0,
    "scenes" : [
        {
            "name" : "Scene",
            "nodes" : [
                0
            ]
        }
    ],
    "nodes" : [
        {
            "mesh" : 0,
            "name" : "Bolt_2.003_Cylinder.003",
            "rotation" : [
                0.7071068286895752,
                0,
                0,
                0.7071067094802856
            ]
        }
    ],
    "materials" : [
        {
            "doubleSided" : true,
            "name" : "None",
            "normalTexture" : {
                "index" : 0
            },
            "pbrMetallicRoughness" : {
                "baseColorTexture" : {
                    "index" : 1
                },
                "metallicRoughnessTexture" : {
                    "index" : 2
                }
            }
        }
    ],
    "meshes" : [
        {
            "name" : "Bolt_2.003_Cylinder.003",
            "primitives" : [
                {
                    "attributes" : {
                        "POSITION" : 0,
                        "NORMAL" : 1,
                        "TEXCOORD_0" : 2
                    },
                    "indices" : 3,
                    "material" : 0
                }
            ]
        }
    ],
    "textures" : [
        {
            "sampler" : 0,
            "source" : 0
        },
        {
            "sampler" : 0,
            "source" : 1
        },
        {
            "sampler" : 0,
            "source" : 2
        }
    ],
    "images" : [
        {
            "bufferView" : 4,
            "mimeType" : "image/png",
            "name" : "None_normal"
        },
        {
            "bufferView" : 5,
            "mimeType" : "image/png",
            "name" : "None_baseColor"
        },
        {
            "bufferView" : 6,
            "mimeType" : "image/png",
            "name" : "None_occlusionRoughnessMetallic"
        }
    ],
    "accessors" : [
        {
            "bufferView" : 0,
            "componentType" : 5126,
            "count" : 4625,
            "max" : [
                4938.9462890625,
                281.24639892578125,
                1449.62109375
            ],
            "min" : [
                -5008.71923828125,
                -281.2464599609375,
                -477.2537841796875
            ],
            "type" : "VEC3"
        },
        {
            "bufferView" : 1,
            "componentType" : 5126,
            "count" : 4625,
            "type" : "VEC3"
        },
        {
            "bufferView" : 2,
            "componentType" : 5126,
            "count" : 4625,
            "type" : "VEC2"
        },
        {
            "bufferView" : 3,
            "componentType" : 5123,
            "count" : 11946,
            "type" : "SCALAR"
        }
    ],
    "bufferViews" : [
        {
            "buffer" : 0,
            "byteLength" : 55500,
            "byteOffset" : 0
        },
        {
            "buffer" : 0,
            "byteLength" : 55500,
            "byteOffset" : 55500
        },
        {
            "buffer" : 0,
            "byteLength" : 37000,
            "byteOffset" : 111000
        },
        {
            "buffer" : 0,
            "byteLength" : 23892,
            "byteOffset" : 148000
        },
        {
            "buffer" : 0,
            "byteLength" : 254503,
            "byteOffset" : 171892
        },
        {
            "buffer" : 0,
            "byteLength" : 200393,
            "byteOffset" : 426396
        },
        {
            "buffer" : 0,
            "byteLength" : 244751,
            "byteOffset" : 626792
        }
    ],
    "samplers" : [
        {
            "magFilter" : 9729,
            "minFilter" : 9987
        }
    ],
    "buffers" : [
        {
            "byteLength" : 871544,
            "uri" : "data:application/octet-stream;base64,"
        }
    ]
}
