{
    "asset" : {
        "generator" : "Khronos glTF Blender I/O v1.6.16",
        "version" : "2.0"
    },
    "scene" : 0,
    "scenes" : [
        {
            "name" : "Scene",
            "nodes" : [
                0
            ]
        }
    ],
    "nodes" : [
        {
            "mesh" : 0,
            "name" : "Cylinder.008_Cylinder.018",
            "rotation" : [
                0.7071068286895752,
                0,
                0,
                0.7071067094802856
            ]
        }
    ],
    "materials" : [
        {
            "doubleSided" : true,
            "name" : "None",
            "normalTexture" : {
                "index" : 0
            },
            "pbrMetallicRoughness" : {
                "baseColorTexture" : {
                    "index" : 1
                },
                "metallicRoughnessTexture" : {
                    "index" : 2
                }
            }
        }
    ],
    "meshes" : [
        {
            "name" : "Cylinder.008_Cylinder.018",
            "primitives" : [
                {
                    "attributes" : {
                        "POSITION" : 0,
                        "NORMAL" : 1,
                        "TEXCOORD_0" : 2
                    },
                    "indices" : 3,
                    "material" : 0
                }
            ]
        }
    ],
    "textures" : [
        {
            "sampler" : 0,
            "source" : 0
        },
        {
            "sampler" : 0,
            "source" : 1
        },
        {
            "sampler" : 0,
            "source" : 2
        }
    ],
    "images" : [
        {
            "bufferView" : 4,
            "mimeType" : "image/png",
            "name" : "None_normal"
        },
        {
            "bufferView" : 5,
            "mimeType" : "image/png",
            "name" : "None_baseColor"
        },
        {
            "bufferView" : 6,
            "mimeType" : "image/png",
            "name" : "None_occlusionRoughnessMetallic"
        }
    ],
    "accessors" : [
        {
            "bufferView" : 0,
            "componentType" : 5126,
            "count" : 3588,
            "max" : [
                7695.3505859375,
                823.6160278320312,
                8650.1923828125
            ],
            "min" : [
                -3917.810546875,
                -1201.50439453125,
                -664.59814453125
            ],
            "type" : "VEC3"
        },
        {
            "bufferView" : 1,
            "componentType" : 5126,
            "count" : 3588,
            "type" : "VEC3"
        },
        {
            "bufferView" : 2,
            "componentType" : 5126,
            "count" : 3588,
            "type" : "VEC2"
        },
        {
            "bufferView" : 3,
            "componentType" : 5123,
            "count" : 11208,
            "type" : "SCALAR"
        }
    ],
    "bufferViews" : [
        {
            "buffer" : 0,
            "byteLength" : 43056,
            "byteOffset" : 0
        },
        {
            "buffer" : 0,
            "byteLength" : 43056,
            "byteOffset" : 43056
        },
        {
            "buffer" : 0,
            "byteLength" : 28704,
            "byteOffset" : 86112
        },
        {
            "buffer" : 0,
            "byteLength" : 22416,
            "byteOffset" : 114816
        },
        {
            "buffer" : 0,
            "byteLength" : 343543,
            "byteOffset" : 137232
        },
        {
            "buffer" : 0,
            "byteLength" : 239225,
            "byteOffset" : 480776
        },
        {
            "buffer" : 0,
            "byteLength" : 260319,
            "byteOffset" : 720004
        }
    ],
    "samplers" : [
        {
            "magFilter" : 9729,
            "minFilter" : 9987
        }
    ],
    "buffers" : [
        {
            "byteLength" : 980324,
            "uri" : "data:application/octet-stream;base64,"
        }
    ]
}
