{
    "asset" : {
        "generator" : "Khronos glTF Blender I/O v1.6.16",
        "version" : "2.0"
    },
    "scene" : 0,
    "scenes" : [
        {
            "name" : "Scene",
            "nodes" : [
                0
            ]
        }
    ],
    "nodes" : [
        {
            "mesh" : 0,
            "name" : "Cylinder.019_Cylinder.000",
            "rotation" : [
                0.7071068286895752,
                0,
                0,
                0.7071067094802856
            ]
        }
    ],
    "materials" : [
        {
            "doubleSided" : true,
            "name" : "None",
            "normalTexture" : {
                "index" : 0
            },
            "pbrMetallicRoughness" : {
                "baseColorTexture" : {
                    "index" : 1
                },
                "metallicRoughnessTexture" : {
                    "index" : 2
                }
            }
        }
    ],
    "meshes" : [
        {
            "name" : "Cylinder.019_Cylinder.001",
            "primitives" : [
                {
                    "attributes" : {
                        "POSITION" : 0,
                        "NORMAL" : 1,
                        "TEXCOORD_0" : 2
                    },
                    "indices" : 3,
                    "material" : 0
                }
            ]
        }
    ],
    "textures" : [
        {
            "sampler" : 0,
            "source" : 0
        },
        {
            "sampler" : 0,
            "source" : 1
        },
        {
            "sampler" : 0,
            "source" : 2
        }
    ],
    "images" : [
        {
            "bufferView" : 4,
            "mimeType" : "image/png",
            "name" : "None_normal"
        },
        {
            "bufferView" : 5,
            "mimeType" : "image/png",
            "name" : "None_baseColor"
        },
        {
            "bufferView" : 6,
            "mimeType" : "image/png",
            "name" : "None_occlusionRoughnessMetallic"
        }
    ],
    "accessors" : [
        {
            "bufferView" : 0,
            "componentType" : 5126,
            "count" : 6346,
            "max" : [
                7166,
                408,
                1218
            ],
            "min" : [
                -2784,
                -272,
                -740
            ],
            "type" : "VEC3"
        },
        {
            "bufferView" : 1,
            "componentType" : 5126,
            "count" : 6346,
            "type" : "VEC3"
        },
        {
            "bufferView" : 2,
            "componentType" : 5126,
            "count" : 6346,
            "type" : "VEC2"
        },
        {
            "bufferView" : 3,
            "componentType" : 5123,
            "count" : 18051,
            "type" : "SCALAR"
        }
    ],
    "bufferViews" : [
        {
            "buffer" : 0,
            "byteLength" : 76152,
            "byteOffset" : 0
        },
        {
            "buffer" : 0,
            "byteLength" : 76152,
            "byteOffset" : 76152
        },
        {
            "buffer" : 0,
            "byteLength" : 50768,
            "byteOffset" : 152304
        },
        {
            "buffer" : 0,
            "byteLength" : 36102,
            "byteOffset" : 203072
        },
        {
            "buffer" : 0,
            "byteLength" : 307996,
            "byteOffset" : 239176
        },
        {
            "buffer" : 0,
            "byteLength" : 192294,
            "byteOffset" : 547172
        },
        {
            "buffer" : 0,
            "byteLength" : 235528,
            "byteOffset" : 739468
        }
    ],
    "samplers" : [
        {
            "magFilter" : 9729,
            "minFilter" : 9987
        }
    ],
    "buffers" : [
        {
            "byteLength" : 974996,
            "uri" : "data:application/octet-stream;base64,"
        }
    ]
}
