{
    "asset" : {
        "generator" : "Khronos glTF Blender I/O v1.6.16",
        "version" : "2.0"
    },
    "scene" : 0,
    "scenes" : [
        {
            "name" : "Scene",
            "nodes" : [
                0
            ]
        }
    ],
    "nodes" : [
        {
            "mesh" : 0,
            "name" : "Cube.012_Cube.000_Cube.012_Cube.020",
            "rotation" : [
                0.7071068286895752,
                0,
                0,
                0.7071067094802856
            ]
        }
    ],
    "materials" : [
        {
            "doubleSided" : true,
            "name" : "Material.002",
            "normalTexture" : {
                "index" : 0
            },
            "pbrMetallicRoughness" : {
                "baseColorTexture" : {
                    "index" : 1
                },
                "metallicRoughnessTexture" : {
                    "index" : 2
                }
            }
        }
    ],
    "meshes" : [
        {
            "name" : "Cube.012_Cube.000_Cube.012_Cube.020",
            "primitives" : [
                {
                    "attributes" : {
                        "POSITION" : 0,
                        "NORMAL" : 1,
                        "TEXCOORD_0" : 2
                    },
                    "indices" : 3,
                    "material" : 0
                }
            ]
        }
    ],
    "textures" : [
        {
            "sampler" : 0,
            "source" : 0
        },
        {
            "sampler" : 0,
            "source" : 1
        },
        {
            "sampler" : 0,
            "source" : 2
        }
    ],
    "images" : [
        {
            "bufferView" : 4,
            "mimeType" : "image/png",
            "name" : "Material.002_normal"
        },
        {
            "bufferView" : 5,
            "mimeType" : "image/png",
            "name" : "Material.002_baseColor"
        },
        {
            "bufferView" : 6,
            "mimeType" : "image/png",
            "name" : "Material.002_occlusionRoughnessMetallic"
        }
    ],
    "accessors" : [
        {
            "bufferView" : 0,
            "componentType" : 5126,
            "count" : 3470,
            "max" : [
                3.5104639530181885,
                0.2108200043439865,
                1.5338189601898193
            ],
            "min" : [
                -1.6582659482955933,
                -0.32585400342941284,
                -0.5301740169525146
            ],
            "type" : "VEC3"
        },
        {
            "bufferView" : 1,
            "componentType" : 5126,
            "count" : 3470,
            "type" : "VEC3"
        },
        {
            "bufferView" : 2,
            "componentType" : 5126,
            "count" : 3470,
            "type" : "VEC2"
        },
        {
            "bufferView" : 3,
            "componentType" : 5123,
            "count" : 9729,
            "type" : "SCALAR"
        }
    ],
    "bufferViews" : [
        {
            "buffer" : 0,
            "byteLength" : 41640,
            "byteOffset" : 0
        },
        {
            "buffer" : 0,
            "byteLength" : 41640,
            "byteOffset" : 41640
        },
        {
            "buffer" : 0,
            "byteLength" : 27760,
            "byteOffset" : 83280
        },
        {
            "buffer" : 0,
            "byteLength" : 19458,
            "byteOffset" : 111040
        },
        {
            "buffer" : 0,
            "byteLength" : 311266,
            "byteOffset" : 130500
        },
        {
            "buffer" : 0,
            "byteLength" : 150211,
            "byteOffset" : 441768
        },
        {
            "buffer" : 0,
            "byteLength" : 208421,
            "byteOffset" : 591980
        }
    ],
    "samplers" : [
        {
            "magFilter" : 9729,
            "minFilter" : 9987
        }
    ],
    "buffers" : [
        {
            "byteLength" : 800404,
            "uri" : "data:application/octet-stream;base64,"
        }
    ]
}
