# Blender v2.79 (sub 0) OBJ File: 'map.blend'
# www.blender.org
mtllib map_0.mtl
o Plane
v -0.254482 1.411450 0.865552
v -0.015394 1.441995 0.000120
v -0.206180 1.402256 -0.884145
v -0.239347 0.500918 -0.932243
v -0.033786 0.513256 -0.002140
v -0.241313 0.508159 0.935300
v -0.293440 1.397478 -1.061135
v -0.390622 1.399083 -1.242824
v -0.597402 1.359009 -1.358429
v -0.566393 1.002826 0.889477
v -0.421366 1.302678 0.892599
v -0.159679 1.451622 0.753942
v -0.117639 1.449611 0.566538
v -0.076623 1.447863 0.378903
v -0.037461 1.442587 0.190934
v -0.037188 1.442690 -0.190613
v -0.075955 1.441762 -0.372226
v -0.115723 1.430388 -0.546299
v -0.155935 1.416288 -0.716574
v -0.239650 0.666423 -0.920683
v -0.037510 0.691266 -0.000276
v -0.240939 0.684803 0.935333
v -0.224266 -0.235009 -0.870717
v -0.276218 0.164060 -0.931709
v -0.263907 0.335602 -0.929389
v -0.025445 -0.198274 -0.009106
v -0.064492 0.214320 -0.013031
v -0.066734 0.376603 -0.000821
v -0.219210 -0.181227 0.837018
v -0.276643 0.172910 0.912839
v -0.274634 0.344697 0.926856
v -0.195670 0.507210 0.748694
v -0.149852 0.519410 0.562435
v -0.109251 0.518632 0.374605
v -0.069478 0.514068 0.186638
v -0.072018 0.500984 -0.190032
v -0.109659 0.516502 -0.377844
v -0.150578 0.514287 -0.565589
v -0.193548 0.516144 -0.751311
v -0.340981 0.477721 -1.110502
v -0.443441 0.464546 -1.290414
v -0.545800 0.456713 -1.458345
v -0.547330 0.474620 1.477728
v -0.443251 0.481650 1.307066
v -0.341164 0.492145 1.121577
v -0.319209 -0.198521 1.009109
v -0.376290 0.131461 1.092964
v -0.365375 0.326515 1.117177
v -0.434647 -0.270885 1.170941
v -0.477069 0.110346 1.278057
v -0.462674 0.307938 1.304567
v -0.545217 -0.300217 1.315896
v -0.571924 0.077352 1.445935
v -0.564593 0.275378 1.473806
v -0.549642 -0.300508 -1.325394
v -0.574167 0.078684 -1.450721
v -0.565294 0.271166 -1.471057
v -0.437562 -0.276852 -1.186157
v -0.479062 0.106190 -1.280853
v -0.460812 0.297778 -1.297265
v -0.333920 -0.237434 -1.018989
v -0.377513 0.126975 -1.096017
v -0.362924 0.309523 -1.112237
v -0.116158 -0.215319 -0.756420
v -0.273536 0.193548 -0.742527
v -0.205330 0.375814 -0.751972
v -0.087679 -0.210996 -0.565462
v -0.242493 0.204743 -0.553081
v -0.159409 0.396969 -0.566189
v -0.060703 -0.196162 -0.375811
v -0.194615 0.223123 -0.367040
v -0.122195 0.377153 -0.378734
v -0.038775 -0.203177 -0.181858
v -0.137405 0.170132 -0.187367
v -0.093196 0.356937 -0.190414
v -0.052985 -0.196630 0.161500
v -0.134157 0.219109 0.165725
v -0.080913 0.405668 0.187767
v -0.073779 -0.164471 0.353578
v -0.192637 0.222601 0.349013
v -0.116810 0.402083 0.376551
v -0.100174 -0.171494 0.544577
v -0.230370 0.195970 0.537384
v -0.160883 0.379099 0.562563
v -0.171995 -0.177367 0.721021
v -0.252207 0.139145 0.722546
v -0.217961 0.342690 0.743244
v -0.073686 0.661659 0.186097
v -0.112907 0.664053 0.374146
v -0.154046 0.667143 0.561723
v -0.196548 0.669936 0.749024
v -0.196294 0.663579 -0.743669
v -0.154598 0.665748 -0.561171
v -0.112888 0.665056 -0.374640
v -0.073711 0.661514 -0.186611
v -0.527275 0.638902 -1.447415
v -0.495044 1.203397 -1.423492
v -0.431766 0.645740 -1.276841
v -0.334147 0.647241 -1.098643
v -0.335863 0.673094 1.124452
v -0.434452 0.678734 1.311999
v -0.530744 0.674455 1.484819
v -0.560538 0.831331 1.418271
v -0.630558 0.913216 1.255574
v -0.215113 1.253370 0.939335
v -0.426262 0.854900 1.314637
v -0.318679 1.052536 1.128410
vt 0.093025 0.480040
vt 0.030635 0.657166
vt 0.030635 0.480040
vt 0.669318 0.362164
vt 0.612879 0.362164
vt 0.612879 0.303330
vt 0.669318 0.303330
vt 0.217804 0.185662
vt 0.217804 0.303330
vt 0.155414 0.303330
vt 0.155414 0.185662
vt 0.669318 0.185662
vt 0.737423 0.185662
vt 0.725757 0.303330
vt 0.387122 0.185662
vt 0.443561 0.185662
vt 0.443561 0.303330
vt 0.387122 0.303330
vt 0.556439 0.362164
vt 0.556439 0.303330
vt 0.844586 0.420998
vt 0.782196 0.420998
vt 0.782196 0.362164
vt 0.844586 0.362164
vt 0.500000 0.185662
vt 0.500000 0.303330
vt 0.500000 0.362164
vt 0.612879 0.185662
vt 0.556439 0.185662
vt 0.782196 0.303330
vt 0.725757 0.362164
vt 0.443561 0.362164
vt 0.274243 0.185662
vt 0.274243 0.303330
vt 0.217804 0.420998
vt 0.217804 0.362164
vt 0.274243 0.362164
vt 0.274243 0.420998
vt 0.330682 0.303330
vt 0.387122 0.362164
vt 0.330682 0.362164
vt 0.330682 0.185662
vt 0.844586 0.185662
vt 0.906975 0.185662
vt 0.906975 0.303330
vt 0.844586 0.303330
vt 0.969365 0.185662
vt 0.969365 0.303330
vt 0.969365 0.480040
vt 0.969365 0.539082
vt 0.906975 0.531966
vt 0.906975 0.480040
vt 0.782196 0.185662
vt 0.500000 0.420998
vt 0.556439 0.420998
vt 0.725757 0.420998
vt 0.669318 0.420998
vt 0.500000 0.480040
vt 0.556439 0.480040
vt 0.556439 0.716208
vt 0.500000 0.716208
vt 0.093025 0.185662
vt 0.093025 0.303330
vt 0.844586 0.593630
vt 0.782196 0.656395
vt 0.782196 0.716208
vt 0.725757 0.716208
vt 0.844586 0.716208
vt 0.969365 0.598124
vt 0.969365 0.716208
vt 0.782196 0.480040
vt 0.844586 0.480040
vt 0.725757 0.480040
vt 0.093025 0.716208
vt 0.030635 0.716208
vt 0.155414 0.362164
vt 0.093025 0.420998
vt 0.093025 0.362164
vt 0.155414 0.420998
vt 0.155414 0.480040
vt 0.030635 0.362164
vt 0.030635 0.303330
vt 0.330682 0.480040
vt 0.330682 0.420998
vt 0.387122 0.420998
vt 0.387122 0.480040
vt 0.443561 0.480040
vt 0.443561 0.420998
vt 0.217804 0.480040
vt 0.274243 0.480040
vt 0.030635 0.420998
vt 0.217804 0.716208
vt 0.274243 0.716208
vt 0.906975 0.420998
vt 0.155414 0.716208
vt 0.969365 0.420998
vt 0.330682 0.716208
vt 0.387122 0.716208
vt 0.969365 0.362164
vt 0.906975 0.362164
vt 0.612879 0.420998
vt 0.612879 0.480040
vt 0.669318 0.716208
vt 0.669318 0.480040
vt 0.443561 0.716208
vt 0.612879 0.716208
vt 0.030635 0.185662
vn -0.8726 0.0251 0.4878
vn -0.7765 -0.1493 0.6121
vn -0.8677 0.0338 0.4958
vn -0.9581 0.2112 -0.1933
vn -0.9548 0.2189 -0.2008
vn -0.9784 0.0652 -0.1961
vn -0.9806 0.0290 -0.1938
vn -0.8804 -0.1183 0.4593
vn -0.9143 0.0204 0.4044
vn -0.8625 0.0537 0.5032
vn -0.8460 0.0063 0.5331
vn -0.9252 -0.2980 -0.2348
vn -0.9402 -0.2317 -0.2495
vn -0.9733 -0.0500 -0.2238
vn -0.9354 -0.3016 0.1843
vn -0.9526 -0.2202 0.2098
vn -0.9712 -0.0389 0.2349
vn -0.9704 0.0723 0.2304
vn -0.9604 0.1944 -0.1996
vn -0.9721 0.0330 -0.2319
vn -0.8849 0.0903 -0.4568
vn -0.9324 0.0882 -0.3504
vn -0.9283 0.1359 -0.3460
vn -0.8849 0.1210 -0.4497
vn -0.9876 -0.1566 0.0005
vn -1.0000 -0.0012 0.0073
vn -0.9864 0.1639 -0.0052
vn -0.9447 -0.2726 -0.1820
vn -0.9567 -0.1846 -0.2249
vn -0.9346 0.0143 -0.3554
vn -0.9611 0.1711 -0.2167
vn -0.9581 0.1858 0.2178
vn -0.9214 -0.2885 0.2604
vn -0.9788 0.0132 0.2044
vn -0.9279 0.0490 0.3694
vn -0.9318 0.1441 0.3330
vn -0.9593 0.2025 0.1967
vn -0.9704 0.0322 0.2392
vn -0.9803 0.0253 0.1957
vn -0.9467 0.2364 0.2187
vn -0.9520 0.2294 0.2028
vn -0.9222 -0.3395 0.1852
vn -0.8600 -0.0049 -0.5101
vn -0.8465 0.0554 -0.5295
vn -0.8614 0.0880 -0.5003
vn -0.8740 0.0467 -0.4836
vn -0.8406 0.0903 -0.5340
vn -0.8549 0.1026 -0.5086
vn -0.8207 -0.0382 -0.5701
vn -0.4871 -0.4328 -0.7585
vn -0.7354 -0.2022 -0.6468
vn -0.8507 -0.0038 -0.5257
vn -0.9340 -0.1119 -0.3392
vn -0.9969 0.0785 0.0054
vn -0.9815 0.0521 -0.1839
vn -0.9666 0.0677 -0.2470
vn -0.9730 0.0323 -0.2286
vn -0.9999 0.0117 0.0009
vn -0.9820 0.0070 -0.1885
vn -0.9832 0.0424 -0.1775
vn -0.9992 0.0386 -0.0003
vn -0.8513 0.0489 0.5224
vn -0.8615 0.0837 0.5007
vn -0.7537 -0.2244 -0.6177
vn -0.8036 -0.2232 -0.5517
vn -0.3905 -0.5694 -0.7233
vn -0.9391 -0.0639 -0.3377
vn 0.5386 -0.7132 -0.4485
vn 0.5426 -0.7099 -0.4490
vn 0.8988 -0.4353 0.0510
vn -0.9300 0.0276 -0.3665
vn -0.8866 0.0377 -0.4610
vn -0.9676 0.0184 -0.2517
vn -0.8006 -0.1178 0.5875
vn -0.3285 -0.5401 0.7748
vn -0.8746 0.1030 0.4737
vn -0.8679 0.0516 0.4941
vn -0.8693 0.0931 0.4855
vn -0.8759 0.0545 0.4793
vn -0.8793 0.0094 0.4761
vn -0.8626 0.0869 0.4983
vn -0.8516 0.0969 0.5151
vn -0.9753 0.0077 0.2207
vn -0.9754 0.0245 0.2189
vn -0.9788 0.0348 0.2019
vn -0.9776 0.0109 0.2102
vn -0.9819 0.0099 0.1893
vn -0.9806 0.0706 0.1826
vn -0.9321 0.0049 0.3620
vn -0.9712 0.0061 0.2381
vn -0.8598 0.0506 0.5082
vn -0.9353 0.0299 0.3526
vn -0.9697 0.0410 0.2409
vn -0.8703 0.0828 -0.4855
vn -0.8851 0.0234 0.4647
vn -0.8594 0.0821 -0.5047
vn -0.9742 0.0451 0.2213
vn -0.9761 0.0459 0.2124
vn -0.8625 0.1045 -0.4952
vn -0.8709 0.1105 -0.4788
vn -0.9779 0.0234 -0.2078
vn -0.9778 0.0097 -0.2092
vn -0.9749 0.0468 -0.2173
vn -0.9755 0.0126 -0.2195
vn -0.9832 0.0422 0.1777
vn -0.9767 0.0466 -0.2095
vn -0.8341 0.0851 0.5450
usemtl None
s 1
f 98/1/1 97/2/2 96/3/3
f 84/4/4 81/5/5 80/6/6 83/7/7
f 23/8/8 24/9/9 62/10/10 61/11/11
f 82/12/12 85/13/13 86/14/14 83/7/7
f 70/15/15 73/16/16 74/17/17 71/18/18
f 78/19/19 77/20/20 80/6/6 81/5/5
f 45/21/21 6/22/22 31/23/23 48/24/24
f 73/16/16 26/25/25 27/26/26 74/17/17
f 28/27/27 27/26/26 77/20/20 78/19/19
f 79/28/28 80/6/6 77/20/20 76/29/29
f 86/14/14 30/30/30 31/23/23 87/31/31
f 74/17/17 27/26/26 28/27/27 75/32/32
f 84/4/4 83/7/7 86/14/14 87/31/31
f 23/8/8 64/33/33 65/34/34 24/9/9
f 79/28/28 82/12/12 83/7/7 80/6/6
f 4/35/35 25/36/36 66/37/37 39/38/38
f 68/39/39 71/18/18 72/40/40 69/41/41
f 68/39/39 65/34/34 64/33/33 67/42/42
f 46/43/43 49/44/44 50/45/45 47/46/46
f 72/40/40 71/18/18 74/17/17 75/32/32
f 24/9/9 65/34/34 66/37/37 25/36/36
f 50/45/45 49/44/44 52/47/47 53/48/48
f 102/49/49 103/50/50 106/51/51 101/52/52
f 86/14/14 85/13/13 29/53/53 30/30/30
f 5/54/54 28/27/27 78/19/19 35/55/55
f 32/56/56 33/57/57 84/4/4 87/31/31
f 21/58/58 88/59/59 15/60/60 2/61/61
f 58/62/62 61/11/11 62/10/10 59/63/63
f 46/43/43 47/46/46 30/30/30 29/53/53
f 77/20/20 27/26/26 26/25/25 76/29/29
f 107/64/64 106/51/51 103/50/50
f 105/65/65 1/66/66 12/67/67
f 107/64/64 1/66/66 105/65/65
f 103/50/50 1/66/66 107/64/64
f 11/68/68 104/69/69 10/70/70
f 107/64/64 22/71/71 100/72/72
f 106/51/51 100/72/72 101/52/52
f 107/64/64 105/65/65 91/73/73 22/71/71
f 103/50/50 11/68/68 1/66/66
f 8/74/74 9/75/75 97/2/2
f 98/1/1 8/74/74 97/2/2
f 63/76/76 62/10/10 24/9/9 25/36/36
f 41/77/77 60/78/78 63/76/76 40/79/79
f 98/1/1 41/77/77 40/79/79 99/80/80
f 66/37/37 65/34/34 68/39/39 69/41/41
f 57/81/81 56/82/82 59/63/63 60/78/78
f 93/83/83 38/84/84 37/85/85 94/86/86
f 95/87/87 36/88/88 5/54/54 21/58/58
f 20/89/89 4/35/35 39/38/38 92/90/90
f 99/80/80 40/79/79 4/35/35 20/89/89
f 96/3/3 42/91/91 41/77/77 98/1/1
f 68/39/39 67/42/42 70/15/15 71/18/18
f 3/92/92 20/89/89 92/90/90 19/93/93
f 32/56/56 87/31/31 31/23/23 6/22/22
f 101/52/52 100/72/72 45/21/21 44/94/94
f 88/59/59 21/58/58 5/54/54 35/55/55
f 8/74/74 98/1/1 99/80/80 7/95/95
f 48/24/24 31/23/23 30/30/30 47/46/46
f 102/49/49 101/52/52 44/94/94 43/96/96
f 42/91/91 57/81/81 60/78/78 41/77/77
f 7/95/95 99/80/80 20/89/89 3/92/92
f 18/97/97 93/83/83 94/86/86 17/98/98
f 54/99/99 51/100/100 50/45/45 53/48/48
f 91/73/73 32/56/56 6/22/22 22/71/71
f 33/57/57 34/101/101 81/5/5 84/4/4
f 60/78/78 59/63/63 62/10/10 63/76/76
f 92/90/90 39/38/38 38/84/84 93/83/83
f 88/59/59 35/55/55 34/101/101 89/102/102
f 13/103/103 90/104/104 91/73/73 12/67/67
f 17/98/98 94/86/86 95/87/87 16/105/105
f 105/65/65 12/67/67 91/73/73
f 100/72/72 22/71/71 6/22/22 45/21/21
f 51/100/100 48/24/24 47/46/46 50/45/45
f 15/60/60 88/59/59 89/102/102 14/106/106
f 91/73/73 90/104/104 33/57/57 32/56/56
f 89/102/102 34/101/101 33/57/57 90/104/104
f 36/88/88 37/85/85 72/40/40 75/32/32
f 95/87/87 94/86/86 37/85/85 36/88/88
f 44/94/94 45/21/21 48/24/24 51/100/100
f 39/38/38 66/37/37 69/41/41 38/84/84
f 43/96/96 44/94/94 51/100/100 54/99/99
f 75/32/32 28/27/27 5/54/54 36/88/88
f 40/79/79 63/76/76 25/36/36 4/35/35
f 19/93/93 92/90/90 93/83/83 18/97/97
f 106/51/51 107/64/64 100/72/72
f 34/101/101 35/55/55 78/19/19 81/5/5
f 37/85/85 38/84/84 69/41/41 72/40/40
f 103/50/50 104/69/69 11/68/68
f 16/105/105 95/87/87 21/58/58 2/61/61
f 14/106/106 89/102/102 90/104/104 13/103/103
f 59/63/63 56/82/82 55/107/107 58/62/62
