{
    "asset" : {
        "generator" : "Khronos glTF Blender I/O v1.6.16",
        "version" : "2.0"
    },
    "scene" : 0,
    "scenes" : [
        {
            "name" : "Scene",
            "nodes" : [
                0
            ]
        }
    ],
    "nodes" : [
        {
            "mesh" : 0,
            "name" : "weapon_9_lol",
            "rotation" : [
                0.7071068286895752,
                0,
                0,
                0.7071067094802856
            ],
            "scale" : [
                1311.1104736328125,
                1311.1104736328125,
                1311.1104736328125
            ]
        }
    ],
    "materials" : [
        {
            "doubleSided" : true,
            "name" : "Material.001",
            "normalTexture" : {
                "index" : 0
            },
            "pbrMetallicRoughness" : {
                "baseColorTexture" : {
                    "index" : 1
                },
                "metallicRoughnessTexture" : {
                    "index" : 2
                }
            }
        }
    ],
    "meshes" : [
        {
            "name" : "weapon_9_lol",
            "primitives" : [
                {
                    "attributes" : {
                        "POSITION" : 0,
                        "NORMAL" : 1,
                        "TEXCOORD_0" : 2
                    },
                    "indices" : 3,
                    "material" : 0
                }
            ]
        }
    ],
    "textures" : [
        {
            "sampler" : 0,
            "source" : 0
        },
        {
            "sampler" : 0,
            "source" : 1
        },
        {
            "sampler" : 0,
            "source" : 2
        }
    ],
    "images" : [
        {
            "bufferView" : 4,
            "mimeType" : "image/png",
            "name" : "Material.001_normal"
        },
        {
            "bufferView" : 5,
            "mimeType" : "image/png",
            "name" : "Material.001_baseColor"
        },
        {
            "bufferView" : 6,
            "mimeType" : "image/png",
            "name" : "Material.001_occlusionRoughnessMetallic"
        }
    ],
    "accessors" : [
        {
            "bufferView" : 0,
            "componentType" : 5126,
            "count" : 2811,
            "max" : [
                3.7890360355377197,
                0.3336690068244934,
                0.4490959942340851
            ],
            "min" : [
                -3.79917311668396,
                -0.3336690068244934,
                -1.1338939666748047
            ],
            "type" : "VEC3"
        },
        {
            "bufferView" : 1,
            "componentType" : 5126,
            "count" : 2811,
            "type" : "VEC3"
        },
        {
            "bufferView" : 2,
            "componentType" : 5126,
            "count" : 2811,
            "type" : "VEC2"
        },
        {
            "bufferView" : 3,
            "componentType" : 5123,
            "count" : 7170,
            "type" : "SCALAR"
        }
    ],
    "bufferViews" : [
        {
            "buffer" : 0,
            "byteLength" : 33732,
            "byteOffset" : 0
        },
        {
            "buffer" : 0,
            "byteLength" : 33732,
            "byteOffset" : 33732
        },
        {
            "buffer" : 0,
            "byteLength" : 22488,
            "byteOffset" : 67464
        },
        {
            "buffer" : 0,
            "byteLength" : 14340,
            "byteOffset" : 89952
        },
        {
            "buffer" : 0,
            "byteLength" : 211087,
            "byteOffset" : 104292
        },
        {
            "buffer" : 0,
            "byteLength" : 143157,
            "byteOffset" : 315380
        },
        {
            "buffer" : 0,
            "byteLength" : 244622,
            "byteOffset" : 458540
        }
    ],
    "samplers" : [
        {
            "magFilter" : 9729,
            "minFilter" : 9987
        }
    ],
    "buffers" : [
        {
            "byteLength" : 703164,
            "uri" : "data:application/octet-stream;base64,"
        }
    ]
}
